<svg id="Layer_1" data-name="Layer 1" xmlns="http://www.w3.org/2000/svg" viewBox="0 0 23.11 24"><g id="_449_Hobbies_Hobby_Card" data-name="449, Hobbies, Hobby, Card"><path d="M13,5.72A1.94,1.94,0,0,0,11.14,3.8l.58-1.55a1.89,1.89,0,0,1,2.46-1.12L21.86,4A1.89,1.89,0,0,1,23,6.47l-4.88,12.9a1.9,1.9,0,0,1-2.47,1.12l-2.62-1h0V5.72Z" transform="translate(-0.49)" style="fill:#fff"/><polygon points="15.07 8.93 15.19 12.1 12.52 13.73 12.52 10.27 15.07 8.93" style="fill:#fff"/><path d="M11.14,3.84H2.91A1.91,1.91,0,0,0,1,5.76V19.49a1.91,1.91,0,0,0,1.92,1.92H11.1A1.91,1.91,0,0,0,13,19.49h0V5.72A1.88,1.88,0,0,0,11.14,3.84Z" transform="translate(-0.49)" style="fill:#a1c6e9"/><path d="M11.14,21.91H2.91A2.42,2.42,0,0,1,.49,19.49V5.72A2.42,2.42,0,0,1,2.91,3.3h8.23a1.3,1.3,0,0,1,.41,0,2.42,2.42,0,0,1,2,2.38V19.45A2.37,2.37,0,0,1,11.14,21.91ZM2.91,4.34A1.39,1.39,0,0,0,1.54,5.72V19.45a1.39,1.39,0,0,0,1.37,1.38H11.1a1.39,1.39,0,0,0,1.37-1.38V5.72A1.39,1.39,0,0,0,11.1,4.34Z" transform="translate(-0.49)" style="fill:#2c80c3"/><path d="M20.32,20.33a1,1,0,1,1-1,1A1.09,1.09,0,0,1,20.32,20.33Z" transform="translate(-0.49)" style="fill:#c3e3f7"/><path d="M1.83.5a.79.79,0,0,1,.79.79A.79.79,0,1,1,1.83.5Z" transform="translate(-0.49)" style="fill:#c3e3f7"/><polygon points="6.55 9.72 8.26 12.44 6.55 15.48 4.84 12.44 6.55 9.72" style="fill:#fff"/><path d="M22.41,16.11v0a.5.5,0,0,1-.46.5h0a.5.5,0,0,1-.51-.46v0a.5.5,0,0,1,.46-.5A.49.49,0,0,1,22.41,16.11Z" transform="translate(-0.49)" style="fill:#2c80c3"/><path d="M9.38,23.46v0a.49.49,0,0,1-.46.5h0a.5.5,0,0,1-.5-.46v0a.5.5,0,0,1,.46-.5A.57.57,0,0,1,9.38,23.46Z" transform="translate(-0.49)" style="fill:#2c80c3"/><path d="M8.3,1V1a.5.5,0,0,1-.46.5h0a.49.49,0,0,1-.5-.45V1a.5.5,0,0,1,1,0Z" transform="translate(-0.49)" style="fill:#2c80c3"/><path d="M7.05,16a.49.49,0,0,1-.46-.25l-1.71-3a.57.57,0,0,1,0-.54L6.59,9.47a.49.49,0,0,1,.46-.25.62.62,0,0,1,.46.25l1.71,2.72a.52.52,0,0,1,0,.54l-1.76,3A.46.46,0,0,1,7.05,16ZM5.92,12.48l1.08,2,1.09-2-1-1.75Z" transform="translate(-0.49)" style="fill:#2c80c3"/><path d="M16.35,21.12a1.79,1.79,0,0,1-.83-.17l-2.63-1a.5.5,0,0,1-.29-.67.51.51,0,0,1,.67-.29l2.63,1a1.26,1.26,0,0,0,1,0,1.38,1.38,0,0,0,.71-.79L22.49,6.3a1.41,1.41,0,0,0-.79-1.79L14,1.63a1.43,1.43,0,0,0-1.8.79l-.37,1,.33.13a.53.53,0,0,1,.25.71.51.51,0,0,1-.71.25,1.53,1.53,0,0,0-.58-.13.49.49,0,0,1-.46-.71l.58-1.54A2.21,2.21,0,0,1,12.51.75a2.35,2.35,0,0,1,1.84,0L22,3.59a2.44,2.44,0,0,1,1.42,3.13L18.61,19.53a2.21,2.21,0,0,1-1.25,1.34A2.22,2.22,0,0,1,16.35,21.12Z" transform="translate(-0.49)" style="fill:#2c80c3"/><path d="M13,14.23a.56.56,0,0,1-.46-.25.49.49,0,0,1,.16-.71l2.38-1.46L15,9.73l-1.8,1a.52.52,0,1,1-.5-.92l2.51-1.38a.55.55,0,0,1,.5,0,.45.45,0,0,1,.25.42L16.15,12a.49.49,0,0,1-.25.46l-2.59,1.71A.66.66,0,0,1,13,14.23Z" transform="translate(-0.49)" style="fill:#2c80c3"/><path d="M3.12,17.2a.55.55,0,0,1-.54-.55V7.81a.55.55,0,1,1,1.09,0V16.7A.55.55,0,0,1,3.12,17.2Z" transform="translate(-0.49)" style="fill:#2c80c3"/><path d="M10.93,19.28a.55.55,0,0,1-.54-.54V14.07a.54.54,0,1,1,1.08,0v4.71A.51.51,0,0,1,10.93,19.28Z" transform="translate(-0.49)" style="fill:#2c80c3"/><path d="M20.32,23a1.59,1.59,0,1,1,1.59-1.59A1.59,1.59,0,0,1,20.32,23Zm0-2.09a.54.54,0,1,0,.54.54A.53.53,0,0,0,20.32,20.87Z" transform="translate(-0.49)" style="fill:#2c80c3"/><path d="M1.83,2.59a1.3,1.3,0,1,1,1.29-1.3A1.3,1.3,0,0,1,1.83,2.59ZM1.83,1a.27.27,0,0,0-.25.25.26.26,0,0,0,.25.25.27.27,0,0,0,.25-.25A.28.28,0,0,0,1.83,1Z" transform="translate(-0.49)" style="fill:#2c80c3"/></g></svg>