<svg id="Layer_1" data-name="Layer 1" xmlns="http://www.w3.org/2000/svg" viewBox="0 0 24.13 24"><g id="C_-_61_Diagram_features_human_people_personal_profile_user" data-name="C - 61 Diagram features human people personal profile user"><path d="M20.88,11.52V12a8.85,8.85,0,1,1-9.33-8.8H12a8.82,8.82,0,0,1,8.85,8.32ZM16.15,17V14.72a1.82,1.82,0,0,0-1.8-1.8H9.75a1.84,1.84,0,0,0-1.83,1.8V17ZM14.31,9.28a2.28,2.28,0,0,0-4.56,0h0a2.28,2.28,0,0,0,4.56,0Z" transform="translate(0.07 0)" style="fill:#a1c6e9"/><path d="M12.47,15.15h-.92v.92h.92Zm0-.43V13.8h-.92v.92Zm3.68,0V17H7.92V14.72a1.8,1.8,0,0,1,1.81-1.8h4.62A1.82,1.82,0,0,1,16.15,14.72Z" transform="translate(0.07 0)" style="fill:#fff"/><path d="M12,7A2.26,2.26,0,0,1,14.3,9.22a.13.13,0,0,1,0,.06A2.3,2.3,0,0,1,12,11.56h0A2.27,2.27,0,0,1,9.75,9.28h0A2.29,2.29,0,0,1,12,7Z" transform="translate(0.07 0)" style="fill:#fff"/><path d="M23.81,11.52H20.88a8.82,8.82,0,0,0-2.94-6.09l2-2.19A11.86,11.86,0,0,1,23.81,11.52Z" transform="translate(0.07 0)" style="fill:#fff"/><path d="M19.87,3.24l-2,2.19A8.81,8.81,0,0,0,12,3.2h-.5V.26H12A11.59,11.59,0,0,1,19.87,3.24Z" transform="translate(0.07 0)" style="fill:#fff"/><path d="M23.81,11.52V12A11.82,11.82,0,0,1,.69,15.37l2.8-1A8.86,8.86,0,0,0,20.84,12v-.49h3Z" transform="translate(0.07 0)" style="fill:#fff"/><path d="M11.55.26V3.2a8.8,8.8,0,0,0-8,11.25l-2.81,1A12.55,12.55,0,0,1,.25,12,11.73,11.73,0,0,1,11.55.26Z" transform="translate(0.07 0)" style="fill:#fff"/><rect x="11.65" y="15.15" width="0.92" height="0.92" style="fill:#2c80c3"/><rect x="11.65" y="13.8" width="0.92" height="0.92" style="fill:#2c80c3"/><path d="M12,24a12,12,0,0,1-7.27-2.41A12.16,12.16,0,0,1,.47,15.46,11.62,11.62,0,0,1-.06,12,11.77,11.77,0,0,1,3.32,3.68,12,12,0,0,1,11.51,0H12a12,12,0,0,1,8,3.07,12.24,12.24,0,0,1,2.85,3.76A12.68,12.68,0,0,1,24,11.52V12a12.06,12.06,0,0,1-3.55,8.5A11.79,11.79,0,0,1,12,24ZM12,.48h-.48A11.48,11.48,0,0,0,.47,12,12.06,12.06,0,0,0,1,15.32,11.61,11.61,0,0,0,12,23.47,11.49,11.49,0,0,0,23.58,12.05v-.53a11.3,11.3,0,0,0-3.85-8.1A11.67,11.67,0,0,0,12,.48Z" transform="translate(0.07 0)" style="fill:#2c80c3"/><path d="M12,21.07a9.21,9.21,0,0,1-5.5-1.84,9.45,9.45,0,0,1-3.24-4.69A9.49,9.49,0,0,1,2.92,12a9.07,9.07,0,0,1,8.59-9H12a9.29,9.29,0,0,1,6.11,2.3,9.08,9.08,0,0,1,3,6.26v.53A9.08,9.08,0,0,1,12,21.07ZM12,3.46h-.48A8.55,8.55,0,1,0,20.62,12v-.48A8.53,8.53,0,0,0,12,3.46Z" transform="translate(0.07 0)" style="fill:#2c80c3"/><path d="M11.55,3.46a.27.27,0,0,1-.26-.26V.26A.25.25,0,0,1,11.54,0a.27.27,0,0,1,.27.26h0V3.2A.29.29,0,0,1,11.55,3.46Z" transform="translate(0.07 0)" style="fill:#5280c1"/><path d="M17.94,5.69a.25.25,0,0,1-.17,0,.22.22,0,0,1,0-.32l0,0,2-2.19h0a.25.25,0,0,1,.4.3l-.05,0-2,2.19Z" transform="translate(0.07 0)" style="fill:#5280c1"/><path d="M23.81,11.78H20.88a.26.26,0,1,1,0-.52h2.94a.26.26,0,0,1,0,.52Z" transform="translate(0.07 0)" style="fill:#5280c1"/><path d="M.73,15.63a.27.27,0,0,1-.26-.26.19.19,0,0,1,.17-.22h0l2.8-1a.25.25,0,0,1,.28.21.24.24,0,0,1-.15.27l-2.8,1Z" transform="translate(0.07 0)" style="fill:#5280c1"/><path d="M16.15,17.26H7.92A.28.28,0,0,1,7.65,17V14.72a2.06,2.06,0,0,1,2.06-2.06h4.6a2.06,2.06,0,0,1,2.06,2.06V17A.27.27,0,0,1,16.15,17.26Zm-8-.53h7.71V14.67a1.57,1.57,0,0,0-1.54-1.53H9.75a1.57,1.57,0,0,0-1.57,1.57h0Z" transform="translate(0.07 0)" style="fill:#2c80c3"/><path d="M12,11.78a2.54,2.54,0,0,1-2.54-2.5A2.49,2.49,0,0,1,12,6.79h0a2.5,2.5,0,1,1,0,5Zm0-4.51a2,2,0,1,0,2,2A2,2,0,0,0,12,7.27Z" transform="translate(0.07 0)" style="fill:#2c80c3"/><path d="M18.43,11.78a.27.27,0,0,1-.27-.26,6.13,6.13,0,0,0-12.26,0,.29.29,0,0,1-.26.26.28.28,0,0,1-.27-.26A6.62,6.62,0,1,1,18.6,11v.51a.2.2,0,0,1-.11.25Z" transform="translate(0.07 0)" style="fill:#2c80c3"/></g></svg>