<svg id="Layer_1" data-name="Layer 1" xmlns="http://www.w3.org/2000/svg" viewBox="0 0 24 23.13"><g id="B_-_113_Wallet_Cash_credit_card_dollar_finance_money" data-name="B - 113 Wallet Cash credit card dollar finance money"><path d="M.48,8a.18.18,0,0,1-.17-.09V7.79A.23.23,0,0,1,.4,7.52a.22.22,0,0,1,.26.09l0,.1A.2.2,0,0,1,.57,8Z" transform="translate(0 -0.43)" style="fill:#5280c1"/><path d="M.39,7.83c-.08,0-.13,0-.17-.13s0-.13-.09-.17V7.44h0a.25.25,0,0,1,.13-.27.19.19,0,0,1,.27.13h0v.23a.21.21,0,0,1-.09.26A.1.1,0,0,1,.39,7.83Z" transform="translate(0 -0.43)" style="fill:#5280c1"/><path d="M.26,7.31a.16.16,0,0,1-.17-.14V7.05c0-.09,0-.21.17-.21s.22,0,.22.17h0a.26.26,0,0,1-.22.25Z" transform="translate(0 -0.43)" style="fill:#5280c1"/><path d="M.22,7.09A.18.18,0,0,1,0,7H0c0-.09.09-.21.18-.21s.22.09.22.17h0c0,.09-.09.18-.22.22Z" transform="translate(0 -0.43)" style="fill:#5280c1"/><path d="M.22,7A.18.18,0,0,1,0,6.83H0c0-.09.09-.22.18-.22s.22.1.22.18h0C.39,7,.31,7,.22,7Z" transform="translate(0 -0.43)" style="fill:#5280c1"/><path d="M20.5,16.11a.59.59,0,0,1,.57.58.57.57,0,0,1-.57.56.58.58,0,0,1-.57-.57A.6.6,0,0,1,20.5,16.11Z" transform="translate(0 -0.43)" style="fill:#fff"/><path d="M23.82,15.41V18h-3.5A1.28,1.28,0,0,1,19,16.68a1.3,1.3,0,0,1,1.29-1.3h3.54Zm-2.75,1.27a.57.57,0,1,0-1.14,0,.57.57,0,0,0,.57.56A.58.58,0,0,0,21.07,16.68Z" transform="translate(0 -0.43)" style="fill:#fff"/><polygon points="15.77 1.45 16.64 2.28 10.29 8.63 8.5 8.63 15.72 1.4 15.77 1.45" style="fill:#fff"/><path d="M14.93,1.05l.79.78L8.5,9.07H7.88L7.4,8.58V8.49H7.35V8.36h0a.76.76,0,0,1,.05-.7h0L14.06,1a.62.62,0,0,1,.86.08Z" transform="translate(0 -0.43)" style="fill:#fff"/><path d="M7.4,8.58l.48.48H6.31l-.7-.7a.62.62,0,0,1,0-.87l0,0,1.7-1.71L8.85,4.2h0L12.22.83a.63.63,0,0,1,.88,0l0,0,.57.57L7.4,7.66h0a.55.55,0,0,0-.13.62h0v.13h0a.14.14,0,0,1,.13.15Z" transform="translate(0 -0.43)" style="fill:#fff"/><path d="M19.58,5.73a.68.68,0,0,1-.13.79L16.91,9.07H10.29L16.6,2.75,18,4.2l1.4,1.36A.42.42,0,0,1,19.58,5.73Z" transform="translate(0 -0.43)" style="fill:#fff"/><path d="M22,4.2V5.73H19.58a1.09,1.09,0,0,1-.13-.17L18.09,4.2Z" transform="translate(0 -0.43)" style="fill:#a2c6e9"/><path d="M22,5.69V9H17l2.54-2.54a.67.67,0,0,0,.13-.79Z" transform="translate(0 -0.43)" style="fill:#a2c6e9"/><path d="M7.31,5.69,5.61,7.4a.63.63,0,0,0,0,.88.08.08,0,0,0,0,0l.7.7H2.63a2.45,2.45,0,0,1-1.36-.44A2.21,2.21,0,0,1,.7,8.05a.56.56,0,0,1-.17-.3.14.14,0,0,0-.05-.09h0A.26.26,0,0,0,.4,7.49v-.4h0a.25.25,0,0,0,0-.17V6.61A2.47,2.47,0,0,1,2.63,4.15H8.8Z" transform="translate(0 -0.43)" style="fill:#a2c6e9"/><rect x="2.37" y="20.93" width="20.85" height="2.01" style="fill:#a2c6e9"/><path d="M2.37,21.37v2H2.28a2.13,2.13,0,0,1-2.1-2.1V6.87a.28.28,0,0,0,0,.18h0v.31a.26.26,0,0,0,.09.17h0a.14.14,0,0,0,0,.09l.18.3A1.8,1.8,0,0,0,1,8.45H1a2.44,2.44,0,0,0,1.35.44h20.8v6.35H20.23A1.29,1.29,0,0,0,19,16.55s0,.06,0,.1A1.34,1.34,0,0,0,20.28,18h2.93v3.42Z" transform="translate(0 -0.43)" style="fill:#a2c6e9"/><path d="M18,9.24H16.91a.18.18,0,0,1-.18-.18.19.19,0,0,1,.18-.18H18a.2.2,0,0,1,.18.19.16.16,0,0,1-.14.17Z" transform="translate(0 -0.43)" style="fill:#5280c1"/><path d="M6.31,9.24H2.63A2.91,2.91,0,0,1,1.14,8.8a2.33,2.33,0,0,1-.61-.56C.44,8.15.39,8,.31,8a.17.17,0,0,1,0-.23.19.19,0,0,1,.11-.07.19.19,0,0,1,.25,0l0,0c0,.08.13.17.17.26a1.62,1.62,0,0,0,.53.48,2,2,0,0,0,1.27.39H6.31a.19.19,0,0,1,.18.19A.18.18,0,0,1,6.31,9.24Z" transform="translate(0 -0.43)" style="fill:#5280c1"/><path d="M23.21,23.57H2.32A2.34,2.34,0,0,1,0,21.25V6.61a.18.18,0,0,1,.18-.17c.08,0,.21.09.21.17v.08h0V21.28a2,2,0,0,0,1.93,1.93H23V18a.18.18,0,0,1,.35,0v5.39C23.43,23.48,23.34,23.57,23.21,23.57Z" transform="translate(0 -0.43)" style="fill:#2f81c3"/><path d="M23.21,15.59a.17.17,0,0,1-.17-.18V9.24H22a.18.18,0,0,1-.18-.18A.19.19,0,0,1,22,8.88h1.23a.19.19,0,0,1,.17.19v6.35A.19.19,0,0,1,23.21,15.59Z" transform="translate(0 -0.43)" style="fill:#2f81c3"/><path d="M22,9.24H18.09a.18.18,0,0,1-.18-.18.19.19,0,0,1,.18-.18h3.76V4.37H18.13A.17.17,0,0,1,18,4.2.18.18,0,0,1,18.17,4h3.94a.2.2,0,0,1,.18.18V9.07C22.2,9.15,22.12,9.24,22,9.24Z" transform="translate(0 -0.43)" style="fill:#2f81c3"/><path d="M1.27,8.84a.15.15,0,0,1-.13,0,3.59,3.59,0,0,1-.61-.56C.44,8.15.39,8,.31,8s0-.09,0-.13h0s0-.13-.09-.17,0,0,0,0V7.23h0A.31.31,0,0,0,0,7H0V6.75A2.64,2.64,0,0,1,2.63,4.11H8.8A.19.19,0,0,1,9,4.25a.18.18,0,0,1-.14.21H2.63A2.25,2.25,0,0,0,.39,6.69V7h0a.25.25,0,0,0,0,.17h0v.31s0,.09,0,.13h0a.14.14,0,0,0,0,.09c0,.09.13.18.17.26a6.09,6.09,0,0,0,.44.44H1.1a.19.19,0,0,1,0,.26C1.4,8.8,1.36,8.84,1.27,8.84Z" transform="translate(0 -0.43)" style="fill:#2f81c3"/><path d="M23.82,18.17h-3.5a1.6,1.6,0,0,1-1.05-.44,1.52,1.52,0,0,1-.44-1.05,1.48,1.48,0,0,1,1.47-1.49h3.52a.2.2,0,0,1,.18.18V18A.19.19,0,0,1,23.82,18.17Zm-3.5-2.58a1.09,1.09,0,0,0-1.09,1.07v0a1.32,1.32,0,0,0,.3.8,1,1,0,0,0,.79.3h3.29V15.59Z" transform="translate(0 -0.43)" style="fill:#2f81c3"/><path d="M20.5,17.42a.74.74,0,0,1-.75-.72v0A.78.78,0,0,1,20.5,16a.75.75,0,0,1,.74.75.74.74,0,0,1-.74.73Zm0-1.09a.35.35,0,0,0-.35.35h0a.36.36,0,0,0,.35.35.34.34,0,0,0,.35-.32v0A.36.36,0,0,0,20.5,16.33Z" transform="translate(0 -0.43)" style="fill:#2f81c3"/><path d="M2.37,23.57a.19.19,0,0,1-.18-.19V10.55a.19.19,0,0,1,.18-.18.19.19,0,0,1,.17.18V23.38C2.58,23.48,2.5,23.57,2.37,23.57Z" transform="translate(0 -0.43)" style="fill:#2f81c3"/><path d="M23.21,21.59H2.37a.18.18,0,0,1-.18-.18.18.18,0,0,1,.18-.17H23.21a.18.18,0,0,1,.18.17.16.16,0,0,1-.16.18S23.22,21.6,23.21,21.59Z" transform="translate(0 -0.43)" style="fill:#2f81c3"/><path d="M22,6H19.66a.18.18,0,0,1-.17-.18.18.18,0,0,1,.17-.17H22a.19.19,0,0,1,.17.17A.17.17,0,0,1,22,6Z" transform="translate(0 -0.43)" style="fill:#2f81c3"/><path d="M7.31,6H2.5a.2.2,0,0,1,0-.39H7.31a.18.18,0,0,1,.18.17A.19.19,0,0,1,7.34,6Z" transform="translate(0 -0.43)" style="fill:#2f81c3"/><path d="M7.36,8.71a.26.26,0,0,1-.18-.09V8.53a.16.16,0,0,1,0-.23l0,0a.18.18,0,0,1,.25.07v0h0a.2.2,0,0,1,0,.27A.17.17,0,0,1,7.36,8.71Z" transform="translate(0 -0.43)" style="fill:#5280c1"/><path d="M7.27,8.53c-.09,0-.18,0-.18-.13h0a.17.17,0,0,1,.11-.21h0a.17.17,0,0,1,.21.11v0h0a.2.2,0,0,1-.1.25h0Z" transform="translate(0 -0.43)" style="fill:#5280c1"/><path d="M7.27,8.49c-.09,0-.18,0-.18-.13a.93.93,0,0,1,.18-.83c.09-.09.22-.09.26,0s.09.22,0,.26a.53.53,0,0,0-.08.44c0,.09,0,.22-.14.26Z" transform="translate(0 -0.43)" style="fill:#5280c1"/><path d="M7.4,7.83a.15.15,0,0,1-.13,0c-.09-.09-.09-.22,0-.26L13.88,1A.93.93,0,0,1,14.5.65a.92.92,0,0,1,.61.26l.79.79c.09.09.09.22,0,.26s-.22.09-.26,0l-.79-.78a.49.49,0,0,0-.31-.13.44.44,0,0,0-.31.13L7.58,7.79A.51.51,0,0,1,7.4,7.83Z" transform="translate(0 -0.43)" style="fill:#5280c1"/><path d="M16.91,9.24H10.29a.18.18,0,0,1-.18-.18.19.19,0,0,1,.18-.18h6.53L19.31,6.4a.46.46,0,0,0,.09-.53.16.16,0,0,0-.09-.13L15.64,2.05c-.09-.09-.09-.22,0-.26a.16.16,0,0,1,.22,0l0,0,3.68,3.69a.36.36,0,0,1,.13.21.86.86,0,0,1-.13,1L17,9.19A.12.12,0,0,1,16.91,9.24Z" transform="translate(0 -0.43)" style="fill:#2f81c3"/><path d="M8.5,9.24H7.88a.18.18,0,0,1-.18-.18.19.19,0,0,1,.18-.18H8.5a.19.19,0,0,1,.18.19A.18.18,0,0,1,8.5,9.24Z" transform="translate(0 -0.43)" style="fill:#5280c1"/><path d="M10.29,9.24H8.5c-.09,0-.13,0-.18-.14a.22.22,0,0,1,0-.22L15.54,1.7c.09-.09.22-.09.26,0l.92.92c.09.09.09.22,0,.26l-6.3,6.31A.34.34,0,0,1,10.29,9.24ZM9,8.84h1.27L16.4,2.71l-.66-.61Z" transform="translate(0 -0.43)" style="fill:#2f81c3"/><path d="M7.88,9.24H6.31a.11.11,0,0,1-.13,0l-.71-.7a.85.85,0,0,1,0-1.2l0,0,3.2-3.19h0L12,.69a1,1,0,0,1,.62-.26.92.92,0,0,1,.61.26l.57.57c.09.09.09.22,0,.27L7.58,7.79h0a.5.5,0,0,0-.09.44h0v.09h0v0L8.1,9a.22.22,0,0,1,.05.23A.86.86,0,0,1,7.88,9.24Zm-1.49-.4h1l-.13-.13-.09-.09a.14.14,0,0,1,0-.09.16.16,0,0,0-.09-.13h0a.9.9,0,0,1,.18-.83V7.52L13.4,1.35,13,1a.79.79,0,0,0-.3-.08.44.44,0,0,0-.31.13L8.93,4.33h0L5.74,7.53a.47.47,0,0,0,0,.66Z" transform="translate(0 -0.43)" style="fill:#2f81c3"/><path d="M23.21,20.18H5.65A.17.17,0,0,1,5.47,20a.19.19,0,0,1,.18-.18H23.21a.2.2,0,0,1,.18.18.17.17,0,0,1-.15.18Z" transform="translate(0 -0.43)" style="fill:#2f81c3"/></g></svg>