<svg id="Layer_1" data-name="Layer 1" xmlns="http://www.w3.org/2000/svg" viewBox="0 0 23.89 24"><g id="C_-_31_Schedule_Approved_business_calendar_event_plan_planning" data-name="C - 31, Schedule, Approved, business, calendar, event, plan, planning"><rect x="6.64" y="10.54" width="1.97" height="1.97" style="fill:#fff"/><rect x="17.97" y="6.6" width="1.97" height="1.97" style="fill:#fff"/><rect x="10.1" y="6.6" width="1.97" height="1.97" style="fill:#fff"/><rect x="10.58" y="10.54" width="1.97" height="1.97" style="fill:#fff"/><rect x="2.75" y="10.54" width="1.97" height="1.97" style="fill:#fff"/><rect x="14.03" y="6.6" width="1.97" height="1.97" style="fill:#fff"/><rect x="6.16" y="6.6" width="1.97" height="1.97" style="fill:#fff"/><path d="M18.5,12.94H19a.59.59,0,0,1,.26,0h.48c.05,0,.05,0,.09,0h.26c.05,0,.05,0,.09,0h0s.09,0,.13,0h0s0,.05.09.05a0,0,0,0,1,0,0c.05,0,.05,0,.09.05h0a.14.14,0,0,1,.09,0h0s.09,0,.13,0h0s.09.05.09.05h0a.19.19,0,0,1,.09,0h0s0,0,.09,0a5.67,5.67,0,0,1,1.22,1,5.33,5.33,0,0,1,1.49,3.67,5.42,5.42,0,0,1-10.63,1.48h0a1.63,1.63,0,0,1-.08-.43.25.25,0,0,0-.05-.18v-.08a.28.28,0,0,0,0-.18v-.83h0v-.22h0v-.52h0A5.74,5.74,0,0,1,18.5,12.94Z" transform="translate(-0.06)" style="fill:#fff"/><path d="M13.3,19.8H.32V17.36H13.17v.52h0v.22h0v.83a.27.27,0,0,0,0,.17v.09a.26.26,0,0,0,0,.18A.71.71,0,0,0,13.3,19.8Z" transform="translate(-0.06)" style="fill:#fff"/><polygon points="0.26 2.4 0.26 0.26 22.38 0.26 22.38 4.63 0.26 4.63 0.26 2.4" style="fill:#fff"/><path d="M22.44,4.63v10a5.44,5.44,0,0,0-1.23-1s0,0-.08,0h-.05a.14.14,0,0,1-.08,0h0a.14.14,0,0,1-.09,0h-.05s-.08,0-.13,0h0s-.08,0-.08,0h0a.12.12,0,0,1-.08,0s-.05,0-.05,0,0-.05-.09-.05h0s-.08,0-.13,0h0s0,0-.08,0H19.9s0,0-.08-.05h-.48a.63.63,0,0,1-.27,0h-.52a5.32,5.32,0,0,0-5.29,4.41H.32V4.63ZM20,8.52v-2H18v2Zm-3.93,0v-2h-2v2ZM12.6,12.46v-2h-2v2Zm-.48-3.94v-2h-2v2ZM9.67,15.87v-1h-1v1Zm-1-3.41v-2h-2v2ZM8.19,8.52v-2h-2v2Zm-.48,7.35v-1h-1v1Zm-2,0v-1h-1v1Zm-1-3.41v-2h-2v2Zm-1,3.41v-1h-1v1Z" transform="translate(-0.06)" style="fill:#a1c6e9"/><rect x="8.61" y="14.91" width="0.96" height="0.96" style="fill:#5180c1"/><rect x="6.64" y="14.91" width="0.96" height="0.96" style="fill:#5180c1"/><rect x="4.72" y="14.91" width="0.96" height="0.96" style="fill:#5180c1"/><rect x="2.75" y="14.91" width="0.96" height="0.96" style="fill:#5180c1"/><path d="M.32,17.62a.28.28,0,0,1-.26-.26V4.63a.28.28,0,0,1,.26-.26.28.28,0,0,1,.26.26V17.36C.62,17.49.49,17.62.32,17.62Z" transform="translate(-0.06)" style="fill:#5180c1"/><path d="M19,13.25H18.9a.3.3,0,0,1-.26-.31.29.29,0,0,1,.3-.26H19a.26.26,0,0,1,.22.3A.24.24,0,0,1,19,13.25Z" transform="translate(-0.06)" style="fill:#5180c1"/><path d="M19.34,13.29H19.2A.25.25,0,0,1,19,13a.24.24,0,0,1,.3-.21h.09c.13,0,.26.17.22.3A.25.25,0,0,1,19.34,13.29Z" transform="translate(-0.06)" style="fill:#5180c1"/><path d="M19.55,13.33h-.13c-.13,0-.26-.17-.22-.3s.18-.26.31-.22a.17.17,0,0,1,.13,0c.13.05.26.18.22.31A.36.36,0,0,1,19.55,13.33Z" transform="translate(-0.06)" style="fill:#5180c1"/><path d="M19.68,13.38h-.13c-.13-.05-.26-.18-.21-.31s.17-.26.3-.22h.09a.36.36,0,0,1,.22.35A.3.3,0,0,1,19.68,13.38Z" transform="translate(-0.06)" style="fill:#5180c1"/><path d="M19.82,13.38h-.18a.34.34,0,0,1-.22-.31.34.34,0,0,1,.31-.22s.09,0,.09.05a.27.27,0,0,1,.17.35C20.08,13.33,20,13.38,19.82,13.38Z" transform="translate(-0.06)" style="fill:#5180c1"/><path d="M20.21,13.51h-.09s0,0-.09,0h-.21a.33.33,0,0,1-.22-.35A.33.33,0,0,1,20,12.9s0,0,.08,0h.18s.09,0,.09,0a.29.29,0,0,1,.17.35A.29.29,0,0,1,20.21,13.51Z" transform="translate(-0.06)" style="fill:#5180c1"/><path d="M20.34,13.55h-.09s0,0-.08,0a.3.3,0,0,1-.18-.35.3.3,0,0,1,.35-.18s.09,0,.13,0a.3.3,0,0,1,.18.35A.48.48,0,0,1,20.34,13.55Z" transform="translate(-0.06)" style="fill:#5180c1"/><path d="M20.6,13.64h-.08s-.05,0-.05,0h0c-.05,0-.05,0-.09,0a.29.29,0,0,1-.17-.35.28.28,0,0,1,.35-.17.14.14,0,0,1,.08,0s0,0,.09,0a.14.14,0,0,1,.09.05.24.24,0,0,1,.13.35A.56.56,0,0,1,20.6,13.64Z" transform="translate(-0.06)" style="fill:#5180c1"/><path d="M20.73,13.68s-.08,0-.08,0h0s0,0-.09,0a.27.27,0,0,1,.22-.49s0,.05.08.05h0a.24.24,0,0,1,.14.35A.28.28,0,0,1,20.73,13.68Z" transform="translate(-0.06)" style="fill:#5180c1"/><path d="M20.82,13.77a.17.17,0,0,1-.13,0s-.09-.05-.09-.05a.26.26,0,1,1,.22-.48s.09.05.13.05a.28.28,0,0,1,.13.35A.3.3,0,0,1,20.82,13.77Z" transform="translate(-0.06)" style="fill:#5180c1"/><path d="M21,13.81a.17.17,0,0,1-.13,0s0,0-.09,0a.28.28,0,0,1-.13-.35.27.27,0,0,1,.35-.13.14.14,0,0,1,.09,0,.3.3,0,0,1,.13.35C21.17,13.77,21,13.81,21,13.81Z" transform="translate(-0.06)" style="fill:#5180c1"/><path d="M21.08,13.86a.16.16,0,0,1-.13,0s0,0-.09,0a.26.26,0,1,1,.22-.48c.05,0,.09,0,.13,0a.23.23,0,0,1,.09.35A.23.23,0,0,1,21.08,13.86Z" transform="translate(-0.06)" style="fill:#5180c1"/><path d="M21.17,14a.15.15,0,0,1-.13,0s0,0-.09,0a.3.3,0,0,1-.13-.35.29.29,0,0,1,.35-.13s0,0,.09,0a.29.29,0,0,1,.09.39C21.39,13.9,21.3,14,21.17,14Z" transform="translate(-0.06)" style="fill:#5180c1"/><path d="M22.44,14.91a.28.28,0,0,1-.26-.27v-10a.26.26,0,0,1,.52,0v10A.28.28,0,0,1,22.44,14.91Z" transform="translate(-0.06)" style="fill:#5180c1"/><path d="M22.44,4.94H.32a.28.28,0,0,1-.26-.26V.26A.28.28,0,0,1,.32,0H22.4a.28.28,0,0,1,.26.26V4.68A.22.22,0,0,1,22.44,4.94ZM.62,4.37H22.18V.52H.62Z" transform="translate(-0.06)" style="fill:#5180c1"/><path d="M13.3,20.07H.32a.29.29,0,0,1-.26-.27V17.36a.28.28,0,0,1,.26-.27H13.17a.34.34,0,0,1,.22.09.19.19,0,0,1,0,.22v.52a.28.28,0,1,1-.56,0v-.17H.62v1.87H13a.18.18,0,0,0,0-.13s0-.13,0-.17v-.09c0-.09,0-.13,0-.17v-.09a.33.33,0,0,1,.26-.31.32.32,0,0,1,.31.27v.3a.31.31,0,0,0,0,.18c.05.13.05.3.09.43a.2.2,0,0,1,0,.22A.43.43,0,0,1,13.3,20.07Z" transform="translate(-0.06)" style="fill:#5180c1"/><path d="M13.13,18.23h0c-.18,0-.26-.13-.26-.31v-.13a.29.29,0,0,1,.3-.26.29.29,0,0,1,.26.31v.08A.36.36,0,0,1,13.13,18.23Z" transform="translate(-0.06)" style="fill:#5180c1"/><path d="M13.13,18.36h0c-.18,0-.26-.13-.26-.31v-.13a.29.29,0,0,1,.3-.26.29.29,0,0,1,.26.31v.08A.36.36,0,0,1,13.13,18.36Z" transform="translate(-0.06)" style="fill:#5180c1"/><path d="M13.08,18.49h0a.25.25,0,0,1-.26-.26V18.1a.29.29,0,0,1,.31-.26.29.29,0,0,1,.26.3v.13A.3.3,0,0,1,13.08,18.49Z" transform="translate(-0.06)" style="fill:#5180c1"/><path d="M13.13,18.84a.28.28,0,0,1-.26-.26V18.4a.26.26,0,0,1,.52,0v.05h0v.09a.29.29,0,0,1-.26.3Z" transform="translate(-0.06)" style="fill:#5180c1"/><path d="M12.87,18.75h0v-.13a.36.36,0,0,1,.26-.3.36.36,0,0,1,.3.26v.09l-.26,0Z" transform="translate(-0.06)" style="fill:#5180c1"/><path d="M8.19,8.83h-2A.28.28,0,0,1,6,8.57v-2a.28.28,0,0,1,.26-.26h2a.28.28,0,0,1,.26.26v2A.25.25,0,0,1,8.19,8.83ZM6.48,8.26h1.4V6.86H6.48Z" transform="translate(-0.06)" style="fill:#5180c1"/><path d="M18.5,24A5.71,5.71,0,0,1,13,19.89c0-.17-.09-.31-.13-.48s0-.13,0-.18v-.08c0-.09,0-.13,0-.18V18.1h0v-.79a5.67,5.67,0,0,1,5.6-4.63h.52a.57.57,0,0,1,.26,0h.48c.05,0,.05,0,.09,0h.05s0,0,.08,0h.18s.09,0,.09,0h0s.09.05.09.05h0s0,0,.08,0,.05,0,.05,0h.13s0,0,.09,0h0a.14.14,0,0,1,.08,0h.05a.14.14,0,0,1,.08,0h0a.14.14,0,0,1,.09.05H21s0,0,.08,0a5.79,5.79,0,0,1,1.32,1,5.63,5.63,0,0,1,1.53,3.89A5.38,5.38,0,0,1,18.5,24Zm-5.11-5.9h0v.39h0v.09h0v0h0v.09h0v.09h0V19h0v.08h0a.3.3,0,0,0,0,.18,3.38,3.38,0,0,1,.09.44,5.16,5.16,0,0,0,4.94,3.71,5.1,5.1,0,0,0,5.12-5.11,5,5,0,0,0-1.4-3.5A6.23,6.23,0,0,0,21,13.9c-.05,0-.05,0-.09,0l-.05,0a.14.14,0,0,1-.08,0h0c-.05,0-.05,0-.09,0h0s-.09-.05-.09-.05h0s0,0-.08,0h-.14s0,0-.08,0h0c-.09-.09-.09-.09-.13-.09h0c-.05,0-.05,0-.09,0h-.66a.38.38,0,0,1-.22,0h-.48a5.06,5.06,0,0,0-5,4.15V18h0v.08h0v.09h0C13.39,18,13.39,18.05,13.39,18.1Z" transform="translate(-0.06)" style="fill:#5180c1"/><path d="M17,20.07A.34.34,0,0,1,16.8,20l-1.49-2a.28.28,0,0,1,0-.39.27.27,0,0,1,.39,0l1.31,1.75,4.2-2.8a.28.28,0,0,1,.39.09.27.27,0,0,1-.09.39L17.15,20C17.15,20.07,17.06,20.07,17,20.07Z" transform="translate(-0.06)" style="fill:#5180c1"/><path d="M12.12,8.83h-2a.28.28,0,0,1-.26-.26v-2a.28.28,0,0,1,.26-.26h2a.28.28,0,0,1,.26.26v2A.28.28,0,0,1,12.12,8.83Zm-1.7-.57h1.4V6.86h-1.4Z" transform="translate(-0.06)" style="fill:#5180c1"/><path d="M16.06,8.83h-2a.28.28,0,0,1-.26-.26v-2a.28.28,0,0,1,.26-.26h2a.28.28,0,0,1,.26.26v2A.28.28,0,0,1,16.06,8.83Zm-1.71-.57h1.4V6.86h-1.4Z" transform="translate(-0.06)" style="fill:#5180c1"/><path d="M20,8.83H18a.28.28,0,0,1-.26-.26v-2A.28.28,0,0,1,18,6.34h2a.28.28,0,0,1,.26.26v2A.28.28,0,0,1,20,8.83Zm-1.7-.57h1.39V6.86H18.29Z" transform="translate(-0.06)" style="fill:#5180c1"/><path d="M4.78,12.72h-2a.28.28,0,0,1-.26-.26v-2a.28.28,0,0,1,.26-.26h2a.28.28,0,0,1,.26.26v2A.25.25,0,0,1,4.78,12.72ZM3.07,12.2h1.4V10.8H3.07Z" transform="translate(-0.06)" style="fill:#5180c1"/><path d="M8.67,12.72h-2a.28.28,0,0,1-.26-.26v-2a.28.28,0,0,1,.26-.26h2a.28.28,0,0,1,.26.26v2C9,12.63,8.84,12.72,8.67,12.72ZM7,12.2h1.4V10.8H7Z" transform="translate(-0.06)" style="fill:#5180c1"/><path d="M12.6,12.72h-2a.28.28,0,0,1-.27-.26v-2a.28.28,0,0,1,.27-.26h2a.29.29,0,0,1,.27.26v2A.24.24,0,0,1,12.6,12.72Zm-1.66-.52h1.4V10.8h-1.4v1.4Z" transform="translate(-0.06)" style="fill:#5180c1"/><path d="M16.54,2.67H.32A.28.28,0,0,1,.06,2.4a.28.28,0,0,1,.26-.26H16.54a.28.28,0,0,1,.26.26A.25.25,0,0,1,16.54,2.67Z" transform="translate(-0.06)" style="fill:#5180c1"/></g></svg>