<svg id="Layer_1" data-name="Layer 1" xmlns="http://www.w3.org/2000/svg" viewBox="0 0 24 22.38"><g id="_285_monitor_online_graph_investment" data-name="285, monitor, online, graph, investment"><path d="M22.17,1.57H1.79A1.25,1.25,0,0,0,.54,2.82V13H23.42V2.78A1.22,1.22,0,0,0,22.17,1.57Z" transform="translate(0 -1.03)" style="fill:#fff"/><path d="M18.22,3.65V6.77L15.64,5.19l-.08,0A3.06,3.06,0,0,1,18.22,3.65Z" transform="translate(0 -1.03)" style="fill:#a1c6e9"/><path d="M21.34,6.77H18.22V3.65A3.12,3.12,0,0,1,21.34,6.77Z" transform="translate(0 -1.03)" style="fill:#a1c6e9"/><path d="M18.22,6.77h3.12a3.12,3.12,0,0,1-6.24,0,3.1,3.1,0,0,1,.46-1.62l.08,0Z" transform="translate(0 -1.03)" style="fill:#fff"/><rect x="11.98" y="5.74" width="1.04" height="3.12" style="fill:#2c80c3"/><rect x="10.44" y="4.7" width="1.04" height="4.16" style="fill:#2c80c3"/><rect x="8.86" y="6.78" width="1.04" height="2.08" style="fill:#2c80c3"/><rect x="7.32" y="5.74" width="1.04" height="3.12" style="fill:#2c80c3"/><rect x="5.74" y="7.28" width="1.04" height="1.58" style="fill:#2c80c3"/><rect x="2.12" y="3.66" width="3.12" height="1.04" style="fill:#2c80c3"/><rect x="2.12" y="2.08" width="3.12" height="1.04" style="fill:#2c80c3"/><path d="M18.22,10.39a3.66,3.66,0,0,1-3.66-3.66,3.57,3.57,0,0,1,3.62-3.62,3.67,3.67,0,0,1,3.66,3.66A3.6,3.6,0,0,1,18.22,10.39Zm0-6.24A2.64,2.64,0,0,0,16,5.4a2.57,2.57,0,0,0-.37,1.33,2.62,2.62,0,0,0,5.24,0A2.6,2.6,0,0,0,18.22,4.15Z" transform="translate(0 -1.03)" style="fill:#2c80c3"/><path d="M21.34,7.27H18.22a.55.55,0,0,1-.54-.54V3.61a.54.54,0,0,1,1.08,0V6.23h2.62a.55.55,0,0,1,.54.54A.62.62,0,0,1,21.34,7.27Z" transform="translate(0 -1.03)" style="fill:#2c80c3"/><path d="M18.22,7.27A.61.61,0,0,1,18,7.19L15.35,5.61a.52.52,0,1,1,.54-.88l2.62,1.58a.5.5,0,0,1,.17.71A.59.59,0,0,1,18.22,7.27Z" transform="translate(0 -1.03)" style="fill:#2c80c3"/><path d="M20.63,13.47A4.8,4.8,0,0,1,23,15.84h0S23,16,23,16h0a5,5,0,0,1-4.57,6.9,4.85,4.85,0,0,1-3.62-1.58h0a4.88,4.88,0,0,1-.71-5.78h0a5.3,5.3,0,0,1,1.75-1.83l.5-.29h0A4.43,4.43,0,0,1,18,13h0A5.22,5.22,0,0,1,20.63,13.47Zm.21,4.45a2.33,2.33,0,1,0-2.33,2.33A2.33,2.33,0,0,0,20.84,17.92Z" transform="translate(0 -1.03)" style="fill:#fff"/><path d="M18.47,15.59a2.33,2.33,0,1,0,2.33,2.33A2.3,2.3,0,0,0,18.47,15.59Z" transform="translate(0 -1.03)" style="fill:#fff"/><path d="M23.42,13v2.12a1.4,1.4,0,0,1-.38.92s0-.13-.08-.17h0a5.14,5.14,0,0,0-1.08-1.5,9.83,9.83,0,0,0-.87-.66,4.83,4.83,0,0,0-2.5-.71Z" transform="translate(0 -1.03)" style="fill:#fff"/><path d="M6.53,13h-6v2.12a1.25,1.25,0,0,0,1.25,1.25h12a4.68,4.68,0,0,1,.33-.79h0a4.65,4.65,0,0,1,2.25-2.08h0a3.56,3.56,0,0,1,1-.33,2.1,2.1,0,0,1,.5-.09H18c.17,0,.29,0,.5,0l-12,0Z" transform="translate(0 -1.03)" style="fill:#fff"/><path d="M11.48,14.05a.54.54,0,1,1-.54.54A.53.53,0,0,1,11.48,14.05Z" transform="translate(0 -1.03)" style="fill:#2c80c3"/><path d="M7.53,21.83H5a.54.54,0,0,1,0-1.08h2.5a.54.54,0,1,1,0,1.08Z" transform="translate(0 -1.03)" style="fill:#2c80c3"/><path d="M6.28,13.51H.54a.54.54,0,0,1,0-1.08h5.7a.55.55,0,0,1,.54.54A.55.55,0,0,1,6.28,13.51Z" transform="translate(0 -1.03)" style="fill:#2c80c3"/><path d="M23.42,13.51H6.28a.54.54,0,0,1,0-1.08H23.46A.55.55,0,0,1,24,13,.59.59,0,0,1,23.42,13.51Z" transform="translate(0 -1.03)" style="fill:#2c80c3"/><path d="M14.89,21.83H7.53a.51.51,0,0,1-.42-.21A.6.6,0,0,1,7,21.16l1.5-5a.51.51,0,0,1,.66-.33.52.52,0,0,1,.34.67L8.24,20.79h5.61v0A.49.49,0,0,1,14,20a.48.48,0,0,1,.7.17,6,6,0,0,0,.54.75.57.57,0,0,1,.09.58A.53.53,0,0,1,14.89,21.83Z" transform="translate(0 -1.03)" style="fill:#2c80c3"/><path d="M13.81,16.84h-12A1.76,1.76,0,0,1,0,15.09V2.78A1.76,1.76,0,0,1,1.79,1H22.21A1.76,1.76,0,0,1,24,2.78V15.09a1.83,1.83,0,0,1-.54,1.29.51.51,0,0,1-.83-.17c-.05,0-.05-.08-.09-.16a.56.56,0,0,1,.38-.75.47.47,0,0,0,0-.21V2.78a.73.73,0,0,0-.71-.71H1.79a.73.73,0,0,0-.71.71V15.09a.73.73,0,0,0,.71.71H13.48v0a.51.51,0,0,1,.95.37c0,.13-.08.21-.12.33A.52.52,0,0,1,13.81,16.84Z" transform="translate(0 -1.03)" style="fill:#2c80c3"/><path d="M18.47,23.41A5.46,5.46,0,0,1,16.64,12.8c.37-.12.75-.2.95-.25a5.25,5.25,0,0,1,2.38.17,3.58,3.58,0,0,1,.62.25,5.45,5.45,0,0,1,3.29,5A5.35,5.35,0,0,1,18.47,23.41ZM15.26,21a4.42,4.42,0,0,0,7.66-3,4.45,4.45,0,0,0-4.87-4.41h0a4.45,4.45,0,0,0-4,4.95l.08.42h0s.09.37.21.7a4.09,4.09,0,0,0,.21.46S15,20.66,15.26,21Z" transform="translate(0 -1.03)" style="fill:#2c80c3"/><path d="M18.47,20.79a2.87,2.87,0,1,1,2.87-2.87A2.88,2.88,0,0,1,18.47,20.79Zm0-4.66A1.83,1.83,0,1,0,20.3,18,1.84,1.84,0,0,0,18.47,16.13Z" transform="translate(0 -1.03)" style="fill:#2c80c3"/><text transform="translate(17.27 17.54)" style="font-size:2px;fill:#2c80c3;font-family:FiraSans-Bold, Fira Sans;font-weight:700">Rp</text></g></svg>