<svg id="Layer_1" data-name="Layer 1" xmlns="http://www.w3.org/2000/svg" viewBox="0 0 24 21.91"><g id="C_-_23_dollar_flow_money_cash_report" data-name="C - 23, dollar, flow, money, cash, report"><path d="M10.09,11.8a1.5,1.5,0,0,1,1.52,1.47,1.47,1.47,0,0,1-1.52,1.48,1.5,1.5,0,0,1-1.52-1.48A1.52,1.52,0,0,1,10.09,11.8Z" transform="translate(0 -1.4)" style="fill:#fff"/><polygon points="23.74 9.48 23.74 21.65 3.7 21.65 3.7 19.7 21.78 19.7 21.78 9.48 23.74 9.48" style="fill:#a1c6e9"/><polygon points="21.78 9.48 21.78 19.7 3.7 19.7 1.74 19.7 1.74 17.78 19.87 17.78 19.87 7.52 21.78 7.52 21.78 9.48" style="fill:#fff"/><path d="M17.39,11.41v3.91a1.47,1.47,0,0,0-1.48,1.48H4.17A1.49,1.49,0,0,0,2.7,15.32V11.41A1.47,1.47,0,0,0,4.17,9.93H15.91A1.54,1.54,0,0,0,17.39,11.41Zm-5.82,1.91A1.48,1.48,0,0,0,10,11.84a1.5,1.5,0,0,0-1.52,1.48,1.53,1.53,0,0,0,3.05,0Z" transform="translate(0 -1.4)" style="fill:#fff"/><path d="M10.57,7.45h9.3V19.14H.3V7.45Zm6.82,7.82V11.36a1.47,1.47,0,0,1-1.48-1.48H4.17A1.49,1.49,0,0,1,2.7,11.36v3.91a1.47,1.47,0,0,1,1.47,1.48H15.91A1.54,1.54,0,0,1,17.39,15.27Z" transform="translate(0 -1.4)" style="fill:#a1c6e9"/><path d="M19.87,19.41H.3A.29.29,0,0,1,0,19.14V7.45A.28.28,0,0,1,.3,7.19H19.87a.28.28,0,0,1,.26.26V19.14A.25.25,0,0,1,19.87,19.41ZM.56,18.88h19V7.75H.56Z" transform="translate(0 -1.4)" style="fill:#5180c1"/><path d="M16,17H4.22A.28.28,0,0,1,4,16.75a1.17,1.17,0,0,0-1.18-1.17.28.28,0,0,1-.26-.26V11.41a.28.28,0,0,1,.26-.27A1.17,1.17,0,0,0,4,10a.28.28,0,0,1,.26-.26H16a.28.28,0,0,1,.26.26,1.17,1.17,0,0,0,1.17,1.17.28.28,0,0,1,.26.27v3.91a.28.28,0,0,1-.26.26,1.17,1.17,0,0,0-1.17,1.17A.28.28,0,0,1,16,17ZM4.48,16.49H15.7a1.74,1.74,0,0,1,1.43-1.43V11.67a1.7,1.7,0,0,1-1.43-1.44H4.48A1.76,1.76,0,0,1,3,11.67v3.39A1.74,1.74,0,0,1,4.48,16.49Z" transform="translate(0 -1.4)" style="fill:#5180c1"/><path d="M3.7,21.41H1.78a.29.29,0,0,1-.26-.27V19.19a.28.28,0,0,1,.26-.26H19.61v-10a.28.28,0,0,1,.26-.26h1.91a.28.28,0,0,1,.26.26v2a.26.26,0,0,1-.52,0V9.19H20.13v10a.29.29,0,0,1-.26.27H2v1.43H3.7A.28.28,0,0,1,4,21.1.3.3,0,0,1,3.7,21.41Z" transform="translate(0 -1.4)" style="fill:#5180c1"/><path d="M23.74,23.32H3.7a.29.29,0,0,1-.27-.26v-2a.29.29,0,0,1,.27-.26H21.57v-10a.28.28,0,0,1,.26-.26h1.91a.28.28,0,0,1,.26.26V23.06A.28.28,0,0,1,23.74,23.32ZM4,22.8H23.48V11.14H22.09v10a.28.28,0,0,1-.26.26H4Z" transform="translate(0 -1.4)" style="fill:#5180c1"/><path d="M10.09,15.06a1.79,1.79,0,1,1,1.78-1.79A1.8,1.8,0,0,1,10.09,15.06Zm0-3a1.22,1.22,0,1,0,1.21,1.22A1.22,1.22,0,0,0,10.09,12.1Z" transform="translate(0 -1.4)" style="fill:#5180c1"/><path d="M7.13,5.84a.28.28,0,0,1-.26-.26V3.41H.26A.29.29,0,0,1,0,3.14a.28.28,0,0,1,.26-.26H7.09a.28.28,0,0,1,.26.26V5.58A.22.22,0,0,1,7.13,5.84Z" transform="translate(0 -1.4)" style="fill:#5180c1"/><path d="M14,5.84a.28.28,0,0,1-.26-.26V3.14A.28.28,0,0,1,14,2.88h6.83a.28.28,0,0,1,.26.26.29.29,0,0,1-.26.27H14.26V5.58A.25.25,0,0,1,14,5.84Z" transform="translate(0 -1.4)" style="fill:#5180c1"/><path d="M7.13,5.84A.17.17,0,0,1,7,5.8l-1.48-1a.29.29,0,1,1,.31-.48l1.47,1a.28.28,0,0,1,.09.39A.36.36,0,0,1,7.13,5.84Z" transform="translate(0 -1.4)" style="fill:#5180c1"/><path d="M7.13,5.84a.24.24,0,0,1-.22-.13A.29.29,0,0,1,7,5.32l1.48-1a.28.28,0,0,1,.3.48L7.3,5.8C7.22,5.8,7.17,5.84,7.13,5.84Z" transform="translate(0 -1.4)" style="fill:#5180c1"/><path d="M14,5.84a.17.17,0,0,1-.13,0l-1.48-1a.29.29,0,1,1,.31-.48l1.47,1a.28.28,0,0,1,.09.39A.36.36,0,0,1,14,5.84Z" transform="translate(0 -1.4)" style="fill:#5180c1"/><path d="M14,5.84a.24.24,0,0,1-.22-.13.29.29,0,0,1,.09-.39l1.48-1a.28.28,0,1,1,.3.48l-1.48,1Z" transform="translate(0 -1.4)" style="fill:#5180c1"/><path d="M10.57,7.8a.28.28,0,0,1-.27-.26V1.67a.27.27,0,0,1,.53,0V7.49A.29.29,0,0,1,10.57,7.8Z" transform="translate(0 -1.4)" style="fill:#5180c1"/><path d="M9.09,2.93a.25.25,0,0,1-.22-.13A.29.29,0,0,1,9,2.4l1.47-.95a.29.29,0,1,1,.31.48l-1.48,1S9.13,2.93,9.09,2.93Z" transform="translate(0 -1.4)" style="fill:#5180c1"/><path d="M12,2.93a.16.16,0,0,1-.13-.05l-1.48-.95a.29.29,0,0,1,.31-.48l1.48,1a.29.29,0,0,1,.08.4A.38.38,0,0,1,12,2.93Z" transform="translate(0 -1.4)" style="fill:#5180c1"/></g></svg>