<svg id="Layer_1" data-name="Layer 1" xmlns="http://www.w3.org/2000/svg" viewBox="0 0 23.74 24"><g id="_862_Calendar_Date_Event_Schedule" data-name="862, Calendar, Date, Event, Schedule"><path d="M23.35,8.29v.86H.69V8.29A2.12,2.12,0,0,1,2.81,6.17H21.28A2.14,2.14,0,0,1,23.35,8.29Z" transform="translate(-0.13)" style="fill:#a1c6e9"/><path d="M22.53,2.16a1.08,1.08,0,0,1,0,2.16,1.08,1.08,0,0,1,0-2.16Z" transform="translate(-0.13)" style="fill:#a1c6e9"/><path d="M1.77.52A1.35,1.35,0,0,1,3.11,1.86a1.34,1.34,0,0,1-2.68,0A1.32,1.32,0,0,1,1.77.52Z" transform="translate(-0.13)" style="fill:#a1c6e9"/><path d="M20.12,6.22V7.29h-1.9V5a1,1,0,0,1,1-1,.79.79,0,0,1,.64.26.84.84,0,0,1,.26.64V6.22Z" transform="translate(-0.13)" style="fill:#fff"/><path d="M16.58,6.22V7.29h-1.9V5a1,1,0,0,1,1-1,.79.79,0,0,1,.64.26.84.84,0,0,1,.26.64V6.22Z" transform="translate(-0.13)" style="fill:#fff"/><path d="M9.58,6.22V7.29H7.68V5a1,1,0,0,1,1-1,.8.8,0,0,1,.65.26A.88.88,0,0,1,9.54,5V6.22Z" transform="translate(-0.13)" style="fill:#fff"/><path d="M13.08,6.22V7.29h-1.9V5a1,1,0,0,1,1-1,.8.8,0,0,1,.65.26A.88.88,0,0,1,13,5V6.22Z" transform="translate(-0.13)" style="fill:#fff"/><path d="M6.09,6.22V7.29H4.19V5a1,1,0,0,1,.95-1,.78.78,0,0,1,.64.26A.84.84,0,0,1,6,5V6.22Z" transform="translate(-0.13)" style="fill:#fff"/><path d="M23.35,17.78v3.85a2.12,2.12,0,0,1-2.11,2.11H2.76a2.14,2.14,0,0,1-2.11-1.9H20.07Z" transform="translate(-0.13)" style="fill:#a1c6e9"/><polygon points="23.22 17.78 19.99 21.84 19.99 17.78 23.22 17.78" style="fill:#a1c6e9"/><path d="M23.35,9.15v8.63H20.12v4.06H.69V9.15Z" transform="translate(-0.13)" style="fill:#fff"/><circle cx="19.94" cy="0.95" r="0.39" transform="translate(18.83 20.89) rotate(-89.9)" style="fill:#2c80c3"/><path d="M15.11,1.9a.39.39,0,0,1,.39.39.4.4,0,0,1-.39.39.39.39,0,0,1-.39-.39A.38.38,0,0,1,15.11,1.9Z" transform="translate(-0.13)" style="fill:#2c80c3"/><path d="M10,0a.38.38,0,0,1,.39.39A.39.39,0,0,1,10,.78.4.4,0,0,1,9.58.39.39.39,0,0,1,10,0Z" transform="translate(-0.13)" style="fill:#2c80c3"/><path d="M5.65,1.9A.38.38,0,0,1,6,2.29a.39.39,0,1,1-.77,0A.38.38,0,0,1,5.65,1.9Z" transform="translate(-0.13)" style="fill:#2c80c3"/><path d="M20.12,22.1H.69a.26.26,0,1,1,0-.52H20l3.15-3.93a.28.28,0,0,1,.43.35l-3.24,4.06A.49.49,0,0,1,20.12,22.1Z" transform="translate(-0.13)" style="fill:#2c80c3"/><path d="M20.12,22.1a.28.28,0,0,1-.26-.26V17.78a.27.27,0,0,1,.26-.25h3.23a.27.27,0,0,1,.26.25.28.28,0,0,1-.26.26h-3v3.8A.25.25,0,0,1,20.12,22.1Z" transform="translate(-0.13)" style="fill:#2c80c3"/><path d="M23.35,9.45H.69a.28.28,0,0,1-.26-.26.27.27,0,0,1,.26-.25H23.35a.27.27,0,0,1,.26.25A.28.28,0,0,1,23.35,9.45Z" transform="translate(-0.13)" style="fill:#2c80c3"/><path d="M21.24,24H2.76A2.38,2.38,0,0,1,.39,21.88V8.29A2.4,2.4,0,0,1,2.76,5.91H4.19a.26.26,0,0,1,0,.52H2.76A1.87,1.87,0,0,0,.91,8.29V21.8a1.79,1.79,0,0,0,1.81,1.64H21.19a1.87,1.87,0,0,0,1.86-1.86V8.29a1.87,1.87,0,0,0-1.86-1.86H20.07a.26.26,0,1,1,0-.52h1.12a2.4,2.4,0,0,1,2.38,2.38V21.63A2.33,2.33,0,0,1,21.24,24Z" transform="translate(-0.13)" style="fill:#2c80c3"/><path d="M7.68,6.47H6a.27.27,0,0,1-.26-.25A.28.28,0,0,1,6,6H7.68a.28.28,0,0,1,.26.26A.27.27,0,0,1,7.68,6.47Z" transform="translate(-0.13)" style="fill:#2c80c3"/><path d="M11.18,6.47H9.54a.27.27,0,0,1-.26-.25A.28.28,0,0,1,9.54,6h1.64a.28.28,0,0,1,.26.26C11.48,6.35,11.35,6.47,11.18,6.47Z" transform="translate(-0.13)" style="fill:#2c80c3"/><path d="M14.72,6.47H13.08a.27.27,0,0,1-.26-.25A.28.28,0,0,1,13.08,6h1.64a.28.28,0,0,1,.26.26A.27.27,0,0,1,14.72,6.47Z" transform="translate(-0.13)" style="fill:#2c80c3"/><path d="M18.22,6.47H16.58a.27.27,0,0,1-.26-.25A.28.28,0,0,1,16.58,6h1.64a.27.27,0,0,1,.25.26A.26.26,0,0,1,18.22,6.47Z" transform="translate(-0.13)" style="fill:#2c80c3"/><path d="M6.09,7.55H4.19a.28.28,0,0,1-.26-.26V5A1.21,1.21,0,0,1,5.14,3.8,1.23,1.23,0,0,1,6,4.14,1.21,1.21,0,0,1,6.35,5V7.29A.28.28,0,0,1,6.09,7.55ZM4.45,7H5.78V5a.68.68,0,0,0-.21-.47A.67.67,0,0,0,4.4,5V7Z" transform="translate(-0.13)" style="fill:#2c80c3"/><path d="M9.58,7.55H7.68a.28.28,0,0,1-.26-.26V5A1.21,1.21,0,0,1,8.63,3.8,1.16,1.16,0,0,1,9.84,5V7.29A.28.28,0,0,1,9.58,7.55ZM7.94,7H9.28V5a.69.69,0,0,0-.22-.47.67.67,0,0,0-.47-.22A.69.69,0,0,0,7.9,5V7Z" transform="translate(-0.13)" style="fill:#2c80c3"/><path d="M13.08,7.55h-1.9a.28.28,0,0,1-.26-.26V5a1.21,1.21,0,1,1,2.42,0V7.29A.28.28,0,0,1,13.08,7.55ZM11.48,7h1.34V5a.69.69,0,1,0-1.38,0V7Z" transform="translate(-0.13)" style="fill:#2c80c3"/><path d="M16.58,7.55h-1.9a.28.28,0,0,1-.26-.26V5A1.21,1.21,0,0,1,15.63,3.8a1.23,1.23,0,0,1,.86.34,1.2,1.2,0,0,1,.34.87V7.29C16.88,7.42,16.75,7.55,16.58,7.55ZM15,7h1.34V5a.69.69,0,1,0-1.38,0V7Z" transform="translate(-0.13)" style="fill:#2c80c3"/><path d="M20.12,7.55h-1.9A.28.28,0,0,1,18,7.29V5A1.21,1.21,0,0,1,19.17,3.8,1.16,1.16,0,0,1,20.37,5V7.29A.28.28,0,0,1,20.12,7.55ZM18.47,7h1.34V5a.68.68,0,0,0-.21-.47.69.69,0,0,0-.48-.22.69.69,0,0,0-.69.69V7Z" transform="translate(-0.13)" style="fill:#2c80c3"/><path d="M22.53,4.58a1.34,1.34,0,1,1,1.34-1.34A1.35,1.35,0,0,1,22.53,4.58Zm0-2.16a.82.82,0,0,0-.82.82.8.8,0,0,0,.82.82.82.82,0,1,0,0-1.64Z" transform="translate(-0.13)" style="fill:#2c80c3"/><path d="M1.77,3.5A1.64,1.64,0,1,1,3.41,1.86,1.67,1.67,0,0,1,1.77,3.5Zm0-2.68A1.08,1.08,0,1,0,2.85,1.9,1.09,1.09,0,0,0,1.77.82Z" transform="translate(-0.13)" style="fill:#2c80c3"/><path d="M20.37,11.87H3.63a.26.26,0,1,1,0-.52H20.37a.26.26,0,1,1,0,.52Z" transform="translate(-0.13)" style="fill:#2c80c3"/><path d="M20.37,13.77H3.63a.26.26,0,0,1,0-.52H20.37a.26.26,0,0,1,0,.52Z" transform="translate(-0.13)" style="fill:#2c80c3"/><path d="M20.37,15.63H3.63a.26.26,0,0,1,0-.52H20.37a.26.26,0,0,1,0,.52Z" transform="translate(-0.13)" style="fill:#2c80c3"/><path d="M18.73,17.53H3.63a.26.26,0,1,1,0-.52h15.1a.28.28,0,0,1,.26.26A.25.25,0,0,1,18.73,17.53Z" transform="translate(-0.13)" style="fill:#2c80c3"/><path d="M18.73,19.42H3.63a.26.26,0,1,1,0-.51h15.1a.28.28,0,0,1,.26.26C19,19.29,18.91,19.42,18.73,19.42Z" transform="translate(-0.13)" style="fill:#2c80c3"/><path d="M5.27,20.76A.28.28,0,0,1,5,20.5v-10a.26.26,0,1,1,.52,0v10A.28.28,0,0,1,5.27,20.76Z" transform="translate(-0.13)" style="fill:#2c80c3"/><path d="M7.94,20.76a.28.28,0,0,1-.26-.26v-10a.26.26,0,0,1,.52,0v10C8.24,20.63,8.12,20.76,7.94,20.76Z" transform="translate(-0.13)" style="fill:#2c80c3"/><path d="M10.66,20.76a.28.28,0,0,1-.26-.26v-10a.26.26,0,1,1,.52,0v10A.28.28,0,0,1,10.66,20.76Z" transform="translate(-0.13)" style="fill:#2c80c3"/><path d="M13.34,20.76a.28.28,0,0,1-.26-.26v-10a.26.26,0,1,1,.52,0v10C13.64,20.63,13.51,20.76,13.34,20.76Z" transform="translate(-0.13)" style="fill:#2c80c3"/><path d="M16.06,20.76a.28.28,0,0,1-.26-.26v-10a.26.26,0,1,1,.52,0v10A.28.28,0,0,1,16.06,20.76Z" transform="translate(-0.13)" style="fill:#2c80c3"/><path d="M18.73,20.76a.28.28,0,0,1-.26-.26v-10a.26.26,0,0,1,.52,0v10C19,20.63,18.91,20.76,18.73,20.76Z" transform="translate(-0.13)" style="fill:#2c80c3"/></g></svg>