<svg id="Layer_1" data-name="Layer 1" xmlns="http://www.w3.org/2000/svg" viewBox="0 0 24 23.69"><g id="_1510_Coding_design_development_objects_programing" data-name="1510, Coding, design, development, objects, programing"><polygon points="23.47 15.31 23.47 20.73 18.84 23.21 18.84 17.8 23.47 15.31" style="fill:#fff"/><polygon points="23.47 15.31 18.84 17.8 14.25 15.31 18.84 12.82 23.47 15.31" style="fill:#fff"/><rect x="21.47" y="1.48" width="1" height="0.99" style="fill:#2c80c3"/><rect x="20.47" y="2.47" width="1" height="0.99" style="fill:#2c80c3"/><rect x="20.47" y="0.49" width="1" height="0.99" style="fill:#2c80c3"/><rect x="19.48" y="1.48" width="1" height="0.99" style="fill:#2c80c3"/><polygon points="18.84 17.8 18.84 23.21 14.25 20.73 14.25 15.31 18.84 17.8" style="fill:#fff"/><polygon points="16.56 2.98 16.56 8.36 11.97 10.85 11.97 5.47 16.56 2.98" style="fill:#a1c6e9"/><polygon points="16.56 2.98 11.97 5.47 7.38 2.98 11.97 0.49 16.56 2.98" style="fill:#a1c6e9"/><polygon points="11.97 5.47 11.97 10.85 7.38 8.36 7.38 2.98 11.97 5.47" style="fill:#a1c6e9"/><polygon points="9.7 15.31 9.7 20.73 5.11 23.21 5.11 17.8 9.7 15.31" style="fill:#fff"/><polygon points="9.7 15.31 5.11 17.8 0.52 15.31 5.11 12.82 9.7 15.31" style="fill:#fff"/><polygon points="5.11 17.8 5.11 23.21 0.52 20.73 0.52 15.31 5.11 17.8" style="fill:#fff"/><rect x="3.99" y="6.9" width="1" height="0.99" style="fill:#2c80c3"/><rect x="2.99" y="7.88" width="1" height="0.99" style="fill:#2c80c3"/><rect x="2.99" y="5.91" width="1" height="0.99" style="fill:#2c80c3"/><rect x="2" y="6.9" width="1" height="0.99" style="fill:#2c80c3"/><path d="M12,11.52a.57.57,0,0,1-.24-.08L7.14,9a.49.49,0,0,1-.28-.44V3.14a.43.43,0,0,1,.28-.44L11.73.21a.57.57,0,0,1,.48,0L16.8,2.7a.49.49,0,0,1,.28.44V8.51A.43.43,0,0,1,16.8,9l-4.59,2.49A.57.57,0,0,1,12,11.52ZM7.86,8.24,12,10.45l4.11-2.21V3.42L12,1.2,7.86,3.42Z" transform="translate(0 -0.16)" style="fill:#2c80c3"/><path d="M12,6.1A.57.57,0,0,1,11.73,6L7.14,3.53a.5.5,0,0,1-.2-.67.52.52,0,0,1,.68-.2L12,5,16.4,2.66a.52.52,0,0,1,.68.2.5.5,0,0,1-.2.67L12.29,6A1.8,1.8,0,0,1,12,6.1Z" transform="translate(0 -0.16)" style="fill:#2c80c3"/><path d="M12,11.52a.53.53,0,0,1-.52-.52V5.63a.52.52,0,0,1,1,0V11A.53.53,0,0,1,12,11.52Z" transform="translate(0 -0.16)" style="fill:#2c80c3"/><path d="M5.11,23.84a.55.55,0,0,1-.24-.07L.28,21.28A.49.49,0,0,1,0,20.84V15.47A.43.43,0,0,1,.28,15l4.59-2.49a.51.51,0,0,1,.48,0L10,15a.49.49,0,0,1,.28.44v5.41a.43.43,0,0,1-.28.44L5.39,23.81C5.27,23.81,5.19,23.84,5.11,23.84ZM1,20.57l4.11,2.21,4.11-2.21V15.74L5.11,13.53,1,15.74Z" transform="translate(0 -0.16)" style="fill:#2c80c3"/><path d="M5.11,18.43a.57.57,0,0,1-.24-.08L.28,15.86a.5.5,0,0,1-.2-.67A.51.51,0,0,1,.76,15l4.39,2.37L9.54,15a.51.51,0,0,1,.68.2.5.5,0,0,1-.2.67L5.43,18.35A.6.6,0,0,1,5.11,18.43Z" transform="translate(0 -0.16)" style="fill:#2c80c3"/><path d="M5.11,23.84a.52.52,0,0,1-.52-.51V18a.52.52,0,0,1,1,0v5.41A.55.55,0,0,1,5.11,23.84Z" transform="translate(0 -0.16)" style="fill:#2c80c3"/><path d="M18.84,23.84a.55.55,0,0,1-.24-.07L14,21.28a.49.49,0,0,1-.28-.44V15.47A.43.43,0,0,1,14,15l4.59-2.49a.51.51,0,0,1,.48,0L23.67,15a.49.49,0,0,1,.28.44v5.41a.43.43,0,0,1-.28.44l-4.59,2.49C19,23.81,18.92,23.84,18.84,23.84Zm-4.11-3.27,4.11,2.21L23,20.57V15.74l-4.11-2.21-4.11,2.21Z" transform="translate(0 -0.16)" style="fill:#2c80c3"/><path d="M18.84,18.43a.57.57,0,0,1-.24-.08L14,15.86a.5.5,0,0,1-.2-.67.51.51,0,0,1,.68-.2l4.39,2.37L23.27,15a.51.51,0,0,1,.68.2.52.52,0,0,1-.2.67l-4.59,2.49A.6.6,0,0,1,18.84,18.43Z" transform="translate(0 -0.16)" style="fill:#2c80c3"/><path d="M18.84,23.84a.52.52,0,0,1-.52-.51V18a.52.52,0,0,1,1,0v5.41A.55.55,0,0,1,18.84,23.84Z" transform="translate(0 -0.16)" style="fill:#2c80c3"/><path d="M12,15a.74.74,0,0,1-.28-.08l-7-4.42a.5.5,0,0,1-.16-.67.51.51,0,0,1,.68-.16L12,13.89l6.71-4.27a.47.47,0,0,1,.68.16.46.46,0,0,1-.16.67l-6.95,4.42A.74.74,0,0,1,12,15Z" transform="translate(0 -0.16)" style="fill:#2c80c3"/><path d="M12,23.84a.52.52,0,0,1-.52-.51V14.48a.52.52,0,0,1,1,0v8.89A.52.52,0,0,1,12,23.84Z" transform="translate(0 -0.16)" style="fill:#2c80c3"/></g></svg>