<svg id="Layer_1" data-name="Layer 1" xmlns="http://www.w3.org/2000/svg" viewBox="0 0 23.92 24"><g id="B535_Insurance_Life_Lifebuoy" data-name="B535, Insurance, Life, Lifebuoy"><path d="M10.52.72V5.79a6.5,6.5,0,0,0-4.84,4.84H.6A11.46,11.46,0,0,1,10.52.72Z" transform="translate(-0.04 -0.11)" style="fill:#a1c6e9"/><path d="M10.52,18.44v5.07A11.46,11.46,0,0,1,.6,13.6H5.68A6.49,6.49,0,0,0,10.52,18.44Z" transform="translate(-0.04 -0.11)" style="fill:#a1c6e9"/><path d="M13.44,23.51V18.44a6.53,6.53,0,0,0,4.88-4.89H23.4A11.45,11.45,0,0,1,13.44,23.51Z" transform="translate(-0.04 -0.11)" style="fill:#a1c6e9"/><path d="M23.4,10.63H18.32a6.56,6.56,0,0,0-4.88-4.87v-5A11.45,11.45,0,0,1,23.4,10.63Z" transform="translate(-0.04 -0.11)" style="fill:#a1c6e9"/><path d="M.6,10.63H5.68a6,6,0,0,0-.16,1.48,6,6,0,0,0,.16,1.49H.6a9,9,0,0,1-.08-1.49A8.94,8.94,0,0,1,.6,10.63Z" transform="translate(-0.04 -0.11)" style="fill:#fff"/><path d="M13.44,18.44v5.07a13.9,13.9,0,0,1-1.44.08c-.52,0-1,0-1.52-.08V18.44a6.33,6.33,0,0,0,1.52.15A4.07,4.07,0,0,0,13.44,18.44Z" transform="translate(-0.04 -0.11)" style="fill:#fff"/><path d="M23.4,10.63a8.94,8.94,0,0,1,.08,1.48,9,9,0,0,1-.08,1.49H18.32a6,6,0,0,0,.16-1.49,6,6,0,0,0-.16-1.48Z" transform="translate(-0.04 -0.11)" style="fill:#fff"/><path d="M13.44.72V5.79A6.42,6.42,0,0,0,12,5.63a9.8,9.8,0,0,0-1.52.16V.72A8.4,8.4,0,0,1,12,.63,7.74,7.74,0,0,1,13.44.72Z" transform="translate(-0.04 -0.11)" style="fill:#fff"/><path d="M18.32,11.15a.47.47,0,0,1-.48-.4,6,6,0,0,0-4.52-4.48A.46.46,0,0,1,13,5.68a.47.47,0,0,1,.6-.37,7,7,0,0,1,5.24,5.24.5.5,0,0,1-.36.6Z" transform="translate(-0.04 -0.11)" style="fill:#2c80c3"/><path d="M23.4,11.15a.48.48,0,0,1-.48-.44A11,11,0,0,0,13.4,1.2.51.51,0,0,1,13,.63a.5.5,0,0,1,.56-.44,12.27,12.27,0,0,1,7,3.4,12.29,12.29,0,0,1,3.44,7,.49.49,0,0,1-.44.56S23.44,11.15,23.4,11.15Z" transform="translate(-0.04 -0.11)" style="fill:#2c80c3"/><path d="M13.44,19a.48.48,0,0,1-.48-.39.5.5,0,0,1,.36-.6,6.09,6.09,0,0,0,4.52-4.49.49.49,0,0,1,1,.24A7,7,0,0,1,13.56,19Z" transform="translate(-0.04 -0.11)" style="fill:#2c80c3"/><path d="M13.44,24a.48.48,0,0,1-.48-.45A.5.5,0,0,1,13.4,23a11,11,0,0,0,9.52-9.51.5.5,0,1,1,1,.11,12,12,0,0,1-3.44,7,11.85,11.85,0,0,1-7,3.4C13.48,24,13.48,24,13.44,24Z" transform="translate(-0.04 -0.11)" style="fill:#2c80c3"/><path d="M5.68,11.15H5.56a.47.47,0,0,1-.36-.6A6.73,6.73,0,0,1,7,7.2,7.13,7.13,0,0,1,10.4,5.31a.5.5,0,0,1,.6.37.49.49,0,0,1-.36.59A6,6,0,0,0,6.2,10.75.58.58,0,0,1,5.68,11.15Z" transform="translate(-0.04 -0.11)" style="fill:#2c80c3"/><path d="M.6,11.15H.52a.49.49,0,0,1-.44-.55A12,12,0,0,1,10.4.24.48.48,0,0,1,11,.67a.49.49,0,0,1-.44.56,10.92,10.92,0,0,0-9.44,9.48A.51.51,0,0,1,.6,11.15Z" transform="translate(-0.04 -0.11)" style="fill:#2c80c3"/><path d="M10.52,19H10.4a6.92,6.92,0,0,1-5.2-5.23.5.5,0,0,1,.36-.6.49.49,0,0,1,.6.35A6.12,6.12,0,0,0,10.6,18a.51.51,0,0,1-.08,1Z" transform="translate(-0.04 -0.11)" style="fill:#2c80c3"/><path d="M10.52,24h-.08A12,12,0,0,1,.12,13.68a.49.49,0,0,1,.44-.56.48.48,0,0,1,.56.43A10.93,10.93,0,0,0,10.6,23a.5.5,0,0,1,.44.56A.59.59,0,0,1,10.52,24Z" transform="translate(-0.04 -0.11)" style="fill:#2c80c3"/><path d="M10.52,6.27a.45.45,0,0,1-.32-.11.52.52,0,0,1-.2-.4v-5a.47.47,0,0,1,.44-.48A9.12,9.12,0,0,1,12,.11c.52,0,1,0,1.52.08A.52.52,0,0,1,14,.67V5.76a.57.57,0,0,1-.2.4.6.6,0,0,1-.44.08,6.24,6.24,0,0,0-2.72,0A.15.15,0,0,1,10.52,6.27ZM11,1.15V5.2a7.15,7.15,0,0,1,2,0V1.15A16,16,0,0,0,11,1.15Z" transform="translate(-0.04 -0.11)" style="fill:#2c80c3"/><path d="M5.68,14.08H.6a.48.48,0,0,1-.48-.45A9.87,9.87,0,0,1,0,12.11c0-.52,0-1,.08-1.51a.51.51,0,0,1,.48-.45H5.68a.56.56,0,0,1,.4.2.57.57,0,0,1,.08.45A5.17,5.17,0,0,0,6,12.16a5.12,5.12,0,0,0,.16,1.36.53.53,0,0,1-.08.43A.68.68,0,0,1,5.68,14.08ZM1,13.07h4a7.61,7.61,0,0,1-.08-1,7.93,7.93,0,0,1,.08-1H1a7.79,7.79,0,0,0,0,1A7.63,7.63,0,0,0,1,13.07Z" transform="translate(-0.04 -0.11)" style="fill:#2c80c3"/><path d="M23.4,14.08H18.32a.56.56,0,0,1-.4-.2.58.58,0,0,1-.08-.45A5.17,5.17,0,0,0,18,12.07a5.07,5.07,0,0,0-.16-1.36.56.56,0,0,1,.08-.44.49.49,0,0,1,.4-.2H23.4a.48.48,0,0,1,.48.44A10.07,10.07,0,0,1,24,12c0,.51,0,1-.08,1.51A.48.48,0,0,1,23.4,14.08Zm-4.48-1h4a7.63,7.63,0,0,0,0-1,7.79,7.79,0,0,0,0-1h-4a7.93,7.93,0,0,1,.08,1A7.61,7.61,0,0,1,18.92,13.07Z" transform="translate(-0.04 -0.11)" style="fill:#2c80c3"/><path d="M12,24.11A10.25,10.25,0,0,1,10.44,24a.5.5,0,0,1-.44-.48V18.44a.54.54,0,0,1,.2-.4.52.52,0,0,1,.44-.08,6.24,6.24,0,0,0,2.72,0,.52.52,0,0,1,.44.08.47.47,0,0,1,.2.4v5.07a.47.47,0,0,1-.44.48A10.65,10.65,0,0,1,12,24.11Zm-1-1a11.66,11.66,0,0,0,2,0V19a8,8,0,0,1-2,0Z" transform="translate(-0.04 -0.11)" style="fill:#2c80c3"/></g></svg>