<svg id="Layer_1" data-name="Layer 1" xmlns="http://www.w3.org/2000/svg" viewBox="0 0 23.7 24"><g id="_621_Book_Open_Reading_Open_Book" data-name="621, Book, Open, Reading, Open Book"><path d="M21,.3a1.31,1.31,0,0,1,1.31,1.3,1.31,1.31,0,1,1-2.61,0A1.28,1.28,0,0,1,21,.3Z" transform="translate(-0.15)" style="fill:#a1c6e9"/><path d="M3.06,21.64a1.06,1.06,0,0,1,0,2.11,1.06,1.06,0,1,1,0-2.11Z" transform="translate(-0.15)" style="fill:#a1c6e9"/><polygon points="23.45 8.98 23.45 19.78 11.85 19.78 21.34 8.98 23.45 8.98" style="fill:#a1c6e9"/><polygon points="11.85 19.78 0.25 19.78 0.25 8.98 2.36 8.98 11.85 19.78" style="fill:#a1c6e9"/><path d="M21.49,17.67h-5.4a5.09,5.09,0,0,0-4.05,2l-.08.08V5h9.53Z" transform="translate(-0.15)" style="fill:#fff"/><path d="M12,5V19.78l-.08-.08a5.09,5.09,0,0,0-4-2H2.51V5Z" transform="translate(-0.15)" style="fill:#fff"/><path d="M20.06,22.19a.38.38,0,1,1-.38.38A.38.38,0,0,1,20.06,22.19Z" transform="translate(-0.15)" style="fill:#2c80c3"/><path d="M16.34.59A.38.38,0,1,1,16,1,.38.38,0,0,1,16.34.59Z" transform="translate(-0.15)" style="fill:#2c80c3"/><path d="M11.87,2.4a.38.38,0,1,1-.38.38A.38.38,0,0,1,11.87,2.4Z" transform="translate(-0.15)" style="fill:#2c80c3"/><path d="M10.82,20.88a.38.38,0,1,1-.38.38A.38.38,0,0,1,10.82,20.88Z" transform="translate(-0.15)" style="fill:#2c80c3"/><path d="M6.85,23.24a.38.38,0,1,1-.38.38A.38.38,0,0,1,6.85,23.24Z" transform="translate(-0.15)" style="fill:#2c80c3"/><path d="M2.13,1.35a.38.38,0,1,1-.38.38A.38.38,0,0,1,2.13,1.35Z" transform="translate(-0.15)" style="fill:#2c80c3"/><path d="M12,20.08a.27.27,0,0,1-.17,0,.26.26,0,0,1,0-.38l.08-.09a5.29,5.29,0,0,1,4.26-2.11h5.11V5.31H12a.26.26,0,0,1-.25-.25A.27.27,0,0,1,12,4.81h9.49a.27.27,0,0,1,.25.25V17.72a.27.27,0,0,1-.25.25h-5.4a4.83,4.83,0,0,0-3.84,1.9l0,.08A.23.23,0,0,1,12,20.08Z" transform="translate(-0.15)" style="fill:#2c80c3"/><path d="M19.38,7.93H14.11a.26.26,0,0,1,0-.51h5.27a.26.26,0,0,1,0,.51Z" transform="translate(-0.15)" style="fill:#2c80c3"/><path d="M19.38,9.53H14.11a.25.25,0,0,1,0-.5h5.27a.25.25,0,0,1,0,.5Z" transform="translate(-0.15)" style="fill:#2c80c3"/><path d="M19.38,11.09H14.11a.25.25,0,0,1,0-.5h5.27a.25.25,0,0,1,0,.5Z" transform="translate(-0.15)" style="fill:#2c80c3"/><path d="M19.38,12.7H14.11a.26.26,0,0,1,0-.51h5.27a.26.26,0,0,1,0,.51Z" transform="translate(-0.15)" style="fill:#2c80c3"/><path d="M12,20.08a.29.29,0,0,1-.21-.09l-.09-.08A4.81,4.81,0,0,0,7.87,18H2.51a.27.27,0,0,1-.25-.25V5.1a.27.27,0,0,1,.25-.25H12a.27.27,0,0,1,.25.25V19.87a.28.28,0,0,1-.17.25S12,20.08,12,20.08ZM2.76,17.42H7.87a5.23,5.23,0,0,1,3.83,1.65V5.31H2.76Z" transform="translate(-0.15)" style="fill:#2c80c3"/><path d="M9.89,7.93H4.62a.26.26,0,0,1,0-.51H9.89a.26.26,0,0,1,0,.51Z" transform="translate(-0.15)" style="fill:#2c80c3"/><path d="M9.89,9.53H4.62a.25.25,0,1,1,0-.5H9.89a.25.25,0,0,1,0,.5Z" transform="translate(-0.15)" style="fill:#2c80c3"/><path d="M9.89,11.09H4.62a.25.25,0,0,1,0-.5H9.89a.25.25,0,0,1,0,.5Z" transform="translate(-0.15)" style="fill:#2c80c3"/><path d="M9.89,12.7H4.62a.26.26,0,0,1,0-.51H9.89a.26.26,0,0,1,0,.51Z" transform="translate(-0.15)" style="fill:#2c80c3"/><path d="M19.38,14.26H14.11a.26.26,0,0,1,0-.51h5.27a.26.26,0,0,1,0,.51Z" transform="translate(-0.15)" style="fill:#2c80c3"/><path d="M9.89,14.26H4.62a.26.26,0,0,1,0-.51H9.89a.26.26,0,0,1,0,.51Z" transform="translate(-0.15)" style="fill:#2c80c3"/><path d="M23.6,20.08H.4a.27.27,0,0,1-.25-.26V9A.27.27,0,0,1,.4,8.73H2.51a.26.26,0,0,1,0,.51H.65V19.53h22.7V9.24H21.49a.26.26,0,0,1,0-.51H23.6a.27.27,0,0,1,.25.25v10.8A.28.28,0,0,1,23.6,20.08Z" transform="translate(-0.15)" style="fill:#2c80c3"/><path d="M21,3.21A1.61,1.61,0,1,1,22.59,1.6,1.64,1.64,0,0,1,21,3.21ZM21,.55A1,1,0,0,0,19.93,1.6,1.06,1.06,0,1,0,22,1.6,1.07,1.07,0,0,0,21,.55Z" transform="translate(-0.15)" style="fill:#2c80c3"/><path d="M3.06,24a1.31,1.31,0,1,1,1.31-1.31A1.31,1.31,0,0,1,3.06,24Zm0-2.11a.8.8,0,0,0-.8.8.77.77,0,0,0,.8.8.77.77,0,0,0,.8-.8A.8.8,0,0,0,3.06,21.89Z" transform="translate(-0.15)" style="fill:#2c80c3"/></g></svg>