<svg id="Layer_1" data-name="Layer 1" xmlns="http://www.w3.org/2000/svg" viewBox="0 0 38 35.54"><g id="_658_car_transport_parking" data-name="658, car, transport, parking"><path d="M21.85,6.05H16.49a2.1,2.1,0,0,0-2.08,2.08V14.3a2.1,2.1,0,0,0,2.08,2.08h5.36a2.1,2.1,0,0,0,2.08-2.08V8.13A2.14,2.14,0,0,0,21.85,6.05Z" transform="translate(-0.17 -2.01)" style="fill:#fff"/><path d="M11.57,5.67A1.49,1.49,0,0,1,12,6.8a1.56,1.56,0,0,1-1.58,1.58H6.53A1.8,1.8,0,0,1,5.4,7.94,1.52,1.52,0,0,1,5,6.8,1.74,1.74,0,0,1,5.15,6H3.38a1.8,1.8,0,0,1-1.13-.44,1.48,1.48,0,0,1-.44-1.13A1.56,1.56,0,0,1,3.38,2.83H6.53a1.85,1.85,0,0,1,1.14.44,1.56,1.56,0,0,1,.44,1.14,1.71,1.71,0,0,1-.19.82H10.5A1.64,1.64,0,0,1,11.57,5.67Z" transform="translate(-0.17 -2.01)" style="fill:#fff"/><path d="M33.32,7.62A1.56,1.56,0,0,1,34.89,9.2a1.8,1.8,0,0,1-.44,1.13,1.4,1.4,0,0,1-1.13.44H30.16A1.55,1.55,0,0,1,28.59,9.2,1.85,1.85,0,0,1,29,8.06a1.54,1.54,0,0,1,1.13-.44Z" transform="translate(-0.17 -2.01)" style="fill:#fff"/><path d="M37.29,15.5v7.12H27l2-4.35a4.62,4.62,0,0,1,4.16-2.71h4.16Z" transform="translate(-0.17 -2.01)" style="fill:#fff"/><path d="M24.24,25.71a1.2,1.2,0,0,1,1.2,1.2,1.16,1.16,0,0,1-1.2,1.19H21.47a6.31,6.31,0,0,1,.5-2.39Z" transform="translate(-0.17 -2.01)" style="fill:#fff"/><path d="M16.8,28.1H14a1.19,1.19,0,0,1-1.2-1.19,1.16,1.16,0,0,1,1.2-1.2h2.21A5.88,5.88,0,0,1,16.8,28.1Z" transform="translate(-0.17 -2.01)" style="fill:#fff"/><path d="M9.31,18.21l1.95,4.35H1.05V15.5h4.1A4.42,4.42,0,0,1,9.31,18.21Z" transform="translate(-0.17 -2.01)" style="fill:#fff"/><path d="M21.53,28.86a.84.84,0,0,1-.82-.82,5.89,5.89,0,0,1,.63-2.71.8.8,0,1,1,1.45.69,4.57,4.57,0,0,0-.44,2A.93.93,0,0,1,21.53,28.86Z" transform="translate(-0.17 -2.01)" style="fill:#2c80c3"/><path d="M27,23.38a.51.51,0,0,1-.31-.07.75.75,0,0,1-.38-1L28.27,18a5.33,5.33,0,0,1,4.92-3.15h4.1a.82.82,0,0,1,.81.82v7.12a.82.82,0,1,1-1.63,0V16.44H33.13a3.8,3.8,0,0,0-3.47,2.27l-1.95,4.16A.74.74,0,0,1,27,23.38Z" transform="translate(-0.17 -2.01)" style="fill:#2c80c3"/><path d="M37.29,26.53H30.16a.82.82,0,0,1,0-1.64h7.13a.83.83,0,0,1,.81.82A.88.88,0,0,1,37.29,26.53Z" transform="translate(-0.17 -2.01)" style="fill:#2c80c3"/><path d="M16.8,28.86A.83.83,0,0,1,16,28a4.45,4.45,0,0,0-.45-2A.84.84,0,0,1,15.92,25a.83.83,0,0,1,1.07.38A6.53,6.53,0,0,1,17.62,28,.93.93,0,0,1,16.8,28.86Z" transform="translate(-0.17 -2.01)" style="fill:#2c80c3"/><path d="M11.26,23.38a.76.76,0,0,1-.69-.44l-2-4.35a3.78,3.78,0,0,0-3.46-2.27H1.81v6.3a.84.84,0,0,1-.82.82.84.84,0,0,1-.82-.82V15.5A.84.84,0,0,1,1,14.68H5.08A5.42,5.42,0,0,1,10,17.83L12,22.18a.74.74,0,0,1-.38,1C11.45,23.31,11.39,23.38,11.26,23.38Z" transform="translate(-0.17 -2.01)" style="fill:#2c80c3"/><path d="M8.11,26.53H1.05a.82.82,0,0,1,0-1.64H8.17a.84.84,0,0,1,.82.82A.89.89,0,0,1,8.11,26.53Z" transform="translate(-0.17 -2.01)" style="fill:#2c80c3"/><path d="M19.14,36.74a.84.84,0,0,1-.82-.82V16.26a.82.82,0,1,1,1.64,0V36A.83.83,0,0,1,19.14,36.74Z" transform="translate(-0.17 -2.01)" style="fill:#2c80c3"/><path d="M21.85,17.07H16.49a2.82,2.82,0,0,1-2.84-2.83V8.06a2.82,2.82,0,0,1,2.84-2.83h5.36a2.82,2.82,0,0,1,2.83,2.83v6.18A2.9,2.9,0,0,1,21.85,17.07ZM16.49,6.8a1.27,1.27,0,0,0-1.26,1.26v6.18a1.27,1.27,0,0,0,1.26,1.26h5.36a1.27,1.27,0,0,0,1.26-1.26V8.06A1.27,1.27,0,0,0,21.85,6.8Z" transform="translate(-0.17 -2.01)" style="fill:#2c80c3"/><path d="M34.89,37.56H3.38a.82.82,0,0,1,0-1.64H34.89a.82.82,0,0,1,0,1.64Z" transform="translate(-0.17 -2.01)" style="fill:#2c80c3"/><path d="M17.56,14.68a.84.84,0,0,1-.82-.82V11.53a.82.82,0,1,1,1.64,0v2.39A.83.83,0,0,1,17.56,14.68Z" transform="translate(-0.17 -2.01)" style="fill:#2c80c3"/><path d="M19.51,12.35h-2a.84.84,0,0,1-.82-.82V9.13a.83.83,0,0,1,.82-.81h2a2,2,0,0,1,1.39,3.34A1.77,1.77,0,0,1,19.51,12.35Zm-1.13-1.58h1.2c.12,0,.25-.06.25-.12a.53.53,0,0,0,.13-.26.41.41,0,0,0-.38-.37h-1.2v.75Z" transform="translate(-0.17 -2.01)" style="fill:#2c80c3"/><path d="M10.5,9.2h-4a2.52,2.52,0,0,1-1.7-.7,2.2,2.2,0,0,1-.69-1.7H3.38a2.54,2.54,0,0,1-1.7-.69A2.2,2.2,0,0,1,1,4.41,2.39,2.39,0,0,1,3.38,2H6.53a2.55,2.55,0,0,1,1.7.7,2.17,2.17,0,0,1,.7,1.7H10.5a2.54,2.54,0,0,1,1.7.69,2.17,2.17,0,0,1,.7,1.7A2.49,2.49,0,0,1,10.5,9.2ZM3.38,3.65a.84.84,0,0,0-.82.82A.81.81,0,0,0,2.81,5a1,1,0,0,0,.57.25H5.15a.8.8,0,0,1,.69.38.91.91,0,0,1,0,.82.91.91,0,0,0-.13.38A.78.78,0,0,0,6,7.43a.76.76,0,0,0,.56.26h4a.84.84,0,0,0,.82-.82.77.77,0,0,0-.25-.57.78.78,0,0,0-.57-.25H7.92a.79.79,0,0,1-.69-.38.91.91,0,0,1,0-.82.93.93,0,0,0,.12-.38A.77.77,0,0,0,7.1,3.9a.84.84,0,0,0-.57-.25Z" transform="translate(-0.17 -2.01)" style="fill:#2c80c3"/><path d="M33.32,11.53H30.16a2.39,2.39,0,0,1-2.39-2.4,2.56,2.56,0,0,1,.69-1.7,2.43,2.43,0,0,1,1.7-.69h3.16a2.39,2.39,0,0,1,2.39,2.39A2.59,2.59,0,0,1,35,10.84,2.56,2.56,0,0,1,33.32,11.53ZM30.16,8.38a.76.76,0,0,0-.56.25.8.8,0,0,0-.25.57.77.77,0,0,0,.81.75h3.16a.86.86,0,0,0,.81-.82.82.82,0,0,0-.81-.81l-3.16.06Z" transform="translate(-0.17 -2.01)" style="fill:#2c80c3"/><path d="M12,33.52h0a2.75,2.75,0,0,0-.19-1c0-.06-.07-.25-.13-.25-.06-.19-.06-.19-.13-.25h0a3,3,0,0,0-2.64-1.58,3.16,3.16,0,0,0,0,6.31A3.06,3.06,0,0,0,12,33.52C12.08,33.59,12.08,33.52,12,33.52Z" transform="translate(-0.17 -2.01)" style="fill:#fff"/><path d="M1.05,25.71V22.56H11.32a5.45,5.45,0,0,1,5,3.15H14.1a1.19,1.19,0,0,0-1.2,1.2,1.15,1.15,0,0,0,1.2,1.19h2.77a5.58,5.58,0,0,1-4.73,5.49,2.68,2.68,0,0,0-.31-1.27c-.07-.12-.13-.25-.13-.25h0a3.28,3.28,0,0,0-2.77-1.64,3.12,3.12,0,0,0-3.15,3.16H1.05Z" transform="translate(-0.17 -2.01)" style="fill:#a1c6e9"/><path d="M8.93,35.16a1.58,1.58,0,1,1,1.57-1.57A1.59,1.59,0,0,1,8.93,35.16Z" transform="translate(-0.17 -2.01)" style="fill:#2c80c3"/><path d="M5.78,34.4H1.05a.83.83,0,0,1-.82-.81v-11a.84.84,0,0,1,.82-.82H11.32A6.23,6.23,0,0,1,17,25.33a.67.67,0,0,1-.06.76.73.73,0,0,1-.69.37H14a.38.38,0,0,0,0,.76H16.8a.83.83,0,0,1,.82.82,6.33,6.33,0,0,1-1.57,4.16,6.17,6.17,0,0,1-3.85,2.08.8.8,0,0,1-.88-.76,4.64,4.64,0,0,0-.12-.82.6.6,0,0,1,.37-.94.81.81,0,0,1,1,.44c.07.12.07.25.13.38a5,5,0,0,0,2.14-1.39,4.36,4.36,0,0,0,1.07-2.33H14A2,2,0,0,1,14,25h.76a4.61,4.61,0,0,0-3.53-1.57H1.81v9.45h4a.84.84,0,0,1,.82.82A.94.94,0,0,1,5.78,34.4Z" transform="translate(-0.17 -2.01)" style="fill:#2c80c3"/><path d="M8.93,37.56a4,4,0,0,1-4-4,3.93,3.93,0,0,1,4.79-3.85,4,4,0,0,1-.82,7.82Zm-2.4-4A2.39,2.39,0,0,0,8.93,36a2.32,2.32,0,0,0,2.27-2.9c0-.06,0-.12-.07-.12a3.34,3.34,0,0,0-.12-.32,3.35,3.35,0,0,0-.57-.76,2.23,2.23,0,0,0-.44-.31,1.35,1.35,0,0,0-.63-.19,1.35,1.35,0,0,0-.32-.06A2.25,2.25,0,0,0,6.53,33.59Z" transform="translate(-0.17 -2.01)" style="fill:#2c80c3"/><path d="M28.65,30.5a3.25,3.25,0,0,0-2,1.45c0,.06-.07.12-.13.19a2.71,2.71,0,0,0-.32,1.32h0v.06a3.16,3.16,0,1,0,2.46-3Z" transform="translate(-0.17 -2.01)" style="fill:#fff"/><path d="M37.29,25.71v7.88H32.56a3.14,3.14,0,0,0-3.84-3.09,3.25,3.25,0,0,0-2,1.45c0,.06-.06.12-.13.19a3.09,3.09,0,0,0-.31,1.32,5.47,5.47,0,0,1-3.34-1.83A5.68,5.68,0,0,1,21.53,28H24.3a1.2,1.2,0,0,0,1.2-1.2,1.16,1.16,0,0,0-1.2-1.2H22.1a5.45,5.45,0,0,1,5-3.15H37.29v3.28Z" transform="translate(-0.17 -2.01)" style="fill:#a1c6e9"/><path d="M37.29,34.4H32.56a.82.82,0,1,1,0-1.63h4V23.31H27.08a4.62,4.62,0,0,0-3.53,1.58h.75a2,2,0,1,1,0,3.91H22.41a4.79,4.79,0,0,0,1.07,2.33,4.87,4.87,0,0,0,2.15,1.38c.06-.12.06-.31.12-.37a.78.78,0,0,1,1-.45.77.77,0,0,1,.44,1,3.44,3.44,0,0,0-.12.82.77.77,0,0,1-.89.76,6.17,6.17,0,0,1-3.84-2.08A6.34,6.34,0,0,1,20.77,28a.84.84,0,0,1,.82-.82h2.78a.38.38,0,0,0,0-.76H22.16a.87.87,0,0,1-.69-.37.8.8,0,0,1-.06-.76,6.23,6.23,0,0,1,5.67-3.59H37.35a.84.84,0,0,1,.82.82v11A1.07,1.07,0,0,1,37.29,34.4Z" transform="translate(-0.17 -2.01)" style="fill:#2c80c3"/><path d="M29.41,37.56a4,4,0,0,1-3.85-4.86,4.71,4.71,0,0,1,.63-1.38,3.89,3.89,0,0,1,3.22-1.64,4,4,0,0,1,4,4A4,4,0,0,1,29.41,37.56Zm-2.33-4.35a2.38,2.38,0,1,0,2-2H28.9A2.43,2.43,0,0,0,27.08,33.21Zm1.7-2.71.12.75h0Z" transform="translate(-0.17 -2.01)" style="fill:#2c80c3"/><path d="M29.41,35.16A1.58,1.58,0,1,1,31,33.59,1.59,1.59,0,0,1,29.41,35.16Z" transform="translate(-0.17 -2.01)" style="fill:#2c80c3"/></g></svg>