<svg id="Layer_1" data-name="Layer 1" xmlns="http://www.w3.org/2000/svg" viewBox="0 0 23.47 24"><g id="F530_Boat_marine_sea_vehicles" data-name="F530, Boat, marine, sea, vehicles"><rect x="12.71" y="9.84" width="8.77" height="2.92" style="fill:#a1c6e9"/><polygon points="10.76 9.85 10.76 12.77 1.99 12.77 1.99 9.85 3.94 9.85 3.94 5.95 8.81 5.95 8.81 9.85 10.76 9.85" style="fill:#fff"/><path d="M12.37,18.62a1.21,1.21,0,1,1-1.21,1.21A1.21,1.21,0,0,1,12.37,18.62Z" transform="translate(-0.39)" style="fill:#fff"/><path d="M7.49,18.62a1.21,1.21,0,1,1-1.21,1.21A1.21,1.21,0,0,1,7.49,18.62Z" transform="translate(-0.39)" style="fill:#fff"/><path d="M17.24,18.62A1.21,1.21,0,1,1,16,19.83,1.21,1.21,0,0,1,17.24,18.62Z" transform="translate(-0.39)" style="fill:#fff"/><polygon points="22.97 12.77 22.23 16.01 1.25 16.01 0.55 12.77 1.99 12.77 10.76 12.77 12.71 12.77 21.49 12.77 22.97 12.77" style="fill:#a1c6e9"/><path d="M22.62,16l-1.71,7.48H3.36L1.64,16Zm-4.13,3.82A1.21,1.21,0,1,0,17.28,21,1.17,1.17,0,0,0,18.49,19.83Zm-4.88,0A1.21,1.21,0,1,0,12.4,21,1.17,1.17,0,0,0,13.61,19.83Zm-4.87,0A1.21,1.21,0,1,0,7.53,21,1.17,1.17,0,0,0,8.74,19.83Z" transform="translate(-0.39)" style="fill:#a1c6e9"/><path d="M23.36,24H20.91a.51.51,0,1,1,0-1h2.45a.52.52,0,0,1,.51.5A.57.57,0,0,1,23.36,24Z" transform="translate(-0.39)" style="fill:#2c80c3"/><path d="M3.36,24H.9a.51.51,0,1,1,0-1H3.36a.51.51,0,0,1,0,1Z" transform="translate(-0.39)" style="fill:#2c80c3"/><path d="M21.88,13.28a.53.53,0,0,1-.51-.51V10.31h-7.8v2.46a.51.51,0,1,1-1,0V9.84a.51.51,0,0,1,.51-.5h8.77a.52.52,0,0,1,.51.5v2.93A.47.47,0,0,1,21.88,13.28Z" transform="translate(-0.39)" style="fill:#2c80c3"/><path d="M7.49,21.54a1.72,1.72,0,1,1,1.72-1.71A1.73,1.73,0,0,1,7.49,21.54Zm0-2.41a.74.74,0,0,0-.74.74.71.71,0,0,0,.74.74.74.74,0,0,0,.74-.74A.71.71,0,0,0,7.49,19.13Z" transform="translate(-0.39)" style="fill:#2c80c3"/><path d="M12.37,21.54a1.72,1.72,0,1,1,1.71-1.71A1.73,1.73,0,0,1,12.37,21.54Zm0-2.41a.75.75,0,0,0-.75.74.72.72,0,0,0,.75.74.74.74,0,0,0,.74-.74A.72.72,0,0,0,12.37,19.13Z" transform="translate(-0.39)" style="fill:#2c80c3"/><path d="M17.24,21.54A1.72,1.72,0,1,1,19,19.83,1.73,1.73,0,0,1,17.24,21.54Zm0-2.41a.74.74,0,0,0-.74.74.71.71,0,0,0,.74.74.74.74,0,0,0,.74-.74A.71.71,0,0,0,17.24,19.13Z" transform="translate(-0.39)" style="fill:#2c80c3"/><path d="M22.62,16.47H22.5a.46.46,0,0,1-.35-.58l.59-2.65H1.52l.59,2.65a.48.48,0,0,1-.35.58.49.49,0,0,1-.59-.35L.43,12.89a.52.52,0,0,1,.08-.43.47.47,0,0,1,.39-.2H23.32a.52.52,0,0,1,.39.2.52.52,0,0,1,.08.43l-.74,3.23C23.05,16.32,22.82,16.47,22.62,16.47Z" transform="translate(-0.39)" style="fill:#2c80c3"/><path d="M20.91,24H3.36a.47.47,0,0,1-.47-.39L1.17,16.12a.54.54,0,0,1,.08-.43.51.51,0,0,1,.39-.19H22.58a.56.56,0,0,1,.39.19.54.54,0,0,1,.08.43l-1.72,7.49A.42.42,0,0,1,20.91,24ZM3.75,23H20.52L22,16.47H2.27Z" transform="translate(-0.39)" style="fill:#2c80c3"/></g><g id="F541_Car_sedans_traffic_transport_vehicles" data-name="F541, Car, sedans, traffic, transport, vehicles"><rect x="1.96" y="10.51" width="1.41" height="1.53" style="fill:#fff"/><rect x="9.03" y="10.51" width="1.41" height="1.53" style="fill:#fff"/><ellipse cx="2.68" cy="8.47" rx="0.94" ry="1.02" style="fill:#fff"/><ellipse cx="9.75" cy="8.47" rx="0.94" ry="1.02" style="fill:#fff"/><path d="M12,6.42v4.09H1.17V6.42H12Zm-.94,2.05a.95.95,0,1,0-1.89,0,1,1,0,0,0,.94,1A1,1,0,0,0,11.09,8.47ZM4,8.47a1,1,0,0,0-.94-1,1,1,0,0,0-.94,1,1,1,0,0,0,.94,1A1,1,0,0,0,4,8.47Z" transform="translate(-0.39)" style="fill:#a1c6e9"/><rect x="4.09" y="0.29" width="3.77" height="1.29" style="fill:#a1c6e9"/><polygon points="9.75 1.55 10.92 6.42 1.49 6.42 2.68 1.55 4.09 1.55 7.86 1.55 9.75 1.55" style="fill:#fff"/><path d="M3.77,12.29A.26.26,0,0,1,3.52,12V10.49a.26.26,0,0,1,.25-.26.25.25,0,0,1,.24.26V12A.25.25,0,0,1,3.77,12.29Z" transform="translate(-0.39)" style="fill:#2c80c3"/><path d="M2.35,12.29A.25.25,0,0,1,2.11,12V10.49a.25.25,0,1,1,.49,0V12A.26.26,0,0,1,2.35,12.29Z" transform="translate(-0.39)" style="fill:#2c80c3"/><path d="M10.84,12.29A.25.25,0,0,1,10.6,12V10.49a.25.25,0,0,1,.24-.26.26.26,0,0,1,.25.26V12A.26.26,0,0,1,10.84,12.29Z" transform="translate(-0.39)" style="fill:#2c80c3"/><path d="M9.43,12.29A.26.26,0,0,1,9.18,12V10.49a.26.26,0,0,1,.25-.26.25.25,0,0,1,.24.26V12A.25.25,0,0,1,9.43,12.29Z" transform="translate(-0.39)" style="fill:#2c80c3"/><path d="M12,10.76H1.18a.26.26,0,0,1-.24-.27V6.4a.25.25,0,0,1,.24-.26H1.9a.26.26,0,0,1,.25.26.29.29,0,0,1-.27.27H1.41v3.58H11.78V6.67h-.47a.26.26,0,0,1-.24-.27.25.25,0,0,1,.24-.26H12a.26.26,0,0,1,.25.26v4.09A.31.31,0,0,1,12,10.76Z" transform="translate(-0.39)" style="fill:#2c80c3"/><path d="M11.31,6.67H1.88a.23.23,0,0,1-.19-.11.32.32,0,0,1,0-.22L2.84,1.47a.24.24,0,0,1,.23-.18H4.49a.25.25,0,0,1,.24.26.26.26,0,0,1-.24.27H3.26L2.2,6.18H11L10,1.82H8.28A.26.26,0,0,1,8,1.55a.26.26,0,0,1,.25-.26h1.88a.23.23,0,0,1,.23.18l1.19,4.87a.28.28,0,0,1,0,.22A.35.35,0,0,1,11.31,6.67Z" transform="translate(-0.39)" style="fill:#2c80c3"/><path d="M8.26,1.82H4.49a.26.26,0,0,1-.25-.27V.27A.26.26,0,0,1,4.49,0H8.26A.26.26,0,0,1,8.5.27V1.55A.29.29,0,0,1,8.26,1.82ZM4.71,1.31H8V.53H4.71Z" transform="translate(-0.39)" style="fill:#2c80c3"/><path d="M3.07,9.73a1.29,1.29,0,0,1,0-2.57A1.24,1.24,0,0,1,4.26,8.45,1.25,1.25,0,0,1,3.07,9.73Zm0-2a.75.75,0,0,0-.72.78.74.74,0,0,0,.72.77.74.74,0,0,0,.72-.77A.76.76,0,0,0,3.07,7.69Z" transform="translate(-0.39)" style="fill:#2c80c3"/><path d="M10.14,9.73A1.24,1.24,0,0,1,9,8.45a1.24,1.24,0,0,1,1.18-1.29,1.24,1.24,0,0,1,1.19,1.29A1.24,1.24,0,0,1,10.14,9.73Zm0-2a.75.75,0,0,0-.71.78.72.72,0,1,0,1.43,0A.76.76,0,0,0,10.14,7.69Z" transform="translate(-0.39)" style="fill:#2c80c3"/><path d="M8.26,8.71H5a.27.27,0,0,1,0-.53h3.3a.26.26,0,0,1,.24.27A.27.27,0,0,1,8.26,8.71Z" transform="translate(-0.39)" style="fill:#2c80c3"/><path d="M12,12.29H1.18A.25.25,0,0,1,.94,12a.26.26,0,0,1,.24-.27H12a.27.27,0,0,1,.25.27A.3.3,0,0,1,12,12.29Z" transform="translate(-0.39)" style="fill:#2c80c3"/></g><path d="M16.24,23a1.6,1.6,0,0,1-1.53-1.66.53.53,0,1,1,1,0,.52.52,0,1,0,1,0,.52.52,0,1,1,1,0A1.71,1.71,0,0,1,16.24,23Z" transform="translate(-0.39)" style="fill:#2c80c3"/><path d="M18.24,23a1.59,1.59,0,0,1-1.52-1.66.52.52,0,1,1,1,0,.52.52,0,1,0,1,0,.52.52,0,1,1,1,0A1.71,1.71,0,0,1,18.24,23Z" transform="translate(-0.39)" style="fill:#2c80c3"/></svg>