<svg id="Layer_1" data-name="Layer 1" xmlns="http://www.w3.org/2000/svg" viewBox="0 0 24 24"><g id="F541_Car_sedans_traffic_transport_vehicles" data-name="F541, Car, sedans, traffic, transport, vehicles"><rect x="2.99" y="20.53" width="3" height="2.99" style="fill:#fff"/><rect x="17.97" y="20.53" width="2.99" height="2.99" style="fill:#fff"/><circle cx="4.51" cy="16.53" r="2" style="fill:#fff"/><circle cx="19.49" cy="16.53" r="2" style="fill:#fff"/><path d="M23.48,12.54v8H.48v-8h23Zm-2,4a2,2,0,1,0-2,2A2,2,0,0,0,21.48,16.53Zm-15,0a2,2,0,0,0-2-2,2,2,0,0,0,0,4A2,2,0,0,0,6.51,16.53Z" transform="translate(0 0)" style="fill:#a1c6e9"/><rect x="7.51" y="0.56" width="7.99" height="2.52" style="fill:#a1c6e9"/><polygon points="19.49 3.04 21.96 12.54 2 12.54 4.51 3.04 7.51 3.04 15.49 3.04 19.49 3.04" style="fill:#fff"/><path d="M6,24a.53.53,0,0,1-.52-.52v-3a.52.52,0,0,1,1,0v3A.53.53,0,0,1,6,24Z" transform="translate(0 0)" style="fill:#2c80c3"/><path d="M3,24a.53.53,0,0,1-.51-.52v-3a.52.52,0,1,1,1,0v3A.53.53,0,0,1,3,24Z" transform="translate(0 0)" style="fill:#2c80c3"/><path d="M21,24a.53.53,0,0,1-.52-.52v-3a.52.52,0,1,1,1,0v3A.53.53,0,0,1,21,24Z" transform="translate(0 0)" style="fill:#2c80c3"/><path d="M18,24a.53.53,0,0,1-.52-.52v-3a.52.52,0,1,1,1,0v3A.53.53,0,0,1,18,24Z" transform="translate(0 0)" style="fill:#2c80c3"/><path d="M23.48,21H.52A.53.53,0,0,1,0,20.49v-8A.53.53,0,0,1,.52,12H2a.53.53,0,0,1,.52.52A.57.57,0,0,1,2,13H1v7H23V13H22a.52.52,0,0,1,0-1h1.52a.53.53,0,0,1,.52.52v8A.59.59,0,0,1,23.48,21Z" transform="translate(0 0)" style="fill:#2c80c3"/><path d="M22,13H2a.49.49,0,0,1-.4-.2.56.56,0,0,1-.08-.44L4,2.88a.48.48,0,0,1,.48-.36h3a.52.52,0,1,1,0,1H4.91L2.68,12.06H21.36L19.13,3.55h-3.6a.52.52,0,1,1,0-1h4a.48.48,0,0,1,.48.36l2.51,9.5a.56.56,0,0,1-.08.44A.83.83,0,0,1,22,13Z" transform="translate(0 0)" style="fill:#2c80c3"/><path d="M15.49,3.55h-8A.53.53,0,0,1,7,3V.52A.53.53,0,0,1,7.51,0h8A.53.53,0,0,1,16,.52V3A.59.59,0,0,1,15.49,3.55ZM8,2.56h7V1H8Z" transform="translate(0 0)" style="fill:#2c80c3"/><path d="M4.51,19a2.52,2.52,0,0,1,0-5A2.5,2.5,0,0,1,7,16.49,2.54,2.54,0,0,1,4.51,19Zm0-4A1.52,1.52,0,1,0,6,16.53,1.55,1.55,0,0,0,4.51,15Z" transform="translate(0 0)" style="fill:#2c80c3"/><path d="M19.49,19A2.52,2.52,0,1,1,22,16.49,2.54,2.54,0,0,1,19.49,19Zm0-4A1.52,1.52,0,1,0,21,16.53,1.54,1.54,0,0,0,19.49,15Z" transform="translate(0 0)" style="fill:#2c80c3"/><path d="M15.49,17h-7a.52.52,0,0,1,0-1h7a.53.53,0,0,1,.52.52A.56.56,0,0,1,15.49,17Z" transform="translate(0 0)" style="fill:#2c80c3"/><path d="M23.48,24H.52a.52.52,0,0,1,0-1h23a.53.53,0,0,1,.52.52A.59.59,0,0,1,23.48,24Z" transform="translate(0 0)" style="fill:#2c80c3"/></g></svg>