<svg id="Layer_1" data-name="Layer 1" xmlns="http://www.w3.org/2000/svg" viewBox="0 0 28 26.19"><g id="_658_car_transport_parking" data-name="658, car, transport, parking"><path d="M16.11,4.39H12.16a1.54,1.54,0,0,0-1.53,1.53v4.55A1.54,1.54,0,0,0,12.16,12h3.95a1.54,1.54,0,0,0,1.53-1.53V5.92A1.58,1.58,0,0,0,16.11,4.39Z" transform="translate(-0.13 -1.42)" style="fill:#fff"/><path d="M8.54,4.11A1.12,1.12,0,0,1,8.86,5,1.15,1.15,0,0,1,7.7,6.11H4.82A1.31,1.31,0,0,1,4,5.78,1.09,1.09,0,0,1,3.66,5a1.34,1.34,0,0,1,.14-.61H2.5A1.41,1.41,0,0,1,1.66,4a1.12,1.12,0,0,1-.32-.84A1.15,1.15,0,0,1,2.5,2H4.82a1.31,1.31,0,0,1,.84.33A1.11,1.11,0,0,1,6,3.18a1.25,1.25,0,0,1-.14.61H7.75A1.19,1.19,0,0,1,8.54,4.11Z" transform="translate(-0.13 -1.42)" style="fill:#fff"/><path d="M24.56,5.55a1.15,1.15,0,0,1,1.16,1.16,1.33,1.33,0,0,1-.33.84,1,1,0,0,1-.83.32H22.23a1.15,1.15,0,0,1-1.16-1.16,1.36,1.36,0,0,1,.33-.84,1.11,1.11,0,0,1,.83-.32Z" transform="translate(-0.13 -1.42)" style="fill:#fff"/><path d="M27.48,11.35V16.6H19.91l1.44-3.2a3.42,3.42,0,0,1,3.07-2h3.06Z" transform="translate(-0.13 -1.42)" style="fill:#fff"/><path d="M17.87,18.88a.88.88,0,0,1,.88.88.85.85,0,0,1-.88.88h-2a4.62,4.62,0,0,1,.37-1.76Z" transform="translate(-0.13 -1.42)" style="fill:#fff"/><path d="M12.39,20.64h-2a.87.87,0,0,1-.88-.88.85.85,0,0,1,.88-.88H12A4.15,4.15,0,0,1,12.39,20.64Z" transform="translate(-0.13 -1.42)" style="fill:#fff"/><path d="M6.87,13.35l1.43,3.2H.78v-5.2h3A3.26,3.26,0,0,1,6.87,13.35Z" transform="translate(-0.13 -1.42)" style="fill:#fff"/><path d="M15.87,21.2a.62.62,0,0,1-.6-.61,4.39,4.39,0,0,1,.46-2,.59.59,0,1,1,1.07.51,3.29,3.29,0,0,0-.32,1.48A.7.7,0,0,1,15.87,21.2Z" transform="translate(-0.13 -1.42)" style="fill:#2c80c3"/><path d="M19.91,17.16a.39.39,0,0,1-.23-.05.55.55,0,0,1-.28-.74l1.44-3.2a3.94,3.94,0,0,1,3.62-2.33h3a.62.62,0,0,1,.61.61v5.24a.61.61,0,1,1-1.21,0V12.05H24.42a2.8,2.8,0,0,0-2.56,1.67l-1.44,3.07A.53.53,0,0,1,19.91,17.16Z" transform="translate(-0.13 -1.42)" style="fill:#2c80c3"/><path d="M27.48,19.48H22.23a.61.61,0,0,1,0-1.21h5.25a.62.62,0,0,1,.61.61A.65.65,0,0,1,27.48,19.48Z" transform="translate(-0.13 -1.42)" style="fill:#2c80c3"/><path d="M12.39,21.2a.62.62,0,0,1-.6-.61,3.3,3.3,0,0,0-.33-1.48.59.59,0,0,1,1.07-.51,4.8,4.8,0,0,1,.46,2A.68.68,0,0,1,12.39,21.2Z" transform="translate(-0.13 -1.42)" style="fill:#2c80c3"/><path d="M8.3,17.16a.58.58,0,0,1-.51-.33l-1.44-3.2A2.79,2.79,0,0,0,3.8,12H1.34V16.6a.61.61,0,0,1-.6.6.61.61,0,0,1-.61-.6V11.35a.62.62,0,0,1,.61-.6h3a4,4,0,0,1,3.63,2.32l1.44,3.21a.55.55,0,0,1-.28.74C8.44,17.11,8.4,17.16,8.3,17.16Z" transform="translate(-0.13 -1.42)" style="fill:#2c80c3"/><path d="M6,19.48H.78a.61.61,0,0,1,0-1.21H6a.62.62,0,0,1,.6.61A.65.65,0,0,1,6,19.48Z" transform="translate(-0.13 -1.42)" style="fill:#2c80c3"/><path d="M14.11,27a.61.61,0,0,1-.6-.6V11.91a.61.61,0,0,1,.6-.6.62.62,0,0,1,.6.6V26.45A.61.61,0,0,1,14.11,27Z" transform="translate(-0.13 -1.42)" style="fill:#2c80c3"/><path d="M16.11,12.52H12.16a2.08,2.08,0,0,1-2.09-2.09V5.87a2.07,2.07,0,0,1,2.09-2.08h3.95A2.07,2.07,0,0,1,18.2,5.87v4.56A2.15,2.15,0,0,1,16.11,12.52ZM12.16,5a.93.93,0,0,0-.93.92v4.56a.93.93,0,0,0,.93.92h3.95a.92.92,0,0,0,.92-.92V5.87A.92.92,0,0,0,16.11,5Z" transform="translate(-0.13 -1.42)" style="fill:#2c80c3"/><path d="M25.72,27.61H2.5a.61.61,0,0,1,0-1.21H25.72a.61.61,0,0,1,0,1.21Z" transform="translate(-0.13 -1.42)" style="fill:#2c80c3"/><path d="M13,10.75a.62.62,0,0,1-.61-.6V8.43a.61.61,0,0,1,1.21,0v1.76A.61.61,0,0,1,13,10.75Z" transform="translate(-0.13 -1.42)" style="fill:#2c80c3"/><path d="M14.39,9H13a.62.62,0,0,1-.61-.6V6.66a.62.62,0,0,1,.61-.6h1.44a1.44,1.44,0,0,1,1,2.46A1.28,1.28,0,0,1,14.39,9Zm-.84-1.16h.88c.1,0,.19,0,.19-.09a.33.33,0,0,0,.09-.19.3.3,0,0,0-.28-.28h-.88v.56Z" transform="translate(-0.13 -1.42)" style="fill:#2c80c3"/><path d="M7.75,6.71H4.82A1.85,1.85,0,0,1,3.57,6.2,1.62,1.62,0,0,1,3.06,5H2.5a1.9,1.9,0,0,1-1.25-.51A1.6,1.6,0,0,1,.74,3.18,1.76,1.76,0,0,1,2.5,1.42H4.82a1.88,1.88,0,0,1,1.26.51,1.61,1.61,0,0,1,.51,1.25H7.75A1.9,1.9,0,0,1,9,3.69,1.63,1.63,0,0,1,9.51,5,1.82,1.82,0,0,1,7.75,6.71ZM2.5,2.62a.62.62,0,0,0-.6.61.56.56,0,0,0,.18.42.73.73,0,0,0,.42.18H3.8a.57.57,0,0,1,.51.28.7.7,0,0,1,0,.6A.65.65,0,0,0,4.22,5a.56.56,0,0,0,.18.42.64.64,0,0,0,.42.19H7.75A.62.62,0,0,0,8.35,5a.6.6,0,0,0-.18-.42.63.63,0,0,0-.42-.18H5.84a.59.59,0,0,1-.51-.28.7.7,0,0,1,0-.6.68.68,0,0,0,.1-.28.57.57,0,0,0-.19-.42.59.59,0,0,0-.42-.19Z" transform="translate(-0.13 -1.42)" style="fill:#2c80c3"/><path d="M24.56,8.43H22.23a1.76,1.76,0,0,1-1.76-1.77A1.9,1.9,0,0,1,21,5.41a1.82,1.82,0,0,1,1.25-.51h2.33a1.76,1.76,0,0,1,1.76,1.76,1.86,1.86,0,0,1-.51,1.26A1.9,1.9,0,0,1,24.56,8.43ZM22.23,6.11a.56.56,0,0,0-.41.18.59.59,0,0,0-.19.42.57.57,0,0,0,.6.56h2.33A.54.54,0,0,0,25,7.08a.56.56,0,0,0,.19-.42.62.62,0,0,0-.6-.6l-2.33.05Z" transform="translate(-0.13 -1.42)" style="fill:#2c80c3"/><path d="M8.86,24.63h0a1.81,1.81,0,0,0-.14-.74c0-.05,0-.18-.09-.18s-.05-.14-.09-.19h0a2.21,2.21,0,0,0-1.95-1.16,2.32,2.32,0,1,0,0,4.64,2.24,2.24,0,0,0,2.27-2.37C8.91,24.68,8.91,24.63,8.86,24.63Z" transform="translate(-0.13 -1.42)" style="fill:#fff"/><path d="M.78,18.88V16.55H8.35A4,4,0,0,1,12,18.88H10.39a.88.88,0,0,0-.88.88.85.85,0,0,0,.88.88h2a4.1,4.1,0,0,1-3.49,4,2,2,0,0,0-.23-.93l-.09-.18h0a2.4,2.4,0,0,0-2-1.21,2.3,2.3,0,0,0-2.33,2.32H.78Z" transform="translate(-0.13 -1.42)" style="fill:#a1c6e9"/><path d="M6.59,25.84a1.16,1.16,0,1,1,1.16-1.16A1.18,1.18,0,0,1,6.59,25.84Z" transform="translate(-0.13 -1.42)" style="fill:#2c80c3"/><path d="M4.26,25.28H.78a.61.61,0,0,1-.6-.6V16.55a.62.62,0,0,1,.6-.6H8.35a4.6,4.6,0,0,1,4.18,2.65.5.5,0,0,1,0,.56.53.53,0,0,1-.51.27H10.35a.28.28,0,0,0,0,.56h2a.61.61,0,0,1,.6.6,4.63,4.63,0,0,1-1.16,3.07A4.48,4.48,0,0,1,9,25.19a.59.59,0,0,1-.65-.56,3.81,3.81,0,0,0-.09-.6.45.45,0,0,1,.28-.7.6.6,0,0,1,.74.33,2.29,2.29,0,0,1,.09.28,3.64,3.64,0,0,0,1.58-1,3.25,3.25,0,0,0,.79-1.72H10.35a1.44,1.44,0,0,1,0-2.88h.55a3.41,3.41,0,0,0-2.6-1.16h-7v7H4.26a.62.62,0,0,1,.61.61A.69.69,0,0,1,4.26,25.28Z" transform="translate(-0.13 -1.42)" style="fill:#2c80c3"/><path d="M6.59,27.61a3,3,0,0,1-2.93-2.93,2.89,2.89,0,0,1,3.53-2.83,2.92,2.92,0,0,1-.6,5.76ZM4.82,24.68a1.77,1.77,0,0,0,1.77,1.77,1.71,1.71,0,0,0,1.67-2.14s0-.09,0-.09A1.68,1.68,0,0,0,8.12,24a2,2,0,0,0-.42-.55,1.34,1.34,0,0,0-.32-.24,1.08,1.08,0,0,0-.47-.13.89.89,0,0,0-.23,0A1.66,1.66,0,0,0,4.82,24.68Z" transform="translate(-0.13 -1.42)" style="fill:#2c80c3"/><path d="M21.12,22.41a2.43,2.43,0,0,0-1.49,1.06.2.2,0,0,1-.09.14,2,2,0,0,0-.23,1h0v0a2.32,2.32,0,1,0,4.64,0A2.28,2.28,0,0,0,21.12,22.41Z" transform="translate(-0.13 -1.42)" style="fill:#fff"/><path d="M27.48,18.88v5.8H24a2.31,2.31,0,0,0-2.83-2.27,2.43,2.43,0,0,0-1.49,1.06c0,.05-.05.1-.09.14a2.31,2.31,0,0,0-.23,1,4.07,4.07,0,0,1-2.47-1.35,4.21,4.21,0,0,1-1-2.69h2.05a.88.88,0,0,0,.88-.88.86.86,0,0,0-.88-.89H16.29A4,4,0,0,1,20,16.46h7.52v2.42Z" transform="translate(-0.13 -1.42)" style="fill:#a1c6e9"/><path d="M27.48,25.28H24a.6.6,0,0,1-.6-.6.61.61,0,0,1,.6-.6h2.92v-7H20a3.42,3.42,0,0,0-2.6,1.16h.56a1.44,1.44,0,0,1,0,2.88h-1.4a3.48,3.48,0,0,0,.79,1.72,3.6,3.6,0,0,0,1.58,1c.05-.09.05-.23.09-.28a.57.57,0,0,1,.75-.32.56.56,0,0,1,.32.74,2.7,2.7,0,0,0-.09.6.56.56,0,0,1-.65.56,4.51,4.51,0,0,1-2.83-1.53,4.63,4.63,0,0,1-1.16-3.07.61.61,0,0,1,.6-.6h2a.28.28,0,1,0,0-.56H16.34a.64.64,0,0,1-.51-.27.59.59,0,0,1-.05-.56A4.61,4.61,0,0,1,20,16h7.57a.62.62,0,0,1,.6.6v8.13A.77.77,0,0,1,27.48,25.28Z" transform="translate(-0.13 -1.42)" style="fill:#2c80c3"/><path d="M21.68,27.61A2.91,2.91,0,0,1,18.85,24a3.29,3.29,0,0,1,.46-1,2.87,2.87,0,0,1,2.37-1.21,2.94,2.94,0,0,1,2.92,2.93A2.9,2.9,0,0,1,21.68,27.61ZM20,24.4A1.75,1.75,0,1,0,21.4,23h-.09A1.8,1.8,0,0,0,20,24.4Zm1.25-2,.1.55h0Z" transform="translate(-0.13 -1.42)" style="fill:#2c80c3"/><path d="M21.68,25.84a1.16,1.16,0,1,1,1.16-1.16A1.18,1.18,0,0,1,21.68,25.84Z" transform="translate(-0.13 -1.42)" style="fill:#2c80c3"/></g></svg>