<svg id="Layer_1" data-name="Layer 1" xmlns="http://www.w3.org/2000/svg" viewBox="0 0 24 22.45"><g id="_658_car_transport_parking" data-name="658, car, transport, parking"><path d="M13.69,3.32H10.31A1.32,1.32,0,0,0,9,4.64v3.9a1.32,1.32,0,0,0,1.31,1.31h3.38A1.33,1.33,0,0,0,15,8.54V4.64A1.36,1.36,0,0,0,13.69,3.32Z" transform="translate(0 -0.78)" style="fill:#fff"/><path d="M7.2,3.08a1,1,0,0,1,.28.72,1,1,0,0,1-1,1H4a1.15,1.15,0,0,1-.72-.28A1,1,0,0,1,3,3.8a1.1,1.1,0,0,1,.11-.52H2A1.2,1.2,0,0,1,1.31,3,1,1,0,0,1,1,2.29a1,1,0,0,1,1-1H4a1.15,1.15,0,0,1,.72.28A1,1,0,0,1,5,2.29a1.1,1.1,0,0,1-.11.52H6.53A1.06,1.06,0,0,1,7.2,3.08Z" transform="translate(0 -0.78)" style="fill:#fff"/><path d="M20.94,4.32a1,1,0,0,1,1,1,1.15,1.15,0,0,1-.28.72.9.9,0,0,1-.71.28H19a1,1,0,0,1-1-1,1.12,1.12,0,0,1,.28-.71A1,1,0,0,1,19,4.32Z" transform="translate(0 -0.78)" style="fill:#fff"/><path d="M23.44,9.29v4.5H17L18.19,11a2.93,2.93,0,0,1,2.63-1.71h2.62Z" transform="translate(0 -0.78)" style="fill:#fff"/><path d="M15.2,15.74a.76.76,0,0,1,.76.76.73.73,0,0,1-.76.75H13.45a4,4,0,0,1,.32-1.51Z" transform="translate(0 -0.78)" style="fill:#fff"/><path d="M10.51,17.25H8.76A.75.75,0,0,1,8,16.5a.74.74,0,0,1,.76-.76h1.39A3.69,3.69,0,0,1,10.51,17.25Z" transform="translate(0 -0.78)" style="fill:#fff"/><path d="M5.77,11,7,13.75H.56V9.29H3.14A2.78,2.78,0,0,1,5.77,11Z" transform="translate(0 -0.78)" style="fill:#fff"/><path d="M13.49,17.73a.52.52,0,0,1-.51-.52,3.72,3.72,0,0,1,.39-1.71.51.51,0,1,1,.92.44A2.83,2.83,0,0,0,14,17.21.59.59,0,0,1,13.49,17.73Z" transform="translate(0 -0.78)" style="fill:#2c80c3"/><path d="M17,14.27a.36.36,0,0,1-.2,0,.48.48,0,0,1-.24-.64l1.23-2.74a3.36,3.36,0,0,1,3.11-2h2.58a.52.52,0,0,1,.52.51v4.5a.53.53,0,0,1-.52.52.52.52,0,0,1-.51-.52v-4H20.82a2.39,2.39,0,0,0-2.19,1.43L17.39,14A.47.47,0,0,1,17,14.27Z" transform="translate(0 -0.78)" style="fill:#2c80c3"/><path d="M23.44,16.26H19a.52.52,0,1,1,0-1h4.49a.53.53,0,0,1,.52.52A.56.56,0,0,1,23.44,16.26Z" transform="translate(0 -0.78)" style="fill:#2c80c3"/><path d="M10.51,17.73a.53.53,0,0,1-.52-.52,2.83,2.83,0,0,0-.28-1.27.51.51,0,0,1,.92-.44,4.16,4.16,0,0,1,.4,1.71A.59.59,0,0,1,10.51,17.73Z" transform="translate(0 -0.78)" style="fill:#2c80c3"/><path d="M7,14.27A.49.49,0,0,1,6.57,14L5.33,11.24A2.39,2.39,0,0,0,3.14,9.81H1v4a.52.52,0,0,1-.51.52A.53.53,0,0,1,0,13.79V9.29a.52.52,0,0,1,.52-.51H3.1a3.42,3.42,0,0,1,3.11,2l1.23,2.74a.47.47,0,0,1-.24.64C7.12,14.23,7.08,14.27,7,14.27Z" transform="translate(0 -0.78)" style="fill:#2c80c3"/><path d="M5,16.26H.56a.52.52,0,0,1,0-1H5.05a.53.53,0,0,1,.52.52A.57.57,0,0,1,5,16.26Z" transform="translate(0 -0.78)" style="fill:#2c80c3"/><path d="M12,22.71a.53.53,0,0,1-.52-.52V9.77a.52.52,0,0,1,1,0V22.23A.52.52,0,0,1,12,22.71Z" transform="translate(0 -0.78)" style="fill:#2c80c3"/><path d="M13.69,10.29H10.31A1.78,1.78,0,0,1,8.52,8.5V4.6a1.78,1.78,0,0,1,1.79-1.79h3.38A1.78,1.78,0,0,1,15.48,4.6V8.5A1.83,1.83,0,0,1,13.69,10.29ZM10.31,3.8a.8.8,0,0,0-.8.8V8.5a.79.79,0,0,0,.8.79h3.38a.79.79,0,0,0,.8-.79V4.6a.8.8,0,0,0-.8-.8Z" transform="translate(0 -0.78)" style="fill:#2c80c3"/><path d="M21.93,23.22H2a.52.52,0,1,1,0-1h19.9a.52.52,0,1,1,0,1Z" transform="translate(0 -0.78)" style="fill:#2c80c3"/><path d="M11,8.78a.53.53,0,0,1-.52-.52V6.79a.52.52,0,1,1,1,0V8.3A.52.52,0,0,1,11,8.78Z" transform="translate(0 -0.78)" style="fill:#2c80c3"/><path d="M12.22,7.3H11a.53.53,0,0,1-.52-.51V5.27A.52.52,0,0,1,11,4.76h1.23a1.24,1.24,0,0,1,.87,2.11A1.1,1.1,0,0,1,12.22,7.3Zm-.72-1h.76c.08,0,.16,0,.16-.08a.3.3,0,0,0,.08-.16.26.26,0,0,0-.24-.24H11.5v.48Z" transform="translate(0 -0.78)" style="fill:#2c80c3"/><path d="M6.53,5.31H4A1.61,1.61,0,0,1,3,4.88,1.39,1.39,0,0,1,2.51,3.8H2A1.58,1.58,0,0,1,1,3.36,1.37,1.37,0,0,1,.52,2.29,1.5,1.5,0,0,1,2,.78H4a1.61,1.61,0,0,1,1.07.43,1.39,1.39,0,0,1,.44,1.08h1a1.6,1.6,0,0,1,1.07.44A1.37,1.37,0,0,1,8,3.8,1.56,1.56,0,0,1,6.53,5.31ZM2,1.81a.53.53,0,0,0-.52.52.49.49,0,0,0,.16.36A.6.6,0,0,0,2,2.85H3.14a.52.52,0,0,1,.44.23.59.59,0,0,1,0,.52.57.57,0,0,0-.08.24.49.49,0,0,0,.16.36A.51.51,0,0,0,4,4.36H6.53A.52.52,0,0,0,7,3.84a.48.48,0,0,0-.15-.36.51.51,0,0,0-.36-.16H4.9a.5.5,0,0,1-.44-.24.57.57,0,0,1,0-.51.57.57,0,0,0,.08-.24A.49.49,0,0,0,4.38,2,.51.51,0,0,0,4,1.81Z" transform="translate(0 -0.78)" style="fill:#2c80c3"/><path d="M20.94,6.79H19a1.52,1.52,0,0,1-1.52-1.52,1.61,1.61,0,0,1,.44-1.07A1.55,1.55,0,0,1,19,3.76h2a1.52,1.52,0,0,1,1.51,1.51A1.62,1.62,0,0,1,22,6.35,1.61,1.61,0,0,1,20.94,6.79Zm-2-2a.49.49,0,0,0-.36.16.47.47,0,0,0-.16.35.5.5,0,0,0,.52.48h2a.48.48,0,0,0,.35-.16.51.51,0,0,0,.16-.36.52.52,0,0,0-.51-.51l-2,0Z" transform="translate(0 -0.78)" style="fill:#2c80c3"/><path d="M7.48,20.68h0A1.66,1.66,0,0,0,7.36,20s0-.16-.08-.16,0-.12-.08-.16h0a1.87,1.87,0,0,0-1.67-1,2,2,0,1,0,0,4,1.92,1.92,0,0,0,2-2S7.52,20.68,7.48,20.68Z" transform="translate(0 -0.78)" style="fill:#fff"/><path d="M.56,15.74v-2H7a3.45,3.45,0,0,1,3.15,2H8.8A.76.76,0,0,0,8,16.5a.73.73,0,0,0,.76.75h1.75a3.54,3.54,0,0,1-3,3.47,1.69,1.69,0,0,0-.2-.8l-.08-.16h0a2,2,0,0,0-1.75-1,2,2,0,0,0-2,2h-3Z" transform="translate(0 -0.78)" style="fill:#a1c6e9"/><path d="M5.53,21.71a1,1,0,1,1,1-1A1,1,0,0,1,5.53,21.71Z" transform="translate(0 -0.78)" style="fill:#2c80c3"/><path d="M3.54,21.23h-3A.53.53,0,0,1,0,20.72v-7a.53.53,0,0,1,.52-.52H7a4,4,0,0,1,3.59,2.27.43.43,0,0,1,0,.48.46.46,0,0,1-.44.24H8.76a.24.24,0,0,0,0,.48h1.75a.53.53,0,0,1,.52.51,4,4,0,0,1-1,2.63A3.86,3.86,0,0,1,7.6,21.15.5.5,0,0,1,7,20.68,2.67,2.67,0,0,0,7,20.16a.39.39,0,0,1,.23-.6.52.52,0,0,1,.64.28c0,.08,0,.16.08.24a3,3,0,0,0,1.35-.88A2.75,2.75,0,0,0,10,17.73H8.76a1.24,1.24,0,1,1,0-2.47h.47a2.92,2.92,0,0,0-2.22-1H1v6H3.54a.53.53,0,0,1,.52.52A.59.59,0,0,1,3.54,21.23Z" transform="translate(0 -0.78)" style="fill:#2c80c3"/><path d="M5.53,23.22A2.51,2.51,0,0,1,3,20.72a2.48,2.48,0,0,1,3-2.43,2.5,2.5,0,0,1-.52,4.93ZM4,20.72a1.52,1.52,0,0,0,1.51,1.51A1.47,1.47,0,0,0,7,20.4s0-.08,0-.08a1.56,1.56,0,0,0-.44-.68,1.22,1.22,0,0,0-.28-.2.89.89,0,0,0-.4-.12.81.81,0,0,0-.2,0A1.43,1.43,0,0,0,4,20.72Z" transform="translate(0 -0.78)" style="fill:#2c80c3"/><path d="M18,18.77a2,2,0,0,0-1.27.91s0,.08-.08.12a1.74,1.74,0,0,0-.2.84h0v0A2,2,0,1,0,18,18.77Z" transform="translate(0 -0.78)" style="fill:#fff"/><path d="M23.44,15.74v5h-3A2,2,0,0,0,18,18.77a2,2,0,0,0-1.27.91s0,.08-.08.12a2,2,0,0,0-.2.84,3.47,3.47,0,0,1-2.11-1.16,3.57,3.57,0,0,1-.88-2.31h1.75a.75.75,0,0,0,.76-.75.74.74,0,0,0-.76-.76H13.85a3.45,3.45,0,0,1,3.15-2h6.44v2.07Z" transform="translate(0 -0.78)" style="fill:#a1c6e9"/><path d="M23.44,21.23h-3a.52.52,0,1,1,0-1H23v-6H17a2.93,2.93,0,0,0-2.23,1h.47a1.24,1.24,0,1,1,0,2.47H14.05a2.89,2.89,0,0,0,.68,1.47,3,3,0,0,0,1.35.88c0-.08,0-.2.08-.24a.49.49,0,1,1,.91.36,2,2,0,0,0-.07.52.48.48,0,0,1-.56.47A3.86,3.86,0,0,1,14,19.84a4,4,0,0,1-1-2.63.53.53,0,0,1,.52-.51h1.75a.24.24,0,0,0,0-.48H13.89a.55.55,0,0,1-.44-.24.51.51,0,0,1,0-.48A4,4,0,0,1,17,13.23h6.48a.53.53,0,0,1,.52.52v7A.68.68,0,0,1,23.44,21.23Z" transform="translate(0 -0.78)" style="fill:#2c80c3"/><path d="M18.47,23.22A2.49,2.49,0,0,1,16,20.16a2.87,2.87,0,0,1,.4-.88,2.46,2.46,0,0,1,2-1A2.52,2.52,0,0,1,21,20.76,2.49,2.49,0,0,1,18.47,23.22ZM17,20.48a1.5,1.5,0,0,0,1.47,1.75,1.51,1.51,0,1,0-.24-3h-.08A1.51,1.51,0,0,0,17,20.48Zm1.07-1.71.08.47h0Z" transform="translate(0 -0.78)" style="fill:#2c80c3"/><path d="M18.47,21.71a1,1,0,1,1,1-1A1,1,0,0,1,18.47,21.71Z" transform="translate(0 -0.78)" style="fill:#2c80c3"/></g></svg>