<svg id="Layer_1" data-name="Layer 1" xmlns="http://www.w3.org/2000/svg" viewBox="0 0 24 23.88"><g id="_44_Marketing_Statistics_Stats_" data-name="44, Marketing, Statistics, Stats,"><rect x="17.95" y="3.5" width="2.99" height="16.92" style="fill:#c3e3f7"/><rect x="10.99" y="8.48" width="2.99" height="11.94" style="fill:#fff"/><rect x="4.02" y="12.46" width="2.99" height="7.96" style="fill:#c3e3f7"/><path d="M23.44,24H.56A.53.53,0,0,1,0,23.47V.63A.53.53,0,0,1,.56.11a.52.52,0,0,1,.51.52V23H23.48a.53.53,0,0,1,.52.51A.69.69,0,0,1,23.44,24Z" transform="translate(0 -0.11)" style="fill:#2e8ecd"/><path d="M7,21H4a.53.53,0,0,1-.52-.52v-8A.53.53,0,0,1,4,12H7a.53.53,0,0,1,.52.52v8A.53.53,0,0,1,7,21ZM4.54,20h2v-7h-2Z" transform="translate(0 -0.11)" style="fill:#2e8ecd"/><path d="M14,21H11a.53.53,0,0,1-.52-.52V8.55A.53.53,0,0,1,11,8h3a.53.53,0,0,1,.52.52V20.49A.53.53,0,0,1,14,21ZM11.5,20h2V9.07h-2Z" transform="translate(0 -0.11)" style="fill:#2e8ecd"/><path d="M20.94,21H18a.53.53,0,0,1-.52-.52V3.61A.53.53,0,0,1,18,3.1h3a.53.53,0,0,1,.51.51V20.53A.52.52,0,0,1,20.94,21Zm-2.47-1h2V4.09h-2Z" transform="translate(0 -0.11)" style="fill:#2e8ecd"/><path d="M2,3.61H.52A.52.52,0,0,1,0,3.1a.53.53,0,0,1,.52-.52H2a.53.53,0,0,1,.52.52A.52.52,0,0,1,2,3.61Z" transform="translate(0 -0.11)" style="fill:#2e8ecd"/><path d="M2,6.08H.52a.52.52,0,1,1,0-1H2a.52.52,0,1,1,0,1Z" transform="translate(0 -0.11)" style="fill:#2e8ecd"/><path d="M2,8.59H.52a.52.52,0,1,1,0-1H2a.52.52,0,0,1,0,1Z" transform="translate(0 -0.11)" style="fill:#2e8ecd"/><path d="M2,11.06H.52a.52.52,0,0,1,0-1H2a.52.52,0,0,1,0,1Z" transform="translate(0 -0.11)" style="fill:#2e8ecd"/><path d="M2,13.56H.52A.52.52,0,0,1,0,13.05a.53.53,0,0,1,.52-.52H2a.53.53,0,0,1,.52.52A.52.52,0,0,1,2,13.56Z" transform="translate(0 -0.11)" style="fill:#2e8ecd"/><path d="M2,16H.52a.52.52,0,1,1,0-1H2a.52.52,0,1,1,0,1Z" transform="translate(0 -0.11)" style="fill:#2e8ecd"/><path d="M2,18.54H.52a.52.52,0,0,1,0-1H2a.52.52,0,1,1,0,1Z" transform="translate(0 -0.11)" style="fill:#2e8ecd"/><path d="M2,21H.52a.52.52,0,0,1,0-1H2a.52.52,0,0,1,0,1Z" transform="translate(0 -0.11)" style="fill:#2e8ecd"/><path d="M3.54,24A.52.52,0,0,1,3,23.47v-1A.52.52,0,0,1,3.54,22a.53.53,0,0,1,.52.52v1A.59.59,0,0,1,3.54,24Z" transform="translate(0 -0.11)" style="fill:#2e8ecd"/><path d="M6,24a.53.53,0,0,1-.52-.52v-1a.52.52,0,0,1,1,0v1A.53.53,0,0,1,6,24Z" transform="translate(0 -0.11)" style="fill:#2e8ecd"/><path d="M8.52,24A.53.53,0,0,1,8,23.47v-1A.53.53,0,0,1,8.52,22a.52.52,0,0,1,.51.52v1A.57.57,0,0,1,8.52,24Z" transform="translate(0 -0.11)" style="fill:#2e8ecd"/><path d="M11,24a.53.53,0,0,1-.52-.52v-1a.52.52,0,1,1,1,0v1A.53.53,0,0,1,11,24Z" transform="translate(0 -0.11)" style="fill:#2e8ecd"/><path d="M13.49,24a.53.53,0,0,1-.52-.52v-1a.52.52,0,1,1,1,0v1A.59.59,0,0,1,13.49,24Z" transform="translate(0 -0.11)" style="fill:#2e8ecd"/><path d="M16,24a.53.53,0,0,1-.52-.52v-1a.52.52,0,0,1,1,0v1A.53.53,0,0,1,16,24Z" transform="translate(0 -0.11)" style="fill:#2e8ecd"/><path d="M18.47,24a.53.53,0,0,1-.52-.52v-1a.52.52,0,1,1,1,0v1A.59.59,0,0,1,18.47,24Z" transform="translate(0 -0.11)" style="fill:#2e8ecd"/><path d="M20.94,24a.53.53,0,0,1-.52-.52v-1a.52.52,0,1,1,1,0v1A.53.53,0,0,1,20.94,24Z" transform="translate(0 -0.11)" style="fill:#2e8ecd"/></g></svg>