<svg id="Layer_1" data-name="Layer 1" xmlns="http://www.w3.org/2000/svg" viewBox="0 0 24 15.4"><path d="M23.4,7V8H.52V7A2.25,2.25,0,0,1,2.77,4.75H21.16A2.24,2.24,0,0,1,23.4,7Z" transform="translate(0 -4.3)" style="fill:#a1c6e9"/><path d="M23.4,10.8v6.13a2.24,2.24,0,0,1-2.24,2.25H2.77A2.26,2.26,0,0,1,.52,16.93V10.8Z" transform="translate(0 -4.3)" style="fill:#a1c6e9"/><rect x="0.52" y="3.66" width="22.88" height="2.84" style="fill:#fff"/><path d="M23.4,8.49A.49.49,0,0,1,23,8v-1a1.82,1.82,0,0,0-1.79-1.8H2.77A1.82,1.82,0,0,0,1,7.07V8a.48.48,0,0,1-.45.45A.48.48,0,0,1,.08,8v-1A2.75,2.75,0,0,1,2.84,4.3H21.23A2.76,2.76,0,0,1,24,7.07V8A.67.67,0,0,1,23.4,8.49Z" transform="translate(0 -4.3)" style="fill:#2c80c3"/><path d="M21.16,19.7H2.77A2.76,2.76,0,0,1,0,16.93V10.8a.47.47,0,0,1,.45-.44.48.48,0,0,1,.45.44v6.13a1.82,1.82,0,0,0,1.79,1.8H21.08a1.82,1.82,0,0,0,1.8-1.8V10.8a.47.47,0,0,1,.45-.44.48.48,0,0,1,.45.44v6.13A2.6,2.6,0,0,1,21.16,19.7Z" transform="translate(0 -4.3)" style="fill:#2c80c3"/><path d="M23.4,11.25H.52a.47.47,0,0,1-.44-.45V8a.48.48,0,0,1,.44-.45H23.4a.48.48,0,0,1,.45.45V10.8C23.92,11,23.7,11.25,23.4,11.25ZM1,10.36H23V8.49H1Z" transform="translate(0 -4.3)" style="fill:#2c80c3"/><path d="M3.36,14.09a.47.47,0,0,1-.44-.45v-1a.48.48,0,0,1,.44-.45.48.48,0,0,1,.45.45v1A.48.48,0,0,1,3.36,14.09Z" transform="translate(0 -4.3)" style="fill:#2c80c3"/><path d="M5.23,14.09a.47.47,0,0,1-.44-.45v-1a.48.48,0,0,1,.44-.45.48.48,0,0,1,.45.45v1A.48.48,0,0,1,5.23,14.09Z" transform="translate(0 -4.3)" style="fill:#2c80c3"/><path d="M7.1,14.09a.48.48,0,0,1-.45-.45v-1a.49.49,0,0,1,.45-.45.48.48,0,0,1,.45.45v1A.48.48,0,0,1,7.1,14.09Z" transform="translate(0 -4.3)" style="fill:#2c80c3"/><path d="M9,14.09a.48.48,0,0,1-.45-.45v-1A.49.49,0,0,1,9,12.22a.48.48,0,0,1,.45.45v1A.48.48,0,0,1,9,14.09Z" transform="translate(0 -4.3)" style="fill:#2c80c3"/><path d="M10.84,14.09a.48.48,0,0,1-.45-.45v-1a.49.49,0,0,1,.45-.45.48.48,0,0,1,.45.45v1A.48.48,0,0,1,10.84,14.09Z" transform="translate(0 -4.3)" style="fill:#2c80c3"/><path d="M12.71,14.09a.48.48,0,0,1-.45-.45v-1a.45.45,0,0,1,.9,0v1A.48.48,0,0,1,12.71,14.09Z" transform="translate(0 -4.3)" style="fill:#2c80c3"/><path d="M9.87,16.86H3.29a.48.48,0,0,1-.45-.45A.49.49,0,0,1,3.29,16H9.87a.49.49,0,0,1,.45.45A.43.43,0,0,1,9.87,16.86Z" transform="translate(0 -4.3)" style="fill:#2c80c3"/></svg>