<svg id="Layer_1" data-name="Layer 1" xmlns="http://www.w3.org/2000/svg" viewBox="0 0 50 49.92"><g id="C815_Connection_phone_signal" data-name="C815, Connection, phone, signal"><rect x="42.68" y="1.08" width="6.24" height="47.84" style="fill:#fff"/><rect x="32.28" y="8.32" width="6.24" height="40.6" style="fill:#a1c6e9"/><rect x="21.88" y="17.72" width="6.24" height="31.2" style="fill:#fff"/><rect x="11.48" y="26.04" width="6.24" height="22.88" style="fill:#a1c6e9"/><rect x="1.08" y="32.28" width="6.24" height="16.64" style="fill:#fff"/><path d="M-6.79,38.39H-13a1.09,1.09,0,0,1-1.08-1.08V20.67A1.1,1.1,0,0,1-13,19.59h6.24a1.1,1.1,0,0,1,1.08,1.08V37.31A1.22,1.22,0,0,1-6.79,38.39ZM-12,36.32h4.15V21.76H-12Z" transform="translate(14.11 11.52)" style="fill:#2c80c3"/><path d="M3.61,38.39H-2.63a1.09,1.09,0,0,1-1.08-1.08V14.52a1.1,1.1,0,0,1,1.08-1.08H3.61a1.1,1.1,0,0,1,1.08,1.08V37.4A1.23,1.23,0,0,1,3.61,38.39Zm-5.25-2.07H2.52V15.52H-1.64Z" transform="translate(14.11 11.52)" style="fill:#2c80c3"/><path d="M14,38.39H7.77a1.1,1.1,0,0,1-1.09-1.08V6.2A1.1,1.1,0,0,1,7.77,5.12H14A1.1,1.1,0,0,1,15.09,6.2V37.4A1.24,1.24,0,0,1,14,38.39ZM8.76,36.32h4.16V7.2H8.76Z" transform="translate(14.11 11.52)" style="fill:#2c80c3"/><path d="M24.4,38.39H18.17a1.1,1.1,0,0,1-1.09-1.08V-3.2a1.1,1.1,0,0,1,1.09-1.08H24.4A1.1,1.1,0,0,1,25.49-3.2V37.4A1.24,1.24,0,0,1,24.4,38.39Zm-5.24-2.07h4.16V-2.12H19.16Z" transform="translate(14.11 11.52)" style="fill:#2c80c3"/><path d="M34.8,38.39H28.56a1.1,1.1,0,0,1-1.08-1.08V-10.44a1.1,1.1,0,0,1,1.08-1.08H34.8a1.1,1.1,0,0,1,1.09,1.08V37.4A1.24,1.24,0,0,1,34.8,38.39Zm-5.24-2.07h4.16V-9.44H29.56Z" transform="translate(14.11 11.52)" style="fill:#2c80c3"/></g></svg>