<svg id="Layer_1" data-name="Layer 1" xmlns="http://www.w3.org/2000/svg" viewBox="0 0 23.89 24"><g id="C_-_31_Schedule_Approved_business_calendar_event_plan_planning" data-name="C - 31, Schedule, Approved, business, calendar, event, plan, planning"><rect x="6.64" y="10.54" width="1.97" height="1.97" style="fill:#fff"/><rect x="17.97" y="6.6" width="1.97" height="1.97" style="fill:#fff"/><rect x="10.1" y="6.6" width="1.97" height="1.97" style="fill:#fff"/><rect x="10.58" y="10.54" width="1.97" height="1.97" style="fill:#fff"/><rect x="2.75" y="10.54" width="1.97" height="1.97" style="fill:#fff"/><rect x="14.03" y="6.6" width="1.97" height="1.97" style="fill:#fff"/><rect x="6.16" y="6.6" width="1.97" height="1.97" style="fill:#fff"/><path d="M18.5,13.21H19a.48.48,0,0,1,.26,0h.48c.05,0,.05,0,.09,0h.26c.05,0,.05,0,.09,0h0s.09,0,.13,0h0s0,0,.09,0,0,0,0,.05.05,0,.09,0h0a.14.14,0,0,1,.09,0h0s.09,0,.13,0h0a.19.19,0,0,1,.09,0h0a.19.19,0,0,1,.09,0h0s0,.05.09.05a5.35,5.35,0,0,1-2.71,10,5.43,5.43,0,0,1-5.21-3.89h0a1.7,1.7,0,0,1-.08-.44s0-.13-.05-.17v-.09A.31.31,0,0,0,13,19v-.83h0v-.21h0v-.53h0A5.76,5.76,0,0,1,18.5,13.21Z" transform="translate(-0.06 -0.27)" style="fill:#fff"/><path d="M13.3,20.08H.32V17.63H13.17v.52h0v.22h0v.83a.3.3,0,0,0,0,.18v.09s0,.13,0,.17A.74.74,0,0,0,13.3,20.08Z" transform="translate(-0.06 -0.27)" style="fill:#fff"/><polygon points="0.26 2.4 0.26 0.26 22.38 0.26 22.38 4.63 0.26 4.63 0.26 2.4" style="fill:#fff"/><path d="M22.44,4.91v10a5.17,5.17,0,0,0-1.23-1s0-.05-.08-.05h-.05a.14.14,0,0,1-.08,0h0a.14.14,0,0,1-.09,0h-.05s-.08-.05-.13-.05h0a.14.14,0,0,1-.08,0h0a.11.11,0,0,1-.08-.05s-.05,0-.05,0,0,0-.09,0h0s-.08,0-.13,0h0s0,0-.08,0H19.9s0,0-.08,0h-.48a.52.52,0,0,1-.27-.05h-.52a5.32,5.32,0,0,0-5.29,4.42H.32V4.91ZM20,8.8v-2H18v2Zm-3.93,0v-2h-2v2ZM12.6,12.73v-2h-2v2ZM12.12,8.8v-2h-2v2ZM9.67,16.14v-1h-1v1Zm-1-3.41v-2h-2v2ZM8.19,8.8v-2h-2v2Zm-.48,7.34v-1h-1v1Zm-2,0v-1h-1v1Zm-1-3.41v-2h-2v2Zm-1,3.41v-1h-1v1Z" transform="translate(-0.06 -0.27)" style="fill:#a1c6e9"/><rect x="8.61" y="14.91" width="0.96" height="0.96" style="fill:#5180c1"/><rect x="6.64" y="14.91" width="0.96" height="0.96" style="fill:#5180c1"/><rect x="4.72" y="14.91" width="0.96" height="0.96" style="fill:#5180c1"/><rect x="2.75" y="14.91" width="0.96" height="0.96" style="fill:#5180c1"/><path d="M.32,17.89a.28.28,0,0,1-.26-.26V4.91a.28.28,0,0,1,.26-.26.28.28,0,0,1,.26.26V17.63C.62,17.76.49,17.89.32,17.89Z" transform="translate(-0.06 -0.27)" style="fill:#5180c1"/><path d="M19,13.52H18.9a.29.29,0,0,1-.26-.31.29.29,0,0,1,.3-.26H19a.27.27,0,0,1,.22.31A.23.23,0,0,1,19,13.52Z" transform="translate(-0.06 -0.27)" style="fill:#5180c1"/><path d="M19.34,13.56H19.2a.24.24,0,0,1-.21-.3.26.26,0,0,1,.3-.22h.09c.13,0,.26.17.22.31A.24.24,0,0,1,19.34,13.56Z" transform="translate(-0.06 -0.27)" style="fill:#5180c1"/><path d="M19.55,13.61h-.13c-.13,0-.26-.18-.22-.31s.18-.26.31-.22a.15.15,0,0,1,.13.05c.13,0,.26.17.22.3A.37.37,0,0,1,19.55,13.61Z" transform="translate(-0.06 -0.27)" style="fill:#5180c1"/><path d="M19.68,13.65h-.13c-.13,0-.26-.17-.21-.3s.17-.27.3-.22h.09a.34.34,0,0,1,.22.35A.31.31,0,0,1,19.68,13.65Z" transform="translate(-0.06 -0.27)" style="fill:#5180c1"/><path d="M19.82,13.65h-.18a.32.32,0,0,1-.22-.3.33.33,0,0,1,.31-.22s.09,0,.09,0a.28.28,0,0,1,.17.35C20.08,13.61,20,13.65,19.82,13.65Z" transform="translate(-0.06 -0.27)" style="fill:#5180c1"/><path d="M20.21,13.78h-.09s0,0-.09,0h-.21a.35.35,0,0,1-.22-.35.34.34,0,0,1,.35-.22s0,0,.08,0h.18s.09,0,.09,0a.29.29,0,0,1,.17.35A.3.3,0,0,1,20.21,13.78Z" transform="translate(-0.06 -0.27)" style="fill:#5180c1"/><path d="M20.34,13.83h-.09c0-.05,0-.05-.08-.05a.29.29,0,0,1-.18-.35.29.29,0,0,1,.35-.17s.09,0,.13,0a.31.31,0,0,1,.18.35A.46.46,0,0,1,20.34,13.83Z" transform="translate(-0.06 -0.27)" style="fill:#5180c1"/><path d="M20.6,13.91h-.08s-.05,0-.05,0h0c-.05,0-.05,0-.09,0a.29.29,0,0,1-.17-.35.3.3,0,0,1,.35-.18s.08,0,.08,0,0,0,.09,0a.16.16,0,0,1,.09,0,.24.24,0,0,1,.13.35A.56.56,0,0,1,20.6,13.91Z" transform="translate(-0.06 -0.27)" style="fill:#5180c1"/><path d="M20.73,14s-.08,0-.08-.05h0s0,0-.09,0a.26.26,0,1,1,.22-.48s0,0,.08,0h0a.25.25,0,0,1,.14.35A.29.29,0,0,1,20.73,14Z" transform="translate(-0.06 -0.27)" style="fill:#5180c1"/><path d="M20.82,14a.17.17,0,0,1-.13,0,.19.19,0,0,1-.09,0,.26.26,0,0,1,.22-.48s.09,0,.13,0a.29.29,0,0,1,.13.35A.28.28,0,0,1,20.82,14Z" transform="translate(-0.06 -0.27)" style="fill:#5180c1"/><path d="M21,14.09a.15.15,0,0,1-.13-.05s0,0-.09,0-.17-.22-.13-.35a.28.28,0,0,1,.35-.13.14.14,0,0,1,.09,0,.3.3,0,0,1,.13.35C21.17,14,21,14.09,21,14.09Z" transform="translate(-0.06 -0.27)" style="fill:#5180c1"/><path d="M21.08,14.13a.18.18,0,0,1-.13,0s0-.05-.09-.05a.29.29,0,0,1-.13-.35.3.3,0,0,1,.35-.13c.05,0,.09,0,.13,0a.23.23,0,0,1,.09.35A.22.22,0,0,1,21.08,14.13Z" transform="translate(-0.06 -0.27)" style="fill:#5180c1"/><path d="M21.17,14.22a.17.17,0,0,1-.13,0s0,0-.09,0a.26.26,0,0,1,.22-.48s0,0,.09,0a.3.3,0,0,1,.09.4C21.39,14.18,21.3,14.22,21.17,14.22Z" transform="translate(-0.06 -0.27)" style="fill:#5180c1"/><path d="M22.44,15.18a.28.28,0,0,1-.26-.26v-10a.26.26,0,0,1,.52,0v10A.28.28,0,0,1,22.44,15.18Z" transform="translate(-0.06 -0.27)" style="fill:#5180c1"/><path d="M22.44,5.21H.32A.28.28,0,0,1,.06,5V.54A.29.29,0,0,1,.32.27H22.4a.29.29,0,0,1,.26.27V5A.22.22,0,0,1,22.44,5.21ZM.62,4.65H22.18V.8H.62Z" transform="translate(-0.06 -0.27)" style="fill:#5180c1"/><path d="M13.3,20.34H.32a.28.28,0,0,1-.26-.26V17.63a.28.28,0,0,1,.26-.26H13.17a.34.34,0,0,1,.22.08.19.19,0,0,1,0,.22v.53a.29.29,0,0,1-.3.26.29.29,0,0,1-.26-.31V18H.62v1.88H13a.17.17,0,0,0,0-.13c0-.05,0-.13,0-.18v-.08c0-.09,0-.14,0-.18V19.2a.29.29,0,0,1,.57,0v.31a.27.27,0,0,0,0,.17c.05.13.05.31.09.44a.21.21,0,0,1,0,.22A.51.51,0,0,1,13.3,20.34Z" transform="translate(-0.06 -0.27)" style="fill:#5180c1"/><path d="M13.13,18.5h0c-.18,0-.26-.13-.26-.3v-.13a.28.28,0,1,1,.56,0v.09A.36.36,0,0,1,13.13,18.5Z" transform="translate(-0.06 -0.27)" style="fill:#5180c1"/><path d="M13.13,18.63h0c-.18,0-.26-.13-.26-.3V18.2a.28.28,0,0,1,.56,0v.09A.36.36,0,0,1,13.13,18.63Z" transform="translate(-0.06 -0.27)" style="fill:#5180c1"/><path d="M13.08,18.77h0a.26.26,0,0,1-.26-.27v-.13a.29.29,0,1,1,.57.05v.13A.31.31,0,0,1,13.08,18.77Z" transform="translate(-0.06 -0.27)" style="fill:#5180c1"/><path d="M13.13,19.12a.29.29,0,0,1-.26-.27v-.17a.26.26,0,0,1,.52,0v0h0v.09a.3.3,0,0,1-.26.31Z" transform="translate(-0.06 -0.27)" style="fill:#5180c1"/><path d="M12.87,19h0V18.9a.38.38,0,0,1,.26-.31.36.36,0,0,1,.3.26v.09l-.26,0Z" transform="translate(-0.06 -0.27)" style="fill:#5180c1"/><path d="M8.19,9.1h-2A.28.28,0,0,1,6,8.84v-2a.28.28,0,0,1,.26-.27h2a.28.28,0,0,1,.26.27v2A.25.25,0,0,1,8.19,9.1ZM6.48,8.54h1.4V7.14H6.48Z" transform="translate(-0.06 -0.27)" style="fill:#5180c1"/><path d="M18.5,24.27A5.71,5.71,0,0,1,13,20.16c0-.17-.09-.3-.13-.48s0-.13,0-.17v-.09c0-.09,0-.13,0-.17v-.88h0v-.78A5.68,5.68,0,0,1,18.42,13h.52a.47.47,0,0,1,.26.05h.48c.05,0,.05,0,.09,0h.05s0,0,.08,0h.18s.09,0,.09.05h0a.19.19,0,0,1,.09,0h0s0,0,.08,0a0,0,0,0,1,.05,0h.13s0,0,.09,0h0s.08,0,.08,0h.05a.14.14,0,0,1,.08,0h0a.14.14,0,0,1,.09,0H21s0,.05.08.05a6,6,0,0,1,1.32,1,5.63,5.63,0,0,1,1.53,3.89A5.37,5.37,0,0,1,18.5,24.27Zm-5.11-5.9h0v.4h0v.08h0v0h0V19h0v.09h0v.22h0v.09h0a.27.27,0,0,0,0,.17,3.76,3.76,0,0,1,.09.44,5.13,5.13,0,0,0,10.06-1.4,5.06,5.06,0,0,0-1.4-3.5A6.18,6.18,0,0,0,21,14.18c-.05,0-.05,0-.09,0l-.05,0s-.08-.05-.08-.05h0c-.05,0-.05,0-.09,0h0a.19.19,0,0,1-.09,0h0s0-.05-.08-.05h-.14s0,0-.08,0h0c-.09-.09-.09-.09-.13-.09h0c-.05,0-.05,0-.09,0h-.66a.32.32,0,0,1-.22-.05h-.48a5.06,5.06,0,0,0-5,4.16v.39h0v.09h0v.09h0C13.39,18.28,13.39,18.33,13.39,18.37Z" transform="translate(-0.06 -0.27)" style="fill:#5180c1"/><path d="M17,20.34a.3.3,0,0,1-.22-.09l-1.49-2a.28.28,0,0,1,0-.39.26.26,0,0,1,.39.05l1.31,1.74,4.2-2.79a.28.28,0,0,1,.39.08.28.28,0,0,1-.09.4L17.15,20.3S17.06,20.34,17,20.34Z" transform="translate(-0.06 -0.27)" style="fill:#5180c1"/><path d="M12.12,9.1h-2a.28.28,0,0,1-.26-.26v-2a.28.28,0,0,1,.26-.27h2a.28.28,0,0,1,.26.27v2A.28.28,0,0,1,12.12,9.1Zm-1.7-.56h1.4V7.14h-1.4Z" transform="translate(-0.06 -0.27)" style="fill:#5180c1"/><path d="M16.06,9.1h-2a.28.28,0,0,1-.26-.26v-2a.28.28,0,0,1,.26-.27h2a.28.28,0,0,1,.26.27v2A.28.28,0,0,1,16.06,9.1Zm-1.71-.56h1.4V7.14h-1.4Z" transform="translate(-0.06 -0.27)" style="fill:#5180c1"/><path d="M20,9.1H18a.28.28,0,0,1-.26-.26v-2A.28.28,0,0,1,18,6.61h2a.28.28,0,0,1,.26.27v2A.28.28,0,0,1,20,9.1Zm-1.7-.56h1.39V7.14H18.29Z" transform="translate(-0.06 -0.27)" style="fill:#5180c1"/><path d="M4.78,13h-2a.29.29,0,0,1-.26-.27v-2a.28.28,0,0,1,.26-.27h2a.28.28,0,0,1,.26.27v2A.25.25,0,0,1,4.78,13Zm-1.71-.53h1.4v-1.4H3.07Z" transform="translate(-0.06 -0.27)" style="fill:#5180c1"/><path d="M8.67,13h-2a.29.29,0,0,1-.26-.27v-2a.28.28,0,0,1,.26-.27h2a.28.28,0,0,1,.26.27v2C9,12.91,8.84,13,8.67,13ZM7,12.47h1.4v-1.4H7Z" transform="translate(-0.06 -0.27)" style="fill:#5180c1"/><path d="M12.6,13h-2a.29.29,0,0,1-.27-.27v-2a.28.28,0,0,1,.27-.27h2a.29.29,0,0,1,.27.27v2A.24.24,0,0,1,12.6,13Zm-1.66-.53h1.4v-1.4h-1.4v1.4Z" transform="translate(-0.06 -0.27)" style="fill:#5180c1"/><path d="M16.54,2.94H.32a.28.28,0,0,1-.26-.26.28.28,0,0,1,.26-.26H16.54a.28.28,0,0,1,.26.26A.25.25,0,0,1,16.54,2.94Z" transform="translate(-0.06 -0.27)" style="fill:#5180c1"/></g></svg>