<svg id="Layer_1" data-name="Layer 1" xmlns="http://www.w3.org/2000/svg" viewBox="0 0 24 23.81"><g id="F539_Bridge_construction_creative_grid_highway" data-name="F539, Bridge, construction, creative, grid, highway"><polygon points="12 11.43 17.97 11.43 18.53 23.33 5.51 23.33 6.03 11.43 12 11.43" style="fill:#a1c6e9"/><polygon points="17.97 11.43 12 11.43 6.03 11.43 6.11 9.44 17.89 9.44 17.97 11.43" style="fill:#fff"/><polygon points="17.53 0.52 17.89 9.44 6.11 9.44 6.51 0.52 17.53 0.52" style="fill:#a1c6e9"/><path d="M18.53,24h-13a.43.43,0,0,1-.36-.16A.38.38,0,0,1,5,23.46l.6-13.89L6,.64A.48.48,0,0,1,6.51.17h11A.46.46,0,0,1,18,.64l.48,10.91L19,23.42v0A.52.52,0,0,1,18.53,24ZM6,23H18l-.6-13.37-.36-8.45H7L6.51,11.59Z" transform="translate(0 -0.17)" style="fill:#2c80c3"/><path d="M12,5.44a.52.52,0,0,1-.52-.51V3.14a.52.52,0,0,1,1,0V4.93A.52.52,0,0,1,12,5.44Z" transform="translate(0 -0.17)" style="fill:#2c80c3"/><path d="M12,9.45a.53.53,0,0,1-.52-.51V7.15a.52.52,0,1,1,1,0V8.94A.53.53,0,0,1,12,9.45Z" transform="translate(0 -0.17)" style="fill:#2c80c3"/><path d="M12,13.46a.53.53,0,0,1-.52-.52V11.55a.52.52,0,0,1,1,0v1.39A.53.53,0,0,1,12,13.46Z" transform="translate(0 -0.17)" style="fill:#2c80c3"/><path d="M12,17.47a.53.53,0,0,1-.52-.52V15.16a.52.52,0,0,1,1,0V17A.5.5,0,0,1,12,17.47Z" transform="translate(0 -0.17)" style="fill:#2c80c3"/><path d="M12,21.51a.53.53,0,0,1-.52-.51V19.21a.52.52,0,0,1,1,0V21A.53.53,0,0,1,12,21.51Z" transform="translate(0 -0.17)" style="fill:#2c80c3"/><path d="M21,10.09H3a.52.52,0,1,1,0-1H21a.52.52,0,1,1,0,1Z" transform="translate(0 -0.17)" style="fill:#2c80c3"/><path d="M21,12.07H3a.52.52,0,1,1,0-1H21a.52.52,0,1,1,0,1Z" transform="translate(0 -0.17)" style="fill:#2c80c3"/><path d="M.5,15.56a.56.56,0,0,1-.4-.2.54.54,0,0,1,.08-.71l4.53-3.49a.56.56,0,0,1,.72.08.54.54,0,0,1-.08.71L.78,15.44A.43.43,0,0,1,.5,15.56Z" transform="translate(0 -0.17)" style="fill:#2c80c3"/><path d="M23.5,15.56a.53.53,0,0,1-.32-.12L18.65,12a.53.53,0,0,1-.08-.71.55.55,0,0,1,.72-.08l4.53,3.49a.53.53,0,0,1,.08.71A.49.49,0,0,1,23.5,15.56Z" transform="translate(0 -0.17)" style="fill:#2c80c3"/></g></svg>