<svg id="Layer_1" data-name="Layer 1" xmlns="http://www.w3.org/2000/svg" viewBox="0 0 24 17.79"><g id="F533_military_vehicle_van" data-name="F533, military, vehicle, van"><path d="M23.48,9.11v4H8.57L6,11.09H.56V8.64c0-.24.24-.4.56-.4H9l1.52,2.45h3l3.51-2H23C23.2,8.72,23.48,8.88,23.48,9.11Z" transform="translate(0 -3.25)" style="fill:#a1c6e9"/><path d="M23.48,13.1v3.12c0,.23-.24.39-.56.39H21.33a3,3,0,0,0-5.66,0H8.33a3,3,0,0,0-2.83-2,3,3,0,0,0-2.83,2H1.08c-.32,0-.56-.2-.56-.39V11.09H6l2.55,2Z" transform="translate(0 -3.25)" style="fill:#a1c6e9"/><path d="M6.62,16.61a1.47,1.47,0,0,1,.4,1A1.51,1.51,0,0,1,5.5,19.1a1.5,1.5,0,0,1,0-3A1.37,1.37,0,0,1,6.62,16.61Z" transform="translate(0 -3.25)" style="fill:#fff"/><path d="M18.5,19.06A1.51,1.51,0,0,1,17,17.56a1.47,1.47,0,0,1,.4-1,1.51,1.51,0,0,1,1.12-.51A1.55,1.55,0,0,1,20,17.56,1.55,1.55,0,0,1,18.5,19.06Z" transform="translate(0 -3.25)" style="fill:#fff"/><path d="M18.5,19.06A1.5,1.5,0,0,0,20,17.56a1.52,1.52,0,0,0-3,0A1.5,1.5,0,0,0,18.5,19.06Zm0-4.42a3,3,0,0,1,2.83,2,2.71,2.71,0,0,1,.16,1,3,3,0,0,1-6,0,3.94,3.94,0,0,1,.16-1A2.93,2.93,0,0,1,18.5,14.64Z" transform="translate(0 -3.25)" style="fill:#fff"/><path d="M7,17.6a1.47,1.47,0,0,0-.4-1A1.51,1.51,0,0,0,5.5,16.1,1.55,1.55,0,0,0,4,17.6,1.5,1.5,0,0,0,5.5,19.1,1.54,1.54,0,0,0,7,17.6Zm1.31-1a2.71,2.71,0,0,1,.16,1,3,3,0,0,1-6,0,3.94,3.94,0,0,1,.16-1,3,3,0,0,1,2.83-2A2.93,2.93,0,0,1,8.33,16.61Z" transform="translate(0 -3.25)" style="fill:#fff"/><path d="M9.09,8.72a.3.3,0,0,1-.16,0,.49.49,0,0,1-.32-.63L10,3.59a.5.5,0,0,1,1,.31L9.57,8.36A.47.47,0,0,1,9.09,8.72Z" transform="translate(0 -3.25)" style="fill:#2c80c3"/><path d="M10.6,10.14a.55.55,0,0,1-.39-.2.5.5,0,0,1,.08-.71L12.4,7.49a.53.53,0,0,1,.72.08.5.5,0,0,1-.08.71L10.92,10A.53.53,0,0,1,10.6,10.14Z" transform="translate(0 -3.25)" style="fill:#2c80c3"/><path d="M13.4,9.43a.44.44,0,0,1-.4-.24L11.6,7.1a.48.48,0,0,1,.12-.67.49.49,0,0,1,.68.12l1.39,2.09a.48.48,0,0,1-.12.67A.36.36,0,0,1,13.4,9.43Z" transform="translate(0 -3.25)" style="fill:#2c80c3"/><path d="M19.49,9.19A.53.53,0,0,1,19,8.68V6.78a2.12,2.12,0,0,0-.92.52,2,2,0,0,0-.6,1.38.53.53,0,0,1-.52.51.52.52,0,0,1-.51-.51,2.92,2.92,0,0,1,.87-2.09,3,3,0,0,1,2.12-.87.52.52,0,0,1,.51.51V8.72A.45.45,0,0,1,19.49,9.19Z" transform="translate(0 -3.25)" style="fill:#2c80c3"/><path d="M23.48,13.57a.52.52,0,0,1-.52-.51V9.19H17.1l-3.39,1.9a.55.55,0,0,1-.23.07h-3a.54.54,0,0,1-.44-.23L8.69,8.72H1v2.33a.53.53,0,0,1-.52.51A.53.53,0,0,1,0,11.05V8.6a1,1,0,0,1,1.08-.91H9a.55.55,0,0,1,.44.24l1.35,2.21h2.6l3.38-1.9A.57.57,0,0,1,17,8.16h5.9A1,1,0,0,1,24,9.07v4A.55.55,0,0,1,23.48,13.57Z" transform="translate(0 -3.25)" style="fill:#2c80c3"/><path d="M22.88,17.09H21.29a.52.52,0,1,1,0-1H23V13.53H8.57a.45.45,0,0,1-.32-.12L5.86,11.52H1v4.54H2.71a.52.52,0,1,1,0,1H1.12A1,1,0,0,1,0,16.18V11.05a.53.53,0,0,1,.52-.52H6a.45.45,0,0,1,.32.12l2.39,1.9H23.44a.52.52,0,0,1,.52.51v3.12A1,1,0,0,1,22.88,17.09Z" transform="translate(0 -3.25)" style="fill:#2c80c3"/><path d="M15.67,17.09H8.33a.52.52,0,1,1,0-1h7.34a.52.52,0,1,1,0,1Z" transform="translate(0 -3.25)" style="fill:#2c80c3"/><path d="M5.54,21A3.5,3.5,0,0,1,2,17.56a3.65,3.65,0,0,1,.2-1.15,3.45,3.45,0,0,1,3.31-2.28,3.39,3.39,0,0,1,3.27,2.28A3.65,3.65,0,0,1,9,17.56,3.46,3.46,0,0,1,5.54,21Zm0-5.92a2.53,2.53,0,0,0-2.35,1.66A3,3,0,0,0,3,17.6a2.52,2.52,0,0,0,2.51,2.49A2.49,2.49,0,0,0,8.05,17.6a2,2,0,0,0-.16-.83A2.52,2.52,0,0,0,5.54,15.11Z" transform="translate(0 -3.25)" style="fill:#2c80c3"/><path d="M5.54,19.57A1.95,1.95,0,0,1,4.07,16.3a1.89,1.89,0,0,1,1.47-.67A1.91,1.91,0,0,1,7,16.3a2,2,0,0,1,.51,1.3A2,2,0,0,1,5.54,19.57Zm0-3a1.09,1.09,0,0,0-.76.32,1.06,1.06,0,0,0-.24.67,1,1,0,0,0,2,0,1.06,1.06,0,0,0-.24-.67A1.17,1.17,0,0,0,5.54,16.61Z" transform="translate(0 -3.25)" style="fill:#2c80c3"/><path d="M18.5,21A3.49,3.49,0,0,1,15,17.56a3.65,3.65,0,0,1,.2-1.15,3.51,3.51,0,0,1,6.58,0,3.65,3.65,0,0,1,.2,1.15A3.47,3.47,0,0,1,18.5,21Zm0-5.92a2.52,2.52,0,0,0-2.35,1.66,3,3,0,0,0-.16.83,2.51,2.51,0,0,0,5,0,2,2,0,0,0-.16-.83A2.53,2.53,0,0,0,18.5,15.11Z" transform="translate(0 -3.25)" style="fill:#2c80c3"/><path d="M18.5,19.57A2,2,0,0,1,17,16.3a1.91,1.91,0,0,1,1.48-.67A1.89,1.89,0,0,1,20,16.3a2,2,0,0,1,.52,1.3A2,2,0,0,1,18.5,19.57Zm0-3a1.09,1.09,0,0,0-.76.32,1.06,1.06,0,0,0-.24.67,1,1,0,0,0,2,0,1,1,0,0,0-.23-.67A1.17,1.17,0,0,0,18.5,16.61Z" transform="translate(0 -3.25)" style="fill:#2c80c3"/><path d="M23.48,21H.56a.51.51,0,1,1,0-1H23.48a.52.52,0,0,1,.52.51A.58.58,0,0,1,23.48,21Z" transform="translate(0 -3.25)" style="fill:#2c80c3"/></g></svg>