<svg id="Layer_1" data-name="Layer 1" xmlns="http://www.w3.org/2000/svg" viewBox="0 0 23.38 24"><g id="_752_Accounting_finance_management_money" data-name="752, Accounting, finance, management, money"><path d="M16.57,6.87h0a5.89,5.89,0,0,0-2.71-.69,6.39,6.39,0,0,0-2.26.39,1.65,1.65,0,0,0-.39.17c-2.14,1-3.67,3.45-4.62,5.84h.78A1.12,1.12,0,0,1,8.5,13.72v8.41a8.65,8.65,0,0,0,2.75,1,12.67,12.67,0,0,0,2.66.31c4.66,0,8.45-2.62,8.45-5.89C22.27,15.28,20.4,9,16.57,6.87Z" transform="translate(-0.31 0)" style="fill:#fff"/><path d="M7.33,12.58H2A1.13,1.13,0,0,0,.83,13.72v8.67A1.12,1.12,0,0,0,2,23.52h5.4A1.12,1.12,0,0,0,8.5,22.39V13.67A1.15,1.15,0,0,0,7.33,12.58Z" transform="translate(-0.31 0)" style="fill:#acc5e7"/><circle cx="6.54" cy="2.21" r="1.09" style="fill:#fff"/><path d="M1.66,7.09a.83.83,0,1,1-.83.83A.83.83,0,0,1,1.66,7.09Z" transform="translate(-0.31 0)" style="fill:#fff"/><path d="M14,11.45a3.84,3.84,0,1,1-3.83,3.83A3.84,3.84,0,0,1,14,11.45Z" transform="translate(-0.31 0)" style="fill:#acc5e7"/><path d="M18,1.51,16.57,6.87a5.89,5.89,0,0,0-2.71-.69,6.39,6.39,0,0,0-2.26.39L10.25.6S12.82,3,14.74,2A4.53,4.53,0,0,1,18,1.51Z" transform="translate(-0.31 0)" style="fill:#acc5e7"/><rect x="2.18" y="14.76" width="4.36" height="1.66" style="fill:#fff"/><path d="M22.1,1.12a.58.58,0,0,1,.57.57.57.57,0,0,1-1.14,0A.58.58,0,0,1,22.1,1.12Z" transform="translate(-0.31 0)" style="fill:#5180c1"/><path d="M22.1,8.75a.57.57,0,1,1-.57.56A.57.57,0,0,1,22.1,8.75Z" transform="translate(-0.31 0)" style="fill:#5180c1"/><path d="M22.1,22.34a.57.57,0,1,1-.57.57A.58.58,0,0,1,22.1,22.34Z" transform="translate(-0.31 0)" style="fill:#5180c1"/><rect x="5.45" y="20.73" width="1.09" height="1.09" style="fill:#5180c1"/><rect x="5.45" y="19.12" width="1.09" height="1.09" style="fill:#5180c1"/><rect x="5.45" y="17.46" width="1.09" height="1.09" style="fill:#5180c1"/><rect x="3.79" y="20.73" width="1.09" height="1.09" style="fill:#5180c1"/><rect x="3.79" y="19.12" width="1.09" height="1.09" style="fill:#5180c1"/><rect x="3.79" y="17.46" width="1.09" height="1.09" style="fill:#5180c1"/><path d="M4.67,9.27a.57.57,0,1,1-.57.57A.57.57,0,0,1,4.67,9.27Z" transform="translate(-0.31 0)" style="fill:#5180c1"/><path d="M4.1,4.39A.57.57,0,1,1,3.54,5,.56.56,0,0,1,4.1,4.39Z" transform="translate(-0.31 0)" style="fill:#5180c1"/><rect x="2.18" y="20.73" width="1.09" height="1.09" style="fill:#5180c1"/><rect x="2.18" y="19.12" width="1.09" height="1.09" style="fill:#5180c1"/><rect x="2.18" y="17.46" width="1.09" height="1.09" style="fill:#5180c1"/><path d="M2.49,0A.58.58,0,0,1,3.06.6.57.57,0,0,1,1.92.6.58.58,0,0,1,2.49,0Z" transform="translate(-0.31 0)" style="fill:#5180c1"/><path d="M16.57,7.4h-.14A.55.55,0,0,1,16,6.74L17.31,2A5,5,0,0,0,15,2.52c-1.3.65-2.83,0-3.88-.61l1,4.53a.55.55,0,0,1-.39.65.55.55,0,0,1-.66-.39L9.68.69A.59.59,0,0,1,9.94.08a.54.54,0,0,1,.66.08c.65.57,2.57,2,3.87,1.35A5.61,5.61,0,0,1,18.13,1a.53.53,0,0,1,.35.65L17.09,7A.55.55,0,0,1,16.57,7.4Z" transform="translate(-0.31 0)" style="fill:#5180c1"/><path d="M18.18,7.48c-1,0-1.66-.08-1.7-.08A.55.55,0,0,1,16,6.79a.53.53,0,0,1,.61-.48c1.31.13,5,.22,6.1-1.18a.56.56,0,1,1,.87.7c-.74.91-2.18,1.48-4.23,1.61A11.43,11.43,0,0,1,18.18,7.48Z" transform="translate(-0.31 0)" style="fill:#5180c1"/><path d="M16.57,7.4A.57.57,0,0,1,16,7.05a.5.5,0,0,1,.31-.7,8.84,8.84,0,0,0,3.7-3.57.55.55,0,0,1,1,.52,10.22,10.22,0,0,1-4.27,4.05C16.7,7.4,16.61,7.4,16.57,7.4Z" transform="translate(-0.31 0)" style="fill:#5180c1"/><path d="M14,19.64a4.36,4.36,0,1,1,4.36-4.36A4.37,4.37,0,0,1,14,19.64ZM14,12a3.27,3.27,0,1,0,3.27,3.26A3.29,3.29,0,0,0,14,12Z" transform="translate(-0.31 0)" style="fill:#5180c1"/><path d="M13.82,24A11.82,11.82,0,0,1,11,23.69a12.27,12.27,0,0,1-2.87-1.08.56.56,0,0,1-.22-.75.56.56,0,0,1,.74-.21,9.76,9.76,0,0,0,2.57,1,12.41,12.41,0,0,0,2.53.26,10.09,10.09,0,0,0,5.66-1.61,4.58,4.58,0,0,0,2.22-3.71,15.14,15.14,0,0,0-1.35-5.18,10.62,10.62,0,0,0-4-5h0a4.94,4.94,0,0,0-2.44-.66,6.49,6.49,0,0,0-2.05.35l-.39.13c-2.27,1-3.7,3.92-4.36,5.54a.54.54,0,0,1-1-.4c.87-2.17,2.4-5,4.92-6.14.13,0,.31-.13.44-.17a6.59,6.59,0,0,1,2.44-.44,5.9,5.9,0,0,1,3,.78h0a11.93,11.93,0,0,1,4.53,5.54,16,16,0,0,1,1.48,5.62,5.72,5.72,0,0,1-2.7,4.62A11.1,11.1,0,0,1,13.82,24Z" transform="translate(-0.31 0)" style="fill:#5180c1"/><path d="M14,21.82a10.71,10.71,0,0,1-2.09-.22.54.54,0,0,1,.26-1,8.87,8.87,0,0,0,1.88.22,7.47,7.47,0,0,0,4.14-1.18,3.32,3.32,0,0,0,1.61-2.66.57.57,0,1,1,1.13,0,4.43,4.43,0,0,1-2.09,3.57A9.31,9.31,0,0,1,14,21.82Z" transform="translate(-0.31 0)" style="fill:#5180c1"/><path d="M6.85,16.94H2.49a.58.58,0,0,1-.57-.57V14.72a.58.58,0,0,1,.57-.57H6.85a.57.57,0,0,1,.56.57v1.65A.64.64,0,0,1,6.85,16.94ZM3,15.85H6.28v-.57H3Z" transform="translate(-0.31 0)" style="fill:#5180c1"/><path d="M7.33,24H2A1.66,1.66,0,0,1,.31,22.34V13.67A1.65,1.65,0,0,1,2,12h5.4A1.65,1.65,0,0,1,9,13.67v8.67A1.7,1.7,0,0,1,7.33,24ZM2,13.11a.57.57,0,0,0-.57.56v8.67a.58.58,0,0,0,.57.57h5.4a.58.58,0,0,0,.57-.57V13.67a.57.57,0,0,0-.57-.56Z" transform="translate(-0.31 0)" style="fill:#5180c1"/><path d="M1.66,9.31A1.35,1.35,0,1,1,3,8,1.36,1.36,0,0,1,1.66,9.31Zm0-1.65a.26.26,0,0,0,0,.52.26.26,0,1,0,0-.52Z" transform="translate(-0.31 0)" style="fill:#5180c1"/><path d="M6.85,3.87A1.66,1.66,0,1,1,8.5,2.21,1.68,1.68,0,0,1,6.85,3.87Zm0-2.18a.57.57,0,1,0,.56.56A.6.6,0,0,0,6.85,1.69Z" transform="translate(-0.31 0)" style="fill:#5180c1"/><text transform="translate(11.44 16.37)" style="font-size:4px;fill:#fff;font-family:FiraSans-SemiBoldItalic, Fira Sans;font-weight:600;font-style:italic">Rp</text></g></svg>