<svg id="Layer_1" data-name="Layer 1" xmlns="http://www.w3.org/2000/svg" viewBox="0 0 23.96 24"><g id="F577_Car_delete_less_minus_vehicles" data-name="F577, Car, delete, less, minus, vehicles"><path d="M4,15.05a1.48,1.48,0,1,1-1.47,1.48A1.48,1.48,0,0,1,4,15.05Z" transform="translate(-0.02)" style="fill:#fff"/><path d="M20,15.05a1.48,1.48,0,1,1-1.48,1.48A1.48,1.48,0,0,1,20,15.05Z" transform="translate(-0.02)" style="fill:#fff"/><path d="M12,.56h5.11A1.93,1.93,0,0,1,19,1.88l.4,1.23a3.51,3.51,0,0,0,.68,7,3.37,3.37,0,0,0,1.43-.32l1,3.32h-21L5.09,1.92A1.9,1.9,0,0,1,6.93.6H12Z" transform="translate(-0.02)" style="fill:#fff"/><path d="M6,20v1.75a1.76,1.76,0,1,1-3.51,0V20Z" transform="translate(-0.02)" style="fill:#fff"/><path d="M21.5,20v1.75a1.76,1.76,0,1,1-3.51,0V20Z" transform="translate(-0.02)" style="fill:#fff"/><rect x="7.99" y="17.01" width="7.99" height="3" style="fill:#a1c6e9"/><path d="M23.5,13v7H16V17H8v3H.5V13h23Zm-2,3.51A1.52,1.52,0,1,0,20,18.05,1.56,1.56,0,0,0,21.5,16.53Zm-16,0A1.52,1.52,0,1,0,4,18.05,1.55,1.55,0,0,0,5.53,16.53Z" transform="translate(-0.02)" style="fill:#a1c6e9"/><path d="M20,10a3.52,3.52,0,0,1-3.52-3.51,3.48,3.48,0,0,1,2.84-3.44A3.55,3.55,0,0,1,20,3a3.49,3.49,0,0,1,1.47,6.66A3.16,3.16,0,0,1,20,10Z" transform="translate(-0.02)" style="fill:#fff"/><path d="M2.54,20.53h-2A.53.53,0,0,1,0,20V13a.53.53,0,0,1,.52-.52h1a.52.52,0,1,1,0,1H1v6H2.54a.53.53,0,0,1,.52.52A.6.6,0,0,1,2.54,20.53Z" transform="translate(-0.02)" style="fill:#2c80c3"/><path d="M8,20.53H6a.52.52,0,0,1,0-1H8a.52.52,0,0,1,0,1Z" transform="translate(-0.02)" style="fill:#2c80c3"/><path d="M18,20.53H16a.52.52,0,0,1,0-1h2a.52.52,0,0,1,0,1Z" transform="translate(-0.02)" style="fill:#2c80c3"/><path d="M23.5,20.53h-2a.52.52,0,0,1,0-1H23v-6h-.52a.52.52,0,0,1,0-1h1A.53.53,0,0,1,24,13v7A.53.53,0,0,1,23.5,20.53Z" transform="translate(-0.02)" style="fill:#2c80c3"/><path d="M4.25,24A2.23,2.23,0,0,1,2,21.76V20a.53.53,0,0,1,.52-.52H6.05a.53.53,0,0,1,.52.52v1.75A2.33,2.33,0,0,1,4.25,24ZM3,20.53v1.23a1.24,1.24,0,1,0,2.48,0V20.53Z" transform="translate(-0.02)" style="fill:#2c80c3"/><path d="M19.75,24a2.24,2.24,0,0,1-2.24-2.24V20a.53.53,0,0,1,.52-.52h3.51a.53.53,0,0,1,.52.52v1.75A2.35,2.35,0,0,1,19.75,24Zm-1.24-3.47v1.23a1.24,1.24,0,1,0,2.48,0V20.53Z" transform="translate(-0.02)" style="fill:#2c80c3"/><path d="M4,18.53a2,2,0,1,1,2-2A2,2,0,0,1,4,18.53Zm0-3a1,1,0,1,0,1,1A1,1,0,0,0,4,15.53Z" transform="translate(-0.02)" style="fill:#2c80c3"/><path d="M20,18.53a2,2,0,1,1,2-2A2,2,0,0,1,20,18.53Zm0-3a1,1,0,1,0,1,1A1,1,0,0,0,20,15.53Z" transform="translate(-0.02)" style="fill:#2c80c3"/><path d="M16,20.53H8A.53.53,0,0,1,7.49,20V17A.53.53,0,0,1,8,16.49h8a.53.53,0,0,1,.52.52v3A.53.53,0,0,1,16,20.53Zm-7.46-1h7v-2h-7Z" transform="translate(-0.02)" style="fill:#2c80c3"/><path d="M12,5a.53.53,0,0,1-.52-.52v-4a.52.52,0,1,1,1,0v4A.53.53,0,0,1,12,5Z" transform="translate(-0.02)" style="fill:#2c80c3"/><path d="M14,5H10a.52.52,0,0,1,0-1h4a.52.52,0,0,1,0,1Z" transform="translate(-0.02)" style="fill:#2c80c3"/><path d="M22.5,13.54h-21a.49.49,0,0,1-.4-.2.56.56,0,0,1-.08-.44L4.61,1.72A2.41,2.41,0,0,1,6.93,0H17.11a2.45,2.45,0,0,1,2.32,1.68L19.83,3a.52.52,0,0,1-.32.63.52.52,0,0,1-.64-.32L18.47,2a1.45,1.45,0,0,0-1.36-1H6.89A1.45,1.45,0,0,0,5.53,2L2.22,12.54H21.78L21,9.9a.5.5,0,1,1,.95-.32l1,3.32a.44.44,0,0,1-.08.44A.48.48,0,0,1,22.5,13.54Z" transform="translate(-0.02)" style="fill:#2c80c3"/><path d="M20,10.54a4,4,0,0,1-.76-7.9A4.9,4.9,0,0,1,20,2.56a4,4,0,0,1,1.63,7.62A3.84,3.84,0,0,1,20,10.54Zm0-7a3,3,0,1,0,0,6,2.61,2.61,0,0,0,1.23-.28A3,3,0,0,0,23,6.55,3,3,0,0,0,20,3.55Z" transform="translate(-0.02)" style="fill:#2c80c3"/><path d="M21.5,7h-3a.52.52,0,0,1,0-1h3a.53.53,0,0,1,.52.52A.56.56,0,0,1,21.5,7Z" transform="translate(-0.02)" style="fill:#2c80c3"/></g></svg>