<svg id="Layer_1" data-name="Layer 1" xmlns="http://www.w3.org/2000/svg" xmlns:xlink="http://www.w3.org/1999/xlink" viewBox="0 0 85.47 50"><defs><linearGradient id="linear-gradient" x1="42.9" y1="-1.98" x2="54.96" y2="10.08" gradientUnits="userSpaceOnUse"><stop offset="0" stop-color="#71cfea"/><stop offset="1" stop-color="#467fc1"/></linearGradient><linearGradient id="linear-gradient-2" x1="31.45" y1="37.2" x2="37.8" y2="43.55" xlink:href="#linear-gradient"/><linearGradient id="linear-gradient-3" x1="63.03" y1="37.2" x2="69.38" y2="43.55" xlink:href="#linear-gradient"/><linearGradient id="linear-gradient-4" x1="64.54" y1="23.45" x2="70.75" y2="29.66" xlink:href="#linear-gradient"/></defs><rect x="39.53" y="1.39" width="18.8" height="5.32" style="fill:url(#linear-gradient)"/><circle cx="34.63" cy="40.37" r="4.49" style="fill:url(#linear-gradient-2)"/><circle cx="66.2" cy="40.37" r="4.49" style="fill:url(#linear-gradient-3)"/><path d="M-17.3-.22a1,1,0,0,1-1-1V-3.13A6.74,6.74,0,0,1-17.8-5.8,6.61,6.61,0,0,1-16.33-8a6.9,6.9,0,0,1,2.18-1.48A7,7,0,0,1-11.48-10H3.36a1,1,0,0,1,1,1.05,1,1,0,0,1-1,1H-11.48a4.71,4.71,0,0,0-1.86.37,4.74,4.74,0,0,0-1.51,1,4.76,4.76,0,0,0-1,1.52,4.9,4.9,0,0,0-.37,1.86v1.87A1,1,0,0,1-17.3-.22Z" transform="translate(30.74 13)" style="fill:#3650a3"/><path d="M47.88,37H-11.48a6.74,6.74,0,0,1-2.67-.54A6.87,6.87,0,0,1-16.33,35a6.71,6.71,0,0,1-1.47-2.18,6.81,6.81,0,0,1-.54-2.67V20.66a1,1,0,0,1,1-1,1,1,0,0,1,1.05,1v9.48A4.94,4.94,0,0,0-15.88,32a4.83,4.83,0,0,0,1,1.51,4.58,4.58,0,0,0,1.51,1,4.72,4.72,0,0,0,1.86.38H47.88a4.79,4.79,0,0,0,4.77-4.77V-3.13A4.72,4.72,0,0,0,52.27-5a4.73,4.73,0,0,0-1-1.52,4.9,4.9,0,0,0-1.52-1,4.7,4.7,0,0,0-1.85-.37H33a1,1,0,0,1-1.05-1A1,1,0,0,1,33-10H47.88a7,7,0,0,1,2.67.54A7.16,7.16,0,0,1,52.73-8,6.92,6.92,0,0,1,54.2-5.8a6.74,6.74,0,0,1,.54,2.67V30.14a6.84,6.84,0,0,1-2,4.85,7,7,0,0,1-2.18,1.47A6.81,6.81,0,0,1,47.88,37Z" transform="translate(30.74 13)" style="fill:#3650a3"/><path d="M28.49-4.9H7.9a1,1,0,0,1-1-1v-6A1,1,0,0,1,7.9-13H28.49a1,1,0,0,1,1.05,1.05v6A1,1,0,0,1,28.49-4.9ZM9-7h18.5v-3.92H9Z" transform="translate(30.74 13)" style="fill:#3650a3"/><path d="M-4.77,28.42H-8.61a1,1,0,0,1-1-1.05V19.24a1,1,0,0,1,1-1,1,1,0,0,1,1,1v7.09h2.79a1,1,0,0,1,1,1A1,1,0,0,1-4.77,28.42Z" transform="translate(30.74 13)" style="fill:#3650a3"/><path d="M27.44,6.11a1,1,0,0,1-1-1V3.72A3.29,3.29,0,0,0,23.11.44H-4.28A3.28,3.28,0,0,0-7.56,3.72V5a1,1,0,0,1-1,1H-29.69a1,1,0,0,1-1-1,1,1,0,0,1,1-1h20V3.72A5.38,5.38,0,0,1-4.28-1.65H23.11a5.38,5.38,0,0,1,5.38,5.37V5.07A1,1,0,0,1,27.44,6.11Z" transform="translate(30.74 13)" style="fill:#3650a3"/><path d="M45,28.42H39.58a1,1,0,1,1,0-2.09H44V18.16L36.81,8.43a5.72,5.72,0,0,0-4.58-2.32H28.49v12.5a1,1,0,0,1-1,1.05H.89a1,1,0,0,1,0-2.09H26.4V5.07a1,1,0,0,1,1-1.05h4.79a7.81,7.81,0,0,1,6.26,3.17l7.36,10a1,1,0,0,1,.2.62v9.55A1,1,0,0,1,45,28.42Z" transform="translate(30.74 13)" style="fill:#3650a3"/><path d="M20.31,24.21H17.08a1,1,0,1,1,0-2.09h3.23a1,1,0,1,1,0,2.09Z" transform="translate(30.74 13)" style="fill:#3650a3"/><path d="M26.55,28.42H8a1,1,0,1,1,0-2.09H26.55a1,1,0,1,1,0,2.09Z" transform="translate(30.74 13)" style="fill:#3650a3"/><path d="M35.47,32.53a5.16,5.16,0,1,1,5.15-5.16A5.17,5.17,0,0,1,35.47,32.53Zm0-8.22a3.07,3.07,0,1,0,3.06,3.06A3.07,3.07,0,0,0,35.47,24.31Z" transform="translate(30.74 13)" style="fill:#3650a3"/><path d="M3.89,32.53a5.16,5.16,0,1,1,5.16-5.16A5.17,5.17,0,0,1,3.89,32.53Zm0-8.22A3.07,3.07,0,1,0,7,27.37,3.06,3.06,0,0,0,3.89,24.31Z" transform="translate(30.74 13)" style="fill:#3650a3"/><path d="M43.62,17.17H32.88a1,1,0,0,1-1.05-1V9.29a1,1,0,0,1,1.05-1h5.85a1,1,0,0,1,.85.44l4.89,6.84a1,1,0,0,1-.85,1.65Zm-9.7-2.09h7.67L38.2,10.33H33.92Z" transform="translate(30.74 13)" style="fill:#3650a3"/><path d="M9.42,10.89H-13.4a1,1,0,0,1-1-1.05,1,1,0,0,1,1-1.05H9.42a1.05,1.05,0,0,1,0,2.1Z" transform="translate(30.74 13)" style="fill:#3650a3"/><path d="M9.42,15.71H-23.43a1,1,0,0,1-1.05-1,1,1,0,0,1,1.05-1.05H9.42a1,1,0,0,1,0,2.09Z" transform="translate(30.74 13)" style="fill:#3650a3"/><polygon points="64.66 28.08 72.33 28.08 68.93 23.33 64.66 23.33 64.66 28.08" style="fill:url(#linear-gradient-4)"/></svg>