<svg id="Layer_1" data-name="Layer 1" xmlns="http://www.w3.org/2000/svg" xmlns:xlink="http://www.w3.org/1999/xlink" viewBox="0 0 39.96 50"><defs><linearGradient id="linear-gradient" x1="0.1" y1="-3.48" x2="2.11" y2="-1.47" gradientUnits="userSpaceOnUse"><stop offset="0" stop-color="#71cfea"/><stop offset="1" stop-color="#467fc1"/></linearGradient><linearGradient id="linear-gradient-2" x1="6.46" y1="-10.23" x2="8.48" y2="-8.22" xlink:href="#linear-gradient"/><linearGradient id="linear-gradient-3" x1="12.82" y1="-1.64" x2="14.84" y2="0.38" xlink:href="#linear-gradient"/><linearGradient id="linear-gradient-4" x1="28.63" y1="4.76" x2="30.64" y2="6.77" xlink:href="#linear-gradient"/><linearGradient id="linear-gradient-5" x1="-6.24" y1="27.48" x2="-1.75" y2="31.97" xlink:href="#linear-gradient"/><linearGradient id="linear-gradient-6" x1="-909.14" y1="27.88" x2="-912.84" y2="31.57" gradientTransform="matrix(-1, 0, 0, 1, -885.22, 0)" xlink:href="#linear-gradient"/><linearGradient id="linear-gradient-7" x1="3.47" y1="11.67" x2="18.01" y2="26.22" xlink:href="#linear-gradient"/></defs><path d="M2.53-2.48A1.43,1.43,0,0,1,1.11-1,1.43,1.43,0,0,1-.32-2.48,1.43,1.43,0,0,1,1.11-3.9,1.43,1.43,0,0,1,2.53-2.48Z" transform="translate(9.1 11.56)" style="fill:url(#linear-gradient)"/><path d="M8.89-9.23A1.43,1.43,0,0,1,7.47-7.8,1.43,1.43,0,0,1,6-9.23a1.43,1.43,0,0,1,1.43-1.42A1.43,1.43,0,0,1,8.89-9.23Z" transform="translate(9.1 11.56)" style="fill:url(#linear-gradient-2)"/><path d="M15.25-.63A1.41,1.41,0,0,1,13.83.79,1.41,1.41,0,0,1,12.41-.63,1.41,1.41,0,0,1,13.83-2,1.41,1.41,0,0,1,15.25-.63Z" transform="translate(9.1 11.56)" style="fill:url(#linear-gradient-3)"/><circle cx="29.64" cy="5.77" r="1.42" style="fill:url(#linear-gradient-4)"/><path d="M-6.59,27.82h3.15c2.87,0,2.83,3,2.83,3h-6Z" transform="translate(9.1 11.56)" style="fill:url(#linear-gradient-5)"/><path d="M28.36,27.82H25.21c-2.87,0-2.82,3-2.82,3h6Z" transform="translate(9.1 11.56)" style="fill:url(#linear-gradient-6)"/><path d="M21.45,21.35H0a3.19,3.19,0,0,1-2-.74l-1-.86,2.8-4.28A4.07,4.07,0,0,1,1.2,14.15,3.66,3.66,0,0,1,3,13.68H18.49a3.72,3.72,0,0,1,1.8.47,4.07,4.07,0,0,1,1.39,1.32l2.8,4.28-1,.86A3.17,3.17,0,0,1,21.45,21.35Z" transform="translate(9.1 11.56)" style="fill:url(#linear-gradient-7)"/><path d="M-.68,12.81a.62.62,0,0,1-.62-.62V3.33a.62.62,0,0,1,.62-.62H2.79a.62.62,0,0,1,.62.62V9.71a.62.62,0,1,1-1.24,0V4H-.06v8.24A.62.62,0,0,1-.68,12.81Z" transform="translate(9.1 11.56)" style="fill:#3650a3"/><path d="M5.87,10.42a.62.62,0,0,1-.62-.62V-1a.62.62,0,0,1,.62-.62H9.34A.63.63,0,0,1,10-1V9.71a.63.63,0,1,1-1.25,0V-.43H6.5V9.8A.63.63,0,0,1,5.87,10.42Z" transform="translate(9.1 11.56)" style="fill:#3650a3"/><path d="M15.9,10.42a.62.62,0,0,1-.62-.62V6.93H13.05V9.71a.63.63,0,1,1-1.25,0V6.31a.63.63,0,0,1,.63-.63H15.9a.63.63,0,0,1,.62.63V9.8A.62.62,0,0,1,15.9,10.42Z" transform="translate(9.1 11.56)" style="fill:#3650a3"/><path d="M22.45,12.81a.62.62,0,0,1-.62-.62v-9H19.6V9.71a.62.62,0,0,1-.62.63.63.63,0,0,1-.62-.63V2.57A.62.62,0,0,1,19,2h3.47a.62.62,0,0,1,.62.62v9.62A.62.62,0,0,1,22.45,12.81Z" transform="translate(9.1 11.56)" style="fill:#3650a3"/><path d="M15.19-1a.64.64,0,0,1-.5-.25.62.62,0,0,1,.12-.87l4-3.07a.63.63,0,0,1,.88.11.61.61,0,0,1-.12.87l-4,3.08A.7.7,0,0,1,15.19-1Z" transform="translate(9.1 11.56)" style="fill:#3650a3"/><path d="M12.7-1.53a.64.64,0,0,1-.5-.25L8-7.48a.62.62,0,0,1,.13-.87A.63.63,0,0,1,9-8.22l4.21,5.7a.62.62,0,0,1-.13.87A.63.63,0,0,1,12.7-1.53Z" transform="translate(9.1 11.56)" style="fill:#3650a3"/><path d="M2.28-3.1a.63.63,0,0,1-.42-.17.61.61,0,0,1,0-.88L5.71-8.27a.63.63,0,0,1,.88,0,.62.62,0,0,1,0,.88L2.73-3.3A.61.61,0,0,1,2.28-3.1Z" transform="translate(9.1 11.56)" style="fill:#3650a3"/><path d="M1.11-.14A2.34,2.34,0,0,1-1.23-2.48,2.33,2.33,0,0,1,1.11-4.81,2.33,2.33,0,0,1,3.44-2.48,2.33,2.33,0,0,1,1.11-.14Zm0-3.43A1.09,1.09,0,0,0,0-2.48a1.1,1.1,0,0,0,1.1,1.1A1.09,1.09,0,0,0,2.2-2.48,1.09,1.09,0,0,0,1.11-3.57Z" transform="translate(9.1 11.56)" style="fill:#3650a3"/><path d="M7.47-6.89A2.34,2.34,0,0,1,5.13-9.23a2.33,2.33,0,0,1,2.34-2.33A2.33,2.33,0,0,1,9.81-9.23,2.34,2.34,0,0,1,7.47-6.89Zm0-3.43A1.09,1.09,0,0,0,6.38-9.23a1.09,1.09,0,0,0,1.09,1.1,1.09,1.09,0,0,0,1.09-1.1A1.09,1.09,0,0,0,7.47-10.32Z" transform="translate(9.1 11.56)" style="fill:#3650a3"/><path d="M13.83,1.71A2.34,2.34,0,0,1,11.49-.63,2.34,2.34,0,0,1,13.83-3,2.34,2.34,0,0,1,16.17-.63,2.34,2.34,0,0,1,13.83,1.71Zm0-3.43A1.09,1.09,0,0,0,12.74-.63,1.09,1.09,0,0,0,13.83.46,1.09,1.09,0,0,0,14.92-.63,1.09,1.09,0,0,0,13.83-1.72Z" transform="translate(9.1 11.56)" style="fill:#3650a3"/><path d="M20.54-3.46A2.34,2.34,0,0,1,18.2-5.8a2.34,2.34,0,0,1,2.34-2.33A2.34,2.34,0,0,1,22.88-5.8,2.34,2.34,0,0,1,20.54-3.46Zm0-3.43A1.09,1.09,0,0,0,19.45-5.8a1.09,1.09,0,0,0,1.09,1.1,1.1,1.1,0,0,0,1.1-1.1A1.09,1.09,0,0,0,20.54-6.89Z" transform="translate(9.1 11.56)" style="fill:#3650a3"/><path d="M-4.93,34.87a2.65,2.65,0,0,1-1-.19,2.76,2.76,0,0,1-.78-.53,2.76,2.76,0,0,1-.53-.78,2.45,2.45,0,0,1-.19-1V26.28a5.52,5.52,0,0,1,.06-.81,5.22,5.22,0,0,1,.19-.78,4.89,4.89,0,0,1,.3-.75,6,6,0,0,1,.41-.69l1.28-1.81a.61.61,0,0,1,.86-.14.61.61,0,0,1,.15.86L-5.41,24a3.55,3.55,0,0,0-.32.53,3.57,3.57,0,0,0-.23.57,3.9,3.9,0,0,0-.14.59,4.32,4.32,0,0,0-.05.62v6.13a1.28,1.28,0,0,0,.1.47,1.27,1.27,0,0,0,.26.39,1.16,1.16,0,0,0,.39.26,1.27,1.27,0,0,0,.47.09.62.62,0,0,1,.62.63A.62.62,0,0,1-4.93,34.87Z" transform="translate(9.1 11.56)" style="fill:#3650a3"/><path d="M28.55,22.43H26.42a.63.63,0,1,1,0-1.25h2.13a1.08,1.08,0,0,0,0-2.15H26.63L23.5,21.45a4.74,4.74,0,0,1-2.87,1H1.14a4.69,4.69,0,0,1-2.86-1L-4.86,19H-6.78a1.07,1.07,0,0,0-1.07,1.08,1.07,1.07,0,0,0,1.07,1.07h2.13A.63.63,0,0,1-4,21.8a.63.63,0,0,1-.63.63H-6.78A2.33,2.33,0,0,1-9.1,20.11a2.33,2.33,0,0,1,2.32-2.32h2.13a.57.57,0,0,1,.38.13L-1,20.46a3.4,3.4,0,0,0,2.1.72H20.63a3.4,3.4,0,0,0,2.1-.72L26,17.92a.57.57,0,0,1,.38-.13h2.13a2.32,2.32,0,0,1,0,4.64Z" transform="translate(9.1 11.56)" style="fill:#3650a3"/><path d="M17.36,34.87H4.41a.63.63,0,0,1,0-1.25h13a.63.63,0,0,1,0,1.25Z" transform="translate(9.1 11.56)" style="fill:#3650a3"/><path d="M26.7,34.87a.63.63,0,0,1,0-1.25,1.27,1.27,0,0,0,.47-.09,1.16,1.16,0,0,0,.39-.26,1.26,1.26,0,0,0,.36-.86V26.28a4.44,4.44,0,0,0-.05-.62,3.9,3.9,0,0,0-.14-.59,3.57,3.57,0,0,0-.23-.57,3.11,3.11,0,0,0-.32-.53l-1.27-1.81a.62.62,0,0,1,1-.72l1.28,1.81a6,6,0,0,1,.41.69,5.86,5.86,0,0,1,.3.75,4.43,4.43,0,0,1,.19.78,5.52,5.52,0,0,1,.06.81v6.13a2.37,2.37,0,0,1-.19,1,2.49,2.49,0,0,1-.53.79,2.76,2.76,0,0,1-.78.53A2.65,2.65,0,0,1,26.7,34.87Z" transform="translate(9.1 11.56)" style="fill:#3650a3"/><path d="M.19,38.44H-3.68a1.87,1.87,0,0,1-1.87-1.87V34.25a.63.63,0,0,1,.62-.63h2.26a.63.63,0,0,1,.63.63.63.63,0,0,1-.63.62H-4.31v1.7a.63.63,0,0,0,.63.62H.19a.62.62,0,0,0,.62-.62V34.25a.63.63,0,1,1,1.25,0v2.32A1.87,1.87,0,0,1,.19,38.44Z" transform="translate(9.1 11.56)" style="fill:#3650a3"/><path d="M25.46,38.44H21.58a1.87,1.87,0,0,1-1.87-1.87V34.25a.63.63,0,1,1,1.25,0v2.32a.62.62,0,0,0,.62.62h3.88a.62.62,0,0,0,.62-.62v-1.7H24.44a.63.63,0,1,1,0-1.25H26.7a.63.63,0,0,1,.62.63v2.32A1.87,1.87,0,0,1,25.46,38.44Z" transform="translate(9.1 11.56)" style="fill:#3650a3"/><path d="M-.49,31.5H-4.2a.62.62,0,0,1-.62-.62.63.63,0,0,1,.62-.63h3a2.46,2.46,0,0,0-2.36-1.82H-6.77a.62.62,0,0,1-.62-.62.62.62,0,0,1,.62-.62h3.22A3.69,3.69,0,0,1,.13,30.88.62.62,0,0,1-.49,31.5Z" transform="translate(9.1 11.56)" style="fill:#3650a3"/><path d="M26,31.5H22.26a.62.62,0,0,1-.62-.62,3.69,3.69,0,0,1,3.68-3.69h3.22a.62.62,0,0,1,.62.62.62.62,0,0,1-.62.62H25.32A2.46,2.46,0,0,0,23,30.25h3a.63.63,0,0,1,0,1.25Z" transform="translate(9.1 11.56)" style="fill:#3650a3"/><path d="M20,26.3H1.8a.6.6,0,0,1-.38-.13L-.46,24.72a.62.62,0,0,1-.11-.87.62.62,0,0,1,.87-.11L2,25.06H19.76l1.71-1.32a.62.62,0,1,1,.76,1l-1.88,1.45A.6.6,0,0,1,20,26.3Z" transform="translate(9.1 11.56)" style="fill:#3650a3"/><path d="M20.63,22.43H1.14a4.69,4.69,0,0,1-2.86-1L-3.47,20.1a.61.61,0,0,1-.13-.85L-.46,14.8a5.22,5.22,0,0,1,1.88-1.64,5.33,5.33,0,0,1,2.41-.59H17.94a5.4,5.4,0,0,1,2.42.59,5.27,5.27,0,0,1,1.87,1.64l3.14,4.45a.61.61,0,0,1-.13.85L23.5,21.45A4.74,4.74,0,0,1,20.63,22.43ZM-2.24,19.48l1.28,1a3.4,3.4,0,0,0,2.1.72H20.63a3.4,3.4,0,0,0,2.1-.72l1.28-1-2.8-4h0a3.89,3.89,0,0,0-1.43-1.24,3.94,3.94,0,0,0-1.84-.45H3.83A4,4,0,0,0,.56,15.51Z" transform="translate(9.1 11.56)" style="fill:#3650a3"/></svg>