<svg id="Layer_1" data-name="Layer 1" xmlns="http://www.w3.org/2000/svg" viewBox="0 0 24 18.79"><g id="F530_Boat_marine_sea_vehicles" data-name="F530, Boat, marine, sea, vehicles"><rect x="13" y="4.46" width="8.97" height="2.96" style="fill:#a1c6e9"/><polygon points="11 4.46 11 7.42 2.03 7.42 2.03 4.46 4.03 4.46 4.03 0.51 9.01 0.51 9.01 4.46 11 4.46" style="fill:#fff"/><path d="M12.24,16A1.22,1.22,0,1,1,11,17.24,1.24,1.24,0,0,1,12.24,16Z" transform="translate(0 -2.67)" style="fill:#fff"/><path d="M7.26,16A1.22,1.22,0,1,1,6,17.24,1.23,1.23,0,0,1,7.26,16Z" transform="translate(0 -2.67)" style="fill:#fff"/><path d="M17.22,16A1.22,1.22,0,1,1,16,17.24,1.23,1.23,0,0,1,17.22,16Z" transform="translate(0 -2.67)" style="fill:#fff"/><polygon points="23.48 7.42 22.72 10.7 1.28 10.7 0.56 7.42 2.03 7.42 11 7.42 13 7.42 21.97 7.42 23.48 7.42" style="fill:#a1c6e9"/><path d="M22.72,13.37,21,21H3L1.28,13.37ZM18.5,17.24a1.24,1.24,0,1,0-1.24,1.22A1.19,1.19,0,0,0,18.5,17.24Zm-5,0a1.24,1.24,0,1,0-1.23,1.22A1.18,1.18,0,0,0,13.51,17.24Zm-5,0A1.24,1.24,0,1,0,7.3,18.46,1.18,1.18,0,0,0,8.53,17.24Z" transform="translate(0 -2.67)" style="fill:#a1c6e9"/><path d="M23.48,21.46H21a.52.52,0,0,1-.52-.51.53.53,0,0,1,.52-.51h2.51A.53.53,0,0,1,24,21,.58.58,0,0,1,23.48,21.46Z" transform="translate(0 -2.67)" style="fill:#2c80c3"/><path d="M3,21.46H.52A.52.52,0,0,1,0,21a.53.53,0,0,1,.52-.51H3a.53.53,0,0,1,.52.51A.52.52,0,0,1,3,21.46Z" transform="translate(0 -2.67)" style="fill:#2c80c3"/><path d="M22,10.61a.53.53,0,0,1-.52-.51V7.61h-8V10.1a.52.52,0,0,1-1,0v-3A.53.53,0,0,1,13,6.62h9a.53.53,0,0,1,.52.52v3A.47.47,0,0,1,22,10.61Z" transform="translate(0 -2.67)" style="fill:#2c80c3"/><path d="M11,10.61a.52.52,0,0,1-.51-.51V7.61H9a.53.53,0,0,1-.52-.51V3.62h-4V7.14A.52.52,0,0,1,4,7.65H2.47v2.49a.53.53,0,0,1-.52.51.52.52,0,0,1-.51-.51v-3A.52.52,0,0,1,2,6.62H3.47V3.19A.53.53,0,0,1,4,2.67H9a.53.53,0,0,1,.52.52V6.66H11a.53.53,0,0,1,.52.51v3A.52.52,0,0,1,11,10.61Z" transform="translate(0 -2.67)" style="fill:#2c80c3"/><path d="M7.26,19A1.74,1.74,0,1,1,9,17.24,1.77,1.77,0,0,1,7.26,19Zm0-2.45a.76.76,0,0,0-.76.75.73.73,0,0,0,.76.75A.76.76,0,0,0,8,17.28.73.73,0,0,0,7.26,16.53Z" transform="translate(0 -2.67)" style="fill:#2c80c3"/><path d="M12.24,19A1.74,1.74,0,1,1,14,17.24,1.76,1.76,0,0,1,12.24,19Zm0-2.45a.76.76,0,0,0-.76.75.73.73,0,0,0,.76.75.76.76,0,0,0,.76-.75A.73.73,0,0,0,12.24,16.53Z" transform="translate(0 -2.67)" style="fill:#2c80c3"/><path d="M17.22,19A1.74,1.74,0,1,1,19,17.24,1.76,1.76,0,0,1,17.22,19Zm0-2.45a.75.75,0,0,0-.75.75.72.72,0,0,0,.75.75.76.76,0,0,0,.76-.75A.73.73,0,0,0,17.22,16.53Z" transform="translate(0 -2.67)" style="fill:#2c80c3"/><path d="M22.72,13.85H22.6a.47.47,0,0,1-.35-.6l.59-2.68H1.16l.59,2.68a.51.51,0,0,1-.35.6.5.5,0,0,1-.6-.36L0,10.21a.54.54,0,0,1,.08-.43.49.49,0,0,1,.4-.2H23.44a.56.56,0,0,1,.4.2.54.54,0,0,1,.08.43l-.76,3.28C23.16,13.69,22.92,13.85,22.72,13.85Z" transform="translate(0 -2.67)" style="fill:#2c80c3"/><path d="M21,21.46H3a.47.47,0,0,1-.48-.39L.8,13.49a.53.53,0,0,1,.08-.43.49.49,0,0,1,.4-.2h21.4a.56.56,0,0,1,.4.2.53.53,0,0,1,.08.43l-1.75,7.58A.43.43,0,0,1,21,21.46Zm-17.54-1H20.57l1.52-6.63H1.91Z" transform="translate(0 -2.67)" style="fill:#2c80c3"/></g></svg>