<svg id="Layer_1" data-name="Layer 1" xmlns="http://www.w3.org/2000/svg" viewBox="0 0 24 21.91"><g id="C_-_69_Friends_business_group_people_protection_team_workgroup" data-name="C - 69, Friends, business, group, people, protection, team, workgroup"><polygon points="8.96 19.09 8.96 21.61 1.78 21.61 1.78 16.57 8.96 16.57 8.96 19.09" style="fill:#a1c6e9"/><polygon points="15.04 16.57 15.04 19.09 8.96 19.09 8.96 19.09 8.96 16.57 10.44 16.57 10.44 14 13.56 14 13.56 16.57 15.04 16.57" style="fill:#fff"/><polygon points="15.04 19.09 15.04 16.57 22.22 16.57 22.22 21.61 15.04 21.61 15.04 19.09" style="fill:#a1c6e9"/><path d="M9,18H.26V13.86a2.52,2.52,0,0,1,2.52-2.52H7.91a2.52,2.52,0,0,1,2.52,2.52V18ZM4.87,13.34h1v-1h-1Zm1,.52h-1v1h1Z" transform="translate(0 -1.38)" style="fill:#a1c6e9"/><path d="M15,18H13.52V13.86A2.52,2.52,0,0,1,16,11.34h5.09a2.52,2.52,0,0,1,2.52,2.52V18H15Zm4.09-4.09h-1v1h1Zm0-.52v-1h-1v1Z" transform="translate(0 -1.38)" style="fill:#a1c6e9"/><path d="M12.52,11.34h-1v1h1Zm0-.52v-1h-1v1Zm4.57.52h-1a2.52,2.52,0,0,0-2.52,2.52v1.56H10.48V13.86A2.52,2.52,0,0,0,8,11.34h-1A2.57,2.57,0,0,1,9.48,8.82h5.09A2.49,2.49,0,0,1,17.09,11.34Z" transform="translate(0 -1.38)" style="fill:#fff"/><path d="M18.65,4.29A2.74,2.74,0,1,1,15.87,7,2.77,2.77,0,0,1,18.65,4.29Z" transform="translate(0 -1.38)" style="fill:#fff"/><path d="M12,1.69a2.76,2.76,0,0,1,2.78,2.73,2.78,2.78,0,0,1-5.56,0A2.76,2.76,0,0,1,12,1.69Z" transform="translate(0 -1.38)" style="fill:#fff"/><path d="M5.35,4.21A2.78,2.78,0,1,1,2.57,7,2.8,2.8,0,0,1,5.35,4.21Z" transform="translate(0 -1.38)" style="fill:#fff"/><rect x="18.13" y="12.48" width="1.04" height="1" style="fill:#5180c1"/><rect x="18.13" y="10.96" width="1.04" height="1" style="fill:#5180c1"/><rect x="11.48" y="9.96" width="1.04" height="1" style="fill:#5180c1"/><rect x="11.48" y="8.44" width="1.04" height="1" style="fill:#5180c1"/><rect x="4.87" y="12.48" width="1.04" height="1" style="fill:#5180c1"/><rect x="4.87" y="10.96" width="1.04" height="1" style="fill:#5180c1"/><path d="M10.43,18.21H.26A.28.28,0,0,1,0,18V13.86a2.81,2.81,0,0,1,2.83-2.78H7.91a2.78,2.78,0,0,1,2.79,2.78V18C10.74,18.08,10.61,18.21,10.43,18.21ZM.57,17.64h9.6V13.86A2.27,2.27,0,0,0,7.91,11.6H2.83A2.25,2.25,0,0,0,.57,13.86Z" transform="translate(0 -1.38)" style="fill:#5180c1"/><path d="M5.35,10.08A3.09,3.09,0,1,1,8.39,7,3.07,3.07,0,0,1,5.35,10.08Zm0-5.61A2.52,2.52,0,1,0,7.87,7,2.52,2.52,0,0,0,5.35,4.47Z" transform="translate(0 -1.38)" style="fill:#5180c1"/><path d="M9,23.29H1.78A.28.28,0,0,1,1.52,23V14.38a.28.28,0,0,1,.26-.26.28.28,0,0,1,.26.26v8.35H8.65V14.38a.26.26,0,1,1,.52,0V23A.23.23,0,0,1,9,23.29Z" transform="translate(0 -1.38)" style="fill:#5180c1"/><path d="M23.74,18.21H13.57A.28.28,0,0,1,13.3,18V13.86a2.81,2.81,0,0,1,2.79-2.78h5.08A2.81,2.81,0,0,1,24,13.86V18A.28.28,0,0,1,23.74,18.21Zm-9.91-.57h9.6V13.86a2.25,2.25,0,0,0-2.26-2.26H16.09a2.25,2.25,0,0,0-2.26,2.26Z" transform="translate(0 -1.38)" style="fill:#5180c1"/><path d="M18.65,10.08A3,3,0,1,1,21.7,7,3.06,3.06,0,0,1,18.65,10.08Zm0-5.53A2.52,2.52,0,0,0,16.13,7a2.52,2.52,0,0,0,5,0A2.57,2.57,0,0,0,18.65,4.55Z" transform="translate(0 -1.38)" style="fill:#5180c1"/><path d="M22.22,23.29H15a.28.28,0,0,1-.26-.26V14.38a.26.26,0,0,1,.52,0v8.35h6.61V14.38a.26.26,0,0,1,.52,0V23A.23.23,0,0,1,22.22,23.29Z" transform="translate(0 -1.38)" style="fill:#5180c1"/><path d="M13.57,15.64H10.48a.26.26,0,0,1,0-.52h3.09a.26.26,0,0,1,0,.52Z" transform="translate(0 -1.38)" style="fill:#5180c1"/><path d="M17.09,11.6a.28.28,0,0,1-.26-.26,2.25,2.25,0,0,0-2.26-2.26H9.48a2.31,2.31,0,0,0-2.31,2.26.26.26,0,0,1-.52,0A2.89,2.89,0,0,1,9.48,8.51h5.09a2.81,2.81,0,0,1,2.78,2.83A.28.28,0,0,1,17.09,11.6Z" transform="translate(0 -1.38)" style="fill:#5180c1"/><path d="M12,7.47a3,3,0,0,1-3-3,3,3,0,1,1,6.08,0A3,3,0,0,1,12,7.47ZM12,2A2.51,2.51,0,0,0,9.48,4.42a2.52,2.52,0,0,0,5,0A2.51,2.51,0,0,0,12,2Z" transform="translate(0 -1.38)" style="fill:#5180c1"/><path d="M15.09,20.73H9a.26.26,0,1,1,0-.52h6.13a.26.26,0,0,1,0,.52Z" transform="translate(0 -1.38)" style="fill:#5180c1"/></g></svg>