<svg id="Layer_1" data-name="Layer 1" xmlns="http://www.w3.org/2000/svg" viewBox="0 0 24 24"><g id="_288_-_winners_Pedestal_podium_winners" data-name="288 - winners, Pedestal, podium, winners"><polygon points="19.14 21.12 17.17 21.12 17.17 15.2 21.12 15.2 21.12 21.12 19.14 21.12" style="fill:#fff"/><polygon points="12.24 18.16 10.26 18.16 10.26 12.24 14.21 12.24 14.21 18.16 12.24 18.16" style="fill:#fff"/><polygon points="5.33 22.11 3.35 22.11 3.35 16.18 7.3 16.18 7.3 22.11 5.33 22.11" style="fill:#fff"/><polygon points="9.28 22.11 9.28 23.61 2.37 23.61 2.37 22.11 3.35 22.11 5.33 22.11 7.3 22.11 9.28 22.11" style="fill:#a1c6e9"/><path d="M15.2,21.12v2.49H9.28V18.16H15.2Zm-2.06,1v-.52h-.55V19.66H12s0,.08-.12.12a.62.62,0,0,1-.2.11l-.23.12a.36.36,0,0,1-.2,0v.56a.43.43,0,0,0,.2,0c.08,0,.12,0,.19-.08l.2-.12.12-.12v1.3h-.55v.52l1.73,0Z" transform="translate(0 0)" style="fill:#a1c6e9"/><polygon points="22.11 21.12 22.11 23.61 15.2 23.61 15.2 21.12 17.17 21.12 19.14 21.12 21.12 21.12 22.11 21.12" style="fill:#a1c6e9"/><path d="M21.12,15.2H15.67v-5a1.46,1.46,0,0,1,1.46-1.46h4a1.46,1.46,0,0,1,1.46,1.46v5Z" transform="translate(0 0)" style="fill:#a1c6e9"/><path d="M10.26,12.24H8.76v-5A1.46,1.46,0,0,1,10.22,5.8h4a1.46,1.46,0,0,1,1.46,1.46v5H10.26Z" transform="translate(0 0)" style="fill:#a1c6e9"/><path d="M7.3,16.18H1.86v-5A1.46,1.46,0,0,1,3.32,9.75h4A1.46,1.46,0,0,1,8.8,11.21v5Z" transform="translate(0 0)" style="fill:#a1c6e9"/><path d="M5.33,4.34a2,2,0,1,1-2,2A2,2,0,0,1,5.33,4.34Z" transform="translate(0 0)" style="fill:#fff"/><path d="M12.24.39a2,2,0,1,1-2,2A2,2,0,0,1,12.24.39Z" transform="translate(0 0)" style="fill:#fff"/><path d="M19.14,3.36a2,2,0,1,1-2,2A2,2,0,0,1,19.14,3.36Z" transform="translate(0 0)" style="fill:#fff"/><path d="M13.14,21.59v.52H11.41v-.52H12v-1.3l-.12.12a.87.87,0,0,1-.2.12c-.07,0-.11,0-.19.08a.46.46,0,0,1-.2,0v-.55a.43.43,0,0,0,.2,0l.23-.12.2-.11L12,19.7h.59v1.93l.51,0Z" transform="translate(0 0)" style="fill:#2c80c3"/><path d="M3.36,16.58H1.86a.38.38,0,0,1-.4-.4v-5A1.85,1.85,0,0,1,3.32,9.36h4A1.85,1.85,0,0,1,9.2,11.21a.4.4,0,1,1-.79,0,1.07,1.07,0,0,0-1.07-1.07h-4a1.06,1.06,0,0,0-1.07,1.07v4.58H3.36a.4.4,0,0,1,0,.79Z" transform="translate(0 0)" style="fill:#2c80c3"/><path d="M8.8,16.58H7.3a.4.4,0,0,1,0-.79H8.41V12.24a.4.4,0,1,1,.79,0v3.94A.4.4,0,0,1,8.8,16.58Z" transform="translate(0 0)" style="fill:#2c80c3"/><path d="M7.3,22.5a.37.37,0,0,1-.39-.39V16.18a.4.4,0,0,1,.79,0v5.93A.38.38,0,0,1,7.3,22.5Z" transform="translate(0 0)" style="fill:#2c80c3"/><path d="M3.36,22.5a.38.38,0,0,1-.4-.39V16.18a.38.38,0,0,1,.4-.39.37.37,0,0,1,.39.39v5.93A.37.37,0,0,1,3.36,22.5Z" transform="translate(0 0)" style="fill:#2c80c3"/><path d="M7.3,16.58H3.36a.38.38,0,0,1-.4-.4V13.7a.38.38,0,0,1,.4-.4.38.38,0,0,1,.39.4v2.09H6.91V13.7a.4.4,0,1,1,.79,0v2.48A.38.38,0,0,1,7.3,16.58Z" transform="translate(0 0)" style="fill:#2c80c3"/><path d="M5.33,22.5a.38.38,0,0,1-.4-.39V18.63a.37.37,0,0,1,.4-.39.36.36,0,0,1,.39.39v3.48A.37.37,0,0,1,5.33,22.5Z" transform="translate(0 0)" style="fill:#2c80c3"/><path d="M5.33,8.68A2.37,2.37,0,1,1,7.7,6.32,2.37,2.37,0,0,1,5.33,8.68Zm0-3.94A1.58,1.58,0,1,0,6.91,6.32,1.58,1.58,0,0,0,5.33,4.74Z" transform="translate(0 0)" style="fill:#2c80c3"/><path d="M17.17,15.59h-1.5a.37.37,0,0,1-.39-.39v-3a.37.37,0,0,1,.39-.4.38.38,0,0,1,.4.4V14.8h1.1a.4.4,0,1,1,0,.79Z" transform="translate(0 0)" style="fill:#2c80c3"/><path d="M22.62,15.59h-1.5a.4.4,0,1,1,0-.79h1.1V10.22a1.05,1.05,0,0,0-1.06-1.06h-4a1.05,1.05,0,0,0-1.06,1.06.38.38,0,0,1-.4.4.37.37,0,0,1-.39-.4,1.85,1.85,0,0,1,1.85-1.85h4A1.85,1.85,0,0,1,23,10.22v5A.39.39,0,0,1,22.62,15.59Z" transform="translate(0 0)" style="fill:#2c80c3"/><path d="M21.12,21.51a.37.37,0,0,1-.4-.39V15.2a.38.38,0,0,1,.4-.4.37.37,0,0,1,.39.4v5.92A.36.36,0,0,1,21.12,21.51Z" transform="translate(0 0)" style="fill:#2c80c3"/><path d="M17.17,21.51a.36.36,0,0,1-.39-.39V15.2a.37.37,0,0,1,.39-.4.38.38,0,0,1,.4.4v5.92A.37.37,0,0,1,17.17,21.51Z" transform="translate(0 0)" style="fill:#2c80c3"/><path d="M21.12,15.59H17.17a.37.37,0,0,1-.39-.39V12.71a.36.36,0,0,1,.39-.39.37.37,0,0,1,.4.39V14.8h3.15V12.71a.37.37,0,0,1,.4-.39.36.36,0,0,1,.39.39V15.2A.37.37,0,0,1,21.12,15.59Z" transform="translate(0 0)" style="fill:#2c80c3"/><path d="M19.14,21.51a.37.37,0,0,1-.39-.39V17.64a.4.4,0,0,1,.79,0v3.48A.37.37,0,0,1,19.14,21.51Z" transform="translate(0 0)" style="fill:#2c80c3"/><path d="M19.14,7.7a2.37,2.37,0,1,1,2.37-2.37A2.37,2.37,0,0,1,19.14,7.7Zm0-3.95a1.58,1.58,0,1,0,1.58,1.58A1.58,1.58,0,0,0,19.14,3.75Z" transform="translate(0 0)" style="fill:#2c80c3"/><path d="M15.71,12.63h-1.5a.4.4,0,0,1,0-.79h1.11V7.26A1.06,1.06,0,0,0,14.25,6.2h-4A1.05,1.05,0,0,0,9.16,7.26v4.58h1.1a.4.4,0,1,1,0,.79H8.76a.37.37,0,0,1-.39-.39v-5a1.85,1.85,0,0,1,1.85-1.85h4a1.85,1.85,0,0,1,1.86,1.85v5A.4.4,0,0,1,15.71,12.63Z" transform="translate(0 0)" style="fill:#2c80c3"/><path d="M14.21,18.55a.37.37,0,0,1-.39-.39V12.24a.37.37,0,0,1,.39-.4.38.38,0,0,1,.4.4v5.92A.38.38,0,0,1,14.21,18.55Z" transform="translate(0 0)" style="fill:#2c80c3"/><path d="M10.26,18.55a.37.37,0,0,1-.39-.39V12.24a.4.4,0,1,1,.79,0v5.92A.38.38,0,0,1,10.26,18.55Z" transform="translate(0 0)" style="fill:#2c80c3"/><path d="M14.21,12.63h-4a.37.37,0,0,1-.39-.39V9.75a.4.4,0,0,1,.79,0v2.09h3.16V9.75a.36.36,0,0,1,.39-.39.37.37,0,0,1,.4.39v2.49A.38.38,0,0,1,14.21,12.63Z" transform="translate(0 0)" style="fill:#2c80c3"/><path d="M12.24,18.55a.38.38,0,0,1-.4-.39V14.68a.4.4,0,0,1,.79,0v3.48A.37.37,0,0,1,12.24,18.55Z" transform="translate(0 0)" style="fill:#2c80c3"/><path d="M12.24,4.74a2.37,2.37,0,1,1,2.37-2.37A2.38,2.38,0,0,1,12.24,4.74Zm0-3.95a1.58,1.58,0,1,0,1.58,1.58A1.58,1.58,0,0,0,12.24.79Z" transform="translate(0 0)" style="fill:#2c80c3"/><path d="M2.37,24a.38.38,0,0,1-.4-.39v-1.5a.38.38,0,0,1,.4-.4H9.28a.4.4,0,0,1,0,.79H2.76v1.11A.39.39,0,0,1,2.37,24Z" transform="translate(0 0)" style="fill:#2c80c3"/><path d="M22.11,24a.38.38,0,0,1-.4-.39v-2.1H15.2a.37.37,0,0,1-.4-.39.38.38,0,0,1,.4-.4h6.91a.38.38,0,0,1,.39.4v2.49A.4.4,0,0,1,22.11,24Z" transform="translate(0 0)" style="fill:#2c80c3"/><path d="M15.2,24a.38.38,0,0,1-.4-.39V18.55H9.67v5.06a.4.4,0,0,1-.79,0V18.16a.38.38,0,0,1,.4-.4H15.2a.38.38,0,0,1,.39.4v5.45A.4.4,0,0,1,15.2,24Z" transform="translate(0 0)" style="fill:#2c80c3"/><path d="M23.61,24H.39a.4.4,0,0,1,0-.79H23.61a.38.38,0,0,1,.39.4A.4.4,0,0,1,23.61,24Z" transform="translate(0 0)" style="fill:#2c80c3"/></g></svg>