<svg id="Layer_1" data-name="Layer 1" xmlns="http://www.w3.org/2000/svg" viewBox="0 0 24 23.87"><g id="C_-_20_chart_graph_analytics_presentation_sales" data-name="C - 20, chart, graph, analytics, presentation, sales"><polygon points="23.74 5.13 23.74 23.57 20.78 23.57 20.78 7.04 20.78 5.13 23.74 5.13" style="fill:#fff"/><polygon points="17.87 8.52 17.87 23.57 14.91 23.57 14.91 9.96 14.91 8.52 17.87 8.52" style="fill:#fff"/><polygon points="12 11.91 12 23.57 9.09 23.57 9.09 13.39 9.09 11.91 12 11.91" style="fill:#fff"/><polygon points="6.13 14.83 6.13 23.57 3.22 23.57 3.22 16.78 3.22 14.83 6.13 14.83" style="fill:#fff"/><polygon points="20.78 7.04 20.78 23.57 17.87 23.57 17.87 8.52 17.87 7.04 20.78 7.04" style="fill:#a1c6e9"/><polygon points="14.91 9.96 14.91 23.57 12 23.57 12 11.91 12 9.96 14.91 9.96" style="fill:#a1c6e9"/><polygon points="9.09 13.39 9.09 23.57 6.13 23.57 6.13 14.83 6.13 13.39 9.09 13.39" style="fill:#a1c6e9"/><rect x="0.26" y="16.78" width="2.91" height="6.78" style="fill:#a1c6e9"/><polygon points="23.74 0.26 23.74 5.13 20.78 5.13 20.78 7.04 17.87 7.04 17.87 8.52 14.91 8.52 14.91 9.96 12 9.96 12 11.91 9.09 11.91 9.09 13.39 6.13 13.39 6.13 14.83 3.22 14.83 3.22 16.78 0.26 16.78 0.26 0.26 23.74 0.26" style="fill:#fff"/><path d="M.26,17.11A.28.28,0,0,1,0,16.85V.33A.28.28,0,0,1,.26.07H23.7A.28.28,0,0,1,24,.33V5.2a.28.28,0,0,1-.26.26.29.29,0,0,1-.27-.26V.59H.57V16.85A.3.3,0,0,1,.26,17.11Z" transform="translate(0 -0.07)" style="fill:#5180c1"/><path d="M23.74,23.93H20.83a.26.26,0,0,1,0-.52h2.65V5.46H21.09V7.11a.26.26,0,1,1-.52,0v-2a.28.28,0,0,1,.26-.26h2.91a.28.28,0,0,1,.26.26V23.63A.29.29,0,0,1,23.74,23.93Z" transform="translate(0 -0.07)" style="fill:#5180c1"/><path d="M20.78,23.93H17.87a.26.26,0,1,1,0-.52h2.65v-16H18.13V8.54a.26.26,0,0,1-.52,0V7.07a.28.28,0,0,1,.26-.27h2.91a.28.28,0,0,1,.26.27V23.59C21,23.8,21,23.93,20.78,23.93Z" transform="translate(0 -0.07)" style="fill:#5180c1"/><path d="M17.87,23.93H15a.26.26,0,1,1,0-.52h2.65V8.85H15.22V10a.26.26,0,0,1-.52,0V8.54A.28.28,0,0,1,15,8.28h2.91a.28.28,0,0,1,.26.26V23.63A.29.29,0,0,1,17.87,23.93Z" transform="translate(0 -0.07)" style="fill:#5180c1"/><path d="M14.91,23.93H12a.26.26,0,0,1,0-.52h2.65v-13H12.26V12a.26.26,0,0,1-.52,0V10A.28.28,0,0,1,12,9.76h2.91a.28.28,0,0,1,.26.26V23.63C15.22,23.8,15.09,23.93,14.91,23.93Z" transform="translate(0 -0.07)" style="fill:#5180c1"/><path d="M12,23.93H9.09a.26.26,0,0,1,0-.52h2.65V12.24H9.35v1.17a.26.26,0,0,1-.52,0V11.93a.28.28,0,0,1,.26-.26H12a.28.28,0,0,1,.26.26V23.59C12.26,23.8,12.13,23.93,12,23.93Z" transform="translate(0 -0.07)" style="fill:#5180c1"/><path d="M9.09,23.93h-3a.26.26,0,1,1,0-.52H8.78V13.72H6.39v1.17a.26.26,0,0,1-.52,0V13.41a.28.28,0,0,1,.26-.26H9a.28.28,0,0,1,.26.26V23.63A.23.23,0,0,1,9.09,23.93Z" transform="translate(0 -0.07)" style="fill:#5180c1"/><path d="M6.13,23.93H3.22a.26.26,0,1,1,0-.52H5.87V15.15H3.48V16.8a.29.29,0,0,1-.26.27A.29.29,0,0,1,3,16.8v-2a.28.28,0,0,1,.26-.26H6.13a.28.28,0,0,1,.26.26v8.74C6.39,23.8,6.3,23.93,6.13,23.93Z" transform="translate(0 -0.07)" style="fill:#5180c1"/><path d="M3.22,23.93H.3A.28.28,0,0,1,0,23.67V16.85a.28.28,0,0,1,.26-.26H3.22a.28.28,0,0,1,.26.26v6.78A.29.29,0,0,1,3.22,23.93ZM.57,23.37H3V17.11H.57Z" transform="translate(0 -0.07)" style="fill:#5180c1"/><path d="M1.74,13.72a.26.26,0,0,1-.22-.13.28.28,0,0,1,.09-.39L21.13,2a.28.28,0,0,1,.39.09.27.27,0,0,1-.09.39L1.87,13.67A.15.15,0,0,1,1.74,13.72Z" transform="translate(0 -0.07)" style="fill:#5180c1"/><path d="M11.52,2.54H5.17a.28.28,0,0,1-.26-.26A.28.28,0,0,1,5.17,2h6.35a.28.28,0,0,1,.26.26A.28.28,0,0,1,11.52,2.54Z" transform="translate(0 -0.07)" style="fill:#5180c1"/><path d="M3.17,2.54H2.22A.28.28,0,0,1,2,2.28.28.28,0,0,1,2.22,2h.91a.28.28,0,0,1,.26.26A.25.25,0,0,1,3.17,2.54Z" transform="translate(0 -0.07)" style="fill:#5180c1"/><path d="M11.52,4.15H5.17a.26.26,0,0,1,0-.52h6.35a.26.26,0,0,1,0,.52Z" transform="translate(0 -0.07)" style="fill:#5180c1"/><path d="M3.17,4.15H2.22a.26.26,0,0,1,0-.52h.91a.28.28,0,0,1,.26.26A.25.25,0,0,1,3.17,4.15Z" transform="translate(0 -0.07)" style="fill:#5180c1"/><path d="M11.52,5.76H5.17a.26.26,0,0,1,0-.52h6.35a.26.26,0,0,1,0,.52Z" transform="translate(0 -0.07)" style="fill:#5180c1"/><path d="M3.17,5.76H2.22a.26.26,0,1,1,0-.52h.91a.28.28,0,0,1,.26.26A.22.22,0,0,1,3.17,5.76Z" transform="translate(0 -0.07)" style="fill:#5180c1"/></g></svg>