<svg id="Layer_1" data-name="Layer 1" xmlns="http://www.w3.org/2000/svg" viewBox="0 0 21.84 24"><g id="_468_Chart_Document_Pie_Report" data-name="468, Chart, Document, Pie, Report"><g id="B_-_101_investment_Accumulation_business_debt_savings_calculator_coins" data-name="B - 101, investment, Accumulation, business, debt, savings, calculator, coins"><path d="M22.74,8.6V22.42a1,1,0,0,1-1,1H10.71a1,1,0,0,1-.7-.31.71.71,0,0,0,.26-.26l.05-.05s0,0,0-.08v-.05h0v0s0,0,0-.09h0v-.13a.27.27,0,0,0,0-.17,1.15,1.15,0,0,0-.44-.53,1.15,1.15,0,0,0,.4-.39v-.18h0v0h0V21c0-.26-.18-.48-.49-.7a1.13,1.13,0,0,0,.44-.52v-.05h0v0h0v0c0-.27-.17-.48-.48-.7l0,0c.05,0,.05,0,.09,0l.05,0,0-.05,0,0,0-.05a2547620669010.31,2547620669010.31,0,0,0,.08-.08v-.05h0V18.4h0v0h0v0h0v0c0-.27-.17-.48-.48-.7a1.1,1.1,0,0,0,.48-.57V17h0v-.08h0v-.18s0,0,0-.09v-.13s0,0-.09-.08l0-.05a0,0,0,0,0,0,0,0,0,0,0,1-.05-.05,0,0,0,0,1,0,0A2.65,2.65,0,0,0,9.53,16V8.6a1,1,0,0,1,1-1H21.56C22.31,7.63,22.74,8.07,22.74,8.6ZM21.39,12V8.86H11.15V12Zm-.18,9.76v-4.2h-1.7v4.2Zm0-4.95v-1.7h-1.7v1.7Zm0-2.67v-.78h-1.7v.78ZM18.5,21.77V20.06H16.79v1.71Zm0-2.45V17.61H16.79v1.71Zm0-2.5v-1.7H16.79v1.7Zm0-2.67v-.78H16.79v.78Zm-2.71,7.62V20.06H14.08v1.71Zm0-2.45V17.61H14.08v1.71Zm0-2.5v-1.7H14.08v1.7Zm0-2.67v-.78H14.08v.78ZM13,21.77V20.06H11.32v1.71Zm0-2.45V17.61H11.32v1.71Zm0-2.5v-1.7H11.32v1.7Zm0-2.67v-.78H11.32v.78Z" transform="translate(-1.08)" style="fill:#a1c6e9"/><rect x="10.07" y="8.86" width="10.2" height="3.15" style="fill:#fff"/><polygon points="20.13 19.32 20.13 21.77 18.42 21.77 18.42 19.32 18.42 18.75 18.42 17.57 20.13 17.57 20.13 18.75 20.13 19.32" style="fill:#fff"/><rect x="18.42" y="15.12" width="1.71" height="1.71" style="fill:#fff"/><rect x="18.42" y="13.37" width="1.71" height="0.79" style="fill:#fff"/><rect x="15.71" y="20.06" width="1.71" height="1.71" style="fill:#fff"/><rect x="15.71" y="17.57" width="1.71" height="1.71" style="fill:#fff"/><rect x="15.71" y="15.12" width="1.71" height="1.71" style="fill:#fff"/><rect x="15.71" y="13.37" width="1.71" height="0.79" style="fill:#fff"/><path d="M17.62,3.21V7.63H10.71a1,1,0,0,0-1,1V16a5.3,5.3,0,0,0-1.36-.44H8.3a.33.33,0,0,1-.17,0,.3.3,0,0,1-.18,0H7.86a.5.5,0,0,1-.26-.05H5.94a3.74,3.74,0,0,0-.66.09,3.49,3.49,0,0,0-.44-.09V1.11A.88.88,0,0,1,5.72.24H14.6v2.1a.88.88,0,0,0,.88.87ZM9.05,5.36A1.39,1.39,0,0,0,7.65,4a1.4,1.4,0,0,0-1.4,1.4,1.39,1.39,0,0,0,1.4,1.4A1.42,1.42,0,0,0,9.05,5.36Z" transform="translate(-1.08)" style="fill:#fff"/><path d="M17.62,3.21h-2.1a.87.87,0,0,1-.87-.87V.24Z" transform="translate(-1.08)" style="fill:#fff"/><rect x="12.95" y="20.06" width="1.71" height="1.71" style="fill:#fff"/><rect x="12.95" y="17.57" width="1.71" height="1.71" style="fill:#fff"/><rect x="12.95" y="15.12" width="1.71" height="1.71" style="fill:#fff"/><rect x="12.95" y="13.37" width="1.71" height="0.79" style="fill:#fff"/><rect x="10.24" y="20.06" width="1.71" height="1.71" style="fill:#fff"/><rect x="10.24" y="17.57" width="1.71" height="1.71" style="fill:#fff"/><rect x="10.24" y="15.12" width="1.71" height="1.71" style="fill:#fff"/><rect x="10.24" y="13.37" width="1.71" height="0.79" style="fill:#fff"/><path d="M2.92,18.27v-.05a.9.9,0,0,1,.48-.7,5,5,0,0,0,2.19.66.59.59,0,0,1,.26,0H7.51a.63.63,0,0,0,.27,0A5.21,5.21,0,0,0,10,17.52c.3.22.48.44.48.7v.05h0v0h0v0h0v.18h0v0a0,0,0,0,1,0,.05,0,0,0,0,1,0,0l0,0-.05.05,0,0-.05.05s0,0-.08,0,0,0,0,0h0s0,0-.08,0-.27.13-.44.22l-.92.26a4.16,4.16,0,0,0-.48.09c-.09,0-.18,0-.27,0h-2a.59.59,0,0,1-.26,0c-.18-.05-.35-.05-.48-.09H5c-.13-.05-.26-.05-.39-.09s-.14,0-.22,0,0,0-.09-.05-.09,0-.13,0H4.14a0,0,0,0,1,0,0S4,19.14,4,19.14a0,0,0,0,1,0,0c-.05-.05-.09-.05-.14-.09a0,0,0,0,1,0,0s-.09,0-.13-.09h0C3.14,18.7,3,18.49,2.92,18.27Z" transform="translate(-1.08)" style="fill:#fff"/><path d="M10.49,19.58v0h0v.05h0v0a1.34,1.34,0,0,1-.7.66,0,0,0,0,0,0,0,0,0,0,0,0-.05.05s-.08,0-.13,0l-.35.13s0,0-.09,0h0a5.4,5.4,0,0,1-1,.22H8c-.09,0-.18,0-.22.05h-2c-.09,0-.18,0-.22-.05H5.46a6.16,6.16,0,0,1-1.58-.43c0-.05-.09-.05-.13-.09h0a0,0,0,0,1,0-.05s0,0-.08,0l-.05,0c-.3-.22-.48-.44-.48-.7a.86.86,0,0,1,.09-.35h0a1,1,0,0,1,.39-.35c.05,0,.09,0,.13.08a0,0,0,0,1,0,0s.08,0,.13.08,0,0,0,.05.09,0,.13,0a0,0,0,0,1,0,.05h0s.09,0,.13,0,0,0,.09,0a.36.36,0,0,0,.22.05,1.36,1.36,0,0,0,.39.08H5c.17.05.35.05.48.09s.18.05.26.05h2A.5.5,0,0,0,8,19.49a4.61,4.61,0,0,0,.48-.09,8.9,8.9,0,0,0,.92-.26,1.21,1.21,0,0,0,.44-.22s0,0,.09,0h0C10.32,19.1,10.49,19.32,10.49,19.58Z" transform="translate(-1.08)" style="fill:#a1c6e9"/><path d="M3,21.24a.57.57,0,0,1,0-.26.9.9,0,0,1,.48-.7h0l0,0s.05.05.09.05.05,0,.05,0h0c0,.05.09.05.13.09a6.43,6.43,0,0,0,1.58.44h.13a.38.38,0,0,1,.22,0h2a.36.36,0,0,0,.22,0H8a6.45,6.45,0,0,0,1-.22H9c.05,0,.05,0,.09,0a2,2,0,0,0,.35-.13s.09,0,.13,0,0,0,0,0,0,0,0-.05l.26-.13a.9.9,0,0,1,.48.7v0h0v.05h0v.17a1.72,1.72,0,0,1-.78.62s-.09,0-.14,0h0L9.13,22s0,0-.08,0h0c-.05,0-.05,0-.09.05s-.13,0-.22,0h0l-.66.13H5.37a4.73,4.73,0,0,1-.88-.17c-.08,0-.13-.05-.17-.05s0,0-.09,0,0,0-.09,0,0,0-.08,0,0,0-.09,0-.13,0-.18-.09a0,0,0,0,1,0,0s-.09-.05-.09-.05A1,1,0,0,1,3,21.24Z" transform="translate(-1.08)" style="fill:#fff"/><path d="M10.49,22.38v.13h0s0,0,0,.09v0h0v.05s0,0,0,.08,0,.05,0,.05c-.48.57-1.93,1-3.59,1-2.1,0-3.76-.61-3.76-1.4a.9.9,0,0,1,.48-.7c0,.05.09.05.17.09a.14.14,0,0,1,.09.05,0,0,0,0,1,0,0s.14,0,.18.09,0,0,.09,0,0,0,.08,0,.05,0,.09.05,0,0,.09,0,.13.05.17.05a5.72,5.72,0,0,0,.88.17H8.08l.66-.13h0c.09,0,.13,0,.22,0s0,0,.09-.05h0s0,0,.08,0L9.44,22h0s.09,0,.14,0a1.54,1.54,0,0,0,.39-.22c.22.18.39.31.44.53C10.49,22.25,10.49,22.34,10.49,22.38Z" transform="translate(-1.08)" style="fill:#a1c6e9"/><path d="M5.33,15.47c.21-.05.43-.05.65-.09H7.65a.61.61,0,0,1,.26,0H8s.13,0,.17.05a.39.39,0,0,1,.18,0h.08a4.06,4.06,0,0,1,1.71.66,0,0,0,0,1,0,0s.05,0,.05,0,0,0,0,.05l.05,0,.08.09v.13s0,0,0,.09v.17h0v.09h0v0c-.13.57-1.19,1.1-2.63,1.23a.59.59,0,0,0-.26,0H5.9a.63.63,0,0,1-.27,0,5.09,5.09,0,0,1-2.36-.79A.8.8,0,0,1,3,16.82C2.92,16.21,3.93,15.69,5.33,15.47Z" transform="translate(-1.08)" style="fill:#a1c6e9"/><path d="M7.65,4a1.4,1.4,0,1,1-1.4,1.4A1.39,1.39,0,0,1,7.65,4Z" transform="translate(-1.08)" style="fill:#fff"/><path d="M5.33,15.47h0c-1.4.22-2.41.7-2.41,1.31a.77.77,0,0,0,.31.57h0l0-.05H2.7l-.17,0s0,0-.09,0,0,0-.09,0,0,0-.09,0h0s0,0-.09,0h0S2,17,2,17s-.09,0-.13,0H1.74A0,0,0,0,1,1.69,17a0,0,0,0,1,0,0,.61.61,0,0,1-.35-.48c0-.57,1.18-1,2.67-1l.87.09v.18A1.28,1.28,0,0,1,5.33,15.47Z" transform="translate(-1.08)" style="fill:#fff"/><path d="M3.23,17.35h0a4.29,4.29,0,0,0,2.36.79,5.16,5.16,0,0,1-2.19-.66.9.9,0,0,0-.48.7v0H2.83l-.17,0H2.57s0,0-.09,0,0,0-.09-.05,0,0-.08,0A2,2,0,0,0,2.09,18s0,0,0,0H2s0,0,0-.05a0,0,0,0,1,0,0s-.05,0-.05,0c-.3-.18-.52-.35-.52-.57a.6.6,0,0,1,.35-.48,0,0,0,0,1,0,0s.05,0,.05,0H2s.08.05.13.05.09,0,.13,0h0s0,0,.09,0h0s0,0,.09.05,0,0,.09,0,0,0,.08.05.13,0,.18,0h.48C3.18,17.3,3.18,17.35,3.23,17.35Z" transform="translate(-1.08)" style="fill:#fff"/><path d="M3.4,20.28H3.27a.43.43,0,0,1-.22,0c-1-.13-1.75-.53-1.75-1a.61.61,0,0,1,.35-.48l.26.13A0,0,0,0,1,2,19a0,0,0,0,1,0,0h.09s0,0,.09,0,0,0,.08.05.05,0,.09,0,.13.05.22.05H3a.48.48,0,0,0-.08.35A1,1,0,0,0,3.4,20.28Z" transform="translate(-1.08)" style="fill:#fff"/><path d="M3.4,20.28h0a.9.9,0,0,0-.48.7.57.57,0,0,0,0,.26c-1-.13-1.66-.52-1.66-.92a.61.61,0,0,1,.35-.48,3.55,3.55,0,0,0,1.4.44.43.43,0,0,1,.22,0A.17.17,0,0,1,3.4,20.28Z" transform="translate(-1.08)" style="fill:#fff"/><path d="M3.4,18.88a1.52,1.52,0,0,0-.39.35h-.4c-.08,0-.13,0-.22,0s0,0-.08-.05-.05,0-.09,0,0,0-.09-.05H2a0,0,0,0,1,0,0,0,0,0,0,1,0,0q-.66-.27-.66-.66a.61.61,0,0,1,.35-.48s.09,0,.18.09a0,0,0,0,1,0,0,0,0,0,0,1,0,0,0,0,0,0,1,.05.05H2a0,0,0,0,1,0,0,2,2,0,0,0,.22.09s0,0,.09,0,0,0,.08.05,0,0,.09,0h.09l.17,0h.09A3.37,3.37,0,0,0,3.4,18.88Z" transform="translate(-1.08)" style="fill:#fff"/><path d="M21.39,12.18H11.15A.18.18,0,0,1,11,12V8.86a.19.19,0,0,1,.18-.18H21.34a.19.19,0,0,1,.18.18V12C21.56,12.1,21.47,12.18,21.39,12.18Zm-10-.39h9.8V9h-9.8Z" transform="translate(-1.08)" style="fill:#5180c1"/><path d="M13,17H11.32a.18.18,0,0,1-.17-.17V15.16a.18.18,0,0,1,.17-.18H13a.18.18,0,0,1,.17.18v1.71C13.25,17,13.16,17,13,17Zm-1.53-.39h1.31V15.34H11.5v1.31Z" transform="translate(-1.08)" style="fill:#5180c1"/><path d="M15.79,17H14.08a.19.19,0,0,1-.18-.17V15.16a.19.19,0,0,1,.18-.18h1.71a.19.19,0,0,1,.17.18v1.71A.19.19,0,0,1,15.79,17Zm-1.54-.39h1.32V15.34H14.25Z" transform="translate(-1.08)" style="fill:#5180c1"/><path d="M18.5,17H16.79a.18.18,0,0,1-.17-.17V15.16a.18.18,0,0,1,.17-.18H18.5a.18.18,0,0,1,.17.18v1.71C18.72,17,18.63,17,18.5,17ZM17,16.65h1.31V15.34H17Z" transform="translate(-1.08)" style="fill:#5180c1"/><path d="M21.21,17h-1.7a.19.19,0,0,1-.18-.17V15.16a.19.19,0,0,1,.18-.18h1.7a.19.19,0,0,1,.18.18v1.71C21.43,17,21.34,17,21.21,17Zm-1.53-.39H21V15.34H19.68Z" transform="translate(-1.08)" style="fill:#5180c1"/><path d="M13,19.49H11.32a.18.18,0,0,1-.17-.17V17.61a.18.18,0,0,1,.17-.17H13a.18.18,0,0,1,.17.17v1.71C13.25,19.4,13.16,19.49,13,19.49ZM11.5,19.1h1.31V17.79H11.5V19.1Z" transform="translate(-1.08)" style="fill:#5180c1"/><path d="M15.79,19.49H14.08a.19.19,0,0,1-.18-.17V17.61a.18.18,0,0,1,.18-.17h1.71a.18.18,0,0,1,.17.17v1.71A.19.19,0,0,1,15.79,19.49Zm-1.54-.39h1.32V17.79H14.25Z" transform="translate(-1.08)" style="fill:#5180c1"/><path d="M18.5,19.49H16.79a.18.18,0,0,1-.17-.17V17.61a.18.18,0,0,1,.17-.17H18.5a.18.18,0,0,1,.17.17v1.71C18.72,19.4,18.63,19.49,18.5,19.49ZM17,19.1h1.31V17.79H17Z" transform="translate(-1.08)" style="fill:#5180c1"/><path d="M21.21,22h-1.7a.19.19,0,0,1-.18-.18v-4.2a.18.18,0,0,1,.18-.17h1.7a.18.18,0,0,1,.18.17v4.2C21.43,21.9,21.34,22,21.21,22Zm-1.53-.4H21v-3.8H19.68Z" transform="translate(-1.08)" style="fill:#5180c1"/><path d="M13,22H11.32a.18.18,0,0,1-.17-.18v-1.7a.18.18,0,0,1,.17-.18H13a.18.18,0,0,1,.17.18v1.7C13.25,21.9,13.16,22,13,22Zm-1.53-.4h1.31V20.28H11.5v1.31Z" transform="translate(-1.08)" style="fill:#5180c1"/><path d="M15.79,22H14.08a.19.19,0,0,1-.18-.18v-1.7a.19.19,0,0,1,.18-.18h1.71a.19.19,0,0,1,.17.18v1.7A.19.19,0,0,1,15.79,22Zm-1.54-.4h1.32V20.28H14.25Z" transform="translate(-1.08)" style="fill:#5180c1"/><path d="M18.5,22H16.79a.18.18,0,0,1-.17-.18v-1.7a.18.18,0,0,1,.17-.18H18.5a.18.18,0,0,1,.17.18v1.7C18.72,21.9,18.63,22,18.5,22ZM17,21.59h1.31V20.28H17Z" transform="translate(-1.08)" style="fill:#5180c1"/><path d="M13,14.37H11.32a.18.18,0,0,1-.17-.17v-.79a.18.18,0,0,1,.17-.18H13a.18.18,0,0,1,.17.18v.79C13.25,14.28,13.16,14.37,13,14.37ZM11.5,14h1.31v-.44H11.5V14Z" transform="translate(-1.08)" style="fill:#5180c1"/><path d="M15.79,14.37H14.08a.19.19,0,0,1-.18-.17v-.79a.19.19,0,0,1,.18-.18h1.71a.19.19,0,0,1,.17.18v.79A.19.19,0,0,1,15.79,14.37ZM14.25,14h1.32v-.44H14.25Z" transform="translate(-1.08)" style="fill:#5180c1"/><path d="M18.5,14.37H16.79a.18.18,0,0,1-.17-.17v-.79a.18.18,0,0,1,.17-.18H18.5a.18.18,0,0,1,.17.18v.79C18.72,14.28,18.63,14.37,18.5,14.37ZM17,14h1.31v-.44H17Z" transform="translate(-1.08)" style="fill:#5180c1"/><path d="M21.21,14.37h-1.7a.19.19,0,0,1-.18-.17v-.79a.19.19,0,0,1,.18-.18h1.7a.19.19,0,0,1,.18.18v.79C21.43,14.28,21.34,14.37,21.21,14.37ZM19.68,14H21v-.44H19.68Z" transform="translate(-1.08)" style="fill:#5180c1"/><path d="M20.47,11a.19.19,0,0,1-.18-.17V9.91a.19.19,0,0,1,.18-.18.18.18,0,0,1,.17.18v.92A.18.18,0,0,1,20.47,11Z" transform="translate(-1.08)" style="fill:#5180c1"/><path d="M19.37,11a.19.19,0,0,1-.17-.17V9.91a.18.18,0,1,1,.35,0v.92A.19.19,0,0,1,19.37,11Z" transform="translate(-1.08)" style="fill:#5180c1"/><path d="M18.28,11a.18.18,0,0,1-.17-.17V9.91a.17.17,0,1,1,.34,0v.92A.18.18,0,0,1,18.28,11Z" transform="translate(-1.08)" style="fill:#5180c1"/><path d="M17.19,11a.19.19,0,0,1-.18-.17V9.91a.18.18,0,1,1,.35,0v.92A.19.19,0,0,1,17.19,11Z" transform="translate(-1.08)" style="fill:#5180c1"/><path d="M16.09,11a.18.18,0,0,1-.17-.17V9.91a.18.18,0,0,1,.17-.18.19.19,0,0,1,.18.18v.92A.19.19,0,0,1,16.09,11Z" transform="translate(-1.08)" style="fill:#5180c1"/><path d="M10.27,16.56s-.09,0-.13,0h0v-.05l0,0h0a2.67,2.67,0,0,0-.35-.22.19.19,0,0,1,.17-.35,1.84,1.84,0,0,1,.4.26l0,.05,0,0,0,0,0,.05c.09.09.09.22,0,.26A.38.38,0,0,0,10.27,16.56Z" transform="translate(-1.08)" style="fill:#5180c1"/><path d="M10.36,16.65a.43.43,0,0,1-.18-.09h0c0-.09,0-.22.05-.26s.22-.05.26,0v.05h0a.21.21,0,0,1,0,.26Z" transform="translate(-1.08)" style="fill:#5180c1"/><path d="M10.4,16.74a.24.24,0,0,1-.17-.09v0a.2.2,0,0,1,.09-.26.21.21,0,0,1,.26.09v0a.22.22,0,0,1-.09.27Z" transform="translate(-1.08)" style="fill:#5180c1"/><path d="M10.49,17a.18.18,0,0,1-.17-.17v-.13a.19.19,0,0,1,.13-.26.19.19,0,0,1,.26.13s0,0,0,.08v.18c-.08.09-.13.17-.26.17Z" transform="translate(-1.08)" style="fill:#5180c1"/><path d="M10.49,17.09h0c-.13-.05-.22-.14-.17-.22h0c0-.09.08-.22.17-.22s.22.09.22.17v.09A.28.28,0,0,1,10.49,17.09Z" transform="translate(-1.08)" style="fill:#5180c1"/><path d="M10,17.7a.43.43,0,0,1-.18-.09c0-.09,0-.22.05-.26a.8.8,0,0,0,.39-.48h0a.2.2,0,0,1,.4,0v0a1,1,0,0,1-.57.7C10.1,17.7,10.05,17.7,10,17.7Z" transform="translate(-1.08)" style="fill:#5180c1"/><path d="M10.49,18.44h0c-.13,0-.22-.09-.17-.22v0a.18.18,0,0,1,.17-.18.19.19,0,0,1,.18.18v.09A.19.19,0,0,1,10.49,18.44Z" transform="translate(-1.08)" style="fill:#5180c1"/><path d="M10.49,18.49h0c-.13,0-.22-.14-.17-.22h0a.19.19,0,0,1,.21-.18.2.2,0,0,1,.18.22v0A.34.34,0,0,1,10.49,18.49Z" transform="translate(-1.08)" style="fill:#5180c1"/><path d="M10.45,18.53h0c-.08,0-.17-.13-.13-.22h0c0-.09.13-.17.22-.17s.18.13.18.21v.09A.34.34,0,0,1,10.45,18.53Z" transform="translate(-1.08)" style="fill:#5180c1"/><path d="M10.45,18.57h0a.22.22,0,0,1-.13-.26h0c.05-.09.13-.17.22-.13s.18.13.13.22v0C10.62,18.53,10.53,18.57,10.45,18.57Z" transform="translate(-1.08)" style="fill:#5180c1"/><path d="M10.4,18.7s-.08,0-.08,0a.16.16,0,0,1-.05-.26h0a.32.32,0,0,1,.26-.13.26.26,0,0,1,.14.26s0,0-.05,0,0,.05,0,.05A.36.36,0,0,1,10.4,18.7Z" transform="translate(-1.08)" style="fill:#5180c1"/><path d="M10.36,18.7a.17.17,0,0,1-.13,0c-.09,0-.09-.17-.05-.26h0a.19.19,0,1,1,.31.22v0S10.45,18.7,10.36,18.7Z" transform="translate(-1.08)" style="fill:#5180c1"/><path d="M10.27,18.84a.15.15,0,0,1-.13-.05.16.16,0,0,1,0-.26l0,0,.05,0c0-.09.17-.09.26,0s.09.17,0,.26a0,0,0,0,1,0,0l0,.05A.26.26,0,0,1,10.27,18.84Z" transform="translate(-1.08)" style="fill:#5180c1"/><path d="M10.18,18.92s-.08,0-.13-.08a.22.22,0,0,1,0-.27l0,0c.08-.09.22-.09.26,0s.09.22,0,.26l0,.05C10.32,18.92,10.27,18.92,10.18,18.92Z" transform="translate(-1.08)" style="fill:#5180c1"/><path d="M10.1,19a.31.31,0,0,1-.18-.09.16.16,0,0,1,.05-.26,0,0,0,0,0,0,0,.18.18,0,1,1,.26.26l0,0C10.18,19,10.14,19,10.1,19Z" transform="translate(-1.08)" style="fill:#5180c1"/><path d="M10,19.1A.43.43,0,0,1,9.83,19c0-.09,0-.22.05-.26h0c.09-.05.22-.05.26,0s.05.22,0,.26,0,0,0,.05S10.05,19.1,10,19.1Z" transform="translate(-1.08)" style="fill:#5180c1"/><path d="M10.49,19.84h0c-.13,0-.22-.13-.17-.22v0a.18.18,0,0,1,.17-.18.19.19,0,0,1,.18.18v.09A.19.19,0,0,1,10.49,19.84Z" transform="translate(-1.08)" style="fill:#5180c1"/><path d="M10.49,19.89h0c-.13-.05-.22-.14-.17-.22h0a.19.19,0,0,1,.21-.18.2.2,0,0,1,.18.22v.09A.34.34,0,0,1,10.49,19.89Z" transform="translate(-1.08)" style="fill:#5180c1"/><path d="M10,20.5a.34.34,0,0,1-.18-.09c0-.09,0-.22.05-.26a.71.71,0,0,0,.39-.44v0c0-.09.13-.18.22-.18s.18.13.18.22,0,0-.05.09a1.35,1.35,0,0,1-.52.61C10.05,20.46,10.05,20.5,10,20.5Z" transform="translate(-1.08)" style="fill:#5180c1"/><path d="M10.49,21.24h0c-.13,0-.22-.13-.17-.22v0a.18.18,0,0,1,.17-.17.18.18,0,0,1,.18.17v.09A.18.18,0,0,1,10.49,21.24Z" transform="translate(-1.08)" style="fill:#5180c1"/><path d="M10.49,21.29h0c-.13-.05-.22-.13-.17-.22h0a.19.19,0,0,1,.21-.18.2.2,0,0,1,.18.22v.09A.34.34,0,0,1,10.49,21.29Z" transform="translate(-1.08)" style="fill:#5180c1"/><path d="M10.45,22.38c-.09,0-.18,0-.18-.13a.8.8,0,0,0-.39-.39.23.23,0,0,1-.09-.18.19.19,0,0,1,.09-.17c.17-.14.3-.22.35-.35h0v-.09h0V21c0-.08.13-.17.22-.17s.17.13.17.22,0,0,0,.09v.08a0,0,0,0,1-.05.05.54.54,0,0,1-.26.3.92.92,0,0,1,.31.44.19.19,0,0,1-.13.26C10.49,22.38,10.49,22.38,10.45,22.38Z" transform="translate(-1.08)" style="fill:#5180c1"/><path d="M10.45,22.73h0c-.08,0-.17-.13-.13-.22h0v0h0a.2.2,0,1,1,.4,0v0h0v0h0A.25.25,0,0,1,10.45,22.73Z" transform="translate(-1.08)" style="fill:#5180c1"/><path d="M10.4,22.86s0,0-.08,0a.2.2,0,0,1-.09-.26h0a.3.3,0,0,1,.26-.14.32.32,0,0,1,.13.27,0,0,0,0,1,0,0C10.58,22.82,10.49,22.86,10.4,22.86Z" transform="translate(-1.08)" style="fill:#5180c1"/><path d="M10.4,22.86s-.08,0-.08,0a.2.2,0,0,1-.09-.26v0a.21.21,0,0,1,.26-.09.22.22,0,0,1,.09.27v0A.17.17,0,0,1,10.4,22.86Z" transform="translate(-1.08)" style="fill:#5180c1"/><path d="M21.78,23.56H10.71a1.18,1.18,0,0,1-.83-.35c-.05,0-.05-.09-.05-.17s.05-.13.09-.13.18-.14.22-.22h0a.17.17,0,0,1,.26-.05.18.18,0,0,1,0,.27l0,0a.23.23,0,0,0-.08.13,1.07,1.07,0,0,0,.39.09H21.78a.73.73,0,0,0,.74-.75V8.6a.77.77,0,0,0-.74-.75H17.62a.18.18,0,0,1,0-.35h4.16a1.17,1.17,0,0,1,1.14,1.14V22.47A1.12,1.12,0,0,1,21.78,23.56Z" transform="translate(-1.08)" style="fill:#5180c1"/><path d="M22.7,22.73h-11a.18.18,0,0,1,0-.35h11a.18.18,0,1,1,0,.35Z" transform="translate(-1.08)" style="fill:#5180c1"/><path d="M4.89,15.77a.16.16,0,0,1-.13,0,.21.21,0,0,1-.09-.13V1.11A1.08,1.08,0,0,1,5.76,0h8.89a.19.19,0,0,1,.17.17c0,.09-.09.22-.17.22H5.76a.7.7,0,0,0-.7.7V15.34c.09,0,.13-.05.22-.05s.44,0,.7-.09h.09c.09,0,.22.09.22.18s-.09.22-.18.22h0a3,3,0,0,0-.66.09,2,2,0,0,0-.52.08Z" transform="translate(-1.08)" style="fill:#5180c1"/><path d="M6.11,15.6a.19.19,0,0,1-.17-.18c0-.08.09-.22.17-.22H6.2c.09,0,.22.09.22.18s-.09.22-.17.22Z" transform="translate(-1.08)" style="fill:#5180c1"/><path d="M6.42,15.6a.18.18,0,0,1-.17-.18c0-.08.08-.22.17-.22h.09c.09,0,.22.09.22.18s-.09.22-.18.22H6.42Z" transform="translate(-1.08)" style="fill:#5180c1"/><path d="M6.55,15.6a.18.18,0,0,1,0-.35h.09a.18.18,0,0,1,0,.35Z" transform="translate(-1.08)" style="fill:#5180c1"/><path d="M7,15.6H6.86a.2.2,0,0,1-.18-.22.18.18,0,0,1,.22-.18H7c.09,0,.17.09.17.22S7,15.6,7,15.6Z" transform="translate(-1.08)" style="fill:#5180c1"/><path d="M7.16,15.6H7a.2.2,0,0,1-.17-.22c0-.13.09-.18.22-.18h.08a.2.2,0,0,1,.18.22C7.38,15.51,7.3,15.6,7.16,15.6Z" transform="translate(-1.08)" style="fill:#5180c1"/><path d="M7.38,15.6H7.25c-.09,0-.17-.09-.17-.22a.2.2,0,0,1,.22-.18h.13a.2.2,0,0,1,.17.22C7.6,15.55,7.51,15.6,7.38,15.6Z" transform="translate(-1.08)" style="fill:#5180c1"/><path d="M7.56,15.64H7.47c-.09,0-.17-.09-.17-.22a.19.19,0,0,1,.21-.17H7.6a.2.2,0,0,1,.18.22C7.73,15.55,7.65,15.64,7.56,15.64Z" transform="translate(-1.08)" style="fill:#5180c1"/><path d="M7.65,15.64H7.56a.2.2,0,0,1-.18-.22c0-.13.09-.17.22-.17h.05a.2.2,0,0,1,.17.22A.19.19,0,0,1,7.65,15.64Z" transform="translate(-1.08)" style="fill:#5180c1"/><path d="M8,15.69H7.91c-.09,0-.18-.14-.18-.22s.13-.18.22-.18H8c.09,0,.17.13.17.22S8.08,15.69,8,15.69Z" transform="translate(-1.08)" style="fill:#5180c1"/><path d="M8.35,15.73h0c-.09,0-.14,0-.18,0S8,15.55,8,15.47s.13-.18.21-.18.14,0,.18.05.17.13.17.21S8.43,15.73,8.35,15.73Z" transform="translate(-1.08)" style="fill:#5180c1"/><path d="M9.79,16.17s0,0-.09-.05a6.93,6.93,0,0,0-1.31-.43c-.09,0-.18-.14-.18-.22s.14-.18.22-.18a7.47,7.47,0,0,1,1.14.31v-7a1.16,1.16,0,0,1,1.14-1.14H17.4V3.21A.19.19,0,0,1,17.58,3a.18.18,0,0,1,.17.17V7.63a.18.18,0,0,1-.17.18H10.71a.77.77,0,0,0-.74.74V16a.22.22,0,0,1-.09.17C9.83,16.17,9.83,16.17,9.79,16.17Z" transform="translate(-1.08)" style="fill:#5180c1"/><path d="M17.62,3.39h-2.1a1.08,1.08,0,0,1-1.09-1.1V.19c0-.08,0-.13.13-.17a.19.19,0,0,1,.22,0l3,3a.19.19,0,0,1,.05.22C17.8,3.34,17.71,3.39,17.62,3.39ZM14.82.67V2.29a.69.69,0,0,0,.7.7h1.62Z" transform="translate(-1.08)" style="fill:#5180c1"/><path d="M9.88,2H6.25a.19.19,0,0,1-.18-.17.19.19,0,0,1,.18-.18H9.88a.18.18,0,0,1,0,.35Z" transform="translate(-1.08)" style="fill:#5180c1"/><path d="M12.28,3h-6a.19.19,0,0,1-.18-.17.19.19,0,0,1,.18-.18h6.08a.18.18,0,0,1,.17.18A.2.2,0,0,1,12.28,3Z" transform="translate(-1.08)" style="fill:#5180c1"/><path d="M7.65,6.93A1.62,1.62,0,1,1,9.26,5.31,1.64,1.64,0,0,1,7.65,6.93Zm0-2.8A1.23,1.23,0,1,0,8.87,5.36,1.28,1.28,0,0,0,7.65,4.13Z" transform="translate(-1.08)" style="fill:#5180c1"/><path d="M6.68,24a7.31,7.31,0,0,1-2.75-.44c-.79-.3-1.23-.7-1.23-1.18a1,1,0,0,1,.57-.87c0-.05.13-.05.22,0s.09,0,.13.08a.22.22,0,0,1,.09.27.22.22,0,0,1-.27.08,0,0,0,0,1,0,0,.69.69,0,0,0-.31.48c0,.57,1.49,1.23,3.59,1.23,1.58,0,3-.4,3.46-.92v-.05s0,0,0-.08h0v-.09h0v-.18a.88.88,0,0,0-.26-.35,1.42,1.42,0,0,1-.3.13s-.09.05-.14.05h0A.19.19,0,0,1,9.18,22a.2.2,0,0,1,.13-.27h0c.05,0,.09,0,.13,0a1.91,1.91,0,0,0,.35-.17.18.18,0,0,1,.22,0,1.32,1.32,0,0,1,.53.61.59.59,0,0,1,0,.26v.18h0s0,.08,0,.13v0h0v0c0,.05-.05.09-.09.14a0,0,0,0,1,0,0C9.92,23.56,8.43,24,6.68,24Z" transform="translate(-1.08)" style="fill:#5180c1"/><path d="M9.05,22.29c-.09,0-.18,0-.18-.13A.23.23,0,0,1,9,21.9h.09a.23.23,0,0,1,.26.13c.05.09,0,.22-.13.26H9.05Z" transform="translate(-1.08)" style="fill:#5180c1"/><path d="M8.74,22.38c-.09,0-.18,0-.18-.13A.17.17,0,0,1,8.7,22c.08,0,.13,0,.17,0H9c.09,0,.22,0,.26.13s0,.22-.13.26H9c-.09,0-.13,0-.22,0A0,0,0,0,0,8.74,22.38Z" transform="translate(-1.08)" style="fill:#5180c1"/><path d="M7.82,22.56a.18.18,0,0,1-.17-.18c0-.09,0-.22.17-.22l.22,0L8.7,22c.08,0,.21,0,.21.13a.16.16,0,0,1-.13.22l-.65.13-.31.09Z" transform="translate(-1.08)" style="fill:#5180c1"/><path d="M7.73,22.56a.19.19,0,0,1-.17-.18c0-.09.09-.22.17-.22h.09c.09,0,.22.05.22.18s0,.22-.18.22Z" transform="translate(-1.08)" style="fill:#5180c1"/><path d="M7.51,22.56a.19.19,0,0,1-.17-.18c0-.09.09-.22.17-.22H7.6c.09,0,.22.09.22.18s-.09.22-.17.22H7.51Z" transform="translate(-1.08)" style="fill:#5180c1"/><path d="M7.34,22.6a.19.19,0,0,1-.18-.18c0-.08.09-.21.18-.21h.09c.08,0,.22.08.22.17s-.09.22-.18.22Z" transform="translate(-1.08)" style="fill:#5180c1"/><path d="M7.16,22.6A.19.19,0,0,1,7,22.42c0-.08.09-.21.17-.21h.09c.09,0,.22.08.22.17s-.09.22-.17.22Z" transform="translate(-1.08)" style="fill:#5180c1"/><path d="M7,22.6a.19.19,0,0,1-.17-.18c0-.08.09-.21.17-.21h.18c.09,0,.22.08.22.17s-.09.22-.18.22Z" transform="translate(-1.08)" style="fill:#5180c1"/><path d="M6.81,22.6a.18.18,0,0,1,0-.35H7a.19.19,0,0,1,.21.17c0,.09-.08.22-.17.22H7A.19.19,0,0,0,6.81,22.6Z" transform="translate(-1.08)" style="fill:#5180c1"/><path d="M6.55,22.6H6.42c-.09,0-.17-.09-.17-.22a.18.18,0,0,1,.17-.17h.13a.18.18,0,0,1,.18.17C6.73,22.47,6.68,22.6,6.55,22.6Z" transform="translate(-1.08)" style="fill:#5180c1"/><path d="M6.38,22.6H6.2c-.09,0-.17-.09-.17-.22s.08-.17.22-.17h.17a.19.19,0,0,1,.18.21A.2.2,0,0,1,6.38,22.6Z" transform="translate(-1.08)" style="fill:#5180c1"/><path d="M6.2,22.6H6.11a.2.2,0,0,1-.17-.22c0-.13.09-.17.22-.17h.09a.19.19,0,0,1,.17.21A.2.2,0,0,1,6.2,22.6Z" transform="translate(-1.08)" style="fill:#5180c1"/><path d="M6.07,22.6H5.94a.2.2,0,0,1-.18-.22c0-.09.09-.17.22-.17h.09a.2.2,0,0,1,0,.39Z" transform="translate(-1.08)" style="fill:#5180c1"/><path d="M5.9,22.56H5.81a.2.2,0,0,1,0-.4h.09c.09,0,.17.09.17.22S6,22.56,5.9,22.56Z" transform="translate(-1.08)" style="fill:#5180c1"/><path d="M5.68,22.56H5.54a.2.2,0,0,1,0-.4h.09a.2.2,0,0,1,.17.22A.19.19,0,0,1,5.68,22.56Z" transform="translate(-1.08)" style="fill:#5180c1"/><path d="M5.54,22.56h0l-.26,0a5.59,5.59,0,0,1-.87-.17c-.09,0-.13-.05-.22-.05s-.05,0-.09,0h0s0,0-.09,0a.21.21,0,0,1,.13-.4s0,0,.09.05h.13l.17,0a4.31,4.31,0,0,0,.84.17l.21.05c.09,0,.18.13.18.22S5.68,22.56,5.54,22.56Z" transform="translate(-1.08)" style="fill:#5180c1"/><path d="M4,22.16H3.93c-.05,0-.05,0-.09,0a.21.21,0,0,1-.09-.26A.2.2,0,0,1,4,21.77s0,0,.09,0a.26.26,0,0,1,.13.26C4.14,22.12,4.1,22.16,4,22.16Z" transform="translate(-1.08)" style="fill:#5180c1"/><path d="M3.71,22.07H3.62s0,0,0,0-.14-.17-.09-.26a.21.21,0,0,1,.26-.09,0,0,0,0,1,0,0,.21.21,0,0,1,.09.27S3.79,22.07,3.71,22.07Z" transform="translate(-1.08)" style="fill:#5180c1"/><path d="M6.68,22.6H5.24a4.73,4.73,0,0,1-.88-.18c-.08,0-.13,0-.22,0s0,0-.08,0,0,0-.09-.05a.19.19,0,0,1-.09,0s0,0-.09,0a1.89,1.89,0,0,0-.21-.09,0,0,0,0,1-.05-.05s-.09,0-.13,0a1.18,1.18,0,0,1-.66-.66A.82.82,0,0,1,2.66,21a1.06,1.06,0,0,1,.57-.87h0a.2.2,0,0,1,.21,0,.2.2,0,0,1,.09.26.21.21,0,0,1-.13.09.74.74,0,0,0-.35.52.37.37,0,0,0,0,.18,1.15,1.15,0,0,0,.53.44s0,0,.09,0a0,0,0,0,1,0,0c0,.05.13.05.18.09s0,0,.08.05,0,0,.09,0,0,0,.09,0,0,0,.09,0h0l.17,0a5.06,5.06,0,0,0,.83.18h2.8l.66-.14h0l.17,0C9,22,9,22,9,22H9c.05,0,.05,0,.09,0a1.52,1.52,0,0,0,.31-.13h0s.09,0,.13,0a1.92,1.92,0,0,0,.7-.53v0h0v-.09h0v0a.66.66,0,0,0-.3-.48.78.78,0,0,1-.18.08.2.2,0,0,1-.26-.08.21.21,0,0,1,.09-.27.69.69,0,0,0,.21-.13.22.22,0,0,1,.22,0,1,1,0,0,1,.57.88v.09h0v.08h0c0,.05,0,.05,0,.09v.13h0a1.88,1.88,0,0,1-.88.7s-.08.05-.13.05h0l-.35.13s0,0-.09,0h0s-.09,0-.09,0a1.49,1.49,0,0,1-.22,0h0l-.65.13H6.68ZM10.27,21Z" transform="translate(-1.08)" style="fill:#5180c1"/><path d="M9.62,20.67a.18.18,0,0,1-.18-.13.21.21,0,0,1,.09-.26h0a.21.21,0,0,1,.26.09.2.2,0,0,1-.08.26s-.05,0-.05,0Z" transform="translate(-1.08)" style="fill:#5180c1"/><path d="M9.05,20.89c-.09,0-.18,0-.18-.13A.23.23,0,0,1,9,20.5h.09l.35-.13a.2.2,0,0,1,.26.09.21.21,0,0,1-.08.26c-.14,0-.22.09-.36.13H9.18A.38.38,0,0,1,9.05,20.89Z" transform="translate(-1.08)" style="fill:#5180c1"/><path d="M7.73,21.16A.19.19,0,0,1,7.56,21c0-.09.09-.22.17-.22s.18,0,.22,0h.13A5,5,0,0,0,9,20.5a.23.23,0,0,1,.26.13c.05.09,0,.22-.13.26a5.87,5.87,0,0,1-1,.22H8c-.09,0-.18.05-.27.05Z" transform="translate(-1.08)" style="fill:#5180c1"/><path d="M7.51,21.16A.19.19,0,0,1,7.34,21c0-.09.09-.22.17-.22H7.6c.09,0,.22.09.22.18s-.09.22-.17.22Z" transform="translate(-1.08)" style="fill:#5180c1"/><path d="M7.34,21.2A.19.19,0,0,1,7.16,21c0-.08.09-.21.18-.21h.09c.08,0,.22.08.22.17s-.09.22-.18.22Z" transform="translate(-1.08)" style="fill:#5180c1"/><path d="M7.16,21.2A.19.19,0,0,1,7,21c0-.08.09-.21.17-.21h.09c.09,0,.22.08.22.17s-.09.22-.17.22Z" transform="translate(-1.08)" style="fill:#5180c1"/><path d="M7,21.2A.19.19,0,0,1,6.86,21c0-.08.09-.21.17-.21h.18c.09,0,.22.08.22.17s-.09.22-.18.22Z" transform="translate(-1.08)" style="fill:#5180c1"/><path d="M6.81,21.2a.18.18,0,0,1,0-.35H7a.19.19,0,0,1,.21.17c0,.09-.08.22-.17.22H7A.19.19,0,0,0,6.81,21.2Z" transform="translate(-1.08)" style="fill:#5180c1"/><path d="M6.55,21.2H6.42c-.09,0-.17-.09-.17-.22a.18.18,0,0,1,.17-.17h.13a.18.18,0,0,1,.18.17C6.73,21.07,6.68,21.2,6.55,21.2Z" transform="translate(-1.08)" style="fill:#5180c1"/><path d="M6.38,21.2H6.2C6.11,21.2,6,21.11,6,21s.08-.17.22-.17h.17A.19.19,0,0,1,6.6,21,.2.2,0,0,1,6.38,21.2Z" transform="translate(-1.08)" style="fill:#5180c1"/><path d="M6.2,21.2H6.11A.2.2,0,0,1,5.94,21c0-.13.09-.17.22-.17h.09a.19.19,0,0,1,.17.21A.2.2,0,0,1,6.2,21.2Z" transform="translate(-1.08)" style="fill:#5180c1"/><path d="M6.07,21.2H5.94A.2.2,0,0,1,5.76,21c0-.09.09-.17.22-.17h.09a.2.2,0,0,1,0,.39Z" transform="translate(-1.08)" style="fill:#5180c1"/><path d="M5.9,21.16H5.81a.2.2,0,0,1,0-.4h.09c.09,0,.17.09.17.22S6,21.16,5.9,21.16Z" transform="translate(-1.08)" style="fill:#5180c1"/><path d="M5.68,21.16h0a.52.52,0,0,1-.27-.05H5.28a7.14,7.14,0,0,1-1.62-.44s-.08,0-.13-.08a.22.22,0,0,1-.09-.27.22.22,0,0,1,.27-.08s.08,0,.13,0a5.48,5.48,0,0,0,1.53.39H5.5c.09,0,.18,0,.22,0a.2.2,0,0,1,.18.22C5.85,21.07,5.76,21.16,5.68,21.16Z" transform="translate(-1.08)" style="fill:#5180c1"/><path d="M3.58,20.59c-.05,0-.09,0-.09-.05H3.44a.14.14,0,0,0-.08,0,.17.17,0,0,1,0-.26.18.18,0,0,1,.27,0l0,0h.09a.2.2,0,0,1,.08.26C3.71,20.54,3.66,20.59,3.58,20.59Z" transform="translate(-1.08)" style="fill:#5180c1"/><path d="M6.68,21.2h-1a.68.68,0,0,1-.26,0H5.24a7.71,7.71,0,0,1-1.62-.44s-.09,0-.13-.09H3.44c.05-.09,0-.09,0-.09s0,0-.08,0,0,0,0,0h0a1.12,1.12,0,0,1-.61-.88.83.83,0,0,1,.13-.44.16.16,0,0,1,.26,0,.16.16,0,0,1,.05.26c-.05.09-.09.13-.09.22a.71.71,0,0,0,.39.53h.05l0,0s.05,0,.05,0h0s.09,0,.13,0a4.61,4.61,0,0,0,1.53.39h.13c.09,0,.18,0,.22,0h2.1a.43.43,0,0,0,.22,0h.13A4.29,4.29,0,0,0,9,20.41H9c.05,0,.05,0,.09,0l.35-.13s.09,0,.13,0h0l0,0c.35-.18.57-.35.61-.57v0h0a.59.59,0,0,0-.35-.49A.23.23,0,0,1,9.79,19a.22.22,0,0,1,.09-.27h0a.22.22,0,0,1,.22,0,1,1,0,0,1,.57.88v.09h0v.08h0c0,.05,0,.05-.05.09a1.46,1.46,0,0,1-.83.79l0,0a0,0,0,0,0-.05,0s-.08,0-.13,0l-.35.13s0,0-.09.05h0a8.73,8.73,0,0,1-1,.22H8a.63.63,0,0,0-.27,0H6.68Zm3.2-2.5.09.18-.09-.18Z" transform="translate(-1.08)" style="fill:#5180c1"/><path d="M8,19.71a.19.19,0,0,1-.18-.17c0-.09,0-.22.18-.22s.35-.05.48-.09L9.4,19a1.45,1.45,0,0,0,.43-.22c.05,0,.05-.05.09-.05s.22,0,.26.05.05.22,0,.26a.14.14,0,0,1-.09,0,1.41,1.41,0,0,1-.48.22,3.28,3.28,0,0,1-1,.27,1.11,1.11,0,0,1-.61.17Z" transform="translate(-1.08)" style="fill:#5180c1"/><path d="M7.65,19.75a.18.18,0,0,1-.18-.17c0-.09.09-.22.18-.22h.08c.09,0,.22.09.22.18s-.09.21-.17.21Z" transform="translate(-1.08)" style="fill:#5180c1"/><path d="M7.51,19.75a.18.18,0,0,1-.17-.17c0-.09.09-.22.17-.22H7.6c.09,0,.22.09.22.18s-.09.21-.17.21Z" transform="translate(-1.08)" style="fill:#5180c1"/><path d="M7.16,19.8A.19.19,0,0,1,7,19.62c0-.08.09-.22.17-.22h.09c.09,0,.22.09.22.18s-.09.22-.17.22Z" transform="translate(-1.08)" style="fill:#5180c1"/><path d="M7,19.8a.19.19,0,0,1-.17-.18c0-.08.09-.22.17-.22h.18c.09,0,.22.09.22.18s-.09.22-.18.22Z" transform="translate(-1.08)" style="fill:#5180c1"/><path d="M6.81,19.8a.18.18,0,0,1,0-.35H7a.19.19,0,0,1,.17.17c0,.09-.09.22-.17.22h0S6.86,19.8,6.81,19.8Z" transform="translate(-1.08)" style="fill:#5180c1"/><path d="M6.55,19.8H6.42c-.09,0-.17-.09-.17-.22a.18.18,0,0,1,.17-.18h.13a.19.19,0,0,1,.18.18C6.73,19.67,6.68,19.8,6.55,19.8Z" transform="translate(-1.08)" style="fill:#5180c1"/><path d="M6.38,19.8H6.2c-.09,0-.17-.09-.17-.22a.2.2,0,0,1,.22-.18h.17a.2.2,0,0,1,0,.4Z" transform="translate(-1.08)" style="fill:#5180c1"/><path d="M6.2,19.8H6.11a.2.2,0,0,1,0-.4h.09a.2.2,0,0,1,0,.4Z" transform="translate(-1.08)" style="fill:#5180c1"/><path d="M5.9,19.75H5.81a.19.19,0,0,1-.18-.21.2.2,0,0,1,.22-.18h.09c.09,0,.17.09.17.22S6,19.75,5.9,19.75Z" transform="translate(-1.08)" style="fill:#5180c1"/><path d="M5.76,19.75H5.63a.19.19,0,0,1-.17-.21.2.2,0,0,1,.22-.18h.08a.2.2,0,0,1,.18.22A.18.18,0,0,1,5.76,19.75Z" transform="translate(-1.08)" style="fill:#5180c1"/><path d="M5.41,19.71h0a3.63,3.63,0,0,1-.52-.09H4.8c-.13,0-.26,0-.39-.08s-.13-.05-.22-.05-.05,0-.09,0S4,19.4,4,19.4s0,0-.09,0a.21.21,0,0,1-.09-.26A.22.22,0,0,1,4.06,19h0s.09,0,.13,0h0a1.65,1.65,0,0,0,.21.05,3.58,3.58,0,0,1,.35.09h.09c.18,0,.31,0,.48.08s.18.13.18.22A.2.2,0,0,1,5.41,19.71Z" transform="translate(-1.08)" style="fill:#5180c1"/><path d="M4,19.36h0c-.05,0-.05,0-.09,0a.22.22,0,0,1-.09-.27A.21.21,0,0,1,4,19h0a.22.22,0,0,1,.13.26C4.1,19.32,4.06,19.36,4,19.36Z" transform="translate(-1.08)" style="fill:#5180c1"/><path d="M3.79,19.27H3.71s0,0,0,0a.2.2,0,0,1,.18-.35h0a.21.21,0,0,1,.09.26A.18.18,0,0,1,3.79,19.27Z" transform="translate(-1.08)" style="fill:#5180c1"/><path d="M3,19.45s-.09,0-.09-.05a.16.16,0,0,1,0-.26,2.19,2.19,0,0,1,.43-.44.22.22,0,0,1,.22,0c.05.05.09.05.13.09h.09a.21.21,0,0,1,.09.26.2.2,0,0,1-.26.09H3.49l-.22.22C3.14,19.4,3.09,19.45,3,19.45Z" transform="translate(-1.08)" style="fill:#5180c1"/><path d="M6.68,19.8h-1a.48.48,0,0,1-.26-.05c-.18,0-.35,0-.53-.08H4.76c-.13-.05-.27-.05-.4-.09a.45.45,0,0,1-.22-.09l-.08,0S4,19.4,3.93,19.4H3.88a0,0,0,0,1,0,0s-.09,0-.13,0a0,0,0,0,1,0-.05s-.08,0-.13-.08,0,0,0-.05-.09,0-.13-.09a1.08,1.08,0,0,1-.57-.78v-.09c0-.22.09-.53.57-.88a.22.22,0,0,1,.22,0,4.71,4.71,0,0,0,2.1.62.61.61,0,0,1,.26,0h.13a.2.2,0,0,1,.18.22c0,.09-.09.17-.22.17H5.85a.59.59,0,0,1-.26,0,5.39,5.39,0,0,1-2.15-.61c-.13.13-.3.26-.3.44v0c0,.22.22.39.39.48s.09,0,.13.09,0,0,0,0,.08.05.13.09h0c.05,0,.09,0,.13,0h0l0,0s.09,0,.13,0l.09,0a1.49,1.49,0,0,0,.22.05c.13,0,.22,0,.35.09H5c.17,0,.3,0,.48.08s.17.05.26.05h2.1a.47.47,0,0,0,.26-.05c.18,0,.35,0,.48-.08.35-.09.66-.18.92-.27a1.21,1.21,0,0,0,.44-.22c.05,0,.05,0,.09,0h0a0,0,0,0,0,0,0s0-.05.09-.05l0,0,.05,0h0l0,0,.05,0,0,0,0,0h0v0h0v-.05h0v0a.53.53,0,0,0-.3-.44,6.22,6.22,0,0,1-2.24.61.5.5,0,0,0-.26,0H7.43c-.09,0-.22-.09-.22-.18S7.3,18,7.38,18h.13a.63.63,0,0,0,.27,0,5.59,5.59,0,0,0,2.1-.61.18.18,0,0,1,.22,0,1,1,0,0,1,.57.87v.05h0v0h0v.09h0v0s0,0-.05.09a0,0,0,0,1,0,0v.05h0v.08h0l-.05.05,0,0,0,.05,0,0,0,0,0,0-.09.08a0,0,0,0,0-.05.05h0s0,0-.08,0a1.51,1.51,0,0,1-.48.22,3.47,3.47,0,0,1-1,.26c-.17.05-.35.05-.52.09a.63.63,0,0,0-.27,0h-1A.42.42,0,0,1,6.68,19.8Z" transform="translate(-1.08)" style="fill:#5180c1"/><path d="M7.16,18.4A.19.19,0,0,1,7,18.22c0-.08.09-.22.17-.22h.09c.09,0,.22.09.22.18s-.09.22-.17.22Z" transform="translate(-1.08)" style="fill:#5180c1"/><path d="M7,18.4a.19.19,0,0,1-.17-.18c0-.08.09-.22.17-.22h0c.08,0,.22.09.22.18s-.09.22-.18.22Z" transform="translate(-1.08)" style="fill:#5180c1"/><path d="M6.81,18.4a.18.18,0,0,1,0-.35H7c.08,0,.21.09.21.17s-.08.22-.17.22H6.9S6.86,18.4,6.81,18.4Z" transform="translate(-1.08)" style="fill:#5180c1"/><path d="M6.55,18.4H6.38a.2.2,0,0,1,0-.4h.13a.19.19,0,0,1,.18.18C6.73,18.27,6.68,18.4,6.55,18.4Z" transform="translate(-1.08)" style="fill:#5180c1"/><path d="M6.38,18.4H6.29a.2.2,0,0,1,0-.4h0a.2.2,0,0,1,.17.22A.19.19,0,0,1,6.38,18.4Z" transform="translate(-1.08)" style="fill:#5180c1"/><path d="M6.2,18.4H6.11a.2.2,0,0,1,0-.4h.09a.2.2,0,0,1,0,.4Z" transform="translate(-1.08)" style="fill:#5180c1"/><path d="M6.68,18.4H5.76a.5.5,0,0,1-.26,0A4.71,4.71,0,0,1,3,17.48a1,1,0,0,1-.35-.7c0-.7,1-1.27,2.58-1.53.22-.05.44-.05.7-.09H7.65a.53.53,0,0,1,.26,0H8s.13,0,.17.05a.31.31,0,0,1,.18,0h.08a3.9,3.9,0,0,1,1.8.7l0,0,.05,0h0l0,0,0,.05s.09.08.09.13v0s0,.05,0,.05v0s.05.09.05.09,0,0,0,.08v.22h0v.09h0v0c-.13.7-1.22,1.23-2.8,1.4a.48.48,0,0,0-.26,0H6.68Zm-.13-2.8H6a3,3,0,0,0-.66.09c-1.49.21-2.23.74-2.23,1.13a.63.63,0,0,0,.22.4A4.17,4.17,0,0,0,5.63,18a.63.63,0,0,1,.27,0H7.56a.59.59,0,0,0,.26,0c1.58-.17,2.41-.7,2.5-1.09h0v-.09h0v0a0,0,0,0,0-.05,0h0s0,0,0-.09l-.05,0,0,0h0l0-.05a3.83,3.83,0,0,0-1.62-.61l-.18-.13a.33.33,0,0,1-.17,0,.25.25,0,0,1-.18,0h0a.57.57,0,0,1-.26,0H6.55Z" transform="translate(-1.08)" style="fill:#5180c1"/><path d="M3,21.42H3c-1.18-.18-1.88-.61-1.88-1.14a.81.81,0,0,1,.44-.66.21.21,0,0,1,.22,0,4,4,0,0,0,1.35.44c.09,0,.18.13.18.22s-.13.18-.22.18a4.79,4.79,0,0,1-1.4-.4c-.09.09-.17.18-.17.26,0,.27.52.57,1.48.75H3a.19.19,0,0,1,.18.17C3.18,21.33,3.09,21.42,3,21.42Z" transform="translate(-1.08)" style="fill:#5180c1"/><path d="M3.4,20.5v0H3.27a.2.2,0,0,1-.18-.22c0-.09.09-.17.22-.17H3.4Z" transform="translate(-1.08)" style="fill:#5180c1"/><path d="M3.4,20.5H3.27a.43.43,0,0,1-.22,0c-1.18-.18-1.92-.62-1.92-1.14a.78.78,0,0,1,.43-.66.21.21,0,0,1,.22,0c.09,0,.13.09.22.13a.21.21,0,0,1,.09.26.2.2,0,0,1-.26.09c-.05,0-.14,0-.18-.09a.45.45,0,0,0-.17.27c0,.26.56.61,1.61.74a.34.34,0,0,1,.22.05H3.4a.2.2,0,0,1,0,.39Z" transform="translate(-1.08)" style="fill:#5180c1"/><path d="M2,19.19H2c-.05,0-.05,0-.09-.05a.21.21,0,0,1-.09-.26A.21.21,0,0,1,2,18.79h0a.26.26,0,0,1,.13.26C2.18,19.14,2.13,19.19,2,19.19Z" transform="translate(-1.08)" style="fill:#5180c1"/><path d="M2.09,19.23H2a0,0,0,0,1,0,0,.32.32,0,0,1-.13-.27.32.32,0,0,1,.26-.13h.05a.22.22,0,0,1,.13.26C2.26,19.19,2.18,19.23,2.09,19.23Z" transform="translate(-1.08)" style="fill:#5180c1"/><path d="M2.39,19.32h0s0,0-.09-.05,0,0-.08,0-.05,0-.09,0a.21.21,0,0,1,.13-.4s0,0,.09.05,0,0,.08,0,0,0,.09,0a.21.21,0,0,1,.13.27A.25.25,0,0,1,2.39,19.32Z" transform="translate(-1.08)" style="fill:#5180c1"/><path d="M2.88,19.45H2.57c-.09-.05-.18-.13-.13-.22s.13-.18.22-.13h.26c.09,0,.17.13.17.22S3,19.45,2.88,19.45Z" transform="translate(-1.08)" style="fill:#5180c1"/><path d="M3,19.45H3c-.09,0-.13,0-.18-.05H2.57c-.09,0-.13,0-.22,0s0,0-.09,0,0,0-.08-.05-.05,0-.09,0H2a0,0,0,0,1,0,0H2l0-.05H2s-.05,0-.05,0h0c-.61-.26-.7-.61-.7-.83a.8.8,0,0,1,.44-.66.22.22,0,0,1,.22,0s.09,0,.13.09H2s0,0,0,0h0a.21.21,0,0,1,.09.26.2.2,0,0,1-.26.09c-.05,0-.05,0-.09,0s0,0,0-.05-.05,0-.09,0-.05,0-.05,0-.17.17-.17.26.17.31.48.44a0,0,0,0,1,0,0h.14s0,0,.08,0,.05,0,.09.05,0,0,.09,0,.13.05.22.05h.39a.18.18,0,0,1,.18.17C3.23,19.36,3.14,19.45,3,19.45Z" transform="translate(-1.08)" style="fill:#5180c1"/><path d="M2,18.22H2c-.05,0-.05,0-.09,0a.21.21,0,0,1-.09-.26A.21.21,0,0,1,2,17.83h0a.25.25,0,0,1,.13.26C2.22,18.18,2.13,18.22,2,18.22Z" transform="translate(-1.08)" style="fill:#5180c1"/><path d="M2.53,18.35H2.39s0,0-.08,0-.05,0-.09,0A.21.21,0,0,1,2.09,18a.18.18,0,0,1,.26-.13s0,0,.09.05,0,0,.09,0l.08,0c.09.05.18.14.13.22A.23.23,0,0,1,2.53,18.35Z" transform="translate(-1.08)" style="fill:#5180c1"/><path d="M2.83,18.44h0c-.09,0-.17,0-.22,0s-.17-.13-.13-.22.13-.18.22-.13.13,0,.18,0,.17.13.17.22A.37.37,0,0,1,2.83,18.44Z" transform="translate(-1.08)" style="fill:#5180c1"/><path d="M2.92,18.44H2.79c-.09,0-.13,0-.22,0s0,0-.09,0,0,0-.09,0,0,0-.08,0-.05,0-.09-.05-.18,0-.22-.08H1.87l-.09-.05h0c-.53-.26-.61-.57-.61-.74s.08-.4.43-.66a.21.21,0,0,1,.27,0,.2.2,0,0,1-.05.26c-.17.13-.26.22-.26.3s.13.27.39.4H2l.08,0h.14c0,.05.13.05.21.09s0,0,.09,0h.26s.14.05.18.05h.13c.09,0,.13.08.13.17C3.14,18.35,3.05,18.44,2.92,18.44Z" transform="translate(-1.08)" style="fill:#5180c1"/><path d="M1.74,17.09c-.05,0-.09,0-.09-.05a0,0,0,0,1,0,0h0a.21.21,0,0,1-.09-.26.2.2,0,0,1,.26-.09h.05a.2.2,0,0,1,.08.26C1.87,17,1.83,17.09,1.74,17.09Z" transform="translate(-1.08)" style="fill:#5180c1"/><path d="M2.09,17.26H2s-.09,0-.13,0-.09,0-.13,0H1.65a.21.21,0,0,1-.09-.26.22.22,0,0,1,.27-.09h0s.08.05.13.05.08,0,.13,0a.21.21,0,0,1,.13.26S2.18,17.26,2.09,17.26Z" transform="translate(-1.08)" style="fill:#5180c1"/><path d="M2.18,17.3l0-.17,0,.17c-.05,0-.05,0-.09,0s0,0-.09,0A.27.27,0,0,1,1.87,17c0-.13.13-.13.26-.13s.05,0,.09.05h0l0,.17Z" transform="translate(-1.08)" style="fill:#5180c1"/><path d="M2.48,17.39h0s0,0-.09,0,0,0-.09-.05,0,0-.08,0a.21.21,0,1,1,.13-.39h.17s0,0,.09,0,.17.13.13.22S2.57,17.39,2.48,17.39Z" transform="translate(-1.08)" style="fill:#5180c1"/><path d="M2.74,17.44H2.61c-.08-.05-.17-.14-.13-.22s.13-.18.22-.13h.09c.09,0,.17.13.17.21A.34.34,0,0,1,2.74,17.44Z" transform="translate(-1.08)" style="fill:#5180c1"/><path d="M3,17.48H2.79c-.09,0-.18-.13-.18-.22s.13-.17.22-.17H3c.08,0,.17.13.17.21A.16.16,0,0,1,3,17.48Z" transform="translate(-1.08)" style="fill:#5180c1"/><path d="M3.4,17.7s-.09,0-.09-.05a1.4,1.4,0,0,1-.22-.17l0,0c-.09-.09-.09-.22,0-.27s.22-.08.26,0l0,0a1.92,1.92,0,0,1,.17.13.17.17,0,0,1,.05.26A.26.26,0,0,1,3.4,17.7Z" transform="translate(-1.08)" style="fill:#5180c1"/><path d="M3.14,17.48H2.61l-.17,0H2.35s0,0-.09-.05,0,0-.08,0H2S2,17.3,1.91,17.3s-.08,0-.13-.08H1.65l0,0s-.05,0-.05,0a.78.78,0,0,1-.43-.66c0-.78,1.48-1.22,2.88-1.22.09,0,.57,0,.92.09a2.16,2.16,0,0,1,.53.08h0c.08.05.08.09.13.09a.21.21,0,0,1-.09.26.18.18,0,0,1-.22,0,1.89,1.89,0,0,0-.39,0L4,15.64c-1.53,0-2.49.48-2.49.83,0,.13.17.27.26.31h.05a0,0,0,0,1,0,0H2s.08.05.13.05.09,0,.13,0h.13s0,0,.09,0h.09l.08.05c.05,0,.13,0,.18,0h.48c.09,0,.17.13.17.22S3.27,17.48,3.14,17.48Z" transform="translate(-1.08)" style="fill:#5180c1"/><text transform="translate(5.84 5.72)" style="font-size:1.2352732419967651px;fill:#5180c1;font-family:FiraSans-Bold, Fira Sans;font-weight:700">Rp</text></g></g></svg>