<svg id="Layer_1" data-name="Layer 1" xmlns="http://www.w3.org/2000/svg" viewBox="0 0 24 23.96"><g id="_45_Chart_Graphical_Pie_Statistics_" data-name="45, Chart, Graphical, Pie, Statistics,"><path d="M7.65,17.22a7.71,7.71,0,0,1-2.23-2.56l.12,0L12,11.12v7.49A7.61,7.61,0,0,1,7.65,17.22Z" transform="translate(0 -0.11)" style="fill:#fff"/><path d="M12,11.12h7.49A7.48,7.48,0,0,1,12,18.61Z" transform="translate(0 -0.11)" style="fill:#fff"/><path d="M16.74,5.38a7.32,7.32,0,0,1,2.72,5.74H12V3.66A7.33,7.33,0,0,1,16.74,5.38Z" transform="translate(0 -0.11)" style="fill:#c3e3f7"/><path d="M7.26,5.38A7.33,7.33,0,0,1,12,3.66v7.46l-6.5,3.5-.08,0a7.49,7.49,0,0,1-.88-3.54A7.32,7.32,0,0,1,7.26,5.38Z" transform="translate(0 -0.11)" style="fill:#c3e3f7"/><path d="M12,19.09a7.94,7.94,0,0,1-4.62-1.48A7.71,7.71,0,0,1,5,14.9a7.91,7.91,0,0,1-1-3.78A7.79,7.79,0,0,1,6.94,5,7.88,7.88,0,0,1,12,3.14,7.8,7.8,0,0,1,17.06,5,8,8,0,0,1,12,19.09ZM12,4.14A7.1,7.1,0,0,0,7.53,5.73,7,7,0,0,0,5,11.12a6.81,6.81,0,0,0,.84,3.31A7.33,7.33,0,0,0,8,16.82a7.05,7.05,0,0,0,4,1.27,6.87,6.87,0,0,0,4-1.27,7,7,0,0,0,.44-11.09A7.1,7.1,0,0,0,12,4.14Z" transform="translate(0 -0.11)" style="fill:#2e8ecd"/><path d="M12,19.09a.53.53,0,0,1-.52-.52V3.66a.52.52,0,1,1,1,0v15A.52.52,0,0,1,12,19.09Z" transform="translate(0 -0.11)" style="fill:#2e8ecd"/><path d="M5.54,15.1a.47.47,0,0,1-.44-.28.5.5,0,0,1,.2-.67l6.5-3.51a.51.51,0,0,1,.24,0h7.49a.53.53,0,0,1,.52.52.52.52,0,0,1-.52.51H12.12L5.74,15.06A.3.3,0,0,1,5.54,15.1Z" transform="translate(0 -0.11)" style="fill:#2e8ecd"/><path d="M15,7.65a.49.49,0,0,1-.36-.16.51.51,0,0,1,0-.72L18.1,3.26a.6.6,0,0,1,.36-.16h5a.52.52,0,0,1,0,1H18.66L15.31,7.49A.49.49,0,0,1,15,7.65Z" transform="translate(0 -0.11)" style="fill:#2e8ecd"/><path d="M23.48,21.08h-5a.55.55,0,0,1-.44-.24l-3.51-5.46a.47.47,0,0,1,.16-.68.48.48,0,0,1,.68.16l3.35,5.27h4.7a.53.53,0,0,1,.52.51A.51.51,0,0,1,23.48,21.08Z" transform="translate(0 -0.11)" style="fill:#2e8ecd"/><path d="M9,7.65a.49.49,0,0,1-.36-.16L5.3,4.14H.52a.52.52,0,1,1,0-1h5a.49.49,0,0,1,.36.16L9.37,6.77a.51.51,0,0,1,0,.72A.72.72,0,0,1,9,7.65Z" transform="translate(0 -0.11)" style="fill:#2e8ecd"/><path d="M5.54,21.08h-5a.52.52,0,1,1,0-1h4.7l3.35-5.27a.49.49,0,0,1,.68-.16.48.48,0,0,1,.16.68L5.94,20.76A.41.41,0,0,1,5.54,21.08Z" transform="translate(0 -0.11)" style="fill:#2e8ecd"/><path d="M1.55,2.15h-1A.53.53,0,0,1,0,1.63v-1A.53.53,0,0,1,.56.11h1a.53.53,0,0,1,.52.52v1A.59.59,0,0,1,1.55,2.15Z" transform="translate(0 -0.11)" style="fill:#2e8ecd"/><path d="M4,2.15H3a.53.53,0,0,1-.52-.52v-1A.53.53,0,0,1,3,.11H4a.52.52,0,0,1,.51.52v1A.52.52,0,0,1,4,2.15Z" transform="translate(0 -0.11)" style="fill:#2e8ecd"/><path d="M6.54,2.15h-1A.53.53,0,0,1,5,1.63v-1A.53.53,0,0,1,5.54.11h1a.53.53,0,0,1,.52.52v1A.59.59,0,0,1,6.54,2.15Z" transform="translate(0 -0.11)" style="fill:#2e8ecd"/><path d="M18.5,2.15h-1A.53.53,0,0,1,17,1.63v-1A.53.53,0,0,1,17.5.11h1A.53.53,0,0,1,19,.63v1A.59.59,0,0,1,18.5,2.15Z" transform="translate(0 -0.11)" style="fill:#2e8ecd"/><path d="M21,2.15H20a.52.52,0,0,1-.51-.52v-1A.52.52,0,0,1,20,.11h1a.53.53,0,0,1,.52.52v1A.53.53,0,0,1,21,2.15Z" transform="translate(0 -0.11)" style="fill:#2e8ecd"/><path d="M23.48,2.15h-1A.53.53,0,0,1,22,1.63v-1a.53.53,0,0,1,.51-.52h1A.53.53,0,0,1,24,.63v1A.59.59,0,0,1,23.48,2.15Z" transform="translate(0 -0.11)" style="fill:#2e8ecd"/><path d="M1.55,24.07h-1A.53.53,0,0,1,0,23.56v-1A.53.53,0,0,1,.56,22h1a.53.53,0,0,1,.52.52v1A.59.59,0,0,1,1.55,24.07Z" transform="translate(0 -0.11)" style="fill:#2e8ecd"/><path d="M4,24.07H3a.53.53,0,0,1-.52-.51v-1A.53.53,0,0,1,3,22H4a.52.52,0,0,1,.51.52v1A.52.52,0,0,1,4,24.07Z" transform="translate(0 -0.11)" style="fill:#2e8ecd"/><path d="M6.54,24.07h-1A.53.53,0,0,1,5,23.56v-1A.53.53,0,0,1,5.54,22h1a.53.53,0,0,1,.52.52v1A.59.59,0,0,1,6.54,24.07Z" transform="translate(0 -0.11)" style="fill:#2e8ecd"/><path d="M18.5,24.07h-1a.53.53,0,0,1-.52-.51v-1A.53.53,0,0,1,17.5,22h1a.53.53,0,0,1,.52.52v1A.59.59,0,0,1,18.5,24.07Z" transform="translate(0 -0.11)" style="fill:#2e8ecd"/><path d="M21,24.07H20a.52.52,0,0,1-.51-.51v-1A.52.52,0,0,1,20,22h1a.53.53,0,0,1,.52.52v1A.53.53,0,0,1,21,24.07Z" transform="translate(0 -0.11)" style="fill:#2e8ecd"/><path d="M23.48,24.07h-1a.53.53,0,0,1-.51-.51v-1a.53.53,0,0,1,.51-.52h1a.53.53,0,0,1,.52.52v1A.59.59,0,0,1,23.48,24.07Z" transform="translate(0 -0.11)" style="fill:#2e8ecd"/></g></svg>