<svg id="Layer_1" data-name="Layer 1" xmlns="http://www.w3.org/2000/svg" viewBox="0 0 23.5 24"><g id="_209_Accounting_Balance_Payment_Sheet_Tax" data-name="209, Accounting, Balance, Payment, Sheet, Tax"><path d="M16.41,1.58H3.19A1.59,1.59,0,0,1,4.78,3.17V22.53l1.59-1,1,1,1-1,1,1,1-1,1,1,1-1,1,1,1-1,1,1,1-1,1.51,1v-19A2,2,0,0,0,16.41,1.58Z" transform="translate(-0.31 -0.04)" style="fill:#a1c6e9"/><rect x="13.34" y="5.48" width="2.88" height="1.59" style="fill:#fff"/><rect x="13.34" y="8.61" width="2.88" height="1.59" style="fill:#fff"/><rect x="13.34" y="11.75" width="2.88" height="1.55" style="fill:#fff"/><rect x="6.27" y="11.75" width="2.34" height="1.55" style="fill:#fff"/><path d="M23.43,6.31a.38.38,0,1,1-.38.38A.38.38,0,0,1,23.43,6.31Z" transform="translate(-0.31 -0.04)" style="fill:#2c80c3"/><path d="M21.84,1.84a1.71,1.71,0,1,1-1.71,1.71A1.71,1.71,0,0,1,21.84,1.84Z" transform="translate(-0.31 -0.04)" style="fill:#a1c6e9"/><path d="M19,23.29a.36.36,0,0,1,.37.37A.37.37,0,0,1,19,24a.38.38,0,0,1-.38-.38A.35.35,0,0,1,19,23.29Z" transform="translate(-0.31 -0.04)" style="fill:#2c80c3"/><path d="M18.71,0a.38.38,0,0,1,0,.75.38.38,0,0,1-.38-.38A.38.38,0,0,1,18.71,0Z" transform="translate(-0.31 -0.04)" style="fill:#2c80c3"/><rect x="13.34" y="10.16" width="2.88" height="1.59" style="fill:#a1c6e9"/><rect x="13.34" y="7.02" width="2.88" height="1.59" style="fill:#a1c6e9"/><rect x="8.61" y="11.75" width="4.72" height="1.55" style="fill:#fff"/><rect x="8.61" y="10.16" width="4.72" height="1.59" style="fill:#a1c6e9"/><rect x="8.61" y="8.61" width="4.72" height="1.59" style="fill:#fff"/><rect x="8.61" y="7.02" width="4.72" height="1.59" style="fill:#a1c6e9"/><rect x="8.61" y="5.48" width="4.72" height="1.59" style="fill:#fff"/><rect x="6.27" y="15.39" width="5.23" height="3.39" style="fill:#fff"/><rect x="6.27" y="10.16" width="2.34" height="1.59" style="fill:#a1c6e9"/><rect x="6.27" y="8.61" width="2.34" height="1.59" style="fill:#fff"/><rect x="6.27" y="7.02" width="2.34" height="1.59" style="fill:#a1c6e9"/><rect x="6.27" y="5.48" width="2.34" height="1.59" style="fill:#fff"/><path d="M4.74,3.17v9.41H1.6V3.17A1.6,1.6,0,0,1,3.19,1.58,1.62,1.62,0,0,1,4.32,2,1.72,1.72,0,0,1,4.74,3.17Z" transform="translate(-0.31 -0.04)" style="fill:#fff"/><path d="M3,21.7a.37.37,0,0,1,.37.37.38.38,0,1,1-.75,0A.41.41,0,0,1,3,21.7Z" transform="translate(-0.31 -0.04)" style="fill:#2c80c3"/><path d="M1.6,18.06a1,1,0,1,1,0,2.09,1,1,0,0,1,0-2.09Z" transform="translate(-0.31 -0.04)" style="fill:#a1c6e9"/><path d="M1.73,13.88a.37.37,0,0,1,.38.37.38.38,0,0,1-.76,0A.37.37,0,0,1,1.73,13.88Z" transform="translate(-0.31 -0.04)" style="fill:#2c80c3"/><path d="M18.33,22.74a.18.18,0,0,1-.13,0l-1.38-.92-.87.88a.33.33,0,0,1-.38,0l-.88-.88-.88.88a.31.31,0,0,1-.37,0l-.88-.88-.88.88a.33.33,0,0,1-.38,0l-.87-.88-.88.88a.33.33,0,0,1-.38,0l-.88-.88-.87.88a.33.33,0,0,1-.38,0l-.88-.88-1.38.92a.28.28,0,0,1-.25,0,.26.26,0,0,1-.12-.25V12.58a.27.27,0,0,1,.25-.25.28.28,0,0,1,.25.25V22l1.17-.79a.24.24,0,0,1,.33,0l.88.88.88-.88a.3.3,0,0,1,.38,0l.87.88.88-.88a.3.3,0,0,1,.38,0l.88.88.87-.88a.3.3,0,0,1,.38,0l.88.88.88-.88a.29.29,0,0,1,.37,0l.88.88.88-.88a.28.28,0,0,1,.33,0L18.2,22V3.51a1.67,1.67,0,0,0-1.67-1.67H3.19a.28.28,0,0,1-.25-.26.28.28,0,0,1,.25-.25H16.41a2.23,2.23,0,0,1,2.21,2.22V22.49a.37.37,0,0,1-.12.25Z" transform="translate(-0.31 -0.04)" style="fill:#2c80c3"/><path d="M4.74,12.83H1.6a.27.27,0,0,1-.25-.25V3.17A1.86,1.86,0,0,1,3.19,1.33,1.86,1.86,0,0,1,5,3.17v9.41A.34.34,0,0,1,4.74,12.83Zm-2.88-.54H4.49V3.17a1.31,1.31,0,0,0-.38-.92,1.3,1.3,0,0,0-2.21.92v9.12Z" transform="translate(-0.31 -0.04)" style="fill:#2c80c3"/><path d="M6.58,7.35a.26.26,0,0,1-.25-.25V5.52a.27.27,0,0,1,.25-.26H8.92a.26.26,0,0,1,0,.51H6.83V7.06A.27.27,0,0,1,6.58,7.35Z" transform="translate(-0.31 -0.04)" style="fill:#2c80c3"/><path d="M8.92,7.35a.27.27,0,0,1-.25-.25V5.52a.28.28,0,0,1,.25-.26h4.73a.26.26,0,0,1,0,.51H9.17V7.06A.27.27,0,0,1,8.92,7.35Z" transform="translate(-0.31 -0.04)" style="fill:#2c80c3"/><path d="M16.49,7.35a.26.26,0,0,1-.25-.25V5.77H13.9V7.06a.27.27,0,0,1-.25.25.26.26,0,0,1-.25-.25V5.47a.27.27,0,0,1,.25-.25h2.88a.27.27,0,0,1,.25.25V7.06A.28.28,0,0,1,16.49,7.35Z" transform="translate(-0.31 -0.04)" style="fill:#2c80c3"/><path d="M6.58,8.9a.26.26,0,0,1-.25-.25V7.06a.27.27,0,0,1,.25-.25H8.92a.27.27,0,0,1,.25.25.26.26,0,0,1-.25.25H6.83v1.3A.27.27,0,0,1,6.58,8.9Z" transform="translate(-0.31 -0.04)" style="fill:#2c80c3"/><path d="M8.92,8.9a.27.27,0,0,1-.25-.25V7.06a.28.28,0,0,1,.25-.25h4.73a.28.28,0,0,1,.25.25.27.27,0,0,1-.25.25H9.17v1.3A.27.27,0,0,1,8.92,8.9Z" transform="translate(-0.31 -0.04)" style="fill:#2c80c3"/><path d="M16.49,8.9a.26.26,0,0,1-.25-.25V7.35H13.9v1.3a.27.27,0,0,1-.25.25.26.26,0,0,1-.25-.25V7.06a.27.27,0,0,1,.25-.25h2.88a.27.27,0,0,1,.25.25V8.65A.27.27,0,0,1,16.49,8.9Z" transform="translate(-0.31 -0.04)" style="fill:#2c80c3"/><path d="M6.58,10.49a.26.26,0,0,1-.25-.25V8.65a.27.27,0,0,1,.25-.25H8.92a.27.27,0,0,1,.25.25.26.26,0,0,1-.25.25H6.83v1.3A.27.27,0,0,1,6.58,10.49Z" transform="translate(-0.31 -0.04)" style="fill:#2c80c3"/><path d="M8.92,10.49a.27.27,0,0,1-.25-.25V8.65a.28.28,0,0,1,.25-.25h4.73a.28.28,0,0,1,.25.25.27.27,0,0,1-.25.25H9.17v1.3A.27.27,0,0,1,8.92,10.49Z" transform="translate(-0.31 -0.04)" style="fill:#2c80c3"/><path d="M16.49,10.49a.26.26,0,0,1-.25-.25V8.94H13.9v1.3a.27.27,0,0,1-.25.25.26.26,0,0,1-.25-.25V8.65a.27.27,0,0,1,.25-.25h2.88a.27.27,0,0,1,.25.25v1.59A.27.27,0,0,1,16.49,10.49Z" transform="translate(-0.31 -0.04)" style="fill:#2c80c3"/><path d="M6.58,12a.27.27,0,0,1-.25-.25V10.2A.26.26,0,0,1,6.58,10H8.92a.26.26,0,0,1,.25.25.27.27,0,0,1-.25.25H6.83v1.29A.28.28,0,0,1,6.58,12Z" transform="translate(-0.31 -0.04)" style="fill:#2c80c3"/><path d="M8.92,12a.28.28,0,0,1-.25-.25V10.2A.27.27,0,0,1,8.92,10h4.73a.27.27,0,0,1,.25.25.28.28,0,0,1-.25.25H9.17v1.29A.28.28,0,0,1,8.92,12Z" transform="translate(-0.31 -0.04)" style="fill:#2c80c3"/><path d="M16.49,12a.27.27,0,0,1-.25-.25v-1.3H13.9v1.3a.28.28,0,0,1-.25.25.27.27,0,0,1-.25-.25V10.2a.26.26,0,0,1,.25-.25h2.88a.26.26,0,0,1,.25.25v1.59A.28.28,0,0,1,16.49,12Z" transform="translate(-0.31 -0.04)" style="fill:#2c80c3"/><path d="M8.92,13.63H6.58a.27.27,0,0,1-.25-.25V11.79a.26.26,0,0,1,.25-.25H8.92a.26.26,0,0,1,.25.25.27.27,0,0,1-.25.25H6.83v1H8.92a.27.27,0,0,1,.25.25C9.17,13.46,9.05,13.63,8.92,13.63Z" transform="translate(-0.31 -0.04)" style="fill:#2c80c3"/><path d="M13.65,13.63H8.92a.28.28,0,0,1-.25-.25V11.79a.27.27,0,0,1,.25-.25h4.73a.27.27,0,0,1,.25.25.28.28,0,0,1-.25.25H9.17v1H13.6a.28.28,0,0,1,.26.25C13.86,13.46,13.77,13.63,13.65,13.63Z" transform="translate(-0.31 -0.04)" style="fill:#2c80c3"/><path d="M16.49,13.63H13.6a.28.28,0,0,1-.25-.25V11.79a.27.27,0,0,1,.25-.25h2.89a.27.27,0,0,1,.25.25v1.59C16.78,13.5,16.66,13.63,16.49,13.63Zm-2.59-.55h2.34V12H13.9Z" transform="translate(-0.31 -0.04)" style="fill:#2c80c3"/><path d="M11.81,19.1H6.58a.26.26,0,0,1-.25-.25V15.47a.26.26,0,0,1,.25-.25h5.23a.27.27,0,0,1,.25.25v3.38A.27.27,0,0,1,11.81,19.1Zm-5-.54h4.73V15.68H6.83Z" transform="translate(-0.31 -0.04)" style="fill:#2c80c3"/><path d="M16.49,18.85H12.81a.26.26,0,0,1-.25-.25.27.27,0,0,1,.25-.25h3.68a.28.28,0,0,1,.25.25A.24.24,0,0,1,16.49,18.85Z" transform="translate(-0.31 -0.04)" style="fill:#2c80c3"/><path d="M16.49,18.06H12.81a.27.27,0,0,1-.25-.25.26.26,0,0,1,.25-.25h3.68a.27.27,0,0,1,.25.25A.24.24,0,0,1,16.49,18.06Z" transform="translate(-0.31 -0.04)" style="fill:#2c80c3"/><path d="M16.49,17.26H12.81a.26.26,0,0,1-.25-.25.27.27,0,0,1,.25-.25h3.68a.28.28,0,0,1,.25.25A.24.24,0,0,1,16.49,17.26Z" transform="translate(-0.31 -0.04)" style="fill:#2c80c3"/><path d="M16.49,16.47H12.81a.27.27,0,0,1-.25-.25.26.26,0,0,1,.25-.25h3.68a.27.27,0,0,1,.25.25A.24.24,0,0,1,16.49,16.47Z" transform="translate(-0.31 -0.04)" style="fill:#2c80c3"/><path d="M16.49,15.72H12.81a.27.27,0,0,1-.25-.25.26.26,0,0,1,.25-.25h3.68a.27.27,0,0,1,.25.25A.24.24,0,0,1,16.49,15.72Z" transform="translate(-0.31 -0.04)" style="fill:#2c80c3"/><path d="M1.6,20.4a1.3,1.3,0,1,1,1.3-1.3A1.3,1.3,0,0,1,1.6,20.4Zm0-2.09a.8.8,0,0,0,0,1.59.8.8,0,0,0,.8-.8A.79.79,0,0,0,1.6,18.31Z" transform="translate(-0.31 -0.04)" style="fill:#2c80c3"/><path d="M21.84,5.52a2,2,0,1,1,2-2A2,2,0,0,1,21.84,5.52Zm0-3.39a1.42,1.42,0,1,0,1.42,1.42A1.41,1.41,0,0,0,21.84,2.13Z" transform="translate(-0.31 -0.04)" style="fill:#2c80c3"/><path d="M21.23,21.32h.66a.08.08,0,0,0,.07,0H22s.06,0,.11,0h0l.09,0,0,0,.09,0a.37.37,0,0,0,.11-.05l.16-.06a0,0,0,0,0,0,0s0,0,0,0a0,0,0,0,0,0,0,.35.35,0,0,0,.12-.07s0,0,0,0l0,0,0,0s.05,0,.07,0l0,0,.05,0a.66.66,0,0,1,.2.42c0,.53-.89,1-2,1s-2-.44-2-1a.19.19,0,0,1,0-.13.63.63,0,0,1,.17-.29h0l0,0,.07.07h0s0,0,.05,0,0,0,0,0,0,0,0,0,0,0,.05,0,0,0,.06.05,0,0,0,0l0,0s0,0,0,0l.16.06.06,0s0,0,.05,0l.09,0h0l.24.06h.05a.06.06,0,0,1,.06,0h.6S21.21,21.32,21.23,21.32Z" transform="translate(-0.31 -0.04)" style="fill:#a1c6e9"/><path d="M21.23,19.64h.66s.05,0,.07,0H22l.11,0h0s0,0,0,0,0,0,.05,0,.07,0,.11,0,0,0,0,0,.07,0,.09,0a.08.08,0,0,0,.05,0,.37.37,0,0,1,.11-.05s0,0,0,0h0s0,0,0,0h0s0,0,0,0,0,0,0,0,0,0,.06,0h0s.05,0,.07-.05h0l0,0,0,0a.64.64,0,0,1,.2.42A.54.54,0,0,1,23,20l0,0,0,0a.13.13,0,0,1-.07,0l0,0,0,0s0,0-.05,0l-.11.07a0,0,0,0,0,0,0l0,0a0,0,0,0,0,0,0l-.16.07s-.07,0-.11,0,0,0-.09,0l0,0-.09,0h-.05l-.11,0h0a.1.1,0,0,0-.07,0H20.54a.07.07,0,0,1-.06,0h-.05l-.24-.06h0s-.07,0-.09,0l0,0c0-.13,0-.13,0-.13l-.15-.07a0,0,0,0,1,0,0s0,0,0,0a0,0,0,0,1,0,0s0,0-.06,0,0,0-.05,0,0,0,0,0,0,0-.05,0,0,0,0,0h0L19.5,20l0,0h0a.66.66,0,0,1-.2-.42.3.3,0,0,1,0-.13.77.77,0,0,1,.18-.29,1.23,1.23,0,0,0,.29.22h0s0,0,0,0h0s0,0,.05,0,.06,0,.11,0l0,0,.22.09s.05,0,.05,0a.46.46,0,0,0,.2.05h0a.1.1,0,0,1,.07,0h.6C21.19,19.64,21.21,19.64,21.23,19.64Z" transform="translate(-0.31 -0.04)" style="fill:#a1c6e9"/><path d="M21.23,18h.66a.08.08,0,0,0,.07,0H22l.11,0h0s0,0,0,0,0,0,.05,0l.11,0s0,0,0,0,.07,0,.09-.05a.08.08,0,0,0,.05,0h0s0,0,0,0l.05,0s0,0,0,0h0s0,0,0,0,0,0,.05,0,0,0,0,0,.05,0,.07,0,0,0,0,0l0,0s0,0,0,0l0,0,0,0a.71.71,0,0,1,.2.42.54.54,0,0,1-.2.42l0,0,0,0s-.05,0-.07,0l0,0,0,0s0,0,0,0l-.11.07a0,0,0,0,0,0,0,1.5,1.5,0,0,1-.18.09l0,0-.09,0s0,0-.05,0a.2.2,0,0,1-.11,0s0,0,0,0-.05,0-.05,0h0l-.11,0h-.05a.06.06,0,0,0-.06,0H20.5a.07.07,0,0,1-.07,0h0l-.2,0s-.05,0-.05,0l-.22-.07s0,0,0,0a.76.76,0,0,1-.18-.09,0,0,0,0,1,0,0l-.07-.05s0,0,0,0,0,0-.05,0,0,0,0,0,0,0,0,0h0s-.07,0-.09-.09h0a.71.71,0,0,1-.2-.42.58.58,0,0,1,.2-.43l.09.09h0s0,0,0,0a.23.23,0,0,0,.09.06.2.2,0,0,0,.09.05s0,0,0,0h0s0,0,.05,0,0,0,0,0,0,0,0,0h0a.07.07,0,0,1,.05,0l.22.09s0,0,0,0a.79.79,0,0,0,.2,0h.05a.07.07,0,0,1,.06,0h.6Z" transform="translate(-0.31 -0.04)" style="fill:#fff"/><path d="M21.19,20.48h.73a.07.07,0,0,0,.06,0H22s.06,0,.11,0h0l.09,0,.05,0s0,0,.08,0l.12-.05.15-.06s0,0,0,0a0,0,0,0,0,0,0s0,0,0,0a.3.3,0,0,0,.11-.07s0,0,0,0l0,0,0,0s0,0,.06,0l0,0,.05,0a.66.66,0,0,1,.2.42.61.61,0,0,1-.2.42l-.05,0,0,0s0,0-.06,0l0,0,0,0s0,0,0,0l-.11.07s0,0,0,0l0,0a0,0,0,0,0,0,0l-.15.06s-.07,0-.12.05,0,0-.08,0,0,0-.05,0l-.09,0h0c-.05,0-.07,0-.11,0H22a.07.07,0,0,0-.06,0H20.59a.1.1,0,0,1-.07,0h0l-.25-.07h0l-.09,0,0,0-.07,0-.15-.06s0,0,0,0,0,0,0,0a0,0,0,0,1,0,0l-.07,0s0,0,0,0,0,0,0,0,0,0-.05,0,0,0,0,0h0l-.07-.07,0,0h0a.69.69,0,0,1-.2-.42.27.27,0,0,1,0-.13.66.66,0,0,1,.18-.29h0l0,0,.07.07h0s0,0,0,0,0,0,.05,0,0,0,0,0,0,0,0,0l.07,0a0,0,0,0,1,0,0l0,0a0,0,0,0,1,0,0l.15.06.07,0s0,0,0,0l.09,0h0l.25.07h0a.1.1,0,0,1,.07,0h.6Z" transform="translate(-0.31 -0.04)" style="fill:#fff"/><path d="M21.23,18.79h.66a.08.08,0,0,0,.07,0H22l.11,0h0s0,0,0,0,0,0,.05,0,.07,0,.11,0l0,0,.09,0s0,0,.05,0l.17-.09s0,0,0,0l.11-.07s0,0,0,0l0,0,0,0s0,0,.06,0l0,0,.05,0a.71.71,0,0,1,.2.42.58.58,0,0,1-.2.42l0,0,0,0h0l-.06,0h0s-.05,0-.07,0,0,0,0,0,0,0,0,0h0s0,0,0,0h0s0,0,0,0-.06,0-.11,0a.07.07,0,0,0,0,0s-.07,0-.09.05l-.05,0a.2.2,0,0,1-.11,0s0,0,0,0-.05,0-.05,0h0s-.07,0-.11,0h0a.08.08,0,0,0-.07,0H20.61a.11.11,0,0,1-.07,0h0a1.46,1.46,0,0,0-.2-.05s0,0,0,0a.58.58,0,0,1-.23-.09l0,0-.11,0s0,0-.05,0h0s0,0,0,0h0a1.11,1.11,0,0,1-.29-.22h0a.69.69,0,0,1-.2-.42.19.19,0,0,1,0-.13.63.63,0,0,1,.17-.29h0l.09.09h0s0,0,.05,0,0,0,0,0,0,0,0,0,0,0,.05,0l.06,0s0,0,0,0a1.31,1.31,0,0,0,.17.09s0,0,0,0l.22.07s0,0,0,0a.84.84,0,0,0,.2.05h.05a.07.07,0,0,1,.06,0h.6C21.19,18.79,21.21,18.79,21.23,18.79Z" transform="translate(-0.31 -0.04)" style="fill:#fff"/><path d="M23.2,17a.56.56,0,0,1-.2.42l0,0,0,0,0,0,0,0a0,0,0,0,0,0,0s0,0-.07,0,0,0,0,0,0,0-.05,0,0,0,0,0h0s0,0,0,0,0,0-.05,0,0,0,0,0h0l-.05,0s-.06,0-.09,0,0,0,0,0a.22.22,0,0,1-.11,0l-.05,0s0,0,0,0h0c-.05,0-.07,0-.11,0H22a.11.11,0,0,0-.07,0H20.57a.08.08,0,0,1-.07,0h-.05a.31.31,0,0,0-.17-.05s-.05,0-.05,0a.73.73,0,0,1-.22-.09.07.07,0,0,1,0,0h0s0,0,0,0,0,0,0,0,0,0-.05,0h0s0,0,0,0a.18.18,0,0,0-.09,0,.17.17,0,0,0-.09-.07s0,0,0,0h0a.37.37,0,0,1-.09-.09.69.69,0,0,1-.2-.42c0-.53.89-1,2-1S23.2,16.45,23.2,17Z" transform="translate(-0.31 -0.04)" style="fill:#a1c6e9"/><path d="M19.55,21s-.07,0-.09,0l-.07-.06h0l0,0a.18.18,0,0,1,0-.2.15.15,0,0,1,.2,0l0,0h0s0,0,.05,0a.15.15,0,0,1,0,.2A.14.14,0,0,1,19.55,21Z" transform="translate(-0.31 -0.04)" style="fill:#5180c1"/><path d="M19.72,21.1a.07.07,0,0,1-.06,0s0,0-.05,0,0,0,0,0,0,0-.05,0,0,0,0,0a.13.13,0,0,1,0-.2.13.13,0,0,1,.2,0l0,0a.07.07,0,0,0,0,0s0,0,.05,0,0,0,0,0a.15.15,0,0,1,.05.2A.27.27,0,0,1,19.72,21.1Z" transform="translate(-0.31 -0.04)" style="fill:#5180c1"/><path d="M19.81,21.14a.07.07,0,0,1-.06,0s0,0,0,0a.16.16,0,0,1,0-.2.15.15,0,0,1,.2,0h0A.15.15,0,0,1,20,21C19.9,21.12,19.86,21.14,19.81,21.14Z" transform="translate(-0.31 -0.04)" style="fill:#5180c1"/><path d="M19.88,21.19a.07.07,0,0,1-.07,0h0a0,0,0,0,1,0,0,.15.15,0,0,1-.07-.18.16.16,0,0,1,.18-.06h0c.07,0,.09.11.07.18S19.92,21.19,19.88,21.19Z" transform="translate(-0.31 -0.04)" style="fill:#5180c1"/><path d="M20.14,21.27h0s0,0,0,0l-.07,0a.15.15,0,0,1-.09-.18.16.16,0,0,1,.18-.09s0,0,.06,0,0,0,.05,0a.15.15,0,0,1,.09.18A.14.14,0,0,1,20.14,21.27Z" transform="translate(-0.31 -0.04)" style="fill:#5180c1"/><path d="M20.26,21.32h-.09a.15.15,0,0,1-.09-.18.16.16,0,0,1,.18-.09h0a.16.16,0,0,1,.09.18S20.3,21.32,20.26,21.32Z" transform="translate(-0.31 -0.04)" style="fill:#5180c1"/><path d="M20.52,21.39h-.07a.19.19,0,0,1-.11-.16.17.17,0,0,1,.16-.11h0c.07,0,.14.09.11.15A.12.12,0,0,1,20.52,21.39Z" transform="translate(-0.31 -0.04)" style="fill:#5180c1"/><path d="M20.79,21.43h-.14a.07.07,0,0,1-.06,0c-.07,0-.14-.09-.11-.16s.09-.13.15-.11h.18a.15.15,0,0,1,.13.16A.2.2,0,0,1,20.79,21.43Z" transform="translate(-0.31 -0.04)" style="fill:#5180c1"/><path d="M20.83,21.43h0a.13.13,0,0,1-.11-.16.13.13,0,0,1,.15-.11h0a.16.16,0,0,1,.14.16S20.9,21.43,20.83,21.43Z" transform="translate(-0.31 -0.04)" style="fill:#5180c1"/><path d="M20.94,21.43h-.06a.15.15,0,1,1,0-.29h0a.16.16,0,0,1,.14.16A.13.13,0,0,1,20.94,21.43Z" transform="translate(-0.31 -0.04)" style="fill:#5180c1"/><path d="M21,21.45h-.07a.14.14,0,0,1-.13-.15.15.15,0,0,1,.15-.14H21a.15.15,0,0,1,.13.16A.13.13,0,0,1,21,21.45Z" transform="translate(-0.31 -0.04)" style="fill:#5180c1"/><path d="M21.14,21.45H21a.14.14,0,0,1-.13-.15.15.15,0,0,1,.15-.14h.09a.14.14,0,0,1,.13.14A.14.14,0,0,1,21.14,21.45Z" transform="translate(-0.31 -0.04)" style="fill:#5180c1"/><path d="M21.19,21.45h-.05a.13.13,0,0,1,0-.26h.05a.13.13,0,1,1,0,.26Z" transform="translate(-0.31 -0.04)" style="fill:#5180c1"/><path d="M21.3,21.45a.13.13,0,1,1,0-.26h0a.13.13,0,1,1,0,.26Z" transform="translate(-0.31 -0.04)" style="fill:#5180c1"/><path d="M21.34,21.45a.13.13,0,1,1,0-.26h.09a.14.14,0,0,1,0,.28.2.2,0,0,0-.11,0Z" transform="translate(-0.31 -0.04)" style="fill:#5180c1"/><path d="M21.45,21.45a.14.14,0,0,1-.13-.13.17.17,0,0,1,.13-.16h.05a.17.17,0,0,1,.15.14.16.16,0,0,1-.13.15s0,0-.07,0Z" transform="translate(-0.31 -0.04)" style="fill:#5180c1"/><path d="M21.54,21.43a.14.14,0,0,1-.13-.13.16.16,0,0,1,.13-.16h0a.17.17,0,0,1,.16.13.16.16,0,0,1-.13.16Z" transform="translate(-0.31 -0.04)" style="fill:#5180c1"/><path d="M21.65,21.43a.12.12,0,0,1-.13-.13.16.16,0,0,1,.13-.16h0c.07,0,.16.05.16.11s0,.16-.11.16a.1.1,0,0,1-.07,0Z" transform="translate(-0.31 -0.04)" style="fill:#5180c1"/><path d="M21.67,21.43a.13.13,0,0,1-.13-.13c0-.07,0-.16.13-.16h.18a.14.14,0,1,1,0,.27.07.07,0,0,0-.06,0h-.07s0,0-.09,0Z" transform="translate(-0.31 -0.04)" style="fill:#5180c1"/><path d="M21.94,21.39a.12.12,0,0,1-.13-.12c0-.06,0-.15.11-.15h0a.12.12,0,0,1,.16.11.13.13,0,0,1-.11.16h-.07Z" transform="translate(-0.31 -0.04)" style="fill:#5180c1"/><path d="M22.09,21.34a.14.14,0,0,1-.13-.11.11.11,0,0,1,.11-.15h.05a.14.14,0,0,1,.06.28s0,0,0,0S22.09,21.34,22.09,21.34Z" transform="translate(-0.31 -0.04)" style="fill:#5180c1"/><path d="M22.2,21.32a.15.15,0,0,1-.13-.11.15.15,0,0,1,.09-.18h0a.15.15,0,0,1,.18.09.16.16,0,0,1-.09.18s0,0,0,0Z" transform="translate(-0.31 -0.04)" style="fill:#5180c1"/><path d="M22.34,21.27a.17.17,0,0,1-.14-.08.16.16,0,0,1,.09-.18.12.12,0,0,0,.09-.05.14.14,0,0,1,.09.27l-.11,0Z" transform="translate(-0.31 -0.04)" style="fill:#5180c1"/><path d="M22.6,21.19a.15.15,0,0,1-.13-.09c0-.07,0-.16.07-.18h0a.13.13,0,0,1,.18.07.12.12,0,0,1-.07.17s0,0,0,0S22.63,21.19,22.6,21.19Z" transform="translate(-0.31 -0.04)" style="fill:#5180c1"/><path d="M22.67,21.14a.19.19,0,0,1-.13-.06.12.12,0,0,1,.06-.18h0a.14.14,0,1,1,.15.24,0,0,0,0,0,0,0Z" transform="translate(-0.31 -0.04)" style="fill:#5180c1"/><path d="M22.8,21.05a.13.13,0,0,1-.11-.06.15.15,0,0,1,0-.2,0,0,0,0,0,0,0,.14.14,0,0,1,.2,0,.15.15,0,0,1-.05.2s0,0,0,0A.08.08,0,0,1,22.8,21.05Z" transform="translate(-0.31 -0.04)" style="fill:#5180c1"/><path d="M22.87,21a.12.12,0,0,1-.11-.07.17.17,0,0,1,0-.2,0,0,0,0,0,0,0,.15.15,0,0,1,.2,0,.13.13,0,0,1,0,.2l0,0C22.91,21,22.89,21,22.87,21Z" transform="translate(-0.31 -0.04)" style="fill:#5180c1"/><path d="M23,20.94a.16.16,0,0,1-.11,0,.13.13,0,0,1,0-.2l0,0a.14.14,0,0,1,.2.2l0,0A.16.16,0,0,1,23,20.94Z" transform="translate(-0.31 -0.04)" style="fill:#5180c1"/><path d="M21.23,22.29c-1.17,0-2.1-.48-2.1-1.1a.55.55,0,0,1,0-.18.94.94,0,0,1,.2-.33.13.13,0,0,1,.2,0,.15.15,0,0,1,0,.2.59.59,0,0,0-.14.22s0,.06,0,.11c0,.4.73.84,1.84.84s1.84-.44,1.84-.84a.47.47,0,0,0-.16-.33.18.18,0,0,1,0-.2.15.15,0,0,1,.2,0,.68.68,0,0,1,.22.51C23.33,21.81,22.43,22.29,21.23,22.29Z" transform="translate(-0.31 -0.04)" style="fill:#5180c1"/><path d="M19.55,20.15s-.07,0-.09,0l-.07-.06h0l0,0a.14.14,0,1,1,.2-.2l0,0h0a.13.13,0,0,0,.07,0,.15.15,0,0,1,0,.2A.35.35,0,0,1,19.55,20.15Z" transform="translate(-0.31 -0.04)" style="fill:#5180c1"/><path d="M19.72,20.26a.06.06,0,0,1-.06,0s0,0-.05,0,0,0,0,0,0,0-.05,0,0,0,0,0a.13.13,0,0,1,0-.2.14.14,0,0,1,.2,0l0,0,0,0s0,0,.05,0,0,0,0,0a.15.15,0,0,1,.05.2A.39.39,0,0,1,19.72,20.26Z" transform="translate(-0.31 -0.04)" style="fill:#5180c1"/><path d="M19.81,20.3a.07.07,0,0,1-.06,0s0,0,0,0a.16.16,0,0,1,0-.2.15.15,0,0,1,.2,0h0a.15.15,0,0,1,.07.18C19.9,20.28,19.86,20.3,19.81,20.3Z" transform="translate(-0.31 -0.04)" style="fill:#5180c1"/><path d="M19.88,20.34a.1.1,0,0,1-.07,0h0a0,0,0,0,1,0,0,.13.13,0,1,1,.11-.24h0a.13.13,0,0,1,.07.17A.14.14,0,0,1,19.88,20.34Z" transform="translate(-0.31 -0.04)" style="fill:#5180c1"/><path d="M20.14,20.43h0s0,0,0,0l-.07,0a.15.15,0,0,1-.09-.18.16.16,0,0,1,.18-.09s0,0,.06,0,0,0,.05,0a.14.14,0,0,1,.09.17A.14.14,0,0,1,20.14,20.43Z" transform="translate(-0.31 -0.04)" style="fill:#5180c1"/><path d="M20.26,20.48h-.09a.14.14,0,1,1,.09-.27h0a.15.15,0,0,1,.09.18S20.3,20.48,20.26,20.48Z" transform="translate(-0.31 -0.04)" style="fill:#5180c1"/><path d="M20.52,20.54h-.07a.16.16,0,0,1-.11-.15.17.17,0,0,1,.16-.11h0c.07,0,.14.09.11.15A.12.12,0,0,1,20.52,20.54Z" transform="translate(-0.31 -0.04)" style="fill:#5180c1"/><path d="M20.79,20.59h-.14a.07.07,0,0,1-.06,0c-.07,0-.14-.09-.11-.16s.09-.13.15-.11h.18a.15.15,0,0,1,.13.16A.2.2,0,0,1,20.79,20.59Z" transform="translate(-0.31 -0.04)" style="fill:#5180c1"/><path d="M20.83,20.59h0a.13.13,0,0,1-.11-.16.13.13,0,0,1,.15-.11h0a.16.16,0,0,1,.14.16A.19.19,0,0,1,20.83,20.59Z" transform="translate(-0.31 -0.04)" style="fill:#5180c1"/><path d="M20.94,20.59h-.06a.15.15,0,1,1,0-.29h0a.16.16,0,0,1,.14.16A.13.13,0,0,1,20.94,20.59Z" transform="translate(-0.31 -0.04)" style="fill:#5180c1"/><path d="M21,20.61h-.07a.15.15,0,0,1,0-.29H21a.15.15,0,0,1,.13.16A.14.14,0,0,1,21,20.61Z" transform="translate(-0.31 -0.04)" style="fill:#5180c1"/><path d="M21.14,20.61H21a.15.15,0,0,1,0-.29h.09a.14.14,0,0,1,.13.14A.14.14,0,0,1,21.14,20.61Z" transform="translate(-0.31 -0.04)" style="fill:#5180c1"/><path d="M21.19,20.61h-.05a.14.14,0,0,1,0-.27h.05a.14.14,0,0,1,0,.27Z" transform="translate(-0.31 -0.04)" style="fill:#5180c1"/><path d="M21.3,20.61a.14.14,0,1,1,0-.27h0a.14.14,0,0,1,.13.14.14.14,0,0,1-.13.13Z" transform="translate(-0.31 -0.04)" style="fill:#5180c1"/><path d="M21.34,20.61a.14.14,0,0,1-.13-.13.14.14,0,0,1,.13-.14h.09a.16.16,0,0,1,.15.14.16.16,0,0,1-.13.15.2.2,0,0,0-.11,0Z" transform="translate(-0.31 -0.04)" style="fill:#5180c1"/><path d="M21.45,20.61a.15.15,0,0,1-.13-.13.16.16,0,0,1,.13-.16h.05a.17.17,0,0,1,.15.14.16.16,0,0,1-.13.15Z" transform="translate(-0.31 -0.04)" style="fill:#5180c1"/><path d="M21.54,20.59a.14.14,0,0,1-.13-.13.16.16,0,0,1,.13-.16h0a.15.15,0,1,1,0,.29Z" transform="translate(-0.31 -0.04)" style="fill:#5180c1"/><path d="M21.65,20.59a.13.13,0,0,1-.13-.13.16.16,0,0,1,.13-.16h0c.07,0,.16,0,.16.11s0,.16-.11.16a.1.1,0,0,1-.07,0Z" transform="translate(-0.31 -0.04)" style="fill:#5180c1"/><path d="M21.67,20.59a.13.13,0,0,1-.13-.13c0-.07,0-.16.13-.16h.18a.13.13,0,0,1,.16.11.14.14,0,0,1-.12.16.07.07,0,0,0-.06,0h-.16Z" transform="translate(-0.31 -0.04)" style="fill:#5180c1"/><path d="M21.94,20.54a.12.12,0,0,1-.13-.11c0-.06,0-.15.11-.15h0a.12.12,0,0,1,.16.11.12.12,0,0,1-.11.15h-.07Z" transform="translate(-0.31 -0.04)" style="fill:#5180c1"/><path d="M22.09,20.52a.14.14,0,0,1-.13-.11.11.11,0,0,1,.11-.15h.05a.14.14,0,0,1,.06.28s0,0,0,0S22.09,20.52,22.09,20.52Z" transform="translate(-0.31 -0.04)" style="fill:#5180c1"/><path d="M22.2,20.48a.15.15,0,0,1-.13-.11.15.15,0,0,1,.09-.18h0a.15.15,0,0,1,.18.09.16.16,0,0,1-.09.18l0,0Z" transform="translate(-0.31 -0.04)" style="fill:#5180c1"/><path d="M22.34,20.43a.16.16,0,0,1-.14-.09.15.15,0,0,1,.09-.17.12.12,0,0,0,.09-.05.14.14,0,0,1,.09.27l-.11,0Z" transform="translate(-0.31 -0.04)" style="fill:#5180c1"/><path d="M22.6,20.34a.14.14,0,0,1-.13-.08c0-.07,0-.16.07-.18h0a.12.12,0,0,1,.18.07.12.12,0,0,1-.07.17s0,0,0,0Z" transform="translate(-0.31 -0.04)" style="fill:#5180c1"/><path d="M22.67,20.3a.17.17,0,0,1-.13-.07.11.11,0,0,1,.06-.17h0a.14.14,0,0,1,.2,0,.15.15,0,0,1,0,.2,0,0,0,0,0,0,0Z" transform="translate(-0.31 -0.04)" style="fill:#5180c1"/><path d="M22.8,20.23a.13.13,0,0,1-.11-.06.15.15,0,0,1,0-.2,0,0,0,0,0,0,0,.14.14,0,0,1,.2,0,.15.15,0,0,1-.05.2s0,0,0,0Z" transform="translate(-0.31 -0.04)" style="fill:#5180c1"/><path d="M22.87,20.17a.12.12,0,0,1-.11-.07.11.11,0,0,1,0-.18,0,0,0,0,0,0,0,.15.15,0,0,1,.2,0,.13.13,0,0,1,0,.2l0,0Z" transform="translate(-0.31 -0.04)" style="fill:#5180c1"/><path d="M23,20.1a.16.16,0,0,1-.11,0,.13.13,0,0,1,0-.2l0,0a.18.18,0,0,1,.2,0,.15.15,0,0,1,0,.2l0,0A.16.16,0,0,1,23,20.1Z" transform="translate(-0.31 -0.04)" style="fill:#5180c1"/><path d="M21.23,21.45h-.66a.08.08,0,0,1-.07,0h-.05l-.24-.07h0l-.09,0s0,0,0,0l-.07,0-.18-.07a0,0,0,0,1,0,0s0,0,0,0a0,0,0,0,1,0,0l-.08,0s0,0-.05,0,0,0,0,0,0,0-.05,0,0,0,0,0h0L19.39,21l0,0h0a.68.68,0,0,1-.22-.51.5.5,0,0,1,0-.17,1,1,0,0,1,.2-.34.15.15,0,0,1,.2,0,.14.14,0,0,1,0,.2.57.57,0,0,0-.13.22c0,.05,0,.07,0,.12a.47.47,0,0,0,.16.33h0l0,0,.07,0h0l0,0s0,0,0,0,0,0,.05,0,0,0,0,0,.05,0,.07,0h0s0,0,0,0,0,0,0,0a.71.71,0,0,0,.15.07l.07,0s0,0,0,0l.09,0h0a.63.63,0,0,0,.22.05h.05a.07.07,0,0,1,.06,0h1.13a.08.08,0,0,0,.07,0h0l.12,0h0s0,0,.09,0l0,0,.07,0s.07,0,.09,0a1,1,0,0,1,.15-.07s0,0,0,0,0,0,0,0a0,0,0,0,0,0,0h0l.11-.06s0,0,0,0l0,0a0,0,0,0,0,0,0l.07,0h0l0,0,0,0a.57.57,0,0,0,.16-.33.51.51,0,0,0-.16-.34.14.14,0,0,1,.2-.2.71.71,0,0,1,.22.51.81.81,0,0,1-.22.51l0,0,0,0L23,21l0,0,0,0s0,0,0,0l-.13.07s0,0,0,0a.07.07,0,0,1,0,0s0,0,0,0l-.18.06s-.07,0-.11.05l-.09,0,0,0-.09,0h-.05s-.06,0-.11,0h0a.18.18,0,0,0-.09,0h-.6S21.25,21.45,21.23,21.45Z" transform="translate(-0.31 -0.04)" style="fill:#5180c1"/><path d="M19.81,19.46a.07.07,0,0,1-.06,0s0,0-.05,0a.14.14,0,0,1,0-.2.12.12,0,0,1,.17,0s0,0,.05,0a.15.15,0,0,1,.07.18C19.9,19.44,19.86,19.46,19.81,19.46Z" transform="translate(-0.31 -0.04)" style="fill:#5180c1"/><path d="M19.86,19.48a.08.08,0,0,1-.07,0s0,0,0,0a.15.15,0,0,1-.07-.18.15.15,0,0,1,.18-.07s0,0,0,0a.16.16,0,0,1,.07.18A.11.11,0,0,1,19.86,19.48Z" transform="translate(-0.31 -0.04)" style="fill:#5180c1"/><path d="M20,19.55h0l-.07,0a.12.12,0,0,1-.07-.17.13.13,0,0,1,.18-.07s0,0,0,0a.15.15,0,0,1,.08.18A.16.16,0,0,1,20,19.55Z" transform="translate(-0.31 -0.04)" style="fill:#5180c1"/><path d="M20.28,19.66h-.05a.07.07,0,0,1-.06,0,.15.15,0,0,1-.09-.18.14.14,0,0,1,.18-.09s0,0,0,0a.14.14,0,0,1,.09.18S20.34,19.66,20.28,19.66Z" transform="translate(-0.31 -0.04)" style="fill:#5180c1"/><path d="M20.52,19.7h-.07a.17.17,0,0,1-.11-.15.17.17,0,0,1,.16-.11h0c.07,0,.14.08.11.15A.12.12,0,0,1,20.52,19.7Z" transform="translate(-0.31 -0.04)" style="fill:#5180c1"/><path d="M20.79,19.75h-.14a.06.06,0,0,1-.06,0c-.07,0-.14-.08-.11-.15s.09-.13.15-.11h.18a.14.14,0,0,1,.13.15A.17.17,0,0,1,20.79,19.75Z" transform="translate(-0.31 -0.04)" style="fill:#5180c1"/><path d="M20.83,19.75h0a.14.14,0,0,1,0-.27h0a.16.16,0,0,1,.14.16A.19.19,0,0,1,20.83,19.75Z" transform="translate(-0.31 -0.04)" style="fill:#5180c1"/><path d="M20.94,19.77h-.06a.15.15,0,1,1,0-.29h0a.16.16,0,0,1,.14.16A.15.15,0,0,1,20.94,19.77Z" transform="translate(-0.31 -0.04)" style="fill:#5180c1"/><path d="M21,19.77h-.07a.16.16,0,0,1-.13-.16.15.15,0,0,1,.15-.13H21a.15.15,0,0,1,.13.16A.14.14,0,0,1,21,19.77Z" transform="translate(-0.31 -0.04)" style="fill:#5180c1"/><path d="M21.14,19.77H21a.15.15,0,0,1-.13-.16.14.14,0,0,1,.15-.13h.09a.14.14,0,0,1,.13.13A.15.15,0,0,1,21.14,19.77Z" transform="translate(-0.31 -0.04)" style="fill:#5180c1"/><path d="M21.19,19.77h-.05a.14.14,0,0,1,0-.27h.05a.14.14,0,0,1,0,.27Z" transform="translate(-0.31 -0.04)" style="fill:#5180c1"/><path d="M21.3,19.77a.14.14,0,1,1,0-.27h0a.14.14,0,0,1,.13.14.14.14,0,0,1-.13.13Z" transform="translate(-0.31 -0.04)" style="fill:#5180c1"/><path d="M21.34,19.77a.14.14,0,0,1-.13-.13.14.14,0,0,1,.13-.14h.09a.16.16,0,0,1,.15.14.16.16,0,0,1-.13.15.2.2,0,0,0-.11,0Z" transform="translate(-0.31 -0.04)" style="fill:#5180c1"/><path d="M21.45,19.77a.15.15,0,0,1-.13-.13.16.16,0,0,1,.13-.16h.05l0,.13v.14s0,0-.07,0Z" transform="translate(-0.31 -0.04)" style="fill:#5180c1"/><path d="M21.54,19.77a.14.14,0,0,1-.13-.13.16.16,0,0,1,.13-.16h0a.15.15,0,1,1,0,.29s-.05,0-.07,0Z" transform="translate(-0.31 -0.04)" style="fill:#5180c1"/><path d="M21.65,19.75a.13.13,0,0,1-.13-.14.16.16,0,0,1,.13-.15h0c.07,0,.16,0,.16.11s0,.15-.11.15a.07.07,0,0,1-.07,0Z" transform="translate(-0.31 -0.04)" style="fill:#5180c1"/><path d="M21.67,19.75a.13.13,0,0,1-.13-.14.14.14,0,0,1,.13-.15h.18a.13.13,0,0,1,.16.11.13.13,0,0,1-.12.15.06.06,0,0,0-.06,0h-.16Z" transform="translate(-0.31 -0.04)" style="fill:#5180c1"/><path d="M21.94,19.7a.13.13,0,0,1,0-.26h0a.12.12,0,0,1,.16.11.12.12,0,0,1-.11.15h-.07Z" transform="translate(-0.31 -0.04)" style="fill:#5180c1"/><path d="M22.09,19.68a.14.14,0,0,1-.13-.11.12.12,0,0,1,.11-.16h.05a.15.15,0,0,1,.17.11.14.14,0,0,1-.11.18s0,0,0,0A.06.06,0,0,0,22.09,19.68Z" transform="translate(-0.31 -0.04)" style="fill:#5180c1"/><path d="M22.18,19.66a.15.15,0,0,1-.13-.11.15.15,0,0,1,.11-.18s0,0,0,0a.15.15,0,0,1,.18.09.14.14,0,0,1-.09.17s0,0,0,0Z" transform="translate(-0.31 -0.04)" style="fill:#5180c1"/><path d="M22.34,19.61a.16.16,0,0,1-.14-.09.15.15,0,0,1,.09-.17l.05,0a.15.15,0,0,1,.18.08.16.16,0,0,1-.09.18l-.05,0S22.36,19.61,22.34,19.61Z" transform="translate(-0.31 -0.04)" style="fill:#5180c1"/><path d="M22.47,19.55a.2.2,0,0,1-.13-.09.13.13,0,0,1,.09-.18s0,0,0,0,.16,0,.18.07a.13.13,0,0,1-.07.17l-.06,0S22.49,19.55,22.47,19.55Z" transform="translate(-0.31 -0.04)" style="fill:#5180c1"/><path d="M22.63,19.48a.14.14,0,0,1-.14-.09.15.15,0,0,1,.07-.18s0,0,0,0a.13.13,0,0,1,.18.07.12.12,0,0,1-.07.18s0,0,0,0S22.65,19.48,22.63,19.48Z" transform="translate(-0.31 -0.04)" style="fill:#5180c1"/><path d="M22.67,19.46a.17.17,0,0,1-.13-.07c-.05-.06,0-.15.06-.18s0,0,0,0a.15.15,0,1,1,.15.25s0,0,0,0Z" transform="translate(-0.31 -0.04)" style="fill:#5180c1"/><path d="M22.71,19.44a.15.15,0,0,1-.11-.07.15.15,0,0,1,0-.2s0,0,0,0h0s0,0,0,0h0s0,0,.06-.05a.18.18,0,0,1,.2,0,.16.16,0,0,1,0,.2.17.17,0,0,1-.09.07s0,0,0,0,0,0-.05,0A.12.12,0,0,1,22.71,19.44Z" transform="translate(-0.31 -0.04)" style="fill:#5180c1"/><path d="M22.89,19.33a.14.14,0,0,1-.11-.07.18.18,0,0,1,0-.2s.05,0,.05,0a.13.13,0,0,1,.2,0,.14.14,0,0,1,0,.2s0,0-.06,0A.07.07,0,0,1,22.89,19.33Z" transform="translate(-0.31 -0.04)" style="fill:#5180c1"/><path d="M23,19.26a.16.16,0,0,1-.11-.05.12.12,0,0,1,0-.19l0,0a.18.18,0,0,1,.2,0,.15.15,0,0,1,0,.2l0,0A.09.09,0,0,1,23,19.26Z" transform="translate(-0.31 -0.04)" style="fill:#5180c1"/><path d="M21.23,20.61h-.64a.1.1,0,0,1-.07,0h0l-.25-.07h0l-.09,0,0,0-.07,0-.18-.07a0,0,0,0,1,0,0s0,0,0,0a0,0,0,0,1,0,0l-.09,0s0,0-.05,0,0,0,0,0,0,0-.05,0,0,0,0,0h0l-.07-.07,0,0h0a.71.71,0,0,1-.22-.51.55.55,0,0,1,0-.18,1.12,1.12,0,0,1,.2-.33h0a.18.18,0,0,1,.2,0,1.58,1.58,0,0,0,.27.2.15.15,0,0,1,0,.2.14.14,0,0,1-.2,0,1.16,1.16,0,0,1-.22-.13.51.51,0,0,0,0,.11c0,.05,0,.07,0,.11a.51.51,0,0,0,.16.34h0l0,0,.07,0h0l0,0s0,0,0,0,0,0,.05,0,0,0,0,0,.05,0,.07,0h0s0,0,0,0,0,0,0,0l.15.07.07,0,0,0,.09,0h0a1,1,0,0,0,.22.05h.05a.07.07,0,0,1,.06,0h1.13a.08.08,0,0,0,.07,0h0c.05,0,.07,0,.12,0h0s0,0,.09,0l0,0,.07,0s.07,0,.09-.05l.15-.06s0,0,0,0,0,0,0,0h0l.11-.06s0,0,0,0l0,0a0,0,0,0,0,0,0l.07,0h0l0,0,0,0a.57.57,0,0,0,.16-.33.51.51,0,0,0-.16-.34.17.17,0,0,1,0-.19.15.15,0,0,1,.2,0,.67.67,0,0,1,.22.5.81.81,0,0,1-.22.51l0,0,0,0-.06.07,0,0,0,0s0,0,0,0l-.13.07s0,0,0,0a.07.07,0,0,1,0,0s0,0,0,0l-.18.06s-.07,0-.11.05l-.09,0-.05,0-.08,0h-.05s-.06,0-.11,0h0a.16.16,0,0,0-.09,0h-.58S21.25,20.61,21.23,20.61Z" transform="translate(-0.31 -0.04)" style="fill:#5180c1"/><path d="M19.55,18.46a.13.13,0,0,1-.09,0c-.05,0-.07-.07-.11-.09a.15.15,0,0,1,0-.2.18.18,0,0,1,.2,0,.23.23,0,0,0,.09.07.15.15,0,0,1,0,.2A.18.18,0,0,1,19.55,18.46Z" transform="translate(-0.31 -0.04)" style="fill:#5180c1"/><path d="M19.72,18.57a.07.07,0,0,1-.06,0s0,0-.05,0,0,0,0,0,0,0-.05,0,0,0,0,0a.13.13,0,0,1,0-.2.15.15,0,0,1,.2,0,.07.07,0,0,0,0,0,.08.08,0,0,0,.05,0s0,0,0,0,0,0,0,0a.15.15,0,0,1,.05.2A.62.62,0,0,1,19.72,18.57Z" transform="translate(-0.31 -0.04)" style="fill:#5180c1"/><path d="M19.81,18.64a.07.07,0,0,1-.06,0,0,0,0,0,1,0,0,.14.14,0,0,1,0-.19.15.15,0,0,1,.2,0h0a.15.15,0,0,1,.07.18C19.9,18.59,19.86,18.64,19.81,18.64Z" transform="translate(-0.31 -0.04)" style="fill:#5180c1"/><path d="M20,18.73h-.09a.14.14,0,1,1,.09-.27h0a.14.14,0,0,1,0,.27Z" transform="translate(-0.31 -0.04)" style="fill:#5180c1"/><path d="M20.28,18.82h-.05a.06.06,0,0,1-.06,0,.13.13,0,0,1-.09-.17.14.14,0,0,1,.18-.09l0,0a.14.14,0,0,1,.09.18S20.34,18.82,20.28,18.82Z" transform="translate(-0.31 -0.04)" style="fill:#5180c1"/><path d="M20.52,18.86h-.07a.17.17,0,0,1-.11-.15.18.18,0,0,1,.16-.12h0c.07,0,.14.09.11.16A.12.12,0,0,1,20.52,18.86Z" transform="translate(-0.31 -0.04)" style="fill:#5180c1"/><path d="M20.79,18.9h-.14a.07.07,0,0,1-.06,0c-.07,0-.14-.09-.11-.15s.09-.14.15-.11h.18a.14.14,0,0,1,.13.15A.16.16,0,0,1,20.79,18.9Z" transform="translate(-0.31 -0.04)" style="fill:#5180c1"/><path d="M20.83,18.9h0a.12.12,0,0,1-.11-.15.13.13,0,0,1,.15-.11h0a.15.15,0,0,1,.14.15A.17.17,0,0,1,20.83,18.9Z" transform="translate(-0.31 -0.04)" style="fill:#5180c1"/><path d="M20.94,18.93h-.06a.15.15,0,1,1,0-.29h0a.15.15,0,0,1,.14.15A.15.15,0,0,1,20.94,18.93Z" transform="translate(-0.31 -0.04)" style="fill:#5180c1"/><path d="M21,18.93h-.07a.16.16,0,0,1-.13-.16.15.15,0,0,1,.15-.13H21a.14.14,0,0,1,.13.15A.14.14,0,0,1,21,18.93Z" transform="translate(-0.31 -0.04)" style="fill:#5180c1"/><path d="M21.14,18.93H21a.15.15,0,0,1-.13-.16.14.14,0,0,1,.15-.13h.09a.14.14,0,0,1,.13.13A.15.15,0,0,1,21.14,18.93Z" transform="translate(-0.31 -0.04)" style="fill:#5180c1"/><path d="M21.19,18.93h-.05a.14.14,0,0,1,0-.27h.05a.14.14,0,0,1,0,.27Z" transform="translate(-0.31 -0.04)" style="fill:#5180c1"/><path d="M21.3,18.93a.14.14,0,1,1,0-.27h0a.14.14,0,0,1,.13.13.14.14,0,0,1-.13.14Z" transform="translate(-0.31 -0.04)" style="fill:#5180c1"/><path d="M21.34,18.93a.14.14,0,0,1-.13-.14.14.14,0,0,1,.13-.13h.09a.15.15,0,0,1,0,.29.2.2,0,0,0-.11,0Z" transform="translate(-0.31 -0.04)" style="fill:#5180c1"/><path d="M21.45,18.93a.15.15,0,0,1-.13-.14.16.16,0,0,1,.13-.15h.05a.16.16,0,0,1,.15.13.17.17,0,0,1-.13.16Z" transform="translate(-0.31 -0.04)" style="fill:#5180c1"/><path d="M21.54,18.93a.14.14,0,0,1-.13-.14.16.16,0,0,1,.13-.15h0a.16.16,0,0,1,.16.13.17.17,0,0,1-.13.16Z" transform="translate(-0.31 -0.04)" style="fill:#5180c1"/><path d="M21.65,18.9a.12.12,0,0,1-.13-.13.16.16,0,0,1,.13-.15h0c.07,0,.16,0,.16.11s0,.15-.11.15a.1.1,0,0,1-.07,0Z" transform="translate(-0.31 -0.04)" style="fill:#5180c1"/><path d="M21.67,18.9a.13.13,0,0,1-.13-.13.14.14,0,0,1,.13-.15h.18a.13.13,0,0,1,.16.11.13.13,0,0,1-.12.15.07.07,0,0,0-.06,0h-.16Z" transform="translate(-0.31 -0.04)" style="fill:#5180c1"/><path d="M21.94,18.86a.12.12,0,0,1-.13-.11.13.13,0,0,1,.11-.16h0a.13.13,0,0,1,.16.12.12.12,0,0,1-.11.15h-.07Z" transform="translate(-0.31 -0.04)" style="fill:#5180c1"/><path d="M22.09,18.84a.15.15,0,0,1-.13-.11.12.12,0,0,1,.11-.16h.05a.15.15,0,0,1,.06.29l0,0A.06.06,0,0,0,22.09,18.84Z" transform="translate(-0.31 -0.04)" style="fill:#5180c1"/><path d="M22.18,18.82a.15.15,0,0,1-.13-.11.15.15,0,0,1,.11-.18l0,0a.15.15,0,0,1,.18.08.15.15,0,0,1-.09.18s0,0,0,0Z" transform="translate(-0.31 -0.04)" style="fill:#5180c1"/><path d="M22.34,18.77a.16.16,0,0,1-.14-.09.15.15,0,0,1,.09-.17h0a.14.14,0,0,1,.17.08.14.14,0,0,1-.09.18h-.06Z" transform="translate(-0.31 -0.04)" style="fill:#5180c1"/><path d="M22.45,18.73a.15.15,0,0,1-.13-.09.13.13,0,0,1,.08-.18s0,0,0,0a.13.13,0,0,1,.17.07.13.13,0,0,1-.06.17s0,0-.05,0S22.47,18.73,22.45,18.73Z" transform="translate(-0.31 -0.04)" style="fill:#5180c1"/><path d="M22.67,18.64a.17.17,0,0,1-.13-.07.11.11,0,0,1,.06-.17h0a.14.14,0,0,1,.2,0,.15.15,0,0,1,0,.2,0,0,0,0,0,0,0C22.69,18.62,22.67,18.64,22.67,18.64Z" transform="translate(-0.31 -0.04)" style="fill:#5180c1"/><path d="M22.8,18.55a.12.12,0,0,1-.11-.07.15.15,0,0,1,0-.2,0,0,0,0,0,0,0,.15.15,0,0,1,.2,0,.15.15,0,0,1-.05.2s0,0,0,0Z" transform="translate(-0.31 -0.04)" style="fill:#5180c1"/><path d="M22.87,18.51a.14.14,0,0,1-.11-.07.13.13,0,0,1,0-.2,0,0,0,0,0,0,0,.14.14,0,0,1,.18.22l0,0C22.91,18.48,22.89,18.51,22.87,18.51Z" transform="translate(-0.31 -0.04)" style="fill:#5180c1"/><path d="M23,18.44a.16.16,0,0,1-.11,0,.13.13,0,0,1,0-.2l0,0a.18.18,0,0,1,.2,0,.15.15,0,0,1,0,.2l0,0Z" transform="translate(-0.31 -0.04)" style="fill:#5180c1"/><path d="M21.23,19.77h-.6a.07.07,0,0,1-.06,0s-.05,0-.07,0h-.05l-.19,0a.08.08,0,0,1-.07,0,1,1,0,0,1-.24-.09l-.07,0-.11-.05s0,0-.05,0h0s0,0,0,0h0a1.3,1.3,0,0,1-.34-.25.71.71,0,0,1-.22-.5.52.52,0,0,1,0-.18,1.46,1.46,0,0,1,.2-.33.14.14,0,0,1,.2.2.56.56,0,0,0-.13.22.75.75,0,0,0,0,.11.45.45,0,0,0,.15.33,1.58,1.58,0,0,0,.27.2h0l0,0h0s0,0,0,0,.07,0,.09.05,0,0,0,0l.22.07s0,0,0,0l.2,0h.05a.07.07,0,0,1,.06,0h1.11a.1.1,0,0,0,.07,0h0l.11,0h.05s0,0,0,0h0l.05,0,.08,0,.05,0,.09,0a.07.07,0,0,0,0,0l.09,0s0,0,0,0h0s0,0,0,0h0s0,0,0,0h0s0,0,.05,0l.06,0h0s.05,0,.05,0h0l0,0,0,0a.42.42,0,0,0,0-.66.18.18,0,0,1,0-.2.15.15,0,0,1,.2,0,.68.68,0,0,1,.22.51.81.81,0,0,1-.22.5l0,.05,0,0,0,0s0,.05-.06.05h0l-.09.06s0,0,0,0,0,0,0,0h0s0,0,0,0h0s0,0,0,0-.07,0-.11.05l-.07,0s-.07,0-.11,0l0,0c.22,0,.2,0,.15,0l0,0h0s-.05,0-.05,0h0l-.11,0H22l-.09,0H21.3C21.27,19.77,21.25,19.77,21.23,19.77Z" transform="translate(-0.31 -0.04)" style="fill:#5180c1"/><path d="M21.23,18.93h-.6a.06.06,0,0,1-.06,0,.08.08,0,0,1-.07,0h-.05l-.19,0a.08.08,0,0,1-.07,0L20,18.75h0a1,1,0,0,1-.18-.09,0,0,0,0,1,0,0s-.05,0-.07-.05,0,0,0,0,0,0-.05,0,0,0,0,0,0,0-.05,0h0s-.06-.07-.09-.09h0a.75.75,0,0,1-.22-.51.81.81,0,0,1,.22-.51.22.22,0,0,1,.11,0h0c.05,0,.07,0,.12,0a.28.28,0,0,0,.08.06.14.14,0,0,1,0,.2.12.12,0,0,1-.18,0,.36.36,0,0,0-.07.22.47.47,0,0,0,.16.33h0l.09.07h0l0,0s0,0,0,0,0,0,.05,0,0,0,0,0l.07,0h0a1,1,0,0,1,.15.07h0l.2.06,0,0a1.46,1.46,0,0,0,.2.05h0a.08.08,0,0,1,.07,0h1.13a.11.11,0,0,0,.07,0h0l.11,0h.05s0,0,0,0,0,0,0,0l.09,0s0,0,.05,0l.06,0h0l.15-.07a0,0,0,0,0,0,0h0a1.05,1.05,0,0,0,.11-.07s0,0,.05,0l0,0s0,0,0,0l.07,0h0l0,0,.05,0a.61.61,0,0,0,.15-.33.45.45,0,0,0-.15-.33.15.15,0,0,1,0-.2.18.18,0,0,1,.2,0,.71.71,0,0,1,.22.51.83.83,0,0,1-.22.51l-.05,0,0,0-.07.06,0,0,0,0s0,0-.05,0l-.13.06s0,0,0,0a1.51,1.51,0,0,0-.18.09h0a0,0,0,0,0,0,0s0,0-.09,0l0,0a.37.37,0,0,0-.11.05s-.05,0-.05,0,0,0,0,0h-.05l-.11,0h0a.18.18,0,0,0-.09,0h-.6A.24.24,0,0,1,21.23,18.93Z" transform="translate(-0.31 -0.04)" style="fill:#5180c1"/><path d="M19.81,17.77a.07.07,0,0,1-.06,0s0,0-.05,0l-.09-.07-.09-.06s0,0,0,0a.13.13,0,0,1,0-.2.14.14,0,0,1,.2,0l0,0a.1.1,0,0,0,.07,0s0,0,.08,0,0,0,.05,0a.14.14,0,0,1,.07.17C19.9,17.75,19.86,17.77,19.81,17.77Z" transform="translate(-0.31 -0.04)" style="fill:#5180c1"/><path d="M20,17.86a.08.08,0,0,1-.07,0s0,0-.05,0,0,0,0,0h0a0,0,0,0,1,0,0,.15.15,0,0,1-.06-.17.14.14,0,0,1,.17-.07s0,0,0,0l0,0a0,0,0,0,1,0,0s0,0,.05,0a.12.12,0,0,1,.06.18S20,17.86,20,17.86Z" transform="translate(-0.31 -0.04)" style="fill:#5180c1"/><path d="M20,17.89h0l-.07,0a.12.12,0,0,1-.07-.17.13.13,0,0,1,.18-.07s0,0,0,0a.15.15,0,0,1,.08.18A.23.23,0,0,1,20,17.89Z" transform="translate(-0.31 -0.04)" style="fill:#5180c1"/><path d="M20.28,18h-.05a.07.07,0,0,1-.06,0,.14.14,0,0,1-.09-.18.14.14,0,0,1,.18-.08s0,0,0,0a.14.14,0,0,1,.09.18S20.34,18,20.28,18Z" transform="translate(-0.31 -0.04)" style="fill:#5180c1"/><path d="M20.52,18h-.07c-.06,0-.13-.09-.11-.16s.09-.13.16-.11h0c.07,0,.14.09.11.16A.12.12,0,0,1,20.52,18Z" transform="translate(-0.31 -0.04)" style="fill:#5180c1"/><path d="M20.79,18.06h-.2c-.07,0-.14-.09-.11-.15s.09-.14.15-.11h.18a.14.14,0,0,1,.13.15A.16.16,0,0,1,20.79,18.06Z" transform="translate(-0.31 -0.04)" style="fill:#5180c1"/><path d="M20.83,18.06h0a.13.13,0,0,1,0-.26h0A.15.15,0,0,1,21,18,.17.17,0,0,1,20.83,18.06Z" transform="translate(-0.31 -0.04)" style="fill:#5180c1"/><path d="M20.94,18.08h-.06a.15.15,0,0,1-.14-.15.15.15,0,0,1,.16-.13h0a.15.15,0,0,1,.14.15A.14.14,0,0,1,20.94,18.08Z" transform="translate(-0.31 -0.04)" style="fill:#5180c1"/><path d="M21,18.08h-.07a.14.14,0,0,1,0-.28H21a.14.14,0,0,1,.13.15A.12.12,0,0,1,21,18.08Z" transform="translate(-0.31 -0.04)" style="fill:#5180c1"/><path d="M21.14,18.08H21a.14.14,0,0,1,0-.28h.09a.13.13,0,0,1,.13.13C21.27,18,21.21,18.08,21.14,18.08Z" transform="translate(-0.31 -0.04)" style="fill:#5180c1"/><path d="M21.19,18.08h-.05A.14.14,0,0,1,21,18a.15.15,0,0,1,.13-.13h.05a.15.15,0,0,1,.13.13A.14.14,0,0,1,21.19,18.08Z" transform="translate(-0.31 -0.04)" style="fill:#5180c1"/><path d="M21.3,18.08a.14.14,0,0,1-.14-.13.15.15,0,0,1,.14-.13h0a.14.14,0,0,1,.13.13.13.13,0,0,1-.13.13Z" transform="translate(-0.31 -0.04)" style="fill:#5180c1"/><path d="M21.34,18.08a.13.13,0,0,1-.13-.13.14.14,0,0,1,.13-.13h.09a.15.15,0,0,1,.15.13.17.17,0,0,1-.13.16.14.14,0,0,0-.11,0Z" transform="translate(-0.31 -0.04)" style="fill:#5180c1"/><path d="M21.45,18.08a.14.14,0,0,1-.13-.13.16.16,0,0,1,.13-.15h.05a.16.16,0,0,1,.15.13.15.15,0,0,1-.13.15Z" transform="translate(-0.31 -0.04)" style="fill:#5180c1"/><path d="M21.54,18.08a.13.13,0,0,1-.13-.13.16.16,0,0,1,.13-.15h0a.16.16,0,0,1,.16.13c0,.09-.07.13-.13.15Z" transform="translate(-0.31 -0.04)" style="fill:#5180c1"/><path d="M21.65,18.06a.12.12,0,0,1-.13-.13.17.17,0,0,1,.13-.16h0c.07,0,.16.05.16.12s0,.15-.11.15l-.07,0Z" transform="translate(-0.31 -0.04)" style="fill:#5180c1"/><path d="M21.67,18.06a.13.13,0,0,1-.13-.13c0-.07,0-.16.13-.16h.18a.14.14,0,0,1,.16.12.13.13,0,0,1-.12.15h-.13s0,0-.09,0Z" transform="translate(-0.31 -0.04)" style="fill:#5180c1"/><path d="M21.94,18a.12.12,0,0,1-.13-.11.13.13,0,0,1,.11-.16h0a.12.12,0,0,1,.16.11A.13.13,0,0,1,22,18h-.07Z" transform="translate(-0.31 -0.04)" style="fill:#5180c1"/><path d="M22.09,18a.15.15,0,0,1-.13-.11.12.12,0,0,1,.11-.16h.05a.15.15,0,0,1,.06.29s0,0,0,0A.06.06,0,0,0,22.09,18Z" transform="translate(-0.31 -0.04)" style="fill:#5180c1"/><path d="M22.18,18a.14.14,0,0,1-.13-.11.14.14,0,0,1,.09-.17s0,0,0,0a.16.16,0,0,1,.18.09.15.15,0,0,1-.09.18s0,0,0,0Z" transform="translate(-0.31 -0.04)" style="fill:#5180c1"/><path d="M22.34,17.93a.16.16,0,0,1-.14-.09.17.17,0,0,1,.09-.18s0,0,.05,0a.14.14,0,1,1,.09.27s0,0-.05,0Z" transform="translate(-0.31 -0.04)" style="fill:#5180c1"/><path d="M22.47,17.89a.2.2,0,0,1-.13-.09.13.13,0,0,1,.09-.18s0,0,0,0,.16,0,.18.06,0,.16-.07.18l-.06,0S22.49,17.89,22.47,17.89Z" transform="translate(-0.31 -0.04)" style="fill:#5180c1"/><path d="M22.52,17.86a.14.14,0,0,1-.14-.09.13.13,0,0,1,.07-.17s0,0,0,0,0,0,.05,0,0,0,0,0a.13.13,0,0,1,.18.07.12.12,0,0,1-.07.17s0,0,0,0h0l0,0s0,0,0,0Z" transform="translate(-0.31 -0.04)" style="fill:#5180c1"/><path d="M22.67,17.77a.19.19,0,0,1-.13-.06.12.12,0,0,1,.06-.18s0,0,0,0,0,0,0,0,0,0,0,0l.06,0h0a.14.14,0,0,1,.19,0,.13.13,0,0,1,0,.2l0,0a.17.17,0,0,1-.09.07s0,0,0,0,0,0-.05,0,0,0,0,0A.15.15,0,0,0,22.67,17.77Z" transform="translate(-0.31 -0.04)" style="fill:#5180c1"/><path d="M22.91,17.62a.21.21,0,0,1-.11,0,.14.14,0,0,1,0-.2l0,0,0,0a.14.14,0,0,1,.2.2l0,0s0,0-.05,0S23,17.62,22.91,17.62Z" transform="translate(-0.31 -0.04)" style="fill:#5180c1"/><path d="M21.23,18.08h-.6a.07.07,0,0,1-.06,0,.08.08,0,0,1-.07,0h-.05l-.19,0s-.05,0-.07,0a1,1,0,0,1-.24-.08.07.07,0,0,1-.05,0h0s0,0,0,0a.08.08,0,0,1-.05,0h0a0,0,0,0,1,0,0h0s0,0-.05,0l-.09-.06-.09-.07s0,0,0,0h0s-.07-.07-.11-.09a.68.68,0,0,1-.22-.51c0-.62.93-1.11,2.1-1.11s2.11.49,2.11,1.11a.81.81,0,0,1-.22.51l-.05,0,0,0a.08.08,0,0,1-.05,0l0,0,0,0a.17.17,0,0,1-.09.07s0,0,0,0,0,0-.05,0,0,0,0,0h0s0,0,0,0h0l0,0s0,0,0,0h0s0,0,0,0l-.11,0-.05,0-.11.05s0,0,0,0-.05,0-.05,0h0l-.11,0h0a.16.16,0,0,0-.09,0h-.69Zm-.09-.26h.67a.07.07,0,0,0,.06,0h.05s.06,0,.11,0h0l.05,0h0l0,0,.09,0,0,0a.16.16,0,0,0,.09-.05l.05,0h0s0,0,0,0h0s0,0,.05,0h0s0,0,0,0h0s0,0,0,0h0s0,0,0,0,0,0,0,0,0,0,.07,0h0l0,0,0,0,0,0s0,0,0,0a.47.47,0,0,0,.16-.33c0-.4-.73-.84-1.84-.84s-1.84.44-1.84.84a.45.45,0,0,0,.15.33.31.31,0,0,0,.09.07h0l0,0s0,0,.06,0,.05,0,.09,0h0s0,0,0,0h0a0,0,0,0,1,0,0h0s0,0,0,0h0s0,0,0,0h0s0,0,0,0l.22.07s0,0,.05,0l.2,0h0a.07.07,0,0,1,.07,0H21Z" transform="translate(-0.31 -0.04)" style="fill:#5180c1"/><text transform="translate(20.36 17.24)" style="font-size:1px;fill:#fff;font-family:FiraSans-Bold, Fira Sans;font-weight:700">Rp</text></g></svg>