<svg id="Layer_1" data-name="Layer 1" xmlns="http://www.w3.org/2000/svg" viewBox="0 0 24 24.6"><g id="_764_Analysis_Graph_Presentation" data-name="764, Analysis, Graph, Presentation"><path d="M1.88,4.39H22.16V15.24a2,2,0,0,1-2,2H3.8a2,2,0,0,1-2-2C1.88,14,1.88,5.54,1.88,4.39Z" transform="translate(0 0.18)" style="fill:#fff"/><path d="M21.22,20.66a.69.69,0,1,1,0,1.37.71.71,0,0,1-.68-.69A.67.67,0,0,1,21.22,20.66Z" transform="translate(0 0.18)" style="fill:#a1c6e9"/><path d="M1.88,20.4a1.07,1.07,0,0,1,0,2.14,1.07,1.07,0,1,1,0-2.14Z" transform="translate(0 0.18)" style="fill:#a1c6e9"/><path d="M13.62,1.7v.55h-3.2V1.7a1.6,1.6,0,1,1,3.2,0Z" transform="translate(0 0.18)" style="fill:#fff"/><path d="M15.07,8.74V15h-2V9.81A17.46,17.46,0,0,0,15.07,8.74Z" transform="translate(0 0.18)" style="fill:#a1c6e9"/><path d="M11.15,10.67v4.39h-2V11.22C9.82,11.05,10.51,10.88,11.15,10.67Z" transform="translate(0 0.18)" style="fill:#a1c6e9"/><path d="M17,7.42v7.64h-2V8.74A16.21,16.21,0,0,0,17,7.42Z" transform="translate(0 0.18)" style="fill:#a1c6e9"/><path d="M13.11,9.81V15h-2V10.67C11.83,10.41,12.51,10.11,13.11,9.81Z" transform="translate(0 0.18)" style="fill:#a1c6e9"/><path d="M9.18,11.18V15h-2V11.39A10.38,10.38,0,0,0,9.18,11.18Z" transform="translate(0 0.18)" style="fill:#a1c6e9"/><polygon points="16.53 19.52 18.66 24.3 16.53 24.3 12.81 19.52 16.53 19.52" style="fill:#fff"/><polygon points="11.49 19.52 7.73 24.3 5.59 24.3 7.73 19.52 11.49 19.52" style="fill:#fff"/><path d="M19,17.2v1.15a1,1,0,0,1-1,1H6.06a1,1,0,0,1-1-1V17.2Z" transform="translate(0 0.18)" style="fill:#a1c6e9"/><path d="M1.32,4.39a1.07,1.07,0,0,1,0-2.14H22.68a1.07,1.07,0,0,1,0,2.14Z" transform="translate(0 0.18)" style="fill:#a1c6e9"/><path d="M23.36,5.71A.39.39,0,1,1,23,6.1.38.38,0,0,1,23.36,5.71Z" transform="translate(0 0.18)" style="fill:#2c80c3"/><path d="M22.8,17.75a.39.39,0,0,1,.39.39.39.39,0,0,1-.77,0A.39.39,0,0,1,22.8,17.75Z" transform="translate(0 0.18)" style="fill:#2c80c3"/><path d="M17.72.12a.39.39,0,0,1,.39.38.4.4,0,0,1-.39.39A.39.39,0,0,1,17.34.5.38.38,0,0,1,17.72.12Z" transform="translate(0 0.18)" style="fill:#2c80c3"/><path d="M5.47.67a.39.39,0,0,1,.38.39.39.39,0,0,1-.77,0A.39.39,0,0,1,5.47.67Z" transform="translate(0 0.18)" style="fill:#2c80c3"/><path d="M.64,16.94a.39.39,0,0,1,.38.39.38.38,0,1,1-.76,0A.39.39,0,0,1,.64,16.94Z" transform="translate(0 0.18)" style="fill:#2c80c3"/><path d="M1.88,4.64H1.32A1.33,1.33,0,0,1,0,3.32a1.36,1.36,0,0,1,.38-.94A1.36,1.36,0,0,1,1.32,2h9.1a.28.28,0,0,1,.26.25.28.28,0,0,1-.26.26H1.32a.8.8,0,0,0-.55.21.76.76,0,0,0-.26.56.81.81,0,0,0,.81.81h.56a.28.28,0,0,1,0,.55Z" transform="translate(0 0.18)" style="fill:#2c80c3"/><path d="M22.68,4.64h-.56a.27.27,0,0,1-.26-.25.28.28,0,0,1,.26-.26h.56a.8.8,0,0,0,.55-.21.71.71,0,0,0,.21-.56.81.81,0,0,0-.81-.81h-9a.27.27,0,0,1-.25-.25A.27.27,0,0,1,13.62,2h9.06a1.33,1.33,0,0,1,.94,2.26A1.47,1.47,0,0,1,22.68,4.64Z" transform="translate(0 0.18)" style="fill:#2c80c3"/><path d="M20.2,17.46H19a.26.26,0,1,1,0-.52H20.2a1.66,1.66,0,0,0,1.66-1.66V4.64H2.14v10.6A1.66,1.66,0,0,0,3.8,16.9H5a.28.28,0,0,1,.26.26.27.27,0,0,1-.26.25H3.8a2.2,2.2,0,0,1-2.22-2.22V4.39a.28.28,0,0,1,.26-.26H22.12a.28.28,0,0,1,.26.26V15.24A2.18,2.18,0,0,1,20.2,17.46Z" transform="translate(0 0.18)" style="fill:#2c80c3"/><path d="M17.94,19.59H16.53a.26.26,0,1,1,0-.51h1.41a.75.75,0,0,0,.72-.73V17.5H5.34v.85a.75.75,0,0,0,.72.73H7.73a.26.26,0,1,1,0,.51H6.06a1.28,1.28,0,0,1-1.28-1.28V17.16A.28.28,0,0,1,5,16.9H18.92a.27.27,0,0,1,.25.26v1.15A1.21,1.21,0,0,1,17.94,19.59Z" transform="translate(0 0.18)" style="fill:#2c80c3"/><path d="M12.81,19.59H11.49a.26.26,0,1,1,0-.51h1.32a.26.26,0,1,1,0,.51Z" transform="translate(0 0.18)" style="fill:#2c80c3"/><path d="M13.62,2.51h-3.2a.28.28,0,0,1-.26-.26V1.7a1.88,1.88,0,0,1,3.76,0v.55A.36.36,0,0,1,13.62,2.51ZM10.68,2h2.69V1.74a1.33,1.33,0,0,0-2.65,0V2Z" transform="translate(0 0.18)" style="fill:#2c80c3"/><path d="M1.88,22.79A1.32,1.32,0,1,1,3.2,21.47,1.32,1.32,0,0,1,1.88,22.79Zm0-2.13a.81.81,0,0,0-.81.81.78.78,0,0,0,.81.81.78.78,0,0,0,.81-.81A.81.81,0,0,0,1.88,20.66Z" transform="translate(0 0.18)" style="fill:#2c80c3"/><path d="M21.22,22.28a.94.94,0,1,1,.94-.94A1,1,0,0,1,21.22,22.28Zm0-1.36a.38.38,0,1,0,.39.38A.38.38,0,0,0,21.22,20.92Z" transform="translate(0 0.18)" style="fill:#2c80c3"/><path d="M7,10.54a.28.28,0,0,1-.26-.26A.27.27,0,0,1,7,10a8.92,8.92,0,0,0,1-.09,7.73,7.73,0,0,0,.94-.17c.3-.09.64-.13,1-.26a6.41,6.41,0,0,0,.94-.3c.35-.12.69-.25,1-.38a9.8,9.8,0,0,0,.94-.43c.64-.3,1.28-.68,2-1.07A16.71,16.71,0,0,0,16.61,6a.29.29,0,0,1,.39,0,.28.28,0,0,1-.05.39A15,15,0,0,1,15,7.8c-.69.39-1.33.77-2,1.07a7.25,7.25,0,0,1-1,.43,8.57,8.57,0,0,1-1,.38,9.69,9.69,0,0,1-1,.3l-1,.26c-.35.08-.69.13-1,.17a6,6,0,0,1-1,.13Z" transform="translate(0 0.18)" style="fill:#2c80c3"/><path d="M9.18,15.32h-2A.28.28,0,0,1,7,15.06V11.43a.28.28,0,0,1,.26-.25A10.1,10.1,0,0,0,9.14,11a.26.26,0,0,1,.08.52,8.27,8.27,0,0,1-1.75.21v3.12H9.18a.26.26,0,1,1,0,.51Z" transform="translate(0 0.18)" style="fill:#2c80c3"/><path d="M11.15,15.32h-2a.27.27,0,0,1-.25-.26V11.22A.24.24,0,0,1,9.14,11a9.9,9.9,0,0,0,1.92-.55.27.27,0,0,1,.17.51,12,12,0,0,1-1.79.51v3.38h1.71a.26.26,0,0,1,0,.51Z" transform="translate(0 0.18)" style="fill:#2c80c3"/><path d="M13.11,15.32h-2a.28.28,0,0,1-.26-.26V10.67a.3.3,0,0,1,.17-.26c.64-.21,1.28-.51,2-.81a.28.28,0,0,1,.35.13.27.27,0,0,1-.13.34,18,18,0,0,1-1.84.77v4h1.71a.26.26,0,1,1,0,.51Z" transform="translate(0 0.18)" style="fill:#2c80c3"/><path d="M15.07,15.32h-2a.28.28,0,0,1-.26-.26V9.81A.27.27,0,0,1,13,9.56a22.33,22.33,0,0,0,2-1.07.27.27,0,0,1,.38.08.28.28,0,0,1-.08.39c-.6.38-1.24.72-1.84,1v4.79h1.71a.27.27,0,0,1,.26.25A.37.37,0,0,1,15.07,15.32Z" transform="translate(0 0.18)" style="fill:#2c80c3"/><path d="M17,15.32h-2a.28.28,0,0,1-.25-.26V8.74A.23.23,0,0,1,15,8.53a19.92,19.92,0,0,0,1.92-1.32.33.33,0,0,1,.3,0,.31.31,0,0,1,.17.26v7.64A.29.29,0,0,1,17,15.32Zm-1.71-.51h1.45V8c-.34.21-.81.55-1.45.93Z" transform="translate(0 0.18)" style="fill:#2c80c3"/><path d="M7.73,24.42H5.59a.24.24,0,0,1-.21-.13.3.3,0,0,1,0-.26l2.14-4.82A.27.27,0,0,1,7.77,19h3.76a.27.27,0,0,1,.26.17.27.27,0,0,1,0,.3L8,24.33A.73.73,0,0,1,7.73,24.42ZM6,23.86H7.6l3.33-4.27h-3Z" transform="translate(0 0.18)" style="fill:#2c80c3"/><path d="M18.66,24.42H16.53a.37.37,0,0,1-.22-.09l-3.75-4.82a.34.34,0,0,1-.05-.3.29.29,0,0,1,.26-.17h3.76a.26.26,0,0,1,.25.17L18.92,24a.3.3,0,0,1,0,.26C18.83,24.33,18.75,24.42,18.66,24.42Zm-2-.56h1.58l-1.87-4.27h-3Z" transform="translate(0 0.18)" style="fill:#2c80c3"/><path d="M22.16,13.74H19.77a.26.26,0,0,1,0-.51h2.39a.26.26,0,1,1,0,.51Z" transform="translate(0 0.18)" style="fill:#2c80c3"/><path d="M22.16,12.67H19.77a.26.26,0,0,1,0-.51h2.39a.26.26,0,1,1,0,.51Z" transform="translate(0 0.18)" style="fill:#2c80c3"/><path d="M22.16,11.61H19.77a.26.26,0,0,1,0-.52h2.39a.26.26,0,0,1,0,.52Z" transform="translate(0 0.18)" style="fill:#2c80c3"/><path d="M22.16,10.54H19.77a.27.27,0,0,1-.25-.26.26.26,0,0,1,.25-.25h2.39a.27.27,0,0,1,.26.25A.28.28,0,0,1,22.16,10.54Z" transform="translate(0 0.18)" style="fill:#2c80c3"/><path d="M22.16,9.47H19.77a.26.26,0,0,1,0-.51h2.39a.26.26,0,1,1,0,.51Z" transform="translate(0 0.18)" style="fill:#2c80c3"/><path d="M4.27,13.74H1.88a.26.26,0,1,1,0-.51H4.27a.26.26,0,1,1,0,.51Z" transform="translate(0 0.18)" style="fill:#2c80c3"/><path d="M4.27,12.67H1.88a.26.26,0,1,1,0-.51H4.27a.26.26,0,1,1,0,.51Z" transform="translate(0 0.18)" style="fill:#2c80c3"/><path d="M4.27,11.61H1.88a.26.26,0,0,1,0-.52H4.27a.26.26,0,1,1,0,.52Z" transform="translate(0 0.18)" style="fill:#2c80c3"/><path d="M4.27,10.54H1.88a.28.28,0,0,1-.26-.26A.27.27,0,0,1,1.88,10H4.27a.27.27,0,0,1,.26.25A.28.28,0,0,1,4.27,10.54Z" transform="translate(0 0.18)" style="fill:#2c80c3"/><path d="M4.27,9.47H1.88a.26.26,0,1,1,0-.51H4.27a.26.26,0,1,1,0,.51Z" transform="translate(0 0.18)" style="fill:#2c80c3"/><path d="M1.88,4.39H22.16V15.24a2,2,0,0,1-2,2H3.8a2,2,0,0,1-2-2C1.88,14,1.88,5.54,1.88,4.39Z" transform="translate(0 0.18)" style="fill:#fff"/><path d="M21.22,20.66a.69.69,0,1,1,0,1.37.71.71,0,0,1-.68-.69A.67.67,0,0,1,21.22,20.66Z" transform="translate(0 0.18)" style="fill:#a1c6e9"/><path d="M1.88,20.4a1.07,1.07,0,0,1,0,2.14,1.07,1.07,0,1,1,0-2.14Z" transform="translate(0 0.18)" style="fill:#a1c6e9"/><path d="M13.62,1.7v.55h-3.2V1.7a1.6,1.6,0,1,1,3.2,0Z" transform="translate(0 0.18)" style="fill:#fff"/><path d="M15.07,8.74V15h-2V9.81A17.46,17.46,0,0,0,15.07,8.74Z" transform="translate(0 0.18)" style="fill:#a1c6e9"/><path d="M11.15,10.67v4.39h-2V11.22C9.82,11.05,10.51,10.88,11.15,10.67Z" transform="translate(0 0.18)" style="fill:#a1c6e9"/><path d="M17,7.42v7.64h-2V8.74A16.21,16.21,0,0,0,17,7.42Z" transform="translate(0 0.18)" style="fill:#a1c6e9"/><path d="M13.11,9.81V15h-2V10.67C11.83,10.41,12.51,10.11,13.11,9.81Z" transform="translate(0 0.18)" style="fill:#a1c6e9"/><path d="M9.18,11.18V15h-2V11.39A10.38,10.38,0,0,0,9.18,11.18Z" transform="translate(0 0.18)" style="fill:#a1c6e9"/><polygon points="16.53 19.52 18.66 24.3 16.53 24.3 12.81 19.52 16.53 19.52" style="fill:#fff"/><polygon points="11.49 19.52 7.73 24.3 5.59 24.3 7.73 19.52 11.49 19.52" style="fill:#fff"/><path d="M19,17.2v1.15a1,1,0,0,1-1,1H6.06a1,1,0,0,1-1-1V17.2Z" transform="translate(0 0.18)" style="fill:#a1c6e9"/><path d="M1.32,4.39a1.07,1.07,0,0,1,0-2.14H22.68a1.07,1.07,0,0,1,0,2.14Z" transform="translate(0 0.18)" style="fill:#a1c6e9"/><path d="M23.36,5.71A.39.39,0,1,1,23,6.1.38.38,0,0,1,23.36,5.71Z" transform="translate(0 0.18)" style="fill:#2c80c3"/><path d="M22.8,17.75a.39.39,0,0,1,.39.39.39.39,0,0,1-.77,0A.39.39,0,0,1,22.8,17.75Z" transform="translate(0 0.18)" style="fill:#2c80c3"/><path d="M17.72.12a.39.39,0,0,1,.39.38.4.4,0,0,1-.39.39A.39.39,0,0,1,17.34.5.38.38,0,0,1,17.72.12Z" transform="translate(0 0.18)" style="fill:#2c80c3"/><path d="M5.47.67a.39.39,0,0,1,.38.39.39.39,0,0,1-.77,0A.39.39,0,0,1,5.47.67Z" transform="translate(0 0.18)" style="fill:#2c80c3"/><path d="M.64,16.94a.39.39,0,0,1,.38.39.38.38,0,1,1-.76,0A.39.39,0,0,1,.64,16.94Z" transform="translate(0 0.18)" style="fill:#2c80c3"/><path d="M1.88,4.64H1.32A1.33,1.33,0,0,1,0,3.32a1.36,1.36,0,0,1,.38-.94A1.36,1.36,0,0,1,1.32,2h9.1a.28.28,0,0,1,.26.25.28.28,0,0,1-.26.26H1.32a.8.8,0,0,0-.55.21.76.76,0,0,0-.26.56.81.81,0,0,0,.81.81h.56a.28.28,0,0,1,0,.55Z" transform="translate(0 0.18)" style="fill:#2c80c3"/><path d="M22.68,4.64h-.56a.27.27,0,0,1-.26-.25.28.28,0,0,1,.26-.26h.56a.8.8,0,0,0,.55-.21.71.71,0,0,0,.21-.56.81.81,0,0,0-.81-.81h-9a.27.27,0,0,1-.25-.25A.27.27,0,0,1,13.62,2h9.06a1.33,1.33,0,0,1,.94,2.26A1.47,1.47,0,0,1,22.68,4.64Z" transform="translate(0 0.18)" style="fill:#2c80c3"/><path d="M20.2,17.46H19a.26.26,0,1,1,0-.52H20.2a1.66,1.66,0,0,0,1.66-1.66V4.64H2.14v10.6A1.66,1.66,0,0,0,3.8,16.9H5a.28.28,0,0,1,.26.26.27.27,0,0,1-.26.25H3.8a2.2,2.2,0,0,1-2.22-2.22V4.39a.28.28,0,0,1,.26-.26H22.12a.28.28,0,0,1,.26.26V15.24A2.18,2.18,0,0,1,20.2,17.46Z" transform="translate(0 0.18)" style="fill:#2c80c3"/><path d="M17.94,19.59H16.53a.26.26,0,1,1,0-.51h1.41a.75.75,0,0,0,.72-.73V17.5H5.34v.85a.75.75,0,0,0,.72.73H7.73a.26.26,0,1,1,0,.51H6.06a1.28,1.28,0,0,1-1.28-1.28V17.16A.28.28,0,0,1,5,16.9H18.92a.27.27,0,0,1,.25.26v1.15A1.21,1.21,0,0,1,17.94,19.59Z" transform="translate(0 0.18)" style="fill:#2c80c3"/><path d="M12.81,19.59H11.49a.26.26,0,1,1,0-.51h1.32a.26.26,0,1,1,0,.51Z" transform="translate(0 0.18)" style="fill:#2c80c3"/><path d="M13.62,2.51h-3.2a.28.28,0,0,1-.26-.26V1.7a1.88,1.88,0,0,1,3.76,0v.55A.36.36,0,0,1,13.62,2.51ZM10.68,2h2.69V1.74a1.33,1.33,0,0,0-2.65,0V2Z" transform="translate(0 0.18)" style="fill:#2c80c3"/><path d="M1.88,22.79A1.32,1.32,0,1,1,3.2,21.47,1.32,1.32,0,0,1,1.88,22.79Zm0-2.13a.81.81,0,0,0-.81.81.78.78,0,0,0,.81.81.78.78,0,0,0,.81-.81A.81.81,0,0,0,1.88,20.66Z" transform="translate(0 0.18)" style="fill:#2c80c3"/><path d="M21.22,22.28a.94.94,0,1,1,.94-.94A1,1,0,0,1,21.22,22.28Zm0-1.36a.38.38,0,1,0,.39.38A.38.38,0,0,0,21.22,20.92Z" transform="translate(0 0.18)" style="fill:#2c80c3"/><path d="M7,10.54a.28.28,0,0,1-.26-.26A.27.27,0,0,1,7,10a8.92,8.92,0,0,0,1-.09,7.73,7.73,0,0,0,.94-.17c.3-.09.64-.13,1-.26a6.41,6.41,0,0,0,.94-.3c.35-.12.69-.25,1-.38a9.8,9.8,0,0,0,.94-.43c.64-.3,1.28-.68,2-1.07A16.71,16.71,0,0,0,16.61,6a.29.29,0,0,1,.39,0,.28.28,0,0,1-.05.39A15,15,0,0,1,15,7.8c-.69.39-1.33.77-2,1.07a7.25,7.25,0,0,1-1,.43,8.57,8.57,0,0,1-1,.38,9.69,9.69,0,0,1-1,.3l-1,.26c-.35.08-.69.13-1,.17a6,6,0,0,1-1,.13Z" transform="translate(0 0.18)" style="fill:#2c80c3"/><path d="M9.18,15.32h-2A.28.28,0,0,1,7,15.06V11.43a.28.28,0,0,1,.26-.25A10.1,10.1,0,0,0,9.14,11a.26.26,0,0,1,.08.52,8.27,8.27,0,0,1-1.75.21v3.12H9.18a.26.26,0,1,1,0,.51Z" transform="translate(0 0.18)" style="fill:#2c80c3"/><path d="M11.15,15.32h-2a.27.27,0,0,1-.25-.26V11.22A.24.24,0,0,1,9.14,11a9.9,9.9,0,0,0,1.92-.55.27.27,0,0,1,.17.51,12,12,0,0,1-1.79.51v3.38h1.71a.26.26,0,0,1,0,.51Z" transform="translate(0 0.18)" style="fill:#2c80c3"/><path d="M13.11,15.32h-2a.28.28,0,0,1-.26-.26V10.67a.3.3,0,0,1,.17-.26c.64-.21,1.28-.51,2-.81a.28.28,0,0,1,.35.13.27.27,0,0,1-.13.34,18,18,0,0,1-1.84.77v4h1.71a.26.26,0,1,1,0,.51Z" transform="translate(0 0.18)" style="fill:#2c80c3"/><path d="M15.07,15.32h-2a.28.28,0,0,1-.26-.26V9.81A.27.27,0,0,1,13,9.56a22.33,22.33,0,0,0,2-1.07.27.27,0,0,1,.38.08.28.28,0,0,1-.08.39c-.6.38-1.24.72-1.84,1v4.79h1.71a.27.27,0,0,1,.26.25A.37.37,0,0,1,15.07,15.32Z" transform="translate(0 0.18)" style="fill:#2c80c3"/><path d="M17,15.32h-2a.28.28,0,0,1-.25-.26V8.74A.23.23,0,0,1,15,8.53a19.92,19.92,0,0,0,1.92-1.32.33.33,0,0,1,.3,0,.31.31,0,0,1,.17.26v7.64A.29.29,0,0,1,17,15.32Zm-1.71-.51h1.45V8c-.34.21-.81.55-1.45.93Z" transform="translate(0 0.18)" style="fill:#2c80c3"/><path d="M7.73,24.42H5.59a.24.24,0,0,1-.21-.13.3.3,0,0,1,0-.26l2.14-4.82A.27.27,0,0,1,7.77,19h3.76a.27.27,0,0,1,.26.17.27.27,0,0,1,0,.3L8,24.33A.73.73,0,0,1,7.73,24.42ZM6,23.86H7.6l3.33-4.27h-3Z" transform="translate(0 0.18)" style="fill:#2c80c3"/><path d="M18.66,24.42H16.53a.37.37,0,0,1-.22-.09l-3.75-4.82a.34.34,0,0,1-.05-.3.29.29,0,0,1,.26-.17h3.76a.26.26,0,0,1,.25.17L18.92,24a.3.3,0,0,1,0,.26C18.83,24.33,18.75,24.42,18.66,24.42Zm-2-.56h1.58l-1.87-4.27h-3Z" transform="translate(0 0.18)" style="fill:#2c80c3"/><path d="M22.16,13.74H19.77a.26.26,0,0,1,0-.51h2.39a.26.26,0,1,1,0,.51Z" transform="translate(0 0.18)" style="fill:#2c80c3"/><path d="M22.16,12.67H19.77a.26.26,0,0,1,0-.51h2.39a.26.26,0,1,1,0,.51Z" transform="translate(0 0.18)" style="fill:#2c80c3"/><path d="M22.16,11.61H19.77a.26.26,0,0,1,0-.52h2.39a.26.26,0,0,1,0,.52Z" transform="translate(0 0.18)" style="fill:#2c80c3"/><path d="M22.16,10.54H19.77a.27.27,0,0,1-.25-.26.26.26,0,0,1,.25-.25h2.39a.27.27,0,0,1,.26.25A.28.28,0,0,1,22.16,10.54Z" transform="translate(0 0.18)" style="fill:#2c80c3"/><path d="M22.16,9.47H19.77a.26.26,0,0,1,0-.51h2.39a.26.26,0,1,1,0,.51Z" transform="translate(0 0.18)" style="fill:#2c80c3"/><path d="M4.27,13.74H1.88a.26.26,0,1,1,0-.51H4.27a.26.26,0,1,1,0,.51Z" transform="translate(0 0.18)" style="fill:#2c80c3"/><path d="M4.27,12.67H1.88a.26.26,0,1,1,0-.51H4.27a.26.26,0,1,1,0,.51Z" transform="translate(0 0.18)" style="fill:#2c80c3"/><path d="M4.27,11.61H1.88a.26.26,0,0,1,0-.52H4.27a.26.26,0,1,1,0,.52Z" transform="translate(0 0.18)" style="fill:#2c80c3"/><path d="M4.27,10.54H1.88a.28.28,0,0,1-.26-.26A.27.27,0,0,1,1.88,10H4.27a.27.27,0,0,1,.26.25A.28.28,0,0,1,4.27,10.54Z" transform="translate(0 0.18)" style="fill:#2c80c3"/><path d="M4.27,9.47H1.88a.26.26,0,1,1,0-.51H4.27a.26.26,0,1,1,0,.51Z" transform="translate(0 0.18)" style="fill:#2c80c3"/></g></svg>