<svg id="Layer_1" data-name="Layer 1" xmlns="http://www.w3.org/2000/svg" viewBox="0 0 23.69 24"><g id="_492_Computer_Graph_Laptop" data-name="492, Computer, Graph, Laptop"><path d="M2.23,16.71V6.79A2.06,2.06,0,0,1,4.31,4.71H19.69a2.06,2.06,0,0,1,2.08,2.08v9.92Z" transform="translate(-0.16)" style="fill:#fff"/><path d="M22,.29a1,1,0,0,1,1,1,1,1,0,1,1-2.08,0A1,1,0,0,1,22,.29Z" transform="translate(-0.16)" style="fill:#fff"/><path d="M2.48.29A1.55,1.55,0,1,1,.94,1.83,1.54,1.54,0,0,1,2.48.29Z" transform="translate(-0.16)" style="fill:#fff"/><path d="M23.06,21.92a3.69,3.69,0,0,1-1.33,1.33,3.49,3.49,0,0,1-1.83.5H14.19V21.92Z" transform="translate(-0.16)" style="fill:#a1c6e9"/><rect x="9.87" y="21.92" width="4.17" height="1.83" style="fill:#fff"/><path d="M10,21.92v1.83h-6A3.59,3.59,0,0,1,.94,21.92Z" transform="translate(-0.16)" style="fill:#a1c6e9"/><polygon points="21.57 18.25 22.91 21.92 14.03 21.92 9.87 21.92 0.74 21.92 2.07 18.25 21.57 18.25" style="fill:#a1c6e9"/><polygon points="21.57 16.71 21.57 18.25 2.07 18.25 2.07 16.71 4.41 16.71 13.78 16.71 15.32 16.71 16.91 16.71 18.45 16.71 20.03 16.71 21.57 16.71" style="fill:#a1c6e9"/><rect x="18.45" y="14.33" width="1.58" height="2.33" style="fill:#a1c6e9"/><polygon points="16.91 13.04 16.91 16.71 15.32 16.71 15.32 13.58 15.32 12 16.91 12 16.91 13.04" style="fill:#a1c6e9"/><polygon points="18.45 14.33 18.45 16.71 16.91 16.71 16.91 13.04 18.45 13.04 18.45 14.33" style="fill:#a1c6e9"/><rect x="13.78" y="13.58" width="1.58" height="3.12" style="fill:#a1c6e9"/><path d="M23.81,11.71a.36.36,0,0,1-.21.5.37.37,0,0,1-.5-.21.37.37,0,0,1,.21-.5A.38.38,0,0,1,23.81,11.71Z" transform="translate(-0.16)" style="fill:#2c80c3"/><path d="M19.1,2.08a.38.38,0,1,1-.5-.2A.36.36,0,0,1,19.1,2.08Z" transform="translate(-0.16)" style="fill:#2c80c3"/><path d="M13.1,1a.36.36,0,0,1-.2.5.36.36,0,0,1-.5-.21A.38.38,0,1,1,13.1,1Z" transform="translate(-0.16)" style="fill:#2c80c3"/><path d="M8.19,2.62a.37.37,0,0,1-.21.5.36.36,0,0,1-.5-.2.37.37,0,0,1,.21-.5C7.85,2.29,8.1,2.42,8.19,2.62Z" transform="translate(-0.16)" style="fill:#2c80c3"/><path d="M.9,8.33a.37.37,0,0,1-.21.5.36.36,0,0,1-.5-.21.37.37,0,0,1,.21-.5A.39.39,0,0,1,.9,8.33Z" transform="translate(-0.16)" style="fill:#2c80c3"/><path d="M21.73,18.5a.26.26,0,0,1-.25-.25V6.79A1.84,1.84,0,0,0,19.65,5H4.31A1.84,1.84,0,0,0,2.48,6.79V18.25a.27.27,0,0,1-.25.25A.26.26,0,0,1,2,18.25V6.79A2.33,2.33,0,0,1,4.31,4.46H19.69A2.33,2.33,0,0,1,22,6.79V18.25A.27.27,0,0,1,21.73,18.5Z" transform="translate(-0.16)" style="fill:#2c80c3"/><path d="M23.06,22.17a.29.29,0,0,1-.25-.17l-1.25-3.46H2.4L1.15,22a.29.29,0,0,1-.34.17.28.28,0,0,1-.16-.34l1.29-3.66A.27.27,0,0,1,2.19,18H21.73a.28.28,0,0,1,.25.17l1.29,3.66a.29.29,0,0,1-.17.34Z" transform="translate(-0.16)" style="fill:#2c80c3"/><path d="M19.9,24H4.06A3.94,3.94,0,0,1,.69,22a.28.28,0,0,1,0-.25.22.22,0,0,1,.21-.12H10a.26.26,0,0,1,.25.25.27.27,0,0,1-.25.25H1.4a3.31,3.31,0,0,0,2.66,1.29H19.9A3.34,3.34,0,0,0,21.56,23a3.09,3.09,0,0,0,1-.83H14.19a.27.27,0,0,1-.25-.25.26.26,0,0,1,.25-.25H23a.24.24,0,0,1,.21.12.28.28,0,0,1,0,.25,4,4,0,0,1-3.33,2Z" transform="translate(-0.16)" style="fill:#2c80c3"/><path d="M14.19,24a.27.27,0,0,1-.25-.25V22.17H10.27v1.58A.27.27,0,0,1,10,24a.28.28,0,0,1-.25-.25V21.92a.27.27,0,0,1,.25-.25h4.17a.27.27,0,0,1,.25.25v1.83A.25.25,0,0,1,14.19,24Z" transform="translate(-0.16)" style="fill:#2c80c3"/><path d="M21.73,17H20.15a.27.27,0,0,1-.25-.25.26.26,0,0,1,.25-.25h1.58a.27.27,0,0,1,.25.25A.24.24,0,0,1,21.73,17Z" transform="translate(-0.16)" style="fill:#2c80c3"/><path d="M13.94,17H2.23A.27.27,0,0,1,2,16.71a.26.26,0,0,1,.25-.25H13.94a.27.27,0,0,1,.25.25A.28.28,0,0,1,13.94,17Z" transform="translate(-0.16)" style="fill:#2c80c3"/><path d="M4.81,19.83h-.5a.27.27,0,0,1-.25-.25.28.28,0,0,1,.25-.25h.5a.27.27,0,0,1,.25.25A.24.24,0,0,1,4.81,19.83Z" transform="translate(-0.16)" style="fill:#2c80c3"/><path d="M6.9,19.83H6.35a.27.27,0,0,1-.25-.25.28.28,0,0,1,.25-.25H6.9a.28.28,0,0,1,.25.25A.24.24,0,0,1,6.9,19.83Z" transform="translate(-0.16)" style="fill:#2c80c3"/><path d="M9,19.83H8.44a.26.26,0,0,1-.25-.25.27.27,0,0,1,.25-.25H9a.28.28,0,0,1,.25.25A.24.24,0,0,1,9,19.83Z" transform="translate(-0.16)" style="fill:#2c80c3"/><path d="M11.06,19.83h-.54a.27.27,0,0,1-.25-.25.28.28,0,0,1,.25-.25h.54a.27.27,0,0,1,.25.25A.24.24,0,0,1,11.06,19.83Z" transform="translate(-0.16)" style="fill:#2c80c3"/><path d="M13.15,19.83H12.6a.27.27,0,0,1-.25-.25.28.28,0,0,1,.25-.25h.55a.28.28,0,0,1,.25.25A.24.24,0,0,1,13.15,19.83Z" transform="translate(-0.16)" style="fill:#2c80c3"/><path d="M15.23,19.83h-.54a.26.26,0,0,1-.25-.25.27.27,0,0,1,.25-.25h.54a.28.28,0,0,1,.25.25A.24.24,0,0,1,15.23,19.83Z" transform="translate(-0.16)" style="fill:#2c80c3"/><path d="M17.31,19.83h-.54a.27.27,0,0,1-.25-.25.28.28,0,0,1,.25-.25h.54a.27.27,0,0,1,.25.25A.24.24,0,0,1,17.31,19.83Z" transform="translate(-0.16)" style="fill:#2c80c3"/><path d="M19.4,19.83h-.55a.27.27,0,0,1-.25-.25.28.28,0,0,1,.25-.25h.55a.28.28,0,0,1,.25.25A.24.24,0,0,1,19.4,19.83Z" transform="translate(-0.16)" style="fill:#2c80c3"/><path d="M4.81,20.87h-.5a.25.25,0,1,1,0-.49h.5a.26.26,0,0,1,.25.24A.24.24,0,0,1,4.81,20.87Z" transform="translate(-0.16)" style="fill:#2c80c3"/><path d="M6.9,20.87H6.35a.25.25,0,1,1,0-.49H6.9a.27.27,0,0,1,.25.24A.24.24,0,0,1,6.9,20.87Z" transform="translate(-0.16)" style="fill:#2c80c3"/><path d="M13.15,20.87H8.48a.25.25,0,1,1,0-.49h4.71a.27.27,0,0,1,.25.24A.28.28,0,0,1,13.15,20.87Z" transform="translate(-0.16)" style="fill:#2c80c3"/><path d="M15.23,20.87h-.54a.25.25,0,1,1,0-.49h.54a.27.27,0,0,1,.25.24A.24.24,0,0,1,15.23,20.87Z" transform="translate(-0.16)" style="fill:#2c80c3"/><path d="M17.31,20.87h-.54a.25.25,0,1,1,0-.49h.54a.26.26,0,0,1,.25.24A.24.24,0,0,1,17.31,20.87Z" transform="translate(-0.16)" style="fill:#2c80c3"/><path d="M19.4,20.87h-.55a.25.25,0,1,1,0-.49h.55a.27.27,0,0,1,.25.24A.24.24,0,0,1,19.4,20.87Z" transform="translate(-0.16)" style="fill:#2c80c3"/><path d="M22,2.62a1.29,1.29,0,1,1,1.29-1.29A1.29,1.29,0,0,1,22,2.62ZM22,.54a.8.8,0,1,0,.79.79A.82.82,0,0,0,22,.54Z" transform="translate(-0.16)" style="fill:#2c80c3"/><path d="M2.48,3.67A1.85,1.85,0,0,1,.65,1.83,1.84,1.84,0,0,1,2.48,0,1.84,1.84,0,0,1,4.31,1.83,1.85,1.85,0,0,1,2.48,3.67Zm0-3.13A1.29,1.29,0,1,0,3.77,1.83,1.3,1.3,0,0,0,2.48.54Z" transform="translate(-0.16)" style="fill:#2c80c3"/><path d="M4.56,17a.21.21,0,0,1-.16-.08.3.3,0,0,1,0-.38l6.25-6.25a.31.31,0,0,1,.37,0l1.38,1.38L17,7a.33.33,0,0,1,.38,0,.33.33,0,0,1,0,.38l-4.84,4.79a.31.31,0,0,1-.37,0l-1.38-1.38L4.73,16.88A.33.33,0,0,1,4.56,17Z" transform="translate(-0.16)" style="fill:#2c80c3"/><path d="M17.19,9.54a.26.26,0,0,1-.25-.25V7.46H15.1a.28.28,0,0,1-.25-.25A.27.27,0,0,1,15.1,7h2.09a.27.27,0,0,1,.25.25V9.29A.27.27,0,0,1,17.19,9.54Z" transform="translate(-0.16)" style="fill:#2c80c3"/><path d="M15.48,17H13.9a.27.27,0,0,1-.25-.25V13.58a.27.27,0,0,1,.25-.25h1.58a.28.28,0,0,1,.25.25.27.27,0,0,1-.25.25H14.19v2.63h1.29a.27.27,0,0,1,.25.25A.24.24,0,0,1,15.48,17Z" transform="translate(-0.16)" style="fill:#2c80c3"/><path d="M17.06,17H15.48a.27.27,0,0,1-.25-.25V12a.26.26,0,0,1,.25-.25h1.58a.26.26,0,0,1,.25.25v1a.26.26,0,0,1-.25.25.27.27,0,0,1-.25-.25v-.79h-1v4.17h1.29a.26.26,0,0,1,.25.25C17.31,16.79,17.19,17,17.06,17Z" transform="translate(-0.16)" style="fill:#2c80c3"/><path d="M18.6,17H17.06a.28.28,0,0,1-.25-.25V13a.28.28,0,0,1,.25-.25H18.6a.27.27,0,0,1,.25.25v1.29a.26.26,0,0,1-.25.25.27.27,0,0,1-.25-.25v-1h-1v3.13H18.6a.26.26,0,0,1,.25.25A.27.27,0,0,1,18.6,17Z" transform="translate(-0.16)" style="fill:#2c80c3"/><path d="M20.19,17H18.6a.28.28,0,0,1-.25-.25V14.37a.28.28,0,0,1,.25-.25h1.59a.28.28,0,0,1,.25.25v2.34A.28.28,0,0,1,20.19,17Zm-1.29-.54h1V14.58h-1Z" transform="translate(-0.16)" style="fill:#2c80c3"/></g></svg>