<svg id="Layer_1" data-name="Layer 1" xmlns="http://www.w3.org/2000/svg" viewBox="0 0 24 23.91"><g id="_769_Counter_Progress_Progress_Percent_Timer" data-name="769, Counter, Progress, Progress Percent, Timer"><path d="M11.46,5.47A6.54,6.54,0,0,1,18,12h0a7,7,0,0,1-.13,1.37H16.81l-.18,1.51a4,4,0,0,0-1,.39l-1.24-.88L13.23,15.5l1,1.19a3.72,3.72,0,0,0-.39,1l-1.55.18v.71a5.36,5.36,0,0,1-.8,0,6.56,6.56,0,0,1-6.54-6.54h0A6.53,6.53,0,0,1,11.46,5.47Z" transform="translate(0.43 -0.16)" style="fill:#fff"/><path d="M22.2,5.64a1.11,1.11,0,1,1,0,2.21,1.11,1.11,0,0,1,0-2.21Z" transform="translate(0.43 -0.16)" style="fill:#a1c6e9"/><path d="M2.31,19.17A1.95,1.95,0,1,1,.37,21.11,1.94,1.94,0,0,1,2.31,19.17Z" transform="translate(0.43 -0.16)" style="fill:#a1c6e9"/><path d="M19.86,18.59a2.25,2.25,0,0,1-2.25,2.21,2.21,2.21,0,1,1,2.25-2.21Zm-1.33,0a1,1,0,1,0-1,.93A.94.94,0,0,0,18.53,18.59Z" transform="translate(0.43 -0.16)" style="fill:#fff"/><path d="M23,17.8v1.59l-1.54.18a3.75,3.75,0,0,1-.4,1l1,1.19-1.15,1.15-1.23-1a4.09,4.09,0,0,1-1,.4l-.18,1.5H16.77l-.18-1.5a4.09,4.09,0,0,1-1-.4l-1.23,1-1.15-1.15,1-1.15a4.48,4.48,0,0,1-.31-.62h0c0-.13-.08-.22-.13-.35l-1.55-.18V17.8l1.55-.18a3.75,3.75,0,0,1,.4-1l-1-1.2,1.15-1.14,1.23,1a4.09,4.09,0,0,1,1-.4l.18-1.5H18.4l.18,1.5a2.21,2.21,0,0,1,.53.18l.49.22,1.23-1L22,15.45l-1,1.2a3.75,3.75,0,0,1,.4,1Zm-5.34,3a2.21,2.21,0,1,0-2.26-2.21A2.25,2.25,0,0,0,17.61,20.8Z" transform="translate(0.43 -0.16)" style="fill:#a1c6e9"/><path d="M11.46,11.57a.7.7,0,0,1,.71.7.71.71,0,0,1-.71.71.7.7,0,0,1-.7-.71A.7.7,0,0,1,11.46,11.57Z" transform="translate(0.43 -0.16)" style="fill:#a1c6e9"/><path d="M17.12,4.71l-.57.8c-.31-.22-.62-.44-1-.66L16.24,4Z" transform="translate(0.43 -0.16)" style="fill:#fff"/><path d="M12.26,2V3.79c-.27,0-.53,0-.8,0a3.3,3.3,0,0,0-.7,0V2Z" transform="translate(0.43 -0.16)" style="fill:#fff"/><path d="M6.73,4l.62.79a8,8,0,0,0-1,.62l-.57-.71Z" transform="translate(0.43 -0.16)" style="fill:#fff"/><path d="M19.68,12a8.79,8.79,0,0,1-.57,3.05,2.21,2.21,0,0,0-.53-.18l-.18-1.5h-.57A6.78,6.78,0,0,0,18,12a6.54,6.54,0,1,0-5.75,6.49v.89l1.55.18c.05.13.09.22.13.35a7.75,7.75,0,0,1-2.47.4,8.27,8.27,0,1,1,0-16.53A8.17,8.17,0,0,1,19.68,12Z" transform="translate(0.43 -0.16)" style="fill:#a1c6e9"/><path d="M18.45,2.11a2.88,2.88,0,0,1,.48,4L17.12,4.71,16.24,4,14.42,2.59A2.88,2.88,0,0,1,18.45,2.11Z" transform="translate(0.43 -0.16)" style="fill:#a1c6e9"/><path d="M12.26,2H10.18a.77.77,0,0,1-.75-.75.75.75,0,0,1,.75-.75h2.61a.77.77,0,0,1,.75.75.74.74,0,0,1-.22.53.7.7,0,0,1-.53.22Z" transform="translate(0.43 -0.16)" style="fill:#a1c6e9"/><path d="M8.55,2.64,6.73,4.05l-.88.71L4,6.13a2.88,2.88,0,0,1,.48-4A2.85,2.85,0,0,1,8.55,2.64Z" transform="translate(0.43 -0.16)" style="fill:#a1c6e9"/><path d="M22.87,10.64a.4.4,0,0,1,0,.79.4.4,0,1,1,0-.79Z" transform="translate(0.43 -0.16)" style="fill:#2c80c3"/><path d="M22.87,23.06a.38.38,0,0,1,.39.39.39.39,0,0,1-.39.4.4.4,0,0,1-.4-.4A.39.39,0,0,1,22.87,23.06Z" transform="translate(0.43 -0.16)" style="fill:#2c80c3"/><path d="M20.66.38a.39.39,0,0,1,.39.4.39.39,0,0,1-.39.4.4.4,0,0,1,0-.8Z" transform="translate(0.43 -0.16)" style="fill:#2c80c3"/><path d="M12.39,23.06a.39.39,0,0,1,.4.39.4.4,0,1,1-.8,0A.39.39,0,0,1,12.39,23.06Z" transform="translate(0.43 -0.16)" style="fill:#2c80c3"/><path d="M6.6,21.11a.4.4,0,1,1-.4.4A.4.4,0,0,1,6.6,21.11Z" transform="translate(0.43 -0.16)" style="fill:#2c80c3"/><path d="M1.61,16.16a.4.4,0,0,1,0,.8.4.4,0,1,1,0-.8Z" transform="translate(0.43 -0.16)" style="fill:#2c80c3"/><path d="M1.34.69a.4.4,0,1,1-.4.4A.4.4,0,0,1,1.34.69Z" transform="translate(0.43 -0.16)" style="fill:#2c80c3"/><path d="M0,6.75a.4.4,0,0,1,.4.4.39.39,0,0,1-.4.39.39.39,0,0,1-.4-.39A.4.4,0,0,1,0,6.75Z" transform="translate(0.43 -0.16)" style="fill:#2c80c3"/><path d="M12.79,2.24h-.58A.28.28,0,0,1,12,2a.28.28,0,0,1,.26-.26h.58a.54.54,0,0,0,.35-.13.5.5,0,0,0,.13-.36.49.49,0,0,0-.48-.48H10.18a.49.49,0,0,0-.35.13.5.5,0,0,0,.35.84h.58A.28.28,0,0,1,11,2a.28.28,0,0,1-.26.27h-.58a1,1,0,0,1-1-1A1,1,0,0,1,9.47.47a1.08,1.08,0,0,1,.76-.31h2.6a1,1,0,0,1,1,1,1.06,1.06,0,0,1-1.06,1.06Z" transform="translate(0.43 -0.16)" style="fill:#2c80c3"/><path d="M11.46,13.24a1,1,0,1,1,1-1A1,1,0,0,1,11.46,13.24Zm0-1.37a.45.45,0,1,0,.44.45A.47.47,0,0,0,11.46,11.87Z" transform="translate(0.43 -0.16)" style="fill:#2c80c3"/><path d="M11.46,11.87a.28.28,0,0,1-.26-.26V8.78a.27.27,0,0,1,.53,0v2.83A.28.28,0,0,1,11.46,11.87Z" transform="translate(0.43 -0.16)" style="fill:#2c80c3"/><path d="M11.46,6.75a.28.28,0,0,1-.26-.27v-1a.27.27,0,1,1,.53,0v1A.28.28,0,0,1,11.46,6.75Z" transform="translate(0.43 -0.16)" style="fill:#2c80c3"/><path d="M15.35,8.34a.22.22,0,0,1-.17-.09.33.33,0,0,1,0-.4l.7-.7a.33.33,0,0,1,.4,0,.31.31,0,0,1,0,.39l-.71.71A.24.24,0,0,1,15.35,8.34Z" transform="translate(0.43 -0.16)" style="fill:#2c80c3"/><path d="M6.82,16.91a.19.19,0,0,1-.17-.09.31.31,0,0,1,0-.39l.7-.71a.33.33,0,0,1,.4,0c.13.09.09.27,0,.4l-.71.7A.59.59,0,0,1,6.82,16.91Z" transform="translate(0.43 -0.16)" style="fill:#2c80c3"/><path d="M18,12.27H17a.27.27,0,1,1,0-.53h1a.29.29,0,0,1,.27.27C18.27,12.14,18.14,12.27,18,12.27Z" transform="translate(0.43 -0.16)" style="fill:#2c80c3"/><path d="M5.89,12.27h-1a.27.27,0,0,1,0-.53h1a.28.28,0,0,1,.27.27A.25.25,0,0,1,5.89,12.27Z" transform="translate(0.43 -0.16)" style="fill:#2c80c3"/><path d="M7.53,8.34a.26.26,0,0,1-.18-.09l-.7-.71A.28.28,0,0,1,7,7.15l.71.7a.33.33,0,0,1,0,.4A.24.24,0,0,1,7.53,8.34Z" transform="translate(0.43 -0.16)" style="fill:#2c80c3"/><path d="M18.93,6.44s-.13,0-.17-.05L14.25,2.86a.28.28,0,0,1-.05-.4,3.2,3.2,0,0,1,2.48-1.19,3.12,3.12,0,0,1,1.94.66,3.16,3.16,0,0,1,.53,4.42s-.09,0-.22.09ZM14.82,2.59l4.07,3.19a2.58,2.58,0,0,0-2.21-3.94A2.31,2.31,0,0,0,14.82,2.59Z" transform="translate(0.43 -0.16)" style="fill:#2c80c3"/><path d="M4,6.44H4a.34.34,0,0,1-.22-.09A3.22,3.22,0,0,1,3.15,4a3,3,0,0,1,1.2-2.08,3.18,3.18,0,0,1,4.42.53.28.28,0,0,1,0,.4L4.21,6.39C4.13,6.39,4.08,6.44,4,6.44ZM6.29,1.8a2.52,2.52,0,0,0-1.59.53,2.74,2.74,0,0,0-1,1.72,2.47,2.47,0,0,0,.35,1.68L8.15,2.55A2.6,2.6,0,0,0,6.29,1.8Z" transform="translate(0.43 -0.16)" style="fill:#2c80c3"/><path d="M15.57,5.16s-.13,0-.17,0a.27.27,0,0,1-.05-.4L16,3.87a.27.27,0,0,1,.39,0,.28.28,0,0,1,.05.4l-.67.84A.34.34,0,0,1,15.57,5.16Z" transform="translate(0.43 -0.16)" style="fill:#2c80c3"/><path d="M16.55,5.78a.29.29,0,0,1-.27-.27h0a.31.31,0,0,1,0-.18l.62-.79a.29.29,0,0,1,.45.35l-.62.75C16.68,5.73,16.63,5.78,16.55,5.78Z" transform="translate(0.43 -0.16)" style="fill:#2c80c3"/><path d="M6.42,5.73a.21.21,0,0,1-.17-.09l0,0-.57-.75a.28.28,0,0,1,.44-.36l.58.75a.3.3,0,0,1,0,.36A.25.25,0,0,1,6.42,5.73Z" transform="translate(0.43 -0.16)" style="fill:#2c80c3"/><path d="M7.35,5.11A.19.19,0,0,1,7.18,5h0l0,0-.62-.8a.26.26,0,0,1,0-.39.27.27,0,0,1,.39,0l.62.8a.26.26,0,0,1,0,.35C7.48,5.07,7.44,5.11,7.35,5.11Z" transform="translate(0.43 -0.16)" style="fill:#2c80c3"/><path d="M12.26,4.1A.3.3,0,0,1,12,3.83V2.28H11V3.83a.27.27,0,1,1-.53,0V2a.28.28,0,0,1,.27-.26h1.5a.28.28,0,0,1,.26.26V3.79A.3.3,0,0,1,12.26,4.1Z" transform="translate(0.43 -0.16)" style="fill:#2c80c3"/><path d="M17.61,21.07a2.48,2.48,0,1,1,0-4.95,2.48,2.48,0,1,1,0,4.95Zm0-4.42a1.95,1.95,0,1,0,2,1.94A2,2,0,0,0,17.61,16.65Z" transform="translate(0.43 -0.16)" style="fill:#2c80c3"/><path d="M17.61,19.79a1.23,1.23,0,0,1-1.24-1.2,1.2,1.2,0,0,1,1.24-1.19,1.2,1.2,0,1,1,0,2.39Zm0-1.86a.67.67,0,1,0,.66.66A.68.68,0,0,0,17.61,17.93Z" transform="translate(0.43 -0.16)" style="fill:#2c80c3"/><path d="M11.46,18.81A6.79,6.79,0,0,1,4.66,12v0a6.81,6.81,0,0,1,13.61,0v0a7.47,7.47,0,0,1-.13,1.41c-.05.13-.18.27-.31.22s-.27-.17-.22-.31a7,7,0,0,0,.13-1.28h0a6.28,6.28,0,0,0-12.55,0h0A6.32,6.32,0,0,0,7,16.47a6.2,6.2,0,0,0,4.42,1.86,3.59,3.59,0,0,0,.75,0c.13,0,.31.09.31.22s-.09.31-.22.31Z" transform="translate(0.43 -0.16)" style="fill:#2c80c3"/><path d="M11.46,20.54A8.54,8.54,0,0,1,6.25,5.24l1-.66a8.66,8.66,0,0,1,3.49-1.1,8,8,0,0,1,1.55,0,8.53,8.53,0,0,1,3.45,1.1,8.27,8.27,0,0,1,1,.66A8.49,8.49,0,0,1,20,12a8.22,8.22,0,0,1-.62,3.14.24.24,0,0,1-.35.13.24.24,0,0,1-.14-.35,8.25,8.25,0,0,0,.58-3,7.9,7.9,0,0,0-3.05-6.28c-.31-.22-.62-.44-.93-.62a7.55,7.55,0,0,0-3.23-1,7,7,0,0,0-1.45,0A8,8,0,0,0,7.48,5c-.3.18-.61.4-.92.62A8,8,0,0,0,11.46,20a8.69,8.69,0,0,0,2.39-.35.29.29,0,0,1,.35.18.29.29,0,0,1-.17.35A8.82,8.82,0,0,1,11.46,20.54Z" transform="translate(0.43 -0.16)" style="fill:#2c80c3"/><path d="M18.4,24.07H16.77a.25.25,0,0,1-.27-.26l-.13-1.33a3,3,0,0,1-.71-.31L14.6,23a.26.26,0,0,1-.35,0L13.1,21.86a.23.23,0,0,1,0-.35L14,20.45a2.64,2.64,0,0,1-.22-.49h0a.27.27,0,0,1,0-.17l-1.51-.14a.28.28,0,0,1-.26-.26V17.8a.25.25,0,0,1,.26-.27l1.37-.13a5.46,5.46,0,0,1,.31-.71L13,15.63a.26.26,0,0,1,0-.35l1.15-1.15a.26.26,0,0,1,.35,0l1.06.84a5.46,5.46,0,0,1,.71-.31l.13-1.33a.29.29,0,0,1,.27-.26h1.63a.25.25,0,0,1,.27.26l.13,1.33.4.13a1.46,1.46,0,0,1,.35.18l1.06-.84a.27.27,0,0,1,.36,0L22,15.28a.23.23,0,0,1,0,.35l-.89,1.06a3.54,3.54,0,0,1,.31.71l1.37.13a.29.29,0,0,1,.27.27v1.59a.25.25,0,0,1-.27.26l-1.37.14a5.35,5.35,0,0,1-.31.7L22,21.55a.3.3,0,0,1,0,.36l-1.15,1.15a.27.27,0,0,1-.36,0l-1.06-.84a5.35,5.35,0,0,1-.7.31l-.14,1.32C18.67,24,18.58,24.07,18.4,24.07ZM17,23.54h1.15l.13-1.28a.21.21,0,0,1,.22-.22,4.14,4.14,0,0,0,.93-.4.28.28,0,0,1,.31.05l1,.79.79-.79-.84-1a.29.29,0,0,1,0-.31,2.85,2.85,0,0,0,.4-.92.32.32,0,0,1,.22-.22l1.33-.14V18l-1.33-.13a.21.21,0,0,1-.22-.23,4.28,4.28,0,0,0-.4-.92.3.3,0,0,1,0-.31l.84-1-.79-.79-1,.79a.28.28,0,0,1-.31.05,3.59,3.59,0,0,0-.44-.22,2.43,2.43,0,0,0-.49-.18c-.13,0-.17-.13-.22-.22l-.13-1.24H17l-.13,1.28a.21.21,0,0,1-.22.23,4.1,4.1,0,0,0-.93.39.26.26,0,0,1-.31,0l-1-.8-.79.8.84,1a.26.26,0,0,1,0,.31,3.27,3.27,0,0,0-.4.93.34.34,0,0,1-.22.22l-1.32.13v1.11l1.32.13a.2.2,0,0,1,.22.22c.05.09.05.22.09.31h0c.09.18.18.4.27.57a.28.28,0,0,1-.05.31l-.84,1,.8.79,1-.79a.28.28,0,0,1,.31-.05,4.08,4.08,0,0,0,.92.4.36.36,0,0,1,.23.22Z" transform="translate(0.43 -0.16)" style="fill:#2c80c3"/><path d="M14.16,12.54h-2a.27.27,0,1,1,0-.53h2a.28.28,0,0,1,.26.26C14.47,12.45,14.34,12.54,14.16,12.54Z" transform="translate(0.43 -0.16)" style="fill:#2c80c3"/><path d="M2.31,23.32a2.21,2.21,0,1,1,0-4.42,2.19,2.19,0,0,1,2.21,2.21A2.24,2.24,0,0,1,2.31,23.32Zm0-3.89A1.68,1.68,0,0,0,.63,21.11a1.65,1.65,0,0,0,1.68,1.64,1.66,1.66,0,1,0,0-3.32Z" transform="translate(0.43 -0.16)" style="fill:#2c80c3"/><path d="M22.2,8.12a1.37,1.37,0,1,1,1.37-1.37A1.38,1.38,0,0,1,22.2,8.12Zm0-2.21a.84.84,0,0,0-.84.84.84.84,0,1,0,1.68,0A.83.83,0,0,0,22.2,5.91Z" transform="translate(0.43 -0.16)" style="fill:#2c80c3"/><path d="M11.46,5.47A6.54,6.54,0,0,1,18,12h0a7,7,0,0,1-.13,1.37H16.81l-.18,1.51a4,4,0,0,0-1,.39l-1.24-.88L13.23,15.5l1,1.19a3.72,3.72,0,0,0-.39,1l-1.55.18v.71a5.36,5.36,0,0,1-.8,0,6.56,6.56,0,0,1-6.54-6.54h0A6.53,6.53,0,0,1,11.46,5.47Z" transform="translate(0.43 -0.16)" style="fill:#fff"/><path d="M22.2,5.64a1.11,1.11,0,1,1,0,2.21,1.11,1.11,0,0,1,0-2.21Z" transform="translate(0.43 -0.16)" style="fill:#a1c6e9"/><path d="M2.31,19.17A1.95,1.95,0,1,1,.37,21.11,1.94,1.94,0,0,1,2.31,19.17Z" transform="translate(0.43 -0.16)" style="fill:#a1c6e9"/><path d="M19.86,18.59a2.25,2.25,0,0,1-2.25,2.21,2.21,2.21,0,1,1,2.25-2.21Zm-1.33,0a1,1,0,1,0-1,.93A.94.94,0,0,0,18.53,18.59Z" transform="translate(0.43 -0.16)" style="fill:#fff"/><path d="M23,17.8v1.59l-1.54.18a3.75,3.75,0,0,1-.4,1l1,1.19-1.15,1.15-1.23-1a4.09,4.09,0,0,1-1,.4l-.18,1.5H16.77l-.18-1.5a4.09,4.09,0,0,1-1-.4l-1.23,1-1.15-1.15,1-1.15a4.48,4.48,0,0,1-.31-.62h0c0-.13-.08-.22-.13-.35l-1.55-.18V17.8l1.55-.18a3.75,3.75,0,0,1,.4-1l-1-1.2,1.15-1.14,1.23,1a4.09,4.09,0,0,1,1-.4l.18-1.5H18.4l.18,1.5a2.21,2.21,0,0,1,.53.18l.49.22,1.23-1L22,15.45l-1,1.2a3.75,3.75,0,0,1,.4,1Zm-5.34,3a2.21,2.21,0,1,0-2.26-2.21A2.25,2.25,0,0,0,17.61,20.8Z" transform="translate(0.43 -0.16)" style="fill:#a1c6e9"/><path d="M11.46,11.57a.7.7,0,0,1,.71.7.71.71,0,0,1-.71.71.7.7,0,0,1-.7-.71A.7.7,0,0,1,11.46,11.57Z" transform="translate(0.43 -0.16)" style="fill:#a1c6e9"/><path d="M17.12,4.71l-.57.8c-.31-.22-.62-.44-1-.66L16.24,4Z" transform="translate(0.43 -0.16)" style="fill:#fff"/><path d="M12.26,2V3.79c-.27,0-.53,0-.8,0a3.3,3.3,0,0,0-.7,0V2Z" transform="translate(0.43 -0.16)" style="fill:#fff"/><path d="M6.73,4l.62.79a8,8,0,0,0-1,.62l-.57-.71Z" transform="translate(0.43 -0.16)" style="fill:#fff"/><path d="M19.68,12a8.79,8.79,0,0,1-.57,3.05,2.21,2.21,0,0,0-.53-.18l-.18-1.5h-.57A6.78,6.78,0,0,0,18,12a6.54,6.54,0,1,0-5.75,6.49v.89l1.55.18c.05.13.09.22.13.35a7.75,7.75,0,0,1-2.47.4,8.27,8.27,0,1,1,0-16.53A8.17,8.17,0,0,1,19.68,12Z" transform="translate(0.43 -0.16)" style="fill:#a1c6e9"/><path d="M18.45,2.11a2.88,2.88,0,0,1,.48,4L17.12,4.71,16.24,4,14.42,2.59A2.88,2.88,0,0,1,18.45,2.11Z" transform="translate(0.43 -0.16)" style="fill:#a1c6e9"/><path d="M12.26,2H10.18a.77.77,0,0,1-.75-.75.75.75,0,0,1,.75-.75h2.61a.77.77,0,0,1,.75.75.74.74,0,0,1-.22.53.7.7,0,0,1-.53.22Z" transform="translate(0.43 -0.16)" style="fill:#a1c6e9"/><path d="M8.55,2.64,6.73,4.05l-.88.71L4,6.13a2.88,2.88,0,0,1,.48-4A2.85,2.85,0,0,1,8.55,2.64Z" transform="translate(0.43 -0.16)" style="fill:#a1c6e9"/><path d="M22.87,10.64a.4.4,0,0,1,0,.79.4.4,0,1,1,0-.79Z" transform="translate(0.43 -0.16)" style="fill:#2c80c3"/><path d="M22.87,23.06a.38.38,0,0,1,.39.39.39.39,0,0,1-.39.4.4.4,0,0,1-.4-.4A.39.39,0,0,1,22.87,23.06Z" transform="translate(0.43 -0.16)" style="fill:#2c80c3"/><path d="M20.66.38a.39.39,0,0,1,.39.4.39.39,0,0,1-.39.4.4.4,0,0,1,0-.8Z" transform="translate(0.43 -0.16)" style="fill:#2c80c3"/><path d="M12.39,23.06a.39.39,0,0,1,.4.39.4.4,0,1,1-.8,0A.39.39,0,0,1,12.39,23.06Z" transform="translate(0.43 -0.16)" style="fill:#2c80c3"/><path d="M6.6,21.11a.4.4,0,1,1-.4.4A.4.4,0,0,1,6.6,21.11Z" transform="translate(0.43 -0.16)" style="fill:#2c80c3"/><path d="M1.61,16.16a.4.4,0,0,1,0,.8.4.4,0,1,1,0-.8Z" transform="translate(0.43 -0.16)" style="fill:#2c80c3"/><path d="M1.34.69a.4.4,0,1,1-.4.4A.4.4,0,0,1,1.34.69Z" transform="translate(0.43 -0.16)" style="fill:#2c80c3"/><path d="M0,6.75a.4.4,0,0,1,.4.4.39.39,0,0,1-.4.39.39.39,0,0,1-.4-.39A.4.4,0,0,1,0,6.75Z" transform="translate(0.43 -0.16)" style="fill:#2c80c3"/><path d="M12.79,2.24h-.58A.28.28,0,0,1,12,2a.28.28,0,0,1,.26-.26h.58a.54.54,0,0,0,.35-.13.5.5,0,0,0,.13-.36.49.49,0,0,0-.48-.48H10.18a.49.49,0,0,0-.35.13.5.5,0,0,0,.35.84h.58A.28.28,0,0,1,11,2a.28.28,0,0,1-.26.27h-.58a1,1,0,0,1-1-1A1,1,0,0,1,9.47.47a1.08,1.08,0,0,1,.76-.31h2.6a1,1,0,0,1,1,1,1.06,1.06,0,0,1-1.06,1.06Z" transform="translate(0.43 -0.16)" style="fill:#2c80c3"/><path d="M11.46,13.24a1,1,0,1,1,1-1A1,1,0,0,1,11.46,13.24Zm0-1.37a.45.45,0,1,0,.44.45A.47.47,0,0,0,11.46,11.87Z" transform="translate(0.43 -0.16)" style="fill:#2c80c3"/><path d="M11.46,11.87a.28.28,0,0,1-.26-.26V8.78a.27.27,0,0,1,.53,0v2.83A.28.28,0,0,1,11.46,11.87Z" transform="translate(0.43 -0.16)" style="fill:#2c80c3"/><path d="M11.46,6.75a.28.28,0,0,1-.26-.27v-1a.27.27,0,1,1,.53,0v1A.28.28,0,0,1,11.46,6.75Z" transform="translate(0.43 -0.16)" style="fill:#2c80c3"/><path d="M15.35,8.34a.22.22,0,0,1-.17-.09.33.33,0,0,1,0-.4l.7-.7a.33.33,0,0,1,.4,0,.31.31,0,0,1,0,.39l-.71.71A.24.24,0,0,1,15.35,8.34Z" transform="translate(0.43 -0.16)" style="fill:#2c80c3"/><path d="M6.82,16.91a.19.19,0,0,1-.17-.09.31.31,0,0,1,0-.39l.7-.71a.33.33,0,0,1,.4,0c.13.09.09.27,0,.4l-.71.7A.59.59,0,0,1,6.82,16.91Z" transform="translate(0.43 -0.16)" style="fill:#2c80c3"/><path d="M18,12.27H17a.27.27,0,1,1,0-.53h1a.29.29,0,0,1,.27.27C18.27,12.14,18.14,12.27,18,12.27Z" transform="translate(0.43 -0.16)" style="fill:#2c80c3"/><path d="M5.89,12.27h-1a.27.27,0,0,1,0-.53h1a.28.28,0,0,1,.27.27A.25.25,0,0,1,5.89,12.27Z" transform="translate(0.43 -0.16)" style="fill:#2c80c3"/><path d="M7.53,8.34a.26.26,0,0,1-.18-.09l-.7-.71A.28.28,0,0,1,7,7.15l.71.7a.33.33,0,0,1,0,.4A.24.24,0,0,1,7.53,8.34Z" transform="translate(0.43 -0.16)" style="fill:#2c80c3"/><path d="M18.93,6.44s-.13,0-.17-.05L14.25,2.86a.28.28,0,0,1-.05-.4,3.2,3.2,0,0,1,2.48-1.19,3.12,3.12,0,0,1,1.94.66,3.16,3.16,0,0,1,.53,4.42s-.09,0-.22.09ZM14.82,2.59l4.07,3.19a2.58,2.58,0,0,0-2.21-3.94A2.31,2.31,0,0,0,14.82,2.59Z" transform="translate(0.43 -0.16)" style="fill:#2c80c3"/><path d="M4,6.44H4a.34.34,0,0,1-.22-.09A3.22,3.22,0,0,1,3.15,4a3,3,0,0,1,1.2-2.08,3.18,3.18,0,0,1,4.42.53.28.28,0,0,1,0,.4L4.21,6.39C4.13,6.39,4.08,6.44,4,6.44ZM6.29,1.8a2.52,2.52,0,0,0-1.59.53,2.74,2.74,0,0,0-1,1.72,2.47,2.47,0,0,0,.35,1.68L8.15,2.55A2.6,2.6,0,0,0,6.29,1.8Z" transform="translate(0.43 -0.16)" style="fill:#2c80c3"/><path d="M15.57,5.16s-.13,0-.17,0a.27.27,0,0,1-.05-.4L16,3.87a.27.27,0,0,1,.39,0,.28.28,0,0,1,.05.4l-.67.84A.34.34,0,0,1,15.57,5.16Z" transform="translate(0.43 -0.16)" style="fill:#2c80c3"/><path d="M16.55,5.78a.29.29,0,0,1-.27-.27h0a.31.31,0,0,1,0-.18l.62-.79a.29.29,0,0,1,.45.35l-.62.75C16.68,5.73,16.63,5.78,16.55,5.78Z" transform="translate(0.43 -0.16)" style="fill:#2c80c3"/><path d="M6.42,5.73a.21.21,0,0,1-.17-.09l0,0-.57-.75a.28.28,0,0,1,.44-.36l.58.75a.3.3,0,0,1,0,.36A.25.25,0,0,1,6.42,5.73Z" transform="translate(0.43 -0.16)" style="fill:#2c80c3"/><path d="M7.35,5.11A.19.19,0,0,1,7.18,5h0l0,0-.62-.8a.26.26,0,0,1,0-.39.27.27,0,0,1,.39,0l.62.8a.26.26,0,0,1,0,.35C7.48,5.07,7.44,5.11,7.35,5.11Z" transform="translate(0.43 -0.16)" style="fill:#2c80c3"/><path d="M12.26,4.1A.3.3,0,0,1,12,3.83V2.28H11V3.83a.27.27,0,1,1-.53,0V2a.28.28,0,0,1,.27-.26h1.5a.28.28,0,0,1,.26.26V3.79A.3.3,0,0,1,12.26,4.1Z" transform="translate(0.43 -0.16)" style="fill:#2c80c3"/><path d="M17.61,21.07a2.48,2.48,0,1,1,0-4.95,2.48,2.48,0,1,1,0,4.95Zm0-4.42a1.95,1.95,0,1,0,2,1.94A2,2,0,0,0,17.61,16.65Z" transform="translate(0.43 -0.16)" style="fill:#2c80c3"/><path d="M17.61,19.79a1.23,1.23,0,0,1-1.24-1.2,1.2,1.2,0,0,1,1.24-1.19,1.2,1.2,0,1,1,0,2.39Zm0-1.86a.67.67,0,1,0,.66.66A.68.68,0,0,0,17.61,17.93Z" transform="translate(0.43 -0.16)" style="fill:#2c80c3"/><path d="M11.46,18.81A6.79,6.79,0,0,1,4.66,12v0a6.81,6.81,0,0,1,13.61,0v0a7.47,7.47,0,0,1-.13,1.41c-.05.13-.18.27-.31.22s-.27-.17-.22-.31a7,7,0,0,0,.13-1.28h0a6.28,6.28,0,0,0-12.55,0h0A6.32,6.32,0,0,0,7,16.47a6.2,6.2,0,0,0,4.42,1.86,3.59,3.59,0,0,0,.75,0c.13,0,.31.09.31.22s-.09.31-.22.31Z" transform="translate(0.43 -0.16)" style="fill:#2c80c3"/><path d="M11.46,20.54A8.54,8.54,0,0,1,6.25,5.24l1-.66a8.66,8.66,0,0,1,3.49-1.1,8,8,0,0,1,1.55,0,8.53,8.53,0,0,1,3.45,1.1,8.27,8.27,0,0,1,1,.66A8.49,8.49,0,0,1,20,12a8.22,8.22,0,0,1-.62,3.14.24.24,0,0,1-.35.13.24.24,0,0,1-.14-.35,8.25,8.25,0,0,0,.58-3,7.9,7.9,0,0,0-3.05-6.28c-.31-.22-.62-.44-.93-.62a7.55,7.55,0,0,0-3.23-1,7,7,0,0,0-1.45,0A8,8,0,0,0,7.48,5c-.3.18-.61.4-.92.62A8,8,0,0,0,11.46,20a8.69,8.69,0,0,0,2.39-.35.29.29,0,0,1,.35.18.29.29,0,0,1-.17.35A8.82,8.82,0,0,1,11.46,20.54Z" transform="translate(0.43 -0.16)" style="fill:#2c80c3"/><path d="M18.4,24.07H16.77a.25.25,0,0,1-.27-.26l-.13-1.33a3,3,0,0,1-.71-.31L14.6,23a.26.26,0,0,1-.35,0L13.1,21.86a.23.23,0,0,1,0-.35L14,20.45a2.64,2.64,0,0,1-.22-.49h0a.27.27,0,0,1,0-.17l-1.51-.14a.28.28,0,0,1-.26-.26V17.8a.25.25,0,0,1,.26-.27l1.37-.13a5.46,5.46,0,0,1,.31-.71L13,15.63a.26.26,0,0,1,0-.35l1.15-1.15a.26.26,0,0,1,.35,0l1.06.84a5.46,5.46,0,0,1,.71-.31l.13-1.33a.29.29,0,0,1,.27-.26h1.63a.25.25,0,0,1,.27.26l.13,1.33.4.13a1.46,1.46,0,0,1,.35.18l1.06-.84a.27.27,0,0,1,.36,0L22,15.28a.23.23,0,0,1,0,.35l-.89,1.06a3.54,3.54,0,0,1,.31.71l1.37.13a.29.29,0,0,1,.27.27v1.59a.25.25,0,0,1-.27.26l-1.37.14a5.35,5.35,0,0,1-.31.7L22,21.55a.3.3,0,0,1,0,.36l-1.15,1.15a.27.27,0,0,1-.36,0l-1.06-.84a5.35,5.35,0,0,1-.7.31l-.14,1.32C18.67,24,18.58,24.07,18.4,24.07ZM17,23.54h1.15l.13-1.28a.21.21,0,0,1,.22-.22,4.14,4.14,0,0,0,.93-.4.28.28,0,0,1,.31.05l1,.79.79-.79-.84-1a.29.29,0,0,1,0-.31,2.85,2.85,0,0,0,.4-.92.32.32,0,0,1,.22-.22l1.33-.14V18l-1.33-.13a.21.21,0,0,1-.22-.23,4.28,4.28,0,0,0-.4-.92.3.3,0,0,1,0-.31l.84-1-.79-.79-1,.79a.28.28,0,0,1-.31.05,3.59,3.59,0,0,0-.44-.22,2.43,2.43,0,0,0-.49-.18c-.13,0-.17-.13-.22-.22l-.13-1.24H17l-.13,1.28a.21.21,0,0,1-.22.23,4.1,4.1,0,0,0-.93.39.26.26,0,0,1-.31,0l-1-.8-.79.8.84,1a.26.26,0,0,1,0,.31,3.27,3.27,0,0,0-.4.93.34.34,0,0,1-.22.22l-1.32.13v1.11l1.32.13a.2.2,0,0,1,.22.22c.05.09.05.22.09.31h0c.09.18.18.4.27.57a.28.28,0,0,1-.05.31l-.84,1,.8.79,1-.79a.28.28,0,0,1,.31-.05,4.08,4.08,0,0,0,.92.4.36.36,0,0,1,.23.22Z" transform="translate(0.43 -0.16)" style="fill:#2c80c3"/><path d="M14.16,12.54h-2a.27.27,0,1,1,0-.53h2a.28.28,0,0,1,.26.26C14.47,12.45,14.34,12.54,14.16,12.54Z" transform="translate(0.43 -0.16)" style="fill:#2c80c3"/><path d="M2.31,23.32a2.21,2.21,0,1,1,0-4.42,2.19,2.19,0,0,1,2.21,2.21A2.24,2.24,0,0,1,2.31,23.32Zm0-3.89A1.68,1.68,0,0,0,.63,21.11a1.65,1.65,0,0,0,1.68,1.64,1.66,1.66,0,1,0,0-3.32Z" transform="translate(0.43 -0.16)" style="fill:#2c80c3"/><path d="M22.2,8.12a1.37,1.37,0,1,1,1.37-1.37A1.38,1.38,0,0,1,22.2,8.12Zm0-2.21a.84.84,0,0,0-.84.84.84.84,0,1,0,1.68,0A.83.83,0,0,0,22.2,5.91Z" transform="translate(0.43 -0.16)" style="fill:#2c80c3"/></g></svg>