<svg id="Layer_1" data-name="Layer 1" xmlns="http://www.w3.org/2000/svg" viewBox="0 0 24 23.46"><g id="_545_Computer_Desktop_Hardware_Monitor" data-name="545, Computer, Desktop, Hardware, Monitor"><path d="M23.67,19.68V3.06A1.69,1.69,0,0,0,22,1.37H15.3a1.69,1.69,0,0,0-1.69,1.69V19.68Z" transform="translate(0 -0.34)" style="fill:#a1c6e9"/><path d="M10.8,4a.78.78,0,0,1,.79.78.75.75,0,0,1-.79.74A.78.78,0,0,1,10,4.71.75.75,0,0,1,10.8,4Z" transform="translate(0 -0.34)" style="fill:#fff"/><path d="M2.8.87A1.28,1.28,0,1,1,1.53,2.15,1.28,1.28,0,0,1,2.8.87Z" transform="translate(0 -0.34)" style="fill:#fff"/><polygon points="15.18 4.37 15.18 3.09 22.14 3.09 22.14 5.4 15.18 5.4 15.18 4.37" style="fill:#fff"/><path d="M21.9,11.18a.78.78,0,0,1,.78.79.79.79,0,1,1-.78-.79Z" transform="translate(0 -0.34)" style="fill:#fff"/><path d="M21.9,8.59a.78.78,0,0,1,.78.78.79.79,0,1,1-.78-.78Z" transform="translate(0 -0.34)" style="fill:#fff"/><path d="M23.67,20.71v1.15A1.69,1.69,0,0,1,22,23.55H13.65a1,1,0,0,0,1-1,1.16,1.16,0,0,0-.29-.74,1,1,0,0,0-.74-.29h4.87a1.29,1.29,0,0,0,1.31-1.32v-.49h3.88v1Z" transform="translate(0 -0.34)" style="fill:#fff"/><path d="M14.35,21.78a1,1,0,0,1,.29.74,1,1,0,0,1-1,1H6.43a1.21,1.21,0,0,1-.74-.28,1,1,0,0,1-.29-.75,1,1,0,0,1,1-1h7.22A.83.83,0,0,1,14.35,21.78Z" transform="translate(0 -0.34)" style="fill:#fff"/><path d="M18.52,7.55H1.57A1.3,1.3,0,0,0,.25,8.87V20.13a1.3,1.3,0,0,0,1.32,1.32h17a1.3,1.3,0,0,0,1.31-1.32V8.87A1.32,1.32,0,0,0,18.52,7.55Z" transform="translate(0 -0.34)" style="fill:#a1c6e9"/><polygon points="16.74 8.78 18.31 8.78 18.31 18.06 4.87 18.06 14.14 8.78 16.74 8.78" style="fill:#fff"/><polygon points="14.14 8.78 4.87 18.06 1.77 18.06 1.77 8.78 14.14 8.78" style="fill:#fff"/><path d="M12,.34a.37.37,0,0,1,.37.37.38.38,0,0,1-.37.37.37.37,0,0,1-.37-.37A.36.36,0,0,1,12,.34Z" transform="translate(0 -0.34)" style="fill:#2c80c3"/><path d="M10.39,19.55a.56.56,0,0,1,.17.38.45.45,0,0,1-.17.37.51.51,0,0,1-.37.16.55.55,0,0,1-.54-.53.48.48,0,0,1,.17-.38.53.53,0,0,1,.37-.16A.75.75,0,0,1,10.39,19.55Z" transform="translate(0 -0.34)" style="fill:#2c80c3"/><path d="M8.08,5a.36.36,0,0,1,.37.37.37.37,0,0,1-.37.37.38.38,0,0,1-.37-.37A.37.37,0,0,1,8.08,5Z" transform="translate(0 -0.34)" style="fill:#2c80c3"/><path d="M5.77,1.37a.36.36,0,0,1,.37.37.37.37,0,0,1-.37.37.38.38,0,0,1-.37-.37A.37.37,0,0,1,5.77,1.37Z" transform="translate(0 -0.34)" style="fill:#2c80c3"/><path d="M2.68,5.25a.36.36,0,0,1,.37.37A.37.37,0,0,1,2.68,6a.38.38,0,0,1-.37-.37A.37.37,0,0,1,2.68,5.25Z" transform="translate(0 -0.34)" style="fill:#2c80c3"/><path d="M13.65,23.8H6.43a1.24,1.24,0,0,1-.9-.37,1.27,1.27,0,0,1,.9-2.18.25.25,0,1,1,0,.49.78.78,0,0,0-.78.78.75.75,0,0,0,.21.54.69.69,0,0,0,.53.21h7.22A.79.79,0,0,0,14.19,22a.68.68,0,0,0-.54-.21.25.25,0,1,1,0-.49,1.28,1.28,0,1,1,0,2.55Z" transform="translate(0 -0.34)" style="fill:#2c80c3"/><path d="M18.52,21.74H1.57A1.57,1.57,0,0,1,0,20.17V8.87A1.56,1.56,0,0,1,1.57,7.31h17a1.56,1.56,0,0,1,1.56,1.56V20.13A1.57,1.57,0,0,1,18.52,21.74ZM1.57,7.8A1.1,1.1,0,0,0,.49,8.87V20.13A1.09,1.09,0,0,0,1.57,21.2h17a1.09,1.09,0,0,0,1.07-1.07V8.87A1.1,1.1,0,0,0,18.52,7.8Z" transform="translate(0 -0.34)" style="fill:#2c80c3"/><path d="M18.31,18.65H1.77a.27.27,0,0,1-.24-.25V9.12a.27.27,0,0,1,.24-.25H18.31a.28.28,0,0,1,.25.25V18.4C18.6,18.52,18.47,18.65,18.31,18.65ZM2,18.11h16V9.37H2Z" transform="translate(0 -0.34)" style="fill:#2c80c3"/><path d="M22,23.8H13.65a.25.25,0,1,1,0-.49H22a1.39,1.39,0,0,0,1.4-1.41V3.06A1.39,1.39,0,0,0,22,1.66H15.3a1.39,1.39,0,0,0-1.4,1.4V7.55a.25.25,0,0,1-.5,0V3.06a1.94,1.94,0,0,1,1.94-1.94h6.72A1.94,1.94,0,0,1,24,3.06v18.8A2,2,0,0,1,22,23.8Z" transform="translate(0 -0.34)" style="fill:#2c80c3"/><path d="M22.14,6h-7a.27.27,0,0,1-.25-.25V3.43a.27.27,0,0,1,.25-.25h7a.27.27,0,0,1,.25.25V5.74A.28.28,0,0,1,22.14,6Zm-6.72-.54h6.44V3.68H15.42Z" transform="translate(0 -0.34)" style="fill:#2c80c3"/><path d="M21.9,10.4a1,1,0,1,1,1-1A1,1,0,0,1,21.9,10.4Zm0-1.57a.55.55,0,0,0-.54.54.54.54,0,0,0,.54.53.53.53,0,0,0,.53-.53A.54.54,0,0,0,21.9,8.83Z" transform="translate(0 -0.34)" style="fill:#2c80c3"/><path d="M21.9,13a1,1,0,1,1,1-1A1.05,1.05,0,0,1,21.9,13Zm0-1.53a.55.55,0,0,0-.54.54.54.54,0,0,0,.54.53.53.53,0,0,0,.53-.53A.54.54,0,0,0,21.9,11.43Z" transform="translate(0 -0.34)" style="fill:#2c80c3"/><path d="M23.67,21H21.36a.25.25,0,0,1,0-.5h2.31a.28.28,0,0,1,.25.25C24,20.83,23.83,21,23.67,21Z" transform="translate(0 -0.34)" style="fill:#2c80c3"/><path d="M23.67,19.93H19.79a.27.27,0,0,1-.24-.25.26.26,0,0,1,.24-.25h3.88a.27.27,0,0,1,.25.25C24,19.8,23.83,19.93,23.67,19.93Z" transform="translate(0 -0.34)" style="fill:#2c80c3"/><path d="M19.3,5H15.18a.25.25,0,0,1,0-.5H19.3a.28.28,0,0,1,.25.25A.25.25,0,0,1,19.3,5Z" transform="translate(0 -0.34)" style="fill:#2c80c3"/><path d="M2.8,3.68A1.57,1.57,0,1,1,4.37,2.11,1.56,1.56,0,0,1,2.8,3.68Zm0-2.56a1,1,0,1,0,1,1A1,1,0,0,0,2.8,1.12Z" transform="translate(0 -0.34)" style="fill:#2c80c3"/><path d="M10.8,5.74a1,1,0,1,1,1-1A1,1,0,0,1,10.8,5.74Zm0-1.53a.54.54,0,1,0,.54.54A.55.55,0,0,0,10.8,4.21Z" transform="translate(0 -0.34)" style="fill:#2c80c3"/><path d="M12.87,13.25a.22.22,0,0,1-.17-.09.31.31,0,0,1,0-.37l3.88-3.87a.29.29,0,0,1,.37,0,.31.31,0,0,1,0,.37l-3.88,3.87A.78.78,0,0,1,12.87,13.25Z" transform="translate(0 -0.34)" style="fill:#2c80c3"/><path d="M4.87,18.65a.19.19,0,0,1-.17-.09.31.31,0,0,1,0-.37L14,8.92a.29.29,0,0,1,.37,0,.31.31,0,0,1,0,.37L5.07,18.56C5,18.61,5,18.65,4.87,18.65Z" transform="translate(0 -0.34)" style="fill:#2c80c3"/></g></svg>