<svg id="Layer_1" data-name="Layer 1" xmlns="http://www.w3.org/2000/svg" viewBox="0 0 24 24"><g id="_1290_Book_Library_Reading_School_Shelves" data-name="1290, Book, Library, Reading, School, Shelves"><path d="M14,2.19H10a1,1,0,0,0-1,1V18.23a1,1,0,0,0,1,1H14a1,1,0,0,0,1-1V3.15A1,1,0,0,0,14,2.19Z" transform="translate(0 -0.19)" style="fill:#acc5e7"/><polygon points="23.52 19 23.52 22 21 22 3 22 0.52 22 0.52 19 2 19 6 19 9.96 19 14.04 19 17.96 19 22.04 19 23.52 19" style="fill:#acc5e7"/><path d="M18,19.71H14a.52.52,0,0,1,0-1H18a.53.53,0,0,1,.52.52A.56.56,0,0,1,18,19.71Z" transform="translate(0 -0.19)" style="fill:#5180c1"/><path d="M10,19.71H6a.52.52,0,0,1,0-1h4a.52.52,0,0,1,0,1Z" transform="translate(0 -0.19)" style="fill:#5180c1"/><path d="M23.52,22.71H.52A.53.53,0,0,1,0,22.19v-3a.53.53,0,0,1,.52-.52H2a.52.52,0,0,1,0,1H1v2H23v-2H22a.52.52,0,0,1,0-1h1.44a.53.53,0,0,1,.52.52v3A.52.52,0,0,1,23.52,22.71Z" transform="translate(0 -0.19)" style="fill:#5180c1"/><path d="M3,24.19a.53.53,0,0,1-.52-.52V22.15a.52.52,0,0,1,1,0v1.52A.53.53,0,0,1,3,24.19Z" transform="translate(0 -0.19)" style="fill:#5180c1"/><path d="M21,24.19a.53.53,0,0,1-.52-.52V22.15a.52.52,0,0,1,1,0v1.52A.53.53,0,0,1,21,24.19Z" transform="translate(0 -0.19)" style="fill:#5180c1"/><path d="M6,19.71H2A1.52,1.52,0,0,1,.48,18.19V1.71A1.52,1.52,0,0,1,2,.19H6A1.52,1.52,0,0,1,7.52,1.71V18.23A1.51,1.51,0,0,1,6,19.71ZM2,1.19a.53.53,0,0,0-.52.52V18.23a.53.53,0,0,0,.52.52H6a.53.53,0,0,0,.52-.52V1.71A.53.53,0,0,0,6,1.19Z" transform="translate(0 -0.19)" style="fill:#5180c1"/><path d="M4,17.71a2,2,0,1,1,2-2A2,2,0,0,1,4,17.71Zm0-3a1,1,0,1,0,1,1A1,1,0,0,0,4,14.71Z" transform="translate(0 -0.19)" style="fill:#5180c1"/><path d="M5,3.19H3a.52.52,0,0,1,0-1H5a.52.52,0,0,1,0,1Z" transform="translate(0 -0.19)" style="fill:#5180c1"/><path d="M5,5.19H3a.52.52,0,0,1,0-1H5a.52.52,0,0,1,0,1Z" transform="translate(0 -0.19)" style="fill:#5180c1"/><path d="M5,7.19H3a.52.52,0,1,1,0-1H5a.52.52,0,0,1,0,1Z" transform="translate(0 -0.19)" style="fill:#5180c1"/><path d="M14,19.71H10a1.48,1.48,0,0,1-1.48-1.48V3.15A1.48,1.48,0,0,1,10,1.67H14a1.48,1.48,0,0,1,1.48,1.48V18.23A1.5,1.5,0,0,1,14,19.71ZM10,2.71a.49.49,0,0,0-.48.48V18.27a.49.49,0,0,0,.48.48H14a.49.49,0,0,0,.48-.48V3.15A.49.49,0,0,0,14,2.67H10Z" transform="translate(0 -0.19)" style="fill:#5180c1"/><path d="M12,17.71a2,2,0,1,1,2-2A2,2,0,0,1,12,17.71Zm0-3a1,1,0,1,0,1,1A1,1,0,0,0,12,14.71Z" transform="translate(0 -0.19)" style="fill:#5180c1"/><path d="M13,4.71H11a.52.52,0,0,1,0-1h2a.52.52,0,0,1,0,1Z" transform="translate(0 -0.19)" style="fill:#5180c1"/><path d="M13,6.71H11a.52.52,0,0,1,0-1h2a.52.52,0,0,1,0,1Z" transform="translate(0 -0.19)" style="fill:#5180c1"/><path d="M13,8.71H11a.52.52,0,0,1,0-1h2a.52.52,0,0,1,0,1Z" transform="translate(0 -0.19)" style="fill:#5180c1"/><path d="M22,19.71H18a1.43,1.43,0,0,1-1.44-1.44V6.15A1.43,1.43,0,0,1,18,4.71h4.12a1.43,1.43,0,0,1,1.44,1.44V18.27A1.5,1.5,0,0,1,22,19.71ZM18,5.71a.44.44,0,0,0-.44.44V18.27a.44.44,0,0,0,.44.44h4.12a.44.44,0,0,0,.44-.44V6.15a.44.44,0,0,0-.44-.44Z" transform="translate(0 -0.19)" style="fill:#5180c1"/><path d="M20,17.71a2,2,0,1,1,2-2A2,2,0,0,1,20,17.71Zm0-3a1,1,0,1,0,1,1A1,1,0,0,0,20,14.71Z" transform="translate(0 -0.19)" style="fill:#5180c1"/><path d="M21,7.71H19a.52.52,0,0,1,0-1h2a.52.52,0,0,1,0,1Z" transform="translate(0 -0.19)" style="fill:#5180c1"/><path d="M21,9.71H19a.52.52,0,0,1,0-1h2a.52.52,0,0,1,0,1Z" transform="translate(0 -0.19)" style="fill:#5180c1"/><path d="M21,11.71H19a.52.52,0,0,1,0-1h2a.52.52,0,0,1,0,1Z" transform="translate(0 -0.19)" style="fill:#5180c1"/><path d="M12,14.71a1,1,0,1,1-1,1A1,1,0,0,1,12,14.71Z" transform="translate(0 -0.19)" style="fill:#fff"/></g></svg>