<svg id="Layer_1" data-name="Layer 1" xmlns="http://www.w3.org/2000/svg" viewBox="0 0 24 23.96"><g id="E700_Archive_binder_documents" data-name="E700, Archive, binder, documents"><path d="M19.73,18A1.76,1.76,0,1,1,18,19.79,1.75,1.75,0,0,1,19.73,18Z" transform="translate(0 -0.06)" style="fill:#a1c6e9"/><path d="M12,17.8a2,2,0,1,1-2,2A2,2,0,0,1,12,17.8Z" transform="translate(0 -0.06)" style="fill:#a1c6e9"/><path d="M4.23,18a1.76,1.76,0,1,1-1.75,1.76A1.76,1.76,0,0,1,4.23,18Z" transform="translate(0 -0.06)" style="fill:#a1c6e9"/><path d="M23.48,15.56v8H16v-8Zm-2,4.23a1.76,1.76,0,1,0-1.75,1.76A1.77,1.77,0,0,0,21.48,19.79Z" transform="translate(0 -0.06)" style="fill:#a1c6e9"/><rect x="15.97" y="0.52" width="7.51" height="14.98" style="fill:#fff"/><path d="M16,15.56v8H8v-8h8Zm-2,4.23a2,2,0,1,0-2,2A2,2,0,0,0,14,19.79Z" transform="translate(0 -0.06)" style="fill:#a1c6e9"/><polygon points="15.97 0.52 15.97 15.49 8.51 15.49 7.99 15.49 7.99 0.52 15.97 0.52" style="fill:#fff"/><path d="M8,15.56v8H.52v-8ZM6,19.79a1.76,1.76,0,1,0-1.76,1.76A1.78,1.78,0,0,0,6,19.79Z" transform="translate(0 -0.06)" style="fill:#a1c6e9"/><rect x="0.52" y="0.52" width="7.51" height="14.98" style="fill:#fff"/><path d="M8,24H.52A.52.52,0,0,1,0,23.51V.58A.53.53,0,0,1,.52.06H8a.53.53,0,0,1,.52.52A.53.53,0,0,1,8,1.06H1V23H8a.53.53,0,0,1,.52.52A.52.52,0,0,1,8,24Z" transform="translate(0 -0.06)" style="fill:#2c80c3"/><path d="M16,24H8a.52.52,0,0,1-.52-.51V.58A.53.53,0,0,1,8,.06h8a.53.53,0,0,1,.52.52.5.5,0,0,1-.52.48H8.51V23H16a.53.53,0,0,1,.52.52A.59.59,0,0,1,16,24Z" transform="translate(0 -0.06)" style="fill:#2c80c3"/><path d="M23.48,24H16a.52.52,0,0,1-.52-.51V.58A.53.53,0,0,1,16,.06h7.51A.53.53,0,0,1,24,.58v23A.58.58,0,0,1,23.48,24Zm-7-1H23v-22H16.49Z" transform="translate(0 -0.06)" style="fill:#2c80c3"/><path d="M8,16H.52a.52.52,0,1,1,0-1H8a.53.53,0,0,1,.52.52A.57.57,0,0,1,8,16Z" transform="translate(0 -0.06)" style="fill:#2c80c3"/><path d="M16,16H8.51a.52.52,0,0,1,0-1H16a.53.53,0,0,1,.52.52A.57.57,0,0,1,16,16Z" transform="translate(0 -0.06)" style="fill:#2c80c3"/><path d="M23.48,16H16a.52.52,0,1,1,0-1h7.51a.53.53,0,0,1,.52.52A.56.56,0,0,1,23.48,16Z" transform="translate(0 -0.06)" style="fill:#2c80c3"/><path d="M4.23,22a2.24,2.24,0,1,1,2.24-2.24A2.23,2.23,0,0,1,4.23,22Zm0-3.48a1.24,1.24,0,1,0,1.24,1.24A1.22,1.22,0,0,0,4.23,18.55Z" transform="translate(0 -0.06)" style="fill:#2c80c3"/><path d="M12,22.27a2.54,2.54,0,0,1-2.52-2.52,2.52,2.52,0,0,1,5,0A2.54,2.54,0,0,1,12,22.27Zm0-4a1.52,1.52,0,1,0,1.52,1.52A1.52,1.52,0,0,0,12,18.27Z" transform="translate(0 -0.06)" style="fill:#2c80c3"/><path d="M19.73,22A2.24,2.24,0,1,1,22,19.79,2.24,2.24,0,0,1,19.73,22Zm0-3.48A1.24,1.24,0,1,0,21,19.79,1.25,1.25,0,0,0,19.73,18.55Z" transform="translate(0 -0.06)" style="fill:#2c80c3"/><path d="M14,4.06H10a.52.52,0,1,1,0-1h4a.52.52,0,0,1,0,1Z" transform="translate(0 -0.06)" style="fill:#2c80c3"/><path d="M14,7.57H10a.52.52,0,1,1,0-1h4a.52.52,0,1,1,0,1Z" transform="translate(0 -0.06)" style="fill:#2c80c3"/><path d="M21.48,7.57H18a.52.52,0,1,1,0-1h3.51a.53.53,0,0,1,.52.52A.59.59,0,0,1,21.48,7.57Z" transform="translate(0 -0.06)" style="fill:#2c80c3"/><path d="M21.48,10.57H18a.52.52,0,0,1,0-1h3.51a.53.53,0,0,1,.52.52A.59.59,0,0,1,21.48,10.57Z" transform="translate(0 -0.06)" style="fill:#2c80c3"/><path d="M21.48,4.58H18a.52.52,0,1,1,0-1h3.51a.53.53,0,0,1,.52.52A.59.59,0,0,1,21.48,4.58Z" transform="translate(0 -0.06)" style="fill:#2c80c3"/><path d="M6,7.57H2.48a.52.52,0,1,1,0-1H6a.52.52,0,0,1,0,1Z" transform="translate(0 -0.06)" style="fill:#2c80c3"/><path d="M6,10.57H2.48a.52.52,0,0,1,0-1H6a.52.52,0,0,1,0,1Z" transform="translate(0 -0.06)" style="fill:#2c80c3"/><path d="M6,4.58H2.48a.52.52,0,0,1,0-1H6a.52.52,0,0,1,0,1Z" transform="translate(0 -0.06)" style="fill:#2c80c3"/><path d="M14,11.05H10a.52.52,0,0,1,0-1h4a.52.52,0,0,1,0,1Z" transform="translate(0 -0.06)" style="fill:#2c80c3"/></g></svg>