<svg id="Layer_1" data-name="Layer 1" xmlns="http://www.w3.org/2000/svg" viewBox="0 0 23.41 24"><g id="_491_Server_Storage_Hosting" data-name="491, Server, Storage, Hosting"><path d="M2.6,13.09A1.19,1.19,0,0,1,3.79,11.9H20.46a1.19,1.19,0,0,1,1.2,1.19v3a1.2,1.2,0,0,1-1.2,1.19H3.79A1.19,1.19,0,0,1,2.6,16.1Z" transform="translate(-0.29)" style="fill:#fff"/><path d="M2.6,5.35A1.19,1.19,0,0,1,3.79,4.16H20.42a1.19,1.19,0,0,1,1.2,1.19v3a1.19,1.19,0,0,1-1.2,1.19H3.75A1.19,1.19,0,0,1,2.56,8.36C2.6,8.07,2.6,5.68,2.6,5.35Z" transform="translate(-0.29)" style="fill:#fff"/><path d="M21.62.33a1.28,1.28,0,1,1-1.28,1.28A1.28,1.28,0,0,1,21.62.33Z" transform="translate(-0.29)" style="fill:#a1c6e9"/><path d="M1.57,18.07a1,1,0,0,1,0,2.06,1,1,0,1,1,0-2.06Z" transform="translate(-0.29)" style="fill:#a1c6e9"/><path d="M19.31,14a.77.77,0,0,1,.78.78.76.76,0,0,1-.78.78.78.78,0,1,1,0-1.56Z" transform="translate(-0.29)" style="fill:#a1c6e9"/><path d="M19.31,6.22a.78.78,0,1,1-.78.78A.78.78,0,0,1,19.31,6.22Z" transform="translate(-0.29)" style="fill:#a1c6e9"/><path d="M17.79,14a.77.77,0,0,1,.78.78.76.76,0,0,1-.78.78.78.78,0,0,1-.78-.78A.75.75,0,0,1,17.79,14Z" transform="translate(-0.29)" style="fill:#a1c6e9"/><path d="M17.79,6.22A.78.78,0,1,1,17,7,.76.76,0,0,1,17.79,6.22Z" transform="translate(-0.29)" style="fill:#a1c6e9"/><path d="M16.22,14a.78.78,0,0,1,.79.78.79.79,0,0,1-1.57,0A.77.77,0,0,1,16.22,14Z" transform="translate(-0.29)" style="fill:#a1c6e9"/><path d="M16.22,6.22a.78.78,0,1,1,0,1.56A.76.76,0,0,1,15.44,7,.78.78,0,0,1,16.22,6.22Z" transform="translate(-0.29)" style="fill:#a1c6e9"/><path d="M14.7,14a.77.77,0,0,1,.78.78A.78.78,0,1,1,14.7,14Z" transform="translate(-0.29)" style="fill:#a1c6e9"/><path d="M14.7,6.22a.78.78,0,1,1,0,1.56.78.78,0,1,1,0-1.56Z" transform="translate(-0.29)" style="fill:#a1c6e9"/><path d="M14.7,23.71H9.8V20.09h4.9Z" transform="translate(-0.29)" style="fill:#a1c6e9"/><path d="M21,21.16a.92.92,0,0,1,.91.91.78.78,0,0,1-.25.61.83.83,0,0,1-.62.25H14.7V21.12l6.3,0Z" transform="translate(-0.29)" style="fill:#fff"/><path d="M9.8,21.16V23H3.26a.91.91,0,0,1-.91-.9.76.76,0,0,1,.25-.62.81.81,0,0,1,.62-.25l6.58,0Z" transform="translate(-0.29)" style="fill:#fff"/><rect x="10.79" y="17.29" width="2.31" height="2.84" style="fill:#fff"/><rect x="4.78" y="9.59" width="14.24" height="2.31" style="fill:#a1c6e9"/><path d="M23.68,11.61a.36.36,0,0,1-.21.49.35.35,0,0,1-.49-.2.37.37,0,0,1,.2-.5A.38.38,0,0,1,23.68,11.61Z" transform="translate(-0.29)" style="fill:#2c80c3"/><path d="M19,18.81a.37.37,0,0,1-.2.5.37.37,0,0,1-.5-.21.36.36,0,0,1,.21-.49A.35.35,0,0,1,19,18.81Z" transform="translate(-0.29)" style="fill:#2c80c3"/><path d="M18.78,1.32a.38.38,0,0,1-.7.29.36.36,0,0,1,.2-.5A.38.38,0,0,1,18.78,1.32Z" transform="translate(-0.29)" style="fill:#2c80c3"/><path d="M8.73,1.07a.38.38,0,0,1-.7.29.37.37,0,0,1,.21-.5A.36.36,0,0,1,8.73,1.07Z" transform="translate(-0.29)" style="fill:#2c80c3"/><path d="M1.53,4.65a.37.37,0,0,1-.21.5.36.36,0,0,1-.49-.21A.36.36,0,0,1,1,4.45.4.4,0,0,1,1.53,4.65Z" transform="translate(-0.29)" style="fill:#2c80c3"/><path d="M1.49,11.61a.36.36,0,0,1-.21.49.36.36,0,0,1-.49-.2.37.37,0,0,1,.2-.5A.37.37,0,0,1,1.49,11.61Z" transform="translate(-0.29)" style="fill:#2c80c3"/><path d="M9.8,23.22H3.26A1.16,1.16,0,0,1,2.1,22.07a1.2,1.2,0,0,1,.33-.83,1.2,1.2,0,0,1,.83-.33H9.8a.25.25,0,0,1,0,.5H3.26a.68.68,0,0,0-.66.66.64.64,0,0,0,.66.65H9.8a.25.25,0,0,1,0,.5Z" transform="translate(-0.29)" style="fill:#2c80c3"/><path d="M21,23.22H14.7a.25.25,0,0,1,0-.5H21a.67.67,0,0,0,.45-.2A.64.64,0,0,0,21,21.41H14.7a.25.25,0,0,1,0-.5H21a1.17,1.17,0,0,1,.82,2A1.31,1.31,0,0,1,21,23.22Z" transform="translate(-0.29)" style="fill:#2c80c3"/><path d="M14.7,24H9.8a.26.26,0,0,1-.24-.25V20.13a.27.27,0,0,1,.24-.25h1.28a.25.25,0,1,1,0,.5h-1v3.08h4.36V20.38h-1a.25.25,0,0,1,0-.5h1.28a.28.28,0,0,1,.25.25v3.62A.21.21,0,0,1,14.7,24Z" transform="translate(-0.29)" style="fill:#2c80c3"/><path d="M13.38,20.38h-2.3a.28.28,0,0,1-.25-.25V17.29a.25.25,0,0,1,.5,0v2.59h1.81V17.29a.25.25,0,1,1,.49,0v2.84C13.67,20.25,13.55,20.38,13.38,20.38Z" transform="translate(-0.29)" style="fill:#2c80c3"/><path d="M20.42,17.54H3.79A1.46,1.46,0,0,1,2.35,16.1v-3a1.46,1.46,0,0,1,1.44-1.44H5.07a.25.25,0,1,1,0,.49H3.79a.93.93,0,0,0-.94.95v3a.93.93,0,0,0,.94.94H20.42a.93.93,0,0,0,.95-.94v-3a.94.94,0,0,0-.95-.95H19.31a.25.25,0,0,1,0-.49h1.11a1.45,1.45,0,0,1,1.44,1.44v3A1.38,1.38,0,0,1,20.42,17.54Z" transform="translate(-0.29)" style="fill:#2c80c3"/><path d="M19.31,15.77a1,1,0,1,1,0-2.06,1,1,0,1,1,0,2.06Zm0-1.57a.54.54,0,0,0-.53.54.53.53,0,0,0,.53.53.54.54,0,0,0,.54-.53A.55.55,0,0,0,19.31,14.2Z" transform="translate(-0.29)" style="fill:#2c80c3"/><path d="M17.79,15.77a1,1,0,1,1,1-1A1.05,1.05,0,0,1,17.79,15.77Zm0-1.57a.55.55,0,0,0-.54.54.54.54,0,0,0,.54.53.53.53,0,0,0,.53-.53A.54.54,0,0,0,17.79,14.2Z" transform="translate(-0.29)" style="fill:#2c80c3"/><path d="M16.22,15.77a1,1,0,1,1,1-1A1,1,0,0,1,16.22,15.77Zm0-1.57a.55.55,0,0,0-.53.54.54.54,0,0,0,1.07,0A.55.55,0,0,0,16.22,14.2Z" transform="translate(-0.29)" style="fill:#2c80c3"/><path d="M14.7,15.77a1,1,0,1,1,1-1A1,1,0,0,1,14.7,15.77Zm0-1.57a.54.54,0,0,0-.53.54.53.53,0,0,0,.53.53.54.54,0,0,0,.54-.53A.55.55,0,0,0,14.7,14.2Z" transform="translate(-0.29)" style="fill:#2c80c3"/><path d="M12.35,15H2.6a.25.25,0,1,1,0-.49h9.8a.26.26,0,0,1,.24.25A.27.27,0,0,1,12.35,15Z" transform="translate(-0.29)" style="fill:#2c80c3"/><path d="M20.42,9.84H19.31a.26.26,0,0,1-.24-.25.27.27,0,0,1,.24-.25h1.11a.93.93,0,0,0,.95-.94v-3a.93.93,0,0,0-.95-.94H3.79a.93.93,0,0,0-.94.94v3a.93.93,0,0,0,.94.94H5.07a.28.28,0,0,1,.25.25.27.27,0,0,1-.25.25H3.79A1.46,1.46,0,0,1,2.35,8.4v-3A1.46,1.46,0,0,1,3.79,4H20.42a1.45,1.45,0,0,1,1.44,1.44v3A1.4,1.4,0,0,1,20.42,9.84Z" transform="translate(-0.29)" style="fill:#2c80c3"/><path d="M19.31,8a1,1,0,0,1,0-2.06,1,1,0,1,1,0,2.06Zm0-1.53a.54.54,0,0,0-.53.54.53.53,0,0,0,.53.53A.54.54,0,0,0,19.85,7,.53.53,0,0,0,19.31,6.5Z" transform="translate(-0.29)" style="fill:#2c80c3"/><path d="M17.79,8a1,1,0,1,1,1-1A1.05,1.05,0,0,1,17.79,8Zm0-1.53a.55.55,0,0,0-.54.54.54.54,0,0,0,.54.53A.53.53,0,0,0,18.32,7,.54.54,0,0,0,17.79,6.5Z" transform="translate(-0.29)" style="fill:#2c80c3"/><path d="M16.22,8a1,1,0,1,1,1-1A1,1,0,0,1,16.22,8Zm0-1.53a.55.55,0,0,0-.53.54.54.54,0,0,0,1.07,0A.53.53,0,0,0,16.22,6.5Z" transform="translate(-0.29)" style="fill:#2c80c3"/><path d="M14.7,8a1,1,0,1,1,1-1A1,1,0,0,1,14.7,8Zm0-1.53a.54.54,0,0,0-.53.54.53.53,0,0,0,.53.53A.54.54,0,0,0,15.24,7,.55.55,0,0,0,14.7,6.5Z" transform="translate(-0.29)" style="fill:#2c80c3"/><path d="M12.35,7.25H2.6A.27.27,0,0,1,2.35,7a.26.26,0,0,1,.25-.25h9.8a.26.26,0,0,1,.24.25C12.64,7.16,12.52,7.25,12.35,7.25Z" transform="translate(-0.29)" style="fill:#2c80c3"/><path d="M19.31,12.14H5.07a.26.26,0,0,1-.25-.24V9.59a.27.27,0,0,1,.25-.25H19.31a.27.27,0,0,1,.25.25V11.9A.23.23,0,0,1,19.31,12.14Zm-14-.49H19.07V9.84H5.32v1.81Z" transform="translate(-0.29)" style="fill:#2c80c3"/><path d="M21.62,3.13a1.57,1.57,0,1,1,1.56-1.57A1.57,1.57,0,0,1,21.62,3.13Zm0-2.55a1,1,0,0,0-1,1,1,1,0,1,0,1-1Z" transform="translate(-0.29)" style="fill:#2c80c3"/><path d="M1.57,20.38A1.28,1.28,0,1,1,2.85,19.1,1.29,1.29,0,0,1,1.57,20.38Zm0-2.06a.78.78,0,1,0,.78.78A.78.78,0,0,0,1.57,18.32Z" transform="translate(-0.29)" style="fill:#2c80c3"/></g></svg>