<svg id="Layer_1" data-name="Layer 1" xmlns="http://www.w3.org/2000/svg" viewBox="0 0 24 19.97"><g id="A_-_84_pass_card_identity_id" data-name="A - 84, pass, card, identity, id"><path d="M23.65,16.79a.18.18,0,0,1,0,.35" transform="translate(0 -2.03)" style="fill:#5180c1"/><path d="M12,3.43a.57.57,0,1,1-.57.57A.58.58,0,0,1,12,3.43Z" transform="translate(0 -2.03)" style="fill:#fff"/><path d="M13.8,5V7.11H10.2V4A1.78,1.78,0,0,1,12,2.25h0A1.8,1.8,0,0,1,13.8,4V5ZM12.57,4a.57.57,0,1,0-.57.57A.55.55,0,0,0,12.57,4Z" transform="translate(0 -2.03)" style="fill:#fff"/><rect x="14.15" y="16.99" width="7.27" height="1.4" style="fill:#fff"/><polygon points="7.27 13.01 2.71 13.01 2.71 11.34 4.07 10.82 4.99 11.47 5.91 10.82 7.27 11.34 7.27 13.01" style="fill:#fff"/><path d="M6.13,10.88c0,.57-.39,1.62-1.14,1.62s-1.14-1.05-1.14-1.62a1.14,1.14,0,1,1,2.28,0Z" transform="translate(0 -2.03)" style="fill:#fff"/><path d="M8.28,9.08v6.57H1.71V9.08Zm-1,6V13.37l-1.36-.52L5,13.5l-.92-.65-1.35.52V15ZM5,12.5c.74,0,1.14-1.05,1.14-1.62a1.14,1.14,0,1,0-2.28,0C3.9,11.45,4.29,12.5,5,12.5Z" transform="translate(0 -2.03)" style="fill:#fff"/><path d="M13.8,7.11V5h8.32a1.67,1.67,0,0,1,1.66,1.71V20.12a1.7,1.7,0,0,1-1.66,1.71H1.88a1.71,1.71,0,0,1-1.7-1.71V6.63a1.71,1.71,0,0,1,1.7-1.71H10.2V7.07h3.6Zm7.62,13.31V19H14.15v1.4ZM8.28,15.69V9.13H1.71v6.56Z" transform="translate(0 -2.03)" style="fill:#a1c6e9"/><path d="M22.12,22H1.88A1.87,1.87,0,0,1,0,20.12V6.63A1.87,1.87,0,0,1,1.88,4.75H10.2a.18.18,0,0,1,.18.17.19.19,0,0,1-.18.18H1.88A1.47,1.47,0,0,0,.39,6.58V20.12a1.48,1.48,0,0,0,1.49,1.49H22.12a1.48,1.48,0,0,0,1.49-1.49V6.63a1.48,1.48,0,0,0-1.49-1.49H13.8a.18.18,0,1,1,0-.35h8.32A1.87,1.87,0,0,1,24,6.67V20.12A1.87,1.87,0,0,1,22.12,22Z" transform="translate(0 -2.03)" style="fill:#5180c1"/><path d="M13.8,7.29a.19.19,0,0,1-.18-.18V4A1.62,1.62,0,0,0,12,2.42,1.65,1.65,0,0,0,10.38,4V7.11a.18.18,0,1,1-.35,0V4a2,2,0,1,1,4,0V7.11A.19.19,0,0,1,13.8,7.29Z" transform="translate(0 -2.03)" style="fill:#5180c1"/><path d="M12,4.79A.79.79,0,1,1,12.79,4,.79.79,0,0,1,12,4.79Zm0-1.18a.38.38,0,0,0-.39.39.39.39,0,1,0,.78,0A.38.38,0,0,0,12,3.61Z" transform="translate(0 -2.03)" style="fill:#5180c1"/><path d="M14.89,7.29H9.11a.19.19,0,0,1-.18-.18.18.18,0,0,1,.18-.17h5.74a.18.18,0,0,1,.17.17C15,7.2,15,7.29,14.89,7.29Z" transform="translate(0 -2.03)" style="fill:#5180c1"/><path d="M8.28,15.87H1.71a.19.19,0,0,1-.18-.18V9.13A.19.19,0,0,1,1.71,9H8.28a.19.19,0,0,1,.17.18v6.56C8.5,15.78,8.41,15.87,8.28,15.87Zm-6.4-.39H8.1V9.3H1.88Z" transform="translate(0 -2.03)" style="fill:#5180c1"/><path d="M7.27,15.26H2.72a.19.19,0,0,1-.18-.18V13.42c0-.09,0-.13.13-.18L4,12.72c0-.05.13,0,.17,0l.79.57.79-.57a.28.28,0,0,1,.18,0l1.35.52c.09,0,.14.09.14.18v1.66A.19.19,0,0,1,7.27,15.26Zm-4.34-.4H7.05V13.5l-1.14-.43-.83.61a.21.21,0,0,1-.22,0L4,13.07l-1.14.43v1.36Z" transform="translate(0 -2.03)" style="fill:#5180c1"/><path d="M6.48,15.21h-3A.18.18,0,0,1,3.33,15V14a.19.19,0,0,1,.17-.18.19.19,0,0,1,.18.18v.83H6.31V14a.18.18,0,0,1,.17-.18.19.19,0,0,1,.18.18v1C6.7,15.13,6.61,15.21,6.48,15.21Z" transform="translate(0 -2.03)" style="fill:#5180c1"/><path d="M5,12.67c-.88,0-1.32-1.18-1.32-1.84a1.32,1.32,0,0,1,2.63,0C6.35,11.53,5.87,12.67,5,12.67ZM5,10a.92.92,0,0,0-.92.92c0,.52.35,1.44.92,1.44S6,11.4,6,10.88A.92.92,0,0,0,5,10Z" transform="translate(0 -2.03)" style="fill:#5180c1"/><path d="M7.66,16.75H2.32a.18.18,0,0,1-.17-.18.18.18,0,0,1,.17-.17h5.3a.18.18,0,0,1,.18.17C7.8,16.66,7.75,16.75,7.66,16.75Z" transform="translate(0 -2.03)" style="fill:#5180c1"/><path d="M7.66,17.71H2.32a.18.18,0,0,1,0-.35h5.3a.19.19,0,0,1,.18.17C7.8,17.62,7.75,17.71,7.66,17.71Z" transform="translate(0 -2.03)" style="fill:#5180c1"/><path d="M7.66,18.72H2.32a.18.18,0,0,1-.17-.18.18.18,0,0,1,.17-.17h5.3a.18.18,0,0,1,.18.17C7.84,18.63,7.75,18.72,7.66,18.72Z" transform="translate(0 -2.03)" style="fill:#5180c1"/><path d="M18.26,9.3h-5a.18.18,0,1,1,0-.35h5a.18.18,0,1,1,0,.35Z" transform="translate(0 -2.03)" style="fill:#5180c1"/><path d="M19.66,10H13.27a.18.18,0,0,1-.18-.17.19.19,0,0,1,.18-.18h6.39a.19.19,0,0,1,.18.18A.18.18,0,0,1,19.66,10Z" transform="translate(0 -2.03)" style="fill:#5180c1"/><path d="M22.47,10H20.89a.18.18,0,0,1-.17-.17.18.18,0,0,1,.17-.18h1.58a.19.19,0,0,1,.17.18A.15.15,0,0,1,22.47,10Z" transform="translate(0 -2.03)" style="fill:#5180c1"/><path d="M18.26,11.27h-5a.18.18,0,1,1,0-.35h5a.18.18,0,1,1,0,.35Z" transform="translate(0 -2.03)" style="fill:#5180c1"/><path d="M19.66,12H13.27a.19.19,0,0,1-.18-.18.18.18,0,0,1,.18-.17h6.39a.18.18,0,0,1,.18.17A.19.19,0,0,1,19.66,12Z" transform="translate(0 -2.03)" style="fill:#5180c1"/><path d="M22.47,12H20.89a.18.18,0,0,1-.17-.18.18.18,0,0,1,.17-.17h1.58a.18.18,0,0,1,.17.17A.16.16,0,0,1,22.47,12Z" transform="translate(0 -2.03)" style="fill:#5180c1"/><path d="M19.66,14H13.27a.19.19,0,0,1-.18-.18.18.18,0,0,1,.18-.17h6.39a.18.18,0,0,1,.18.17A.19.19,0,0,1,19.66,14Z" transform="translate(0 -2.03)" style="fill:#5180c1"/><path d="M21.42,20.6H14.15a.19.19,0,0,1-.18-.18V19a.19.19,0,0,1,.18-.17h7.27a.19.19,0,0,1,.17.17v1.4C21.63,20.51,21.55,20.6,21.42,20.6Zm-7.06-.39h6.88v-1H14.36Z" transform="translate(0 -2.03)" style="fill:#5180c1"/><path d="M23.65,17.14H9.72a.18.18,0,0,1,0-.35H23.65" transform="translate(0 -2.03)" style="fill:#5180c1"/></g></svg>