<svg id="Layer_1" data-name="Layer 1" xmlns="http://www.w3.org/2000/svg" viewBox="0 0 24 23.73"><g id="_947_Mask_Theatre_Drama_Film" data-name="947, Mask, Theatre, Drama, Film"><path d="M20.15.69A1.56,1.56,0,1,1,18.6,2.24,1.55,1.55,0,0,1,20.15.69Z" transform="translate(0 -0.14)" style="fill:#fff"/><path d="M3.44,21a1.15,1.15,0,1,1-1.15,1.15A1.14,1.14,0,0,1,3.44,21Z" transform="translate(0 -0.14)" style="fill:#fff"/><path d="M13.42,5.63v.51H.55V5.63A1.53,1.53,0,0,1,2.06,4.12H12A1.49,1.49,0,0,1,13.42,5.63Z" transform="translate(0 -0.14)" style="fill:#a1c6e9"/><path d="M21.44,7.79,23.13,14a7.36,7.36,0,0,1,.23,1.74,6.43,6.43,0,0,1-12.55,2,6.51,6.51,0,0,0,2.56-5.18V7.92l6.05-1.65a1.46,1.46,0,0,1,1.83,1.06Zm-1.88,10-.14-.37a1.9,1.9,0,0,0-3.62,1.15l.14.37Z" transform="translate(0 -0.14)" style="fill:#a1c6e9"/><path d="M13.42,7.92v4.63a6.52,6.52,0,0,1-2.57,5.18A6.35,6.35,0,0,1,7,19,6.46,6.46,0,0,1,.55,12.55V6.14H13.42ZM8.89,13.37V13H5.08v.36A1.94,1.94,0,0,0,7,15.3,1.9,1.9,0,0,0,8.89,13.37Z" transform="translate(0 -0.14)" style="fill:#fff"/><path d="M23.59,21.3a.41.41,0,1,1-.41.41A.41.41,0,0,1,23.59,21.3Z" transform="translate(0 -0.14)" style="fill:#2c80c3"/><path d="M23,5.86a.42.42,0,1,1-.41.41A.41.41,0,0,1,23,5.86Z" transform="translate(0 -0.14)" style="fill:#2c80c3"/><path d="M14.43.14a.41.41,0,0,1,.41.41.41.41,0,1,1-.82,0A.41.41,0,0,1,14.43.14Z" transform="translate(0 -0.14)" style="fill:#2c80c3"/><path d="M13.56,23a.41.41,0,1,1-.42.41A.41.41,0,0,1,13.56,23Z" transform="translate(0 -0.14)" style="fill:#2c80c3"/><path d="M7.28,20.75a.41.41,0,1,1-.41.41A.41.41,0,0,1,7.28,20.75Z" transform="translate(0 -0.14)" style="fill:#2c80c3"/><path d="M5,.41a.42.42,0,1,1-.41.41A.41.41,0,0,1,5,.41Z" transform="translate(0 -0.14)" style="fill:#2c80c3"/><path d="M.41,20.47a.42.42,0,0,1,0,.83.42.42,0,0,1,0-.83Z" transform="translate(0 -0.14)" style="fill:#2c80c3"/><path d="M7,15.57a2.2,2.2,0,0,1-2.2-2.2V13a.3.3,0,0,1,.27-.28H8.89a.3.3,0,0,1,.27.28v.36A2.13,2.13,0,0,1,7,15.57ZM5.36,13.28v.09a1.6,1.6,0,1,0,3.2,0v-.09Z" transform="translate(0 -0.14)" style="fill:#2c80c3"/><path d="M7.42,11.86H6.55a.29.29,0,0,1-.28-.27.3.3,0,0,1,.28-.28h.87a.29.29,0,0,1,.27.28A.28.28,0,0,1,7.42,11.86Z" transform="translate(0 -0.14)" style="fill:#2c80c3"/><path d="M13.42,6.41H.55a.28.28,0,1,1,0-.55H13.42a.29.29,0,0,1,.27.28C13.74,6.27,13.6,6.41,13.42,6.41Z" transform="translate(0 -0.14)" style="fill:#2c80c3"/><path d="M4,10.44A1.43,1.43,0,0,1,2.56,9a.3.3,0,0,1,.28-.27A.29.29,0,0,1,3.11,9,.87.87,0,1,0,4.85,9a.3.3,0,0,1,.28-.27A.29.29,0,0,1,5.4,9,1.45,1.45,0,0,1,4,10.44Z" transform="translate(0 -0.14)" style="fill:#2c80c3"/><path d="M10,10.44A1.43,1.43,0,0,1,8.56,9a.3.3,0,0,1,.28-.27A.29.29,0,0,1,9.11,9a.87.87,0,1,0,1.74,0,.3.3,0,0,1,.28-.27A.29.29,0,0,1,11.4,9,1.42,1.42,0,0,1,10,10.44Z" transform="translate(0 -0.14)" style="fill:#2c80c3"/><path d="M15.89,19.19a.17.17,0,0,1-.13,0s-.14-.1-.14-.19l-.14-.36a2.19,2.19,0,0,1,1.42-2.75,3.27,3.27,0,0,1,.64-.09,2.2,2.2,0,0,1,2.11,1.55l.14.37v.23c-.05,0-.1.14-.19.14L16,19.19Zm1.74-2.84a2.19,2.19,0,0,0-.5.09,1.59,1.59,0,0,0-1.05,2l0,.09,3.12-1,0-.09A1.67,1.67,0,0,0,17.63,16.35Z" transform="translate(0 -0.14)" style="fill:#2c80c3"/><path d="M16.26,15.16a.3.3,0,0,1-.28-.23.32.32,0,0,1,.19-.37l.82-.22a.31.31,0,0,1,.37.18.33.33,0,0,1-.18.37l-.83.22C16.35,15.16,16.31,15.16,16.26,15.16Z" transform="translate(0 -0.14)" style="fill:#2c80c3"/><path d="M17,22.44a6.67,6.67,0,0,1-6.37-4.62.29.29,0,1,1,.55-.19,6.15,6.15,0,0,0,12-1.87,6.7,6.7,0,0,0-.23-1.65L21.07,7.42a1.29,1.29,0,0,0-1.51-.87l-6,1.65A.32.32,0,0,1,13.14,8a.31.31,0,0,1,.19-.36l6-1.65a1.75,1.75,0,0,1,2.2,1.24l1.83,6.68a5.8,5.8,0,0,1,.23,1.79,6.67,6.67,0,0,1-4.94,6.46A5.65,5.65,0,0,1,17,22.44Z" transform="translate(0 -0.14)" style="fill:#2c80c3"/><path d="M7,19.28A6.75,6.75,0,0,1,.27,12.55V5.63A1.79,1.79,0,0,1,2.06,3.85H12a1.79,1.79,0,0,1,1.79,1.78v7A6.61,6.61,0,0,1,11,18,7.07,7.07,0,0,1,7,19.28ZM2.06,4.4A1.23,1.23,0,0,0,.82,5.63v7A6.14,6.14,0,0,0,7,18.73a6,6,0,0,0,3.67-1.23,6.2,6.2,0,0,0,2.47-4.95V5.63A1.23,1.23,0,0,0,11.86,4.4Z" transform="translate(0 -0.14)" style="fill:#2c80c3"/><path d="M14.75,9.94a.3.3,0,0,1-.28-.23.32.32,0,0,1,.19-.37l6.73-1.87a.28.28,0,1,1,.18.54L14.84,9.89A.14.14,0,0,1,14.75,9.94Z" transform="translate(0 -0.14)" style="fill:#2c80c3"/><path d="M13.14,14.75a.3.3,0,0,1-.27-.28.34.34,0,0,1,.27-.32.8.8,0,0,0,.69-.36A1.11,1.11,0,0,0,14,13a.32.32,0,0,1,.18-.37.33.33,0,0,1,.37.18,1.44,1.44,0,0,1-.23,1.29,1.49,1.49,0,0,1-1.15.64Z" transform="translate(0 -0.14)" style="fill:#2c80c3"/><path d="M18.92,12.92a1.18,1.18,0,0,1-.69-.19,1.63,1.63,0,0,1-.69-.87.31.31,0,0,1,.19-.36.3.3,0,0,1,.36.18.65.65,0,0,0,.41.5,1,1,0,0,0,.65.09.84.84,0,0,0,.59-1,.32.32,0,0,1,.18-.37.32.32,0,0,1,.37.19,1.37,1.37,0,0,1-1,1.74A.61.61,0,0,1,18.92,12.92Z" transform="translate(0 -0.14)" style="fill:#2c80c3"/><path d="M3.44,23.59a1.42,1.42,0,1,1,1.41-1.42A1.43,1.43,0,0,1,3.44,23.59Zm0-2.29a.87.87,0,1,0,0,1.74.85.85,0,0,0,.87-.87A.9.9,0,0,0,3.44,21.3Z" transform="translate(0 -0.14)" style="fill:#2c80c3"/><path d="M20.15,4.12a1.89,1.89,0,0,1-1.88-1.88A1.86,1.86,0,0,1,20.15.37,1.88,1.88,0,0,1,22,2.24,1.85,1.85,0,0,1,20.15,4.12Zm0-3.16a1.28,1.28,0,0,0-1.28,1.28,1.32,1.32,0,0,0,1.28,1.29,1.29,1.29,0,1,0,0-2.57Z" transform="translate(0 -0.14)" style="fill:#2c80c3"/></g></svg>