<svg id="Layer_1" data-name="Layer 1" xmlns="http://www.w3.org/2000/svg" viewBox="0 0 24 23.76"><g id="F544_Car_service_wash" data-name="F544, Car, service, wash"><polygon points="23.48 0.51 23.48 2.49 21.96 2.49 19.97 2.49 11.98 2.49 3.99 2.49 2 2.49 0.52 2.49 0.52 0.51 23.48 0.51" style="fill:#a1c6e9"/><rect x="19.97" y="2.49" width="2" height="20.76" style="fill:#a1c6e9"/><path d="M18,19v.87a.87.87,0,0,1-.2.16,1.64,1.64,0,0,1-.92.35H7.13a1.94,1.94,0,0,1-1-.39s-.12-.08-.16-.12V19H6V17c0-.59.72-1.22,1.48-1.3h0v0l.32.24H16l.48-.28A1.54,1.54,0,0,1,18,17v2h0S18,19,18,19Zm-2-.79a.75.75,0,0,0-.76-.75.75.75,0,1,0,.76.75Zm-6.47,0a.75.75,0,0,0-.75-.75.75.75,0,1,0,0,1.5A.75.75,0,0,0,9.52,18.24Z" transform="translate(-0.02 -0.21)" style="fill:#a1c6e9"/><path d="M17.79,20.06A.1.1,0,0,0,18,20a1.93,1.93,0,0,1-1.68,1.86H7.69A1.94,1.94,0,0,1,6,20H6c0,.08.08.08.16,0a1.94,1.94,0,0,0,1,.39h9.74A1.66,1.66,0,0,0,17.79,20.06Z" transform="translate(-0.02 -0.21)" style="fill:#a1c6e9"/><path d="M16.07,12.9l.44,2.81-.6.28H7.81l-.32-.24.44-2.81c0-.71.88-1.3,2-1.3h4.2C15.19,11.6,16.07,12.19,16.07,12.9Z" transform="translate(-0.02 -0.21)" style="fill:#fff"/><rect x="14.34" y="21.67" width="1.56" height="1.54" style="fill:#a1c6e9"/><path d="M15.23,17.53a.75.75,0,0,1,.76.75.7.7,0,0,1-.76.71.72.72,0,0,1-.75-.75A.77.77,0,0,1,15.23,17.53Z" transform="translate(-0.02 -0.21)" style="fill:#fff"/><path d="M13.52,6.65v.48h-3V6.62A1.51,1.51,0,0,1,12,5.11,1.56,1.56,0,0,1,13.52,6.65Z" transform="translate(-0.02 -0.21)" style="fill:#fff"/><rect x="8.07" y="21.67" width="1.56" height="1.54" style="fill:#a1c6e9"/><path d="M8.77,17.53a.75.75,0,0,1,.75.75.72.72,0,0,1-.75.71A.75.75,0,0,1,8,18.24.72.72,0,0,1,8.77,17.53Z" transform="translate(-0.02 -0.21)" style="fill:#fff"/><rect x="2" y="2.49" width="2" height="20.76" style="fill:#a1c6e9"/><path d="M4,23.93a.52.52,0,0,1-.52-.51V2.7a.52.52,0,0,1,1,0V23.46A.52.52,0,0,1,4,23.93Z" transform="translate(-0.02 -0.21)" style="fill:#2c80c3"/><path d="M2,23.93a.52.52,0,0,1-.52-.51V2.7a.52.52,0,0,1,1,0V23.46A.52.52,0,0,1,2,23.93Z" transform="translate(-0.02 -0.21)" style="fill:#2c80c3"/><path d="M23.5,3.18H22a.53.53,0,0,1-.52-.52A.52.52,0,0,1,22,2.15h1V1.2H1v1H20a.51.51,0,1,1,0,1H.54A.52.52,0,0,1,0,2.7v-2A.53.53,0,0,1,.54.21h23A.53.53,0,0,1,24,.72v2A.59.59,0,0,1,23.5,3.18Z" transform="translate(-0.02 -0.21)" style="fill:#2c80c3"/><path d="M22,23.93a.52.52,0,0,1-.52-.51V3.18h-1V23.46a.52.52,0,0,1-1,0V2.7A.52.52,0,0,1,20,2.19h2a.52.52,0,0,1,.52.51V23.46A.45.45,0,0,1,22,23.93Z" transform="translate(-0.02 -0.21)" style="fill:#2c80c3"/><path d="M9.64,23.93a.52.52,0,0,1-.52-.51V21.88a.52.52,0,0,1,1,0v1.54A.52.52,0,0,1,9.64,23.93Z" transform="translate(-0.02 -0.21)" style="fill:#2c80c3"/><path d="M8.09,23.93a.52.52,0,0,1-.52-.51V21.88a.52.52,0,0,1,1,0v1.54A.52.52,0,0,1,8.09,23.93Z" transform="translate(-0.02 -0.21)" style="fill:#2c80c3"/><path d="M15.91,23.93a.52.52,0,0,1-.52-.51V21.88a.52.52,0,0,1,1,0v1.54A.55.55,0,0,1,15.91,23.93Z" transform="translate(-0.02 -0.21)" style="fill:#2c80c3"/><path d="M14.36,23.93a.52.52,0,0,1-.52-.51V21.88a.52.52,0,0,1,1,0v1.54A.55.55,0,0,1,14.36,23.93Z" transform="translate(-0.02 -0.21)" style="fill:#2c80c3"/><path d="M15.91,22.39H7.73A2.42,2.42,0,0,1,5.53,20a.77.77,0,0,1,.12-.4A.46.46,0,0,1,6,19.47a.73.73,0,0,1,.24.07.55.55,0,0,1,.32.2.48.48,0,0,1,0,.56,1.29,1.29,0,0,0,1.12,1.06h8.54a1.29,1.29,0,0,0,1.12-1.06.54.54,0,0,1,0-.64.38.38,0,0,1,.36-.15.55.55,0,0,1,.36,0,.43.43,0,0,1,.32.51,2.4,2.4,0,0,1-2.2,2.29l-.32.08Z" transform="translate(-0.02 -0.21)" style="fill:#2c80c3"/><path d="M7.81,16.46a.58.58,0,0,1-.28-.08l-.32-.24a.44.44,0,0,1-.2-.47v0l.44-2.77a2.24,2.24,0,0,1,2.47-1.78h4.2a2.24,2.24,0,0,1,2.47,1.78L17,15.63a.52.52,0,0,1-.24.51l-.48.28a.57.57,0,0,1-.24.08H16a.53.53,0,0,1-.52-.51.56.56,0,0,1,.48-.52l0,0L15.55,13V12.9c0-.39-.63-.83-1.47-.83H9.88c-.83,0-1.47.44-1.47.83V13L8,15.51l.08,0a.46.46,0,0,1,.12.67A.44.44,0,0,1,7.81,16.46Z" transform="translate(-0.02 -0.21)" style="fill:#2c80c3"/><path d="M16.87,20.93H7.05a2.18,2.18,0,0,1-1.2-.52c-.08,0-.12-.11-.2-.15a.6.6,0,0,1-.16-.36V17a2,2,0,0,1,2-1.77,1.15,1.15,0,0,1,.36.07l0,0,.16.16h7.78l.52-.2a.51.51,0,0,1,.24,0,2.05,2.05,0,0,1,2,1.78v2.93a.49.49,0,0,1-.16.36,1,1,0,0,1-.24.19A2.75,2.75,0,0,1,17,21S16.91,20.93,16.87,20.93Zm-9.7-1h9.7a1.31,1.31,0,0,0,.64-.28V17a1.08,1.08,0,0,0-.92-.79l-.48.2a.36.36,0,0,1-.2,0H7.81a.45.45,0,0,1-.32-.12l-.12-.08c-.48.12-.84.52-.84.75V19.7A1.53,1.53,0,0,0,7.17,19.94Z" transform="translate(-0.02 -0.21)" style="fill:#2c80c3"/><path d="M8.77,19.51A1.23,1.23,0,1,1,10,18.28,1.27,1.27,0,0,1,8.77,19.51Zm0-1.51a.24.24,0,1,0,.24.24A.26.26,0,0,0,8.77,18Z" transform="translate(-0.02 -0.21)" style="fill:#2c80c3"/><path d="M15.23,19.51a1.23,1.23,0,1,1,1.24-1.23A1.24,1.24,0,0,1,15.23,19.51Zm0-1.51a.24.24,0,0,0,0,.48.26.26,0,0,0,.24-.24C15.51,18.12,15.39,18,15.23,18Z" transform="translate(-0.02 -0.21)" style="fill:#2c80c3"/><path d="M23.5,23.93H.54a.51.51,0,1,1,0-1h23a.52.52,0,0,1,.52.51A.58.58,0,0,1,23.5,23.93Z" transform="translate(-0.02 -0.21)" style="fill:#2c80c3"/><path d="M12,5.15a.53.53,0,0,1-.52-.51v-2a.52.52,0,0,1,1,0v2A.53.53,0,0,1,12,5.15Z" transform="translate(-0.02 -0.21)" style="fill:#2c80c3"/><path d="M13.52,7.64A.52.52,0,0,1,13,7.13V6.62a1,1,0,0,0-2,0v.51a.52.52,0,0,1-1,0V6.62a2,2,0,0,1,4,0v.51A.46.46,0,0,1,13.52,7.64Z" transform="translate(-0.02 -0.21)" style="fill:#2c80c3"/><path d="M15,7.64H9a.51.51,0,1,1,0-1h6a.51.51,0,0,1,0,1Z" transform="translate(-0.02 -0.21)" style="fill:#2c80c3"/><path d="M8.53,9.62a.49.49,0,0,1-.36-.16.5.5,0,0,1,0-.71l.52-.51A.5.5,0,1,1,9.4,9l-.51.51A.72.72,0,0,1,8.53,9.62Z" transform="translate(-0.02 -0.21)" style="fill:#2c80c3"/><path d="M7,11.08a.52.52,0,0,1-.36-.15.51.51,0,0,1,0-.72l.52-.51a.51.51,0,0,1,.72,0,.5.5,0,0,1,0,.71l-.52.52A.52.52,0,0,1,7,11.08Z" transform="translate(-0.02 -0.21)" style="fill:#2c80c3"/><path d="M16.51,9.62a.49.49,0,0,1-.36-.16L15.63,9a.5.5,0,0,1,0-.71.51.51,0,0,1,.72,0l.52.51a.5.5,0,0,1,0,.71A.72.72,0,0,1,16.51,9.62Z" transform="translate(-0.02 -0.21)" style="fill:#2c80c3"/><path d="M18,11.08a.52.52,0,0,1-.36-.15l-.52-.52a.5.5,0,0,1,0-.71.51.51,0,0,1,.72,0l.52.51a.51.51,0,0,1,0,.72A.52.52,0,0,1,18,11.08Z" transform="translate(-0.02 -0.21)" style="fill:#2c80c3"/><path d="M11.52,9.62A.53.53,0,0,1,11,9.11V8.59a.52.52,0,0,1,1,0v.52A.59.59,0,0,1,11.52,9.62Z" transform="translate(-0.02 -0.21)" style="fill:#2c80c3"/><path d="M13.52,9.62A.53.53,0,0,1,13,9.11V8.59a.52.52,0,0,1,1,0v.52A.59.59,0,0,1,13.52,9.62Z" transform="translate(-0.02 -0.21)" style="fill:#2c80c3"/></g></svg>