<svg id="Layer_1" data-name="Layer 1" xmlns="http://www.w3.org/2000/svg" viewBox="0 0 24 23.35"><g id="_773_Corporate_Our_Team_Team_Work" data-name="773, Corporate, Our, Team, Team Work"><path d="M11.35,15.14a1.26,1.26,0,1,1-1.26,1.26A1.26,1.26,0,0,1,11.35,15.14Z" transform="translate(0.43 -0.44)" style="fill:#a1c6e9"/><path d="M18.25,16.56a5.08,5.08,0,0,1,5.08,5.08A4.89,4.89,0,0,1,23,23.55H13.58a4.92,4.92,0,0,1-.36-1.91,5.07,5.07,0,0,1,5-5.08Z" transform="translate(0.43 -0.44)" style="fill:#fff"/><path d="M4.93,16.56h0a5.07,5.07,0,0,1,5,5,4.89,4.89,0,0,1-.37,1.91H.22A4.92,4.92,0,0,1-.14,21.6,5.07,5.07,0,0,1,4.93,16.56Z" transform="translate(0.43 -0.44)" style="fill:#fff"/><polygon points="18.68 16.12 19.98 19.29 18.68 20.55 17.42 19.29 18.68 16.12" style="fill:#a1c6e9"/><polygon points="5.36 16.12 6.62 19.29 5.36 20.55 4.06 19.29 5.36 16.12" style="fill:#a1c6e9"/><path d="M18.25,11.49A2.52,2.52,0,1,1,15.74,14,2.54,2.54,0,0,1,18.25,11.49Z" transform="translate(0.43 -0.44)" style="fill:#a1c6e9"/><path d="M4.93,11.49A2.52,2.52,0,1,1,2.42,14,2.48,2.48,0,0,1,4.93,11.49Z" transform="translate(0.43 -0.44)" style="fill:#a1c6e9"/><path d="M23.29,1.9V8.12a1.2,1.2,0,0,1-1.22,1.22H14.15l-2.56,3.29L9,9.34H1.16A1.2,1.2,0,0,1-.06,8.12V1.9A1.19,1.19,0,0,1,1.16.69H22.07A1.22,1.22,0,0,1,23.29,1.9Z" transform="translate(0.43 -0.44)" style="fill:#a1c6e9"/><path d="M18.94,2.19A2.8,2.8,0,1,1,16.14,5,2.81,2.81,0,0,1,18.94,2.19Z" transform="translate(0.43 -0.44)" style="fill:#fff"/><path d="M4.24,2.19A2.8,2.8,0,1,1,1.44,5,2.81,2.81,0,0,1,4.24,2.19Z" transform="translate(0.43 -0.44)" style="fill:#fff"/><path d="M21.87,10.07a.36.36,0,0,1,.36.36.37.37,0,0,1-.36.37.38.38,0,0,1-.37-.37A.37.37,0,0,1,21.87,10.07Z" transform="translate(0.43 -0.44)" style="fill:#2c80c3"/><path d="M14.52,12.38a.37.37,0,0,1,.36.37.36.36,0,0,1-.36.36.37.37,0,0,1-.37-.36A.38.38,0,0,1,14.52,12.38Z" transform="translate(0.43 -0.44)" style="fill:#2c80c3"/><path d="M9.2,12.1a.36.36,0,0,1,.36.36.37.37,0,0,1-.36.37.38.38,0,0,1-.37-.37A.37.37,0,0,1,9.2,12.1Z" transform="translate(0.43 -0.44)" style="fill:#2c80c3"/><path d="M1.08,11.08a.37.37,0,0,1,.36.37.37.37,0,0,1-.73,0A.37.37,0,0,1,1.08,11.08Z" transform="translate(0.43 -0.44)" style="fill:#2c80c3"/><path d="M.59,15.39a.39.39,0,0,1-.12.77.38.38,0,0,1-.33-.45A.48.48,0,0,1,.59,15.39Z" transform="translate(0.43 -0.44)" style="fill:#2c80c3"/><path d="M4.93,16.81A2.81,2.81,0,1,1,7.74,14,2.84,2.84,0,0,1,4.93,16.81Zm0-5.08A2.28,2.28,0,1,0,7.21,14,2.3,2.3,0,0,0,4.93,11.73Z" transform="translate(0.43 -0.44)" style="fill:#2c80c3"/><path d="M2.38,23.79a.26.26,0,0,1-.25-.24V21.64a.26.26,0,0,1,.25-.24.26.26,0,0,1,.24.24v1.91A.23.23,0,0,1,2.38,23.79Z" transform="translate(0.43 -0.44)" style="fill:#2c80c3"/><path d="M7.45,23.79a.26.26,0,0,1-.24-.24V21.64a.24.24,0,1,1,.48,0v1.91A.26.26,0,0,1,7.45,23.79Z" transform="translate(0.43 -0.44)" style="fill:#2c80c3"/><path d="M4.93,21.23a.21.21,0,0,1-.16-.08l-1.3-1.26a.24.24,0,0,1,0-.28l1.26-3.17a.27.27,0,0,1,.24-.16.27.27,0,0,1,.25.16l1.26,3.17a.35.35,0,0,1,0,.28L5.1,21.15A.17.17,0,0,1,4.93,21.23ZM4,19.65l1,1,1-1-1-2.44Z" transform="translate(0.43 -0.44)" style="fill:#2c80c3"/><path d="M9.6,23.79H.22A.27.27,0,0,1,0,23.63a5.71,5.71,0,0,1-.41-2,5.32,5.32,0,0,1,10.64,0,4.92,4.92,0,0,1-.4,2C9.81,23.71,9.73,23.79,9.6,23.79ZM.39,23.27h9a4.68,4.68,0,0,0,.29-1.63,4.8,4.8,0,0,0-9.59,0A4.41,4.41,0,0,0,.39,23.27Z" transform="translate(0.43 -0.44)" style="fill:#2c80c3"/><path d="M18.25,16.81A2.81,2.81,0,1,1,21.06,14,2.81,2.81,0,0,1,18.25,16.81Zm0-5.08A2.28,2.28,0,1,0,20.53,14,2.27,2.27,0,0,0,18.25,11.73Z" transform="translate(0.43 -0.44)" style="fill:#2c80c3"/><path d="M15.74,23.79a.26.26,0,0,1-.25-.24V21.64a.25.25,0,0,1,.49,0v1.91A.23.23,0,0,1,15.74,23.79Z" transform="translate(0.43 -0.44)" style="fill:#2c80c3"/><path d="M20.81,23.79a.26.26,0,0,1-.24-.24V21.64a.26.26,0,0,1,.24-.24.27.27,0,0,1,.25.24v1.91A.27.27,0,0,1,20.81,23.79Z" transform="translate(0.43 -0.44)" style="fill:#2c80c3"/><path d="M18.25,21.23a.21.21,0,0,1-.16-.08l-1.26-1.26a.24.24,0,0,1,0-.28l1.26-3.17a.27.27,0,0,1,.24-.16h0a.27.27,0,0,1,.25.16l1.26,3.17a.35.35,0,0,1,0,.28L18.5,21.15A.31.31,0,0,1,18.25,21.23Zm-.93-1.58,1,1,1-1-1-2.44Z" transform="translate(0.43 -0.44)" style="fill:#2c80c3"/><path d="M23,23.79H13.58a.27.27,0,0,1-.24-.16,5.71,5.71,0,0,1-.41-2,5.32,5.32,0,0,1,10.64,0,4.92,4.92,0,0,1-.4,2C23.17,23.71,23.09,23.79,23,23.79Zm-9.21-.52H22.8a4.68,4.68,0,0,0,.29-1.63,4.8,4.8,0,0,0-9.59,0A3.71,3.71,0,0,0,13.75,23.27Z" transform="translate(0.43 -0.44)" style="fill:#2c80c3"/><path d="M11.59,12.87a.31.31,0,0,1-.2-.08L8.91,9.58H1.16A1.45,1.45,0,0,1-.3,8.12V1.9A1.45,1.45,0,0,1,1.16.44H22.07A1.46,1.46,0,0,1,23.53,1.9V8.12a1.46,1.46,0,0,1-1.46,1.46h-7.8L11.8,12.79A.33.33,0,0,1,11.59,12.87ZM1.16.93a1,1,0,0,0-1,1V8.12a1,1,0,0,0,1,1H9.08a.31.31,0,0,1,.2.08l2.35,3.05L14,9.17c0-.08.12-.08.2-.08h7.92a1,1,0,0,0,1-1V1.9a1,1,0,0,0-1-1Z" transform="translate(0.43 -0.44)" style="fill:#2c80c3"/><path d="M4.24,8A3,3,0,0,1,4.24,2,3,3,0,1,1,4.24,8Zm0-5.57A2.58,2.58,0,0,0,1.68,5,2.56,2.56,0,1,0,6.8,5,2.58,2.58,0,0,0,4.24,2.47Z" transform="translate(0.43 -0.44)" style="fill:#2c80c3"/><path d="M18.94,8a3,3,0,1,1,3-3A3.07,3.07,0,0,1,18.94,8Zm0-5.57A2.57,2.57,0,0,0,16.39,5a2.56,2.56,0,1,0,2.55-2.56Z" transform="translate(0.43 -0.44)" style="fill:#2c80c3"/><path d="M18.5,6.25a.25.25,0,0,1-.17-.08l-.89-.89a.31.31,0,0,1,0-.37c.08-.12.24-.08.37,0l.73.73L20.16,4a.29.29,0,0,1,.37,0,.3.3,0,0,1,0,.36L18.74,6.17A.34.34,0,0,1,18.5,6.25Z" transform="translate(0.43 -0.44)" style="fill:#2c80c3"/><path d="M3.15,6.33A.23.23,0,0,1,3,6.25a.31.31,0,0,1,0-.37L5.14,3.73a.3.3,0,0,1,.36,0,.31.31,0,0,1,0,.37L3.35,6.25C3.27,6.29,3.23,6.33,3.15,6.33Z" transform="translate(0.43 -0.44)" style="fill:#2c80c3"/><path d="M5.3,6.33a.21.21,0,0,1-.16-.08L3,4.1a.31.31,0,0,1,0-.37c.09-.12.25-.08.37,0L5.5,5.88a.31.31,0,0,1,0,.37C5.42,6.29,5.38,6.33,5.3,6.33Z" transform="translate(0.43 -0.44)" style="fill:#2c80c3"/><path d="M11.35,18a1.55,1.55,0,1,1,1.54-1.55A1.58,1.58,0,0,1,11.35,18Zm0-2.56a1,1,0,1,0,1,1A1,1,0,0,0,11.35,15.39Z" transform="translate(0.43 -0.44)" style="fill:#2c80c3"/><path d="M16.18,5.23H7.05a.24.24,0,1,1,0-.48h9.13a.27.27,0,0,1,.25.24A.27.27,0,0,1,16.18,5.23Z" transform="translate(0.43 -0.44)" style="fill:#2c80c3"/><path d="M11.35,15.14a1.26,1.26,0,1,1-1.26,1.26A1.26,1.26,0,0,1,11.35,15.14Z" transform="translate(0.43 -0.44)" style="fill:#a1c6e9"/><path d="M18.25,16.56a5.08,5.08,0,0,1,5.08,5.08A4.89,4.89,0,0,1,23,23.55H13.58a4.92,4.92,0,0,1-.36-1.91,5.07,5.07,0,0,1,5-5.08Z" transform="translate(0.43 -0.44)" style="fill:#fff"/><path d="M4.93,16.56h0a5.07,5.07,0,0,1,5,5,4.89,4.89,0,0,1-.37,1.91H.22A4.92,4.92,0,0,1-.14,21.6,5.07,5.07,0,0,1,4.93,16.56Z" transform="translate(0.43 -0.44)" style="fill:#fff"/><polygon points="18.68 16.12 19.98 19.29 18.68 20.55 17.42 19.29 18.68 16.12" style="fill:#a1c6e9"/><polygon points="5.36 16.12 6.62 19.29 5.36 20.55 4.06 19.29 5.36 16.12" style="fill:#a1c6e9"/><path d="M18.25,11.49A2.52,2.52,0,1,1,15.74,14,2.54,2.54,0,0,1,18.25,11.49Z" transform="translate(0.43 -0.44)" style="fill:#a1c6e9"/><path d="M4.93,11.49A2.52,2.52,0,1,1,2.42,14,2.48,2.48,0,0,1,4.93,11.49Z" transform="translate(0.43 -0.44)" style="fill:#a1c6e9"/><path d="M23.29,1.9V8.12a1.2,1.2,0,0,1-1.22,1.22H14.15l-2.56,3.29L9,9.34H1.16A1.2,1.2,0,0,1-.06,8.12V1.9A1.19,1.19,0,0,1,1.16.69H22.07A1.22,1.22,0,0,1,23.29,1.9Z" transform="translate(0.43 -0.44)" style="fill:#a1c6e9"/><path d="M18.94,2.19A2.8,2.8,0,1,1,16.14,5,2.81,2.81,0,0,1,18.94,2.19Z" transform="translate(0.43 -0.44)" style="fill:#fff"/><path d="M4.24,2.19A2.8,2.8,0,1,1,1.44,5,2.81,2.81,0,0,1,4.24,2.19Z" transform="translate(0.43 -0.44)" style="fill:#fff"/><path d="M21.87,10.07a.36.36,0,0,1,.36.36.37.37,0,0,1-.36.37.38.38,0,0,1-.37-.37A.37.37,0,0,1,21.87,10.07Z" transform="translate(0.43 -0.44)" style="fill:#2c80c3"/><path d="M14.52,12.38a.37.37,0,0,1,.36.37.36.36,0,0,1-.36.36.37.37,0,0,1-.37-.36A.38.38,0,0,1,14.52,12.38Z" transform="translate(0.43 -0.44)" style="fill:#2c80c3"/><path d="M9.2,12.1a.36.36,0,0,1,.36.36.37.37,0,0,1-.36.37.38.38,0,0,1-.37-.37A.37.37,0,0,1,9.2,12.1Z" transform="translate(0.43 -0.44)" style="fill:#2c80c3"/><path d="M1.08,11.08a.37.37,0,0,1,.36.37.37.37,0,0,1-.73,0A.37.37,0,0,1,1.08,11.08Z" transform="translate(0.43 -0.44)" style="fill:#2c80c3"/><path d="M.59,15.39a.39.39,0,0,1-.12.77.38.38,0,0,1-.33-.45A.48.48,0,0,1,.59,15.39Z" transform="translate(0.43 -0.44)" style="fill:#2c80c3"/><path d="M4.93,16.81A2.81,2.81,0,1,1,7.74,14,2.84,2.84,0,0,1,4.93,16.81Zm0-5.08A2.28,2.28,0,1,0,7.21,14,2.3,2.3,0,0,0,4.93,11.73Z" transform="translate(0.43 -0.44)" style="fill:#2c80c3"/><path d="M2.38,23.79a.26.26,0,0,1-.25-.24V21.64a.26.26,0,0,1,.25-.24.26.26,0,0,1,.24.24v1.91A.23.23,0,0,1,2.38,23.79Z" transform="translate(0.43 -0.44)" style="fill:#2c80c3"/><path d="M7.45,23.79a.26.26,0,0,1-.24-.24V21.64a.24.24,0,1,1,.48,0v1.91A.26.26,0,0,1,7.45,23.79Z" transform="translate(0.43 -0.44)" style="fill:#2c80c3"/><path d="M4.93,21.23a.21.21,0,0,1-.16-.08l-1.3-1.26a.24.24,0,0,1,0-.28l1.26-3.17a.27.27,0,0,1,.24-.16.27.27,0,0,1,.25.16l1.26,3.17a.35.35,0,0,1,0,.28L5.1,21.15A.17.17,0,0,1,4.93,21.23ZM4,19.65l1,1,1-1-1-2.44Z" transform="translate(0.43 -0.44)" style="fill:#2c80c3"/><path d="M9.6,23.79H.22A.27.27,0,0,1,0,23.63a5.71,5.71,0,0,1-.41-2,5.32,5.32,0,0,1,10.64,0,4.92,4.92,0,0,1-.4,2C9.81,23.71,9.73,23.79,9.6,23.79ZM.39,23.27h9a4.68,4.68,0,0,0,.29-1.63,4.8,4.8,0,0,0-9.59,0A4.41,4.41,0,0,0,.39,23.27Z" transform="translate(0.43 -0.44)" style="fill:#2c80c3"/><path d="M18.25,16.81A2.81,2.81,0,1,1,21.06,14,2.81,2.81,0,0,1,18.25,16.81Zm0-5.08A2.28,2.28,0,1,0,20.53,14,2.27,2.27,0,0,0,18.25,11.73Z" transform="translate(0.43 -0.44)" style="fill:#2c80c3"/><path d="M15.74,23.79a.26.26,0,0,1-.25-.24V21.64a.25.25,0,0,1,.49,0v1.91A.23.23,0,0,1,15.74,23.79Z" transform="translate(0.43 -0.44)" style="fill:#2c80c3"/><path d="M20.81,23.79a.26.26,0,0,1-.24-.24V21.64a.26.26,0,0,1,.24-.24.27.27,0,0,1,.25.24v1.91A.27.27,0,0,1,20.81,23.79Z" transform="translate(0.43 -0.44)" style="fill:#2c80c3"/><path d="M18.25,21.23a.21.21,0,0,1-.16-.08l-1.26-1.26a.24.24,0,0,1,0-.28l1.26-3.17a.27.27,0,0,1,.24-.16h0a.27.27,0,0,1,.25.16l1.26,3.17a.35.35,0,0,1,0,.28L18.5,21.15A.31.31,0,0,1,18.25,21.23Zm-.93-1.58,1,1,1-1-1-2.44Z" transform="translate(0.43 -0.44)" style="fill:#2c80c3"/><path d="M23,23.79H13.58a.27.27,0,0,1-.24-.16,5.71,5.71,0,0,1-.41-2,5.32,5.32,0,0,1,10.64,0,4.92,4.92,0,0,1-.4,2C23.17,23.71,23.09,23.79,23,23.79Zm-9.21-.52H22.8a4.68,4.68,0,0,0,.29-1.63,4.8,4.8,0,0,0-9.59,0A3.71,3.71,0,0,0,13.75,23.27Z" transform="translate(0.43 -0.44)" style="fill:#2c80c3"/><path d="M11.59,12.87a.31.31,0,0,1-.2-.08L8.91,9.58H1.16A1.45,1.45,0,0,1-.3,8.12V1.9A1.45,1.45,0,0,1,1.16.44H22.07A1.46,1.46,0,0,1,23.53,1.9V8.12a1.46,1.46,0,0,1-1.46,1.46h-7.8L11.8,12.79A.33.33,0,0,1,11.59,12.87ZM1.16.93a1,1,0,0,0-1,1V8.12a1,1,0,0,0,1,1H9.08a.31.31,0,0,1,.2.08l2.35,3.05L14,9.17c0-.08.12-.08.2-.08h7.92a1,1,0,0,0,1-1V1.9a1,1,0,0,0-1-1Z" transform="translate(0.43 -0.44)" style="fill:#2c80c3"/><path d="M4.24,8A3,3,0,0,1,4.24,2,3,3,0,1,1,4.24,8Zm0-5.57A2.58,2.58,0,0,0,1.68,5,2.56,2.56,0,1,0,6.8,5,2.58,2.58,0,0,0,4.24,2.47Z" transform="translate(0.43 -0.44)" style="fill:#2c80c3"/><path d="M18.94,8a3,3,0,1,1,3-3A3.07,3.07,0,0,1,18.94,8Zm0-5.57A2.57,2.57,0,0,0,16.39,5a2.56,2.56,0,1,0,2.55-2.56Z" transform="translate(0.43 -0.44)" style="fill:#2c80c3"/><path d="M18.5,6.25a.25.25,0,0,1-.17-.08l-.89-.89a.31.31,0,0,1,0-.37c.08-.12.24-.08.37,0l.73.73L20.16,4a.29.29,0,0,1,.37,0,.3.3,0,0,1,0,.36L18.74,6.17A.34.34,0,0,1,18.5,6.25Z" transform="translate(0.43 -0.44)" style="fill:#2c80c3"/><path d="M3.15,6.33A.23.23,0,0,1,3,6.25a.31.31,0,0,1,0-.37L5.14,3.73a.3.3,0,0,1,.36,0,.31.31,0,0,1,0,.37L3.35,6.25C3.27,6.29,3.23,6.33,3.15,6.33Z" transform="translate(0.43 -0.44)" style="fill:#2c80c3"/><path d="M5.3,6.33a.21.21,0,0,1-.16-.08L3,4.1a.31.31,0,0,1,0-.37c.09-.12.25-.08.37,0L5.5,5.88a.31.31,0,0,1,0,.37C5.42,6.29,5.38,6.33,5.3,6.33Z" transform="translate(0.43 -0.44)" style="fill:#2c80c3"/><path d="M11.35,18a1.55,1.55,0,1,1,1.54-1.55A1.58,1.58,0,0,1,11.35,18Zm0-2.56a1,1,0,1,0,1,1A1,1,0,0,0,11.35,15.39Z" transform="translate(0.43 -0.44)" style="fill:#2c80c3"/><path d="M16.18,5.23H7.05a.24.24,0,1,1,0-.48h9.13a.27.27,0,0,1,.25.24A.27.27,0,0,1,16.18,5.23Z" transform="translate(0.43 -0.44)" style="fill:#2c80c3"/></g></svg>