<svg id="Layer_1" data-name="Layer 1" xmlns="http://www.w3.org/2000/svg" viewBox="0 0 40 39.93"><g id="F548_Car_garage_transport" data-name="F548, Car, garage, transport"><path d="M25.38,29.36a1.25,1.25,0,0,1,1.26,1.26,1.17,1.17,0,0,1-1.26,1.2,1.22,1.22,0,0,1-1.26-1.26A1.3,1.3,0,0,1,25.38,29.36Z" transform="translate(0 -0.26)" style="fill:#fff"/><path d="M14.62,29.36a1.26,1.26,0,0,1,1.26,1.26,1.21,1.21,0,0,1-1.26,1.2,1.25,1.25,0,0,1-1.26-1.26A1.21,1.21,0,0,1,14.62,29.36Z" transform="translate(0 -0.26)" style="fill:#fff"/><rect x="23.92" y="36.41" width="2.59" height="2.59" style="fill:#fff"/><rect x="13.49" y="36.41" width="2.59" height="2.59" style="fill:#fff"/><path d="M29.63,33.61a.17.17,0,0,0,.27-.06c-.2,1.72-1.4,3.12-2.79,3.12H12.82c-1.46,0-2.65-1.4-2.85-3.19h0c.06.13.13.13.26.07a3.5,3.5,0,0,0,1.6.66H28A2.89,2.89,0,0,0,29.63,33.61Z" transform="translate(0 -0.26)" style="fill:#a1c6e9"/><path d="M30,31.88v1.47a1.43,1.43,0,0,1-.34.26,2.88,2.88,0,0,1-1.52.6H11.89a3.46,3.46,0,0,1-1.59-.66c-.07-.07-.2-.14-.27-.2V31.82h0V28.5a2.72,2.72,0,0,1,2.46-2.2h0v.07l.53.4H26.64l.8-.47a2.58,2.58,0,0,1,2.46,2.2v3.32h0C30,31.82,30,31.82,30,31.88Zm-3.33-1.32a1.26,1.26,0,0,0-1.26-1.27,1.27,1.27,0,1,0,1.26,1.27Zm-10.76,0a1.26,1.26,0,0,0-1.26-1.27,1.27,1.27,0,0,0,0,2.53A1.26,1.26,0,0,0,15.88,30.56Z" transform="translate(0 -0.26)" style="fill:#a1c6e9"/><path d="M26.78,21.59l.73,4.71-1,.47H13l-.53-.4.73-4.72c0-1.19,1.46-2.19,3.26-2.19h7C25.32,19.39,26.78,20.39,26.78,21.59Z" transform="translate(0 -0.26)" style="fill:#fff"/><rect x="6.71" y="7.51" width="26.58" height="3.32" style="fill:#a1c6e9"/><rect x="6.71" y="10.83" width="26.58" height="3.32" style="fill:#fff"/><rect x="6.71" y="4.19" width="26.58" height="3.32" style="fill:#fff"/><polygon points="39.14 0.86 39.14 4.19 36.61 4.19 33.29 4.19 6.71 4.19 3.39 4.19 0.93 4.19 0.93 0.86 39.14 0.86" style="fill:#a1c6e9"/><polygon points="36.61 4.19 36.61 39.07 33.29 39.07 33.29 14.15 33.29 10.83 33.29 7.51 33.29 4.19 36.61 4.19" style="fill:#a1c6e9"/><polygon points="6.71 14.15 6.71 39.07 3.39 39.07 3.39 4.19 6.71 4.19 6.71 7.51 6.71 10.83 6.71 14.15" style="fill:#a1c6e9"/><path d="M6.71,40.12a.88.88,0,0,1-.86-.86V14.41a.86.86,0,0,1,1.72,0V39.33A.86.86,0,0,1,6.71,40.12Z" transform="translate(0 -0.26)" style="fill:#2c80c3"/><path d="M3.39,40.12a.88.88,0,0,1-.87-.86V4.44a.87.87,0,0,1,1.73,0V39.33A.87.87,0,0,1,3.39,40.12Z" transform="translate(0 -0.26)" style="fill:#2c80c3"/><path d="M39.14,5.24H36.61a.87.87,0,0,1,0-1.73h1.66V1.92H1.73V3.58h5a.87.87,0,0,1,0,1.73H.86A.88.88,0,0,1,0,4.44V1.12A.87.87,0,0,1,.86.26H39.07a.87.87,0,0,1,.86.86V4.44A.86.86,0,0,1,39.14,5.24Z" transform="translate(0 -0.26)" style="fill:#2c80c3"/><path d="M6.71,8.56a.88.88,0,0,1-.86-.86V4.38a.88.88,0,0,1,.86-.87H33.29a.87.87,0,0,1,0,1.73H7.57V7.76A.86.86,0,0,1,6.71,8.56Z" transform="translate(0 -0.26)" style="fill:#2c80c3"/><path d="M6.71,11.88A.87.87,0,0,1,5.85,11V7.7a.88.88,0,0,1,.86-.87H33.29a.87.87,0,0,1,0,1.73H7.57v2.53A.86.86,0,0,1,6.71,11.88Z" transform="translate(0 -0.26)" style="fill:#2c80c3"/><path d="M33.29,15.21H6.71a.88.88,0,0,1-.86-.87V11a.88.88,0,0,1,.86-.86H33.29a.86.86,0,1,1,0,1.72H7.57v1.67H33.36a.87.87,0,0,1,.86.86A.89.89,0,0,1,33.29,15.21Z" transform="translate(0 -0.26)" style="fill:#2c80c3"/><path d="M36.61,40.12a.88.88,0,0,1-.86-.86v-34H34.09V39.33a.87.87,0,0,1-1.73,0V4.44a.88.88,0,0,1,.86-.86h3.32a.88.88,0,0,1,.87.86V39.33A.77.77,0,0,1,36.61,40.12Z" transform="translate(0 -0.26)" style="fill:#2c80c3"/><path d="M16.08,40.12a.87.87,0,0,1-.86-.86V36.67a.86.86,0,1,1,1.72,0v2.59A.88.88,0,0,1,16.08,40.12Z" transform="translate(0 -0.26)" style="fill:#2c80c3"/><path d="M13.49,40.12a.88.88,0,0,1-.87-.86V36.67a.87.87,0,1,1,1.73,0v2.59A.88.88,0,0,1,13.49,40.12Z" transform="translate(0 -0.26)" style="fill:#2c80c3"/><path d="M26.51,40.12a.88.88,0,0,1-.86-.86V36.67a.87.87,0,1,1,1.73,0v2.59A.93.93,0,0,1,26.51,40.12Z" transform="translate(0 -0.26)" style="fill:#2c80c3"/><path d="M23.92,40.12a.87.87,0,0,1-.86-.86V36.67a.86.86,0,1,1,1.72,0v2.59A.92.92,0,0,1,23.92,40.12Z" transform="translate(0 -0.26)" style="fill:#2c80c3"/><path d="M26.51,37.53H12.89c-1.86,0-3.45-1.73-3.65-4a1.24,1.24,0,0,1,.2-.67.7.7,0,0,1,.59-.26.86.86,0,0,1,.4.13.86.86,0,0,1,.53.33A.8.8,0,0,1,11,34a2.17,2.17,0,0,0,1.86,1.79H27A2.15,2.15,0,0,0,28.9,34,.89.89,0,0,1,29,33a.65.65,0,0,1,.6-.27,1,1,0,0,1,.6,0,.76.76,0,0,1,.53.87c-.27,2.19-1.8,3.85-3.66,3.85l-.53.13Z" transform="translate(0 -0.26)" style="fill:#2c80c3"/><path d="M13,27.56a.89.89,0,0,1-.46-.13L12,27a.76.76,0,0,1-.34-.79v-.07l.74-4.65c.06-1.66,1.86-3,4.11-3h7c2.26,0,4.05,1.33,4.12,3l.73,4.65A.89.89,0,0,1,28,27l-.79.47a1.1,1.1,0,0,1-.4.13h-.2a.88.88,0,0,1-.87-.86.93.93,0,0,1,.8-.87l.07-.06-.67-4.12v-.13c0-.67-1.06-1.4-2.46-1.4h-7c-1.4,0-2.46.73-2.46,1.4v.13L13.36,26l.13.07a.79.79,0,0,1,.2,1.13A.74.74,0,0,1,13,27.56Z" transform="translate(0 -0.26)" style="fill:#2c80c3"/><path d="M28.11,35.07H11.76a3.59,3.59,0,0,1-2-.86c-.14-.07-.2-.2-.33-.27a.93.93,0,0,1-.27-.59V28.43a3.43,3.43,0,0,1,3.26-3,2.16,2.16,0,0,1,.59.13l.07.07.27.26h13l.87-.33a.89.89,0,0,1,.39-.06,3.42,3.42,0,0,1,3.26,3v4.91a.82.82,0,0,1-.27.6,1.63,1.63,0,0,1-.39.33,4.57,4.57,0,0,1-1.93.8C28.17,35.07,28.17,35.07,28.11,35.07ZM12,33.41H28.11A2.18,2.18,0,0,0,29.17,33V28.43a1.79,1.79,0,0,0-1.53-1.33l-.8.33a.57.57,0,0,1-.33.07H13a.76.76,0,0,1-.53-.2l-.2-.13c-.8.2-1.39.86-1.39,1.26V33A2.4,2.4,0,0,0,12,33.41Z" transform="translate(0 -0.26)" style="fill:#2c80c3"/><path d="M14.62,32.68a2.06,2.06,0,1,1,2.06-2.06A2.12,2.12,0,0,1,14.62,32.68Zm0-2.52a.4.4,0,1,0,.4.4A.43.43,0,0,0,14.62,30.16Z" transform="translate(0 -0.26)" style="fill:#2c80c3"/><path d="M25.38,32.68a2.06,2.06,0,1,1,2.06-2.06A2.07,2.07,0,0,1,25.38,32.68Zm0-2.52a.4.4,0,1,0,.4.4C25.85,30.36,25.65,30.16,25.38,30.16Z" transform="translate(0 -0.26)" style="fill:#2c80c3"/><path d="M39.14,40.12H.93a.86.86,0,0,1,0-1.72H39.14a.87.87,0,0,1,.86.86A1,1,0,0,1,39.14,40.12Z" transform="translate(0 -0.26)" style="fill:#2c80c3"/></g></svg>