<svg id="Layer_1" data-name="Layer 1" xmlns="http://www.w3.org/2000/svg" viewBox="0 0 24.12 20.55"><path d="M12,20.38c-.79,0-1.58,0-2.36-.05s-1.48-.08-2.19-.14-1.37-.14-2-.23-1.2-.19-1.73-.3-1-.23-1.44-.36a8.17,8.17,0,0,1-1.1-.43,2.64,2.64,0,0,1-.72-.48.92.92,0,0,1-.28-.6.88.88,0,0,1,.28-.6,2.65,2.65,0,0,1,.72-.49,8.17,8.17,0,0,1,1.1-.43.15.15,0,0,1,.19.11.15.15,0,0,1-.1.19,7.53,7.53,0,0,0-1,.4,2.52,2.52,0,0,0-.64.43.49.49,0,0,0,0,.77,2.52,2.52,0,0,0,.64.43,7.53,7.53,0,0,0,1,.4,14.35,14.35,0,0,0,1.41.36c.52.11,1.1.21,1.71.3s1.29.16,2,.22S8.93,20,9.68,20c1.54.07,3.14.07,4.68,0,.75,0,1.48-.08,2.18-.14s1.36-.14,2-.22,1.19-.19,1.72-.3,1-.23,1.41-.36a7.53,7.53,0,0,0,1.05-.4,2.52,2.52,0,0,0,.64-.43.49.49,0,0,0,0-.77,2.52,2.52,0,0,0-.64-.43,8.05,8.05,0,0,0-1.05-.4.15.15,0,0,1-.1-.19.15.15,0,0,1,.19-.11,8.74,8.74,0,0,1,1.1.43,2.65,2.65,0,0,1,.72.49.88.88,0,0,1,.28.6.9.9,0,0,1-.28.6,2.64,2.64,0,0,1-.72.48,8.17,8.17,0,0,1-1.1.43c-.42.13-.91.25-1.44.36s-1.11.21-1.73.3-1.3.17-2,.23-1.45.11-2.2.14S12.81,20.38,12,20.38Z" transform="translate(0.04 -2.7)" style="fill:#2c80c3"/><path d="M23.44,18.28a2.76,2.76,0,0,1-.68.46,8.53,8.53,0,0,1-1.08.41c-.42.13-.89.25-1.42.36s-1.1.21-1.72.3-1.29.16-2,.22-1.43.11-2.19.15-1.55.05-2.35.05-1.59,0-2.35-.05S8.18,20.1,7.48,20s-1.36-.13-2-.22-1.19-.19-1.72-.3a14.6,14.6,0,0,1-1.42-.36,8.53,8.53,0,0,1-1.08-.41,2.76,2.76,0,0,1-.68-.46.76.76,0,0,1-.24-.49v2.62a.76.76,0,0,0,.24.49,2.76,2.76,0,0,0,.68.46,8.53,8.53,0,0,0,1.08.41,14.6,14.6,0,0,0,1.42.36c.53.11,1.1.21,1.72.3s1.29.16,2,.22,1.43.11,2.19.15,1.54.05,2.35.05,1.59,0,2.35-.05,1.49-.08,2.19-.15,1.36-.13,2-.22,1.19-.19,1.72-.3,1-.23,1.42-.36a8.53,8.53,0,0,0,1.08-.41,2.76,2.76,0,0,0,.68-.46.74.74,0,0,0,.23-.49V17.79A.74.74,0,0,1,23.44,18.28Z" transform="translate(0.04 -2.7)" style="fill:#a1c6e9"/><path d="M12,23c-.8,0-1.59,0-2.36-.05s-1.48-.08-2.19-.14-1.36-.14-2-.23-1.2-.19-1.73-.3-1-.23-1.44-.36a7,7,0,0,1-1.1-.43A2.89,2.89,0,0,1,.49,21a.9.9,0,0,1-.28-.6V17.79a.16.16,0,0,1,.15-.16.16.16,0,0,1,.16.16.55.55,0,0,0,.19.38,2.52,2.52,0,0,0,.64.43,7.53,7.53,0,0,0,1,.4c.41.13.89.25,1.41.36s1.1.21,1.71.3,1.29.16,2,.22S8.93,20,9.68,20c1.54.07,3.14.07,4.68,0,.75,0,1.48-.08,2.18-.14s1.36-.14,2-.22,1.19-.19,1.72-.3,1-.23,1.41-.36a7.53,7.53,0,0,0,1.05-.4,2.52,2.52,0,0,0,.64-.43.6.6,0,0,0,.19-.38.16.16,0,0,1,.15-.16.16.16,0,0,1,.16.16v2.62a.9.9,0,0,1-.28.6,2.89,2.89,0,0,1-.72.48,8.74,8.74,0,0,1-1.1.43c-.42.13-.91.25-1.44.36s-1.11.21-1.73.3-1.3.17-2,.23-1.45.11-2.2.14S12.82,23,12,23ZM.52,18.41v2a.55.55,0,0,0,.19.38,2.52,2.52,0,0,0,.64.43,7.53,7.53,0,0,0,1,.4c.41.13.89.25,1.41.36s1.1.21,1.71.3,1.29.16,2,.22,1.43.11,2.18.14c1.52.07,3.16.07,4.68,0,.75,0,1.48-.08,2.18-.14s1.35-.14,2-.22,1.19-.19,1.72-.3,1-.23,1.41-.36a8.05,8.05,0,0,0,1.05-.4,2.52,2.52,0,0,0,.64-.43.6.6,0,0,0,.19-.38v-2a2.75,2.75,0,0,1-.69.46,8.17,8.17,0,0,1-1.1.43c-.42.13-.91.25-1.44.36s-1.11.21-1.73.3-1.3.17-2,.23-1.45.11-2.2.14c-1.54.07-3.16.07-4.71,0-.75,0-1.48-.08-2.19-.14s-1.37-.14-2-.23-1.2-.19-1.73-.3-1-.23-1.44-.36a8.17,8.17,0,0,1-1.1-.43A2.58,2.58,0,0,1,.52,18.41Zm22.92-.13Z" transform="translate(0.04 -2.7)" style="fill:#2c80c3;stroke:#2d80c3;stroke-miterlimit:10;stroke-width:0.5px"/><path d="M2.55,16a1.25,1.25,0,0,1-.51-.1,1.12,1.12,0,0,1-.4-.28,1.15,1.15,0,0,1-.28-.41,1.24,1.24,0,0,1-.1-.5V11a3.4,3.4,0,0,1,0-.45,3.69,3.69,0,0,1,.11-.45,2.47,2.47,0,0,1,.17-.42,2.3,2.3,0,0,1,.23-.4l.76-1.08a.19.19,0,0,1,.31.21L2.1,9.52a3.79,3.79,0,0,0-.2.34,2.87,2.87,0,0,0-.15.37,2.74,2.74,0,0,0-.09.39,2.69,2.69,0,0,0,0,.4v3.7a.84.84,0,0,0,.07.35,1,1,0,0,0,.2.3,1,1,0,0,0,.29.2,1,1,0,0,0,.36.07.18.18,0,0,1,.18.19A.18.18,0,0,1,2.55,16Z" transform="translate(0.04 -2.7)" style="fill:#2c80c3;stroke:#2d80c3;stroke-miterlimit:10;stroke-width:0.5px"/><path d="M22.6,8.51H21.32a.18.18,0,0,1-.18-.19.18.18,0,0,1,.18-.18H22.6a.84.84,0,0,0,.83-.84.83.83,0,0,0-.83-.83H21.39L19.46,8a2.61,2.61,0,0,1-1.6.55H6.18A2.61,2.61,0,0,1,4.58,8L2.65,6.47H1.44a.83.83,0,0,0-.83.83.84.84,0,0,0,.83.84H2.72a.18.18,0,0,1,.18.18.18.18,0,0,1-.18.19H1.44a1.21,1.21,0,0,1,0-2.42H2.72a.15.15,0,0,1,.11,0l2,1.53a2.22,2.22,0,0,0,1.37.48H17.86a2.22,2.22,0,0,0,1.37-.48l2-1.53a.15.15,0,0,1,.11,0H22.6a1.21,1.21,0,0,1,0,2.42Z" transform="translate(0.04 -2.7)" style="fill:#2c80c3;stroke:#2d80c3;stroke-miterlimit:10;stroke-width:0.5px"/><path d="M16.4,16H7.64a.19.19,0,1,1,0-.37H16.4a.19.19,0,1,1,0,.37Z" transform="translate(0.04 -2.7)" style="fill:#2c80c3;stroke:#2d80c3;stroke-miterlimit:10;stroke-width:0.5px"/><path d="M21.49,16a.18.18,0,0,1-.18-.18.18.18,0,0,1,.18-.19,1,1,0,0,0,.36-.07,1,1,0,0,0,.29-.2,1.37,1.37,0,0,0,.2-.29,1.15,1.15,0,0,0,.07-.36V11a2.69,2.69,0,0,0,0-.4,2.74,2.74,0,0,0-.09-.39,2.87,2.87,0,0,0-.15-.37,2.39,2.39,0,0,0-.21-.34l-.76-1.09a.18.18,0,0,1,0-.26.17.17,0,0,1,.25.05l.77,1.08a3.18,3.18,0,0,1,.23.4,2.47,2.47,0,0,1,.17.42,2.42,2.42,0,0,1,.1.45,2.28,2.28,0,0,1,0,.45v3.7a1.24,1.24,0,0,1-.1.5,1.3,1.3,0,0,1-.28.41,1.15,1.15,0,0,1-.41.28A1.21,1.21,0,0,1,21.49,16Z" transform="translate(0.04 -2.7)" style="fill:#2c80c3;stroke:#2d80c3;stroke-miterlimit:10;stroke-width:0.5px"/><path d="M5.61,18.16H3.29a.93.93,0,0,1-.93-.93v-1.4a.18.18,0,0,1,.19-.19H3.9a.19.19,0,1,1,0,.37H2.73v1.22a.56.56,0,0,0,.56.56H5.61a.56.56,0,0,0,.56-.56v-1.4a.19.19,0,0,1,.19-.19.18.18,0,0,1,.18.19v1.4A.93.93,0,0,1,5.61,18.16Z" transform="translate(0.04 -2.7)" style="fill:#2c80c3;stroke:#2d80c3;stroke-miterlimit:10;stroke-width:0.5px"/><path d="M20.75,18.16H18.42a.93.93,0,0,1-.93-.93v-1.4a.19.19,0,0,1,.38,0v1.4a.56.56,0,0,0,.55.56h2.33a.57.57,0,0,0,.56-.56V16H20.14a.18.18,0,0,1-.19-.18.18.18,0,0,1,.19-.19h1.35a.19.19,0,0,1,.19.19v1.4A.93.93,0,0,1,20.75,18.16Z" transform="translate(0.04 -2.7)" style="fill:#2c80c3;stroke:#2d80c3;stroke-miterlimit:10;stroke-width:0.5px"/><path d="M5.21,14H3a.18.18,0,0,1-.18-.19A.18.18,0,0,1,3,13.61H5a1.66,1.66,0,0,0-1.64-1.48H1.44A.18.18,0,0,1,1.26,12a.18.18,0,0,1,.18-.19H3.37a2,2,0,0,1,2,2A.18.18,0,0,1,5.21,14Z" transform="translate(0.04 -2.7)" style="fill:#2c80c3;stroke:#2d80c3;stroke-miterlimit:10;stroke-width:0.5px"/><path d="M21.05,14H18.83a.18.18,0,0,1-.18-.19,2,2,0,0,1,2-2h1.92a.18.18,0,0,1,.19.19.18.18,0,0,1-.19.18H20.67A1.66,1.66,0,0,0,19,13.61h2a.18.18,0,0,1,.19.18A.18.18,0,0,1,21.05,14Z" transform="translate(0.04 -2.7)" style="fill:#2c80c3;stroke:#2d80c3;stroke-miterlimit:10;stroke-width:0.5px"/><path d="M17.46,10.85H6.58a.19.19,0,0,1-.12,0L5.34,9.93a.18.18,0,1,1,.22-.29l1.08.83H17.4l1.07-.83a.19.19,0,0,1,.23.29l-1.13.88A.15.15,0,0,1,17.46,10.85Z" transform="translate(0.04 -2.7)" style="fill:#2c80c3;stroke:#2d80c3;stroke-miterlimit:10;stroke-width:0.5px"/><path d="M18.51,4.32a2.66,2.66,0,0,0-1-.87,2.7,2.7,0,0,0-1.28-.32H7.79A2.8,2.8,0,0,0,5.53,4.32L5,5.12,3.64,7l1.05.81a2.44,2.44,0,0,0,1.49.51H17.86a2.46,2.46,0,0,0,1.49-.51l1-.81L19.08,5.12Z" transform="translate(0.04 -2.7)" style="fill:#a1c6e9;stroke:#2d80c3;stroke-miterlimit:10;stroke-width:0.5px"/><path d="M17.86,8.51H6.18A2.61,2.61,0,0,1,4.58,8L3.53,7.15a.19.19,0,0,1,0-.26L5.38,4.21A2.91,2.91,0,0,1,7.79,3h8.45a2.91,2.91,0,0,1,2.42,1.26l1.89,2.68a.2.2,0,0,1,0,.26L19.46,8A2.61,2.61,0,0,1,17.86,8.51ZM3.9,7l.91.7a2.22,2.22,0,0,0,1.37.48H17.86a2.22,2.22,0,0,0,1.37-.48l.91-.7L18.36,4.42h0a2.59,2.59,0,0,0-.93-.81,2.55,2.55,0,0,0-1.19-.29H7.79a2.61,2.61,0,0,0-1.19.29,2.65,2.65,0,0,0-.92.81Z" transform="translate(0.04 -2.7)" style="fill:#2c80c3;stroke:#2d80c3;stroke-miterlimit:10;stroke-width:0.5px"/></svg>