<svg id="Layer_1" data-name="Layer 1" xmlns="http://www.w3.org/2000/svg" viewBox="0 0 50 37.06"><g id="F533_military_vehicle_van" data-name="F533, military, vehicle, van"><path d="M34.81,7.2v8.3H3.74l-5.31-4.19H-12.95V6.21c0-.49.5-.82,1.16-.82H4.66l3.15,5.1H14l7.31-4.11H33.73C34.22,6.38,34.81,6.71,34.81,7.2Z" transform="translate(14.11 5.02)" style="fill:#a1c6e9"/><path d="M34.81,15.5V22c0,.49-.5.82-1.17.82H30.32a6.23,6.23,0,0,0-5.9-4.11,6.29,6.29,0,0,0-5.89,4.11H3.24a6.22,6.22,0,0,0-5.89-4.11,6.31,6.31,0,0,0-5.9,4.11h-3.32c-.67,0-1.16-.41-1.16-.82V11.31H-1.66L3.66,15.5Z" transform="translate(14.11 5.02)" style="fill:#a1c6e9"/><path d="M-.33,22.82A3.07,3.07,0,0,1,.5,24.88,3.14,3.14,0,0,1-2.65,28a3.07,3.07,0,0,1-3.08-3.13,3.12,3.12,0,0,1,.83-2.06,3.16,3.16,0,0,1,2.33-1.07A2.83,2.83,0,0,1-.33,22.82Z" transform="translate(14.11 5.02)" style="fill:#fff"/><path d="M24.42,27.92a3.14,3.14,0,0,1-3.15-3.12,3.16,3.16,0,0,1,6.31,0A3.25,3.25,0,0,1,24.42,27.92Z" transform="translate(14.11 5.02)" style="fill:#fff"/><path d="M24.42,27.92a3.14,3.14,0,0,0,3.16-3.12,3.16,3.16,0,0,0-6.31.08A3.12,3.12,0,0,0,24.42,27.92Zm0-9.21a6.31,6.31,0,0,1,5.9,4.11,5.64,5.64,0,0,1,.33,2.06,6.23,6.23,0,0,1-12.46,0,8.07,8.07,0,0,1,.34-2.06A6.11,6.11,0,0,1,24.42,18.71Z" transform="translate(14.11 5.02)" style="fill:#fff"/><path d="M.5,24.88a3.07,3.07,0,0,0-.83-2.06,3.12,3.12,0,0,0-2.32-1.07A3.13,3.13,0,0,0-5,22.82a3.07,3.07,0,0,0-.83,2.06A3.14,3.14,0,0,0-2.65,28,3.2,3.2,0,0,0,.5,24.88Zm2.74-2.06a5.64,5.64,0,0,1,.34,2.06,6.25,6.25,0,0,1-6.23,6.17,6.24,6.24,0,0,1-6.23-6.17,8.07,8.07,0,0,1,.33-2.06,6.23,6.23,0,0,1,5.9-4.11A6.11,6.11,0,0,1,3.24,22.82Z" transform="translate(14.11 5.02)" style="fill:#fff"/><path d="M4.82,6.38a.59.59,0,0,1-.33-.09A1,1,0,0,1,3.83,5l2.9-9.3A1,1,0,0,1,8.06-5a1,1,0,0,1,.67,1.31L5.82,5.64A1,1,0,0,1,4.82,6.38Z" transform="translate(14.11 5.02)" style="fill:#2c80c3"/><path d="M8,9.34a1.19,1.19,0,0,1-.83-.41,1.06,1.06,0,0,1,.16-1.48l4.41-3.62A1.07,1.07,0,0,1,13.21,4,1.05,1.05,0,0,1,13,5.47L8.64,9.09A1.13,1.13,0,0,1,8,9.34Z" transform="translate(14.11 5.02)" style="fill:#2c80c3"/><path d="M13.79,7.86a.92.92,0,0,1-.83-.5L10.05,3a1,1,0,0,1,.25-1.39,1,1,0,0,1,1.42.24l2.9,4.36a1,1,0,0,1-.25,1.4A.76.76,0,0,1,13.79,7.86Z" transform="translate(14.11 5.02)" style="fill:#2c80c3"/><path d="M26.5,7.36a1.09,1.09,0,0,1-1.08-1.07V2.35a4.28,4.28,0,0,0-1.91,1.07,4.14,4.14,0,0,0-1.25,2.87,1.08,1.08,0,0,1-2.16,0,6.13,6.13,0,0,1,1.83-4.35A6.21,6.21,0,0,1,26.33.13,1.09,1.09,0,0,1,27.41,1.2V6.38A.92.92,0,0,1,26.5,7.36Z" transform="translate(14.11 5.02)" style="fill:#2c80c3"/><path d="M34.81,16.49a1.09,1.09,0,0,1-1.08-1.07V7.36H21.52l-7.06,4a1.29,1.29,0,0,1-.5.17H7.73a1.14,1.14,0,0,1-.91-.5L4,6.38H-12v4.85A1.09,1.09,0,0,1-13,12.3a1.09,1.09,0,0,1-1.08-1.07V6.13a2.06,2.06,0,0,1,2.24-1.89H4.66a1.14,1.14,0,0,1,.91.49L8.39,9.34h5.4l7.06-3.95a1.24,1.24,0,0,1,.5-.17H33.64a2.08,2.08,0,0,1,2.25,1.9v8.3A1.16,1.16,0,0,1,34.81,16.49Z" transform="translate(14.11 5.02)" style="fill:#2c80c3"/><path d="M33.56,23.81H30.24a1.07,1.07,0,1,1,0-2.14h3.49V16.41h-30a.91.91,0,0,1-.66-.25l-5-3.94H-12v9.45h3.49a1.1,1.1,0,0,1,1.08,1.07,1.09,1.09,0,0,1-1.08,1.07h-3.32A2.07,2.07,0,0,1-14,21.92V11.23a1.09,1.09,0,0,1,1.08-1.07H-1.57a.91.91,0,0,1,.66.25l5,3.94H34.72a1.1,1.1,0,0,1,1.08,1.07v6.5A2.06,2.06,0,0,1,33.56,23.81Z" transform="translate(14.11 5.02)" style="fill:#2c80c3"/><path d="M18.53,23.81H3.24a1.07,1.07,0,1,1,0-2.14H18.53a1.07,1.07,0,1,1,0,2.14Z" transform="translate(14.11 5.02)" style="fill:#2c80c3"/><path d="M-2.57,32A7.28,7.28,0,0,1-9.88,24.8a7.6,7.6,0,0,1,.42-2.39,7.17,7.17,0,0,1,6.89-4.77,7.08,7.08,0,0,1,6.81,4.77,7.6,7.6,0,0,1,.42,2.39A7.21,7.21,0,0,1-2.57,32Zm0-12.33a5.28,5.28,0,0,0-4.9,3.45,6.22,6.22,0,0,0-.33,1.73,5.23,5.23,0,0,0,5.23,5.18,5.18,5.18,0,0,0,5.23-5.18,4.25,4.25,0,0,0-.33-1.73A5.28,5.28,0,0,0-2.57,19.7Z" transform="translate(14.11 5.02)" style="fill:#2c80c3"/><path d="M-2.57,29a4.09,4.09,0,0,1-4.15-4.11,4.1,4.1,0,0,1,1.08-2.71,4,4,0,0,1,3.07-1.4A4,4,0,0,1,.5,22.17a4.1,4.1,0,0,1,1.08,2.71A4.2,4.2,0,0,1-2.57,29Zm0-6.17a2.3,2.3,0,0,0-1.58.66,2.24,2.24,0,0,0-.5,1.4,2.06,2.06,0,0,0,2.08,2.06A2.06,2.06,0,0,0-.49,24.88a2.24,2.24,0,0,0-.5-1.4A2.46,2.46,0,0,0-2.57,22.82Z" transform="translate(14.11 5.02)" style="fill:#2c80c3"/><path d="M24.42,32a7.28,7.28,0,0,1-7.31-7.23,7.6,7.6,0,0,1,.42-2.39,7.3,7.3,0,0,1,13.7,0,7.6,7.6,0,0,1,.42,2.39A7.21,7.21,0,0,1,24.42,32Zm0-12.33a5.28,5.28,0,0,0-4.9,3.45,6.61,6.61,0,0,0-.33,1.73,5.24,5.24,0,0,0,10.47,0,4.27,4.27,0,0,0-.34-1.73A5.27,5.27,0,0,0,24.42,19.7Z" transform="translate(14.11 5.02)" style="fill:#2c80c3"/><path d="M24.42,29a4.09,4.09,0,0,1-4.15-4.11,4.15,4.15,0,0,1,1.08-2.71,4.08,4.08,0,0,1,6.15,0,4.15,4.15,0,0,1,1.08,2.71A4.2,4.2,0,0,1,24.42,29Zm0-6.17a2.26,2.26,0,0,0-1.57.66,2.19,2.19,0,0,0-.5,1.4,2.08,2.08,0,0,0,4.15,0,2.24,2.24,0,0,0-.5-1.4A2.46,2.46,0,0,0,24.42,22.82Z" transform="translate(14.11 5.02)" style="fill:#2c80c3"/><path d="M34.81,32H-12.95A1.09,1.09,0,0,1-14,31a1.09,1.09,0,0,1,1.08-1.07H34.81A1.09,1.09,0,0,1,35.89,31,1.24,1.24,0,0,1,34.81,32Z" transform="translate(14.11 5.02)" style="fill:#2c80c3"/></g></svg>