<svg id="Layer_1" data-name="Layer 1" xmlns="http://www.w3.org/2000/svg" xmlns:xlink="http://www.w3.org/1999/xlink" viewBox="0 0 24 20.14"><defs><linearGradient id="linear-gradient" x1="3.28" y1="4.15" x2="9.7" y2="10.57" gradientUnits="userSpaceOnUse"><stop offset="0" stop-color="#71cfea"/><stop offset="1" stop-color="#467fc1"/></linearGradient><linearGradient id="linear-gradient-2" x1="18.61" y1="14.76" x2="21.79" y2="17.94" xlink:href="#linear-gradient"/><linearGradient id="linear-gradient-3" x1="2.21" y1="14.76" x2="5.39" y2="17.94" xlink:href="#linear-gradient"/></defs><path d="M6.49,2.82A4.54,4.54,0,1,0,11,7.36,4.55,4.55,0,0,0,6.49,2.82Z" transform="translate(0 -1.32)" style="fill:url(#linear-gradient)"/><circle cx="20.2" cy="16.35" r="2.24" style="fill:url(#linear-gradient-2)"/><circle cx="3.8" cy="16.35" r="2.24" style="fill:url(#linear-gradient-3)"/><path d="M3.8,20.24a2.58,2.58,0,1,1,2.58-2.58A2.59,2.59,0,0,1,3.8,20.24Zm0-4.58a2,2,0,1,0,2,2A2,2,0,0,0,3.8,15.66Z" transform="translate(0 -1.32)" style="fill:#3650a3"/><path d="M19.42,11.36h-2.1a.29.29,0,0,1-.27-.18l-.62-1.43a.29.29,0,0,1,0-.27.28.28,0,0,1,.24-.13H18a1.72,1.72,0,0,1,1.72,1.72A.29.29,0,0,1,19.42,11.36Zm-1.91-.58h1.58A1.13,1.13,0,0,0,18,9.93h-.86Z" transform="translate(0 -1.32)" style="fill:#3650a3"/><path d="M20.2,20.24a2.58,2.58,0,1,1,2.58-2.58A2.59,2.59,0,0,1,20.2,20.24Zm0-4.58a2,2,0,1,0,2,2A2,2,0,0,0,20.2,15.66Z" transform="translate(0 -1.32)" style="fill:#3650a3"/><path d="M20.2,21.46a3.77,3.77,0,0,1-1.48-.3,3.84,3.84,0,0,1-2-2,3.8,3.8,0,0,1,0-3A4,4,0,0,1,17.51,15a.3.3,0,0,1,.41,0,.28.28,0,0,1,0,.41,3.45,3.45,0,0,0-.69,1A3.28,3.28,0,0,0,17,17.66a3.32,3.32,0,0,0,.25,1.25A3.2,3.2,0,0,0,19,20.63a3.28,3.28,0,0,0,2.5,0,3.45,3.45,0,0,0,1-.69,3.27,3.27,0,0,0,.69-1,3.14,3.14,0,0,0,.25-1.25,3.1,3.1,0,0,0-.25-1.25,3.2,3.2,0,0,0-1.72-1.72,3.1,3.1,0,0,0-1.25-.25.29.29,0,0,1,0-.58,3.8,3.8,0,0,1,3.5,5.28,3.64,3.64,0,0,1-.81,1.2,3.81,3.81,0,0,1-1.21.82A3.77,3.77,0,0,1,20.2,21.46Z" transform="translate(0 -1.32)" style="fill:#3650a3"/><path d="M3.8,21.46a3.77,3.77,0,0,1-1.48-.3,3.81,3.81,0,0,1-1.21-.82,3.64,3.64,0,0,1-.81-1.2,3.8,3.8,0,0,1,3.5-5.28.29.29,0,0,1,0,.58,3.1,3.1,0,0,0-1.25.25A3.2,3.2,0,0,0,.83,16.41a3.1,3.1,0,0,0-.25,1.25,3.14,3.14,0,0,0,.25,1.25,3.27,3.27,0,0,0,.69,1,3.45,3.45,0,0,0,1,.69,3.28,3.28,0,0,0,2.5,0,3.45,3.45,0,0,0,1-.69,3.45,3.45,0,0,0,.69-1A3.32,3.32,0,0,0,7,17.66a3.28,3.28,0,0,0-.25-1.25,3.45,3.45,0,0,0-.69-1,.28.28,0,0,1,0-.41.3.3,0,0,1,.41,0,4,4,0,0,1,.81,1.21,3.79,3.79,0,0,1-.81,4.16,3.81,3.81,0,0,1-1.21.82A3.77,3.77,0,0,1,3.8,21.46Z" transform="translate(0 -1.32)" style="fill:#3650a3"/><path d="M20.2,18a.28.28,0,0,1-.26-.18L16,8.78H14.26a.29.29,0,0,1,0-.58h1.93a.3.3,0,0,1,.27.17l4,9.17a.29.29,0,0,1-.15.38A.27.27,0,0,1,20.2,18Z" transform="translate(0 -1.32)" style="fill:#3650a3"/><path d="M11.32,12.56H10.24a.28.28,0,0,1-.29-.28.29.29,0,0,1,.29-.29h1l1.09-1.09a3.61,3.61,0,0,1,2.58-1.07h.52a.29.29,0,0,1,0,.58h-.52a3,3,0,0,0-2.17.9l-1.17,1.17A.32.32,0,0,1,11.32,12.56Z" transform="translate(0 -1.32)" style="fill:#3650a3"/><path d="M18.41,13.86H9.29A.29.29,0,0,1,9,13.57a.28.28,0,0,1,.29-.28h9.12a.28.28,0,0,1,.29.28A.29.29,0,0,1,18.41,13.86Z" transform="translate(0 -1.32)" style="fill:#3650a3"/><path d="M14.76,18.81H12.25a.27.27,0,0,1-.2-.09L7.68,14.35a.29.29,0,0,1,.41-.41l4.28,4.29h2.18l.93-2.57H12.16a.29.29,0,0,1,0-.58h3.73a.27.27,0,0,1,.24.12.31.31,0,0,1,0,.26L15,18.62A.29.29,0,0,1,14.76,18.81Z" transform="translate(0 -1.32)" style="fill:#3650a3"/><path d="M6.09,18H3.8a.3.3,0,0,1-.27-.41l.85-1.95a.29.29,0,0,1,.38-.15.3.3,0,0,1,.15.38l-.67,1.55H6.09c.16,0,.06.13.06.29S6.25,18,6.09,18Z" transform="translate(0 -1.32)" style="fill:#3650a3"/><path d="M15.3,17.3H13a.29.29,0,0,1,0-.58H15.3a.29.29,0,0,1,0,.58Z" transform="translate(0 -1.32)" style="fill:#3650a3"/><path d="M9.38,18H7.31a.29.29,0,1,1,0-.58H9.38a.29.29,0,0,1,0,.58Z" transform="translate(0 -1.32)" style="fill:#3650a3"/><path d="M6.49,12.48a5.12,5.12,0,1,1,5.12-5.12A5.13,5.13,0,0,1,6.49,12.48Zm0-9.66A4.54,4.54,0,1,0,11,7.36,4.55,4.55,0,0,0,6.49,2.82Z" transform="translate(0 -1.32)" style="fill:#3650a3"/><path d="M2.16,3.23a.29.29,0,0,1-.2-.5A6.26,6.26,0,0,1,4.12,1.34a.29.29,0,0,1,.38.16.3.3,0,0,1-.17.38,5.75,5.75,0,0,0-2,1.27A.32.32,0,0,1,2.16,3.23Z" transform="translate(0 -1.32)" style="fill:#3650a3"/><path d="M6.42,13.83h0A6.34,6.34,0,0,1,4,13.32a6.42,6.42,0,0,1-2.13-1.44A6.24,6.24,0,0,1,.45,9.72,6.42,6.42,0,0,1,.51,4.85.29.29,0,0,1,.88,4.7.29.29,0,0,1,1,5.08,5.75,5.75,0,0,0,.58,7.29,6,6,0,0,0,1,9.51a5.88,5.88,0,0,0,1.28,2A5.82,5.82,0,0,0,4.2,12.79a6,6,0,0,0,2.22.46.29.29,0,0,1,.29.29A.3.3,0,0,1,6.42,13.83Z" transform="translate(0 -1.32)" style="fill:#3650a3"/><path d="M8.22,10.08A.26.26,0,0,1,8.05,10L6.49,8.89,4.93,10a.3.3,0,0,1-.34,0,.28.28,0,0,1-.11-.32l.6-1.84L3.52,6.73a.28.28,0,0,1-.11-.32.29.29,0,0,1,.28-.2H5.62l.6-1.84a.29.29,0,0,1,.27-.2h0a.29.29,0,0,1,.28.2l.59,1.84H9.29a.29.29,0,0,1,.28.2.27.27,0,0,1-.11.32L7.9,7.87l.6,1.84a.27.27,0,0,1-.11.32A.26.26,0,0,1,8.22,10.08ZM4.58,6.79l1,.73a.32.32,0,0,1,.11.33L5.31,9l1-.74a.3.3,0,0,1,.34,0l1,.74L7.29,7.85a.3.3,0,0,1,.1-.33l1-.73H7.15a.29.29,0,0,1-.27-.2L6.49,5.4,6.1,6.59a.28.28,0,0,1-.27.2Z" transform="translate(0 -1.32)" style="fill:#fff"/></svg>