<svg id="Layer_1" data-name="Layer 1" xmlns="http://www.w3.org/2000/svg" viewBox="0 0 24 20.21"><path d="M6.76,5.89V2.2C7.45,2.2,8,3,8,4S7.45,5.89,6.76,5.89Z" transform="translate(0 -1.89)" style="fill:#28a8e0"/><rect x="5.96" y="0.3" width="0.8" height="3.69" style="fill:#c3e3f7"/><path d="M21.12,11.94A5,5,0,0,1,22.5,13.6a7.53,7.53,0,0,1,.64,1.67,2.21,2.21,0,0,0,.65-1.67C23.79,12.69,21.77,12,21.12,11.94Z" transform="translate(0 -1.89)" style="fill:#1d76bb"/><path d="M7.05,17.36c0,2.46-1.35,4.44-3,4.44s-3-2-3-4.44a6,6,0,0,1,.4-2.22h1.8a3,3,0,0,1,2.61,2.22Z" transform="translate(0 -1.89)" style="fill:#c6c6c5"/><path d="M6.27,17.36H5.82a3,3,0,0,0-2.61-2.22H2.38a4.19,4.19,0,0,0-.59,2.22c0,1.82,1,3.29,2.24,3.29s2.24-1.47,2.24-3.29Z" transform="translate(0 -1.89)" style="fill:#fff"/><path d="M5.11,17.36C5.11,18.24,4.63,19,4,19S3,18.24,3,17.36,3.43,15.77,4,15.77,5.11,16.48,5.11,17.36Z" transform="translate(0 -1.89)" style="fill:#28a8e0"/><path d="M4,19.25c-.71,0-1.29-.84-1.29-1.89S3.32,15.47,4,15.47s1.29.85,1.29,1.89S4.74,19.25,4,19.25Zm0-3.18c-.48,0-.87.58-.87,1.29s.39,1.29.87,1.29.88-.58.88-1.29S4.51,16.07,4,16.07Z" transform="translate(0 -1.89)" style="fill:#323031"/><path d="M20.6,11.62a3,3,0,0,0-1.37-.34c-2,0-3.69,2.12-4.06,4.92a5.9,5.9,0,0,0-.06.59c.06.33.26.57.5.57H9.82c-.12,0,2.86-1.67,3.94-3.45A12.57,12.57,0,0,0,15.4,9l.06-.51A7.75,7.75,0,0,1,20.6,11.62Z" transform="translate(0 -1.89)" style="fill:#c3e3f7"/><path d="M8,4.74v12A5.9,5.9,0,0,0,8,16.2c-.32-2.43-1.62-4.35-3.28-4.81A8.78,8.78,0,0,0,8,4.74Z" transform="translate(0 -1.89)" style="fill:#c3e3f7"/><path d="M23.35,16.79h0c-.06.33-.26.57-.5.57H15.61c-.24,0-.44-.24-.5-.57a5.9,5.9,0,0,1,.06-.59c.37-2.8,2-4.92,4.06-4.92s3.7,2.12,4.07,4.92h0C23.32,16.4,23.34,16.59,23.35,16.79Z" transform="translate(0 -1.89)" style="fill:#28a8e0"/><path d="M15.17,16.2a5.9,5.9,0,0,0-.06.59c.06.33.26.57.5.57h7.24c.24,0,.44-.24.5-.57h0c0-.2,0-.39-.05-.59h0A8.66,8.66,0,0,0,23,14.91H15.45A7.57,7.57,0,0,0,15.17,16.2Z" transform="translate(0 -1.89)" style="fill:#1d76bb"/><path d="M8,16.79c-.06.33-.26.57-.5.57H5.82a3,3,0,0,0-2.61-2.22H.5c-.16,0-.29-.19-.29-.43a.76.76,0,0,1,0-.15.49.49,0,0,0,0-.11C1,12.56,2.33,11.28,3.9,11.28c2,0,3.69,2.12,4.06,4.92A5.9,5.9,0,0,1,8,16.79Z" transform="translate(0 -1.89)" style="fill:#28a8e0"/><path d="M8,16.79A5.9,5.9,0,0,0,8,16.2a8.66,8.66,0,0,0-.28-1.29H.25c0,.14.14.23.25.23H3.21a3,3,0,0,1,2.61,2.22h1.7C7.76,17.36,8,17.12,8,16.79Z" transform="translate(0 -1.89)" style="fill:#1d76bb"/><path d="M19.23,21.8c1.67,0,3-2,3-4.44H16.21C16.21,19.82,17.56,21.8,19.23,21.8Z" transform="translate(0 -1.89)" style="fill:#c6c6c5"/><path d="M17.07,17.36c0,1.82,1,3.29,2.25,3.29s2.24-1.47,2.24-3.29H17.07Z" transform="translate(0 -1.89)" style="fill:#fff"/><path d="M19.23,19c.6,0,1.08-.71,1.08-1.59H18.15C18.15,18.24,18.64,19,19.23,19Z" transform="translate(0 -1.89)" style="fill:#28a8e0"/><path d="M19.23,18.55c-.44,0-.81-.53-.81-1.19,0-.06,0-.12.08-.12s.09.06.09.12c0,.53.29.95.64.95.05,0,.09.06.09.12S19.28,18.55,19.23,18.55Z" transform="translate(0 -1.89)" style="fill:#fff"/><path d="M19.23,22.11C17.45,22.11,16,20,16,17.36c0-.17.1-.3.21-.3h6.05c.11,0,.2.13.2.3a6,6,0,0,1-.94,3.36A2.83,2.83,0,0,1,19.23,22.11Zm-2.81-4.45c.11,2.15,1.33,3.84,2.81,3.84a2.47,2.47,0,0,0,2-1.21A5.17,5.17,0,0,0,22,17.66Z" transform="translate(0 -1.89)" style="fill:#323031"/><path d="M19.23,19.25c-.71,0-1.28-.85-1.28-1.89,0-.17.09-.3.2-.3h2.16c.12,0,.21.13.21.3C20.52,18.4,19.94,19.25,19.23,19.25Zm-.85-1.59c.09.57.44,1,.85,1s.76-.42.85-1Z" transform="translate(0 -1.89)" style="fill:#323031"/><path d="M15.61,17.66h0c-.32,0-.61-.32-.7-.79a.34.34,0,0,1,0-.1,6.2,6.2,0,0,1,.06-.62c.39-3,2.18-5.17,4.26-5.17s3.87,2.16,4.26,5.14a.09.09,0,0,1,0,.05c0,.19,0,.39.06.58a.66.66,0,0,1,0,.14c-.09.46-.37.77-.7.77Zm-.29-.9c0,.18.16.3.29.3h7.24c.13,0,.25-.12.29-.3s0-.34-.05-.5h0c-.36-2.7-2-4.67-3.86-4.67s-3.5,2-3.86,4.68C15.35,16.43,15.33,16.59,15.32,16.76Z" transform="translate(0 -1.89)" style="fill:#323031"/><path d="M20.8,14H17.66c-.11,0-.2-.13-.2-.3s.09-.3.2-.3H20.8c.12,0,.21.13.21.3S20.92,14,20.8,14Z" transform="translate(0 -1.89)" style="fill:#323031"/><path d="M21.57,15.22H16.89c-.11,0-.2-.14-.2-.31s.09-.3.2-.3h4.68c.12,0,.21.14.21.3S21.69,15.22,21.57,15.22Z" transform="translate(0 -1.89)" style="fill:#323031"/><path d="M23.14,15.57l-.08,0a.28.28,0,0,1-.12-.18,6.63,6.63,0,0,0-.6-1.58A4.63,4.63,0,0,0,21,12.21a.38.38,0,0,1-.1-.35.24.24,0,0,1,.21-.23c.34,0,2.87.62,2.87,2a2.54,2.54,0,0,1-.76,1.93A.14.14,0,0,1,23.14,15.57ZM22,12.48a5.57,5.57,0,0,1,.62.93,7.5,7.5,0,0,1,.57,1.39,2.1,2.1,0,0,0,.36-1.2C23.59,13.24,22.81,12.76,22,12.48Z" transform="translate(0 -1.89)" style="fill:#323031"/><path d="M4,22.11C2.25,22.11.8,20,.8,17.36A6.61,6.61,0,0,1,1.23,15a.22.22,0,0,1,.18-.15h1.8a3.19,3.19,0,0,1,2.73,2.22H7.05c.12,0,.21.13.21.3C7.26,20,5.81,22.11,4,22.11Zm-2.5-6.67a5.77,5.77,0,0,0-.32,1.92c0,2.28,1.27,4.14,2.82,4.14s2.71-1.69,2.81-3.84h-1a.19.19,0,0,1-.17-.15,2.87,2.87,0,0,0-2.44-2.07Z" transform="translate(0 -1.89)" style="fill:#323031"/><path d="M7.52,17.66H5.82a.19.19,0,0,1-.17-.15,2.87,2.87,0,0,0-2.44-2.07H.5c-.28,0-.5-.33-.5-.73a1.09,1.09,0,0,1,0-.26v0l0-.13C.85,12.25,2.31,11,3.9,11,6,11,7.77,13.15,8.16,16.15a6.2,6.2,0,0,1,.06.62.34.34,0,0,1,0,.1C8.13,17.34,7.84,17.66,7.52,17.66Zm-1.58-.6H7.52c.13,0,.24-.12.29-.3s0-.34,0-.5c-.36-2.71-2-4.68-3.86-4.68-1.44,0-2.77,1.16-3.46,3l0,.08v0c0,.07,0,.13.09.13H3.21A3.19,3.19,0,0,1,5.94,17.06Z" transform="translate(0 -1.89)" style="fill:#323031"/><path d="M6.76,6.19c-.11,0-.21-.13-.21-.3V2.2c0-.17.1-.31.21-.31.81,0,1.46,1,1.46,2.15S7.57,6.19,6.76,6.19ZM7,2.53v3A1.52,1.52,0,0,0,7.81,4,1.51,1.51,0,0,0,7,2.53Z" transform="translate(0 -1.89)" style="fill:#323031"/><path d="M6.76,6.19H6c-.11,0-.2-.13-.2-.3V2.2c0-.17.09-.31.2-.31h.8c.11,0,.21.14.21.31V5.89C7,6.06,6.87,6.19,6.76,6.19Zm-.59-.6h.38V2.5H6.17Z" transform="translate(0 -1.89)" style="fill:#323031"/><path d="M9.63,6.49a.17.17,0,0,1-.11,0l-2.27-2A.38.38,0,0,1,7.18,4c.06-.15.18-.19.28-.1l2.28,2a.38.38,0,0,1,.07.41A.21.21,0,0,1,9.63,6.49Z" transform="translate(0 -1.89)" style="fill:#323031"/><path d="M15.61,17.66H9.82c-.1,0-.19-.1-.21-.24s0-.3.4-.54a12.64,12.64,0,0,0,3.6-3.17A12.32,12.32,0,0,0,15.2,9c0-.18,0-.35.06-.5s.1-.27.21-.26a7.92,7.92,0,0,1,5.26,3.16.35.35,0,0,1,.08.24c0,.17-.09.3-.2.31l-.07,0a2.8,2.8,0,0,0-1.31-.33c-1.88,0-3.5,2-3.86,4.68,0,.16,0,.33,0,.5s.16.3.29.3.21.13.21.3S15.73,17.66,15.61,17.66Zm-4.86-.6H15a1.05,1.05,0,0,1-.05-.19.34.34,0,0,1,0-.1,6.2,6.2,0,0,1,.06-.62c.39-3,2.18-5.17,4.26-5.17a3,3,0,0,1,.52,0,7.38,7.38,0,0,0-4.12-2.18,1.13,1.13,0,0,1,0,.25,13,13,0,0,1-1.69,5A11.26,11.26,0,0,1,10.75,17.06Z" transform="translate(0 -1.89)" style="fill:#323031"/><path d="M10,17.66h-3c-.11,0-.2-.13-.2-.3s.09-.3.2-.3h3c.12,0,.21.13.21.3S10.15,17.66,10,17.66Z" transform="translate(0 -1.89)" style="fill:#323031"/><path d="M7.34,16.77h-1q-.12,0-.18-.15a3.31,3.31,0,0,0-2.82-2.07H1.39c-.11,0-.21-.13-.21-.3s.1-.3.21-.3H3.33a3.68,3.68,0,0,1,3.11,2.22h.9c.11,0,.2.13.2.3S7.45,16.77,7.34,16.77Z" transform="translate(0 -1.89)" style="fill:#323031"/><path d="M22.58,16.77h-6.7c-.11,0-.21-.13-.21-.3s.1-.3.21-.3h6.7c.12,0,.21.13.21.3S22.7,16.77,22.58,16.77Z" transform="translate(0 -1.89)" style="fill:#323031"/><path d="M14.7,8.82h-.38c-.49,0-.89-.58-.89-1.3s.4-1.31.89-1.31h4.14c.12,0,.21.14.21.3s-.09.31-.21.31H14.32c-.27,0-.48.31-.48.7s.21.7.48.7h.38c.11,0,.2.13.2.3S14.81,8.82,14.7,8.82Z" transform="translate(0 -1.89)" style="fill:#323031"/><path d="M19.61,8.82H18c-.11,0-.2-.13-.2-.3s.09-.3.2-.3h1.6c.26,0,.48-.32.48-.7s-.22-.7-.48-.7h-.38c-.11,0-.2-.14-.2-.31s.09-.3.2-.3h.38c.49,0,.89.59.89,1.31S20.1,8.82,19.61,8.82Z" transform="translate(0 -1.89)" style="fill:#323031"/><path d="M8,17.1c-.11,0-.2-.12-.21-.28s0-.38,0-.56c-.3-2.3-1.56-4.13-3.12-4.57a.3.3,0,0,1-.17-.26.36.36,0,0,1,.12-.31A8.53,8.53,0,0,0,7.81,4.74c0-.17.09-.3.21-.3s.2.13.2.3v12c0,.17-.08.3-.19.31Zm-2.8-5.82A5.44,5.44,0,0,1,7.81,14.6V7.34A9.31,9.31,0,0,1,5.22,11.28Z" transform="translate(0 -1.89)" style="fill:#323031"/><path d="M8,17.66a.18.18,0,0,1-.16-.11l-.13-.23a.41.41,0,0,1,0-.4.5.5,0,0,0,.08-.2c0-.15.12-.25.22-.23s.18.15.18.3v.57a.34.34,0,0,1-.13.29Z" transform="translate(0 -1.89)" style="fill:#323031"/><path d="M4,18.55c-.45,0-.81-.53-.81-1.19,0-.06,0-.12.08-.12s.08.06.08.12c0,.53.29.95.65.95,0,0,.08.06.08.12S4.08,18.55,4,18.55Z" transform="translate(0 -1.89)" style="fill:#fff"/></svg>