<svg id="Layer_1" data-name="Layer 1" xmlns="http://www.w3.org/2000/svg" viewBox="0 0 24 15.5"><path d="M20.23,17.43a.83.83,0,1,0-.81-.83A.82.82,0,0,0,20.23,17.43Z" transform="translate(0 -4.25)" style="fill:#1073b5"/><path d="M23.77,15.08A4.94,4.94,0,0,0,20,11.9c.21-.45.32-.75.33-.78l0-.11L19.6,7.68l.31-.27h0c.29,0,.53-.7.53-1.56s-.24-1.56-.53-1.57v0l-3.23,1v.42l-1.34.41.19.77L16.68,7v.31l1.24.61V8c-1.86.3-2.3,3-2.55,4.55,0,.33-.1.62-.14.79a.74.74,0,0,1-.56.56,1.24,1.24,0,0,1-.41,0H12.19l-.81-.1a2.72,2.72,0,0,1-.93-2L13.58,9.1h-.12a.33.33,0,0,0-.14-.27L12.13,7.7A1.9,1.9,0,0,0,11,7.27H8.35a.63.63,0,0,0-.65.61v.78a.58.58,0,0,0,.21.44h0A14.5,14.5,0,0,0,4,10.8c-2.6,1.62-4,3.82-4,6.36v.39H1.72a3.05,3.05,0,0,0,2.9,2.2,3.05,3.05,0,0,0,2.9-2.2h5.87a6.16,6.16,0,0,0,2.2-.63H17.2a3,3,0,1,0,5.92-1.28H24Zm-1-.24H18.84l-.59.63-.62.65h-.8c.16-.13.32-.26.48-.41a10.44,10.44,0,0,0,1.34-1.51l.32-.47c.25-.38.47-.75.65-1.08a4.08,4.08,0,0,1,1.22.34,4.2,4.2,0,0,1,1.95,1.85Zm-.27,1.76a2.25,2.25,0,0,1-4.49.29l1.19-1.26h3.1A2.37,2.37,0,0,1,22.48,16.6Zm-9.29.16H.8c.13-2.1,1.33-3.88,3.57-5.28A14.38,14.38,0,0,1,8,9.88h3.46L9.63,11.49l0,.2A3.45,3.45,0,0,0,11,14.53l.07.05,1,.12h2.21a2,2,0,0,0,.53-.07A1.54,1.54,0,0,0,16,13.52c0-.21.1-.5.16-.86.24-1.47.63-3.92,2.11-3.92h0l.4,0V7.41L17.47,6.8v-1l1.65-.51V7.06l-.39.34.8,3.56c-.06.15-.19.46-.38.86-.06.12-.12.25-.19.38s-.13.25-.21.38A12.58,12.58,0,0,1,18,13.75a8.51,8.51,0,0,1-2.09,2.07,4.33,4.33,0,0,1-.62.36,4,4,0,0,1-.56.25A5,5,0,0,1,13.19,16.76ZM4.62,19a2.27,2.27,0,0,1-2.07-1.41H6.68A2.25,2.25,0,0,1,4.62,19Z" transform="translate(0 -4.25)" style="fill:#1073b5"/><polygon points="6.32 9.74 6.98 9.74 6.98 8.95 4.48 8.95 4.48 9.2 4.48 9.6 4.48 9.74 5.47 9.74 6.32 9.74" style="fill:#1073b5"/><polygon points="6.56 10.47 5.99 10.47 3.71 10.47 3.71 11.26 6.62 11.26 7.05 11.26 7.47 11.26 7.74 11.26 7.74 10.47 7.06 10.47 6.56 10.47" style="fill:#1073b5"/></svg>