<svg id="Layer_1" data-name="Layer 1" xmlns="http://www.w3.org/2000/svg" viewBox="0 0 30.52 24.73"><path d="M26.34,23.46c0,.3-6.46.54-14.44.54s-14.44-.24-14.44-.54,6.47-.55,14.44-.55S26.34,23.16,26.34,23.46Z" transform="translate(3.19 0.43)" style="fill:#1e5d73;opacity:0.2"/><path d="M26,19.34a3.94,3.94,0,1,1-3.94-3.93A3.93,3.93,0,0,1,26,19.34Z" transform="translate(3.19 0.43)" style="fill:#42525e;stroke:#36444d;stroke-miterlimit:10;stroke-width:2.04184px"/><path d="M24.25,19.34a2.2,2.2,0,1,1-2.2-2.19A2.19,2.19,0,0,1,24.25,19.34Z" transform="translate(3.19 0.43)" style="fill:#b4bbba;stroke:#36444d;stroke-miterlimit:10;stroke-width:1.64677px"/><path d="M23.32,19.34a1.27,1.27,0,1,1-1.27-1.27A1.27,1.27,0,0,1,23.32,19.34Z" transform="translate(3.19 0.43)" style="fill:#fcfadb;stroke:#5d8d9b;stroke-miterlimit:10;stroke-width:1.5313800000000002px"/><path d="M6.61,19.34a3.93,3.93,0,1,1-3.93-3.93A3.93,3.93,0,0,1,6.61,19.34Z" transform="translate(3.19 0.43)" style="fill:#42525e;stroke:#36444d;stroke-miterlimit:10;stroke-width:2.04184px"/><path d="M4.87,19.34a2.19,2.19,0,1,1-2.19-2.19A2.19,2.19,0,0,1,4.87,19.34Z" transform="translate(3.19 0.43)" style="fill:#b4bbba;stroke:#36444d;stroke-miterlimit:10;stroke-width:1.64677px"/><path d="M4,19.34a1.27,1.27,0,1,1-1.27-1.27A1.27,1.27,0,0,1,4,19.34Z" transform="translate(3.19 0.43)" style="fill:#fcfadb;stroke:#699baf;stroke-miterlimit:10;stroke-width:1.5313800000000002px"/><path d="M1.39,13.51H-.8l-1,1.13H.28A12.06,12.06,0,0,1,1.39,13.51Z" transform="translate(3.19 0.43)" style="fill:#e48642;stroke:#cc7e48;stroke-linejoin:round;stroke-width:1.5789600000000001px"/><path d="M.33,14.64H-1.81v.71H-.3A4.19,4.19,0,0,1,.33,14.64Z" transform="translate(3.19 0.43)" style="fill:#dd4942;stroke:#c6423f;stroke-linejoin:round;stroke-width:1.5789600000000001px"/><path d="M17.75,4.71c0,.09,0,.16-.05.18h0c-.07,0-.14,0-.16-.13l-.74-3.21c0-.09,0-.17.08-.19h0c.07,0,.11,0,.13.13Z" transform="translate(3.19 0.43)" style="fill:#452a1c;stroke:#3b2217;stroke-miterlimit:10;stroke-width:0.7894789999999999px"/><path d="M16.71,1.12a.36.36,0,0,0-.19.13l.11.46a.28.28,0,0,0,.22,0,.32.32,0,0,0-.14-.62Z" transform="translate(3.19 0.43)" style="fill:#643c16;stroke:#3b2217;stroke-miterlimit:10;stroke-width:0.7894789999999999px"/><path d="M16.58,3.07,15.92.2a.06.06,0,0,1,0,0,2.65,2.65,0,0,0-.29,1.17,2,2,0,0,0,1,1.77S16.58,3.08,16.58,3.07Z" transform="translate(3.19 0.43)" style="fill:#e8d8aa;stroke:#c9b177;stroke-linecap:round;stroke-linejoin:round;stroke-width:1.18422px"/><polygon points="21.06 8.8 19.57 9.46 18.93 7.72 19.7 6.93 21.06 8.8" style="fill:#15898d"/><polygon points="21.06 8.8 19.57 9.46 18.93 7.72 19.7 6.93 21.06 8.8" style="fill:#fff;stroke:#5d8d9b;stroke-linecap:round;stroke-linejoin:round;stroke-width:1.5789600000000001px"/><polygon points="19.45 7.18 18.93 7.72 19.57 9.46 20.38 9.11 19.45 7.18" style="fill:#fff;stroke:#5d8d9b;stroke-linecap:round;stroke-linejoin:round;stroke-width:1.5789600000000001px"/><path d="M17.84,8.34,16.38,9c-.08.28,1.35,3.06,1.27,4.54A3.5,3.5,0,0,1,15,17.13a17.93,17.93,0,0,1-4.48.44c-.91,0-2.1-.4-1.19-2.14.66-1.26,1.62-1.95,1.56-2.29a1.65,1.65,0,0,1-.32.07H2a1.65,1.65,0,0,1-.32-.07c-.48.43-3.87,3.53-4.12,5.85,0,.25,0,.32.43.37H-.46s2-2.49,3.74-2.49a4.06,4.06,0,0,1,4,3.39c.09,0,1,0,1.54,0,5.42,0,5.54-.06,7.24-.9a5.23,5.23,0,0,0,3.42-3.93C19.75,13.31,19.43,9.25,17.84,8.34Z" transform="translate(3.19 0.43)" style="fill:#71beea;stroke:#5d8d9b;stroke-miterlimit:10;stroke-width:0.7894789999999999px"/><path d="M15.93,19.42H7.08c0,.17.2.63.23.81H9.36C13.49,20.33,14.76,20.12,15.93,19.42Z" transform="translate(3.19 0.43)" style="fill:#fff;stroke:#5d8d9b;stroke-linecap:round;stroke-linejoin:round;stroke-width:1.5789600000000001px"/><path d="M17.84,8.34,16.35,9c.06.27,1.38,3,1.3,4.53A3.5,3.5,0,0,1,15,17.13a17.93,17.93,0,0,1-4.48.44c-.91,0-2.1-.4-1.19-2.14.66-1.26,1.62-1.92,1.56-2.27a1.21,1.21,0,0,1-.32.11H2a1.7,1.7,0,0,1-.32-.1C1.24,13.6-2.15,16.68-2.4,19c0,.24,0,.31.43.35H-.46s2-2.49,3.74-2.49a4.06,4.06,0,0,1,4,3.39c.09,0,1,0,1.54,0,5.42,0,5.54-.06,7.24-.9a5.23,5.23,0,0,0,3.42-3.93C19.75,13.31,19.43,9.25,17.84,8.34Z" transform="translate(3.19 0.43)" style="fill:none;stroke:#5c8b99;stroke-linecap:round;stroke-linejoin:round;stroke-width:1.5789600000000001px"/><path d="M18.79,9.48a12.4,12.4,0,0,1,.77,5.24h0a3.82,3.82,0,0,1,2-.61,2.24,2.24,0,0,0-.94-1.55,3.93,3.93,0,0,1-1.39-2.2,5.44,5.44,0,0,0-.55-1l.06.11Z" transform="translate(3.19 0.43)" style="fill:#fff;stroke:#5d8d9b;stroke-linecap:round;stroke-linejoin:round;stroke-width:1.5789600000000001px"/><path d="M18.29,4.28c-1.4.17-2.44,1-2.33,2s1.33,1.52,2.73,1.35a4.21,4.21,0,0,0,.74-.17,4.51,4.51,0,0,0,.05-1.6A4.36,4.36,0,0,0,19,4.27,3.78,3.78,0,0,0,18.29,4.28Z" transform="translate(3.19 0.43)" style="fill:#fcfadb;stroke:#5d8d9b;stroke-linecap:round;stroke-linejoin:round;stroke-width:1.18422px"/><path d="M19,4.27a4.36,4.36,0,0,1,.44,1.56,4.24,4.24,0,0,1-.05,1.59,2.59,2.59,0,0,0,.8-1.22C20.4,5.56,20.19,4.74,19,4.27Z" transform="translate(3.19 0.43)" style="fill:#e48642;stroke:#cc7e48;stroke-miterlimit:10;stroke-width:1.18422px"/><path d="M-2,19.33l9.72.06s1.82-3.18,0-4.59C6.43,13.77.87,13.09-2,19.33Z" transform="translate(3.19 0.43)" style="fill:#fff;stroke:#5d8d9b;stroke-linecap:round;stroke-linejoin:round;stroke-width:1.5789600000000001px"/><path d="M19,4.27s0-.1-.23-.1-.22.09-.22.09a4.18,4.18,0,0,1,.47,1.63A4.34,4.34,0,0,1,19,7.55a.52.52,0,0,0,.25,0,.28.28,0,0,0,.18-.14,4.51,4.51,0,0,0,.05-1.6A4.36,4.36,0,0,0,19,4.27Z" transform="translate(3.19 0.43)" style="fill:#71beea;stroke:#5d8d9b;stroke-miterlimit:10;stroke-width:1.18422px"/><path d="M19,4.27s0-.1-.23-.1-.22.09-.22.09a4.18,4.18,0,0,1,.47,1.63A4.34,4.34,0,0,1,19,7.55a.52.52,0,0,0,.25,0,.28.28,0,0,0,.18-.14,4.51,4.51,0,0,0,.05-1.6A4.36,4.36,0,0,0,19,4.27Z" transform="translate(3.19 0.43)" style="fill:none;stroke:#699baf;stroke-miterlimit:10;stroke-width:1.18422px"/><path d="M17.06,6.91a.56.56,0,0,1-.56.56h-2A.56.56,0,0,1,14,6.91h0a.56.56,0,0,1,.57-.56h2a.56.56,0,0,1,.56.56Z" transform="translate(3.19 0.43)" style="fill:#71beea;stroke:#5d8d9b;stroke-miterlimit:10;stroke-width:1.18422px"/><path d="M22.69,17.52c.5,0,2.51-.08,3.85-.06A4.65,4.65,0,0,0,22,13.72a4.56,4.56,0,0,0-2.3.61c0,.24,0,.47-.06.68a5.35,5.35,0,0,1-2.29,3.5,4.82,4.82,0,0,0,.11.85,18.65,18.65,0,0,0,2.43-.1C20.94,19,22,17.57,22.69,17.52Z" transform="translate(3.19 0.43)" style="fill:#fff;stroke:#5d8d9b;stroke-linecap:round;stroke-linejoin:round;stroke-width:1.5789600000000001px"/><path d="M17.84,8.34l-.67.29a13.18,13.18,0,0,1,1.52,5.23c0,1.61-.18,3.11-2.6,5.47a5.53,5.53,0,0,0,3.64-4.12C20.13,13.55,19.45,9.25,17.84,8.34Z" transform="translate(3.19 0.43)" style="fill:#fff;stroke:#5d8d9b;stroke-linecap:round;stroke-linejoin:round;stroke-width:1.5789600000000001px"/><path d="M11.59,12c0,.64-.33,1.35-1,1.35H2A1.52,1.52,0,0,1,.66,12v0c0-.65.72-1,1.38-1H10.6a.89.89,0,0,1,1,1Z" transform="translate(3.19 0.43)" style="fill:#e8d8aa;stroke:#c9b177;stroke-miterlimit:10;stroke-width:1.9737px"/><path d="M2,10.86a1.32,1.32,0,0,0-1.24.76A1.37,1.37,0,0,0,2,12.47H10.6a1,1,0,0,0,1-.81,1.05,1.05,0,0,0-1-.8Z" transform="translate(3.19 0.43)" style="fill:#e8d8aa;stroke:#c9b177;stroke-miterlimit:10;stroke-width:1.9737px"/><path d="M16.92,3a.14.14,0,0,1-.12.19h0a.17.17,0,0,1-.22-.11L15.92.2A.14.14,0,0,1,16,0h0a.16.16,0,0,1,.22.11Z" transform="translate(3.19 0.43)" style="fill:#71beea;stroke:#5d8d9b;stroke-miterlimit:10;stroke-width:0.7894789999999999px"/></svg>