<svg id="Layer_1" data-name="Layer 1" xmlns="http://www.w3.org/2000/svg" viewBox="0 0 24 20.05"><g id="F585_Car_cargo_ship_transport_vessel" data-name="F585, Car, cargo, ship, transport, vessel"><path d="M17,4.14v2.4H11.53l-1-4h4.88A1.58,1.58,0,0,1,17,4.14Z" transform="translate(0 -1.98)" style="fill:#fff"/><path d="M10.53,2.54l1,4H8V4.14a1.6,1.6,0,0,1,1.6-1.6Z" transform="translate(0 -1.98)" style="fill:#fff"/><path d="M18.53,6.54a2.5,2.5,0,1,1,0,5h-12a2.5,2.5,0,1,1,0-5h12Z" transform="translate(0 -1.98)" style="fill:#a1c6e9"/><path d="M17,11.54A1.48,1.48,0,1,1,15.53,13,1.48,1.48,0,0,1,17,11.54Z" transform="translate(0 -1.98)" style="fill:#fff"/><path d="M8.53,11.54A1.48,1.48,0,1,1,7.05,13,1.48,1.48,0,0,1,8.53,11.54Z" transform="translate(0 -1.98)" style="fill:#fff"/><path d="M17,14.54h6.52l-2.8,5.64a2.5,2.5,0,0,1-2.24,1.36H5.17A2.47,2.47,0,0,1,2.88,20L.52,14.54H17ZM12.53,18a.52.52,0,1,0-.52.52A.53.53,0,0,0,12.53,18ZM9,18a.52.52,0,1,0-.52.52A.53.53,0,0,0,9,18ZM5.53,18a.52.52,0,1,0-.52.52A.53.53,0,0,0,5.53,18Z" transform="translate(0 -1.98)" style="fill:#a1c6e9"/><path d="M17,18.54a.53.53,0,0,1-.52-.52V14.5a.52.52,0,0,1,1,0V18A.53.53,0,0,1,17,18.54Z" transform="translate(0 -1.98)" style="fill:#2c80c3"/><path d="M16,19.54A1.52,1.52,0,0,1,14.49,18a.52.52,0,0,1,1,0,.52.52,0,1,0,1,0,.52.52,0,0,1,1,0A1.65,1.65,0,0,1,16,19.54Z" transform="translate(0 -1.98)" style="fill:#2c80c3"/><path d="M18,19.54A1.52,1.52,0,0,1,16.49,18a.52.52,0,0,1,1,0,.52.52,0,0,0,1,0,.52.52,0,0,1,1,0A1.65,1.65,0,0,1,18,19.54Z" transform="translate(0 -1.98)" style="fill:#2c80c3"/><path d="M5,19a1,1,0,1,1,1-1A1,1,0,0,1,5,19Z" transform="translate(0 -1.98)" style="fill:#2c80c3"/><path d="M8.53,19a1,1,0,1,1,1-1A1,1,0,0,1,8.53,19Z" transform="translate(0 -1.98)" style="fill:#2c80c3"/><path d="M12,19a1,1,0,1,1,1-1A1,1,0,0,1,12,19Z" transform="translate(0 -1.98)" style="fill:#2c80c3"/><path d="M18.45,22H5.17a3,3,0,0,1-2.77-1.8L0,14.74a.51.51,0,0,1,0-.48A.44.44,0,0,1,.48,14h23a.55.55,0,0,1,.44.24.67.67,0,0,1,0,.48l-2.8,5.64A3.06,3.06,0,0,1,18.45,22ZM1.24,15l2,4.8A2,2,0,0,0,5.13,21H18.45a2,2,0,0,0,1.8-1.12L22.69,15Z" transform="translate(0 -1.98)" style="fill:#2c80c3"/><path d="M18.53,12h-12a3,3,0,0,1,0-6H8.05A.5.5,0,1,1,8,7H6.49a1.88,1.88,0,0,0-1.4.6A2,2,0,0,0,4.49,9a2,2,0,0,0,2,2h12a1.88,1.88,0,0,0,1.4-.6,2,2,0,0,0,.6-1.4,2,2,0,0,0-2-2H17a.52.52,0,1,1,0-1h1.52a3,3,0,0,1,0,6Z" transform="translate(0 -1.98)" style="fill:#2c80c3"/><path d="M8.53,15a2,2,0,1,1,2-2A2,2,0,0,1,8.53,15Zm0-3a1,1,0,1,0,1,1A1,1,0,0,0,8.53,12Z" transform="translate(0 -1.98)" style="fill:#2c80c3"/><path d="M17,15a2,2,0,1,1,2-2A2,2,0,0,1,17,15Zm0-3a1,1,0,1,0,1,1A1,1,0,0,0,17,12Z" transform="translate(0 -1.98)" style="fill:#2c80c3"/><path d="M17,7H8a.53.53,0,0,1-.52-.52V4.1A2.13,2.13,0,0,1,9.61,2h5.8A2.13,2.13,0,0,1,17.53,4.1V6.5A.53.53,0,0,1,17,7ZM8.53,6h8V4.1A1.12,1.12,0,0,0,15.41,3H9.61A1.12,1.12,0,0,0,8.49,4.1V6Z" transform="translate(0 -1.98)" style="fill:#2c80c3"/><path d="M11.49,7A.48.48,0,0,1,11,6.66l-1-4a.49.49,0,1,1,1-.24l1,4a.47.47,0,0,1-.36.6Z" transform="translate(0 -1.98)" style="fill:#2c80c3"/></g></svg>