<svg id="Layer_1" data-name="Layer 1" xmlns="http://www.w3.org/2000/svg" viewBox="0 0 24 23.8"><g id="D528_Avatar_body_description_human_profile" data-name="D528, Avatar, body, description, human, profile"><path d="M22.44,2.19h-4.8A1.14,1.14,0,0,0,16.52,3.3V10a1.14,1.14,0,0,0,1.12,1.11H22.4A1.14,1.14,0,0,0,23.52,10V3.3A1.08,1.08,0,0,0,22.44,2.19Z" transform="translate(0 -0.17)" style="fill:#acc5e7"/><path d="M20,4.17a1,1,0,1,1-1,1A1,1,0,0,1,20,4.17Z" transform="translate(0 -0.17)" style="fill:#fff"/><path d="M7.56,23.5H3V17.55H.52V11.1a3,3,0,0,1,3-3h8a3,3,0,0,1,3,3v6.45H12V23.5Z" transform="translate(0 -0.17)" style="fill:#acc5e7"/><path d="M7.56.72a3,3,0,0,1,3,3,3,3,0,0,1-6,0A3,3,0,0,1,7.56.72Z" transform="translate(0 -0.17)" style="fill:#fff"/><path d="M12,24H3a.53.53,0,0,1-.52-.51V18h-2A.53.53,0,0,1,0,17.52V11.1A3.47,3.47,0,0,1,3.48,7.65h8A3.47,3.47,0,0,1,15,11.1v6.45a.53.53,0,0,1-.52.52h-2v5.47C12.56,23.73,12.32,24,12,24ZM3.56,23h8V17.55a.53.53,0,0,1,.52-.51h2V11.1A2.48,2.48,0,0,0,11.6,8.64H3.52A2.48,2.48,0,0,0,1,11.1V17H3a.53.53,0,0,1,.52.51Z" transform="translate(0 -0.17)" style="fill:#4f7fc1"/><path d="M7.56,7.14a3.49,3.49,0,1,1,3.52-3.49A3.51,3.51,0,0,1,7.56,7.14Zm0-5.94a2.5,2.5,0,1,0,2.52,2.49A2.52,2.52,0,0,0,7.56,1.2Z" transform="translate(0 -0.17)" style="fill:#4f7fc1"/><path d="M7.56,24A.53.53,0,0,1,7,23.46V18a.52.52,0,0,1,1,0V23.5A.59.59,0,0,1,7.56,24Z" transform="translate(0 -0.17)" style="fill:#4f7fc1"/><path d="M22.44,11.61h-4.8A1.59,1.59,0,0,1,16,10V3.3a1.6,1.6,0,0,1,1.6-1.59H22.4A1.6,1.6,0,0,1,24,3.3V10A1.57,1.57,0,0,1,22.44,11.61ZM17.64,2.7a.59.59,0,0,0-.6.6V10a.61.61,0,0,0,.6.59H22.4A.61.61,0,0,0,23,10V3.3a.62.62,0,0,0-.6-.6Z" transform="translate(0 -0.17)" style="fill:#4f7fc1"/><path d="M20,6.66a1.51,1.51,0,1,1,1.52-1.5A1.51,1.51,0,0,1,20,6.66Zm0-2a.53.53,0,0,0-.52.52.52.52,0,0,0,1,0A.5.5,0,0,0,20,4.68Z" transform="translate(0 -0.17)" style="fill:#4f7fc1"/><path d="M21.56,9.63h-3A.52.52,0,0,1,18,9.12a.53.53,0,0,1,.52-.52h3a.53.53,0,0,1,.52.52A.58.58,0,0,1,21.56,9.63Z" transform="translate(0 -0.17)" style="fill:#4f7fc1"/></g></svg>