<?xml version="1.0" encoding="utf-8"?>
<!-- Generator: Adobe Illustrator 25.4.1, SVG Export Plug-In . SVG Version: 6.00 Build 0)  -->
<svg version="1.1" id="Layer_1" xmlns="http://www.w3.org/2000/svg" xmlns:xlink="http://www.w3.org/1999/xlink" x="0px" y="0px"
	 viewBox="0 0 24 22.5" style="enable-background:new 0 0 24 22.5;" xml:space="preserve">
<style type="text/css">
	.st0{fill:#D1E87E;}
	.st1{fill:#FFFFFF;}
	.st2{fill:#2E81C3;}
</style>
<g id="_658_car_transport_parking">
	<path class="st0" d="M13.7,2.6h-3.4C9.6,2.6,9,3.1,9,3.9v3.9c0,0.7,0.6,1.3,1.3,1.3h3.4c0.7,0,1.3-0.6,1.3-1.3V3.9
		C15,3.2,14.4,2.6,13.7,2.6z"/>
	<path class="st1" d="M7.2,2.3C7.4,2.5,7.5,2.8,7.5,3c0,0.6-0.4,1-1,1H4C3.8,4,3.5,3.9,3.3,3.8C3.1,3.6,3,3.3,3.1,3
		c0-0.2,0-0.4,0.1-0.5H2c-0.3,0-0.5-0.1-0.7-0.3C1.1,2.1,1,1.8,1,1.5c0-0.6,0.4-1,1-1h2c0.3,0,0.5,0.1,0.7,0.3C4.9,1,5,1.3,5,1.5
		c0,0.2,0,0.4-0.1,0.5h1.6C6.8,2.1,7,2.1,7.2,2.3z"/>
	<path class="st1" d="M20.9,3.5c0.6,0,1,0.4,1,1l0,0c0,0.3-0.1,0.5-0.3,0.7c-0.2,0.2-0.4,0.3-0.7,0.3h-2c-0.6,0-1-0.4-1-1l0,0
		c0-0.3,0.1-0.5,0.3-0.7c0.2-0.2,0.5-0.3,0.7-0.3L20.9,3.5z"/>
	<path class="st1" d="M23.4,8.5V13h-6.5l1.3-2.8c0.5-1,1.5-1.7,2.6-1.7L23.4,8.5L23.4,8.5z"/>
	<path class="st1" d="M15.2,15c0.4,0,0.8,0.3,0.8,0.8l0,0c0,0.4-0.3,0.7-0.7,0.7c0,0,0,0,0,0h-1.8c0-0.5,0.1-1,0.3-1.5H15.2z"/>
	<path class="st1" d="M10.5,16.5H8.7c-0.4,0-0.8-0.3-0.8-0.7c0,0,0,0,0,0l0,0C8,15.3,8.3,15,8.7,15c0,0,0,0,0,0h1.4
		C10.4,15.4,10.5,16,10.5,16.5z"/>
	<path class="st1" d="M5.8,10.2L7,13H0.6V8.5h2.6C4.3,8.5,5.3,9.2,5.8,10.2z"/>
	<path class="st2" d="M13.5,17c-0.3,0-0.5-0.2-0.5-0.5c0-0.6,0.1-1.2,0.4-1.7c0.1-0.3,0.4-0.4,0.7-0.2c0.2,0.1,0.3,0.4,0.2,0.7
		C14.1,15.6,14,16,14,16.4C14,16.7,13.8,16.9,13.5,17z"/>
	<path class="st2" d="M16.9,13.5c-0.1,0-0.1,0-0.2,0c-0.2-0.1-0.3-0.4-0.2-0.6c0,0,0,0,0,0l0,0l1.2-2.7c0.5-1.2,1.8-2,3.1-2h2.6
		c0.3,0,0.5,0.2,0.5,0.5v4.5c0,0.3-0.2,0.5-0.5,0.6c-0.3,0-0.5-0.2-0.6-0.5V9.1h-2.1c-0.9,0-1.8,0.6-2.2,1.4l-1.2,2.6
		C17.3,13.4,17.2,13.5,16.9,13.5z"/>
	<path class="st2" d="M23.4,15.5h-4.5c-0.3-0.1-0.4-0.4-0.4-0.6c0-0.2,0.2-0.3,0.4-0.4h4.5c0.3,0,0.5,0.2,0.5,0.5
		C23.9,15.3,23.7,15.5,23.4,15.5z"/>
	<path class="st2" d="M10.5,17c-0.3,0-0.5-0.3-0.5-0.5l0,0c0-0.4-0.1-0.9-0.3-1.3c-0.1-0.2,0-0.5,0.2-0.6c0.3-0.1,0.5,0,0.7,0.2
		c0.2,0.5,0.4,1.1,0.4,1.7C11,16.7,10.8,16.9,10.5,17z"/>
	<path class="st2" d="M7,13.5c-0.2,0-0.4-0.1-0.4-0.3l-1.3-2.8C4.9,9.6,4.1,9,3.1,9H1v4c0,0.3-0.2,0.5-0.5,0.5C0.2,13.5,0,13.3,0,13
		V8.5C0,8.2,0.2,8,0.5,8h2.6c1.3,0,2.6,0.8,3.1,2l1.3,2.8c0.1,0.2,0,0.5-0.2,0.6c0,0,0,0,0,0l0,0C7.1,13.4,7.1,13.5,7,13.5z"/>
	<path class="st2" d="M5,15.5H0.6c-0.3,0.1-0.6-0.1-0.6-0.4c-0.1-0.3,0.1-0.6,0.4-0.6c0.1,0,0.2,0,0.3,0h4.5c0.3,0,0.5,0.2,0.5,0.5
		C5.5,15.3,5.3,15.5,5,15.5z"/>
	<path class="st2" d="M12,21.9c-0.3,0-0.5-0.2-0.5-0.5V9c-0.1-0.3,0.1-0.6,0.4-0.6c0.3-0.1,0.6,0.1,0.6,0.4c0,0.1,0,0.2,0,0.3l0,0
		v12.5C12.4,21.7,12.2,21.9,12,21.9z"/>
	<path class="st2" d="M13.7,9.5h-3.4c-1,0-1.8-0.8-1.8-1.7c0,0,0,0,0,0l0,0V3.8c0-1,0.8-1.8,1.8-1.8c0,0,0,0,0,0h3.4
		c1,0,1.8,0.8,1.8,1.8c0,0,0,0,0,0l0,0v3.9C15.5,8.7,14.7,9.5,13.7,9.5z M10.3,3C9.9,3,9.5,3.4,9.5,3.8v3.9c0,0.4,0.4,0.8,0.8,0.8
		h3.4c0.4,0,0.8-0.4,0.8-0.8V3.8c0-0.4-0.4-0.8-0.8-0.8H10.3z"/>
	<path class="st2" d="M21.9,22.4H2c-0.3,0.1-0.6-0.1-0.6-0.4c-0.1-0.3,0.1-0.6,0.4-0.6c0.1,0,0.2,0,0.3,0h19.9
		c0.3-0.1,0.6,0.1,0.6,0.4s-0.1,0.6-0.4,0.6C22.1,22.5,22,22.5,21.9,22.4z"/>
	<path class="st2" d="M11,8c-0.3,0-0.5-0.2-0.5-0.5V6c0.1-0.3,0.4-0.4,0.6-0.4c0.2,0,0.3,0.2,0.4,0.4l0,0v1.5C11.5,7.8,11.2,8,11,8z
		"/>
	<path class="st2" d="M12.2,6.5H11c-0.3,0-0.5-0.2-0.5-0.5v0V4.5c0-0.3,0.2-0.5,0.5-0.5c0,0,0,0,0,0h1.3c0.7,0,1.2,0.6,1.2,1.3
		c0,0,0,0,0,0c0,0.3-0.1,0.6-0.3,0.8C12.9,6.4,12.6,6.6,12.2,6.5z M11.5,5.5h0.8c0.1,0,0.2,0,0.2-0.1c0,0,0.1-0.1,0.1-0.2
		c0-0.1-0.1-0.2-0.2-0.2h-0.8V5.5z"/>
	<path class="st2" d="M6.5,4.5H4c-0.4,0-0.8-0.1-1.1-0.4C2.6,3.9,2.5,3.5,2.5,3.1H2C1.6,3.1,1.2,2.9,1,2.6C0.7,2.3,0.5,1.9,0.5,1.5
		C0.5,0.7,1.2,0,2,0c0,0,0,0,0,0h2c0.4,0,0.8,0.1,1.1,0.4c0.3,0.3,0.4,0.7,0.4,1.1h1c0.4,0,0.8,0.2,1.1,0.4C7.9,2.2,8.1,2.6,8,3
		C8,3.8,7.4,4.5,6.5,4.5z M2,1C1.7,1,1.5,1.3,1.5,1.6c0,0.1,0.1,0.2,0.2,0.3C1.8,2,1.9,2,2,2h1.1c0.2,0,0.3,0.1,0.4,0.2
		c0.1,0.2,0.1,0.4,0,0.5C3.5,2.9,3.5,3,3.5,3c0,0.1,0.1,0.3,0.2,0.4C3.8,3.5,3.9,3.6,4,3.6h2.5c0.3,0,0.5-0.2,0.5-0.5
		c0-0.1-0.1-0.3-0.2-0.4C6.8,2.6,6.7,2.6,6.6,2.5H4.9c-0.2,0-0.3-0.1-0.4-0.2C4.4,2.1,4.4,2,4.5,1.8c0-0.1,0.1-0.2,0.1-0.2
		c0-0.1-0.1-0.3-0.2-0.4C4.3,1.1,4.2,1,4,1L2,1z"/>
	<path class="st2" d="M20.9,6h-2c-0.8,0-1.5-0.7-1.5-1.5c0,0,0,0,0,0l0,0c0-0.4,0.2-0.8,0.4-1.1C18.2,3.1,18.5,3,18.9,3h2
		c0.8,0,1.5,0.7,1.5,1.5l0,0c0,0.4-0.2,0.8-0.5,1.1C21.7,5.8,21.3,6,20.9,6z M18.9,4c-0.1,0-0.3,0.1-0.4,0.2
		c-0.1,0.1-0.2,0.2-0.2,0.4c0,0.3,0.2,0.5,0.5,0.5h2c0.3,0,0.5-0.2,0.5-0.5c0-0.3-0.2-0.5-0.5-0.5l0,0L18.9,4z"/>
	<path class="st1" d="M7.5,19.9L7.5,19.9c0-0.2-0.1-0.4-0.1-0.6c0,0,0-0.2-0.1-0.2s0-0.1-0.1-0.1l0,0c-0.3-0.6-1-1-1.7-1
		c-1.1,0-2,0.9-2,2s0.9,2,2,2c1.1,0,2-0.8,2-1.9c0,0,0,0,0-0.1L7.5,19.9C7.5,19.9,7.5,19.9,7.5,19.9z"/>
	<path class="st0" d="M0.6,15v-2H7c1.4,0,2.6,0.8,3.2,2H8.8C8.4,15,8,15.3,8,15.7l0,0c0,0.4,0.3,0.7,0.7,0.8h1.8
		c0,1.7-1.3,3.2-3,3.5c0-0.3-0.1-0.5-0.2-0.8c0,0-0.1-0.1-0.1-0.1l0,0c-0.4-0.6-1-1-1.8-1c-1.1,0-2,0.9-2,2v0h-3L0.6,15z"/>
	<path class="st2" d="M5.5,20.9c-0.6,0-1-0.4-1-1s0.4-1,1-1s1,0.4,1,1l0,0C6.5,20.5,6.1,20.9,5.5,20.9z"/>
	<path class="st2" d="M3.6,20.5h-3c-0.3,0-0.5-0.2-0.5-0.5v-7c0-0.3,0.2-0.5,0.5-0.5H7c1.5,0,2.9,0.9,3.6,2.2c0.1,0.1,0.1,0.3,0,0.5
		c-0.1,0.2-0.3,0.2-0.4,0.2H8.7c-0.1,0-0.2,0.1-0.2,0.2s0.1,0.2,0.2,0.2h1.8c0.3,0,0.5,0.2,0.5,0.5c0,1-0.4,1.9-1,2.6
		c-0.6,0.7-1.5,1.2-2.4,1.3c-0.3,0-0.5-0.2-0.5-0.4c0,0,0,0,0,0l0,0c0-0.2,0-0.3-0.1-0.5C6.8,19.2,6.9,19,7,18.8c0,0,0,0,0,0
		c0,0,0.1-0.1,0.1-0.1c0.3-0.1,0.5,0,0.6,0.3c0,0.1,0,0.2,0.1,0.2c0.5-0.2,1-0.5,1.4-0.9c0.4-0.4,0.6-0.9,0.7-1.5H8.7
		c-0.7-0.2-1.1-0.9-0.9-1.5C8,15,8.3,14.6,8.7,14.5h0.5c-0.6-0.6-1.4-1-2.2-1H1v6h2.5c0.3,0,0.5,0.2,0.5,0.5
		C4,20.3,3.8,20.4,3.6,20.5z"/>
	<path class="st2" d="M5.5,22.4c-1.4,0-2.5-1.1-2.5-2.5c0,0,0,0,0,0c0-1.4,1.1-2.5,2.4-2.5c0,0,0,0,0,0c0.2,0,0.4,0,0.6,0.1
		c1.3,0.4,2.1,1.8,1.7,3.2C7.4,21.6,6.5,22.4,5.5,22.4L5.5,22.4z M4,19.9c0,0.8,0.6,1.5,1.5,1.5c0,0,0,0,0,0l0,0
		C6.3,21.5,7,20.8,7,20c0,0,0,0,0,0c0-0.1,0-0.3,0-0.4v-0.1l-0.1-0.2c-0.1-0.2-0.2-0.3-0.4-0.5c-0.1-0.1-0.2-0.1-0.3-0.2
		c-0.1-0.1-0.3-0.1-0.4-0.1c-0.1,0-0.1,0-0.2,0c-0.8-0.1-1.5,0.4-1.6,1.2c0,0,0,0,0,0C4.1,19.9,4.1,19.9,4,19.9L4,19.9z"/>
	<path class="st1" d="M18,18c-0.5,0.1-1,0.4-1.3,0.9c0,0,0,0.1-0.1,0.1c-0.1,0.3-0.2,0.5-0.2,0.8l0,0l0,0c0,1.1,0.8,2,1.9,2
		c0,0,0,0,0,0c1.1,0,2-0.8,2-2c0-1.1-0.8-2-1.9-2C18.3,17.9,18.2,17.9,18,18L18,18z"/>
	<path class="st0" d="M23.4,15v5h-3c0-1.1-0.9-2-2-2c-0.2,0-0.3,0-0.5,0c-0.5,0.1-1,0.4-1.3,0.9c0,0,0,0.1-0.1,0.1
		c-0.1,0.3-0.2,0.5-0.2,0.8c-0.8-0.1-1.6-0.5-2.1-1.1c-0.6-0.6-0.9-1.4-0.9-2.3h1.8c0.4,0,0.8-0.3,0.8-0.8l0,0l0,0
		c0-0.4-0.3-0.7-0.7-0.8c0,0,0,0,0,0h-1.5c0.6-1.2,1.8-2,3.2-2h6.4L23.4,15L23.4,15z"/>
	<path class="st2" d="M23.4,20.5h-3c-0.3,0-0.5-0.3-0.4-0.6c0-0.2,0.2-0.3,0.3-0.4c0,0,0.1,0,0.1,0H23v-6h-6c-0.9,0-1.7,0.4-2.2,1
		h0.5c0.7-0.1,1.4,0.3,1.5,1s-0.3,1.4-1,1.5c-0.2,0-0.4,0-0.5,0h-1.2c0.1,0.5,0.3,1.1,0.7,1.5c0.4,0.4,0.8,0.7,1.3,0.9
		c0-0.1,0-0.2,0.1-0.2c0.1-0.3,0.4-0.4,0.6-0.3c0.2,0.1,0.4,0.4,0.3,0.6c0,0,0,0,0,0l0,0c0,0.2-0.1,0.3-0.1,0.5
		c0,0.3-0.2,0.5-0.5,0.5h-0.1c-0.9-0.1-1.8-0.6-2.4-1.3c-0.6-0.7-1-1.7-1-2.6c0-0.3,0.2-0.5,0.5-0.5h1.8c0.1,0,0.2-0.1,0.2-0.2
		c0-0.1-0.1-0.2-0.2-0.2h-1.4c-0.2,0-0.3-0.1-0.4-0.2c-0.1-0.1-0.1-0.3,0-0.5c0.7-1.4,2-2.3,3.6-2.3h6.5c0.3,0,0.5,0.2,0.5,0.5
		c0,0,0,0,0,0v6.9C24,20.2,23.7,20.4,23.4,20.5z"/>
	<path class="st2" d="M18.5,22.4c-1.4,0-2.5-1.2-2.5-2.5c0,0,0,0,0,0c0-0.2,0-0.3,0.1-0.5c0.1-0.3,0.2-0.6,0.4-0.9
		c0.5-0.6,1.2-1,2-1c1.4,0,2.5,1.1,2.5,2.5S19.8,22.5,18.5,22.4L18.5,22.4z M17,19.7c-0.1,0.8,0.5,1.6,1.3,1.7
		c0.8,0.1,1.6-0.5,1.7-1.3c0.1-0.8-0.4-1.6-1.3-1.7c-0.1,0-0.3,0-0.5,0h-0.1C17.5,18.6,17.1,19.1,17,19.7z M18.1,18l0.1,0.5l0,0
		L18.1,18z"/>
	<path class="st2" d="M18.5,20.9c-0.6,0-1-0.4-1-1s0.4-1,1-1s1,0.4,1,1S19,20.9,18.5,20.9z"/>
</g>
</svg>
