<svg id="Layer_1" data-name="Layer 1" xmlns="http://www.w3.org/2000/svg" viewBox="0 0 23.5 24"><g id="_72_Pad_Lock_Security_Lock" data-name="72, Pad Lock, Security, Lock"><path d="M2.85,13.17A1.57,1.57,0,0,1,4.42,11.6H20.16a1.57,1.57,0,0,1,1.57,1.57v9a1.57,1.57,0,0,1-1.57,1.57H4.38a1.57,1.57,0,0,1-1.57-1.57C2.85,20.44,2.85,15.32,2.85,13.17Z" transform="translate(-0.25 -0.03)" style="fill:#fff"/><path d="M21.69,4.41a1.28,1.28,0,1,1,0,2.56,1.28,1.28,0,0,1,0-2.56Z" transform="translate(-0.25 -0.03)" style="fill:#a1c6e9"/><path d="M2.07,6.23A1.53,1.53,0,1,1,.54,7.76,1.53,1.53,0,0,1,2.07,6.23Z" transform="translate(-0.25 -0.03)" style="fill:#a1c6e9"/><path d="M14.46,16a2.34,2.34,0,0,1-1.28,2.07v1.28H11.11V18.09A2.27,2.27,0,0,1,9.83,16a2.32,2.32,0,0,1,4.63,0Z" transform="translate(-0.25 -0.03)" style="fill:#a1c6e9"/><path d="M19.62,10.65v1H4.92v-1a.83.83,0,0,1,.82-.83H18.79A.83.83,0,0,1,19.62,10.65Z" transform="translate(-0.25 -0.03)" style="fill:#a1c6e9"/><path d="M17.56,5.57V9.82H15.49V5.57a3.17,3.17,0,0,0-1-2.27A3.21,3.21,0,0,0,9.05,5.57V9.82H7V5.57A5.29,5.29,0,0,1,16,1.85,5.08,5.08,0,0,1,17.56,5.57Z" transform="translate(-0.25 -0.03)" style="fill:#fff"/><path d="M23.38,21.18a.38.38,0,0,1,0,.75.38.38,0,0,1,0-.75Z" transform="translate(-0.25 -0.03)" style="fill:#2c80c3"/><path d="M21.81,9.82a.38.38,0,0,1,0,.75.38.38,0,0,1,0-.75Z" transform="translate(-0.25 -0.03)" style="fill:#2c80c3"/><path d="M18.71,1.07a.36.36,0,0,1,.37.37.37.37,0,0,1-.37.37.38.38,0,0,1-.37-.37A.37.37,0,0,1,18.71,1.07Z" transform="translate(-0.25 -0.03)" style="fill:#2c80c3"/><path d="M5.58,1.07A.37.37,0,0,1,6,1.44a.38.38,0,0,1-.75,0A.37.37,0,0,1,5.58,1.07Z" transform="translate(-0.25 -0.03)" style="fill:#2c80c3"/><path d="M1.69,3.38a.38.38,0,0,1,.38.37.38.38,0,0,1-.75,0A.38.38,0,0,1,1.69,3.38Z" transform="translate(-0.25 -0.03)" style="fill:#2c80c3"/><path d="M.91,13.21a.38.38,0,0,1,0,.75.38.38,0,0,1,0-.75Z" transform="translate(-0.25 -0.03)" style="fill:#2c80c3"/><path d="M20.16,24H4.38a1.83,1.83,0,0,1-1.82-1.81v-9a1.84,1.84,0,0,1,1.82-1.82h.54a.27.27,0,0,1,.24.25.26.26,0,0,1-.24.25H4.38A1.29,1.29,0,0,0,3.1,13.13v9a1.29,1.29,0,0,0,1.28,1.28H20.12a1.29,1.29,0,0,0,1.28-1.28v-9a1.29,1.29,0,0,0-1.28-1.28h-.54a.27.27,0,0,1-.25-.25.28.28,0,0,1,.25-.25h.54a1.83,1.83,0,0,1,1.81,1.82v9.05A1.78,1.78,0,0,1,20.16,24Z" transform="translate(-0.25 -0.03)" style="fill:#2c80c3"/><path d="M19.62,11.89H4.92a.26.26,0,0,1-.25-.25v-1A1.08,1.08,0,0,1,5.74,9.58H18.79a1.09,1.09,0,0,1,1.08,1.07v1A.24.24,0,0,1,19.62,11.89ZM5.16,11.35H19.37v-.74a.56.56,0,0,0-.58-.58h-13a.57.57,0,0,0-.58.58Z" transform="translate(-0.25 -0.03)" style="fill:#2c80c3"/><path d="M17.56,10.07a.26.26,0,0,1-.25-.25V5.57A5,5,0,0,0,15.82,2,5,5,0,0,0,7.23,5.57V9.82a.25.25,0,0,1-.5,0V5.57a5.54,5.54,0,0,1,9.46-3.92A5.48,5.48,0,0,1,17.8,5.57V9.82A.23.23,0,0,1,17.56,10.07Z" transform="translate(-0.25 -0.03)" style="fill:#2c80c3"/><path d="M15.49,10.07a.27.27,0,0,1-.25-.25V5.57a3,3,0,0,0-.86-2.11A3,3,0,0,0,9.29,5.57V9.82a.25.25,0,1,1-.49,0V5.57a3.49,3.49,0,0,1,7,0V9.87A.32.32,0,0,1,15.49,10.07Z" transform="translate(-0.25 -0.03)" style="fill:#2c80c3"/><path d="M13.18,19.61H11.11a.27.27,0,0,1-.25-.24V18.25A2.6,2.6,0,1,1,14.79,16a2.55,2.55,0,0,1-1.28,2.23v1.12A.39.39,0,0,1,13.18,19.61Zm-1.82-.49h1.57v-1a.29.29,0,0,1,.12-.25A2.11,2.11,0,0,0,14.21,16a2.07,2.07,0,1,0-4.13,0,2.11,2.11,0,0,0,1.16,1.86.25.25,0,0,1,.12.25v1Z" transform="translate(-0.25 -0.03)" style="fill:#2c80c3"/><path d="M21.69,21.43H15.24a.25.25,0,1,1,0-.49h6.45a.26.26,0,0,1,.24.24A.23.23,0,0,1,21.69,21.43Z" transform="translate(-0.25 -0.03)" style="fill:#2c80c3"/><path d="M9.29,21.43H2.85a.25.25,0,1,1,0-.49H9.29a.26.26,0,0,1,.25.24A.24.24,0,0,1,9.29,21.43Z" transform="translate(-0.25 -0.03)" style="fill:#2c80c3"/><path d="M21.69,7.22a1.57,1.57,0,1,1,1.57-1.57A1.55,1.55,0,0,1,21.69,7.22Zm0-2.56a1,1,0,1,0,1,1A1,1,0,0,0,21.69,4.66Z" transform="translate(-0.25 -0.03)" style="fill:#2c80c3"/><path d="M2.07,9.58a1.82,1.82,0,0,1,0-3.64A1.83,1.83,0,0,1,3.88,7.76,1.81,1.81,0,0,1,2.07,9.58Zm0-3.1A1.28,1.28,0,1,0,3.35,7.76,1.24,1.24,0,0,0,2.07,6.48Z" transform="translate(-0.25 -0.03)" style="fill:#2c80c3"/></g></svg>