<svg id="Layer_1" data-name="Layer 1" xmlns="http://www.w3.org/2000/svg" viewBox="0 0 22.91 24"><g id="_664_Auto_transport_truck_van" data-name="664, Auto, transport, truck, van"><path d="M21.23,14.2a1.91,1.91,0,0,0-1.87-1.66H4.64A1.88,1.88,0,0,0,2.77,14.2v4.14a1.85,1.85,0,0,0,1.87,1.87H19.4a1.86,1.86,0,0,0,1.88-1.87V14.46A1.29,1.29,0,0,0,21.23,14.2Z" transform="translate(-0.54)" style="fill:#a1c6e9"/><path d="M18,15.29a1.09,1.09,0,1,1-1.09,1.09A1.08,1.08,0,0,1,18,15.29Z" transform="translate(-0.54)" style="fill:#fff"/><path d="M6,15.29a1.09,1.09,0,1,1-1.09,1.09A1.08,1.08,0,0,1,6,15.29Z" transform="translate(-0.54)" style="fill:#fff"/><rect x="0.57" y="9.28" width="1.66" height="3.79" style="fill:#fff"/><rect x="20.73" y="8.75" width="1.66" height="3.79" style="fill:#fff"/><path d="M19.1,20.17v1.91a1.36,1.36,0,0,1-1.35,1.35,1.39,1.39,0,0,1-1.39-1.35V20.17Z" transform="translate(-0.54)" style="fill:#fff"/><path d="M4.94,12.54h-.3A1.88,1.88,0,0,0,2.77,14.2h0V2.09A1.51,1.51,0,0,1,4.29.57H19.71a1.51,1.51,0,0,1,1.52,1.52V14.2h0a1.91,1.91,0,0,0-1.87-1.66Z" transform="translate(-0.54)" style="fill:#fff"/><path d="M19.1,8.28v4.26H4.94V8.28A1.18,1.18,0,0,1,6.12,7.1H18A1.16,1.16,0,0,1,19.1,8.28Z" transform="translate(-0.54)" style="fill:#fff"/><path d="M7.64,20.17v1.91a1.35,1.35,0,0,1-2.7,0V20.17Z" transform="translate(-0.54)" style="fill:#fff"/><path d="M19.36,20.73h-.3a.57.57,0,1,1,0-1.13h.3a1.36,1.36,0,0,0,1.35-1.35V14.2A1.36,1.36,0,0,0,19.4,13h-.3a.57.57,0,1,1,0-1.13h.3A2.41,2.41,0,0,1,21.8,14v4.18A2.47,2.47,0,0,1,19.36,20.73Z" transform="translate(-0.54)" style="fill:#2c80c3"/><path d="M4.94,20.73h-.3A2.44,2.44,0,0,1,2.2,18.29V14.11A2.4,2.4,0,0,1,4.6,12h.3a.57.57,0,1,1,0,1.13H4.6a1.32,1.32,0,0,0-1.31,1.18v4a1.36,1.36,0,0,0,1.35,1.35h.3a.58.58,0,0,1,.57.57A.67.67,0,0,1,4.94,20.73Z" transform="translate(-0.54)" style="fill:#2c80c3"/><path d="M16.36,20.73H7.64a.57.57,0,0,1,0-1.13h8.72a.57.57,0,0,1,0,1.13Z" transform="translate(-0.54)" style="fill:#2c80c3"/><path d="M19.1,13.11H4.94a.57.57,0,0,1-.56-.57V8.28a1.7,1.7,0,0,1,1.7-1.7H17.92a1.7,1.7,0,0,1,1.7,1.7v4.26A.57.57,0,0,1,19.1,13.11ZM5.47,12H18.53V8.28a.59.59,0,0,0-.61-.61H6.08a.59.59,0,0,0-.61.61V12Z" transform="translate(-0.54)" style="fill:#2c80c3"/><path d="M2.77,14.72a.57.57,0,0,1-.57-.56V13.07a.57.57,0,1,1,1.13,0v1.09A.64.64,0,0,1,2.77,14.72Z" transform="translate(-0.54)" style="fill:#2c80c3"/><path d="M2.77,9.84a.57.57,0,0,1-.57-.56V2.09A2.09,2.09,0,0,1,4.29,0H19.71A2.09,2.09,0,0,1,21.8,2.09V8.71a.57.57,0,1,1-1.13,0V2.09a1,1,0,0,0-1-1H4.29a1,1,0,0,0-1,1V9.28A.57.57,0,0,1,2.77,9.84Z" transform="translate(-0.54)" style="fill:#2c80c3"/><path d="M21.28,14.72a.57.57,0,0,1-.57-.56V12.5a.57.57,0,1,1,1.13,0v1.66A.64.64,0,0,1,21.28,14.72Z" transform="translate(-0.54)" style="fill:#2c80c3"/><path d="M22.89,13.11H21.23a.57.57,0,0,1-.56-.57V8.71a.57.57,0,0,1,.56-.56h1.66a.58.58,0,0,1,.57.56v3.83A.58.58,0,0,1,22.89,13.11ZM21.8,12h.57V9.28H21.8Z" transform="translate(-0.54)" style="fill:#2c80c3"/><path d="M2.77,13.63H1.11a.58.58,0,0,1-.57-.56V9.28a.58.58,0,0,1,.57-.57H2.77a.57.57,0,0,1,.56.57v3.83A.64.64,0,0,1,2.77,13.63ZM1.68,12.54h.56V9.8H1.68Z" transform="translate(-0.54)" style="fill:#2c80c3"/><path d="M6.29,24a1.93,1.93,0,0,1-1.91-1.92V20.17a.57.57,0,0,1,.56-.57h2.7a.58.58,0,0,1,.57.57v1.91A1.93,1.93,0,0,1,6.29,24Zm-.82-3.27v1.35a.82.82,0,0,0,.82.83.83.83,0,0,0,.83-.83V20.73Z" transform="translate(-0.54)" style="fill:#2c80c3"/><path d="M17.71,24a1.93,1.93,0,0,1-1.92-1.92V20.17a.58.58,0,0,1,.57-.57H19.1a.58.58,0,0,1,.57.57v1.91A2,2,0,0,1,17.71,24Zm-.79-3.27v1.35a.83.83,0,1,0,1.66,0V20.73Z" transform="translate(-0.54)" style="fill:#2c80c3"/><path d="M22.37,24H1.68a.57.57,0,1,1,0-1.13H22.37a.57.57,0,0,1,.56.56A.64.64,0,0,1,22.37,24Z" transform="translate(-0.54)" style="fill:#2c80c3"/><path d="M6,18a1.66,1.66,0,1,1,1.66-1.66A1.69,1.69,0,0,1,6,18Zm0-2.18a.57.57,0,1,0,.57.57A.61.61,0,0,0,6,15.81Z" transform="translate(-0.54)" style="fill:#2c80c3"/><path d="M18,18a1.66,1.66,0,1,1,1.66-1.66A1.69,1.69,0,0,1,18,18Zm0-2.18a.57.57,0,1,0,0,1.13.57.57,0,0,0,.57-.56A.61.61,0,0,0,18,15.81Z" transform="translate(-0.54)" style="fill:#2c80c3"/><path d="M14.74,16.9H9.3a.57.57,0,1,1,0-1.13h5.44a.57.57,0,0,1,.57.56A.6.6,0,0,1,14.74,16.9Z" transform="translate(-0.54)" style="fill:#2c80c3"/><path d="M13.66,18.56H10.39A.58.58,0,0,1,9.82,18a.58.58,0,0,1,.57-.57h3.27a.57.57,0,0,1,.56.57A.65.65,0,0,1,13.66,18.56Z" transform="translate(-0.54)" style="fill:#2c80c3"/><path d="M13.66,15.29H10.39a.57.57,0,1,1,0-1.13h3.27a.57.57,0,0,1,.56.56A.6.6,0,0,1,13.66,15.29Z" transform="translate(-0.54)" style="fill:#2c80c3"/><path d="M12.57,11.46a.54.54,0,0,1-.44-.22.58.58,0,0,1,.13-.79L14.44,8.8a.55.55,0,0,1,.78.13.52.52,0,0,1-.13.78l-2.18,1.66A1.57,1.57,0,0,1,12.57,11.46Z" transform="translate(-0.54)" style="fill:#2c80c3"/><path d="M10,11.46a.54.54,0,0,1-.44-.22.58.58,0,0,1,.13-.79l1.44-1.09a.56.56,0,0,1,.65.92l-1.44,1.09A1.07,1.07,0,0,1,10,11.46Z" transform="translate(-0.54)" style="fill:#2c80c3"/></g></svg>