<svg id="Layer_1" data-name="Layer 1" xmlns="http://www.w3.org/2000/svg" viewBox="0 0 24 22.36"><g id="_95_Award_Badge_Quality_Medal" data-name="95, Award, Badge, Quality, Medal"><path d="M22.36,1.24A1.34,1.34,0,1,1,21,2.57,1.31,1.31,0,0,1,22.36,1.24Z" transform="translate(0 -0.94)" style="fill:#fff"/><path d="M21.93,6.11a.39.39,0,1,1,0,.77.39.39,0,1,1,0-.77Z" transform="translate(0 -0.94)" style="fill:#2c80c3"/><path d="M21.67,17.7a.39.39,0,1,1,0,.77.39.39,0,0,1,0-.77Z" transform="translate(0 -0.94)" style="fill:#2c80c3"/><path d="M17.45,16.15l2.16,4.05-3.41-.65L14.82,22.7l-2.45-4.79A8,8,0,0,0,17.45,16.15Z" transform="translate(0 -0.94)" style="fill:#a1c6e9"/><path d="M12.37,1.75a8.11,8.11,0,1,1-8.1,8.11A8.09,8.09,0,0,1,12.37,1.75Z" transform="translate(0 -0.94)" style="fill:#fff"/><path d="M17.36,22.52a.39.39,0,0,1,.39.39.39.39,0,1,1-.77,0A.39.39,0,0,1,17.36,22.52Z" transform="translate(0 -0.94)" style="fill:#2c80c3"/><path d="M12.37,4.47A5.39,5.39,0,1,1,7,9.86,5.38,5.38,0,0,1,12.37,4.47Z" transform="translate(0 -0.94)" style="fill:#a1c6e9"/><polygon points="15.81 7.88 13.14 10.56 11.81 11.89 10.47 10.56 9.13 9.22 10.47 7.88 11.81 9.22 14.48 6.55 15.81 7.88" style="fill:#fff"/><path d="M12.37,17.91,9.91,22.7,8.53,19.55l-3.4.65,2.15-4.05A8.18,8.18,0,0,0,12.37,17.91Z" transform="translate(0 -0.94)" style="fill:#a1c6e9"/><path d="M5.52,1.24a.39.39,0,1,1-.39.39A.38.38,0,0,1,5.52,1.24Z" transform="translate(0 -0.94)" style="fill:#2c80c3"/><path d="M3.1,13.91a.39.39,0,1,1,0,.77.39.39,0,1,1,0-.77Z" transform="translate(0 -0.94)" style="fill:#2c80c3"/><path d="M1.9,17.14a1.6,1.6,0,0,1,0,3.19,1.6,1.6,0,1,1,0-3.19Z" transform="translate(0 -0.94)" style="fill:#fff"/><path d="M1.21,6.37a.39.39,0,0,1,0,.77.39.39,0,1,1,0-.77Z" transform="translate(0 -0.94)" style="fill:#2c80c3"/><path d="M14.82,23a.41.41,0,0,1-.26-.12l-2.19-4.31-2.2,4.31a.27.27,0,0,1-.26.12.33.33,0,0,1-.26-.17l-1.29-3-3.19.6c-.09,0-.21,0-.26-.08a.29.29,0,0,1,0-.31l2.16-4a.28.28,0,0,1,.34-.13.3.3,0,0,1,.13.35l-1.9,3.53,2.85-.56a.25.25,0,0,1,.3.18L10,22l2.2-4.26a.25.25,0,0,1,.26-.13.3.3,0,0,1,.26.13L14.87,22,16,19.34a.29.29,0,0,1,.3-.18l2.84.56-1.89-3.53a.24.24,0,0,1,.13-.35.24.24,0,0,1,.34.13l2.16,4a.42.42,0,0,1,0,.31.21.21,0,0,1-.26.08l-3.19-.6-1.29,3a.45.45,0,0,1-.35.17Z" transform="translate(0 -0.94)" style="fill:#2c80c3"/><path d="M12.37,18.21a8.39,8.39,0,0,1-5.26-1.85A8.28,8.28,0,0,1,4,9.86a8.36,8.36,0,0,1,16.72,0,8.26,8.26,0,0,1-3.11,6.5A8.41,8.41,0,0,1,12.37,18.21Zm0-16.15a7.8,7.8,0,0,0-7.8,7.8,7.88,7.88,0,0,0,2.88,6.07h0a7.88,7.88,0,0,0,9.83,0A7.81,7.81,0,0,0,12.37,2.06Z" transform="translate(0 -0.94)" style="fill:#2c80c3"/><path d="M12.37,15.5A5.65,5.65,0,1,1,18,9.86,5.66,5.66,0,0,1,12.37,15.5Zm0-10.77a5.13,5.13,0,1,0,5.12,5.13A5.14,5.14,0,0,0,12.37,4.73Z" transform="translate(0 -0.94)" style="fill:#2c80c3"/><path d="M11.81,13.09a.26.26,0,0,1-.18-.09L9,10.33a.35.35,0,0,1,0-.39L10.3,8.61a.31.31,0,0,1,.39,0l1.16,1.16,2.46-2.46a.33.33,0,0,1,.38,0L16,8.65a.33.33,0,0,1,.08.17A.21.21,0,0,1,16,9l-4,4C11.94,13,11.89,13.09,11.81,13.09ZM9.52,10.16l2.29,2.28,3.62-3.62-.95-1L12,10.33a.31.31,0,0,1-.39,0L10.47,9.21Z" transform="translate(0 -0.94)" style="fill:#2c80c3"/><path d="M22.36,4.21A1.64,1.64,0,1,1,24,2.57,1.67,1.67,0,0,1,22.36,4.21Zm0-2.71a1.06,1.06,0,0,0-1.07,1.07,1.08,1.08,0,1,0,2.15,0A1.09,1.09,0,0,0,22.36,1.5Z" transform="translate(0 -0.94)" style="fill:#2c80c3"/><path d="M1.9,20.63a1.9,1.9,0,1,1,0-3.79,1.9,1.9,0,0,1,0,3.79Zm0-3.23a1.34,1.34,0,1,0,1.33,1.33A1.34,1.34,0,0,0,1.9,17.4Z" transform="translate(0 -0.94)" style="fill:#2c80c3"/></g></svg>