<svg id="Layer_1" data-name="Layer 1" xmlns="http://www.w3.org/2000/svg" viewBox="0 0 24 23.12"><g id="B_-_113_Wallet_Cash_credit_card_dollar_finance_money" data-name="B - 113, Wallet, Cash, credit card, dollar, finance, money"><path d="M.48,8a.19.19,0,0,1-.17-.09l0-.08a.22.22,0,0,1,.09-.27.21.21,0,0,1,.26.09l.05.09A.21.21,0,0,1,.57,8Z" transform="translate(0 -0.47)" style="fill:#5180c1"/><path d="M.39,7.87c-.08,0-.13,0-.17-.13s0-.13-.09-.17V7.48h0v0c0-.09,0-.22.13-.27s.22,0,.27.13v0h0v.09s0,.08,0,.13a.21.21,0,0,1-.09.26A.14.14,0,0,1,.39,7.87Z" transform="translate(0 -0.47)" style="fill:#5180c1"/><path d="M.26,7.35a.16.16,0,0,1-.17-.18V7.09c0-.09,0-.22.17-.22s.22,0,.22.17v0c0,.13-.09.21-.22.26Z" transform="translate(0 -0.47)" style="fill:#5180c1"/><path d="M.22,7.13A.19.19,0,0,1,0,7v0c0-.09.09-.22.18-.22s.22.09.22.18v0c0,.09-.09.18-.22.22Z" transform="translate(0 -0.47)" style="fill:#5180c1"/><path d="M.22,7A.19.19,0,0,1,0,6.87v0c0-.09.09-.22.18-.22s.22.09.22.18v0C.39,7,.31,7,.22,7Z" transform="translate(0 -0.47)" style="fill:#5180c1"/><path d="M20.5,16.15a.57.57,0,0,1,0,1.14.58.58,0,0,1-.57-.57A.6.6,0,0,1,20.5,16.15Z" transform="translate(0 -0.47)" style="fill:#fff"/><path d="M23.82,15.45V18h-3.5a1.29,1.29,0,1,1,0-2.58h3.54Zm-2.75,1.27a.58.58,0,0,0-.57-.57.57.57,0,0,0,0,1.14A.58.58,0,0,0,21.07,16.72Z" transform="translate(0 -0.47)" style="fill:#fff"/><polygon points="15.77 1.45 16.64 2.28 10.29 8.63 8.5 8.63 15.72 1.4 15.77 1.45" style="fill:#fff"/><path d="M14.93,1.09l.79.78L8.5,9.1H7.88L7.4,8.62s0,0,0-.09l-.05,0c0-.05,0-.09,0-.13v0h0A.77.77,0,0,1,7.4,7.7l0,0L14.06,1A.61.61,0,0,1,14.93,1.09Z" transform="translate(0 -0.47)" style="fill:#fff"/><path d="M7.4,8.62l.48.48H6.31l-.7-.7a.62.62,0,0,1,0-.92l1.7-1.71L8.85,4.24h0L12.22.87a.62.62,0,0,1,.92,0l.57.57L7.4,7.7l0,0a.55.55,0,0,0-.13.62h0v0s0,.09,0,.13l0,0A.14.14,0,0,1,7.4,8.62Z" transform="translate(0 -0.47)" style="fill:#fff"/><path d="M19.58,5.77a.69.69,0,0,1-.13.79L16.91,9.1H10.29L16.6,2.79,18,4.24,19.4,5.6A.33.33,0,0,1,19.58,5.77Z" transform="translate(0 -0.47)" style="fill:#fff"/><path d="M22,4.24V5.77H19.58a1.92,1.92,0,0,1-.13-.17L18.09,4.24H22Z" transform="translate(0 -0.47)" style="fill:#a1c6e9"/><path d="M22,5.73V9.06H17l2.54-2.54a.67.67,0,0,0,.13-.79H22Z" transform="translate(0 -0.47)" style="fill:#a1c6e9"/><path d="M7.31,5.73,5.61,7.44a.62.62,0,0,0,0,.92l.7.7H2.63a2.53,2.53,0,0,1-1.36-.44A2.18,2.18,0,0,1,.7,8.09a.59.59,0,0,1-.17-.3A.14.14,0,0,0,.48,7.7s0,0,0,0,0,0,0,0h0s0-.09-.08-.17V7.3s0-.13,0-.17v0a.28.28,0,0,0,0-.18V6.65A2.47,2.47,0,0,1,2.63,4.19H8.8Z" transform="translate(0 -0.47)" style="fill:#a1c6e9"/><rect x="2.37" y="20.93" width="20.85" height="2.01" style="fill:#a1c6e9"/><path d="M2.37,21.41v2H2.28a2.13,2.13,0,0,1-2.1-2.1V6.91a.31.31,0,0,0,0,.18v0s0,.13,0,.17v.14a.35.35,0,0,0,.09.17h0a0,0,0,0,0,0,0,0,0,0,0,0,0,0,.19.19,0,0,0,0,.09l.18.3a2,2,0,0,0,.57.53h0a2.49,2.49,0,0,0,1.35.44H23.17v6.35H20.23A1.27,1.27,0,0,0,19,16.68,1.35,1.35,0,0,0,20.28,18h2.93v3.42Z" transform="translate(0 -0.47)" style="fill:#a1c6e9"/><path d="M18,9.28H16.91a.18.18,0,0,1,0-.36H18a.19.19,0,0,1,.18.18A.16.16,0,0,1,18,9.28Z" transform="translate(0 -0.47)" style="fill:#5180c1"/><path d="M6.31,9.28H2.63a3,3,0,0,1-1.49-.44,2.34,2.34,0,0,1-.61-.57C.44,8.18.39,8.05.31,8A.17.17,0,0,1,.39,7.7a.18.18,0,0,1,.27.09c0,.08.13.17.17.26a1.91,1.91,0,0,0,.53.48,2.1,2.1,0,0,0,1.27.39H6.31a.18.18,0,0,1,0,.36Z" transform="translate(0 -0.47)" style="fill:#5180c1"/><path d="M23.21,23.6H2.32A2.33,2.33,0,0,1,0,21.28V6.65a.19.19,0,0,1,.18-.18c.08,0,.21.09.21.18v.08h0V21.32a2,2,0,0,0,1.93,1.93H23V18a.18.18,0,0,1,.17-.17.18.18,0,0,1,.18.17v5.39C23.43,23.51,23.34,23.6,23.21,23.6Z" transform="translate(0 -0.47)" style="fill:#5180c1"/><path d="M23.21,15.63a.18.18,0,0,1-.17-.18V9.28H22a.18.18,0,0,1,0-.36h1.23a.19.19,0,0,1,.17.18v6.35A.2.2,0,0,1,23.21,15.63Z" transform="translate(0 -0.47)" style="fill:#5180c1"/><path d="M22,9.28H18.09a.18.18,0,0,1,0-.36h3.76V4.41H18.13A.18.18,0,0,1,18,4.24a.18.18,0,0,1,.17-.18h3.94a.19.19,0,0,1,.18.18V9.1C22.2,9.19,22.12,9.28,22,9.28Z" transform="translate(0 -0.47)" style="fill:#5180c1"/><path d="M1.27,8.88a.17.17,0,0,1-.13,0,3.68,3.68,0,0,1-.61-.57C.44,8.18.39,8.05.31,8s0-.09,0-.13a0,0,0,0,0,0,0v0h0s0-.13-.09-.17,0-.05,0-.05V7.44c0-.05,0-.14,0-.18v0A.3.3,0,0,0,0,7H0V6.78A2.63,2.63,0,0,1,2.63,4.15H8.8a.18.18,0,1,1,0,.35H2.63A2.25,2.25,0,0,0,.39,6.73V7h0a.28.28,0,0,0,0,.17v0s0,.08,0,.17v.13c0,.05.05.09.05.13h0v0h0v0a.14.14,0,0,0,0,.09c0,.09.13.18.17.26a4.56,4.56,0,0,0,.44.44s.05,0,.05,0l0,0a.19.19,0,0,1,0,.26C1.4,8.84,1.36,8.88,1.27,8.88Z" transform="translate(0 -0.47)" style="fill:#5180c1"/><path d="M23.82,18.21h-3.5a1.65,1.65,0,0,1-1.05-.44,1.54,1.54,0,0,1-.44-1.05,1.48,1.48,0,0,1,1.49-1.49h3.5a.19.19,0,0,1,.18.18V18A.2.2,0,0,1,23.82,18.21Zm-3.5-2.58a1.08,1.08,0,0,0-1.09,1.09,1.28,1.28,0,0,0,.3.79,1.05,1.05,0,0,0,.79.31h3.29V15.63Z" transform="translate(0 -0.47)" style="fill:#5180c1"/><path d="M20.5,17.46a.74.74,0,0,1-.75-.74A.77.77,0,0,1,20.5,16a.74.74,0,0,1,0,1.48Zm0-1.09a.35.35,0,0,0-.35.35.37.37,0,0,0,.35.35.34.34,0,0,0,.35-.35A.35.35,0,0,0,20.5,16.37Z" transform="translate(0 -0.47)" style="fill:#5180c1"/><path d="M2.37,23.6a.19.19,0,0,1-.18-.18V10.59a.19.19,0,0,1,.18-.18.19.19,0,0,1,.17.18V23.42C2.58,23.51,2.5,23.6,2.37,23.6Z" transform="translate(0 -0.47)" style="fill:#5180c1"/><path d="M23.21,21.63H2.37a.19.19,0,0,1-.18-.18.18.18,0,0,1,.18-.17H23.21a.18.18,0,0,1,.18.17A.17.17,0,0,1,23.21,21.63Z" transform="translate(0 -0.47)" style="fill:#5180c1"/><path d="M22,6H19.66a.19.19,0,0,1-.17-.18.18.18,0,0,1,.17-.17H22a.18.18,0,0,1,.17.17A.18.18,0,0,1,22,6Z" transform="translate(0 -0.47)" style="fill:#5180c1"/><path d="M7.31,6H2.5a.19.19,0,0,1-.18-.18A.18.18,0,0,1,2.5,5.6H7.31a.18.18,0,0,1,.18.17A.19.19,0,0,1,7.31,6Z" transform="translate(0 -0.47)" style="fill:#5180c1"/><path d="M7.36,8.75a.31.31,0,0,1-.18-.09s0,0,0-.09a.17.17,0,0,1,.09-.26.18.18,0,0,1,.26.09,0,0,0,0,0,0,0,.2.2,0,0,1,0,.27A.17.17,0,0,1,7.36,8.75Z" transform="translate(0 -0.47)" style="fill:#5180c1"/><path d="M7.27,8.57c-.09,0-.18,0-.18-.13v0a.17.17,0,0,1,.14-.22.17.17,0,0,1,.22.13h0a.19.19,0,0,1-.14.26Z" transform="translate(0 -0.47)" style="fill:#5180c1"/><path d="M7.27,8.53c-.09,0-.18,0-.18-.13a.93.93,0,0,1,.18-.83c.09-.09.22-.09.26,0s.09.22,0,.26a.54.54,0,0,0-.08.44c0,.09,0,.22-.14.26Z" transform="translate(0 -0.47)" style="fill:#5180c1"/><path d="M7.4,7.87a.17.17,0,0,1-.13,0c-.09-.09-.09-.22,0-.26L13.88,1A.91.91,0,0,1,14.5.69a.88.88,0,0,1,.61.26l.79.79c.09.09.09.22,0,.26s-.22.09-.26,0l-.79-.78a.47.47,0,0,0-.31-.13.4.4,0,0,0-.31.13L7.58,7.83S7.49,7.87,7.4,7.87Z" transform="translate(0 -0.47)" style="fill:#5180c1"/><path d="M16.91,9.28H10.29a.18.18,0,0,1,0-.36h6.53l2.49-2.49a.45.45,0,0,0,.09-.53.21.21,0,0,0-.09-.13L15.64,2.09c-.09-.09-.09-.22,0-.26a.16.16,0,0,1,.26,0l3.68,3.68a.37.37,0,0,1,.13.22.86.86,0,0,1-.13,1L17,9.23A.16.16,0,0,1,16.91,9.28Z" transform="translate(0 -0.47)" style="fill:#5180c1"/><path d="M8.5,9.28H7.88a.18.18,0,0,1,0-.36H8.5a.18.18,0,0,1,0,.36Z" transform="translate(0 -0.47)" style="fill:#5180c1"/><path d="M10.29,9.28H8.5c-.09,0-.13,0-.18-.14a.2.2,0,0,1,0-.22l7.22-7.18c.09-.09.22-.09.26,0l.92.92c.09.09.09.22,0,.26L10.42,9.23S10.34,9.28,10.29,9.28ZM9,8.88h1.27l6.13-6.13-.66-.61Z" transform="translate(0 -0.47)" style="fill:#5180c1"/><path d="M7.88,9.28H6.31a.14.14,0,0,1-.13,0l-.71-.7a.85.85,0,0,1,0-1.23l3.2-3.19h0L12,.73a.91.91,0,0,1,.62-.26.88.88,0,0,1,.61.26l.57.57c.09.09.09.22,0,.27L7.58,7.83h0a.51.51,0,0,0-.09.44h0v0s0,0,0,.09,0,0,0,0l0,.05L8.1,9a.19.19,0,0,1,.05.22A.72.72,0,0,1,7.88,9.28Zm-1.49-.4h1l-.13-.13-.09-.09a.14.14,0,0,1,0-.09s0-.08-.09-.13v0h0a.9.9,0,0,1,.18-.83s0-.05,0-.05L13.4,1.39,13,1a.63.63,0,0,0-.3-.08.4.4,0,0,0-.31.13L8.93,4.37h0L5.74,7.57a.46.46,0,0,0,0,.65Z" transform="translate(0 -0.47)" style="fill:#5180c1"/><path d="M23.21,20.22H5.65a.18.18,0,0,1-.18-.17.19.19,0,0,1,.18-.18H23.21a.19.19,0,0,1,.18.18A.16.16,0,0,1,23.21,20.22Z" transform="translate(0 -0.47)" style="fill:#5180c1"/></g></svg>