<svg id="Layer_1" data-name="Layer 1" xmlns="http://www.w3.org/2000/svg" viewBox="0 0 22.64 23.46"><g id="_450_Options_Volume_Parameters_Sliders" data-name="450, Options, Volume, Parameters, Sliders"><path d="M22.43.25a1,1,0,0,1,1.05,1,1.06,1.06,0,1,1-1.05-1Z" transform="translate(-0.84 -0.25)" style="fill:#a1c6e9"/><path d="M2.66,20.62A1.55,1.55,0,1,1,1.1,22.16,1.55,1.55,0,0,1,2.66,20.62Z" transform="translate(-0.84 -0.25)" style="fill:#a1c6e9"/><path d="M21.63,5.34a1.42,1.42,0,0,1-1.44,1.42H18.72a2.21,2.21,0,0,0,0-2.88h1.47A1.48,1.48,0,0,1,21.63,5.34Z" transform="translate(-0.84 -0.25)" style="fill:#fff"/><path d="M21.63,17.86a1.42,1.42,0,0,1-1.44,1.42H18.72a2.21,2.21,0,0,0,0-2.88h1.47A1.48,1.48,0,0,1,21.63,17.86Z" transform="translate(-0.84 -0.25)" style="fill:#fff"/><path d="M4.64,10.14H6.11a2.21,2.21,0,0,0,0,2.88H4.64A1.42,1.42,0,0,1,3.2,11.6a1.36,1.36,0,0,1,.43-1A1.29,1.29,0,0,1,4.64,10.14Z" transform="translate(-0.84 -0.25)" style="fill:#fff"/><path d="M4.64,3.88H15.3a2.21,2.21,0,0,0,0,2.88H4.64A1.42,1.42,0,0,1,3.2,5.34,1.43,1.43,0,0,1,4.64,3.88Z" transform="translate(-0.84 -0.25)" style="fill:#fff"/><path d="M20.19,10.14a1.41,1.41,0,0,1,1,2.42,1.47,1.47,0,0,1-1,.42H9.48a2.19,2.19,0,0,0,0-2.88H20.19Z" transform="translate(-0.84 -0.25)" style="fill:#fff"/><path d="M4.64,16.4H15.3a2.21,2.21,0,0,0,0,2.88H4.64A1.42,1.42,0,0,1,3.2,17.86,1.43,1.43,0,0,1,4.64,16.4Z" transform="translate(-0.84 -0.25)" style="fill:#fff"/><path d="M19.26,17.86A2.23,2.23,0,1,1,17,15.65,2.21,2.21,0,0,1,19.26,17.86Z" transform="translate(-0.84 -0.25)" style="fill:#a1c6e9"/><path d="M10,11.6A2.24,2.24,0,0,1,7.8,13.82,2.12,2.12,0,0,1,6.11,13a2.21,2.21,0,0,1,0-2.88A2.3,2.3,0,0,1,7.8,9.35,2.27,2.27,0,0,1,10,11.6Z" transform="translate(-0.84 -0.25)" style="fill:#a1c6e9"/><path d="M19.26,5.34a2.23,2.23,0,0,1-4.46,0,2.17,2.17,0,0,1,.54-1.42A2.34,2.34,0,0,1,17,3.13,2.21,2.21,0,0,1,19.26,5.34Z" transform="translate(-0.84 -0.25)" style="fill:#a1c6e9"/><path d="M22,8.1a.38.38,0,1,1-.37.37A.38.38,0,0,1,22,8.1Z" transform="translate(-0.84 -0.25)" style="fill:#2c80c3"/><path d="M21.75,21.37a.38.38,0,1,1-.38.38A.38.38,0,0,1,21.75,21.37Z" transform="translate(-0.84 -0.25)" style="fill:#2c80c3"/><path d="M13.57.5a.38.38,0,1,1-.38.38A.38.38,0,0,1,13.57.5Z" transform="translate(-0.84 -0.25)" style="fill:#2c80c3"/><path d="M11,14.36a.38.38,0,1,1-.38.37A.38.38,0,0,1,11,14.36Z" transform="translate(-0.84 -0.25)" style="fill:#2c80c3"/><path d="M10.71,21.12a.38.38,0,1,1-.38.38A.38.38,0,0,1,10.71,21.12Z" transform="translate(-0.84 -0.25)" style="fill:#2c80c3"/><path d="M5.44,1.29a.38.38,0,1,1-.38.38A.38.38,0,0,1,5.44,1.29Z" transform="translate(-0.84 -0.25)" style="fill:#2c80c3"/><path d="M1.22,9.64A.38.38,0,1,1,.84,10,.38.38,0,0,1,1.22,9.64Z" transform="translate(-0.84 -0.25)" style="fill:#2c80c3"/><path d="M15.3,19.53H4.64a1.71,1.71,0,0,1-1.73-1.71,1.73,1.73,0,0,1,1.73-1.71H15.3a.28.28,0,0,1,.26.25.27.27,0,0,1-.26.25H4.64a1.19,1.19,0,0,0-.85,2,1.23,1.23,0,0,0,.85.33H15.3a.27.27,0,0,1,.26.25C15.56,19.33,15.43,19.53,15.3,19.53Z" transform="translate(-0.84 -0.25)" style="fill:#2c80c3"/><path d="M20.19,19.53H18.72a.27.27,0,0,1-.26-.25.28.28,0,0,1,.26-.25h1.47a1.17,1.17,0,0,0,1.18-1.17A1.12,1.12,0,0,0,21,17a1.16,1.16,0,0,0-.84-.33H18.72a.28.28,0,0,1-.26-.25.32.32,0,0,1,.26-.3h1.47a1.72,1.72,0,0,1,1.73,1.71A1.75,1.75,0,0,1,20.19,19.53Z" transform="translate(-0.84 -0.25)" style="fill:#2c80c3"/><path d="M17,20.33a2.57,2.57,0,0,1-1.9-.88,2.46,2.46,0,0,1-.59-1.59,2.38,2.38,0,0,1,.59-1.58,2.49,2.49,0,0,1,3.8,0,2.46,2.46,0,0,1,.59,1.58,2.39,2.39,0,0,1-.59,1.59A2.64,2.64,0,0,1,17,20.33Zm0-4.43a2,2,0,0,0-2,2,2,2,0,0,0,.46,1.26,2,2,0,0,0,3,0,1.94,1.94,0,0,0,0-2.51A2.07,2.07,0,0,0,17,15.9Z" transform="translate(-0.84 -0.25)" style="fill:#2c80c3"/><path d="M20.19,13.27H9.48A.27.27,0,0,1,9.23,13a.28.28,0,0,1,.25-.25H20.15a1.15,1.15,0,0,0,1.18-1.17,1.18,1.18,0,0,0-1.18-1.17H9.48a.27.27,0,0,1-.25-.25.28.28,0,0,1,.25-.25H20.15a1.73,1.73,0,0,1,1.73,1.72,1.68,1.68,0,0,1-.51,1.21A1.92,1.92,0,0,1,20.19,13.27Z" transform="translate(-0.84 -0.25)" style="fill:#2c80c3"/><path d="M6.07,13.27H4.59a1.72,1.72,0,0,1-1.72-1.71,1.69,1.69,0,0,1,.5-1.21,1.72,1.72,0,0,1,1.22-.5H6.07a.27.27,0,0,1,.25.25.26.26,0,0,1-.25.25H4.59a1.19,1.19,0,0,0-.84.34,1.15,1.15,0,0,0-.34.83,1.17,1.17,0,0,0,1.18,1.17H6.07a.26.26,0,0,1,.25.25C6.32,13.06,6.24,13.27,6.07,13.27Z" transform="translate(-0.84 -0.25)" style="fill:#2c80c3"/><path d="M7.8,14.07a2.57,2.57,0,0,1-1.9-.88,2.46,2.46,0,0,1-.59-1.59A2.36,2.36,0,0,1,5.9,10a2.49,2.49,0,0,1,3.8,0,2.46,2.46,0,0,1,.59,1.58,2.39,2.39,0,0,1-.59,1.59A2.57,2.57,0,0,1,7.8,14.07Zm0-4.43a2,2,0,0,0-2,2,2,2,0,0,0,4,0,2,2,0,0,0-2-2Z" transform="translate(-0.84 -0.25)" style="fill:#2c80c3"/><path d="M15.3,7H4.64A1.71,1.71,0,0,1,2.91,5.3,1.73,1.73,0,0,1,4.64,3.59H15.3a.27.27,0,0,1,.26.25.27.27,0,0,1-.26.25H4.64A1.17,1.17,0,0,0,3.46,5.26a1.14,1.14,0,0,0,.33.83,1.19,1.19,0,0,0,.85.34H15.3a.27.27,0,0,1,.26.25C15.56,6.89,15.43,7,15.3,7Z" transform="translate(-0.84 -0.25)" style="fill:#2c80c3"/><path d="M20.19,7H18.72a.27.27,0,0,1-.26-.25.28.28,0,0,1,.26-.25h1.47a1.17,1.17,0,0,0,1.18-1.17A1.12,1.12,0,0,0,21,4.51a1.17,1.17,0,0,0-.84-.34H18.72a.27.27,0,0,1-.26-.25.28.28,0,0,1,.26-.25h1.47a1.72,1.72,0,0,1,1.73,1.71A1.74,1.74,0,0,1,20.19,7Z" transform="translate(-0.84 -0.25)" style="fill:#2c80c3"/><path d="M17,7.81a2.57,2.57,0,0,1-1.9-.88,2.46,2.46,0,0,1-.59-1.59,2.36,2.36,0,0,1,.59-1.58,2.49,2.49,0,0,1,3.8,0,2.46,2.46,0,0,1,.59,1.58,2.39,2.39,0,0,1-.59,1.59A2.64,2.64,0,0,1,17,7.81Zm0-4.43a2,2,0,0,0-1.52.71,1.93,1.93,0,0,0,0,2.5,2,2,0,0,0,3,0,1.93,1.93,0,0,0,0-2.5A2.07,2.07,0,0,0,17,3.38Z" transform="translate(-0.84 -0.25)" style="fill:#2c80c3"/></g></svg>