<svg id="Layer_1" data-name="Layer 1" xmlns="http://www.w3.org/2000/svg" viewBox="0 0 23.35 24"><g id="_564_Configure_Settings_Website_Browser" data-name="564, Configure, Settings, Website, Browser"><path d="M1.59,7.11V22.57a1.38,1.38,0,0,0,1.35,1.18H20.12a1.33,1.33,0,0,0,1.34-1.18,11.42,11.42,0,0,0,0-1.64V7.16C20.65,7.11,2.41,7.11,1.59,7.11Z" transform="translate(-0.33)" style="fill:#fff"/><path d="M3.64,9.16V21.67H19.5V9.16Z" transform="translate(-0.33)" style="fill:#a1c6e9"/><path d="M18.6.25a1.15,1.15,0,1,1-1.14,1.14A1.11,1.11,0,0,1,18.6.25Z" transform="translate(-0.33)" style="fill:#a1c6e9"/><path d="M4.42,1.27A.77.77,0,0,1,5.19,2a.75.75,0,0,1-.77.78A.78.78,0,0,1,3.64,2,.75.75,0,0,1,4.42,1.27Z" transform="translate(-0.33)" style="fill:#a1c6e9"/><path d="M18,13.9a2.78,2.78,0,1,1-2.78,2.78A2.81,2.81,0,0,1,18,13.9Zm1.68,2.78a1.68,1.68,0,0,0-3.36,0,1.68,1.68,0,0,0,3.36,0Z" transform="translate(-0.33)" style="fill:#a1c6e9"/><path d="M19.5,11.37a4.48,4.48,0,0,1,.78.28l0,.94.82-.41c.12.09.24.21.37.29a6.09,6.09,0,0,1,.94,1l-.41.82.94,0a6.65,6.65,0,0,1,.49,1.8l-.78.53.78.49A4.59,4.59,0,0,1,23,19L22,19l.41.82a5.72,5.72,0,0,1-.94,1,2.91,2.91,0,0,1-.37.29l-.82-.41,0,.94a6.65,6.65,0,0,1-1.8.49L18,21.38l-.49.82a4.43,4.43,0,0,1-1.8-.49v0l0-.9-.82.41a6.77,6.77,0,0,1-1.31-1.31l.41-.82L13,19a6.55,6.55,0,0,1-.49-1.8l.78-.53-.78-.53a4.47,4.47,0,0,1,.49-1.8l.94,0-.41-.82a6.77,6.77,0,0,1,1.31-1.31l.82.41,0-.94a6.55,6.55,0,0,1,1.8-.49l.53.78.53-.78C18.81,11.24,19.18,11.28,19.5,11.37Zm1.23,5.31A2.78,2.78,0,1,0,18,19.46,2.76,2.76,0,0,0,20.73,16.68Z" transform="translate(-0.33)" style="fill:#fff"/><rect x="4.7" y="10.96" width="1.8" height="2.04" style="fill:#fff"/><rect x="6.5" y="10.96" width="5.11" height="2.04" style="fill:#fff"/><rect x="9.44" y="5.6" width="11.78" height="1.55" style="fill:#fff"/><path d="M21.55,5.44V5.6H9.77V4.05H20.16A1.41,1.41,0,0,1,21.55,5.44Z" transform="translate(-0.33)" style="fill:#fff"/><path d="M9.77,7.11H1.59V5.44A1.38,1.38,0,0,1,3,4.05H9.77Z" transform="translate(-0.33)" style="fill:#a1c6e9"/><path d="M22.69,3.56a.37.37,0,1,1-.37.37A.37.37,0,0,1,22.69,3.56Z" transform="translate(-0.33)" style="fill:#2c80c3"/><path d="M15,1.51a.37.37,0,1,1-.37.37A.37.37,0,0,1,15,1.51Z" transform="translate(-0.33)" style="fill:#2c80c3"/><path d="M10.43,2.54a.37.37,0,0,1,0,.73.37.37,0,1,1,0-.73Z" transform="translate(-0.33)" style="fill:#2c80c3"/><path d="M7.85,1a.37.37,0,1,1-.37.37A.38.38,0,0,1,7.85,1Z" transform="translate(-0.33)" style="fill:#2c80c3"/><path d="M6.71,5.07a.55.55,0,0,1,.53.53.54.54,0,0,1-1.07,0A.58.58,0,0,1,6.71,5.07Z" transform="translate(-0.33)" style="fill:#2c80c3"/><path d="M5.19,5.07a.54.54,0,0,1,.53.53.53.53,0,0,1-.53.53.54.54,0,0,1-.53-.53A.55.55,0,0,1,5.19,5.07Z" transform="translate(-0.33)" style="fill:#2c80c3"/><path d="M3.64,5.07a.54.54,0,0,1,.53.53.53.53,0,1,1-1.06,0A.57.57,0,0,1,3.64,5.07Z" transform="translate(-0.33)" style="fill:#2c80c3"/><path d="M.7,3.56a.37.37,0,0,1,0,.73.37.37,0,1,1,0-.73Z" transform="translate(-0.33)" style="fill:#2c80c3"/><path d="M21.55,7.4h-20a.25.25,0,0,1,0-.49H21.51a.26.26,0,0,1,.24.25A.2.2,0,0,1,21.55,7.4Z" transform="translate(-0.33)" style="fill:#2c80c3"/><path d="M21.55,5.85H9.77a.27.27,0,0,1-.24-.25.26.26,0,0,1,.24-.24H21.51a.26.26,0,0,1,.24.24A.21.21,0,0,1,21.55,5.85Z" transform="translate(-0.33)" style="fill:#2c80c3"/><path d="M4.42,3a1,1,0,0,1-1-1A1,1,0,0,1,5.44,2,1,1,0,0,1,4.42,3Zm0-1.52A.55.55,0,0,0,3.88,2,.54.54,0,1,0,5,2,.55.55,0,0,0,4.42,1.51Z" transform="translate(-0.33)" style="fill:#2c80c3"/><path d="M18.6,2.78a1.38,1.38,0,0,1-1.39-1.39,1.39,1.39,0,0,1,2.78,0A1.37,1.37,0,0,1,18.6,2.78Zm0-2.29a.91.91,0,0,0-.9.9.9.9,0,1,0,1.8,0A.91.91,0,0,0,18.6.49Z" transform="translate(-0.33)" style="fill:#2c80c3"/><path d="M9.77,7.4a.26.26,0,0,1-.24-.24V4.09a.27.27,0,0,1,.24-.25.28.28,0,0,1,.25.25V7.16A.23.23,0,0,1,9.77,7.4Z" transform="translate(-0.33)" style="fill:#2c80c3"/><path d="M18,19.75a3,3,0,1,1,3-3A3,3,0,0,1,18,19.75Zm0-5.56a2.54,2.54,0,1,0,2.53,2.53A2.51,2.51,0,0,0,18,14.19Z" transform="translate(-0.33)" style="fill:#2c80c3"/><path d="M18,18.6a1.92,1.92,0,1,1,1.92-1.92A1.92,1.92,0,0,1,18,18.6Zm0-3.31a1.39,1.39,0,1,0,1.39,1.39A1.37,1.37,0,0,0,18,15.29Z" transform="translate(-0.33)" style="fill:#2c80c3"/><path d="M15.66,22h-12a.28.28,0,0,1-.25-.25V9.16a.28.28,0,0,1,.25-.25H19.5a.27.27,0,0,1,.25.25v2.21a.25.25,0,0,1-.49,0v-2H3.88v12H15.62a.27.27,0,0,1,.24.25A.23.23,0,0,1,15.66,22Z" transform="translate(-0.33)" style="fill:#2c80c3"/><path d="M20.16,24H3a1.65,1.65,0,0,1-1.63-1.64V5.44A1.65,1.65,0,0,1,3,3.8H20.16a1.64,1.64,0,0,1,1.63,1.64v7a.25.25,0,1,1-.49,0v-7a1.14,1.14,0,0,0-1.14-1.15H3A1.14,1.14,0,0,0,1.84,5.44V22.36A1.14,1.14,0,0,0,3,23.51H20.16a1.14,1.14,0,0,0,1.14-1.15V20.93a.25.25,0,0,1,.49,0v1.43A1.64,1.64,0,0,1,20.16,24Z" transform="translate(-0.33)" style="fill:#2c80c3"/><path d="M17.46,22.45h0A6.1,6.1,0,0,1,15.54,22a.43.43,0,0,1-.17-.21v0l0-.53-.45.24a.21.21,0,0,1-.24,0A5.11,5.11,0,0,1,13.25,20c0-.08-.08-.16,0-.24l.24-.49-.53,0a.26.26,0,0,1-.2-.17,5,5,0,0,1-.49-1.88.29.29,0,0,1,.12-.24l.45-.29-.45-.28a.27.27,0,0,1-.12-.25,5.94,5.94,0,0,1,.49-1.88.27.27,0,0,1,.2-.16l.53,0-.28-.45a.25.25,0,0,1,0-.24A5.4,5.4,0,0,1,14.6,12c.08,0,.16-.08.24,0l.49.24,0-.53a.26.26,0,0,1,.17-.2A5,5,0,0,1,17.42,11a.29.29,0,0,1,.24.12l.29.45.28-.45a.27.27,0,0,1,.25-.12,4.84,4.84,0,0,1,1.06.2,4.64,4.64,0,0,1,.82.29.27.27,0,0,1,.16.2l.05.53.49-.24a.25.25,0,0,1,.24,0l.41.29a7,7,0,0,1,1,1.06c0,.08.08.16,0,.24l-.24.49.53,0a.27.27,0,0,1,.2.16,5,5,0,0,1,.49,1.88.32.32,0,0,1-.12.25l-.45.28.45.29a.24.24,0,0,1,.12.24,5.61,5.61,0,0,1-.49,1.88.37.37,0,0,1-.2.17l-.53,0,.24.49a.25.25,0,0,1,0,.24,4.79,4.79,0,0,1-1,1.07,1.49,1.49,0,0,1-.41.28c-.08,0-.16.09-.24,0l-.49-.24-.05.53a.27.27,0,0,1-.16.2,5,5,0,0,1-1.88.49.32.32,0,0,1-.25-.12L18,21.79l-.29.45C17.62,22.41,17.54,22.45,17.46,22.45Zm-1.56-.9a4.42,4.42,0,0,0,1.44.36l.4-.65a.25.25,0,0,1,.21-.12.22.22,0,0,1,.2.12l.41.65A5.77,5.77,0,0,0,20,21.55l0-.78a.25.25,0,0,1,.37-.2l.7.36a1.06,1.06,0,0,0,.24-.2,5.61,5.61,0,0,0,.82-.86l-.33-.69a.28.28,0,0,1,0-.25.24.24,0,0,1,.21-.12l.77,0a4.2,4.2,0,0,0,.37-1.43l-.65-.41a.24.24,0,0,1-.12-.21.22.22,0,0,1,.12-.2l.65-.41a5.38,5.38,0,0,0-.37-1.43l-.77,0a.23.23,0,0,1-.21-.13.26.26,0,0,1,0-.24l.37-.7a3.89,3.89,0,0,0-.82-.85c-.08-.09-.16-.13-.24-.21l-.7.37a.26.26,0,0,1-.24,0,.23.23,0,0,1-.13-.21l0-.77a3.39,3.39,0,0,0-.61-.21,5.93,5.93,0,0,0-.82-.16l-.41.65a.22.22,0,0,1-.4,0l-.41-.65A5.38,5.38,0,0,0,16,11.9l0,.77a.22.22,0,0,1-.12.21.25.25,0,0,1-.24,0l-.7-.37a5.19,5.19,0,0,0-1,1l.37.7a.26.26,0,0,1,0,.24.23.23,0,0,1-.21.13l-.77,0a4.2,4.2,0,0,0-.37,1.43l.65.41a.22.22,0,0,1,.12.2.24.24,0,0,1-.12.21l-.65.4a5.35,5.35,0,0,0,.37,1.44l.77,0a.24.24,0,0,1,.21.12.26.26,0,0,1,0,.24l-.37.7a4.7,4.7,0,0,0,1,1l.7-.37a.26.26,0,0,1,.24,0,.24.24,0,0,1,.12.21Z" transform="translate(-0.33)" style="fill:#2c80c3"/><path d="M11.94,13.25H5A.28.28,0,0,1,4.78,13V11A.27.27,0,0,1,5,10.71h6.91a.26.26,0,0,1,.24.25v2A.24.24,0,0,1,11.94,13.25Zm-6.62-.49h6.37V11.2H5.32Z" transform="translate(-0.33)" style="fill:#2c80c3"/><path d="M6.83,13.25A.28.28,0,0,1,6.58,13V11a.27.27,0,0,1,.25-.25.26.26,0,0,1,.24.25v2A.24.24,0,0,1,6.83,13.25Z" transform="translate(-0.33)" style="fill:#2c80c3"/></g></svg>