<svg id="Layer_1" data-name="Layer 1" xmlns="http://www.w3.org/2000/svg" viewBox="0 0 24 23.19"><g id="_486_Bag_Brief_Case_Portfolio" data-name="486, Bag, Brief, Case, Portfolio"><path d="M16.08,14.2v9.19H7.92V14.2Z" transform="translate(0 -0.44)" style="fill:#a1c6e9"/><path d="M21.71,1.47a1,1,0,0,1,1,1,1,1,0,1,1-1-1Z" transform="translate(0 -0.44)" style="fill:#fff"/><path d="M3.06.94A1.27,1.27,0,1,1,1.8,2.2,1.27,1.27,0,0,1,3.06.94Z" transform="translate(0 -0.44)" style="fill:#fff"/><path d="M13.27,16.25V17a1.27,1.27,0,1,1-2.54,0v-.77Z" transform="translate(0 -0.44)" style="fill:#fff"/><polygon points="14.04 13.77 14.04 15.81 13.27 15.81 10.73 15.81 9.96 15.81 9.96 13.77 14.04 13.77" style="fill:#fff"/><rect x="16.08" y="13.77" width="2.82" height="9.18" style="fill:#fff"/><rect x="5.1" y="13.77" width="2.82" height="9.18" style="fill:#fff"/><path d="M23.75,10.41A3.78,3.78,0,0,1,20,14.2H4.12A3.78,3.78,0,0,1,.33,10.41v-2H23.8C23.75,8.94,23.75,9.71,23.75,10.41Z" transform="translate(0 -0.44)" style="fill:#fff"/><path d="M23.75,10.41v10a3,3,0,0,1-3,3H18.94V14.2h1A3.81,3.81,0,0,0,23.75,10.41Z" transform="translate(0 -0.44)" style="fill:#a1c6e9"/><path d="M5.1,14.2v9.19H3.27a3,3,0,0,1-3-3v-10A3.78,3.78,0,0,0,4.08,14.2Z" transform="translate(0 -0.44)" style="fill:#a1c6e9"/><path d="M23.75,7.31v1H.29v-1a1.81,1.81,0,0,1,1.79-1.8H22A1.83,1.83,0,0,1,23.75,7.31Z" transform="translate(0 -0.44)" style="fill:#a1c6e9"/><path d="M20.29,3.88a.35.35,0,0,1,0,.53.36.36,0,0,1-.54,0,.35.35,0,0,1,0-.53A.35.35,0,0,1,20.29,3.88Z" transform="translate(0 -0.44)" style="fill:#2c80c3"/><path d="M18.24,1.31a.34.34,0,0,1,0,.53.35.35,0,0,1-.53,0,.35.35,0,0,1,0-.53A.34.34,0,0,1,18.24,1.31Z" transform="translate(0 -0.44)" style="fill:#2c80c3"/><path d="M10.61.53a.34.34,0,0,1,0,.53.35.35,0,0,1-.53,0,.35.35,0,0,1,0-.53A.43.43,0,0,1,10.61.53Z" transform="translate(0 -0.44)" style="fill:#2c80c3"/><path d="M6.53,2.86a.35.35,0,0,1,0,.53.35.35,0,0,1-.53,0,.35.35,0,0,1,0-.53A.34.34,0,0,1,6.53,2.86Z" transform="translate(0 -0.44)" style="fill:#2c80c3"/><path d="M1.18,3.88a.34.34,0,0,1,0,.53.35.35,0,0,1-.53,0,.35.35,0,0,1,0-.53A.34.34,0,0,1,1.18,3.88Z" transform="translate(0 -0.44)" style="fill:#2c80c3"/><path d="M16.08,14.45H14A.25.25,0,0,1,14,14h2a.25.25,0,1,1,0,.49Z" transform="translate(0 -0.44)" style="fill:#2c80c3"/><path d="M10,14.45h-2a.25.25,0,1,1,0-.49h2a.25.25,0,0,1,0,.49Z" transform="translate(0 -0.44)" style="fill:#2c80c3"/><path d="M5.1,14.45h-1A4.1,4.1,0,0,1,0,10.37a.27.27,0,0,1,.25-.25.27.27,0,0,1,.24.25A3.55,3.55,0,0,0,4,13.92h1a.27.27,0,0,1,.25.24C5.31,14.29,5.27,14.45,5.1,14.45Z" transform="translate(0 -0.44)" style="fill:#2c80c3"/><path d="M.29,9.1A.26.26,0,0,1,0,8.86V7.31a2,2,0,0,1,2-2H7.43a.26.26,0,0,1,.24.24.27.27,0,0,1-.24.25H2A1.54,1.54,0,0,0,.49,7.31V8.86A.2.2,0,0,1,.29,9.1Z" transform="translate(0 -0.44)" style="fill:#2c80c3"/><path d="M23.75,9.1a.26.26,0,0,1-.24-.24V7.31A1.54,1.54,0,0,0,22,5.76h-5.1a.27.27,0,0,1-.25-.25.26.26,0,0,1,.25-.24H22a2,2,0,0,1,2,2V8.86A.26.26,0,0,1,23.75,9.1Z" transform="translate(0 -0.44)" style="fill:#2c80c3"/><path d="M19.92,14.45h-1a.25.25,0,1,1,0-.49h1a3.55,3.55,0,0,0,3.55-3.55.25.25,0,1,1,.49,0A4,4,0,0,1,19.92,14.45Z" transform="translate(0 -0.44)" style="fill:#2c80c3"/><path d="M5.1,23.63H3.27A3.28,3.28,0,0,1,0,20.37V8.86a.26.26,0,0,1,.25-.25.26.26,0,0,1,.24.25V20.41a2.73,2.73,0,0,0,2.73,2.73H5.06a.28.28,0,0,1,.25.25C5.31,23.51,5.27,23.63,5.1,23.63Z" transform="translate(0 -0.44)" style="fill:#2c80c3"/><path d="M16.08,23.63H7.92a.27.27,0,0,1-.25-.24.28.28,0,0,1,.25-.25h8.16a.28.28,0,0,1,.25.25A.27.27,0,0,1,16.08,23.63Z" transform="translate(0 -0.44)" style="fill:#2c80c3"/><path d="M20.73,23.63H18.9a.27.27,0,0,1-.25-.24.28.28,0,0,1,.25-.25h1.83a2.74,2.74,0,0,0,2.74-2.73V8.86a.25.25,0,1,1,.49,0V20.41A3.18,3.18,0,0,1,20.73,23.63Z" transform="translate(0 -0.44)" style="fill:#2c80c3"/><path d="M16.86,5.8H7.43a.28.28,0,0,1-.25-.25V4.45A1.73,1.73,0,0,1,8.9,2.73h6.53a1.72,1.72,0,0,1,1.71,1.72v1.1A.36.36,0,0,1,16.86,5.8ZM7.67,5.27h8.94V4.41a1.19,1.19,0,0,0-1.18-1.19H8.9A1.19,1.19,0,0,0,7.71,4.41l0,.86Z" transform="translate(0 -0.44)" style="fill:#2c80c3"/><path d="M21.71,3.76A1.27,1.27,0,1,1,23,2.49,1.28,1.28,0,0,1,21.71,3.76Zm0-2a.78.78,0,1,0,.78.78A.78.78,0,0,0,21.71,1.71Z" transform="translate(0 -0.44)" style="fill:#2c80c3"/><path d="M3.06,3.76A1.56,1.56,0,1,1,4.61,2.2,1.55,1.55,0,0,1,3.06,3.76Zm0-2.58a1,1,0,0,0-1,1,1,1,0,0,0,2,0A1,1,0,0,0,3.06,1.18Z" transform="translate(0 -0.44)" style="fill:#2c80c3"/><path d="M7.92,23.63H5.1a.26.26,0,0,1-.24-.24V14.2A.26.26,0,0,1,5.1,14H7.92a.26.26,0,0,1,.24.24v9.19A.23.23,0,0,1,7.92,23.63Zm-2.53-.49H7.67V14.45H5.39Z" transform="translate(0 -0.44)" style="fill:#2c80c3"/><path d="M18.9,23.63H16.08a.26.26,0,0,1-.24-.24V14.2a.26.26,0,0,1,.24-.24H18.9a.26.26,0,0,1,.24.24v9.19A.23.23,0,0,1,18.9,23.63Zm-2.57-.49h2.28V14.45H16.33Z" transform="translate(0 -0.44)" style="fill:#2c80c3"/><path d="M14,16.49h-.77a.25.25,0,1,1,0-.49h.53V14.45H10.2V16h.53a.25.25,0,1,1,0,.49H10a.27.27,0,0,1-.25-.24V14.2A.27.27,0,0,1,10,14H14a.27.27,0,0,1,.25.24v2.05A.24.24,0,0,1,14,16.49Z" transform="translate(0 -0.44)" style="fill:#2c80c3"/><path d="M12,18.53A1.54,1.54,0,0,1,10.45,17v-.77a.26.26,0,0,1,.24-.25h2.58a.26.26,0,0,1,.24.25V17A1.45,1.45,0,0,1,12,18.53Zm-1-2V17a1,1,0,1,0,2,0v-.53Z" transform="translate(0 -0.44)" style="fill:#2c80c3"/><path d="M23.75,8.61H.29A.26.26,0,0,1,0,8.37a.27.27,0,0,1,.25-.25H23.75a.27.27,0,0,1,.25.25A.26.26,0,0,1,23.75,8.61Z" transform="translate(0 -0.44)" style="fill:#2c80c3"/></g></svg>