<svg id="Layer_1" data-name="Layer 1" xmlns="http://www.w3.org/2000/svg" viewBox="0 0 24 23.43"><g id="_443_Building_City_House_Living_Area" data-name="443, Building, City, House, Living Area"><polygon points="16.77 3.16 7.19 3.16 5.58 3.16 5.58 21.87 18.34 21.87 18.34 17.44 18.34 14.12 18.34 3.16 16.77 3.16" style="fill:#a1c6e9"/><rect x="14.08" y="17.95" width="2.13" height="2.11" style="fill:#fff"/><rect x="9.83" y="17.95" width="2.13" height="2.11" style="fill:#fff"/><rect x="7.7" y="15.84" width="2.13" height="2.11" style="fill:#fff"/><rect x="11.96" y="15.84" width="2.13" height="2.11" style="fill:#fff"/><rect x="14.08" y="13.74" width="2.13" height="2.11" style="fill:#fff"/><rect x="9.83" y="13.74" width="2.13" height="2.11" style="fill:#fff"/><rect x="11.96" y="11.63" width="2.13" height="2.11" style="fill:#fff"/><rect x="7.7" y="11.63" width="2.13" height="2.11" style="fill:#fff"/><rect x="9.83" y="9.52" width="2.13" height="2.11" style="fill:#fff"/><rect x="14.08" y="9.52" width="2.13" height="2.11" style="fill:#fff"/><rect x="14.08" y="5.31" width="2.13" height="2.11" style="fill:#fff"/><rect x="11.96" y="7.42" width="2.13" height="2.11" style="fill:#fff"/><rect x="7.7" y="7.42" width="2.13" height="2.11" style="fill:#fff"/><rect x="9.83" y="5.31" width="2.13" height="2.11" style="fill:#fff"/><rect x="14.08" y="15.84" width="2.13" height="2.11" style="fill:#fff"/><rect x="14.08" y="11.63" width="2.13" height="2.11" style="fill:#fff"/><rect x="14.08" y="7.42" width="2.13" height="2.11" style="fill:#fff"/><rect x="11.96" y="17.95" width="2.13" height="2.11" style="fill:#fff"/><rect x="11.96" y="13.74" width="2.13" height="2.11" style="fill:#fff"/><rect x="11.96" y="9.52" width="2.13" height="2.11" style="fill:#fff"/><rect x="11.96" y="5.31" width="2.13" height="2.11" style="fill:#fff"/><rect x="9.83" y="15.84" width="2.13" height="2.11" style="fill:#fff"/><rect x="9.83" y="11.63" width="2.13" height="2.11" style="fill:#fff"/><rect x="9.83" y="7.42" width="2.13" height="2.11" style="fill:#fff"/><rect x="7.7" y="17.95" width="2.13" height="2.11" style="fill:#fff"/><rect x="7.7" y="13.74" width="2.13" height="2.11" style="fill:#fff"/><rect x="7.7" y="9.52" width="2.13" height="2.11" style="fill:#fff"/><rect x="7.7" y="5.31" width="2.13" height="2.11" style="fill:#fff"/><polygon points="18.34 22.5 18.34 23.17 5.58 23.17 5.58 21.87 18.34 21.87 18.34 22.5" style="fill:#fff"/><rect x="8.77" y="0.42" width="6.38" height="1.39" style="fill:#a1c6e9"/><polygon points="16.77 1.81 16.77 3.16 7.19 3.16 7.19 1.81 8.77 1.81 15.15 1.81 16.77 1.81" style="fill:#fff"/><path d="M21.28,1.89a1.32,1.32,0,0,1,1.32,1.3,1.32,1.32,0,1,1-1.32-1.3Z" transform="translate(0 -0.29)" style="fill:#a1c6e9"/><path d="M2.13,4a1.06,1.06,0,1,1,0,2.11A1.06,1.06,0,1,1,2.13,4Z" transform="translate(0 -0.29)" style="fill:#a1c6e9"/><path d="M4,22.11a.67.67,0,0,1,.68.68.67.67,0,0,1-.68.67H2.43V21.1a1.21,1.21,0,0,1,1.19,1.1A.68.68,0,0,1,4,22.11Z" transform="translate(0 -0.29)" style="fill:#fff"/><path d="M22.3,22.11a.67.67,0,0,1,.68.68.67.67,0,0,1-.68.67H20.77V21.1A1.21,1.21,0,0,1,22,22.2.68.68,0,0,1,22.3,22.11Z" transform="translate(0 -0.29)" style="fill:#fff"/><path d="M20.77,21.1v2.36H19.06a.67.67,0,0,1-.68-.67.67.67,0,0,1,.68-.68.71.71,0,0,1,.51.21v0a1.16,1.16,0,0,1,1.2-1.18Z" transform="translate(0 -0.29)" style="fill:#fff"/><path d="M20.77,19a3,3,0,0,1-2.39-1.22V14.4h0a2.86,2.86,0,0,1,2.39-1.22,2.91,2.91,0,1,1,0,5.81Z" transform="translate(0 -0.29)" style="fill:#a1c6e9"/><path d="M2.38,19.5A2.09,2.09,0,0,1,.26,17.39v-5A2.1,2.1,0,0,1,3.87,11a2.09,2.09,0,0,1,.64,1.47v5A2.09,2.09,0,0,1,2.38,19.5Z" transform="translate(0 -0.29)" style="fill:#fff"/><path d="M23,19.79a.38.38,0,1,1-.38.38A.38.38,0,0,1,23,19.79Z" transform="translate(0 -0.29)" style="fill:#2c80c3"/><path d="M22.77,6.1a.38.38,0,1,1-.39.38A.38.38,0,0,1,22.77,6.1Z" transform="translate(0 -0.29)" style="fill:#2c80c3"/><path d="M20.08,10.82a.38.38,0,1,1-.38.38A.38.38,0,0,1,20.08,10.82Z" transform="translate(0 -0.29)" style="fill:#2c80c3"/><ellipse cx="18.51" cy="0.38" rx="0.38" ry="0.38" style="fill:#2c80c3"/><path d="M3.87,1.09a.39.39,0,0,1,.39.38.39.39,0,0,1-.39.38.38.38,0,0,1,0-.76Z" transform="translate(0 -0.29)" style="fill:#2c80c3"/><path d="M.94,8.21a.38.38,0,1,1-.39.38A.38.38,0,0,1,.94,8.21Z" transform="translate(0 -0.29)" style="fill:#2c80c3"/><path d="M.68,20.85a.38.38,0,1,1-.38.38A.38.38,0,0,1,.68,20.85Z" transform="translate(0 -0.29)" style="fill:#2c80c3"/><path d="M5.57,23.71a.27.27,0,0,1-.25-.25v-20a.28.28,0,0,1,.25-.26H7.19a.28.28,0,0,1,.26.26.28.28,0,0,1-.26.25H5.87V23.46A.28.28,0,0,1,5.57,23.71Z" transform="translate(0 -0.29)" style="fill:#2c80c3"/><path d="M18.34,23.71a.26.26,0,0,1-.25-.25V3.7H16.77a.28.28,0,0,1-.26-.25.28.28,0,0,1,.26-.26h1.61a.28.28,0,0,1,.26.26v20A.28.28,0,0,1,18.34,23.71Z" transform="translate(0 -0.29)" style="fill:#2c80c3"/><path d="M16.77,3.7H7.19a.27.27,0,0,1-.25-.25V2.06a.27.27,0,0,1,.25-.26H8.81a.27.27,0,0,1,.25.26.27.27,0,0,1-.25.25H7.49v.84h9.06V2.31H15.23A.28.28,0,0,1,15,2.06a.28.28,0,0,1,.25-.26h1.62a.28.28,0,0,1,.26.26V3.45C17,3.57,16.89,3.7,16.77,3.7Z" transform="translate(0 -0.29)" style="fill:#2c80c3"/><path d="M15.15,2.35H8.77a.28.28,0,0,1-.26-.25V.71A.27.27,0,0,1,8.77.46h6.38a.26.26,0,0,1,.25.25V2.1C15.45,2.22,15.32,2.35,15.15,2.35ZM9.06,1.8h5.88V1H9.06Z" transform="translate(0 -0.29)" style="fill:#2c80c3"/><path d="M23.74,23.71H.34a.25.25,0,1,1,0-.5h23.4a.25.25,0,1,1,0,.5Z" transform="translate(0 -0.29)" style="fill:#2c80c3"/><path d="M7.7,8a.27.27,0,0,1-.25-.26V5.64a.27.27,0,0,1,.25-.26H9.83a.26.26,0,1,1,0,.51H8V7.74C8,7.87,7.87,8,7.7,8Z" transform="translate(0 -0.29)" style="fill:#2c80c3"/><path d="M9.83,8a.28.28,0,0,1-.26-.26V5.64a.28.28,0,0,1,.26-.26H12a.26.26,0,0,1,0,.51H10.09V7.74C10.13,7.87,10,8,9.83,8Z" transform="translate(0 -0.29)" style="fill:#2c80c3"/><path d="M12,8a.28.28,0,0,1-.26-.26V5.64A.28.28,0,0,1,12,5.38h2.12a.26.26,0,1,1,0,.51H12.21V7.74C12.26,7.87,12.13,8,12,8Z" transform="translate(0 -0.29)" style="fill:#2c80c3"/><path d="M16.21,8A.28.28,0,0,1,16,7.74V5.89H14.34V7.74a.26.26,0,1,1-.51,0V5.64a.28.28,0,0,1,.25-.26h2.13a.28.28,0,0,1,.26.26v2.1C16.51,7.87,16.38,8,16.21,8Z" transform="translate(0 -0.29)" style="fill:#2c80c3"/><path d="M7.7,10.1a.26.26,0,0,1-.25-.25V7.74a.27.27,0,0,1,.25-.25H9.83a.26.26,0,1,1,0,.51H8V9.85C8,10,7.87,10.1,7.7,10.1Z" transform="translate(0 -0.29)" style="fill:#2c80c3"/><path d="M9.83,10.1a.27.27,0,0,1-.26-.25V7.74a.28.28,0,0,1,.26-.25H12A.26.26,0,0,1,12,8H10.09V9.85C10.13,10,10,10.1,9.83,10.1Z" transform="translate(0 -0.29)" style="fill:#2c80c3"/><path d="M12,10.1a.27.27,0,0,1-.26-.25V7.74A.28.28,0,0,1,12,7.49h2.12a.26.26,0,1,1,0,.51H12.21V9.85C12.26,10,12.13,10.1,12,10.1Z" transform="translate(0 -0.29)" style="fill:#2c80c3"/><path d="M16.21,10.1A.27.27,0,0,1,16,9.85V8H14.34V9.85a.26.26,0,0,1-.51,0V7.74a.28.28,0,0,1,.25-.25h2.13a.28.28,0,0,1,.26.25V9.85C16.51,10,16.38,10.1,16.21,10.1Z" transform="translate(0 -0.29)" style="fill:#2c80c3"/><path d="M7.7,12.21A.27.27,0,0,1,7.45,12V9.85A.26.26,0,0,1,7.7,9.6H9.83a.25.25,0,1,1,0,.5H8V12C8,12.08,7.87,12.21,7.7,12.21Z" transform="translate(0 -0.29)" style="fill:#2c80c3"/><path d="M9.83,12.21A.28.28,0,0,1,9.57,12V9.85a.27.27,0,0,1,.26-.25H12a.25.25,0,0,1,0,.5H10.09V12C10.13,12.08,10,12.21,9.83,12.21Z" transform="translate(0 -0.29)" style="fill:#2c80c3"/><path d="M12,12.21A.28.28,0,0,1,11.7,12V9.85A.27.27,0,0,1,12,9.6h2.12a.25.25,0,1,1,0,.5H12.21V12C12.26,12.08,12.13,12.21,12,12.21Z" transform="translate(0 -0.29)" style="fill:#2c80c3"/><path d="M16.21,12.21A.28.28,0,0,1,16,12V10.1H14.34V12a.26.26,0,0,1-.51,0V9.85a.27.27,0,0,1,.25-.25h2.13a.27.27,0,0,1,.26.25V12C16.51,12.08,16.38,12.21,16.21,12.21Z" transform="translate(0 -0.29)" style="fill:#2c80c3"/><path d="M7.7,14.32a.27.27,0,0,1-.25-.26V12a.26.26,0,0,1,.25-.25H9.83a.27.27,0,0,1,.26.25.28.28,0,0,1-.26.25H8v1.85C8,14.19,7.87,14.32,7.7,14.32Z" transform="translate(0 -0.29)" style="fill:#2c80c3"/><path d="M9.83,14.32a.28.28,0,0,1-.26-.26V12a.27.27,0,0,1,.26-.25H12a.26.26,0,0,1,.25.25.27.27,0,0,1-.25.25H10.09v1.85C10.13,14.19,10,14.32,9.83,14.32Z" transform="translate(0 -0.29)" style="fill:#2c80c3"/><path d="M12,14.32a.28.28,0,0,1-.26-.26V12a.27.27,0,0,1,.26-.25h2.12a.27.27,0,0,1,.26.25.28.28,0,0,1-.26.25H12.21v1.85C12.26,14.19,12.13,14.32,12,14.32Z" transform="translate(0 -0.29)" style="fill:#2c80c3"/><path d="M16.21,14.32a.28.28,0,0,1-.25-.26V12.21H14.34v1.85a.26.26,0,1,1-.51,0V12a.27.27,0,0,1,.25-.25h2.13a.27.27,0,0,1,.26.25v2.1C16.51,14.19,16.38,14.32,16.21,14.32Z" transform="translate(0 -0.29)" style="fill:#2c80c3"/><path d="M7.7,16.42a.26.26,0,0,1-.25-.25V14.06a.27.27,0,0,1,.25-.25H9.83a.26.26,0,1,1,0,.51H8v1.85C8,16.3,7.87,16.42,7.7,16.42Z" transform="translate(0 -0.29)" style="fill:#2c80c3"/><path d="M9.83,16.42a.27.27,0,0,1-.26-.25V14.06a.28.28,0,0,1,.26-.25H12a.26.26,0,0,1,0,.51H10.09v1.85C10.13,16.3,10,16.42,9.83,16.42Z" transform="translate(0 -0.29)" style="fill:#2c80c3"/><path d="M12,16.42a.27.27,0,0,1-.26-.25V14.06a.28.28,0,0,1,.26-.25h2.12a.26.26,0,1,1,0,.51H12.21v1.85C12.26,16.3,12.13,16.42,12,16.42Z" transform="translate(0 -0.29)" style="fill:#2c80c3"/><path d="M16.21,16.42a.27.27,0,0,1-.25-.25V14.32H14.34v1.85a.26.26,0,0,1-.51,0V14.06a.28.28,0,0,1,.25-.25h2.13a.28.28,0,0,1,.26.25v2.11C16.51,16.3,16.38,16.42,16.21,16.42Z" transform="translate(0 -0.29)" style="fill:#2c80c3"/><path d="M7.7,18.53a.27.27,0,0,1-.25-.25V16.17a.26.26,0,0,1,.25-.25H9.83a.25.25,0,1,1,0,.5H8v1.86C8,18.4,7.87,18.53,7.7,18.53Z" transform="translate(0 -0.29)" style="fill:#2c80c3"/><path d="M9.83,18.53a.28.28,0,0,1-.26-.25V16.17a.27.27,0,0,1,.26-.25H12a.25.25,0,0,1,0,.5H10.09v1.86C10.13,18.4,10,18.53,9.83,18.53Z" transform="translate(0 -0.29)" style="fill:#2c80c3"/><path d="M12,18.53a.28.28,0,0,1-.26-.25V16.17a.27.27,0,0,1,.26-.25h2.12a.25.25,0,1,1,0,.5H12.21v1.86C12.26,18.4,12.13,18.53,12,18.53Z" transform="translate(0 -0.29)" style="fill:#2c80c3"/><path d="M16.21,18.53a.28.28,0,0,1-.25-.25V16.42H14.34v1.86a.26.26,0,0,1-.51,0V16.17a.27.27,0,0,1,.25-.25h2.13a.27.27,0,0,1,.26.25v2.11C16.51,18.4,16.38,18.53,16.21,18.53Z" transform="translate(0 -0.29)" style="fill:#2c80c3"/><path d="M9.83,20.64H7.7a.27.27,0,0,1-.25-.26v-2.1A.26.26,0,0,1,7.7,18H9.83a.27.27,0,0,1,.26.25.28.28,0,0,1-.26.25H8v1.6H9.83a.28.28,0,0,1,.26.25C10.13,20.51,10,20.64,9.83,20.64Z" transform="translate(0 -0.29)" style="fill:#2c80c3"/><path d="M12,20.64H9.83a.28.28,0,0,1-.26-.26v-2.1A.27.27,0,0,1,9.83,18H12a.26.26,0,0,1,.25.25.27.27,0,0,1-.25.25H10.09v1.6H12a.27.27,0,0,1,.25.25C12.26,20.51,12.13,20.64,12,20.64Z" transform="translate(0 -0.29)" style="fill:#2c80c3"/><path d="M14.08,20.64H12a.28.28,0,0,1-.26-.26v-2.1A.27.27,0,0,1,12,18h2.12a.27.27,0,0,1,.26.25.28.28,0,0,1-.26.25H12.21v1.6h1.87a.28.28,0,0,1,.26.25C14.38,20.51,14.26,20.64,14.08,20.64Z" transform="translate(0 -0.29)" style="fill:#2c80c3"/><path d="M16.21,20.64H14.08a.28.28,0,0,1-.25-.26v-2.1a.27.27,0,0,1,.25-.25h2.13a.27.27,0,0,1,.26.25v2.1C16.51,20.51,16.38,20.64,16.21,20.64Zm-1.83-.55H16v-1.6H14.38Z" transform="translate(0 -0.29)" style="fill:#2c80c3"/><path d="M18.34,22.41H5.57a.26.26,0,0,1,0-.51H18.34a.28.28,0,0,1,.26.25C18.64,22.28,18.51,22.41,18.34,22.41Z" transform="translate(0 -0.29)" style="fill:#2c80c3"/><path d="M20.77,19.25a3.21,3.21,0,0,1-2.6-1.35s0-.09,0-.17v-.08a.26.26,0,1,1,.51,0,2.63,2.63,0,0,0,2.13,1.05A2.69,2.69,0,0,0,23.45,16a2.66,2.66,0,0,0-4.85-1.51.29.29,0,0,1-.39.08.27.27,0,0,1-.08-.38,3.18,3.18,0,1,1,2.64,5Z" transform="translate(0 -0.29)" style="fill:#2c80c3"/><path d="M2.38,19.79A2.36,2.36,0,0,1,0,17.44v-5a2.37,2.37,0,0,1,2.38-2.36,2.53,2.53,0,0,1,1.71.68,2.33,2.33,0,0,1,.68,1.68v5A2.37,2.37,0,0,1,2.38,19.79Zm0-9.22A1.88,1.88,0,0,0,.51,12.42v5a1.88,1.88,0,0,0,3.75,0v-5a1.83,1.83,0,0,0-.56-1.3A1.72,1.72,0,0,0,2.38,10.57Z" transform="translate(0 -0.29)" style="fill:#2c80c3"/><path d="M20.77,23.71a.27.27,0,0,1-.26-.25V16A.26.26,0,0,1,21,16v7.42A.27.27,0,0,1,20.77,23.71Z" transform="translate(0 -0.29)" style="fill:#2c80c3"/><path d="M2.38,23.71a.27.27,0,0,1-.25-.25V13.14a.28.28,0,0,1,.25-.26.28.28,0,0,1,.26.26V23.46C2.68,23.59,2.55,23.71,2.38,23.71Z" transform="translate(0 -0.29)" style="fill:#2c80c3"/><path d="M2.38,15.83a.24.24,0,0,1-.21-.12L1.11,14.32a.26.26,0,0,1,0-.38.26.26,0,0,1,.38,0L2.6,15.37a.27.27,0,0,1-.05.38A.21.21,0,0,1,2.38,15.83Z" transform="translate(0 -0.29)" style="fill:#2c80c3"/><path d="M2.38,17.14a.15.15,0,0,1-.12,0,.28.28,0,0,1-.09-.38L3,15.41a.28.28,0,0,1,.47.3L2.64,17A.29.29,0,0,1,2.38,17.14Z" transform="translate(0 -0.29)" style="fill:#2c80c3"/><path d="M20.77,17.94a.25.25,0,0,1-.17,0,.27.27,0,0,1-.05-.38l.81-1.05a.27.27,0,1,1,.43.33L21,17.86C20.89,17.9,20.85,17.94,20.77,17.94Z" transform="translate(0 -0.29)" style="fill:#2c80c3"/><path d="M20.77,18.45a.26.26,0,0,1-.22-.13l-.81-1.05a.23.23,0,0,1,.05-.34.28.28,0,0,1,.38,0L21,18a.27.27,0,0,1,0,.37A.3.3,0,0,1,20.77,18.45Z" transform="translate(0 -0.29)" style="fill:#2c80c3"/><path d="M2.38,17.69a.23.23,0,0,1-.21-.13l-.77-1a.27.27,0,0,1,.05-.38.26.26,0,0,1,.38,0l.81,1a.28.28,0,0,1,0,.38C2.51,17.65,2.47,17.69,2.38,17.69Z" transform="translate(0 -0.29)" style="fill:#2c80c3"/><path d="M22.3,23.71a.25.25,0,1,1,0-.5.42.42,0,0,0,.42-.42.43.43,0,0,0-.42-.43.31.31,0,0,0-.21.05.3.3,0,0,1-.26,0,.24.24,0,0,1-.13-.21.92.92,0,0,0-.93-.85,1,1,0,0,0-.94.93v0a.24.24,0,0,1-.17.26.28.28,0,0,1-.3-.09.47.47,0,0,0-.3-.13.43.43,0,0,0,0,.85.25.25,0,1,1,0,.5.93.93,0,1,1,0-1.85.75.75,0,0,1,.3,0,1.42,1.42,0,0,1,1.41-1,1.47,1.47,0,0,1,1.4,1h.13a.93.93,0,1,1,0,1.85Z" transform="translate(0 -0.29)" style="fill:#2c80c3"/><path d="M4,23.71a.25.25,0,1,1,0-.5.42.42,0,0,0,.42-.42A.43.43,0,0,0,4,22.36a.36.36,0,0,0-.22.05.28.28,0,0,1-.25,0,.24.24,0,0,1-.13-.21.92.92,0,0,0-.93-.85.25.25,0,1,1,0-.5,1.47,1.47,0,0,1,1.4,1H4a.93.93,0,1,1,0,1.85Z" transform="translate(0 -0.29)" style="fill:#2c80c3"/><path d="M2.13,6.35a1.31,1.31,0,1,1,1.32-1.3A1.31,1.31,0,0,1,2.13,6.35Zm0-2.1a.8.8,0,0,0-.81.8.78.78,0,0,0,.81.8.78.78,0,0,0,.81-.8A.8.8,0,0,0,2.13,4.25Z" transform="translate(0 -0.29)" style="fill:#2c80c3"/><path d="M21.28,4.75a1.6,1.6,0,1,1,1.61-1.6A1.6,1.6,0,0,1,21.28,4.75Zm0-2.61a1.06,1.06,0,1,0,1.06,1A1,1,0,0,0,21.28,2.14Z" transform="translate(0 -0.29)" style="fill:#2c80c3"/></g></svg>