<svg id="Layer_1" data-name="Layer 1" xmlns="http://www.w3.org/2000/svg" viewBox="0 0 19.12 24"><g id="_102_Barcode_Mobile_Phone_Scan_Scanner" data-name="102, Barcode, Mobile, Phone, Scan, Scanner"><path d="M18.5,20.16v1.51a2,2,0,0,1-2.05,2H7.27a2,2,0,0,1-2-2V20.16Z" transform="translate(-2.44)" style="fill:#a1c6e9"/><path d="M18.5,3.06V16l-4.17,4.16H5.23V7.22L9.39,3.06Z" transform="translate(-2.44)" style="fill:#fff"/><polygon points="16.05 16 16.05 20.16 11.89 20.16 16.05 16" style="fill:#fff"/><polygon points="6.95 3.06 2.79 7.22 2.79 6.9 2.79 3.06 6.95 3.06" style="fill:#fff"/><path d="M11.84,21.18a.78.78,0,0,1,.78.78.75.75,0,0,1-.78.77.76.76,0,0,1-.77-.77A.8.8,0,0,1,11.84,21.18Z" transform="translate(-2.44)" style="fill:#fff"/><path d="M18.5,2.33v.73H5.23V2.33a2,2,0,0,1,2-2h9.14A2.05,2.05,0,0,1,18.5,2.33Z" transform="translate(-2.44)" style="fill:#a1c6e9"/><path d="M11.84,23a1,1,0,1,1,1-1A1,1,0,0,1,11.84,23Zm0-1.55a.54.54,0,0,0-.53.53.55.55,0,0,0,.53.53.54.54,0,0,0,.53-.53A.53.53,0,0,0,11.84,21.43Z" transform="translate(-2.44)" style="fill:#2c80c3"/><path d="M12.62,2H11.07a.26.26,0,0,1-.25-.24.26.26,0,0,1,.25-.25h1.55a.26.26,0,0,1,.24.25A.23.23,0,0,1,12.62,2Z" transform="translate(-2.44)" style="fill:#2c80c3"/><path d="M14.33,20.41a.21.21,0,0,1-.16-.08.31.31,0,0,1,0-.37l4.16-4.16a.29.29,0,0,1,.37,0,.3.3,0,0,1,0,.36l-4.2,4.17C14.45,20.41,14.41,20.41,14.33,20.41Z" transform="translate(-2.44)" style="fill:#2c80c3"/><path d="M5.23,7.47a.21.21,0,0,1-.16-.08.31.31,0,0,1,0-.37L9.23,2.86a.31.31,0,0,1,.37,0,.3.3,0,0,1,0,.36L5.39,7.43S5.31,7.47,5.23,7.47Z" transform="translate(-2.44)" style="fill:#2c80c3"/><path d="M18.5,3.35H5.23A.27.27,0,0,1,5,3.1a.26.26,0,0,1,.24-.24H18.5a.26.26,0,0,1,.24.24A.27.27,0,0,1,18.5,3.35Z" transform="translate(-2.44)" style="fill:#2c80c3"/><path d="M18.5,20.41H5.23a.25.25,0,0,1,0-.49H18.5a.25.25,0,0,1,0,.49Z" transform="translate(-2.44)" style="fill:#2c80c3"/><path d="M16.45,24H7.27a2.33,2.33,0,0,1-2.33-2.33V2.33A2.33,2.33,0,0,1,7.27,0h9.14a2.33,2.33,0,0,1,2.33,2.33V21.67A2.32,2.32,0,0,1,16.45,24ZM7.27.53a1.81,1.81,0,0,0-1.79,1.8V21.67a1.81,1.81,0,0,0,1.79,1.8h9.14a1.82,1.82,0,0,0,1.8-1.8V2.33a1.82,1.82,0,0,0-1.8-1.8Z" transform="translate(-2.44)" style="fill:#2c80c3"/><path d="M21.05,7v7.2a1.69,1.69,0,0,1-1.67,1.67H4.55a1.69,1.69,0,0,1-1.67-1.67V7A1.69,1.69,0,0,1,4.55,5.35h14.9A1.73,1.73,0,0,1,21.05,7Z" transform="translate(-2.44)" style="fill:#a1c6e9"/><path d="M19.45,16.32H4.55a2.11,2.11,0,0,1-2.11-2.1V7A2.12,2.12,0,0,1,4.55,4.91h14.9A2.12,2.12,0,0,1,21.56,7v7.2A2.11,2.11,0,0,1,19.45,16.32ZM4.55,5.86A1.14,1.14,0,0,0,3.39,7v7.2a1.14,1.14,0,0,0,1.16,1.16h14.9a1.14,1.14,0,0,0,1.16-1.16V7a1.14,1.14,0,0,0-1.16-1.16Z" transform="translate(-2.44)" style="fill:#2c80c3"/><path d="M18.36,14.51a.47.47,0,0,1-.44-.44V7.24a.44.44,0,1,1,.88,0v6.83A.47.47,0,0,1,18.36,14.51Z" transform="translate(-2.44)" style="fill:#2c80c3"/><path d="M16.54,14.07a.47.47,0,0,1-.43-.44V7.24a.44.44,0,1,1,.87,0v6.39A.47.47,0,0,1,16.54,14.07Z" transform="translate(-2.44)" style="fill:#2c80c3"/><path d="M14.73,13.56a.47.47,0,0,1-.44-.44V7.24a.44.44,0,1,1,.87,0v5.88A.47.47,0,0,1,14.73,13.56Z" transform="translate(-2.44)" style="fill:#2c80c3"/><path d="M12.91,13.12a.46.46,0,0,1-.44-.43V7.24a.47.47,0,0,1,.44-.44.46.46,0,0,1,.43.44v5.45A.45.45,0,0,1,12.91,13.12Z" transform="translate(-2.44)" style="fill:#2c80c3"/><path d="M11.09,13.12a.45.45,0,0,1-.43-.43V7.24a.46.46,0,0,1,.43-.44.47.47,0,0,1,.44.44v5.45A.46.46,0,0,1,11.09,13.12Z" transform="translate(-2.44)" style="fill:#2c80c3"/><path d="M9.27,13.56a.47.47,0,0,1-.43-.44V7.24a.44.44,0,1,1,.87,0v5.88A.47.47,0,0,1,9.27,13.56Z" transform="translate(-2.44)" style="fill:#2c80c3"/><path d="M7.46,14.07A.47.47,0,0,1,7,13.63V7.24a.44.44,0,1,1,.87,0v6.39A.47.47,0,0,1,7.46,14.07Z" transform="translate(-2.44)" style="fill:#2c80c3"/><path d="M5.64,14.51a.47.47,0,0,1-.44-.44V7.24a.47.47,0,0,1,.44-.44.47.47,0,0,1,.44.44v6.83A.47.47,0,0,1,5.64,14.51Z" transform="translate(-2.44)" style="fill:#2c80c3"/><path d="M13.88,16.08H6.74a.25.25,0,0,1,0-.49h7.14a.26.26,0,0,1,.25.25A.23.23,0,0,1,13.88,16.08Z" transform="translate(-2.44)" style="fill:#2c80c3"/><path d="M13.88,17.1H6.74a.25.25,0,0,1,0-.49h7.14a.26.26,0,0,1,.25.25A.23.23,0,0,1,13.88,17.1Z" transform="translate(-2.44)" style="fill:#2c80c3"/><path d="M11.35,18.12H6.74a.26.26,0,0,1-.24-.24.27.27,0,0,1,.24-.25h4.61a.27.27,0,0,1,.25.25A.26.26,0,0,1,11.35,18.12Z" transform="translate(-2.44)" style="fill:#2c80c3"/></g></svg>