<svg id="Layer_1" data-name="Layer 1" xmlns="http://www.w3.org/2000/svg" viewBox="0 0 22.82 24"><g id="C_-_65_Employee_hr_human_hunting_personal_resources_resume_search" data-name="C - 65, Employee, hr, human, hunting, personal, resources, resume, search"><path d="M17.55,7.83A3.88,3.88,0,0,1,18,12.59a.1.1,0,0,1-.09.09s0,.09-.09.09,0,.08-.08.08h0l-.09.09-.09.09,0,0-.05,0,0,.05-.09.09-.08.08-.09.09h0c-.05,0-.05,0-.09,0l0,0-.05,0,0,0s-.09,0-.09.08,0,.05-.09.05,0,0-.08,0h0c-.05,0-.05,0-.09,0s-.09,0-.09,0a4,4,0,0,1-4.76-.75A3.88,3.88,0,0,1,11,11.93s0,0,0-.08,0,0-.05-.09,0,0,0-.09v0c0-.05,0-.09,0-.18s0,0,0-.08,0-.09,0-.09V10h0V9.84c0-.09,0-.22,0-.31s0,0,0-.09,0,0,0-.08,0-.14,0-.18,0,0,.05-.09h0s0,0,0-.08l.13-.27s.05,0,.05-.08h0c0-.05,0-.05,0-.09h0c0-.05,0-.05,0-.09s0,0,0-.09a3.07,3.07,0,0,1,.61-.7A4,4,0,0,1,17.55,7.83Z" transform="translate(-0.59)" style="fill:#fff"/><path d="M18,12.59l1.44,1.53L18,15.48,16.59,14s.09,0,.09,0a.14.14,0,0,0,.08,0h0a.14.14,0,0,0,.09,0s0,0,.09,0,.09,0,.09-.09a0,0,0,0,0,0,0l0,0,.05,0s0,0,.09,0h0l.08-.09.09-.09.09-.08,0-.05.05,0,0-.05.09-.08.08-.09h0c.05,0,.05-.09.09-.09s.05-.08.09-.08S18,12.63,18,12.59Z" transform="translate(-0.59)" style="fill:#fff"/><path d="M21.44,15.56l1.71,1.8-1.71,1.57-.48.44L17.6,15.78l.35-.35,1.44-1.35.35-.35Zm0,1.8a.49.49,0,1,0-.48.48A.49.49,0,0,0,21.49,17.36Z" transform="translate(-0.59)" style="fill:#fff"/><path d="M11.39,8.39s-.05,0-.05.09,0,0,0,.09h0s0,0,0,.09h0s0,0,0,.08L11.08,9s0,0,0,.08h0c0,.05,0,.05,0,.09a.28.28,0,0,0,0,.18s0,0,0,.08,0,.05-.05.09a.83.83,0,0,0,0,.31V10h0v1.27s0,.09,0,.09,0,0,.05.08,0,.09,0,.18v0c0,.05,0,.05,0,.09s0,0,0,.09,0,0,0,.08H4.79V9.75A1.75,1.75,0,0,1,6.54,8h3.89A2.35,2.35,0,0,1,11.39,8.39Zm-2.67,2.1v-1h-1v1Z" transform="translate(-0.59)" style="fill:#fff"/><path d="M8.46,2.71a2,2,0,1,1-2,2A2,2,0,0,1,8.46,2.71Z" transform="translate(-0.59)" style="fill:#fff"/><path d="M21.44,18.93v2.8H2.82V.26H21.44v15.3l-1.66-1.75-.35.35L18,12.63a3.91,3.91,0,0,0-6-4.94,7.63,7.63,0,0,0-.61.7,1.82,1.82,0,0,0-1-.3H6.54A1.75,1.75,0,0,0,4.79,9.84V12H11a3.4,3.4,0,0,0,.79,1.18,3.87,3.87,0,0,0,4.76.75L18,15.48l-.35.35,3.37,3.58Zm-11-14.3a2,2,0,1,0-2,2A2,2,0,0,0,10.43,4.63Z" transform="translate(-0.59)" style="fill:#a1c6e9"/><path d="M21,16.87a.49.49,0,1,1-.49.49A.45.45,0,0,1,21,16.87Z" transform="translate(-0.59)" style="fill:#5180c1"/><rect x="7.13" y="9.53" width="0.96" height="0.96" style="fill:#5180c1"/><path d="M21,19.63c-.09,0-.14-.05-.22-.09a.32.32,0,0,1,0-.39l.48-.44a.28.28,0,0,1,.39.39l-.48.44A.17.17,0,0,1,21,19.63Z" transform="translate(-0.59)" style="fill:#5180c1"/><path d="M21.44,22H2.82a.28.28,0,0,1-.26-.26V.26A.28.28,0,0,1,2.82,0H21.44a.28.28,0,0,1,.26.26v15.3a.26.26,0,1,1-.52,0V.52H3.08V21.46h18.1V18.93a.26.26,0,0,1,.52,0v2.8C21.7,21.9,21.62,22,21.44,22Z" transform="translate(-0.59)" style="fill:#5180c1"/><path d="M11.3,8.79a.15.15,0,0,1-.13,0,.28.28,0,0,1-.09-.39s.05,0,.05-.09a.29.29,0,0,1,.39-.09.3.3,0,0,1,.09.4s0,0,0,.09A.38.38,0,0,1,11.3,8.79Z" transform="translate(-0.59)" style="fill:#5180c1"/><path d="M11.26,8.87a.16.16,0,0,1-.13,0A.27.27,0,0,1,11,8.44s0,0,0-.09a.29.29,0,1,1,.48.31s0,0,0,.08A.38.38,0,0,1,11.26,8.87Z" transform="translate(-0.59)" style="fill:#5180c1"/><path d="M11.21,9a.18.18,0,0,1-.13,0A.3.3,0,0,1,11,8.57c0-.05,0-.05,0-.09a.29.29,0,0,1,.49.31s-.05,0-.05.08A.3.3,0,0,1,11.21,9Z" transform="translate(-0.59)" style="fill:#5180c1"/><path d="M11,9.36H11A.24.24,0,0,1,10.82,9a.14.14,0,0,1,0-.09.26.26,0,0,1,.48.22s0,0,0,.08A.44.44,0,0,1,11,9.36Z" transform="translate(-0.59)" style="fill:#5180c1"/><path d="M11,9.44h-.08a.3.3,0,0,1-.18-.35h0s0,0,0-.08a.24.24,0,0,1,.35-.14.25.25,0,0,1,.13.35s0,0,0,.09h0S11.13,9.44,11,9.44Z" transform="translate(-0.59)" style="fill:#5180c1"/><path d="M10.86,9.79h-.08a.27.27,0,0,1-.18-.35s0,0,0-.08,0,0,0-.09h0A.28.28,0,0,1,11,9.09a.28.28,0,0,1,.17.35h0v.09s0,0,0,.09A.29.29,0,0,1,10.86,9.79Z" transform="translate(-0.59)" style="fill:#5180c1"/><path d="M10.78,10.32h0c-.18-.05-.31-.18-.27-.31V9.84c.05-.13.18-.27.31-.22s.26.17.22.3v.18A.28.28,0,0,1,10.78,10.32Z" transform="translate(-0.59)" style="fill:#5180c1"/><path d="M10.78,10.4h0a.25.25,0,0,1-.27-.3V10c0-.13.18-.26.31-.26a.24.24,0,0,1,.22.31v.08A.28.28,0,0,1,10.78,10.4Z" transform="translate(-0.59)" style="fill:#5180c1"/><path d="M10.78,10.58h0c-.18,0-.27-.13-.27-.31v-.08a.29.29,0,1,1,.57,0v.09A.31.31,0,0,1,10.78,10.58Z" transform="translate(-0.59)" style="fill:#5180c1"/><path d="M10.78,10.71a.28.28,0,0,1-.27-.26v-.09a.29.29,0,0,1,.31-.26.29.29,0,0,1,.26.3v0A.36.36,0,0,1,10.78,10.71Z" transform="translate(-0.59)" style="fill:#5180c1"/><path d="M10.78,11.15a.25.25,0,0,1-.27-.26v-.22a.27.27,0,1,1,.53,0v.13h0v0a.25.25,0,0,1-.26.31Z" transform="translate(-0.59)" style="fill:#5180c1"/><path d="M10.82,11.41a.25.25,0,0,1-.26-.22V11.1c0-.13.08-.3.22-.3s.3.09.3.22v0a.26.26,0,0,1-.22.31Z" transform="translate(-0.59)" style="fill:#5180c1"/><path d="M10.86,11.63a.27.27,0,0,1-.26-.22v-.17a.26.26,0,0,1,.22-.31.27.27,0,0,1,.31.22v.09h0v.08a.24.24,0,0,1-.22.31Z" transform="translate(-0.59)" style="fill:#5180c1"/><path d="M10.91,11.8a.28.28,0,0,1-.27-.22s0,0,0-.08a.24.24,0,0,1,.22-.31.24.24,0,0,1,.31.22v.09a.31.31,0,0,1-.18.35S10.91,11.8,10.91,11.8Z" transform="translate(-0.59)" style="fill:#5180c1"/><path d="M11,12a.3.3,0,0,1-.26-.17s0,0,0-.09a.3.3,0,0,1,.18-.35.3.3,0,0,1,.35.17v.05A.3.3,0,0,1,11,12S11,12,11,12Z" transform="translate(-0.59)" style="fill:#5180c1"/><path d="M11,12.15a.28.28,0,0,1-.26-.17c0-.05,0-.05,0-.09a.29.29,0,0,1,.17-.35.29.29,0,0,1,.35.18v0a.26.26,0,0,1-.17.35S11,12.15,11,12.15Z" transform="translate(-0.59)" style="fill:#5180c1"/><path d="M14.67,14.69a4.1,4.1,0,0,1-3.06-1.31,5.54,5.54,0,0,1-.83-1.27.27.27,0,0,1,.13-.35.28.28,0,0,1,.35.13A4.28,4.28,0,0,0,12,13a3.59,3.59,0,0,0,4.41.7.25.25,0,1,1,.26.43A3.74,3.74,0,0,1,14.67,14.69Z" transform="translate(-0.59)" style="fill:#5180c1"/><path d="M16.68,14.16a.23.23,0,0,1-.22-.13.28.28,0,0,1,.09-.39s0,0,.08,0a.29.29,0,0,1,.4.08.3.3,0,0,1-.09.4.19.19,0,0,0-.09,0C16.76,14.12,16.72,14.16,16.68,14.16Z" transform="translate(-0.59)" style="fill:#5180c1"/><path d="M16.76,14.08a.24.24,0,0,1-.21-.13.29.29,0,0,1,.08-.4c.05,0,.05,0,.09,0s0,0,.09,0a.33.33,0,0,1,.39,0,.32.32,0,0,1,0,.39c-.05,0-.09,0-.13.09a.09.09,0,0,0-.09.09Z" transform="translate(-0.59)" style="fill:#5180c1"/><path d="M17.07,13.9a.24.24,0,0,1-.22-.13.31.31,0,0,1,0-.39l0-.05h0a0,0,0,0,0,0,0,.28.28,0,0,1,.4,0,.29.29,0,0,1-.05.4l0,0,0,0A.34.34,0,0,1,17.07,13.9Z" transform="translate(-0.59)" style="fill:#5180c1"/><path d="M17.2,13.77a.32.32,0,0,1-.22-.09.28.28,0,0,1,.05-.39l0,0a.28.28,0,0,1,.35.43l-.09.09Z" transform="translate(-0.59)" style="fill:#5180c1"/><path d="M17.29,13.73a.34.34,0,0,1-.22-.09.27.27,0,0,1,0-.39l.09-.09.09-.09a.28.28,0,0,1,.39.39l-.08.09-.09.09A1,1,0,0,1,17.29,13.73Z" transform="translate(-0.59)" style="fill:#5180c1"/><path d="M17.51,13.46c-.09,0-.13,0-.22-.08a.33.33,0,0,1,0-.4l0,0h0l.05,0a.28.28,0,1,1,.43.35l0,0,0,0C17.68,13.46,17.6,13.46,17.51,13.46Z" transform="translate(-0.59)" style="fill:#5180c1"/><path d="M17.64,13.38a.43.43,0,0,1-.18-.09.24.24,0,0,1,0-.39c.05-.05.05-.05.05-.09l.09-.09a.28.28,0,1,1,.43.35s0,.09-.08.09l-.09.09C17.77,13.33,17.73,13.38,17.64,13.38Z" transform="translate(-0.59)" style="fill:#5180c1"/><path d="M17.77,13.16s-.13,0-.17-.05a.26.26,0,0,1-.05-.39l.09-.09s0,0,0-.08h0c0-.05.05-.05.05-.09a3.65,3.65,0,0,0-5.6-4.59c-.22.22-.39.44-.57.65a.27.27,0,0,1-.39.09.28.28,0,0,1-.09-.39,5.76,5.76,0,0,1,.66-.79,4.21,4.21,0,0,1,5.94.22,4.15,4.15,0,0,1,.48,5.07s0,.09-.08.13,0,.09-.09.13,0,.09-.09.09S17.86,13.16,17.77,13.16Z" transform="translate(-0.59)" style="fill:#5180c1"/><path d="M18,15.74c-.09,0-.13-.05-.22-.09l-1.44-1.53a.3.3,0,0,1-.09-.22c0-.09,0-.17.13-.17a.14.14,0,0,0,.09-.05s0,0,.09,0h0s0,0,.08,0,.05,0,.09,0h0s0,0,.09-.09h0l0,0h0s0,0,0,0h0s0-.05.09-.05h0l.08-.08.09-.09.05-.05h0l0,0h0l0,0h0l.09-.09.09-.09h0l.09-.08.08-.09c.05,0,.05,0,.05-.09a.23.23,0,0,1,.22-.13.29.29,0,0,1,.21.09L19.65,14a.28.28,0,0,1-.39.39l-1.18-1.27s0,0,0,0h0c0,.05,0,.09-.08.09l-.09.09-.05,0,0,.05,0,0-.09.09-.09.09-.09.08h0s0,.05-.08.05l-.05,0,0,0,0,0c-.05,0-.09,0-.09.09A.16.16,0,0,0,17,14H17l1.18,1.27a.32.32,0,0,1,0,.39A.22.22,0,0,1,18,15.74Z" transform="translate(-0.59)" style="fill:#5180c1"/><path d="M21,19.63c-.09,0-.14-.05-.22-.09L17.42,16a.38.38,0,0,1-.09-.18.22.22,0,0,1,.09-.17l2.14-2a.33.33,0,0,1,.4,0l3.36,3.58a.28.28,0,0,1,.09.18.21.21,0,0,1-.09.17l-1.7,1.57h0l-.48.44C21.14,19.63,21.05,19.63,21,19.63Zm-3-3.85L21,19l.26-.22h0l1.48-1.39-3-3.2Z" transform="translate(-0.59)" style="fill:#5180c1"/><path d="M10.69,16.17H5.27a.26.26,0,0,1,0-.52h5.42a.26.26,0,1,1,0,.52Z" transform="translate(-0.59)" style="fill:#5180c1"/><path d="M15.1,17.62H5.27a.27.27,0,0,1,0-.53H15.1a.27.27,0,1,1,0,.53Z" transform="translate(-0.59)" style="fill:#5180c1"/><path d="M15.1,19.1H5.27a.26.26,0,0,1,0-.52H15.1a.26.26,0,1,1,0,.52Z" transform="translate(-0.59)" style="fill:#5180c1"/><path d="M11,12.24H4.79A.29.29,0,0,1,4.52,12V9.79a2,2,0,0,1,2-2h3.89a2.14,2.14,0,0,1,1.13.35.28.28,0,0,1,.09.39c0,.05,0,.05,0,.09s0,.05,0,.09h0s0,0,0,.09h0s0,0,0,.08l-.14.27s0,0,0,.08h0s0,0,0,.09,0,.13,0,.18h0v.08h0v.09a.61.61,0,0,0,0,.26v.18h0v.17h0v.13h0v0h0v.39h0v.05h0v.35h0v.08s0,.09,0,.09h0v.09s0,.08,0,.13v0h0v.05h0v0h0a0,0,0,0,0,0,0s0,.09,0,.13S11.21,12.24,11,12.24Zm-6-.52h5.59c0-.05,0-.09,0-.09s0-.05,0-.09a.15.15,0,0,0-.05-.13v-.09h0v-1h0v-.18h0V10a.91.91,0,0,1,.09-.31s0,0,0-.09h0s0,0,0-.08h0a2,2,0,0,1,.09-.22s0,0,0-.09h0a.19.19,0,0,1,0-.09,1.22,1.22,0,0,0,.13-.3s0,0,0-.09h0a1.39,1.39,0,0,0-.61-.13H6.54A1.46,1.46,0,0,0,5.05,10v1.71Z" transform="translate(-0.59)" style="fill:#5180c1"/><path d="M8.46,6.86a2.23,2.23,0,1,1,2.23-2.23A2.23,2.23,0,0,1,8.46,6.86ZM8.46,3A1.71,1.71,0,0,0,6.75,4.63,1.68,1.68,0,0,0,8.46,6.3a1.7,1.7,0,0,0,1.7-1.67A1.67,1.67,0,0,0,8.46,3Z" transform="translate(-0.59)" style="fill:#5180c1"/><path d="M16.55,24H.85a.28.28,0,0,1-.26-.26v-16a.28.28,0,0,1,.26-.26.28.28,0,0,1,.26.26V23.43H16.55a.28.28,0,0,1,.26.26A.25.25,0,0,1,16.55,24Z" transform="translate(-0.59)" style="fill:#5180c1"/></g></svg>