<svg id="Layer_1" data-name="Layer 1" xmlns="http://www.w3.org/2000/svg" viewBox="0 0 24 23.68"><g id="F549_Car_vehicle" data-name="F549, Car, vehicle"><polygon points="15.97 12.34 15.49 15.78 13.98 15.78 13.98 12.34 15.97 12.34" style="fill:#fff"/><rect x="9.98" y="12.34" width="2" height="3.48" style="fill:#fff"/><rect x="11.98" y="12.34" width="2" height="3.48" style="fill:#fff"/><polygon points="9.98 12.34 9.98 15.78 8.51 15.78 7.99 12.34 9.98 12.34" style="fill:#fff"/><polygon points="21.48 13.8 21.48 15.78 17.97 15.78 18.97 13.8 21.48 13.8" style="fill:#fff"/><polygon points="4.99 13.8 5.99 15.78 2.52 15.78 2.52 13.8 4.99 13.8" style="fill:#fff"/><rect x="4.51" y="20.24" width="2.99" height="2.97" style="fill:#fff"/><rect x="16.49" y="20.24" width="2.99" height="2.97" style="fill:#fff"/><path d="M3.75,20.52C2.08,20.52.68,18.9.48,16.84h0A.2.2,0,0,0,.76,17a3.85,3.85,0,0,0,1.84.75H21.28A3.38,3.38,0,0,0,23,17c.12.08.2.08.32-.08-.2,2-1.6,3.56-3.23,3.56H4.51l-.76,0Z" transform="translate(0 -0.27)" style="fill:#a1c6e9"/><path d="M23.48,15v1.7c-.12.12-.24.2-.36.32a3.93,3.93,0,0,1-1.76.71H2.64A3.85,3.85,0,0,1,.8,17a1.74,1.74,0,0,1-.28-.24V14.9h0V11.11c0-1.11,1.36-2.34,2.87-2.5h0v0l.6.44H19.73l.92-.52c1.55.12,2.87,1.35,2.87,2.5v3.79h0C23.44,14.94,23.48,15,23.48,15Zm-2,1.07v-2H19l-1,2Zm-6,0L16,12.57H8l.52,3.48h6.94Zm-9.5,0-1-2H2.48v2Z" transform="translate(0 -0.27)" style="fill:#a1c6e9"/><path d="M1.52,5.17a1.13,1.13,0,0,1,1,1.23,1.13,1.13,0,0,1-1,1.23,1.13,1.13,0,0,1-1-1.23A1.13,1.13,0,0,1,1.52,5.17Z" transform="translate(0 -0.27)" style="fill:#fff"/><path d="M22.48,5.17a1.13,1.13,0,0,1,1,1.23,1.13,1.13,0,0,1-1,1.23,1.13,1.13,0,0,1-1-1.23A1.13,1.13,0,0,1,22.48,5.17Z" transform="translate(0 -0.27)" style="fill:#fff"/><path d="M19.77,3.28l.84,5.37-1.16.48H4l-.56-.48.8-5.37C4.19,1.89,5.87.75,8,.75h8C18.05.75,19.77,1.85,19.77,3.28Z" transform="translate(0 -0.27)" style="fill:#fff"/><path d="M7.51,24h-3A.53.53,0,0,1,4,23.44v-3a.52.52,0,0,1,1,0V23H7V20.48a.52.52,0,0,1,1,0v3A.68.68,0,0,1,7.51,24Z" transform="translate(0 -0.27)" style="fill:#2c80c3"/><path d="M19.49,24h-3a.53.53,0,0,1-.52-.52v-3a.52.52,0,1,1,1,0V23h2V20.48a.52.52,0,1,1,1,0v3A.68.68,0,0,1,19.49,24Z" transform="translate(0 -0.27)" style="fill:#2c80c3"/><path d="M19.49,21H3.75C1.84,21,.2,19.21,0,16.88a.77.77,0,0,1,.12-.4.43.43,0,0,1,.36-.16h0a.45.45,0,0,1,.32.12.56.56,0,0,1,.4.2.45.45,0,0,1-.12.67h0A3.74,3.74,0,0,0,2,19.05,2.4,2.4,0,0,0,3.79,20H20.17a3,3,0,0,0,2.67-2.61l0,0a.54.54,0,0,1,0-.71.6.6,0,0,1,.44-.16.47.47,0,0,1,.4,0,.45.45,0,0,1,.32.52C23.64,19.25,22,21,20.17,21Z" transform="translate(0 -0.27)" style="fill:#2c80c3"/><path d="M4,9.64a.58.58,0,0,1-.28-.08l-.6-.43a.47.47,0,0,1-.19-.48v0l.83-5.33A2.72,2.72,0,0,1,5,1.1,5.22,5.22,0,0,1,8,.27h8a5.22,5.22,0,0,1,3,.83,2.68,2.68,0,0,1,1.32,2.18l.83,5.33a.56.56,0,0,1-.23.52L20,9.64a.57.57,0,0,1-.24.08h-.24a.52.52,0,1,1,0-1h.12l.48-.27-.8-5V3.32c0-1.11-1.48-2.06-3.28-2.06H8c-1.76,0-3.28,1-3.28,2.06V3.4l-.8,5.14.36.27a.46.46,0,0,1,.12.67A.61.61,0,0,1,4,9.64Z" transform="translate(0 -0.27)" style="fill:#2c80c3"/><path d="M21.32,18.18H2.56a4,4,0,0,1-2.08-.87A2.26,2.26,0,0,1,.16,17,.6.6,0,0,1,0,16.68V11.11c0-1.39,1.6-2.81,3.31-3a.65.65,0,0,1,.36.12h0l.44.35H19.29l1-.43a.51.51,0,0,1,.24,0,3.74,3.74,0,0,1,2.31,1,2.77,2.77,0,0,1,1,2v5.61a.43.43,0,0,1-.16.36c-.12.11-.28.23-.4.35a4,4,0,0,1-2,.79S21.36,18.18,21.32,18.18Zm-18.64-1H21.32a3.26,3.26,0,0,0,1.52-.59s.12-.08.16-.12V11.11a2.51,2.51,0,0,0-2.27-2l-1,.43a.36.36,0,0,1-.2,0H4a.45.45,0,0,1-.32-.12l-.44-.35C2,9.33,1,10.31,1,11.07v5.37s.08,0,.12.08A2.69,2.69,0,0,0,2.68,17.19Z" transform="translate(0 -0.27)" style="fill:#2c80c3"/><path d="M6,16.56H2.48A.53.53,0,0,1,2,16.05v-2a.52.52,0,0,1,.52-.51H5a.5.5,0,0,1,.44.27l1,1.94a.57.57,0,0,1,.08.24A.54.54,0,0,1,6,16.56Zm-3-1H5.19l-.48-1H3Z" transform="translate(0 -0.27)" style="fill:#2c80c3"/><path d="M21.48,16.56H18a.55.55,0,0,1-.44-.24.64.64,0,0,1,0-.47l1-2a.48.48,0,0,1,.44-.27h2.51a.52.52,0,0,1,.52.51v2A.52.52,0,0,1,21.48,16.56Zm-2.71-1H21v-1H19.29Z" transform="translate(0 -0.27)" style="fill:#2c80c3"/><path d="M9.42,6.2A.49.49,0,0,1,9.06,6a.51.51,0,0,1,0-.71l3.56-3.48a.53.53,0,0,1,.72,0,.5.5,0,0,1,0,.71L9.78,6A.49.49,0,0,1,9.42,6.2Z" transform="translate(0 -0.27)" style="fill:#2c80c3"/><path d="M10.5,8.14A.49.49,0,0,1,10.14,8a.5.5,0,0,1,0-.71L13.7,3.79a.51.51,0,0,1,.72,0,.5.5,0,0,1,0,.71L10.86,8A.49.49,0,0,1,10.5,8.14Z" transform="translate(0 -0.27)" style="fill:#2c80c3"/><path d="M1.52,8.14A1.65,1.65,0,0,1,0,6.4,1.65,1.65,0,0,1,1.52,4.66,1.65,1.65,0,0,1,3,6.4,1.71,1.71,0,0,1,1.52,8.14Zm0-2.45C1.24,5.69,1,6,1,6.44s.24.75.52.75S2,6.84,2,6.44,1.76,5.69,1.52,5.69Z" transform="translate(0 -0.27)" style="fill:#2c80c3"/><path d="M3,9.13A.49.49,0,0,1,2.64,9l-1-1a.5.5,0,0,1,0-.71.51.51,0,0,1,.72,0l1,1a.5.5,0,0,1,0,.71A.48.48,0,0,1,3,9.13Z" transform="translate(0 -0.27)" style="fill:#2c80c3"/><path d="M22.48,8.14A1.65,1.65,0,0,1,21,6.4a1.65,1.65,0,0,1,1.52-1.74A1.65,1.65,0,0,1,24,6.4,1.71,1.71,0,0,1,22.48,8.14Zm0-2.45c-.28,0-.52.35-.52.75s.24.75.52.75.52-.35.52-.75S22.72,5.69,22.48,5.69Z" transform="translate(0 -0.27)" style="fill:#2c80c3"/><path d="M21,9.13A.48.48,0,0,1,20.61,9a.5.5,0,0,1,0-.71l1-1a.51.51,0,0,1,.72,0,.5.5,0,0,1,0,.71l-1,1A.47.47,0,0,1,21,9.13Z" transform="translate(0 -0.27)" style="fill:#2c80c3"/><path d="M12,13.08H10a.52.52,0,0,1-.52-.51.53.53,0,0,1,.52-.52h2a.53.53,0,0,1,.52.52A.52.52,0,0,1,12,13.08Z" transform="translate(0 -0.27)" style="fill:#2c80c3"/><path d="M12,16.56H10a.52.52,0,1,1,0-1h2a.52.52,0,1,1,0,1Z" transform="translate(0 -0.27)" style="fill:#2c80c3"/><path d="M10,16.56H8.47A.51.51,0,0,1,8,16.13l-.52-3.48a.48.48,0,0,1,.12-.4A.43.43,0,0,1,8,12.09h2a.53.53,0,0,1,.52.52v3.48A.46.46,0,0,1,10,16.56Zm-1.07-1h.55V13.08H8.55Z" transform="translate(0 -0.27)" style="fill:#2c80c3"/><path d="M15.49,16.56H14a.52.52,0,1,1,0-1h1.08L15.41,13H14a.52.52,0,0,1-.52-.51A.53.53,0,0,1,14,12h2a.51.51,0,0,1,.36.16.68.68,0,0,1,.12.4l-.52,3.48A.46.46,0,0,1,15.49,16.56Z" transform="translate(0 -0.27)" style="fill:#2c80c3"/><path d="M14,16.56H12a.53.53,0,0,1-.52-.51V12.57a.53.53,0,0,1,.52-.52h2a.53.53,0,0,1,.52.52v3.48A.53.53,0,0,1,14,16.56Zm-1.48-1h1V13.08h-1Z" transform="translate(0 -0.27)" style="fill:#2c80c3"/></g></svg>