<svg id="Layer_1" data-name="Layer 1" xmlns="http://www.w3.org/2000/svg" viewBox="0 0 24 24.98"><g id="_766_Account_Consultant_Specialist" data-name="766, Account, Consultant, Specialist"><path d="M18.87,1.45A3.27,3.27,0,1,1,15.6,4.72,3.27,3.27,0,0,1,18.87,1.45Z" transform="translate(0 0.37)" style="fill:#fff"/><rect x="4.28" y="23.11" width="14.59" height="1.61" style="fill:#a1c6e9"/><polygon points="20.69 21.5 20.69 23.11 18.87 23.11 4.28 23.11 2.42 23.11 2.42 21.5 20.69 21.5" style="fill:#fff"/><polygon points="18.32 16.2 20.69 21.5 2.42 21.5 4.79 16.2 6.53 16.2 8.78 16.2 14.08 16.2 16.32 16.2 18.32 16.2" style="fill:#a1c6e9"/><path d="M20.69,11.59a1.61,1.61,0,1,1-1.61,1.61A1.61,1.61,0,0,1,20.69,11.59Z" transform="translate(0 0.37)" style="fill:#a1c6e9"/><path d="M2.67,3.91A2.38,2.38,0,1,1,.3,6.29,2.37,2.37,0,0,1,2.67,3.91Z" transform="translate(0 0.37)" style="fill:#a1c6e9"/><path d="M11.41,3.4A2.63,2.63,0,1,1,8.78,6,2.65,2.65,0,0,1,11.41,3.4Z" transform="translate(0 0.37)" style="fill:#a1c6e9"/><path d="M11.41,8.66a5.31,5.31,0,0,1,5.3,5.3,4.56,4.56,0,0,1-.38,1.87H6.53A4.7,4.7,0,0,1,6.15,14a5.27,5.27,0,0,1,5.26-5.3Z" transform="translate(0 0.37)" style="fill:#fff"/><polygon points="11.41 9.03 12.72 12.34 11.41 13.65 10.09 12.34 11.41 9.03" style="fill:#a1c6e9"/><path d="M22.43,16.38a.38.38,0,1,1-.38.38A.38.38,0,0,1,22.43,16.38Z" transform="translate(0 0.37)" style="fill:#2c80c3"/><path d="M18.78,4.25V3.7c-.21,0-.33.13-.33.26a.25.25,0,0,0,.08.17A.72.72,0,0,0,18.78,4.25ZM19,5.1v.55c.25,0,.34-.08.34-.25a.22.22,0,0,0-.09-.17A.57.57,0,0,0,19,5.1Zm-.26,1.23a1.58,1.58,0,0,1-.63-.13c-.22-.08-.39-.17-.56-.25l.34-.68.09.08a.69.69,0,0,0,.21.13,2.23,2.23,0,0,0,.3.13c.08,0,.21,0,.34.08V5.06L18.61,5a.79.79,0,0,1-.38-.17,1.31,1.31,0,0,1-.29-.17.74.74,0,0,1-.17-.25A.72.72,0,0,1,17.72,4a1.24,1.24,0,0,1,.09-.42A1.36,1.36,0,0,1,18,3.28a1,1,0,0,1,.34-.22A1.31,1.31,0,0,1,18.78,3V2.51h.34V3a1.07,1.07,0,0,1,.55.13,3.47,3.47,0,0,1,.47.21L19.8,4s0,0-.08,0a.91.91,0,0,0-.17-.08,1.33,1.33,0,0,1-.21-.09.59.59,0,0,0-.26,0v.64l.17,0a2.64,2.64,0,0,1,.42.13,1.53,1.53,0,0,1,.34.17.8.8,0,0,1,.22.29,1.36,1.36,0,0,1,.08.38,1.65,1.65,0,0,1-.08.47.62.62,0,0,1-.26.3.84.84,0,0,1-.34.17c-.12,0-.29,0-.42.08v.55h-.47V6.33Z" transform="translate(0 0.37)" style="fill:#2c80c3"/><path d="M11,0a.38.38,0,0,1,.39.38A.39.39,0,1,1,11,0Z" transform="translate(0 0.37)" style="fill:#2c80c3"/><path d="M4.92,1a.38.38,0,1,1-.38.38A.38.38,0,0,1,4.92,1Z" transform="translate(0 0.37)" style="fill:#2c80c3"/><path d="M4.16,10.57a.38.38,0,1,1-.39.38A.38.38,0,0,1,4.16,10.57Z" transform="translate(0 0.37)" style="fill:#2c80c3"/><path d="M.68,16.63A.39.39,0,1,1,.3,17,.38.38,0,0,1,.68,16.63Z" transform="translate(0 0.37)" style="fill:#2c80c3"/><path d="M2.42,21.43a.14.14,0,0,1-.13-.05A.24.24,0,0,1,2.16,21l2.38-5.3a.28.28,0,0,1,.25-.17h1.7a.28.28,0,0,1,.25.26.27.27,0,0,1-.25.25H5L2.63,21.21A.24.24,0,0,1,2.42,21.43Z" transform="translate(0 0.37)" style="fill:#2c80c3"/><path d="M20.69,21.43a.27.27,0,0,1-.25-.17l-2.33-5.13H16.28a.28.28,0,0,1-.25-.26.27.27,0,0,1,.25-.25h2a.26.26,0,0,1,.25.17L21,21a.27.27,0,0,1-.13.34S20.74,21.43,20.69,21.43Z" transform="translate(0 0.37)" style="fill:#2c80c3"/><path d="M18.87,8.24a3.52,3.52,0,1,1,3.52-3.52A3.51,3.51,0,0,1,18.87,8.24Zm0-6.53a3,3,0,1,0,3,3A3,3,0,0,0,18.87,1.71Z" transform="translate(0 0.37)" style="fill:#2c80c3"/><path d="M18.87,9.76a4.76,4.76,0,0,1-2.5-.67.29.29,0,0,1-.09-.39.29.29,0,0,1,.38-.08,4.61,4.61,0,0,0,2.25.59,4.5,4.5,0,1,0,0-9,4.58,4.58,0,0,0-3.35,1.49c-.08.13-.25.13-.38,0a.23.23,0,0,1,0-.38A5.15,5.15,0,0,1,19-.37,5.06,5.06,0,0,1,24,4.68,5.16,5.16,0,0,1,18.87,9.76Z" transform="translate(0 0.37)" style="fill:#2c80c3"/><path d="M11.41,9A2.93,2.93,0,1,1,14.33,6,2.94,2.94,0,0,1,11.41,9Zm0-5.3A2.38,2.38,0,1,0,13.78,6,2.37,2.37,0,0,0,11.41,3.66Z" transform="translate(0 0.37)" style="fill:#2c80c3"/><path d="M8.78,16.13a.28.28,0,0,1-.26-.26V14A.26.26,0,0,1,9,14v1.87A.28.28,0,0,1,8.78,16.13Z" transform="translate(0 0.37)" style="fill:#2c80c3"/><path d="M14.08,16.13a.28.28,0,0,1-.26-.26V14a.26.26,0,0,1,.51,0v1.87A.28.28,0,0,1,14.08,16.13Z" transform="translate(0 0.37)" style="fill:#2c80c3"/><path d="M11.41,13.58a.21.21,0,0,1-.17-.08L9.92,12.18a.27.27,0,0,1,0-.3l1.31-3.3a.29.29,0,0,1,.26-.17h0a.27.27,0,0,1,.25.17L13,11.88a.39.39,0,0,1,0,.3L11.66,13.5C11.53,13.54,11.49,13.58,11.41,13.58Zm-1-1.65,1,1,1-1-1-2.55Z" transform="translate(0 0.37)" style="fill:#2c80c3"/><path d="M16.33,16.13H6.53A.28.28,0,0,1,6.28,16a4.84,4.84,0,0,1-.43-2A5.56,5.56,0,0,1,17,14a5.13,5.13,0,0,1-.42,2C16.54,16,16.41,16.13,16.33,16.13ZM6.7,15.57h9.46A4.35,4.35,0,0,0,16.45,14a5,5,0,0,0-10,0A3.49,3.49,0,0,0,6.7,15.57Z" transform="translate(0 0.37)" style="fill:#2c80c3"/><path d="M20.69,23H18.83a.25.25,0,1,1,0-.5h1.61V21.43H2.67v1.06H4.28a.25.25,0,1,1,0,.5H2.42a.27.27,0,0,1-.26-.25V21.13a.28.28,0,0,1,.26-.26H20.69a.28.28,0,0,1,.26.26v1.61C21,22.87,20.86,23,20.69,23Z" transform="translate(0 0.37)" style="fill:#2c80c3"/><path d="M18.87,24.61H4.28A.28.28,0,0,1,4,24.35V22.74a.27.27,0,0,1,.25-.25H18.87a.26.26,0,0,1,.25.25v1.61A.27.27,0,0,1,18.87,24.61ZM4.54,24.05h14V23h-14Z" transform="translate(0 0.37)" style="fill:#2c80c3"/><path d="M2.67,9A2.69,2.69,0,0,1,0,6.29,2.66,2.66,0,0,1,2.67,3.62,2.67,2.67,0,0,1,2.67,9Zm0-4.79a2.12,2.12,0,1,0,0,4.24,2.12,2.12,0,1,0,0-4.24Z" transform="translate(0 0.37)" style="fill:#2c80c3"/><path d="M20.69,15.06a1.87,1.87,0,1,1,1.87-1.86A1.87,1.87,0,0,1,20.69,15.06Zm0-3.18A1.32,1.32,0,1,0,22,13.2,1.32,1.32,0,0,0,20.69,11.88Z" transform="translate(0 0.37)" style="fill:#2c80c3"/><path d="M18.87,1.45A3.27,3.27,0,1,1,15.6,4.72,3.27,3.27,0,0,1,18.87,1.45Z" transform="translate(0 0.37)" style="fill:#fff"/><rect x="4.28" y="23.11" width="14.59" height="1.61" style="fill:#a1c6e9"/><polygon points="20.69 21.5 20.69 23.11 18.87 23.11 4.28 23.11 2.42 23.11 2.42 21.5 20.69 21.5" style="fill:#fff"/><polygon points="18.32 16.2 20.69 21.5 2.42 21.5 4.79 16.2 6.53 16.2 8.78 16.2 14.08 16.2 16.32 16.2 18.32 16.2" style="fill:#a1c6e9"/><path d="M20.69,11.59a1.61,1.61,0,1,1-1.61,1.61A1.61,1.61,0,0,1,20.69,11.59Z" transform="translate(0 0.37)" style="fill:#a1c6e9"/><path d="M2.67,3.91A2.38,2.38,0,1,1,.3,6.29,2.37,2.37,0,0,1,2.67,3.91Z" transform="translate(0 0.37)" style="fill:#a1c6e9"/><path d="M11.41,3.4A2.63,2.63,0,1,1,8.78,6,2.65,2.65,0,0,1,11.41,3.4Z" transform="translate(0 0.37)" style="fill:#a1c6e9"/><path d="M11.41,8.66a5.31,5.31,0,0,1,5.3,5.3,4.56,4.56,0,0,1-.38,1.87H6.53A4.7,4.7,0,0,1,6.15,14a5.27,5.27,0,0,1,5.26-5.3Z" transform="translate(0 0.37)" style="fill:#fff"/><polygon points="11.41 9.03 12.72 12.34 11.41 13.65 10.09 12.34 11.41 9.03" style="fill:#a1c6e9"/><path d="M22.43,16.38a.38.38,0,1,1-.38.38A.38.38,0,0,1,22.43,16.38Z" transform="translate(0 0.37)" style="fill:#2c80c3"/><path d="M11,0a.38.38,0,0,1,.39.38A.39.39,0,1,1,11,0Z" transform="translate(0 0.37)" style="fill:#2c80c3"/><path d="M4.92,1a.38.38,0,1,1-.38.38A.38.38,0,0,1,4.92,1Z" transform="translate(0 0.37)" style="fill:#2c80c3"/><path d="M4.16,10.57a.38.38,0,1,1-.39.38A.38.38,0,0,1,4.16,10.57Z" transform="translate(0 0.37)" style="fill:#2c80c3"/><path d="M.68,16.63A.39.39,0,1,1,.3,17,.38.38,0,0,1,.68,16.63Z" transform="translate(0 0.37)" style="fill:#2c80c3"/><path d="M2.42,21.43a.14.14,0,0,1-.13-.05A.24.24,0,0,1,2.16,21l2.38-5.3a.28.28,0,0,1,.25-.17h1.7a.28.28,0,0,1,.25.26.27.27,0,0,1-.25.25H5L2.63,21.21A.24.24,0,0,1,2.42,21.43Z" transform="translate(0 0.37)" style="fill:#2c80c3"/><path d="M20.69,21.43a.27.27,0,0,1-.25-.17l-2.33-5.13H16.28a.28.28,0,0,1-.25-.26.27.27,0,0,1,.25-.25h2a.26.26,0,0,1,.25.17L21,21a.27.27,0,0,1-.13.34S20.74,21.43,20.69,21.43Z" transform="translate(0 0.37)" style="fill:#2c80c3"/><path d="M18.87,8.24a3.52,3.52,0,1,1,3.52-3.52A3.51,3.51,0,0,1,18.87,8.24Zm0-6.53a3,3,0,1,0,3,3A3,3,0,0,0,18.87,1.71Z" transform="translate(0 0.37)" style="fill:#2c80c3"/><path d="M18.87,9.76a4.76,4.76,0,0,1-2.5-.67.29.29,0,0,1-.09-.39.29.29,0,0,1,.38-.08,4.61,4.61,0,0,0,2.25.59,4.5,4.5,0,1,0,0-9,4.58,4.58,0,0,0-3.35,1.49c-.08.13-.25.13-.38,0a.23.23,0,0,1,0-.38A5.15,5.15,0,0,1,19-.37,5.06,5.06,0,0,1,24,4.68,5.16,5.16,0,0,1,18.87,9.76Z" transform="translate(0 0.37)" style="fill:#2c80c3"/><path d="M11.41,9A2.93,2.93,0,1,1,14.33,6,2.94,2.94,0,0,1,11.41,9Zm0-5.3A2.38,2.38,0,1,0,13.78,6,2.37,2.37,0,0,0,11.41,3.66Z" transform="translate(0 0.37)" style="fill:#2c80c3"/><path d="M8.78,16.13a.28.28,0,0,1-.26-.26V14A.26.26,0,0,1,9,14v1.87A.28.28,0,0,1,8.78,16.13Z" transform="translate(0 0.37)" style="fill:#2c80c3"/><path d="M14.08,16.13a.28.28,0,0,1-.26-.26V14a.26.26,0,0,1,.51,0v1.87A.28.28,0,0,1,14.08,16.13Z" transform="translate(0 0.37)" style="fill:#2c80c3"/><path d="M11.41,13.58a.21.21,0,0,1-.17-.08L9.92,12.18a.27.27,0,0,1,0-.3l1.31-3.3a.29.29,0,0,1,.26-.17h0a.27.27,0,0,1,.25.17L13,11.88a.39.39,0,0,1,0,.3L11.66,13.5C11.53,13.54,11.49,13.58,11.41,13.58Zm-1-1.65,1,1,1-1-1-2.55Z" transform="translate(0 0.37)" style="fill:#2c80c3"/><path d="M16.33,16.13H6.53A.28.28,0,0,1,6.28,16a4.84,4.84,0,0,1-.43-2A5.56,5.56,0,0,1,17,14a5.13,5.13,0,0,1-.42,2C16.54,16,16.41,16.13,16.33,16.13ZM6.7,15.57h9.46A4.35,4.35,0,0,0,16.45,14a5,5,0,0,0-10,0A3.49,3.49,0,0,0,6.7,15.57Z" transform="translate(0 0.37)" style="fill:#2c80c3"/><path d="M20.69,23H18.83a.25.25,0,1,1,0-.5h1.61V21.43H2.67v1.06H4.28a.25.25,0,1,1,0,.5H2.42a.27.27,0,0,1-.26-.25V21.13a.28.28,0,0,1,.26-.26H20.69a.28.28,0,0,1,.26.26v1.61C21,22.87,20.86,23,20.69,23Z" transform="translate(0 0.37)" style="fill:#2c80c3"/><path d="M18.87,24.61H4.28A.28.28,0,0,1,4,24.35V22.74a.27.27,0,0,1,.25-.25H18.87a.26.26,0,0,1,.25.25v1.61A.27.27,0,0,1,18.87,24.61ZM4.54,24.05h14V23h-14Z" transform="translate(0 0.37)" style="fill:#2c80c3"/><path d="M2.67,9A2.69,2.69,0,0,1,0,6.29,2.66,2.66,0,0,1,2.67,3.62,2.67,2.67,0,0,1,2.67,9Zm0-4.79a2.12,2.12,0,1,0,0,4.24,2.12,2.12,0,1,0,0-4.24Z" transform="translate(0 0.37)" style="fill:#2c80c3"/><path d="M20.69,15.06a1.87,1.87,0,1,1,1.87-1.86A1.87,1.87,0,0,1,20.69,15.06Zm0-3.18A1.32,1.32,0,1,0,22,13.2,1.32,1.32,0,0,0,20.69,11.88Z" transform="translate(0 0.37)" style="fill:#2c80c3"/><text transform="translate(16.87 6.02)" style="font-size:3.3533661365509033px;fill:#2c80c3;font-family:FiraSans-Bold, Fira Sans;font-weight:700">Rp</text></g></svg>