<svg id="Layer_1" data-name="Layer 1" xmlns="http://www.w3.org/2000/svg" viewBox="0 0 24 23.91"><g id="C_-_15_Exchange_Coins_currency_dollar_euro_finance_financial_money" data-name="C - 15, Exchange, Coins, currency, dollar, euro, finance, financial, money"><path d="M16.09,12.59A4.13,4.13,0,1,1,12,16.72,4.09,4.09,0,0,1,16.09,12.59Z" transform="translate(1.04 0.33)" style="fill:#fff"/><path d="M16.09,10.15a6.57,6.57,0,1,1-6.61,6.57A6.6,6.6,0,0,1,16.09,10.15Zm4.13,6.57a4.16,4.16,0,0,0-4.13-4.13,4.13,4.13,0,1,0,4.13,4.13Z" transform="translate(1.04 0.33)" style="fill:#a1c6e9"/><path d="M5.57,4.5V5.72a4,4,0,0,1-.35-.26.54.54,0,0,1-.13-.35.75.75,0,0,1,.13-.39.91.91,0,0,1,.35-.22Z" transform="translate(1.04 0.33)" style="fill:#fff"/><path d="M6.53,8a.87.87,0,0,1-.44.26V6.85a.84.84,0,0,1,.48.26.67.67,0,0,1,.13.39A.83.83,0,0,1,6.53,8Z" transform="translate(1.04 0.33)" style="fill:#fff"/><path d="M5.83,2.41a4.13,4.13,0,1,1,0,8.26,4.13,4.13,0,0,1,0-8.26Z" transform="translate(1.04 0.33)" style="fill:#fff"/><path d="M5.83,0a6.59,6.59,0,0,1,6.61,6.56,6.61,6.61,0,0,1-13.22,0A6.59,6.59,0,0,1,5.83,0ZM10,6.54A4.16,4.16,0,0,0,5.83,2.41a4.13,4.13,0,0,0,0,8.26A4.15,4.15,0,0,0,10,6.54Z" transform="translate(1.04 0.33)" style="fill:#a1c6e9"/><path d="M5.83,13.37A6.85,6.85,0,1,1,12.7,6.5,6.85,6.85,0,0,1,5.83,13.37ZM5.83.24a6.31,6.31,0,1,0,6.31,6.3A6.31,6.31,0,0,0,5.83.24Z" transform="translate(1.04 0.33)" style="fill:#5180c1"/><path d="M16.09,23.59A6.83,6.83,0,1,1,23,16.76,6.88,6.88,0,0,1,16.09,23.59Zm0-13.18a6.31,6.31,0,1,0,6.35,6.31A6.35,6.35,0,0,0,16.09,10.41Z" transform="translate(1.04 0.33)" style="fill:#5180c1"/><path d="M16.09,21.11a4.39,4.39,0,1,1,4.44-4.39A4.42,4.42,0,0,1,16.09,21.11Zm0-8.22A3.87,3.87,0,1,0,20,16.76,3.88,3.88,0,0,0,16.09,12.89Z" transform="translate(1.04 0.33)" style="fill:#5180c1"/><path d="M5.83,10.93a4.39,4.39,0,1,1,4.44-4.39A4.41,4.41,0,0,1,5.83,10.93Zm0-8.26A3.87,3.87,0,1,0,9.7,6.54,3.88,3.88,0,0,0,5.83,2.67Z" transform="translate(1.04 0.33)" style="fill:#5180c1"/><path d="M19.27,8A.28.28,0,0,1,19,7.76V3.67H14.4a.28.28,0,0,1-.26-.26.28.28,0,0,1,.26-.26h4.87a.28.28,0,0,1,.26.26V7.8A.28.28,0,0,1,19.27,8Z" transform="translate(1.04 0.33)" style="fill:#5180c1"/><path d="M7.05,19.67H2.18a.28.28,0,0,1-.26-.26V15a.28.28,0,0,1,.26-.26.28.28,0,0,1,.26.26v4.09H7.05a.28.28,0,0,1,.26.26C7.31,19.54,7.22,19.67,7.05,19.67Z" transform="translate(1.04 0.33)" style="fill:#5180c1"/><path d="M19.27,8a.16.16,0,0,1-.13,0L17.66,7a.28.28,0,0,1-.09-.39A.29.29,0,0,1,18,6.54l1.48,1a.29.29,0,0,1,.09.39A.38.38,0,0,1,19.27,8Z" transform="translate(1.04 0.33)" style="fill:#5180c1"/><path d="M19.27,8a.23.23,0,0,1-.22-.13.28.28,0,0,1,.09-.39l1.47-1a.3.3,0,0,1,.4.09.29.29,0,0,1-.09.39L19.44,8C19.35,8,19.31,8,19.27,8Z" transform="translate(1.04 0.33)" style="fill:#5180c1"/><path d="M.7,16.28a.24.24,0,0,1-.22-.13.29.29,0,0,1,.09-.39l1.48-1a.29.29,0,0,1,.39.09.28.28,0,0,1-.09.39l-1.48,1A.27.27,0,0,1,.7,16.28Z" transform="translate(1.04 0.33)" style="fill:#5180c1"/><path d="M3.66,16.28a.16.16,0,0,1-.13,0l-1.48-1S2,15.24,2,15.2s0-.09,0-.13a.28.28,0,0,1,.26-.27s.13,0,.17,0l1.44.91a.28.28,0,0,1,.08.39A.23.23,0,0,1,3.66,16.28Z" transform="translate(1.04 0.33)" style="fill:#5180c1"/></g><text transform="translate(3.78 8.35)" style="font-size:5px;fill:#5180c1;font-family:FiraSans-Bold, Fira Sans;font-weight:700">Rp</text><text transform="translate(14.09 18.42)" style="font-size:5px;fill:#5180c1;font-family:FiraSans-Bold, Fira Sans;font-weight:700">Rp</text></svg>