<svg id="Layer_1" data-name="Layer 1" xmlns="http://www.w3.org/2000/svg" viewBox="0 0 24 23.98"><g id="_147_Delivery_Logistic_Shipping_Store_Warehouse" data-name="147, Delivery, Logistic, Shipping, Store, Warehouse"><polygon points="11.98 0.5 0.52 6.49 0.52 23.46 3.51 23.46 3.51 12.48 3.51 10.48 3.51 8.49 20.49 8.49 20.49 10.48 20.49 12.48 20.49 23.46 23.48 23.46 23.48 6.49 11.98 0.5" style="fill:#fff"/><path d="M12,3a1.52,1.52,0,1,1-1.52,1.52A1.52,1.52,0,0,1,12,3Z" transform="translate(0 -0.02)" style="fill:#c3e3f7"/><rect x="14.5" y="18.47" width="2" height="2" style="fill:#c3e3f7"/><rect x="7.51" y="18.47" width="2" height="2" style="fill:#c3e3f7"/><polygon points="17.97 18.47 17.97 23.46 12.98 23.46 12.98 18.47 14.5 18.47 14.5 20.47 16.49 20.47 16.49 18.47 17.97 18.47" style="fill:#c3e3f7"/><polygon points="10.98 18.47 10.98 23.46 5.99 23.46 5.99 18.47 7.51 18.47 7.51 20.47 9.5 20.47 9.5 18.47 10.98 18.47" style="fill:#c3e3f7"/><polygon points="20.49 12.48 20.49 23.46 17.97 23.46 17.97 18.47 16.49 18.47 14.5 18.47 12.98 18.47 12.98 23.46 10.98 23.46 10.98 18.47 9.5 18.47 7.51 18.47 5.99 18.47 5.99 23.46 3.51 23.46 3.51 12.48 20.49 12.48" style="fill:#fff"/><rect x="3.51" y="10.48" width="16.97" height="2" style="fill:#c3e3f7"/><rect x="3.51" y="8.49" width="16.97" height="2" style="fill:#c3e3f7"/><path d="M23.48,24h-3a.52.52,0,0,1,0-1H23V6.79L12,1.08,1,6.79V23H3.51a.52.52,0,0,1,0,1h-3A.53.53,0,0,1,0,23.48v-17a.49.49,0,0,1,.28-.44l11.5-6a.51.51,0,0,1,.48,0l11.46,6a.49.49,0,0,1,.28.44v17A.59.59,0,0,1,23.48,24Z" transform="translate(0 -0.02)" style="fill:#2e8ecd"/><path d="M20.49,24H18a.52.52,0,0,1,0-1h2V12.5a.52.52,0,0,1,1,0v11A.6.6,0,0,1,20.49,24Z" transform="translate(0 -0.02)" style="fill:#2e8ecd"/><path d="M20.49,11a.53.53,0,0,1-.52-.52V9H4V10.5a.53.53,0,0,1-.52.52A.52.52,0,0,1,3,10.5v-2A.53.53,0,0,1,3.51,8h17a.53.53,0,0,1,.52.52v2A.6.6,0,0,1,20.49,11Z" transform="translate(0 -0.02)" style="fill:#2e8ecd"/><path d="M6,24H3.47A.52.52,0,0,1,3,23.44V12.5A.52.52,0,0,1,3.47,12,.53.53,0,0,1,4,12.5V23H6a.53.53,0,0,1,.52.52A.52.52,0,0,1,6,24Z" transform="translate(0 -0.02)" style="fill:#2e8ecd"/><path d="M13,24H11a.52.52,0,0,1,0-1h2a.52.52,0,0,1,0,1Z" transform="translate(0 -0.02)" style="fill:#2e8ecd"/><path d="M20.49,13h-17A.53.53,0,0,1,3,12.46v-2a.53.53,0,0,1,.52-.52h17a.53.53,0,0,1,.52.52v2A.6.6,0,0,1,20.49,13ZM4,12H20V11H4Z" transform="translate(0 -0.02)" style="fill:#2e8ecd"/><path d="M11,24H6a.53.53,0,0,1-.52-.52v-5A.53.53,0,0,1,6,18H7.51a.52.52,0,0,1,0,1h-1v4h4V19h-1a.52.52,0,0,1,0-1H11a.53.53,0,0,1,.52.52v5A.53.53,0,0,1,11,24Z" transform="translate(0 -0.02)" style="fill:#2e8ecd"/><path d="M18,24H13a.53.53,0,0,1-.52-.52v-5A.53.53,0,0,1,13,18H14.5a.52.52,0,0,1,0,1h-1v4h4V19h-1a.52.52,0,1,1,0-1H18a.53.53,0,0,1,.52.52v5A.6.6,0,0,1,18,24Z" transform="translate(0 -0.02)" style="fill:#2e8ecd"/><path d="M16.49,21h-2a.52.52,0,0,1-.52-.51v-2a.53.53,0,0,1,.52-.52h2a.53.53,0,0,1,.52.52v2A.58.58,0,0,1,16.49,21ZM15,20h1V19H15Z" transform="translate(0 -0.02)" style="fill:#2e8ecd"/><path d="M9.5,21h-2A.52.52,0,0,1,7,20.45v-2a.53.53,0,0,1,.52-.52h2a.53.53,0,0,1,.52.52v2A.58.58,0,0,1,9.5,21ZM8,20H9V19H8Z" transform="translate(0 -0.02)" style="fill:#2e8ecd"/><path d="M12,6.51a2,2,0,1,1,2-2A2,2,0,0,1,12,6.51Zm0-3a1,1,0,1,0,1,1A1,1,0,0,0,12,3.51Z" transform="translate(0 -0.02)" style="fill:#2e8ecd"/></g></svg>