<svg id="Layer_1" data-name="Layer 1" xmlns="http://www.w3.org/2000/svg" viewBox="0 0 23.26 24"><g id="_66_Archive_Document_File_List" data-name="66, Archive, Document, File, List"><path d="M19.8,4.16V22.41a1.36,1.36,0,0,1-1.35,1.35H6.33A1.37,1.37,0,0,1,5,22.41V4.16A1.36,1.36,0,0,1,6.33,2.82H18.45A1.36,1.36,0,0,1,19.8,4.16Z" transform="translate(-0.37)" style="fill:#fff"/><path d="M22.33,4.86a1,1,0,1,1-1,1A1,1,0,0,1,22.33,4.86Z" transform="translate(-0.37)" style="fill:#a1c6e9"/><path d="M2.17,16.37A1.51,1.51,0,1,1,.66,17.88,1.51,1.51,0,0,1,2.17,16.37Z" transform="translate(-0.37)" style="fill:#a1c6e9"/><path d="M16.74,2.82V4.16a.45.45,0,0,1-.45.45H8.49a.45.45,0,0,1-.44-.45V2.73a.44.44,0,0,1,.44-.44h1.64a2.3,2.3,0,0,1,4.57,0h1.63a.45.45,0,0,1,.45.44l0,.09Z" transform="translate(-0.37)" style="fill:#a1c6e9"/><path d="M23.6,11.71a.38.38,0,1,1-.49-.2A.38.38,0,0,1,23.6,11.71Z" transform="translate(-0.37)" style="fill:#2c80c3"/><path d="M21.8,18.61a.37.37,0,1,1-.49-.2A.38.38,0,0,1,21.8,18.61Z" transform="translate(-0.37)" style="fill:#2c80c3"/><path d="M3.43,1.27a.37.37,0,0,1-.2.49.36.36,0,0,1-.49-.21.36.36,0,0,1,.2-.49A.37.37,0,0,1,3.43,1.27Z" transform="translate(-0.37)" style="fill:#2c80c3"/><path d="M3.19,21.92a.36.36,0,0,1-.21.49.38.38,0,0,1-.28-.7A.37.37,0,0,1,3.19,21.92Z" transform="translate(-0.37)" style="fill:#2c80c3"/><path d="M1.88,9.18a.36.36,0,0,1-.2.49.35.35,0,0,1-.49-.2A.36.36,0,0,1,1.39,9,.36.36,0,0,1,1.88,9.18Z" transform="translate(-0.37)" style="fill:#2c80c3"/><path d="M18.45,24H6.33a1.59,1.59,0,0,1-1.59-1.59V4.16A1.59,1.59,0,0,1,6.33,2.57H8.09a.25.25,0,0,1,0,.49H6.33A1.08,1.08,0,0,0,5.27,4.12V22.41a1.08,1.08,0,0,0,1.06,1.06H18.45a1.07,1.07,0,0,0,1.06-1.06V4.16A1.07,1.07,0,0,0,18.45,3.1H16.74a.27.27,0,0,1-.25-.24.27.27,0,0,1,.25-.25h1.71a1.6,1.6,0,0,1,1.6,1.59V22.41A1.62,1.62,0,0,1,18.45,24Z" transform="translate(-0.37)" style="fill:#2c80c3"/><path d="M7.56,9.47h0a.22.22,0,0,1-.21-.12l-.53-.78a.31.31,0,0,1,0-.37.32.32,0,0,1,.37,0l.37.54L8.86,7.47a.26.26,0,1,1,.37.37L7.72,9.39S7.64,9.47,7.56,9.47Z" transform="translate(-0.37)" style="fill:#2c80c3"/><path d="M18,9.43H10.37a.25.25,0,0,1,0-.49H18a.25.25,0,1,1,0,.49Z" transform="translate(-0.37)" style="fill:#2c80c3"/><path d="M14.7,8.16H10.37a.26.26,0,0,1-.24-.24.27.27,0,0,1,.24-.25H14.7a.27.27,0,0,1,.24.25A.26.26,0,0,1,14.7,8.16Z" transform="translate(-0.37)" style="fill:#2c80c3"/><path d="M7.56,12.53h0a.22.22,0,0,1-.21-.12l-.53-.78a.3.3,0,0,1,0-.36c.08-.09.29,0,.37,0l.37.53,1.26-1.31a.26.26,0,0,1,.37.37L7.72,12.45S7.64,12.53,7.56,12.53Z" transform="translate(-0.37)" style="fill:#2c80c3"/><path d="M18,12.49H10.37a.25.25,0,0,1,0-.49H18a.25.25,0,1,1,0,.49Z" transform="translate(-0.37)" style="fill:#2c80c3"/><path d="M14.7,11.22H10.37a.26.26,0,0,1-.24-.24.27.27,0,0,1,.24-.25H14.7a.27.27,0,0,1,.24.25A.26.26,0,0,1,14.7,11.22Z" transform="translate(-0.37)" style="fill:#2c80c3"/><path d="M7.56,15.59h0a.22.22,0,0,1-.21-.12l-.53-.78a.3.3,0,0,1,0-.36c.08-.09.29,0,.37,0l.37.53,1.26-1.31a.26.26,0,0,1,.37.37L7.72,15.51S7.64,15.59,7.56,15.59Z" transform="translate(-0.37)" style="fill:#2c80c3"/><path d="M18,15.55H10.37a.25.25,0,0,1,0-.49H18a.25.25,0,1,1,0,.49Z" transform="translate(-0.37)" style="fill:#2c80c3"/><path d="M14.7,14.29H10.37a.27.27,0,0,1-.24-.25.26.26,0,0,1,.24-.24H14.7a.26.26,0,0,1,.24.24A.27.27,0,0,1,14.7,14.29Z" transform="translate(-0.37)" style="fill:#2c80c3"/><path d="M7.56,18.65h0a.22.22,0,0,1-.21-.12l-.53-.78a.3.3,0,0,1,0-.36.32.32,0,0,1,.37,0L7.6,18l1.26-1.31a.26.26,0,0,1,.37.37L7.72,18.53C7.72,18.61,7.64,18.65,7.56,18.65Z" transform="translate(-0.37)" style="fill:#2c80c3"/><path d="M18,18.61H10.37a.25.25,0,0,1,0-.49H18a.25.25,0,1,1,0,.49Z" transform="translate(-0.37)" style="fill:#2c80c3"/><path d="M14.7,17.35H10.37a.27.27,0,0,1-.24-.25.26.26,0,0,1,.24-.24H14.7a.26.26,0,0,1,.24.24A.27.27,0,0,1,14.7,17.35Z" transform="translate(-0.37)" style="fill:#2c80c3"/><path d="M16.29,4.86H8.49a.72.72,0,0,1-.69-.7V2.73A.72.72,0,0,1,8.49,2H9.88a2.54,2.54,0,0,1,5,0h1.43a.71.71,0,0,1,.69.69V4.16A.71.71,0,0,1,16.29,4.86ZM8.49,2.57a.19.19,0,0,0-.2.21V4.2a.19.19,0,0,0,.2.21h7.8a.19.19,0,0,0,.2-.21V2.78a.19.19,0,0,0-.2-.21H14.66a.24.24,0,0,1-.25-.24,2.06,2.06,0,0,0-4.08,0,.26.26,0,0,1-.24.24Z" transform="translate(-0.37)" style="fill:#2c80c3"/><path d="M22.33,7.14A1.27,1.27,0,1,1,23.6,5.88,1.27,1.27,0,0,1,22.33,7.14Zm0-2a.77.77,0,0,0-.77.78.76.76,0,0,0,.77.77.75.75,0,0,0,.78-.77A.78.78,0,0,0,22.33,5.1Z" transform="translate(-0.37)" style="fill:#2c80c3"/><path d="M2.17,19.67a1.8,1.8,0,1,1,0-3.59,1.8,1.8,0,0,1,0,3.59Zm0-3.06a1.27,1.27,0,1,0,1.26,1.27A1.24,1.24,0,0,0,2.17,16.61Z" transform="translate(-0.37)" style="fill:#2c80c3"/></g></svg>