<svg id="Layer_1" data-name="Layer 1" xmlns="http://www.w3.org/2000/svg" viewBox="0 0 19.07 24.07"><g id="_121_Calculation_Calculator_Mathematics_Number_Cruncher" data-name="121, Calculation, Calculator, Mathematics, Number Cruncher"><path d="M19.38.27H4.62A1.88,1.88,0,0,0,2.77,2.12V21.88a1.88,1.88,0,0,0,1.85,1.85H19.38a1.88,1.88,0,0,0,1.85-1.85V2.12A1.88,1.88,0,0,0,19.38.27Z" transform="translate(-2.47 0.03)" style="fill:#fff"/><polygon points="15.61 18.77 15.61 21.87 12.51 21.87 12.51 18.77 12.51 15.61 15.61 15.61 15.61 18.77" style="fill:#a1c6e9"/><rect x="12.51" y="9.36" width="3.15" height="3.1" style="fill:#fff"/><rect x="9.36" y="12.51" width="3.15" height="3.15" style="fill:#fff"/><rect x="9.36" y="18.77" width="3.15" height="3.15" style="fill:#fff"/><rect x="3.1" y="18.77" width="3.15" height="3.15" style="fill:#fff"/><rect x="6.26" y="15.61" width="3.15" height="3.15" style="fill:#fff"/><rect x="3.1" y="12.51" width="3.15" height="3.15" style="fill:#fff"/><rect x="6.26" y="9.36" width="3.15" height="3.1" style="fill:#fff"/><rect x="12.51" y="12.51" width="3.15" height="3.15" style="fill:#a1c6e9"/><rect x="9.36" y="15.61" width="3.15" height="3.15" style="fill:#a1c6e9"/><rect x="9.36" y="9.36" width="3.15" height="3.1" style="fill:#a1c6e9"/><rect x="6.26" y="18.77" width="3.15" height="3.15" style="fill:#a1c6e9"/><rect x="6.26" y="12.51" width="3.15" height="3.15" style="fill:#a1c6e9"/><rect x="3.1" y="15.61" width="3.15" height="3.15" style="fill:#a1c6e9"/><rect x="3.1" y="9.36" width="3.15" height="3.1" style="fill:#a1c6e9"/><rect x="2.15" y="2.2" width="14.71" height="4.4" style="fill:#a1c6e9"/><path d="M18.38,4.42v.65a.11.11,0,0,1-.1.1L18.18,5v-.5l.2-.1Z" transform="translate(-2.47 0.03)" style="fill:#2c80c3"/><path d="M18.38,3.62v.65l-.05.05-.1-.1-.05,0v-.5l.05-.15h0C18.33,3.52,18.38,3.57,18.38,3.62Z" transform="translate(-2.47 0.03)" style="fill:#2c80c3"/><polygon points="15.81 4.35 15.71 4.45 15.11 4.45 15.01 4.35 15.11 4.3 15.71 4.3 15.81 4.35" style="fill:#2c80c3"/><path d="M18.23,3.47l-.05.2h-.55l-.2,0a.11.11,0,0,1,.1-.1h.7Z" transform="translate(-2.47 0.03)" style="fill:#2c80c3"/><path d="M18.18,5l.05.2h-.7a.11.11,0,0,1-.1-.1l.2,0h.55Z" transform="translate(-2.47 0.03)" style="fill:#2c80c3"/><polygon points="15.11 3.75 15.11 4.2 15.11 4.25 14.96 4.35 14.96 4.3 14.96 3.7 15.11 3.75" style="fill:#2c80c3"/><path d="M17,4.42v.65a.11.11,0,0,1-.1.1h0L16.83,5v-.5l.05,0,.1,0Z" transform="translate(-2.47 0.03)" style="fill:#2c80c3"/><path d="M17,3.62v.65l-.05.05-.1-.1,0,0v-.5l0-.15h0C16.93,3.52,17,3.57,17,3.62Z" transform="translate(-2.47 0.03)" style="fill:#2c80c3"/><polygon points="14.41 4.35 14.31 4.45 13.71 4.45 13.61 4.35 13.71 4.3 14.31 4.3 14.41 4.35" style="fill:#2c80c3"/><path d="M16.83,3.47l0,.2h-.6l-.15,0a.11.11,0,0,1,.1-.1h.7Z" transform="translate(-2.47 0.03)" style="fill:#2c80c3"/><path d="M16.78,5l0,.2h-.7a.11.11,0,0,1-.1-.1l.2,0h.55Z" transform="translate(-2.47 0.03)" style="fill:#2c80c3"/><polygon points="13.71 4.55 13.71 5 13.71 5 13.51 5.05 13.51 4.45 13.56 4.4 13.71 4.5 13.71 4.55" style="fill:#2c80c3"/><polygon points="13.71 3.75 13.71 4.2 13.71 4.25 13.56 4.35 13.51 4.3 13.51 3.7 13.71 3.75" style="fill:#2c80c3"/><path d="M15.58,4.42v.65a.11.11,0,0,1-.1.1L15.43,5v-.5l.15,0Z" transform="translate(-2.47 0.03)" style="fill:#2c80c3"/><path d="M15.58,3.62v.65l-.05.05-.15-.15v-.5l0-.2Q15.58,3.55,15.58,3.62Z" transform="translate(-2.47 0.03)" style="fill:#2c80c3"/><path d="M15.43,3.47l0,.2h-.55l-.2,0a.11.11,0,0,1,.1-.1h.7Z" transform="translate(-2.47 0.03)" style="fill:#2c80c3"/><polygon points="12.31 3.75 12.31 4.2 12.16 4.35 12.11 4.3 12.11 3.7 12.31 3.75" style="fill:#2c80c3"/><path d="M14.18,4.42v.65a.11.11,0,0,1-.1.1h0L14,5v-.5l.15-.15v0Z" transform="translate(-2.47 0.03)" style="fill:#2c80c3"/><path d="M14.08,3.47l-.05.2h-.65l-.2,0a.11.11,0,0,1,.1-.1h.8Z" transform="translate(-2.47 0.03)" style="fill:#2c80c3"/><polygon points="11.61 4.35 11.51 4.45 10.91 4.45 10.81 4.35 10.91 4.3 11.51 4.3 11.61 4.35" style="fill:#2c80c3"/><path d="M13.93,5l.05.2h-.7a.11.11,0,0,1-.1-.1l.2,0h.55Z" transform="translate(-2.47 0.03)" style="fill:#2c80c3"/><polygon points="10.91 4.55 10.91 5 10.91 5 10.71 5.05 10.71 4.45 10.76 4.4 10.86 4.5 10.91 4.55" style="fill:#2c80c3"/><polygon points="10.91 3.75 10.91 4.2 10.76 4.35 10.71 4.3 10.71 3.7 10.91 3.75" style="fill:#2c80c3"/><path d="M12.78,4.42v.65a.11.11,0,0,1-.1.1l0-.2v-.5l.15,0Z" transform="translate(-2.47 0.03)" style="fill:#2c80c3"/><path d="M12.68,3.47l0,.2H12l-.21,0a.12.12,0,0,1,.1-.1h.81Z" transform="translate(-2.47 0.03)" style="fill:#2c80c3"/><polygon points="10.21 4.35 10.11 4.45 9.51 4.45 9.41 4.35 9.51 4.3 10.11 4.3 10.21 4.35" style="fill:#2c80c3"/><path d="M12.53,5l.05.2h-.71a.12.12,0,0,1-.1-.1l.21,0h.55Z" transform="translate(-2.47 0.03)" style="fill:#2c80c3"/><polygon points="9.51 3.75 9.51 4.2 9.36 4.35 9.31 4.3 9.31 3.7 9.51 3.75" style="fill:#2c80c3"/><path d="M11.37,4.42v.65a.11.11,0,0,1-.1.1L11.17,5v-.5l.2-.1Z" transform="translate(-2.47 0.03)" style="fill:#2c80c3"/><path d="M11.37,3.62v.65l0,.05-.15-.15v-.5l.05-.2Q11.37,3.55,11.37,3.62Z" transform="translate(-2.47 0.03)" style="fill:#2c80c3"/><polygon points="8.81 4.35 8.71 4.45 8.11 4.45 8.01 4.35 8.11 4.3 8.71 4.3 8.81 4.35" style="fill:#2c80c3"/><polygon points="8.11 3.7 8.11 4.2 7.96 4.35 7.91 4.3 7.91 3.6 8.11 3.7" style="fill:#2c80c3"/><path d="M10,4.42v.65a.11.11,0,0,1-.1.1l0-.2v-.5l.15,0Z" transform="translate(-2.47 0.03)" style="fill:#2c80c3"/><path d="M10,3.62v.65l-.05.05-.15-.15v-.5l.05-.2Q10,3.55,10,3.62Z" transform="translate(-2.47 0.03)" style="fill:#2c80c3"/><polygon points="7.41 4.35 7.31 4.45 6.71 4.45 6.61 4.35 6.71 4.3 7.31 4.3 7.41 4.35" style="fill:#2c80c3"/><path d="M9.82,3.47l-.05.2h-.6l-.2,0a.11.11,0,0,1,.1-.1h.75Z" transform="translate(-2.47 0.03)" style="fill:#2c80c3"/><path d="M9.72,5l0,.2h-.7a.11.11,0,0,1-.1-.1l.2,0h.55Z" transform="translate(-2.47 0.03)" style="fill:#2c80c3"/><path d="M8.57,3.62v.65l-.05.05-.15-.15v-.5l.05-.2Q8.57,3.55,8.57,3.62Z" transform="translate(-2.47 0.03)" style="fill:#2c80c3"/><polygon points="6 4.35 5.91 4.45 5.3 4.45 5.2 4.35 5.3 4.3 5.91 4.3 6 4.35" style="fill:#2c80c3"/><path d="M8.42,5l.05.2H7.72a.11.11,0,0,1-.1-.1l.2,0h.6Z" transform="translate(-2.47 0.03)" style="fill:#2c80c3"/><path d="M8.42,3.47l-.05.2H7.82l-.25,0a.11.11,0,0,1,.1-.1h.75Z" transform="translate(-2.47 0.03)" style="fill:#2c80c3"/><polygon points="5.3 4.55 5.3 5 5.1 5.05 5.1 4.45 5.15 4.4 5.3 4.55" style="fill:#2c80c3"/><path d="M7.17,4.42v.65a.11.11,0,0,1-.1.1L7,5v-.5l.15,0Z" transform="translate(-2.47 0.03)" style="fill:#2c80c3"/><path d="M7.17,3.62v.65l0,.05L7,4.17v-.5l0-.2Q7.17,3.55,7.17,3.62Z" transform="translate(-2.47 0.03)" style="fill:#2c80c3"/><path d="M6.57,4.42v.65a.11.11,0,0,1-.1.1h0l0-.15v-.5l.15-.1Z" transform="translate(-2.47 0.03)" style="fill:#2c80c3"/><path d="M6.57,3.62v.65l-.05.05-.15-.15v-.5l0-.15h0C6.52,3.52,6.57,3.57,6.57,3.62Z" transform="translate(-2.47 0.03)" style="fill:#2c80c3"/><path d="M6.42,3.47l0,.2H5.82l-.25,0a.11.11,0,0,1,.1-.1h.75Z" transform="translate(-2.47 0.03)" style="fill:#2c80c3"/><path d="M6.32,5l0,.2h-.7a.11.11,0,0,1-.1-.1l.2,0h.55Z" transform="translate(-2.47 0.03)" style="fill:#2c80c3"/><polygon points="3.3 4.55 3.3 5 3.3 5 3.1 5.05 3.1 4.45 3.15 4.4 3.3 4.55" style="fill:#2c80c3"/><polygon points="3.3 3.75 3.3 4.2 3.15 4.35 3.1 4.3 3.1 3.7 3.3 3.75" style="fill:#2c80c3"/><path d="M19.38,24H4.62a2.13,2.13,0,0,1-2.15-2.15V2.12A2.13,2.13,0,0,1,4.62,0H19.38a2.13,2.13,0,0,1,2.15,2.15V21.88A2.13,2.13,0,0,1,19.38,24ZM4.62.57A1.56,1.56,0,0,0,3.07,2.12V21.88a1.56,1.56,0,0,0,1.55,1.55H19.38a1.56,1.56,0,0,0,1.55-1.55V2.12A1.56,1.56,0,0,0,19.38.57Z" transform="translate(-2.47 0.03)" style="fill:#2c80c3"/><path d="M19.33,6.82H4.62a.32.32,0,0,1-.3-.3V2.12a.32.32,0,0,1,.3-.3H19.33a.32.32,0,0,1,.3.3v4.4A.27.27,0,0,1,19.33,6.82ZM5,6.22H19V2.47H5Z" transform="translate(-2.47 0.03)" style="fill:#2c80c3"/><path d="M8.72,22.18H5.57a.32.32,0,0,1-.3-.3V18.73a.3.3,0,0,1,.6,0v2.8h2.8a.32.32,0,0,1,.3.3C9,22,8.87,22.18,8.72,22.18Z" transform="translate(-2.47 0.03)" style="fill:#2c80c3"/><path d="M11.83,22.18H8.67a.32.32,0,0,1-.3-.3V18.73a.3.3,0,1,1,.6,0v2.8h2.8a.33.33,0,0,1,.31.3C12.08,22,12,22.18,11.83,22.18Z" transform="translate(-2.47 0.03)" style="fill:#2c80c3"/><path d="M15,22.18H11.83a.32.32,0,0,1-.31-.3V18.73a.31.31,0,0,1,.61,0v2.8h2.8a.32.32,0,0,1,.3.3C15.23,22,15.13,22.18,15,22.18Z" transform="translate(-2.47 0.03)" style="fill:#2c80c3"/><path d="M8.72,19H5.57a.32.32,0,0,1-.3-.3V15.58a.3.3,0,0,1,.6,0v2.8h2.8a.32.32,0,0,1,.3.3C9,18.83,8.87,19,8.72,19Z" transform="translate(-2.47 0.03)" style="fill:#2c80c3"/><path d="M11.83,19H8.67a.32.32,0,0,1-.3-.3V15.58a.3.3,0,0,1,.6,0v2.8h2.8a.33.33,0,0,1,.31.3C12.08,18.83,12,19,11.83,19Z" transform="translate(-2.47 0.03)" style="fill:#2c80c3"/><path d="M15,19H11.83a.32.32,0,0,1-.31-.3V15.58a.31.31,0,0,1,.61,0v2.8h2.8a.32.32,0,0,1,.3.3C15.23,18.83,15.13,19,15,19Z" transform="translate(-2.47 0.03)" style="fill:#2c80c3"/><path d="M18.08,22.18H14.93a.32.32,0,0,1-.3-.3v-6.3a.3.3,0,1,1,.6,0v6h2.5v-6a.3.3,0,0,1,.6,0v6.25A.25.25,0,0,1,18.08,22.18Z" transform="translate(-2.47 0.03)" style="fill:#2c80c3"/><path d="M8.72,15.93H5.57a.32.32,0,0,1-.3-.3V12.48a.3.3,0,0,1,.6,0v2.8h2.8a.32.32,0,0,1,.3.3C9,15.73,8.87,15.93,8.72,15.93Z" transform="translate(-2.47 0.03)" style="fill:#2c80c3"/><path d="M11.83,15.93H8.67a.32.32,0,0,1-.3-.3V12.48a.3.3,0,0,1,.6,0v2.8h2.8a.33.33,0,0,1,.31.3C12.08,15.73,12,15.93,11.83,15.93Z" transform="translate(-2.47 0.03)" style="fill:#2c80c3"/><path d="M15,15.93H11.83a.32.32,0,0,1-.31-.3V12.48a.31.31,0,0,1,.61,0v2.8h2.8a.32.32,0,0,1,.3.3C15.23,15.73,15.13,15.93,15,15.93Z" transform="translate(-2.47 0.03)" style="fill:#2c80c3"/><path d="M18.08,15.93H14.93a.32.32,0,0,1-.3-.3V12.48a.3.3,0,1,1,.6,0v2.8h2.5v-2.8a.3.3,0,1,1,.6,0v3.15A.23.23,0,0,1,18.08,15.93Z" transform="translate(-2.47 0.03)" style="fill:#2c80c3"/><path d="M8.72,12.78H5.57a.32.32,0,0,1-.3-.3V9.32a.32.32,0,0,1,.3-.3H8.72a.3.3,0,1,1,0,.6H5.92v2.5h2.8a.33.33,0,0,1,.3.31C9,12.58,8.87,12.78,8.72,12.78Z" transform="translate(-2.47 0.03)" style="fill:#2c80c3"/><path d="M11.83,12.78H8.67a.32.32,0,0,1-.3-.3V9.32a.32.32,0,0,1,.3-.3h3.16a.3.3,0,0,1,0,.6H9v2.5h2.81a.33.33,0,0,1,.3.31A.34.34,0,0,1,11.83,12.78Z" transform="translate(-2.47 0.03)" style="fill:#2c80c3"/><path d="M15,12.78H11.83a.32.32,0,0,1-.31-.3V9.32a.32.32,0,0,1,.31-.3H15a.3.3,0,1,1,0,.6H12.17v2.5H15a.33.33,0,0,1,.3.31C15.28,12.58,15.13,12.78,15,12.78Z" transform="translate(-2.47 0.03)" style="fill:#2c80c3"/><path d="M18.08,12.78H14.93a.32.32,0,0,1-.3-.3V9.32a.32.32,0,0,1,.3-.3h3.15a.32.32,0,0,1,.3.3v3.16A.29.29,0,0,1,18.08,12.78Zm-2.8-.6h2.5V9.67h-2.5Z" transform="translate(-2.47 0.03)" style="fill:#2c80c3"/></g></svg>