<svg id="Layer_1" data-name="Layer 1" xmlns="http://www.w3.org/2000/svg" viewBox="0 0 22.91 24"><g id="_664_Auto_transport_truck_van" data-name="664, Auto, transport, truck, van"><path d="M20.86,14.27A1.92,1.92,0,0,0,19,12.61H4.26a1.88,1.88,0,0,0-1.87,1.66v4.14a1.86,1.86,0,0,0,1.87,1.87H19a1.86,1.86,0,0,0,1.87-1.87V14.53A1.58,1.58,0,0,0,20.86,14.27Z" transform="translate(-0.17 -0.07)" style="fill:#a1c6e9"/><path d="M17.63,15.36a1.09,1.09,0,1,1-1.09,1.09A1.08,1.08,0,0,1,17.63,15.36Z" transform="translate(-0.17 -0.07)" style="fill:#fff"/><path d="M5.66,15.36a1.09,1.09,0,1,1-1.09,1.09A1.08,1.08,0,0,1,5.66,15.36Z" transform="translate(-0.17 -0.07)" style="fill:#fff"/><rect x="0.57" y="9.28" width="1.66" height="3.79" style="fill:#fff"/><rect x="20.73" y="8.75" width="1.66" height="3.79" style="fill:#fff"/><path d="M18.72,20.24v1.91a1.36,1.36,0,0,1-1.35,1.35A1.39,1.39,0,0,1,16,22.15V20.24Z" transform="translate(-0.17 -0.07)" style="fill:#fff"/><path d="M4.57,12.61H4.26a1.88,1.88,0,0,0-1.87,1.66h0V2.16A1.51,1.51,0,0,1,3.91.64H19.33a1.52,1.52,0,0,1,1.53,1.52V14.27h0A1.92,1.92,0,0,0,19,12.61Z" transform="translate(-0.17 -0.07)" style="fill:#fff"/><path d="M18.72,8.35v4.26H4.57V8.35A1.17,1.17,0,0,1,5.74,7.17H17.59A1.16,1.16,0,0,1,18.72,8.35Z" transform="translate(-0.17 -0.07)" style="fill:#fff"/><path d="M7.27,20.24v1.91a1.35,1.35,0,0,1-2.7,0V20.24Z" transform="translate(-0.17 -0.07)" style="fill:#fff"/><path d="M19,20.8h-.3a.57.57,0,1,1,0-1.13H19a1.36,1.36,0,0,0,1.35-1.35V14.27A1.35,1.35,0,0,0,19,13.09h-.31a.57.57,0,0,1,0-1.13H19a2.4,2.4,0,0,1,2.39,2.09v4.18A2.47,2.47,0,0,1,19,20.8Z" transform="translate(-0.17 -0.07)" style="fill:#2c80c3"/><path d="M4.57,20.8H4.26a2.44,2.44,0,0,1-2.44-2.44V14.18a2.41,2.41,0,0,1,2.4-2.09h.3a.57.57,0,1,1,0,1.13h-.3A1.32,1.32,0,0,0,2.91,14.4v4A1.36,1.36,0,0,0,4.26,19.8h.31a.57.57,0,0,1,.56.57A.67.67,0,0,1,4.57,20.8Z" transform="translate(-0.17 -0.07)" style="fill:#2c80c3"/><path d="M16,20.8H7.27a.57.57,0,1,1,0-1.13H16a.57.57,0,0,1,0,1.13Z" transform="translate(-0.17 -0.07)" style="fill:#2c80c3"/><path d="M18.72,13.18H4.57A.58.58,0,0,1,4,12.61V8.35a1.7,1.7,0,0,1,1.7-1.7H17.55a1.7,1.7,0,0,1,1.69,1.7v4.26A.57.57,0,0,1,18.72,13.18ZM5.09,12.09H18.16V8.35a.6.6,0,0,0-.61-.61H5.7a.59.59,0,0,0-.61.61v3.74Z" transform="translate(-0.17 -0.07)" style="fill:#2c80c3"/><path d="M2.39,14.79a.57.57,0,0,1-.57-.56V13.14a.57.57,0,1,1,1.13,0v1.09A.64.64,0,0,1,2.39,14.79Z" transform="translate(-0.17 -0.07)" style="fill:#2c80c3"/><path d="M2.39,9.91a.57.57,0,0,1-.57-.56V2.16A2.1,2.1,0,0,1,3.91.07H19.33a2.09,2.09,0,0,1,2.09,2.09V8.78a.57.57,0,1,1-1.13,0V2.16a1,1,0,0,0-1-1H3.91a1,1,0,0,0-1,1V9.35A.57.57,0,0,1,2.39,9.91Z" transform="translate(-0.17 -0.07)" style="fill:#2c80c3"/><path d="M20.9,14.79a.58.58,0,0,1-.57-.56V12.57a.57.57,0,0,1,1.14,0v1.66A.66.66,0,0,1,20.9,14.79Z" transform="translate(-0.17 -0.07)" style="fill:#2c80c3"/><path d="M22.51,13.18H20.86a.58.58,0,0,1-.57-.57V8.78a.57.57,0,0,1,.57-.56h1.65a.57.57,0,0,1,.57.56v3.83A.58.58,0,0,1,22.51,13.18Zm-1.09-1.09H22V9.35h-.57Z" transform="translate(-0.17 -0.07)" style="fill:#2c80c3"/><path d="M2.39,13.7H.73a.57.57,0,0,1-.56-.56V9.35a.57.57,0,0,1,.56-.57H2.39A.57.57,0,0,1,3,9.35v3.83A.64.64,0,0,1,2.39,13.7ZM1.3,12.61h.57V9.87H1.3Z" transform="translate(-0.17 -0.07)" style="fill:#2c80c3"/><path d="M5.92,24.07A1.93,1.93,0,0,1,4,22.15V20.24a.58.58,0,0,1,.57-.57h2.7a.57.57,0,0,1,.56.57v1.91A1.93,1.93,0,0,1,5.92,24.07ZM5.09,20.8v1.35a.83.83,0,1,0,1.65,0V20.8Z" transform="translate(-0.17 -0.07)" style="fill:#2c80c3"/><path d="M17.33,24.07a1.93,1.93,0,0,1-1.92-1.92V20.24a.58.58,0,0,1,.57-.57h2.74a.58.58,0,0,1,.57.57v1.91A2,2,0,0,1,17.33,24.07Zm-.79-3.27v1.35a.83.83,0,0,0,1.66,0V20.8Z" transform="translate(-0.17 -0.07)" style="fill:#2c80c3"/><path d="M22,24.07H1.3a.57.57,0,1,1,0-1.13H22a.58.58,0,0,1,.57.56A.66.66,0,0,1,22,24.07Z" transform="translate(-0.17 -0.07)" style="fill:#2c80c3"/><path d="M5.66,18.06A1.66,1.66,0,1,1,7.31,16.4,1.68,1.68,0,0,1,5.66,18.06Zm0-2.18a.57.57,0,1,0,.56.57A.6.6,0,0,0,5.66,15.88Z" transform="translate(-0.17 -0.07)" style="fill:#2c80c3"/><path d="M17.63,18.06a1.66,1.66,0,1,1,1.66-1.66A1.69,1.69,0,0,1,17.63,18.06Zm0-2.18a.57.57,0,1,0,.57.57A.61.61,0,0,0,17.63,15.88Z" transform="translate(-0.17 -0.07)" style="fill:#2c80c3"/><path d="M14.37,17H8.92a.57.57,0,0,1,0-1.13h5.45a.57.57,0,0,1,.56.56A.6.6,0,0,1,14.37,17Z" transform="translate(-0.17 -0.07)" style="fill:#2c80c3"/><path d="M13.28,18.63H10a.59.59,0,0,1-.57-.57.58.58,0,0,1,.57-.57h3.27a.57.57,0,0,1,.56.57A.65.65,0,0,1,13.28,18.63Z" transform="translate(-0.17 -0.07)" style="fill:#2c80c3"/><path d="M13.28,15.36H10a.57.57,0,1,1,0-1.13h3.27a.57.57,0,0,1,.56.56A.6.6,0,0,1,13.28,15.36Z" transform="translate(-0.17 -0.07)" style="fill:#2c80c3"/><path d="M12.19,11.53a.54.54,0,0,1-.44-.22.58.58,0,0,1,.13-.79l2.18-1.65a.57.57,0,0,1,.79.13.52.52,0,0,1-.14.78l-2.17,1.66A1.5,1.5,0,0,1,12.19,11.53Z" transform="translate(-0.17 -0.07)" style="fill:#2c80c3"/><path d="M9.62,11.53a.54.54,0,0,1-.44-.22.58.58,0,0,1,.13-.79l1.44-1.09a.57.57,0,0,1,.79.14.56.56,0,0,1-.14.78L10,11.44A1.13,1.13,0,0,1,9.62,11.53Z" transform="translate(-0.17 -0.07)" style="fill:#2c80c3"/></g></svg>