<svg id="Layer_1" data-name="Layer 1" xmlns="http://www.w3.org/2000/svg" viewBox="0 0 41.87 24"><path d="M2.48,4.82V.43a2.2,2.2,0,1,1,0,4.39Z" transform="translate(9.31 -0.07)" style="fill:#28a8e0"/><rect x="10.4" y="0.36" width="1.4" height="4.39" style="fill:#fff"/><path d="M27.53,12a7.34,7.34,0,0,1,2.41,2,7.26,7.26,0,0,1,1.11,2,2.29,2.29,0,0,0,1.15-2C32.2,12.89,28.67,12.06,27.53,12Z" transform="translate(9.31 -0.07)" style="fill:#fdfeff"/><path d="M3,18.44a5.28,5.28,0,0,1-5.28,5.27,5.27,5.27,0,0,1-5.27-5.27,5.23,5.23,0,0,1,.7-2.64h3.13A5.27,5.27,0,0,1,.85,18.44Z" transform="translate(9.31 -0.07)" style="fill:#beb8c5"/><path d="M1.63,18.44H.85A5.27,5.27,0,0,0-3.72,15.8H-5.16a3.87,3.87,0,0,0-1,2.64,3.91,3.91,0,0,0,3.91,3.91,3.91,3.91,0,0,0,3.91-3.91Z" transform="translate(9.31 -0.07)" style="fill:#fdfeff"/><path d="M-.39,18.44a1.89,1.89,0,0,1-1.89,1.88,1.89,1.89,0,0,1-1.89-1.88,1.89,1.89,0,0,1,1.89-1.89A1.89,1.89,0,0,1-.39,18.44Z" transform="translate(9.31 -0.07)" style="fill:#28a8e0"/><path d="M-2.28,20.68a2.24,2.24,0,0,1-2.25-2.24,2.25,2.25,0,0,1,2.25-2.25A2.25,2.25,0,0,1,0,18.44,2.24,2.24,0,0,1-2.28,20.68Zm0-3.77a1.53,1.53,0,0,0-1.53,1.53A1.53,1.53,0,0,0-2.28,20,1.53,1.53,0,0,0-.75,18.44,1.53,1.53,0,0,0-2.28,16.91Z" transform="translate(9.31 -0.07)" style="fill:#323031"/><path d="M26.63,11.62a7.24,7.24,0,0,0-9.48,5.44c0,.23-.08.46-.1.7a.91.91,0,0,0,.88.68H7.81c-.19,0,5-2,6.88-4.1a12.28,12.28,0,0,0,2.87-5.79c0-.2.07-.41.1-.61A15.57,15.57,0,0,1,26.63,11.62Z" transform="translate(9.31 -0.07)" style="fill:#fff"/><path d="M4.68,3.45V17.76c0-.24-.06-.47-.11-.7a7.2,7.2,0,0,0-5.72-5.71C-1,11.29,4.68,8.43,4.68,3.45Z" transform="translate(9.31 -0.07)" style="fill:#fff"/><path d="M31.43,17.76h0a.92.92,0,0,1-.88.68H17.93a.91.91,0,0,1-.88-.68c0-.23.06-.47.1-.7a7.22,7.22,0,0,1,14.18,0h0C31.37,17.29,31.4,17.52,31.43,17.76Z" transform="translate(9.31 -0.07)" style="fill:#28a8e0"/><path d="M17.15,17.06c0,.23-.08.47-.1.7a.91.91,0,0,0,.88.68H30.55a.92.92,0,0,0,.88-.68h0c0-.24-.06-.47-.1-.7h0a7.19,7.19,0,0,0-.49-1.53H17.64A6.83,6.83,0,0,0,17.15,17.06Z" transform="translate(9.31 -0.07)" style="fill:#1d76bb"/><path d="M4.68,17.76a.92.92,0,0,1-.88.68H.85A5.27,5.27,0,0,0-3.72,15.8H-8.44a.51.51,0,0,1-.51-.52.47.47,0,0,1,0-.17s.05-.09.07-.13a7.21,7.21,0,0,1,6.34-3.76,7.22,7.22,0,0,1,7.09,5.84C4.62,17.29,4.65,17.52,4.68,17.76Z" transform="translate(9.31 -0.07)" style="fill:#28a8e0"/><path d="M4.68,17.76c0-.24-.06-.47-.1-.7a8,8,0,0,0-.49-1.53h-13a.51.51,0,0,0,.44.27h4.72A5.27,5.27,0,0,1,.85,18.44H3.8A.92.92,0,0,0,4.68,17.76Z" transform="translate(9.31 -0.07)" style="fill:#1d76bb"/><path d="M24.24,23.71a5.27,5.27,0,0,0,5.27-5.27H19A5.28,5.28,0,0,0,24.24,23.71Z" transform="translate(9.31 -0.07)" style="fill:#beb8c5"/><path d="M20.47,18.44a3.91,3.91,0,0,0,7.82,0H20.47Z" transform="translate(9.31 -0.07)" style="fill:#fdfeff"/><path d="M24.24,20.32a1.89,1.89,0,0,0,1.89-1.88H22.35A1.89,1.89,0,0,0,24.24,20.32Z" transform="translate(9.31 -0.07)" style="fill:#28a8e0"/><path d="M24.24,19.85a1.42,1.42,0,0,1-1.42-1.41.15.15,0,0,1,.15-.15.15.15,0,0,1,.14.15,1.13,1.13,0,0,0,1.13,1.12.15.15,0,0,1,.14.15A.14.14,0,0,1,24.24,19.85Z" transform="translate(9.31 -0.07)" style="fill:#fff"/><path d="M24.24,24.07a5.64,5.64,0,0,1-5.63-5.63.36.36,0,0,1,.35-.36H29.51a.36.36,0,0,1,.36.36,5.63,5.63,0,0,1-5.63,5.63Zm-4.9-5.27a4.92,4.92,0,0,0,8.38,3.11,4.86,4.86,0,0,0,1.42-3.11Z" transform="translate(9.31 -0.07)" style="fill:#323031"/><path d="M24.24,20.68A2.25,2.25,0,0,1,22,18.44a.36.36,0,0,1,.36-.36h3.78a.36.36,0,0,1,.36.36A2.25,2.25,0,0,1,24.24,20.68ZM22.75,18.8A1.53,1.53,0,0,0,24.24,20a1.51,1.51,0,0,0,1.48-1.16Z" transform="translate(9.31 -0.07)" style="fill:#323031"/><path d="M17.93,18.8h0a1.27,1.27,0,0,1-1.23-.95.49.49,0,0,1,0-.12c0-.25.06-.5.11-.74a7.58,7.58,0,0,1,14.87,0,.07.07,0,0,1,0,.05,5.36,5.36,0,0,1,.1.7.26.26,0,0,1,0,.15,1.26,1.26,0,0,1-1.22.93Zm-.51-1.08a.55.55,0,0,0,.51.36H30.55a.55.55,0,0,0,.51-.36,5.58,5.58,0,0,0-.09-.59h0a6.86,6.86,0,0,0-13.47,0C17.47,17.32,17.44,17.52,17.42,17.72Z" transform="translate(9.31 -0.07)" style="fill:#323031"/><path d="M27,14.48H21.5a.36.36,0,1,1,0-.71H27a.36.36,0,1,1,0,.71Z" transform="translate(9.31 -0.07)" style="fill:#323031"/><path d="M28.32,15.89H20.16a.36.36,0,0,1,0-.72h8.16a.36.36,0,1,1,0,.72Z" transform="translate(9.31 -0.07)" style="fill:#323031"/><path d="M31.05,16.31l-.13,0a.38.38,0,0,1-.21-.22,7,7,0,0,0-1.05-1.88,7,7,0,0,0-2.29-1.88.35.35,0,0,1-.19-.41.37.37,0,0,1,.37-.26c.59,0,5,.72,5,2.33a2.65,2.65,0,0,1-1.33,2.29A.41.41,0,0,1,31.05,16.31Zm-1.91-3.67a7.09,7.09,0,0,1,1.08,1.11,7.87,7.87,0,0,1,1,1.64A1.94,1.94,0,0,0,31.84,14C31.84,13.54,30.47,13,29.14,12.64Z" transform="translate(9.31 -0.07)" style="fill:#323031"/><path d="M-2.28,24.07a5.64,5.64,0,0,1-5.63-5.63,5.64,5.64,0,0,1,.75-2.82.37.37,0,0,1,.31-.18h3.13a5.64,5.64,0,0,1,4.77,2.64H3a.36.36,0,0,1,.35.36A5.64,5.64,0,0,1-2.28,24.07Zm-4.36-7.91a5,5,0,0,0-.55,2.28,4.91,4.91,0,0,0,4.91,4.91,4.91,4.91,0,0,0,4.9-4.55H.85a.35.35,0,0,1-.31-.18,4.93,4.93,0,0,0-4.26-2.46Z" transform="translate(9.31 -0.07)" style="fill:#323031"/><path d="M3.8,18.8H.85a.35.35,0,0,1-.31-.18,4.93,4.93,0,0,0-4.26-2.46H-8.44a.87.87,0,0,1-.87-.88.8.8,0,0,1,.06-.3v0a.64.64,0,0,1,.08-.14,7.55,7.55,0,0,1,6.65-4A7.58,7.58,0,0,1,4.93,17c0,.24.08.49.1.74a.25.25,0,0,1,0,.12A1.26,1.26,0,0,1,3.8,18.8Zm-2.75-.72H3.8a.55.55,0,0,0,.51-.36,5.58,5.58,0,0,0-.09-.59,6.86,6.86,0,0,0-6.73-5.55,6.88,6.88,0,0,0-6,3.57.31.31,0,0,1-.05.1v0a.16.16,0,0,0,.15.16h4.72A5.64,5.64,0,0,1,1.05,18.08Z" transform="translate(9.31 -0.07)" style="fill:#323031"/><path d="M2.48,5.17a.36.36,0,0,1-.36-.35V.43A.36.36,0,0,1,2.48.07a2.55,2.55,0,1,1,0,5.1ZM2.84.82v3.6a1.83,1.83,0,0,0,0-3.6Z" transform="translate(9.31 -0.07)" style="fill:#323031"/><path d="M2.48,5.17H1.09a.36.36,0,0,1-.36-.35V.43A.36.36,0,0,1,1.09.07H2.48a.36.36,0,0,1,.36.36V4.82A.36.36,0,0,1,2.48,5.17Zm-1-.71h.67V.79H1.45Z" transform="translate(9.31 -0.07)" style="fill:#323031"/><path d="M7.49,5.53a.35.35,0,0,1-.19-.06l-4-2.42a.37.37,0,0,1-.12-.5.36.36,0,0,1,.49-.12l4,2.43a.36.36,0,0,1-.19.67Z" transform="translate(9.31 -0.07)" style="fill:#323031"/><path d="M17.93,18.8H7.81a.36.36,0,0,1-.35-.29c-.07-.3.06-.36.7-.64,1.32-.59,4.82-2.15,6.26-3.77A11.79,11.79,0,0,0,17.2,8.48c0-.21.08-.41.1-.59a.36.36,0,0,1,.38-.31,15.9,15.9,0,0,1,9.16,3.75.36.36,0,0,1,.15.29.36.36,0,0,1-.35.36.3.3,0,0,1-.13,0,6.88,6.88,0,0,0-9,5.17c0,.19-.06.39-.08.59a.55.55,0,0,0,.51.36.36.36,0,0,1,.36.36A.36.36,0,0,1,17.93,18.8Zm-8.49-.72h7.35a.92.92,0,0,1-.09-.23.49.49,0,0,1,0-.12c0-.25.06-.5.11-.74a7.58,7.58,0,0,1,7.44-6.13c.3,0,.6,0,.9.05A15.52,15.52,0,0,0,18,8.32c0,.09,0,.19-.05.3a12.61,12.61,0,0,1-2.95,6C13.71,16,11.11,17.3,9.44,18.08Z" transform="translate(9.31 -0.07)" style="fill:#323031"/><path d="M8.19,18.8H3a.36.36,0,0,1-.36-.36A.36.36,0,0,1,3,18.08H8.19a.36.36,0,0,1,.36.36A.36.36,0,0,1,8.19,18.8Z" transform="translate(9.31 -0.07)" style="fill:#323031"/><path d="M3.49,17.74H1.73a.35.35,0,0,1-.31-.18A6.06,6.06,0,0,0-3.49,15.1h-3.4a.36.36,0,0,1-.35-.36.36.36,0,0,1,.35-.36h3.4A6.83,6.83,0,0,1,1.93,17H3.49a.36.36,0,1,1,0,.72Z" transform="translate(9.31 -0.07)" style="fill:#323031"/><path d="M30.09,17.74H18.39a.36.36,0,0,1,0-.72h11.7a.36.36,0,0,1,0,.72Z" transform="translate(9.31 -0.07)" style="fill:#323031"/><path d="M16.33,8.29h-.66a1.55,1.55,0,1,1,0-3.09H22.9a.36.36,0,1,1,0,.71H15.67a.84.84,0,1,0,0,1.67h.66a.36.36,0,1,1,0,.71Z" transform="translate(9.31 -0.07)" style="fill:#323031"/><path d="M24.9,8.29H22.11a.36.36,0,0,1,0-.71H24.9a.84.84,0,0,0,0-1.67h-.66a.36.36,0,1,1,0-.71h.66a1.55,1.55,0,1,1,0,3.09Z" transform="translate(9.31 -0.07)" style="fill:#323031"/><path d="M4.68,18.12a.36.36,0,0,1-.36-.32c0-.23-.06-.45-.1-.67A6.89,6.89,0,0,0-1.22,11.7a.35.35,0,0,1-.28-.31A.34.34,0,0,1-1.31,11c.06,0,5.63-2.83,5.63-7.57a.36.36,0,1,1,.71,0V17.76a.36.36,0,0,1-.34.36ZM-.2,11.22a7.68,7.68,0,0,1,4.52,3.93V6.53A12.06,12.06,0,0,1-.2,11.22Z" transform="translate(9.31 -0.07)" style="fill:#323031"/><path d="M4.68,18.8a.37.37,0,0,1-.28-.13l-.23-.28a.35.35,0,0,1,0-.48.58.58,0,0,0,.14-.24.34.34,0,0,1,.39-.26.35.35,0,0,1,.31.35v.68a.37.37,0,0,1-.23.34Z" transform="translate(9.31 -0.07)" style="fill:#323031"/><path d="M-2.28,19.85a1.41,1.41,0,0,1-1.41-1.41.15.15,0,0,1,.14-.15.15.15,0,0,1,.14.15,1.13,1.13,0,0,0,1.13,1.12.15.15,0,0,1,.14.15A.14.14,0,0,1-2.28,19.85Z" transform="translate(9.31 -0.07)" style="fill:#fff"/></svg>