<svg id="Layer_1" data-name="Layer 1" xmlns="http://www.w3.org/2000/svg" viewBox="0 0 24.13 24"><g id="C_-_61_Diagram_features_human_people_personal_profile_user" data-name="C - 61, Diagram, features, human, people, personal, profile, user"><path d="M20.87,11.52V12A8.85,8.85,0,0,1,3.53,14.45,9.18,9.18,0,0,1,3.18,12a8.86,8.86,0,0,1,8.36-8.8H12a8.81,8.81,0,0,1,8.85,8.32ZM16.14,17V14.72a1.81,1.81,0,0,0-1.8-1.8H9.74a1.84,1.84,0,0,0-1.83,1.8V17ZM14.3,9.28a2.28,2.28,0,0,0-4.56,0,2.28,2.28,0,0,0,4.56,0Z" transform="translate(0.07)" style="fill:#a1c6e9"/><path d="M12.46,15.15h-.92v.92h.92v-.92Zm0-.43V13.8h-.92v.92Zm3.68,0V17H7.91V14.72a1.81,1.81,0,0,1,1.83-1.8h4.6A1.81,1.81,0,0,1,16.14,14.72Z" transform="translate(0.07)" style="fill:#fff"/><path d="M12,7A2.26,2.26,0,0,1,14.3,9.28,2.29,2.29,0,0,1,12,11.56,2.27,2.27,0,0,1,9.74,9.28,2.29,2.29,0,0,1,12,7Z" transform="translate(0.07)" style="fill:#fff"/><path d="M23.8,11.52H20.87a8.78,8.78,0,0,0-2.94-6.09l2-2.19A11.8,11.8,0,0,1,23.8,11.52Z" transform="translate(0.07)" style="fill:#fff"/><path d="M19.86,3.24l-2,2.19A8.83,8.83,0,0,0,12,3.2H11.5V.26H12A11.59,11.59,0,0,1,19.86,3.24Z" transform="translate(0.07)" style="fill:#fff"/><path d="M23.8,11.52V12A11.82,11.82,0,0,1,.68,15.37l2.8-1A8.86,8.86,0,0,0,20.83,12v-.49h0Z" transform="translate(0.07)" style="fill:#fff"/><path d="M11.54.26V3.2A8.82,8.82,0,0,0,3.18,12a9.18,9.18,0,0,0,.35,2.45l-2.81,1A13,13,0,0,1,.24,12,11.74,11.74,0,0,1,11.54.26Z" transform="translate(0.07)" style="fill:#fff"/><rect x="11.65" y="15.15" width="0.92" height="0.92" style="fill:#5180c1"/><rect x="11.65" y="13.8" width="0.92" height="0.92" style="fill:#5180c1"/><path d="M12,24a12,12,0,0,1-7.27-2.41A12.19,12.19,0,0,1,.46,15.46,11.67,11.67,0,0,1-.07,12,11.83,11.83,0,0,1,3.31,3.68,12.05,12.05,0,0,1,11.5,0H12a11.91,11.91,0,0,1,8,3.07,12,12,0,0,1,2.85,3.76A12.62,12.62,0,0,1,24,11.52V12a12,12,0,0,1-3.55,8.5A11.79,11.79,0,0,1,12,24ZM12,.48h-.48A11.49,11.49,0,0,0,.46,12a12.45,12.45,0,0,0,.48,3.32A11.62,11.62,0,0,0,12,23.47,11.5,11.5,0,0,0,23.58,12v-.48a11.28,11.28,0,0,0-3.85-8.1A11.64,11.64,0,0,0,12,.48Z" transform="translate(0.07)" style="fill:#5180c1"/><path d="M12,21.07A9.22,9.22,0,0,1,6.5,19.23a9.56,9.56,0,0,1-3.24-4.69A9.73,9.73,0,0,1,2.91,12,9.08,9.08,0,0,1,11.5,3H12A9.25,9.25,0,0,1,18.11,5.3a9.06,9.06,0,0,1,3,6.26v.53A9.08,9.08,0,0,1,12,21.07ZM12,3.46h-.48A8.55,8.55,0,1,0,20.61,12v-.48A8.52,8.52,0,0,0,12,3.46Z" transform="translate(0.07)" style="fill:#5180c1"/><path d="M11.54,3.46a.28.28,0,0,1-.26-.26V.26a.26.26,0,1,1,.52,0V3.2a.28.28,0,0,1-.26.26Z" transform="translate(0.07)" style="fill:#5180c1"/><path d="M17.93,5.69a.27.27,0,0,1-.17,0,.23.23,0,0,1,0-.35l2-2.19h0a.25.25,0,1,1,.35.35l-2,2.19S18,5.69,17.93,5.69Z" transform="translate(0.07)" style="fill:#5180c1"/><path d="M23.8,11.78H20.87a.26.26,0,1,1,0-.52H23.8a.26.26,0,1,1,0,.52Z" transform="translate(0.07)" style="fill:#5180c1"/><path d="M.72,15.63a.28.28,0,0,1-.26-.26.2.2,0,0,1,.18-.22l2.8-1a.25.25,0,0,1,.13.48l-2.8,1Z" transform="translate(0.07)" style="fill:#5180c1"/><path d="M16.14,17.26H7.91A.29.29,0,0,1,7.64,17V14.72A2.06,2.06,0,0,1,9.7,12.66h4.6a2.06,2.06,0,0,1,2.06,2.06V17A.26.26,0,0,1,16.14,17.26Zm-8-.53h7.71V14.67a1.55,1.55,0,0,0-1.54-1.53H9.74a1.57,1.57,0,0,0-1.57,1.58Z" transform="translate(0.07)" style="fill:#5180c1"/><path d="M12,11.78a2.54,2.54,0,0,1-2.54-2.5A2.5,2.5,0,0,1,12,6.79a2.5,2.5,0,1,1,0,5Zm0-4.51a2,2,0,1,0,2,2A2,2,0,0,0,12,7.27Z" transform="translate(0.07)" style="fill:#5180c1"/><path d="M18.42,11.78a.28.28,0,0,1-.27-.26,6.13,6.13,0,0,0-12.26,0,.28.28,0,0,1-.26.26.29.29,0,0,1-.27-.26,6.62,6.62,0,1,1,13.23,0A.19.19,0,0,1,18.42,11.78Z" transform="translate(0.07)" style="fill:#5180c1"/></g></svg>