<svg id="Layer_1" data-name="Layer 1" xmlns="http://www.w3.org/2000/svg" viewBox="0 0 18.57 24"><g id="B_-_123_chat_live_chat_meeting_mobile_online_conversation" data-name="B - 123, chat, live chat, meeting, mobile, online conversation"><path d="M12.31,19.62a.68.68,0,0,1,.66.66.67.67,0,0,1-.66.65.66.66,0,0,1-.65-.65A.67.67,0,0,1,12.31,19.62Z" transform="translate(-3.55)" style="fill:#fff"/><polygon points="18.44 4.91 18.44 8.37 14.98 8.37 12.74 10.16 13.31 8.37 12.13 8.37 12.13 4.91 13.97 4.91 14.98 4.91 18.44 4.91" style="fill:#fff"/><path d="M18.53,8.36V20.15a1.67,1.67,0,0,1-1.71,1.66h-9a1.7,1.7,0,0,1-1.71-1.66V1.88A1.71,1.71,0,0,1,7.8.18h9a1.71,1.71,0,0,1,1.71,1.7v3h-1V3.28H7.14V18.79H17.52V9.2l-1.27,1ZM13,20.28a.67.67,0,0,0-.65-.66.68.68,0,0,0-.66.66.67.67,0,0,0,.66.65A.66.66,0,0,0,13,20.28Z" transform="translate(-3.55)" style="fill:#fff"/><path d="M17.52,9.2v9.59H7.14V3.24H17.52V4.86H15.69V8.32h1.18l-.57,1.84ZM16.3,15.42c0-3,.3-2.33-2.37-3.86l-.43-.39-1.14,1.57-1.14-1.57-.44.39c-2.67,1.53-2.36.79-2.36,3.86A17.19,17.19,0,0,0,16.3,15.42ZM12.36,11c1.27,0,2-1.84,2-2.85a2,2,0,0,0-3.94,0C10.43,9.15,11.13,11,12.36,11Z" transform="translate(-3.55)" style="fill:#a1c6e9"/><path d="M13.93,11.61c2.67,1.53,2.37.83,2.37,3.85a17.41,17.41,0,0,1-7.93,0c0-3-.31-2.32,2.37-3.85l1,1.79.61-.61.57.52Z" transform="translate(-3.55)" style="fill:#fff"/><polygon points="10.38 11.61 9.33 13.27 8.76 12.74 9.94 11.17 10.38 11.61" style="fill:#fff"/><path d="M14.33,8.1c0,1-.7,2.85-2,2.85s-2-1.84-2-2.85a2,2,0,0,1,3.94,0Z" transform="translate(-3.55)" style="fill:#fff"/><polygon points="7.62 11.17 8.76 12.74 8.15 13.36 7.18 11.61 7.62 11.17" style="fill:#fff"/><path d="M16.87,22H7.8a1.87,1.87,0,0,1-1.88-1.88V1.88A1.87,1.87,0,0,1,7.8,0h9a1.87,1.87,0,0,1,1.89,1.88v3a.19.19,0,0,1-.18.17.18.18,0,0,1-.17-.17v-3A1.48,1.48,0,0,0,16.87.39H7.8A1.48,1.48,0,0,0,6.31,1.88V20.15A1.48,1.48,0,0,0,7.8,21.64h9a1.47,1.47,0,0,0,1.49-1.49V8.76l-1.92,1.53a.17.17,0,0,1-.27,0,.17.17,0,0,1,.05-.26l2.23-1.8s.13,0,.22,0,.13.08.13.17V20.1A1.9,1.9,0,0,1,16.87,22Z" transform="translate(-3.55)" style="fill:#5180c1"/><path d="M17.52,19H7.14A.18.18,0,0,1,7,18.79V3.24a.18.18,0,0,1,.17-.17H17.52a.18.18,0,0,1,.18.17V4.86a.18.18,0,1,1-.35,0V3.46h-10V18.57h10v-9l-.92.75a.18.18,0,0,1-.27-.05.17.17,0,0,1,.05-.26l1.27-1s.13,0,.22,0a.19.19,0,0,1,.13.17v9.59A.28.28,0,0,1,17.52,19Z" transform="translate(-3.55)" style="fill:#5180c1"/><path d="M12.49,2H11a.19.19,0,0,1-.18-.17A.19.19,0,0,1,11,1.62h1.49a.18.18,0,0,1,.17.18A.16.16,0,0,1,12.49,2Z" transform="translate(-3.55)" style="fill:#5180c1"/><path d="M13.63,2H13.1a.18.18,0,0,1,0-.35h.53a.19.19,0,0,1,.17.18A.16.16,0,0,1,13.63,2Z" transform="translate(-3.55)" style="fill:#5180c1"/><path d="M12.31,21.11a.84.84,0,0,1-.83-.88.86.86,0,0,1,.83-.87.88.88,0,0,1,.88.87A.86.86,0,0,1,12.31,21.11Zm0-1.31a.48.48,0,0,0-.48.48.49.49,0,0,0,.48.48.48.48,0,0,0,.48-.48A.47.47,0,0,0,12.31,19.8Z" transform="translate(-3.55)" style="fill:#5180c1"/><path d="M13.93,14.23H13a.18.18,0,0,1-.17-.17.19.19,0,0,1,.17-.18h.92a.19.19,0,0,1,.18.18A.16.16,0,0,1,13.93,14.23Z" transform="translate(-3.55)" style="fill:#5180c1"/><path d="M13.93,14.8H13a.18.18,0,0,1-.17-.17.19.19,0,0,1,.17-.18h.92a.19.19,0,0,1,.18.18A.16.16,0,0,1,13.93,14.8Z" transform="translate(-3.55)" style="fill:#5180c1"/><path d="M12.31,16.07a17.71,17.71,0,0,1-4-.43c-.09,0-.13-.09-.13-.18v-.88c0-1.75,0-1.84,1.4-2.58.26-.13.61-.35,1.05-.57a.21.21,0,0,1,.26.09.2.2,0,0,1-.09.26c-.43.22-.78.44-1.05.57-.61.31-1,.48-1.09.74a3.78,3.78,0,0,0-.13,1.45v.7a17.39,17.39,0,0,0,7.53,0v-.7A3.88,3.88,0,0,0,16,13.05c-.13-.26-.48-.44-1.1-.79-.26-.13-.61-.35-1-.57a.2.2,0,0,1-.09-.26.21.21,0,0,1,.26-.09c.4.22.75.4,1,.57,1.4.75,1.44.83,1.44,2.63v.83a.16.16,0,0,1-.17.18A15.61,15.61,0,0,1,12.31,16.07Z" transform="translate(-3.55)" style="fill:#5180c1"/><path d="M12.36,11.17c-1.4,0-2.15-2-2.15-3a2.15,2.15,0,1,1,4.29,0C14.55,9.15,13.8,11.17,12.36,11.17Zm0-4.82A1.76,1.76,0,0,0,10.6,8.1c0,.92.62,2.63,1.76,2.63S14.11,9,14.11,8.1A1.71,1.71,0,0,0,12.36,6.35Z" transform="translate(-3.55)" style="fill:#5180c1"/><path d="M12.88,13.49a.17.17,0,0,1-.13,0l-.57-.53a.19.19,0,0,1,0-.26l1.14-1.58s.08-.09.13-.09.13,0,.13,0l.44.39c.08,0,.08.18,0,.26L13,13.4c.09,0,0,.09-.09.09Zm-.3-.75.26.27.83-1.36-.13-.18Z" transform="translate(-3.55)" style="fill:#5180c1"/><path d="M11.7,13.58h0a.26.26,0,0,1-.18-.09l-1-1.8a.16.16,0,0,1,0-.22l.44-.39a.18.18,0,0,1,.13,0c.05,0,.09,0,.14.08l1.13,1.58a.24.24,0,0,1,0,.26l-.61.57A.44.44,0,0,1,11.7,13.58Zm-.7-2,.79,1.4.3-.31-.92-1.27Z" transform="translate(-3.55)" style="fill:#5180c1"/><path d="M11.87,8.41h-.08A1,1,0,0,1,11,7.62a.23.23,0,0,1,.13-.26c.09-.05.22,0,.26.13a.68.68,0,0,0,.44.52.38.38,0,0,0,.44-.21c.31-.49.39-.62.61-.57s.13.22.13.35h0a.74.74,0,0,1,.57-.09.48.48,0,0,1,.27.39c0,.09,0,.22-.18.22s-.22,0-.22-.17a.14.14,0,0,0,0-.09.63.63,0,0,0-.35.13.33.33,0,0,1-.35,0c-.05,0-.09,0-.09-.08l0,0A.76.76,0,0,1,11.87,8.41Z" transform="translate(-3.55)" style="fill:#5180c1"/><path d="M16.3,10.38a.16.16,0,0,1-.13,0c-.09-.05-.09-.14-.09-.22l.48-1.58h-.92a.18.18,0,0,1-.17-.18V4.91a.18.18,0,0,1,.17-.18H22a.18.18,0,0,1,.17.18V8.36a.18.18,0,0,1-.17.18H18.58l-2.24,1.8C16.39,10.38,16.34,10.38,16.3,10.38Zm-.4-2.23h1a.33.33,0,0,1,.17.08.25.25,0,0,1,.05.18l-.4,1.18,1.75-1.4a.19.19,0,0,1,.14,0h3.24V5.08H15.9Z" transform="translate(-3.55)" style="fill:#5180c1"/><path d="M20.11,5.91H16.87a.18.18,0,1,1,0-.35h3.24a.18.18,0,0,1,.17.18A.16.16,0,0,1,20.11,5.91Z" transform="translate(-3.55)" style="fill:#5180c1"/><path d="M20.94,6.66H16.87a.19.19,0,0,1-.18-.18.18.18,0,0,1,.18-.17h4.07a.18.18,0,0,1,.18.17A.17.17,0,0,1,20.94,6.66Z" transform="translate(-3.55)" style="fill:#5180c1"/><path d="M20.94,7.36H16.87a.19.19,0,0,1-.18-.18A.18.18,0,0,1,16.87,7h4.07a.18.18,0,0,1,.18.17A.17.17,0,0,1,20.94,7.36Z" transform="translate(-3.55)" style="fill:#5180c1"/><path d="M14.94,23.17H6a.18.18,0,0,1,0-.35h9a.18.18,0,1,1,0,.35Z" transform="translate(-3.55)" style="fill:#5180c1"/><path d="M16.17,24H9.64a.18.18,0,0,1,0-.35h6.53a.18.18,0,0,1,0,.35Z" transform="translate(-3.55)" style="fill:#5180c1"/><path d="M17.66,24h-.84a.18.18,0,0,1,0-.35h.84a.18.18,0,0,1,0,.35Z" transform="translate(-3.55)" style="fill:#5180c1"/><path d="M6.84,24H3.73a.19.19,0,0,1-.18-.18.18.18,0,0,1,.18-.17H6.84a.18.18,0,0,1,.17.17A.16.16,0,0,1,6.84,24Z" transform="translate(-3.55)" style="fill:#5180c1"/></g></svg>