<svg id="Layer_1" data-name="Layer 1" xmlns="http://www.w3.org/2000/svg" viewBox="0 0 22.3 24"><g id="B_-_118_Profile_Abilities_business_employee_job_man_resume_skills" data-name="B - 118, Profile, Abilities, business, employee, job, man, resume, skills"><polygon points="14.37 16.69 16.12 19.09 15.15 20.02 13.66 17.34 14.37 16.69" style="fill:#fff"/><polygon points="18.53 17.34 16.95 19.88 16.12 19.09 17.82 16.69 18.53 17.34" style="fill:#fff"/><path d="M19.38,17.34c4,2.32,3.54,1.23,3.54,5.78a26.22,26.22,0,0,1-12,0V21.81c-.05-3.07-.05-2.45,3.59-4.51L16.05,20l1-.92.88.79Z" transform="translate(-0.85)" style="fill:#a1c6e9"/><path d="M17,9.11a3.07,3.07,0,0,1,3,3.11c0,1.62-1,4.51-3,4.51s-3-2.89-3-4.51A3,3,0,0,1,17,9.11Z" transform="translate(-0.85)" style="fill:#fff"/><polygon points="6.48 18 6.48 19.53 4.29 19.53 4.29 17.34 6.48 17.34 6.48 18" style="fill:#fff"/><polygon points="6.48 9.9 6.48 11.21 4.29 11.21 4.29 9.02 6.48 9.02 6.48 9.9" style="fill:#fff"/><rect x="4.29" y="13.18" width="2.19" height="2.19" style="fill:#fff"/><rect x="4.29" y="4.86" width="2.19" height="2.19" style="fill:#fff"/><polygon points="1.23 19.45 0.13 19.45 0.13 0.17 15.63 0.17 15.63 2.58 2.58 2.58 2.58 19.45 1.23 19.45" style="fill:#a1c6e9"/><path d="M18.89,10a.19.19,0,0,1-.17-.18v-7H16.48a.19.19,0,0,1-.17-.18.19.19,0,0,1,.17-.17h2.41a.19.19,0,0,1,.18.17V9.81C19.11,9.9,19,10,18.89,10Z" transform="translate(-0.85)" style="fill:#5180c1"/><path d="M11,22H3.43a.19.19,0,0,1-.17-.18V19.49a.19.19,0,0,1,.17-.18.19.19,0,0,1,.18.18v2.19h7.31c.09,0,.22.09.22.17A.19.19,0,0,1,11,22Z" transform="translate(-0.85)" style="fill:#5180c1"/><path d="M7.33,7.27H5.14A.18.18,0,0,1,5,7.09V4.91a.18.18,0,0,1,.17-.18H7.33a.19.19,0,0,1,.18.18V7.09C7.55,7.18,7.46,7.27,7.33,7.27Zm-2-.39h1.8V5.08H5.36v1.8Z" transform="translate(-0.85)" style="fill:#5180c1"/><path d="M7.33,11.43H5.14A.18.18,0,0,1,5,11.26V9.07a.18.18,0,0,1,.17-.18H7.33a.19.19,0,0,1,.18.18v2.19C7.55,11.34,7.46,11.43,7.33,11.43Zm-2-.39h1.8V9.24H5.36V11Z" transform="translate(-0.85)" style="fill:#5180c1"/><path d="M7.33,15.59H5.14A.18.18,0,0,1,5,15.42V13.23a.18.18,0,0,1,.17-.18H7.33a.19.19,0,0,1,.18.18v2.19C7.55,15.5,7.46,15.59,7.33,15.59Zm-2-.39h1.8V13.4H5.36v1.8Z" transform="translate(-0.85)" style="fill:#5180c1"/><path d="M7.33,19.75H5.14A.18.18,0,0,1,5,19.58V17.39a.18.18,0,0,1,.17-.18H7.33a.19.19,0,0,1,.18.18v2.19C7.55,19.66,7.46,19.75,7.33,19.75Zm-2-.39h1.8v-1.8H5.36v1.8Z" transform="translate(-0.85)" style="fill:#5180c1"/><path d="M14.12,5.78H8.34a.18.18,0,1,1,0-.35h5.78a.18.18,0,1,1,0,.35Z" transform="translate(-0.85)" style="fill:#5180c1"/><path d="M12,6.57H8.34a.18.18,0,1,1,0-.35H12a.18.18,0,1,1,0,.35Z" transform="translate(-0.85)" style="fill:#5180c1"/><path d="M14.12,9.94H8.34a.18.18,0,1,1,0-.35h5.78a.18.18,0,1,1,0,.35Z" transform="translate(-0.85)" style="fill:#5180c1"/><path d="M12,10.73H8.34a.18.18,0,1,1,0-.35H12a.18.18,0,1,1,0,.35Z" transform="translate(-0.85)" style="fill:#5180c1"/><path d="M14.12,14.1H8.34a.18.18,0,1,1,0-.35h5.78a.18.18,0,1,1,0,.35Z" transform="translate(-0.85)" style="fill:#5180c1"/><path d="M12,14.85H8.34a.19.19,0,0,1-.18-.18.18.18,0,0,1,.18-.17H12a.18.18,0,0,1,.18.17A.19.19,0,0,1,12,14.85Z" transform="translate(-0.85)" style="fill:#5180c1"/><path d="M13.07,18.26H8.34a.18.18,0,0,1-.18-.17.19.19,0,0,1,.18-.18h4.73a.18.18,0,0,1,.17.18A.18.18,0,0,1,13.07,18.26Z" transform="translate(-0.85)" style="fill:#5180c1"/><path d="M11.71,19H8.34a.19.19,0,0,1-.18-.18.18.18,0,0,1,.18-.17h3.37a.18.18,0,0,1,.18.17A.17.17,0,0,1,11.71,19Z" transform="translate(-0.85)" style="fill:#5180c1"/><path d="M3.43,19.62H1a.19.19,0,0,1-.17-.17V.18A.19.19,0,0,1,1,0H16.48a.19.19,0,0,1,.18.18v2.4a.19.19,0,0,1-.18.18H3.61V19.45A.19.19,0,0,1,3.43,19.62ZM1.2,19.23h2V2.58a.19.19,0,0,1,.18-.17H16.22v-2H1.2Z" transform="translate(-0.85)" style="fill:#5180c1"/><path d="M6.37,10.69a.38.38,0,0,1-.18-.09L5.8,10c0-.09,0-.22,0-.26a.2.2,0,0,1,.27,0l.3.39,1.27-.7a.18.18,0,0,1,.26.09.17.17,0,0,1-.08.26l-1.4.84Z" transform="translate(-0.85)" style="fill:#5180c1"/><path d="M6.37,18.79a.38.38,0,0,1-.18-.09l-.39-.57c0-.09,0-.22,0-.26a.2.2,0,0,1,.27,0l.3.4,1.27-.7a.17.17,0,0,1,.26.08.18.18,0,0,1-.08.27l-1.4.83C6.41,18.74,6.41,18.79,6.37,18.79Z" transform="translate(-0.85)" style="fill:#5180c1"/><path d="M2.08,19.62a.19.19,0,0,1-.18-.17v-11a.19.19,0,0,1,.18-.18.19.19,0,0,1,.17.18v11C2.29,19.53,2.21,19.62,2.08,19.62Z" transform="translate(-0.85)" style="fill:#5180c1"/><path d="M19.38,21.2H18a.19.19,0,0,1-.18-.18.18.18,0,0,1,.18-.17h1.36a.18.18,0,0,1,.17.17A.19.19,0,0,1,19.38,21.2Z" transform="translate(-0.85)" style="fill:#5180c1"/><path d="M19.38,22.07H18a.18.18,0,0,1-.18-.17.19.19,0,0,1,.18-.18h1.36a.19.19,0,0,1,.17.18A.18.18,0,0,1,19.38,22.07Z" transform="translate(-0.85)" style="fill:#5180c1"/><path d="M16.92,24a25.36,25.36,0,0,1-6-.7c-.08,0-.13-.09-.13-.18V21.81c0-2.63,0-2.67,2.1-3.81.44-.22,1-.53,1.58-.88a.21.21,0,0,1,.26.09.2.2,0,0,1-.08.26c-.62.35-1.14.66-1.58.88-1,.53-1.49.79-1.71,1.18a5.4,5.4,0,0,0-.22,2.28V23A25.93,25.93,0,0,0,22.7,23v-1.1c0-1.27.05-1.88-.22-2.27s-.7-.66-1.7-1.23a15.5,15.5,0,0,1-1.54-.88.2.2,0,0,1-.08-.26.21.21,0,0,1,.26-.09c.61.35,1.14.62,1.53.84,2.19,1.18,2.24,1.27,2.19,3.89v1.27a.16.16,0,0,1-.17.18A26,26,0,0,1,16.92,24Z" transform="translate(-0.85)" style="fill:#5180c1"/><path d="M17,17c-2.06,0-3.15-3.07-3.15-4.73A3.24,3.24,0,0,1,17,8.89a3.24,3.24,0,0,1,3.15,3.33C20.16,13.88,19.07,17,17,17Zm0-7.67a2.85,2.85,0,0,0-2.76,2.94c0,1.49,1,4.33,2.76,4.33s2.76-2.84,2.76-4.33A2.85,2.85,0,0,0,17,9.28Z" transform="translate(-0.85)" style="fill:#5180c1"/><path d="M17.8,20.1a.16.16,0,0,1-.13,0l-.88-.79a.19.19,0,0,1,0-.26l1.75-2.37s.09-.09.13-.09.13,0,.13.05l.66.61a.19.19,0,0,1,0,.26l-1.57,2.59s0,0-.09,0Zm-.57-1.05.57.53,1.36-2.24-.4-.35Z" transform="translate(-0.85)" style="fill:#5180c1"/><path d="M16,20.23h0a.23.23,0,0,1-.17-.08l-1.49-2.72c0-.09,0-.17,0-.22L15,16.6a.15.15,0,0,1,.13-.05s.09.05.13.09L17.05,19a.24.24,0,0,1,0,.26l-.92.88A.2.2,0,0,1,16,20.23Zm-1.22-2.89,1.27,2.32.65-.61L15.17,17Z" transform="translate(-0.85)" style="fill:#5180c1"/><path d="M16.13,12.26a.8.8,0,0,1-.3,0,1.59,1.59,0,0,1-1.14-.79.21.21,0,0,1,.09-.26.2.2,0,0,1,.26.09,1.21,1.21,0,0,0,.88.61,1.41,1.41,0,0,0,1.13-.26c.62-.57.75-.66.92-.57s.14.26.09.39v.09a.12.12,0,0,0,.09,0,1.59,1.59,0,0,1,1.23-.08.53.53,0,0,1,.26.35c0,.08-.05.22-.13.26s-.22,0-.27-.13a.09.09,0,0,0-.08-.09,1.28,1.28,0,0,0-.92.13.55.55,0,0,1-.53,0,.36.36,0,0,1-.13-.26,4.57,4.57,0,0,1-.35.31A2,2,0,0,1,16.13,12.26Z" transform="translate(-0.85)" style="fill:#5180c1"/></g></svg>