<svg version="1.1" id="svg19706" xmlns:cc="http://creativecommons.org/ns#" xmlns:dc="http://purl.org/dc/elements/1.1/" xmlns:rdf="http://www.w3.org/1999/02/22-rdf-syntax-ns#" xmlns:svg="http://www.w3.org/2000/svg" xmlns="http://www.w3.org/2000/svg" xmlns:xlink="http://www.w3.org/1999/xlink" x="0px" y="0px" viewBox="0 0 221.75 65.3" style="enable-background:new 0 0 221.75 65.3;" xml:space="preserve">
 <style type="text/css">
  .st0{fill:#003D79;}
	.st1{fill:#FFB700;}
 </style>
 <g id="layer1" transform="translate(-89.62594,-173.49845)">
  <g id="g20360" transform="translate(0.50000158,-0.50000161)">
   <g id="g19736" transform="matrix(1.25,0,0,-1.25,89.85469,218.68498)">
    <path id="path19738" class="st0" d="M0,0c0,2.55-0.05,4.7-0.18,6.61h4.83l0.23-3.29h0.14c1.09,1.73,3.1,3.79,6.84,3.79
				c2.92,0,5.2-1.64,6.15-4.1h0.09c0.77,1.23,1.68,2.14,2.73,2.78c1.23,0.87,2.65,1.33,4.47,1.33c3.69,0,7.43-2.51,7.43-9.62v-13.08
				h-5.47v12.26c0,3.69-1.28,5.88-3.97,5.88c-1.91,0-3.33-1.37-3.92-2.96c-0.14-0.54-0.27-1.23-0.27-1.86v-13.31h-5.47v12.86
				c0,3.09-1.23,5.28-3.83,5.28c-2.09,0-3.51-1.64-4.01-3.19C5.56-1.18,5.47-1.82,5.47-2.46v-13.13H0V0z">
    </path>
   </g>
   <g id="g19740" transform="matrix(1.25,0,0,-1.25,157.39756,231.50735)">
    <path id="path19742" class="st0" d="M0,0c0-2,0.09-3.96,0.32-5.33h-5.06l-0.36,2.46h-0.14c-1.37-1.73-3.69-2.96-6.56-2.96
				c-4.47,0-6.98,3.23-6.98,6.61c0,5.61,4.96,8.43,13.17,8.39v0.36c0,1.46-0.6,3.88-4.51,3.88c-2.19,0-4.47-0.69-5.97-1.64
				l-1.09,3.65c1.64,1,4.51,1.96,8.02,1.96c7.11,0,9.17-4.52,9.17-9.35V0z M-5.47,5.51c-3.97,0.09-7.75-0.77-7.75-4.14
				c0-2.19,1.42-3.19,3.19-3.19c2.23,0,3.87,1.46,4.37,3.06c0.14,0.41,0.18,0.86,0.18,1.23V5.51z">
    </path>
   </g>
   <g id="g19744" transform="matrix(1.25,0,0,-1.25,162.23856,218.68498)">
    <path id="path19746" class="st0" d="M0,0c0,2.55-0.05,4.7-0.18,6.61h4.92l0.27-3.33h0.14c0.96,1.73,3.37,3.84,7.06,3.84
				c3.88,0,7.89-2.51,7.89-9.53v-13.17h-5.61v12.53c0,3.19-1.19,5.61-4.24,5.61c-2.23,0-3.78-1.6-4.38-3.28
				C5.7-1.23,5.65-1.92,5.65-2.55v-13.04H0V0z">
    </path>
   </g>
   <g id="g19748" transform="matrix(1.25,0,0,-1.25,217.74456,199.27835)">
    <path id="path19750" class="st0" d="M0,0v-24.87c0-2.28,0.09-4.74,0.18-6.25h-5.01l-0.23,3.51h-0.09
				c-1.32-2.46-4.01-4.01-7.25-4.01c-5.29,0-9.48,4.51-9.48,11.35c-0.05,7.43,4.6,11.86,9.93,11.86c3.05,0,5.24-1.28,6.24-2.92h0.09
				L-5.6,0H0z M-5.6-18.17c0,0.45-0.05,1-0.14,1.46c-0.5,2.18-2.28,3.96-4.83,3.96c-3.6,0-5.61-3.19-5.61-7.34
				c0-4.05,2.01-7.02,5.57-7.02c2.27,0,4.28,1.55,4.83,3.97c0.14,0.5,0.18,1.05,0.18,1.64C-5.6-21.5-5.6-18.17-5.6-18.17z">
    </path>
   </g>
   <path id="path19752" class="st0" d="M222.7,210.42h7.07v27.75h-7.07V210.42z">
   </path>
   <g id="g19754" transform="matrix(1.25,0,0,-1.25,234.72231,219.37148)">
    <path id="path19756" class="st0" d="M0,0c0,3.01-0.05,5.15-0.18,7.16H4.7l0.18-4.23h0.18c1.09,3.14,3.69,4.23,6.07,4.23
				c0.54,0,0.86,0.09,1.32,0V2.23c-0.45,0.09-0.95,0.18-1.64,0.18c-2.69,0-4.52-1.73-5.02-4.23c-0.09-0.5-0.18-1.1-0.18-1.74v-11.48
				H0V0z">
    </path>
   </g>
   <path id="path19758" class="st0" d="M253.53,210.42h7.06v27.75h-7.06V210.42z">
   </path>
   <g id="g19760" transform="matrix(1.25,0,0,-1.25,44.62531,1166.6247)">
    <g id="g19762">
     <g id="g19768">
      <g id="g19770">
       <path id="path19788" class="st1" d="M165.97,791.83c-3.4-1.97-14.49-8.31-14.49-8.31l0,0c-4.16-1.72-7.35,0.37-8.38,1.91l0,0
							c-0.05,0.06-0.09,0.13-0.12,0.18l0,0l-0.14,0.23l-0.7,1.15c-0.3,0.47-0.63,0.96-1.02,1.46l0,0c-0.34,0.44-0.72,0.87-1.13,1.29
							l0,0c-2.67,2.7-6.95,4.6-14.07,1.21l0,0c-4.31-2.46-14.33-8.19-14.33-8.19l0,0c0,0,0,0,0,0l0,0
							c-4.12-2.36-7.33-4.19-7.33-4.19l0,0l3.79-4.66c1.6-1.52,4.6-4.02,9.24-1.91l0,0c0,0,12.82,7.42,12.87,7.44l0,0
							c10.96,6.01,16.37,0.27,18.75-3.56l0,0c0.08-0.12,0.15-0.25,0.23-0.36l0,0l0.01-0.01c0.03-0.05,0.05-0.09,0.07-0.13l0,0
							l0.27-0.44c1.16-1.77,3-2.91,5.19-2.85l0,0c1.21,0.02,2.03,0.42,3.22,1.08l0,0l12.4,7.19c0.01,0,0.01,0.01,0.03,0.01l0,0
							c11.09,6.09,16.59-0.03,18.94-3.86l0,0c0.18-0.33,0.39-0.65,0.6-0.94l0,0c1.16-1.58,2.77-2.61,4.8-2.56l0,0
							c1.34,0.03,2.85,0.83,3.08,0.98l0,0l14.87,8.58c0,0-1.52,2.29-4.65,5.87l0,0c-2.8,3.19-5.77,1.75-8.13,0.57l0,0
							c-0.99-0.49-8.17-4.56-8.17-4.56l0,0c-3.93-1.62-6.99,0.15-8.2,1.64l0,0c-0.12,0.16-0.23,0.3-0.31,0.45l0,0l-0.28,0.48
							c-0.43,0.73-0.95,1.55-1.58,2.36l0,0c-0.34,0.44-0.72,0.88-1.13,1.29l0,0c-1.65,1.67-3.91,3.03-7.08,3.03l0,0
							C171.08,793.7,168.74,793.17,165.97,791.83">
       </path>
      </g>
     </g>
    </g>
   </g>
  </g>
 </g>
</svg>