<svg xmlns="http://www.w3.org/2000/svg" viewBox="0 0 24 24" id="Bin-1--Streamline-Ultimate" height="24" width="24">
  <desc>
    Bin 1 Streamline Icon: https://streamlinehq.com
  </desc>
  <path d="m21 4.5 -1.812 17.209A2 2 0 0 1 17.2 23.5H6.8a2 2 0 0 1 -1.989 -1.791L3 4.5Z" fill="#dff9ff" stroke-width="1"></path>
  <path d="m20.684 7.5 0.316 -3 -18 0 0.316 3z" fill="#9feaff" stroke-width="1"></path>
  <path d="m21 4.5 -1.812 17.209A2 2 0 0 1 17.2 23.5H6.8a2 2 0 0 1 -1.989 -1.791L3 4.5Z" fill="none" stroke="#00303e" stroke-linecap="round" stroke-linejoin="round" stroke-width="1"></path>
  <path d="m0.5 4.5 23 0" fill="none" stroke="#00303e" stroke-linecap="round" stroke-linejoin="round" stroke-width="1"></path>
  <path d="M7.5 4.5v-3a1 1 0 0 1 1 -1h7a1 1 0 0 1 1 1v3" fill="none" stroke="#00303e" stroke-linecap="round" stroke-linejoin="round" stroke-width="1"></path>
  <path d="m12 9 0 10.5" fill="none" stroke="#00303e" stroke-linecap="round" stroke-linejoin="round" stroke-width="1"></path>
  <path d="M16.5 9 16 19.5" fill="none" stroke="#00303e" stroke-linecap="round" stroke-linejoin="round" stroke-width="1"></path>
  <path d="M7.5 9 8 19.5" fill="none" stroke="#00303e" stroke-linecap="round" stroke-linejoin="round" stroke-width="1"></path>
</svg>