<svg xmlns="http://www.w3.org/2000/svg" viewBox="0 0 24 23.61"><g style="isolation:isolate"><g id="Layer_1" data-name="Layer 1"><path d="M18,15h.9a.61.61,0,0,1,.61.61v3.79a.62.62,0,0,1-.61.61H18a.61.61,0,0,1-.61-.61V15.63A.61.61,0,0,1,18,15Z" transform="translate(0 -0.26)" style="fill:#4b494c"/><path d="M5.06,15H6a.61.61,0,0,1,.61.61v3.79A.61.61,0,0,1,6,20H5.06a.61.61,0,0,1-.61-.61V15.63A.61.61,0,0,1,5.06,15Z" transform="translate(0 -0.26)" style="fill:#4b494c"/><path d="M18.93,10.76c-.74-.19-.63.55-.63.55h-.18L17,9.14a1.09,1.09,0,0,0-.59-.44c-.27-.25-2-.45-4.37-.45a16.57,16.57,0,0,0-4.21.36,1.2,1.2,0,0,0-.74.53L5.88,11.32H5.7s.11-.74-.63-.55-1.07.62-1,1,1.09.23,1.46.2v0a2.33,2.33,0,0,0-1.19,2.15v3.25H19.63V14.08a2.36,2.36,0,0,0-1.18-2.15v0c.37,0,1.35.07,1.44-.2S19.66,10.94,18.93,10.76Z" transform="translate(0 -0.26)" style="fill:#bebcb8"/><path d="M6,11.61l1.12-2.3a1.36,1.36,0,0,1,1-.6h7.67a1.36,1.36,0,0,1,1,.6L18,11.61c.09.18,0,.32-.22.32H6.22C6,11.93,5.92,11.79,6,11.61Z" transform="translate(0 -0.26)" style="fill:#303030"/><path d="M6.22,11.75H6.16a.28.28,0,0,1,0-.06l1.12-2.3a1.21,1.21,0,0,1,.88-.49h7.67a1.23,1.23,0,0,1,.88.5l1.11,2.29s0,.06,0,.06H6.22Z" transform="translate(0 -0.26)" style="fill:#010101"/><path d="M16.59,16.51l-.48.38H7.81l-.47-.38h-3c0,.24,0,.91,0,.91,0,.3.57.54,1.27.54H18.37c.7,0,1.26-.24,1.26-.54v-.91Z" transform="translate(0 -0.26)" style="fill:#272629"/><path d="M15.34,17H8.67c-.32,0-.34-.22-.41-.49s.11-.49.43-.49h6.62c.32,0,.52.22.44.49S15.65,17,15.34,17Z" transform="translate(0 -0.26)" style="fill:#272629"/><path d="M17.61,15.22c-.15-.16-.44-.19-.9-.24l-.46-.05a1.38,1.38,0,0,1-.8-.51c.82-.2,3-.74,3.5-.8H19c.06,0,.11,0,.12.05a1.25,1.25,0,0,1-.18.83,2.21,2.21,0,0,1-1.34.73Z" transform="translate(0 -0.26)" style="fill:#fff"/><path d="M6.39,15.22c.15-.16.44-.19.9-.24l.46-.05a1.38,1.38,0,0,0,.8-.51c-.81-.2-3-.74-3.5-.8H5a.14.14,0,0,0-.13.05,1.31,1.31,0,0,0,.18.83,2.21,2.21,0,0,0,1.34.73Z" transform="translate(0 -0.26)" style="fill:#fff"/><g style="mix-blend-mode:multiply"><path d="M10.49,15.05a.82.82,0,0,1-.82-.63.44.44,0,0,1,.1-.38.67.67,0,0,1,.5-.2h3.47a.63.63,0,0,1,.49.2.48.48,0,0,1,.11.38.84.84,0,0,1-.82.63Z" transform="translate(0 -0.26)" style="fill:#b1b0ad"/></g><path d="M19.63,16h-.39a.19.19,0,0,0-.19.19.18.18,0,0,0,.19.18h.39Z" transform="translate(0 -0.26)" style="fill:#f58020"/><path d="M4.37,16h.4a.19.19,0,0,1,.18.19.18.18,0,0,1-.18.18h-.4Z" transform="translate(0 -0.26)" style="fill:#f58020"/><rect x="0.91" y="21.86" width="22.8" height="1.75" style="fill:#f7941d"/><polygon points="23.14 8.26 12 2.01 0.86 8.26 0 6.73 12 0 24 6.73 23.14 8.26" style="fill:#f7941d"/></g></g></svg>